M48
INCH
T01C.01969
T02C.03543
T03C.03937
T04C.04724
;EXTENTS: -250.000 -250.000 250.000 250.000 
;LEADER: 12 
;HEADER: 
;CODE  : ASCII 
;FILE  : G:/huangwei/complete/202102/BeagleV/BeagleV final_20210323/BeagleV_no_Logo/gerber/BeagleV_15_1-12.rou for board G:/huangwei/complete/202102/BeagleV/BeagleV final_20210323/BeagleV_no_Logo/#Taaaafg20408.tmp, layers TOP to BOTTOM
%
G90
F1
M16
T03
M16
G00X-1232700Y0688208
G40
M15
G01X-1232700Y0690178
M16
G00X-1236441Y0700217
G40
M15
G01X-1234471Y0700217
M16
G00X-1236441Y0678169
G40
M15
G01X-1234471Y0678169
M16
T04
M16
G00X-1267543Y0700610
G40
M15
G01X-1266361Y0700610
M16
G00X-1267543Y0677776
G40
M15
G01X-1266361Y0677776
M16
T02
M16
G00X-1100543Y0886201
G40
M15
G01X-1100543Y0893683
M16
G00X-1043457Y0886201
G40
M15
G01X-1043457Y0893683
M16
G00X-1100543Y0911791
G40
M15
G01X-1100543Y0915335
M16
G00X-1043457Y0911791
G40
M15
G01X-1043457Y0915335
M16
T01
M16
G00X-0972820Y0919626
G40
M15
G01X-0972820Y0922776
M16
G00X-0972820Y0903090
G40
M15
G01X-0972820Y0906240
M16
G00X-1006679Y0919626
G40
M15
G01X-1006679Y0922776
M16
G00X-1006679Y0903090
G40
M15
G01X-1006679Y0906240
M16
G40
M30
