M48
INCH
T01C.008
T02C.02756
T03C.03543
T04C.04134
T05C.04331
T06C.06693
T07C.09055
T08C.02362
T09C.03543
T10C.04724
T11C.05118
T12C.12795
;LEADER: 12 
;HEADER: 
;CODE  : ASCII 
;FILE  : BeagleV_15-1-12.drl for  ... layers TOP and BOTTOM
;DESIGN: BeagleV_15.brd
;T01 Holesize 1. = 8.000000 Tolerance = +0.000000/-0.000000 PLATED MILS Quantity = 2052
;T02 Holesize 2. = 27.560000 Tolerance = +0.000000/-0.000000 PLATED MILS Quantity = 36
;T03 Holesize 3. = 35.430000 Tolerance = +0.000000/-0.000000 PLATED MILS Quantity = 10
;T04 Holesize 4. = 41.340000 Tolerance = +0.000000/-0.000000 PLATED MILS Quantity = 4
;T05 Holesize 5. = 43.310000 Tolerance = +0.000000/-0.000000 PLATED MILS Quantity = 43
;T06 Holesize 6. = 66.930000 Tolerance = +0.000000/-0.000000 PLATED MILS Quantity = 2
;T07 Holesize 7. = 90.550000 Tolerance = +0.000000/-0.000000 PLATED MILS Quantity = 8
;T08 Holesize 8. = 23.620000 Tolerance = +0.000000/-0.000000 NON_PLATED MILS Quantity = 2
;T09 Holesize 9. = 35.430000 Tolerance = +0.000000/-0.000000 NON_PLATED MILS Quantity = 2
;T10 Holesize 10. = 47.240000 Tolerance = +0.000000/-0.000000 NON_PLATED MILS Quantity = 3
;T11 Holesize 11. = 51.180000 Tolerance = +0.000000/-0.000000 NON_PLATED MILS Quantity = 2
;T12 Holesize 12. = 127.950000 Tolerance = +0.000000/-0.000000 NON_PLATED MILS Quantity = 2
%
G90
T01
X-1053700Y0845600
X-1013800Y0821600
X-1062100Y0715000
X-1102913Y0745500
X-0951100Y0881100
X-0965100Y0848700
X-0954100Y0834300
X-0997400Y0897600
X-0999100Y0899300
X-0998900Y0897100
X-0980300Y0899000
X-0982700Y0898500
X-0978600Y0897900
X-0969055Y0867660
X-1021100Y0878000
X-0958500Y0834400
X-0974700Y0887600
X-1248900Y0667400
X-1131008Y0788936
X-1251700Y0672100
X-1146386Y0806900
X-1258800Y0667500
X-1141268Y0804168
X-1261300Y0665800
X-1128449Y0786377
X-1263900Y0666800
X-1143768Y0806800
X-1137700Y0898500
X-1133400Y0793800
X-1128449Y0791495
X-1139600Y0899900
X-1127145Y0837100
X-1123227Y0804200
X-1035200Y0709200
X-1108009Y0737800
X-0996850Y0813250
X-1118206Y0742879
X-1118206Y0740320
X-0983100Y0688400
X-1048300Y0699300
X-0986700Y0689100
X-1110529Y0742879
X-0990200Y0688700
X-1052200Y0714300
X-1110529Y0745439
X-0993713Y0688700
X-1059000Y0714100
X-1115647Y0737761
X-0994000Y0706600
X-1049300Y0710400
X-1115600Y0732700
X-1112700Y0714900
X-1174743Y0718070
X-1186916Y0682300
X-1111500Y0686400
X-1108200Y0686400
X-1115300Y0702200
X-1188884Y0678093
X-1190900Y0683800
X-1115300Y0686450
X-1117400Y0716400
X-1131700Y0685700
X-1129000Y0710500
X-1182979Y0684300
X-1066100Y0696900
X-1110529Y0740320
X-0965500Y0865400
X-1115782Y0730219
X-0987400Y0724000
X-1055600Y0714200
X-1115647Y0740320
X-1018000Y0688600
X-1118341Y0730219
X-1208359Y0665941
X-1126700Y0677600
X-1125883Y0740320
X-1120950Y0677450
X-1123277Y0732700
X-1208441Y0670141
X-1094600Y0671600
X-1125900Y0704400
X-1123324Y0742879
X-1131001Y0737760
X-1114600Y0661600
X-1123324Y0737761
X-1123200Y0656700
X-1125940Y0732700
X-1133200Y0660700
X-1133551Y0737751
X-1116700Y0665600
X-1125883Y0742879
X-1135200Y0662900
X-1133641Y0740400
X-1104900Y0671700
X-1126000Y0710600
X-1126000Y0707400
X-1125400Y0672200
X-1131008Y0740327
X-1125883Y0745439
X-1129200Y0707400
X-1136000Y0672500
X-1136500Y0710800
X-1133600Y0742918
X-1137344Y0714513
X-1156195Y0664595
X-1131022Y0742900
X-1140300Y0714200
X-1144200Y0710800
X-1140300Y0710800
X-1139550Y0897250
X-1030000Y0839600
X-1029700Y0709100
X-1100145Y0707355
X-1179800Y0717000
X-1100293Y0740320
X-1141478Y0903122
X-1030000Y0841600
X-1028200Y0707900
X-1177264Y0716643
X-1109200Y0707600
X-1102852Y0737761
X-1116715Y0899185
X-0972500Y0764900
X-1027200Y0716700
X-1102850Y0735200
X-0972500Y0761000
X-1029600Y0715000
X-1102852Y0740320
X-1116678Y0903122
X-1140000Y0892912
X-1037600Y0715100
X-1102852Y0742879
X-1116200Y0889400
X-1039200Y0713600
X-1102900Y0732691
X-1008800Y0833500
X-1009500Y0816900
X-1064600Y0717700
X-1032600Y0728700
X-1107970Y0740320
X-1004600Y0771800
X-1007700Y0771500
X-1107970Y0732643
X-1010159Y0771559
X-1108200Y0730314
X-0996850Y0808650
X-1041200Y0709200
X-0996850Y0804250
X-1044000Y0709100
X-1107300Y0743400
X-1050100Y0705400
X-1107970Y0745439
X-1054200Y0705400
X-1063200Y0697000
X-1110600Y0735273
X-1064600Y0698500
X-1110529Y0737761
X-1107846Y0783700
X-1105412Y0783825
X-1004340Y0733140
X-1115647Y0742879
X-0993000Y0737800
X-1118263Y0732700
X-1115647Y0745439
X-0993100Y0735100
X-1118300Y0735296
X-1007200Y0733354
X-1118206Y0737761
X-0997300Y0735000
X-1110000Y0698900
X-1118206Y0745439
X-1126100Y0737978
X-1113900Y0656000
X-1114600Y0658900
X-1123324Y0745439
X-1010300Y0838500
X-1008200Y0837800
X-1020900Y0916194
X-1000450Y0840050
X-1003150Y0840249
X-0994600Y0874000
X-0992500Y0877200
X-0991878Y0858800
X-0992300Y0882600
X-1027421Y0909721
X-1031200Y0879700
X-1053300Y0868100
X-1032300Y0854900
X-1053429Y0860467
X-1032700Y0863000
X-1030800Y0858700
X-0950800Y0843200
X-0983000Y0856900
X-0954500Y0870100
X-1015500Y0839300
X-0950700Y0839400
X-0999100Y0850011
X-1168400Y0856100
X-1094200Y0794300
X-1023568Y0887168
X-1092620Y0781282
X-1051200Y0829300
X-1032900Y0849800
X-1097737Y0786384
X-1041829Y0859329
X-1131571Y0819559
X-0973505Y0785118
X-1105407Y0804293
X-1200600Y0677700
X-1068750Y0710150
X-1126024Y0735343
X-1134719Y0819559
X-0973505Y0788266
X-1097700Y0796586
X-0973805Y0773307
X-1143424Y0815929
X-0973805Y0776455
X-1143424Y0812781
X-1136181Y0822259
X-0973805Y0796929
X-1076500Y0727500
X-1078600Y0727500
X-1071469Y0729675
X-1069617Y0729750
X-1162100Y0763800
X-0980000Y0811800
X-0992874Y0832800
X-0979701Y0815867
X-0979654Y0813897
X-0977500Y0811000
X-0975300Y0809900
X-0975400Y0812700
X-0975532Y0814974
X-0977429Y0815610
X-0977500Y0813300
X-0975500Y0817500
X-0977464Y0820100
X-1087900Y0758000
X-1090058Y0758234
X-1090059Y0760798
X-1090059Y0750558
X-1090059Y0753118
X-1087400Y0755577
X-1087499Y0753118
X-1092616Y0763352
X-1095175Y0768470
X-1089900Y0768800
X-1092616Y0768470
X-1065300Y0769200
X-1092617Y0773588
X-1089800Y0773500
X-1087300Y0783600
X-1087500Y0776146
X-1087497Y0778708
X-1079600Y0776600
X-1056900Y0777500
X-1059925Y0787575
X-1063050Y0787100
X-1131100Y0747900
X-1199400Y0753200
X-1199398Y0758382
X-1131001Y0753117
X-1125885Y0760794
X-1128444Y0760794
X-1131001Y0750558
X-1131001Y0755676
X-1128441Y0758234
X-1213450Y0761650
X-1199698Y0771177
X-1199698Y0766059
X-1189950Y0763600
X-1158100Y0763750
X-1125884Y0765912
X-1125885Y0768472
X-1128443Y0765912
X-1123325Y0768472
X-1123325Y0765912
X-1213150Y0773450
X-1199393Y0784172
X-1183649Y0776295
X-1183649Y0773737
X-1193300Y0776300
X-1177351Y0778854
X-1177800Y0773600
X-1180701Y0781313
X-1167900Y0778754
X-1161700Y0782700
X-1159400Y0773900
X-1128446Y0773588
X-1125134Y0779564
X-1123326Y0778708
X-1123326Y0776148
X-1186794Y0789091
X-1189954Y0786532
X-1189949Y0791650
X-1176081Y0794048
X-1174206Y0789091
X-1171056Y0789091
X-1179300Y0801100
X-1027500Y0742000
X-1025600Y0743500
X-1154700Y0720500
X-1148600Y0720400
X-1144400Y0720400
X-1139800Y0723500
X-1199300Y0743000
X-1183649Y0753264
X-1183654Y0750705
X-1193000Y0750700
X-1177351Y0753264
X-1171300Y0763700
X-1161100Y0753500
X-1062128Y0759800
X-1059000Y0772400
X-1050600Y0792668
X-1037999Y0795227
X-1041149Y0792768
X-1034851Y0790209
X-1034851Y0787651
X-1040600Y0787514
X-1019102Y0779973
X-1018500Y0775814
X-1019102Y0785091
X-1025400Y0790214
X-1188174Y0734500
X-1194500Y0730600
X-1194535Y0728700
X-1197200Y0732200
X-1172040Y0734927
X-1174900Y0731500
X-1184300Y0733200
X-1178100Y0732300
X-1189954Y0740369
X-1184000Y0738200
X-1174200Y0737800
X-1180372Y0740868
X-1180700Y0745700
X-1177300Y0748145
X-1171056Y0737909
X-1156372Y0745886
X-1167900Y0748146
X-1167900Y0745700
X-1047444Y0748864
X-1031578Y0749092
X-1054500Y0744450
X-1025800Y0741400
X-1028031Y0740300
X-1050600Y0762060
X-1041200Y0762059
X-1038128Y0754782
X-1044300Y0751714
X-1037800Y0759614
X-1031600Y0751814
X-1028546Y0754283
X-1014150Y0758045
X-1047650Y0777514
X-1041000Y0767100
X-1034846Y0764619
X-1034851Y0767178
X-1025300Y0764614
X-1028181Y0777457
X-1018800Y0769674
X-1047444Y0803005
X-1044294Y0803005
X-1028551Y0805564
X-1019107Y0797887
X-1042419Y0807962
X-1038000Y0809800
X-1139329Y0822259
X-0973805Y0800077
X-1264000Y0754700
X-1266200Y0754700
X-1260600Y0828000
X-1262644Y0827844
X-1097550Y0722450
X-1090100Y0732700
X-1213000Y0687850
X-1214000Y0700700
X-1091650Y0709950
X-1103750Y0714750
X-1092616Y0737761
X-1207900Y0680600
X-1211400Y0712400
X-1097550Y0717650
X-1091650Y0714750
X-1084500Y0735200
X-1100541Y0714741
X-1092616Y0740320
X-1106950Y0714750
X-1095175Y0742879
X-1035700Y0828600
X-1037600Y0823100
X-1033700Y0823100
X-1033300Y0826700
X-1035900Y0822000
X-1031600Y0828856
X-1031600Y0822300
X-1039200Y0822100
X-1030300Y0849400
X-1033582Y0829786
X-1092600Y0787100
X-1090000Y0786700
X-1102853Y0768471
X-1101500Y0773500
X-1115649Y0788941
X-1092300Y0788700
X-1128400Y0804200
X-1131500Y0793700
X-1128400Y0799300
X-1131860Y0801540
X-1131860Y0797560
X-1113090Y0776148
X-1113090Y0778707
X-1115648Y0781265
X-1120766Y0781265
X-1110500Y0781800
X-1107970Y0778705
X-1097734Y0760795
X-1097734Y0758235
X-1123325Y0771032
X-1102852Y0765912
X-1107971Y0765912
X-1107971Y0768471
X-1110529Y0771030
X-1115648Y0771030
X-1115649Y0776147
X-1100294Y0758235
X-1090058Y0788943
X-1097735Y0776148
X-1100292Y0765908
X-1105368Y0771369
X-1100292Y0776148
X-1105382Y0768500
X-1107971Y0771030
X-1030060Y0853160
X-1100500Y0722600
X-1097400Y0728000
X-1212945Y0689955
X-1068741Y0717541
X-1210600Y0677800
X-1213222Y0694800
X-1080050Y0710150
X-1190100Y0825100
X-1188400Y0825100
X-1185538Y0831638
X-1167287Y0851787
X-1153400Y0864700
X-1064600Y0841900
X-1066700Y0841900
X-1105421Y0868921
X-1105600Y0866600
X-1005700Y0895800
X-1003700Y0895800
X-1003700Y0894100
X-1005700Y0894200
X-1088850Y0722550
X-1095166Y0732634
X-1208300Y0691600
X-1074450Y0717650
X-1210600Y0684700
X-1092616Y0742879
X-1094650Y0722450
X-1085850Y0714750
X-1090296Y0729895
X-1088600Y0714700
X-1091700Y0728400
X-1097360Y0714760
X-1087498Y0737761
X-1092600Y0811600
X-1080050Y0714850
X-1079820Y0735201
X-1106664Y0723200
X-1092616Y0745439
X-1082950Y0714800
X-1086450Y0726550
X-1143755Y0768442
X-1214200Y0705200
X-1094550Y0709850
X-1214300Y0707900
X-1210600Y0693300
X-1094600Y0707600
X-1192000Y0827400
X-1263200Y0801700
X-0982100Y0884200
X-0982100Y0885900
X-0983800Y0885900
X-0983800Y0884100
X-0972200Y0875100
X-0972200Y0876800
X-0972200Y0878600
X-0973700Y0879500
X-0973700Y0877800
X-0973700Y0876000
X-1274400Y0815500
X-1274400Y0813700
X-1272880Y0800120
X-1176600Y0870900
X-1178300Y0870900
X-1176700Y0869200
X-1178300Y0869200
X-1152200Y0853800
X-0991300Y0871300
X-0962900Y0828600
X-0961000Y0828500
X-0961100Y0826500
X-0963100Y0826500
X-0994000Y0862700
X-0994100Y0857700
X-1030400Y0871600
X-1030400Y0873500
X-1030400Y0875500
X-1030400Y0863700
X-1034700Y0873300
X-1032600Y0871600
X-1032700Y0873600
X-1036200Y0875300
X-1032700Y0875600
X-1011400Y0876800
X-1006500Y0876900
X-1011305Y0840705
X-1165713Y0853700
X-1261300Y0809000
X-1207607Y0815492
X-1174266Y0855267
X-1205517Y0819022
X-1178990Y0853808
X-1202481Y0836602
X-1204785Y0739117
X-1207400Y0742600
X-1197083Y0830633
X-1196217Y0819156
X-1204717Y0745199
X-1147356Y0816682
X-1207000Y0751000
X-1213824Y0800590
X-1205545Y0827289
X-1159123Y0815515
X-1205400Y0727223
X-1207617Y0730665
X-1146900Y0825700
X-1204717Y0748133
X-1147356Y0819616
X-1207000Y0748641
X-1213824Y0797656
X-1092606Y0806867
X-1206302Y0805097
X-1168600Y0815300
X-1161115Y0815424
X-1205400Y0730157
X-1207800Y0823566
X-1207617Y0733599
X-1147000Y0823500
X-1207800Y0826500
X-1196217Y0816222
X-1206302Y0808031
X-1170600Y0815300
X-1205545Y0830223
X-1140000Y0883192
X-1105500Y0809327
X-1140000Y0880119
X-1105568Y0806700
X-1094550Y0714800
X-1083503Y0741603
X-1103208Y0723004
X-1095175Y0740320
X-1133241Y0725489
X-1242600Y0666000
X-1169700Y0862200
X-1137322Y0909978
X-1118150Y0839550
X-1160000Y0778150
X-1013800Y0797700
X-1015300Y0796000
X-1201400Y0718000
X-1201500Y0719800
X-1028200Y0879000
X-1011300Y0894100
R02X-0001900
X-1011300Y0892100
X-1249000Y0805400
X-1250000Y0799200
X-1182900Y0813091
X-1163003Y0813097
X-1173900Y0814800
X-0983250Y0765850
X-0983200Y0767400
X-1148659Y0814441
X-1124600Y0724100
X-1060100Y0795014
X-1059628Y0759800
X-1044564Y0767134
X-1028556Y0764618
X-1012624Y0768600
X-1014000Y0762600
X-1044400Y0787614
X-1028551Y0790209
X-1016500Y0794583
X-1189949Y0776295
X-1174100Y0773700
X-1199750Y0779250
X-1199393Y0748145
X-1158872Y0745886
X-1189944Y0750704
X-1132900Y0723700
X-1126500Y0724100
X-1126400Y0726300
X-1120766Y0750558
X-1115648Y0750558
X-1120766Y0788941
X-1102849Y0788941
X-1110529Y0788941
X-1087900Y0791100
X-1095186Y0781255
X-1118207Y0758234
X-1113087Y0758234
X-1113089Y0753117
X-1113089Y0750558
X-1115648Y0753117
X-1174201Y0753263
X-0978200Y0808400
X-1095175Y0737761
X-1091850Y0722550
X-0979300Y0843600
X-1127087Y0867800
X-1028000Y0695400
X-1150000Y0907200
X-1151600Y0907200
X-1127900Y0906900
X-1126100Y0906900
X-1070900Y0869100
X-1070300Y0867500
X-1173300Y0698400
X-1144200Y0677700
X-1008800Y0794200
X-1010300Y0794000
X-1110000Y0709692
X-0963200Y0749100
X-0964700Y0749191
X-1010400Y0724600
X-1012100Y0724500
X-0993600Y0864750
X-0979000Y0868600
X-0981100Y0868800
X-0973800Y0867400
X-0974500Y0870400
X-1064100Y0725900
X-1062140Y0727785
X-1064137Y0727901
X-1066137Y0727899
X-1115647Y0760794
X-1113087Y0760794
X-1102852Y0750557
X-1100293Y0750557
X-1118206Y0765913
X-1097735Y0750557
X-1097735Y0781266
X-1165800Y0712300
X-1095175Y0735202
X-1085850Y0722600
X-1207607Y0812558
X-1171332Y0855267
X-1205517Y0816088
X-1176056Y0853808
X-1202481Y0839536
X-1204785Y0736183
X-1207400Y0739666
X-1200017Y0830633
X-1172400Y0816200
X-1162925Y0815985
X-1184300Y0815500
X-1182800Y0815500
X-1184200Y0823800
X-1148900Y0821500
X-1148900Y0831500
X-1000941Y0814759
X-1109800Y0714800
X-1000635Y0798865
X-1004700Y0777100
X-1007400Y0776900
X-1010128Y0776900
X-1000859Y0810359
X-1000841Y0805859
X-1184237Y0830063
X-1184287Y0833213
X-1184813Y0841087
X-1184700Y0846100
X-1175161Y0852039
X-1170437Y0851763
X-1154600Y0853900
X-1162900Y0865900
X-1168062Y0859762
X-1207600Y0698400
X-1211000Y0690100
X-1071650Y0717550
X-1077482Y0799400
X-1025406Y0797887
X-1209029Y0716928
X-1106950Y0717250
X-1209700Y0696500
X-1044900Y0769500
X-1077400Y0781100
X-1061600Y0789300
X-1022257Y0790209
X-1079900Y0796541
X-1205900Y0717700
X-1202230Y0699069
X-1077250Y0717650
X-1079820Y0747998
X-1025406Y0754382
X-1038300Y0682119
X-1071621Y0878800
X-1071605Y0897328
X-1074823Y0799300
X-1025406Y0795328
X-1196900Y0677800
X-1199700Y0706900
X-1091850Y0717650
X-1080100Y0763600
X-1025600Y0777514
X-1041800Y0685819
X-1077527Y0878700
X-1077512Y0897328
X-1053743Y0762059
X-1074687Y0760788
X-1064600Y0781300
X-1018797Y0767078
X-1077800Y0786000
X-1207227Y0686673
X-1179042Y0677758
X-1166200Y0687000
X-1168627Y0686673
X-1168316Y0698484
X-1209000Y0704100
X-1207400Y0704000
X-1184947Y0717007
X-1168736Y0712264
X-1168573Y0708327
X-1077800Y0808400
X-1053743Y0795228
X-1073500Y0766500
X-1034846Y0772296
X-1106950Y0709750
X-1198727Y0712327
X-1047592Y0754364
X-1082379Y0755675
X-1172500Y0677700
X-1002900Y0697100
X-1058876Y0870524
X-1076105Y0807300
X-1047454Y0792768
X-1041800Y0682671
X-1074379Y0878700
X-1074364Y0897328
X-1058500Y0738300
X-1025250Y0751845
X-1100141Y0710041
X-1192821Y0718679
X-1017336Y0750800
X-1060200Y0736600
X-1194790Y0712290
X-1175100Y0703200
X-1088850Y0717650
X-1061500Y0739800
X-1053889Y0751623
X-1077654Y0821070
X-1112900Y0801550
X-1061200Y0744700
X-1053743Y0754283
X-1054938Y0871538
X-1031701Y0790209
X-1065100Y0794900
X-1031900Y0777514
X-1084800Y0763500
X-1193300Y0683800
X-1199200Y0699400
X-1082950Y0717650
X-1031696Y0795328
X-1067400Y0795000
X-1195400Y0718900
X-1103750Y0717600
X-1079800Y0781286
X-1050594Y0787651
X-1115500Y0801591
X-1086700Y0820100
X-1031900Y0759514
X-1077261Y0747998
X-1064020Y0877620
X-1008400Y0694800
X-1166600Y0677600
X-1067000Y0734400
X-1028556Y0751823
X-1188900Y0717100
X-1175500Y0698400
X-1085850Y0710050
X-1072400Y0748255
X-1016600Y0758000
X-1214600Y0709900
X-1215600Y0683500
X-1071750Y0710150
X-1074702Y0755676
X-1047454Y0762060
X-1211700Y0709900
X-1103750Y0710100
X-1209800Y0702200
X-1080000Y0788800
X-1044500Y0777514
X-1209500Y0698400
X-1082950Y0710050
X-1053950Y0777514
X-1072800Y0777800
X-1001850Y0692750
X-1175105Y0677705
X-1049400Y0870500
X-1083900Y0777100
X-1050600Y0767314
X-1180500Y0815500
X-1175223Y0896823
X-1082950Y0799750
X-1022257Y0795328
X-1074600Y0750660
X-1016900Y0762700
X-1208100Y0709700
X-1202200Y0691495
X-1074460Y0710140
X-1075273Y0767900
X-1031696Y0772296
X-1085700Y0796600
X-1022257Y0805565
X-1025406Y0759500
X-1072700Y0744800
X-1065100Y0753700
X-1053800Y0759614
X-1069700Y0814400
X-1044304Y0800544
X-1073446Y0807200
X-1047454Y0795228
X-1044299Y0759501
X-1077261Y0755675
X-1075100Y0792500
X-1038200Y0777514
X-1065100Y0761000
X-1022450Y0777514
X-1050800Y0777514
X-1082100Y0768200
X-1079650Y0744750
X-1031691Y0754104
X-1081100Y0800800
X-1022257Y0800446
X-1105173Y0796382
X-1098450Y0819950
X-1072143Y0753116
X-1047449Y0759500
X-1079820Y0755675
X-1050450Y0751688
X-0953978Y0867622
X-0954000Y0873700
X-0968200Y0874400
X-0954142Y0826042
X-0958142Y0826058
X-0967300Y0875579
X-0969600Y0875100
X-1032800Y0683700
X-1036500Y0692900
X-1039700Y0696600
X-1034300Y0689000
X-1035000Y0678400
X-1066200Y0822900
X-1056500Y0823000
X-1064050Y0715000
X-1060800Y0710000
X-1057400Y0710000
X-1053400Y0710100
X-0967500Y0842400
X-0969900Y0839600
X-0967910Y0839810
X-1036700Y0869200
X-1036700Y0867200
X-1039200Y0869500
X-1067880Y0876750
X-1084730Y0876670
X-1078680Y0876970
X-1072550Y0877000
X-0968730Y0656790
X-0954550Y0732440
X-0970800Y0687690
X-0966090Y0691090
X-0963090Y0690790
X-0960100Y0689580
X-0957360Y0687420
X-0952970Y0686390
R02Y-0005000
X-0952970Y0691390
X-0950530Y0678320
R04Y0005000
X-0957300Y0696970
X-0968370Y0696760
X-0968370Y0700260
X-0968240Y0705180
X-0968370Y0710030
X-0968280Y0715050
X-0968430Y0725080
X-0968320Y0730060
X-0960660Y0700060
X-0960850Y0697110
X-0960660Y0710060
X-0960660Y0705060
X-0960660Y0720060
X-0960660Y0715060
X-0960660Y0725060
X-0960660Y0730060
X-0964690Y0697150
X-0949430Y0732470
X-0949500Y0735100
R03X-0005000
X-0964500Y0730100
X-0964500Y0725100
X-0964500Y0700100
R03Y0005000
X-1219000Y0783400
X-1205000Y0789400
X-1242500Y0672300
X-1222200Y0702400
X-1218800Y0715500
X-1214800Y0722000
X-1032300Y0867000
X-1046700Y0867700
X-1042100Y0869400
X-1033900Y0869300
X-1030700Y0869000
X-1266350Y0665250
X-1254500Y0664400
X-1218200Y0721400
X-1211100Y0722500
X-1033400Y0882300
X-0969500Y0835900
X-0967700Y0816800
X-0967900Y0813000
X-1265700Y0670200
X-1234000Y0672800
X-1236500Y0662400
X-1195200Y0758800
X-1195300Y0768100
X-1167050Y0768150
X-1167000Y0758700
X-1052800Y0772600
X-1029500Y0772600
X-1025100Y0769700
X-1024600Y0774474
X-1029500Y0782200
X-1023200Y0782200
X-1025500Y0784900
X-1052600Y0780200
X-1049700Y0784800
X-1047800Y0769792
X-0972700Y0862900
X-0983000Y0859400
X-0970698Y0740405
X-0948707Y0754413
X-0948898Y0748580
X-0963677Y0740069
X-0953927Y0739728
X-0948882Y0739089
X-0995700Y0825200
X-0997800Y0827200
X-0991800Y0829100
X-1001700Y0831200
X-0994600Y0829900
X-0987708Y0815795
X-0987553Y0813800
X-1227000Y0659400
X-1215800Y0658600
X-1205600Y0658500
X-1200000Y0661200
X-1048400Y0692400
X-1015700Y0769300
X-1014300Y0774500
X-1048500Y0823200
X-1044900Y0823200
X-1177900Y0720400
X-1190300Y0802200
X-1257200Y0700100
X-1263100Y0691900
X-1266000Y0683500
X-1242200Y0682500
X-1243100Y0699800
X-1213900Y0768700
X-1213800Y0790600
X-1215400Y0809100
X-1210100Y0851300
X-1212200Y0838200
X-1173100Y0861000
X-1181200Y0864200
X-1197400Y0847800
X-1202900Y0878700
X-1202900Y0896400
X-1176400Y0881600
X-1190400Y0882200
X-0989100Y0709700
X-0982900Y0710200
X-0978900Y0685500
X-0978900Y0681100
X-0978900Y0677000
X-0974300Y0674900
X-0974300Y0679200
X-0974400Y0683200
X-0994600Y0700000
X-0990300Y0704500
X-0986000Y0700100
X-0982600Y0700400
X-0986100Y0694100
X-0986100Y0696700
X-0986100Y0691500
X-0982600Y0693900
X-0982600Y0691000
X-0982600Y0697100
X-1196600Y0828600
X-1191300Y0813500
X-1029800Y0894500
X-1021100Y0887400
X-0982800Y0785900
X-0982700Y0781800
X-0982800Y0792300
X-0970800Y0724000
X-0974200Y0705500
X-0973900Y0710800
X-0973400Y0718300
X-0970000Y0673000
X-0965200Y0673200
X-0960100Y0673400
X-1017800Y0862600
X-1008700Y0858800
X-0970500Y0814800
X-0970100Y0810200
X-0969500Y0806500
X-1020700Y0828300
X-1025400Y0821700
X-1010500Y0801000
X-1011800Y0812200
X-1014800Y0805300
X-1007800Y0822400
X-0990400Y0828200
X-1006900Y0853400
X-1003500Y0860800
X-1009300Y0867700
X-1020300Y0858800
X-1017000Y0858700
X-1012092Y0858672
X-0964500Y0720100
X-0971900Y0696900
X-0972200Y0703100
X-0972300Y0707900
X-0971100Y0713900
X-0968400Y0718900
X-1089700Y0917200
X-1077400Y0917700
X-1065400Y0917600
X-1077200Y0903700
X-1065100Y0903700
X-1065300Y0911400
X-1077300Y0911500
X-1090100Y0903700
X-1089700Y0911000
X-1088100Y0921800
X-1077400Y0921900
X-1065500Y0921900
X-1054600Y0918100
X-1053200Y0911200
X-1053200Y0903700
X-1066800Y0895300
X-1053600Y0894400
X-1050400Y0880200
X-1042900Y0880200
X-0951200Y0656400
X-0948300Y0665400
X-0972300Y0732800
X-0973000Y0744200
X-0948900Y0743500
X-0959500Y0743800
X-0960700Y0754700
X-0950400Y0826700
X-0950500Y0832200
X-0950400Y0847000
X-0950300Y0855000
X-0950500Y0866400
X-0950500Y0875600
X-0950500Y0888300
X-0952600Y0895500
X-1007800Y0898100
X-1012700Y0918900
X-1037900Y0896100
X-1037800Y0901500
X-1037700Y0909300
X-1036100Y0918400
X-1108300Y0891000
X-1136000Y0915800
X-1123500Y0915400
X-1116100Y0913300
X-1118300Y0921100
X-1126300Y0921200
X-1136900Y0920900
X-1142400Y0918300
X-1138900Y0860600
X-1193600Y0801800
X-1201700Y0792900
X-1204700Y0785000
X-1182300Y0897300
X-1180600Y0904400
X-1188000Y0902500
X-1195000Y0904700
X-1202600Y0906300
X-1216600Y0900700
X-1217700Y0910300
X-1234700Y0904900
X-1261700Y0895500
X-1261600Y0886900
X-1261600Y0878300
X-1236800Y0873900
X-1218200Y0853700
X-1218100Y0846500
X-1218100Y0835300
X-1257800Y0797100
X-1275500Y0802800
X-1273900Y0732200
X-1219300Y0769800
X-1192500Y0722500
X-1215900Y0706600
X-1014000Y0652900
X-1004100Y0652900
X-0994200Y0653000
X-0983100Y0653000
X-0973200Y0653000
X-0963200Y0653000
X-1075600Y0652900
X-1065700Y0652900
X-1055800Y0653000
X-1044700Y0653000
X-1034800Y0653000
X-1024800Y0653000
X-1106000Y0652900
X-1096100Y0652900
X-1086100Y0652900
X-1136900Y0652800
X-1127000Y0652800
X-1117100Y0652900
X-1168500Y0653200
X-1158600Y0653200
X-1148600Y0653200
X-1199000Y0653200
X-1189100Y0653200
X-1179100Y0653200
X-1228500Y0653200
X-1218600Y0653200
X-1208600Y0653200
X-1238100Y0653200
X-1216200Y0672700
X-1202600Y0672100
X-1202600Y0668000
X-1211200Y0662300
X-1223100Y0662400
X-1230100Y0662500
X-1248100Y0653200
X-1258000Y0653200
X-1268000Y0653000
X-1276600Y0666200
X-1276300Y0660400
X-1234000Y0657800
X-1212800Y0685800
X-1226200Y0684100
X-1226200Y0689800
X-1228400Y0702400
X-1215100Y0702800
X-1009000Y0762300
X-1156079Y0688721
X-1201300Y0832500
X-1196200Y0821600
X-1215300Y0796100
X-1116800Y0862100
X-1116800Y0863800
X-0950200Y0671800
X-1206200Y0724600
X-1207600Y0831200
X-1209200Y0821900
X-1205500Y0811500
X-1204200Y0809000
X-1208300Y0744500
X-1201300Y0736700
X-1209300Y0735000
X-1205700Y0741300
X-1206200Y0732100
X-1211150Y0830950
X-1211150Y0801250
X-1211150Y0808650
X-1211150Y0820650
X-1211150Y0812150
X-0974100Y0700400
X-0974730Y0696870
X-0974617Y0689783
X-1180700Y0901600
X-1180700Y0899200
X-1176800Y0901500
X-1176900Y0899200
X-1163700Y0901400
X-1169900Y0901400
X-1172700Y0901500
X-1172600Y0899200
X-1169900Y0899100
X-1163700Y0899000
X-1027421Y0918279
X-1027371Y0921229
X-1021029Y0921229
X-1056200Y0840400
X-1054300Y0729400
X-1033400Y0696000
X-1054300Y0697400
X-1034800Y0682600
X-1041300Y0678400
X-1044100Y0687000
X-0972800Y0801900
X-0973100Y0794700
X-0973300Y0782900
X-1146600Y0821500
X-1145800Y0814800
X-1200700Y0841300
X-1193200Y0836900
X-1180400Y0850800
X-1175900Y0857000
X-1170900Y0857400
X-1116322Y0906878
X-1122400Y0910700
X-1146500Y0910300
X-1140800Y0906600
X-1226200Y0678600
X-1215000Y0678500
X-1226093Y0694744
X-1215600Y0694600
X-1161100Y0720800
X-1165300Y0720900
X-1182300Y0722500
X-1186400Y0723900
X-1187400Y0688100
X-1178900Y0688100
X-1179400Y0701400
X-1188500Y0702300
X-1194200Y0702700
X-1194500Y0698500
X-1179100Y0698400
X-1194300Y0687900
X-1187800Y0698500
X-1171500Y0838900
X-1161800Y0838800
X-1166600Y0838800
X-1171500Y0829800
X-1161700Y0829900
X-1166600Y0829800
X-1171400Y0834100
X-1161600Y0834100
X-1166500Y0834000
X-1139800Y0854700
X-1107900Y0876600
X-1092400Y0880300
X-1090100Y0895000
X-1079200Y0895000
X-1084800Y0894900
X-1084449Y0880249
X-1073000Y0895100
X-1090400Y0859100
X-1085100Y0859000
X-1095700Y0845200
X-1084900Y0844900
X-1090400Y0845000
X-1085000Y0851700
X-1095800Y0851700
X-1096000Y0859200
X-1090500Y0851700
X-1063100Y0874800
X-1057400Y0879700
X-0970300Y0829000
X-0972900Y0834900
X-0971100Y0834700
X-1011900Y0853500
X-1009800Y0863800
X-1004600Y0868100
X-1020600Y0853400
X-1010200Y0809100
X-0996800Y0833300
X-1003900Y0833000
X-0988200Y0824200
X-0987900Y0791000
X-0987900Y0782100
X-0992000Y0792300
X-0992200Y0782300
X-0987700Y0787400
X-0987500Y0712900
X-1015000Y0722800
X-1037200Y0731600
X-1056000Y0726100
X-1028500Y0688600
X-1010100Y0680100
X-1117000Y0851941
X-1267093Y0797107
X-1274300Y0828200
X-1270200Y0828300
X-1267000Y0811500
X-1267000Y0809200
X-1267100Y0813900
X-1275500Y0808800
X-1275500Y0806700
X-1049300Y0834100
X-1153500Y0861500
X-1060535Y0840321
X-1069675Y0854600
X-0984400Y0714100
X-0992300Y0713200
X-1154121Y0859800
X-1141248Y0863752
X-1139300Y0816500
X-1122500Y0834900
X-1122400Y0827600
X-1186953Y0813047
X-1149400Y0816300
X-1166107Y0821021
X-1178100Y0815500
X-1154200Y0809400
X-0983500Y0733600
X-1052201Y0840301
X-1049200Y0826400
X-1065200Y0829400
X-1059200Y0829300
X-1053250Y0833650
X-1064200Y0849600
X-1023000Y0831100
X-1011000Y0833400
X-1027679Y0822500
X-1117900Y0833500
X-0997000Y0749000
X-0973100Y0749000
X-0968700Y0746500
X-0977044Y0769344
X-0975200Y0778400
X-0972976Y0768876
X-0972465Y0757065
X-0991558Y0759942
X-1011300Y0789900
X-1009100Y0803300
X-0992200Y0786700
X-1019430Y0696870
X-1014700Y0708700
X-1044342Y0714958
X-1015000Y0724664
X-1018744Y0726244
X-1031900Y0736300
X-1036100Y0736100
X-1042400Y0734700
X-1043900Y0733000
X-1056900Y0735400
X-1058600Y0723500
X-1256500Y0809700
X-1154700Y0715200
X-1145512Y0714498
X-1147700Y0714536
X-1133000Y0710700
X-1133150Y0714250
X-1125750Y0714650
X-1207200Y0753400
X-1071100Y0823000
X-1081800Y0821300
X-1268000Y0727500
X-1207700Y0722000
X-1273500Y0741000
X-1252600Y0740300
X-1274500Y0753000
X-1219100Y0775100
X-1259500Y0737800
X-1259500Y0744000
X-1259400Y0741200
X-1213700Y0755200
X-1209400Y0724800
X-1211400Y0735200
X-1084674Y0760593
X-1191678Y0734611
X-1200600Y0723300
X-1194700Y0724400
X-1190500Y0724600
X-1168900Y0735000
X-1144941Y0728941
X-1133561Y0735202
X-1133574Y0735228
X-1123324Y0735202
R03X0007677
X-1092200Y0735400
X-1087499Y0735202
X-1077261Y0735202
X-1199398Y0745587
X-1198100Y0734700
X-1196248Y0743028
X-1199397Y0740469
X-1189944Y0745587
X-1179500Y0737900
X-1183472Y0745700
X-1177346Y0740368
X-1177372Y0737900
X-1177300Y0745600
X-1160772Y0740500
X-1161375Y0745886
X-1149200Y0748300
X-1146400Y0737805
X-1136296Y0748134
X-1133660Y0747900
X-1131001Y0745439
X-1123324Y0740320
X-1087200Y0750300
X-1083300Y0739100
X-1077261Y0745439
X-1072163Y0737763
X-1058498Y0727785
X-1069400Y0744700
X-1050599Y0748665
X-1213400Y0757950
X-1199398Y0755823
X-1189949Y0758382
X-1186900Y0753300
X-1196453Y0753264
X-1193000Y0753300
X-1180700Y0750500
X-1171100Y0753400
X-1176700Y0763600
X-1164496Y0753303
X-1161904Y0758375
X-1143799Y0755676
X-1128441Y0753117
X-1128441Y0750558
X-1131002Y0760793
X-1133400Y0763200
X-1123325Y0753116
X-1123326Y0750558
X-1123325Y0760794
X-1118207Y0760794
X-1120766Y0753117
X-1123325Y0758235
X-1115647Y0758234
X-1125885Y0758234
X-1105411Y0758235
X-1105411Y0760794
X-1107970Y0760795
X-1105411Y0755676
X-1107970Y0750558
X-1108044Y0753043
X-1107970Y0755676
X-1107970Y0758235
X-1092619Y0750558
X-1097735Y0747998
X-1092619Y0758238
X-1100294Y0760794
X-1100294Y0755675
X-1092617Y0753116
X-1097734Y0755675
X-1087900Y0763500
X-1095175Y0763352
X-1074701Y0753116
X-1077500Y0761000
X-1069601Y0753100
X-1066800Y0759800
X-1057125Y0759800
X-1057728Y0754414
X-1041200Y0759514
X-1041128Y0751734
X-1041154Y0754282
X-1035028Y0759614
X-1028456Y0759501
X-1038128Y0751914
X-1028300Y0749014
X-1017000Y0754300
X-1016100Y0760100
X-1213050Y0777350
X-1199600Y0775600
X-1203900Y0776500
X-1199699Y0768623
X-1189949Y0768618
X-1186799Y0773736
X-1193300Y0773741
X-1180260Y0773600
X-1171046Y0773736
X-1161607Y0768918
X-1161607Y0773836
X-1131006Y0773588
X-1133596Y0768505
X-1128443Y0771030
X-1138680Y0771029
X-1118207Y0768471
X-1105412Y0776148
X-1107970Y0776145
X-1092616Y0765911
X-1095175Y0765911
X-1100292Y0768468
X-1100294Y0771026
X-1088000Y0766000
X-1082668Y0773300
X-1077100Y0766900
X-1069200Y0766500
X-1056893Y0772296
X-1057800Y0767214
X-1047400Y0767314
X-1037628Y0764414
X-1041350Y0777514
X-1031600Y0767214
X-1025300Y0767214
X-1018802Y0772297
X-1022247Y0767178
X-1199393Y0786632
X-1199398Y0781714
X-1196243Y0783973
X-1193099Y0791650
X-1183549Y0781314
X-1177351Y0781313
X-1177346Y0786532
X-1171056Y0791651
X-1189954Y0781414
X-1183654Y0786532
X-1158000Y0778200
X-1160186Y0787116
X-1143916Y0781384
X-1136121Y0778706
X-1133200Y0781400
X-1115648Y0765912
X-1118207Y0771030
X-1115648Y0768471
X-1115649Y0778707
X-1120766Y0778705
X-1120766Y0776148
X-1110529Y0768471
X-1110529Y0765912
X-1105412Y0778707
X-1113090Y0781266
X-1113089Y0783824
X-1105000Y0786500
X-1095177Y0786384
X-1087100Y0789100
X-1093500Y0790500
X-1092617Y0778708
X-1097735Y0778707
X-1100295Y0781266
X-1095175Y0771029
X-1090057Y0778708
X-1092616Y0771029
X-1090200Y0784100
X-1080000Y0791700
X-1074800Y0783727
X-1068600Y0781500
X-1069800Y0791800
X-1056893Y0787750
X-1056893Y0782732
X-1047454Y0787650
X-1031701Y0787650
X-1025400Y0787655
X-1019101Y0782537
X-1010400Y0759400
X-1009100Y0768000
X-1014821Y0789179
X-1016370Y0778330
X-1019102Y0790210
X-1172650Y0801200
X-1133600Y0791463
X-1140014Y0789873
X-1136100Y0801900
X-1138600Y0801818
X-1138600Y0804218
X-1123300Y0791400
X-1117900Y0801700
X-1120200Y0796600
X-1118200Y0791700
X-1120766Y0783824
X-1115648Y0783824
X-1118207Y0788942
X-1125883Y0786383
X-1125883Y0783824
X-1123326Y0788941
X-1120300Y0794000
X-1109250Y0796350
X-1100400Y0796500
X-1097637Y0804200
X-1089900Y0801600
X-1089900Y0804100
X-1077400Y0804159
X-1068700Y0801568
X-1058800Y0800414
X-1058106Y0795014
X-1041154Y0800446
X-1041349Y0795227
X-1034846Y0800446
X-1034651Y0795228
X-1039500Y0789714
X-1028546Y0795328
X-1019102Y0795328
X-1022257Y0797887
X-1125700Y0812200
X-1100350Y0806800
X-1087800Y0809717
X-1047444Y0805565
X-0990300Y0829900
X-0990659Y0826500
X-1025401Y0808224
X-1019107Y0800446
X-1014998Y0801202
X-1014317Y0813483
X-1014998Y0809298
X-0972300Y0792498
X-0974600Y0803100
X-1030600Y0866100
X-1032100Y0865200
X-1017300Y0867700
X-1013500Y0863900
X-0984850Y0858750
X-0981000Y0859500
X-0972700Y0861100
X-1227700Y0873200
X-1138500Y0872100
X-1114800Y0876700
X-1078900Y0880500
X-1072900Y0880600
X-1020200Y0880000
X-0997300Y0875400
X-1227300Y0884100
X-1141300Y0887374
X-1124774Y0887374
X-1029800Y0887300
X-0989200Y0879400
X-0989200Y0877300
X-0995100Y0885994
X-0992800Y0886000
X-0990600Y0884100
X-0976400Y0881500
X-0983600Y0881600
X-1236700Y0895800
X-1226200Y0900000
X-1198150Y0893950
X-1027200Y0891000
X-1020900Y0894600
X-1001700Y0898900
X-1003800Y0898900
X-0968400Y0899300
X-0971900Y0899000
X-0975300Y0899000
X-0964700Y0899100
X-1064600Y0814200
X-1047444Y0800546
X-1084748Y0788752
X-1031696Y0800446
X-1031696Y0782532
X-1075700Y0772300
X-1079820Y0753116
X-1044250Y0754293
X-1044304Y0795228
X-1067300Y0814400
X-1035050Y0777514
X-1081000Y0772100
X-1034846Y0782532
X-1073000Y0771700
X-1082450Y0804350
X-1053743Y0792769
X-1082700Y0791600
X-1031696Y0797886
X-1077300Y0791700
X-1062300Y0769000
X-1105400Y0799168
X-1081079Y0819121
X-1031701Y0764619
X-1084932Y0748005
X-1138702Y0748000
X-1196243Y0748145
X-1072300Y0786500
X-1047450Y0785114
X-1174401Y0745544
X-1148000Y0725400
X-1050594Y0800546
X-1082300Y0806900
X-1185900Y0729900
X-1141228Y0737772
X-1077271Y0796630
X-1025309Y0800525
X-1143798Y0737761
X-1164757Y0748145
X-1044304Y0792769
X-1073300Y0800800
X-1156600Y0749751
X-1186799Y0750705
X-1062000Y0804814
X-1073800Y0811350
X-1141239Y0755676
X-1167000Y0763600
X-1044304Y0762059
X-1082379Y0753116
X-1153600Y0772800
X-1189944Y0773737
X-1025406Y0756941
X-1075102Y0744939
X-1136127Y0781259
X-1164757Y0781314
X-1138180Y0775647
X-1174196Y0778855
X-1149200Y0741600
X-1193093Y0737909
X-1146366Y0783834
X-1189944Y0789091
X-1149200Y0786100
X-1164757Y0791651
X-1143798Y0771029
X-1186600Y0763600
X-1107932Y0801700
X-1092300Y0820700
X-1146363Y0742886
X-1193094Y0743027
X-1165565Y0731150
X-1138679Y0740321
X-1089900Y0820200
X-1105373Y0801700
X-1143798Y0735202
X-1171046Y0748146
X-1143250Y0775629
X-1167906Y0781512
X-1171046Y0781314
X-1152448Y0785312
X-1019400Y0704500
X-1138679Y0745439
X-1196243Y0740468
X-1138500Y0783100
X-1186799Y0776295
X-1140739Y0775647
X-1174196Y0781314
X-1196243Y0781414
X-1141249Y0786394
X-1143798Y0753116
X-1196250Y0763600
X-1186000Y0734800
X-1141240Y0742879
X-1196243Y0786532
X-1136110Y0788953
X-1186700Y0745600
X-1143791Y0745432
X-1196243Y0776295
X-1133400Y0783600
X-1146357Y0776148
X-1158300Y0772000
X-1160097Y0763746
X-1141239Y0760794
X-1193094Y0786532
X-1136127Y0786377
X-1190000Y0753300
X-1157400Y0752100
X-1141239Y0745439
X-1193094Y0740468
X-1023518Y0728254
X-1024700Y0726895
X-0997700Y0741200
X-0997700Y0739500
X-1151730Y0755718
X-1174000Y0763600
X-1158700Y0801000
X-1186786Y0786710
X-1193094Y0781414
X-1151148Y0798659
X-0992100Y0811700
X-1110500Y0798300
X-1193094Y0783973
X-1154296Y0798659
X-1191217Y0838000
X-1092500Y0804181
X-1064600Y0835000
X-1107969Y0788941
X-0986600Y0733200
X-1143800Y0758237
X-1174196Y0755822
X-1154829Y0785359
X-1171046Y0778854
X-1141237Y0763352
X-1205700Y0758000
X-0995900Y0720800
X-0997200Y0719700
X-0983100Y0718200
X-0981600Y0718200
X-1047850Y0713350
X-1033400Y0720100
X-1020000Y0732800
X-1018500Y0733200
X-1007140Y0724260
X-1152200Y0737900
X-1164700Y0745700
X-1136121Y0771029
X-1183450Y0763600
X-1138680Y0778706
X-1164757Y0778855
X-1163100Y0731500
X-1150700Y0731800
X-1146357Y0732643
X-1174196Y0748145
X-1148916Y0765912
X-1177350Y0771200
X-1146357Y0753116
X-1192900Y0763600
X-1133568Y0788936
X-1196322Y0789122
X-0992400Y0809400
X-1115554Y0794155
X-1158172Y0791028
X-1174196Y0786630
X-1151000Y0725500
X-1174196Y0740368
X-1164200Y0763700
X-1138680Y0753116
X-1154200Y0812500
X-1124000Y0798100
X-0992450Y0765600
X-1113000Y0794150
X-0983083Y0726517
X-1143798Y0747999
X-1196243Y0745586
X-1097600Y0799045
X-1141239Y0771029
X-1202000Y0782500
X-1193094Y0745586
X-1143809Y0742891
X-1146400Y0758278
X-1177346Y0755822
X-1122600Y0832814
X-1089937Y0796500
X-1112700Y0717200
X-1030300Y0705200
X-1000800Y0706400
X-1138680Y0763352
X-1193100Y0755900
X-1146357Y0786384
X-1186784Y0781363
X-1160855Y0794345
X-1140705Y0781662
X-1113000Y0877871
X-1158200Y0786900
X-1171056Y0786632
X-1174200Y0771200
X-1146357Y0765912
X-1076100Y0868100
X-1074542Y0860558
X-1180600Y0893462
X-1101327Y0867427
X-1141239Y0735202
X-1171051Y0745586
X-1100296Y0804300
X-1074641Y0822759
X-1110000Y0876019
X-1193094Y0771177
X-1150300Y0771900
X-1108000Y0846900
X-1059500Y0833500
X-1107872Y0791600
X-1194700Y0887500
X-1069000Y0834900
X-1091400Y0827082
X-1097700Y0827300
X-1081460Y0827160
X-1085050Y0827050
X-1076900Y0827500
X-1083610Y0835600
X-1066800Y0834812
X-1074521Y0846779
X-1106421Y0856621
X-1197452Y0902375
X-1141238Y0730083
X-1171046Y0740369
X-1084100Y0869900
X-1110000Y0872871
X-1105313Y0791600
X-1095421Y0867821
X-1085579Y0868179
X-1066500Y0791900
X-1141239Y0768470
X-1138680Y0768470
X-1082200Y0781086
X-1135500Y0827600
X-1092496Y0796500
X-1109300Y0838200
X-1122300Y0821900
X-1082204Y0784000
X-1130995Y0778700
X-1133016Y0774900
X-1105409Y0788941
X-1051300Y0834800
X-1138680Y0760794
X-1074784Y0781184
X-0988205Y0765595
X-1112890Y0791700
X-1191050Y0897950
X-1108200Y0858590
X-0947800Y0758100
X-0947800Y0780300
X-0947800Y0800300
R03Y0020000
X-0947800Y0873200
X-1153800Y0921200
X-1181200Y0921300
X-1162600Y0921100
X-1167800Y0924700
X-1269100Y0721900
X-1260700Y0721800
X-1260800Y0713400
X-1269100Y0713400
X-1277600Y0714500
X-1278300Y0723800
X-1278500Y0737500
X-1278700Y0752900
X-1278100Y0764900
X-1278000Y0782400
X-1278700Y0795600
X-1278700Y0809900
X-1278800Y0824200
X-1278400Y0836600
X-1278500Y0845300
X-1270100Y0836600
X-1260100Y0836600
X-1270200Y0845300
X-1260200Y0845300
X-1269200Y0925100
X-1254200Y0925100
X-1237700Y0925100
X-1221000Y0925000
X-1205000Y0925000
X-1190000Y0925000
X-1173500Y0925000
X-1040300Y0924600
X-1028700Y0924900
X-1018400Y0925000
X-1277800Y0916700
X-1158000Y0925000
X-1142000Y0925000
X-1127000Y0925000
X-1110500Y0925000
X-1096000Y0925000
X-1083000Y0925000
X-1070500Y0925000
X-1052000Y0925000
X-1277800Y0856700
X-1270100Y0853100
X-1260100Y0853100
X-1278800Y0866700
R04Y0010000
X-0947800Y0887000
X-0947800Y0898300
X-1002100Y0921800
X-0990000Y0921400
X-0978100Y0921600
X-0964300Y0923400
X-0952400Y0920200
X-1079700Y0783945
X-1098100Y0815100
X-1067200Y0787200
X-1059800Y0845900
X-1074716Y0850716
X-0986350Y0764000
X-1115549Y0791600
X-1188283Y0838000
X-1092489Y0801611
X-1090106Y0869897
X-1141000Y0859492
X-1108157Y0807043
X-1086958Y0869897
X-1193800Y0897900
X-1107653Y0854653
X-0991600Y0813800
X-1115468Y0799000
X-1127000Y0825100
X-1109700Y0842900
X-1110100Y0847100
X-1074800Y0863000
X-1135500Y0824666
X-1092437Y0799000
X-1122600Y0829880
X-1089878Y0799000
X-1095650Y0815050
X-1080952Y0869900
X-1140600Y0871192
X-1110618Y0809327
X-1151500Y0815100
X-1120600Y0804132
X-1106600Y0838200
X-1111700Y0818600
X-1106200Y0842842
X-1099100Y0835700
X-1091400Y0835600
X-1074610Y0844810
X-1106400Y0852684
X-1108100Y0860800
X-1106542Y0860558
X-1140600Y0868119
X-1110686Y0806700
X-1106500Y0818800
X-1107884Y0850716
X-1108200Y0804600
X-1141000Y0856419
X-1022800Y0883500
X-1127100Y0865550
X-1055200Y0854000
X-1113000Y0881019
X-1041700Y0696019
X-1089327Y0878300
X-1089323Y0897259
X-1083421Y0878300
X-1083417Y0897249
X-1038300Y0691729
X-1080273Y0878300
X-1080269Y0897249
X-1038300Y0688581
X-1041700Y0692871
X-1086179Y0878300
X-1086175Y0897259
X-1208000Y0712200
X-1202300Y0693700
X-1077350Y0710150
X-1088650Y0710050
X-1186900Y0711900
X-1175300Y0701100
X-1038300Y0678971
X-1068473Y0878800
X-1068457Y0897328
X-1208100Y0706900
X-1085850Y0717650
X-1197200Y0683800
X-1199100Y0697200
X-1079950Y0717650
X-1100450Y0717500
X-1196758Y0712342
X-1072100Y0812850
X-1053743Y0805565
X-1060844Y0871800
X-1000100Y0697100
X-1168100Y0681700
X-1190853Y0712247
X-1175300Y0706500
X-1094650Y0717650
X-1149100Y0915400
T02
X-1241776Y0827544
X-1241776Y0817701
X-1241776Y0809827
X-1241776Y0799984
X-1235870Y0798016
R04Y0007874
X-1229178Y0827544
X-1229178Y0817701
X-1229178Y0809827
X-1229178Y0799984
X-1223272Y0798016
R04Y0007874
X-1241776Y0757068
X-1241776Y0747225
X-1241776Y0739351
X-1241776Y0729508
X-1235870Y0727540
R04Y0007874
X-1229178Y0757068
X-1229178Y0747225
X-1229178Y0739351
X-1229178Y0729508
X-1223272Y0727540
R04Y0007874
T03
X-1210764Y0909764
X-1220764Y0904764
X-1210764Y0899764
X-1220764Y0894764
X-1210764Y0889764
X-1220764Y0884764
X-1210764Y0879764
X-1220764Y0874764
X-1210764Y0869764
X-1220764Y0864764
T04
X-1261748Y0913366
X-1261748Y0903366
X-1261748Y0871162
X-1261748Y0861162
T05
X-0978953Y0669307
X-0978953Y0659307
X-0988953Y0669307
X-0988953Y0659307
X-0998953Y0669307
X-0998953Y0659307
X-1008953Y0669307
X-1008953Y0659307
X-1018953Y0669307
X-1018953Y0659307
X-1028953Y0669307
X-1028953Y0659307
X-1038953Y0669307
X-1038953Y0659307
X-1048953Y0669307
X-1048953Y0659307
X-1058953Y0669307
X-1058953Y0659307
X-1068953Y0669307
X-1068953Y0659307
X-1078953Y0669307
X-1078953Y0659307
X-1088953Y0669307
X-1088953Y0659307
X-1098953Y0669307
X-1098953Y0659307
X-1108953Y0669307
X-1108953Y0659307
X-1118953Y0669307
X-1118953Y0659307
X-1128953Y0669307
X-1128953Y0659307
X-1138953Y0669307
X-1138953Y0659307
X-1148953Y0669307
X-1148953Y0659307
X-1158953Y0669307
X-1158953Y0659307
X-1168953Y0669307
X-1168953Y0659307
X-1110676Y0917822
R02Y-0010000
T06
X-1233756Y0918268
X-1233756Y0856260
T07
X-1227288Y0839630
X-1249650Y0839630
X-1249650Y0787898
X-1227288Y0787898
X-1227288Y0769154
X-1249650Y0769154
X-1249650Y0717422
X-1227288Y0717422
T08
X-0978372Y0906831
X-1001128Y0906831
T09
X-0963561Y0778392
X-0963561Y0809888
T10
X-1241350Y0659796
X-1271350Y0655800
X-1271350Y0663792
T11
X-1272857Y0689193
X-1245298Y0689193
T12
X-1245764Y0909764
X-1245764Y0864764
M30
