G04 ================== begin FILE IDENTIFICATION RECORD ==================*
G04 Layout Name:  BeagleV_15.brd*
G04 Film Name:    L10_LAY10*
G04 File Format:  Gerber RS274X*
G04 File Origin:  Cadence Allegro 17.2-061*
G04 Origin Date:  Wed Apr 21 13:44:37 2021*
G04 *
G04 Layer:  VIA CLASS/ART10*
G04 Layer:  PIN/ART10*
G04 Layer:  ETCH/ART10*
G04 Layer:  BOARD GEOMETRY/OUTLINE*
G04 *
G04 Offset:    (0.00 0.00)*
G04 Mirror:    No*
G04 Mode:      Positive*
G04 Rotation:  0*
G04 FullContactRelief:  No*
G04 UndefLineWidth:     4.00*
G04 ================== end FILE IDENTIFICATION RECORD ====================*
%FSLAX25Y25*MOIN*%
%IR0*IPPOS*OFA0.00000B0.00000*MIA0B0*SFA1.00000B1.00000*%
%ADD13C,.014*%
%ADD14C,.016*%
%ADD16C,.075*%
%ADD18C,.02362*%
%ADD19C,.03543*%
%ADD11C,.05118*%
%ADD10C,.04724*%
%ADD17R,.075X.075*%
%ADD15C,.06299*%
%ADD12C,.12795*%
%ADD20C,.024*%
%ADD21C,.015*%
%ADD22C,.005*%
%ADD23C,.004*%
%ADD24C,.0044*%
%ADD25C,.0053*%
%ADD26C,.0085*%
%ADD27C,.02004*%
%ADD28C,.0709*%
%ADD29C,.05549*%
G75*
%LPD*%
G75*
G36*
G01X-1180286Y780400D02*
X-1179000D01*
X-1178118Y779518D01*
X-1178202Y779383D01*
G03X-1178353Y778854I851J-529D01*
G03X-1177351Y777852I1002J0D01*
G03X-1176822Y778003I0J1002D01*
G01X-1176687Y778087D01*
X-1175900Y777300D01*
X-1173300D01*
X-1172800Y776800D01*
Y773300D01*
X-1173100Y773000D01*
X-1176412D01*
G02X-1176808Y773457I0J400D01*
G03X-1176798Y773600I-992J141D01*
G03X-1178802I-1002J0D01*
G03X-1178745Y773267I1001J0D01*
G01X-1178733Y773234D01*
Y773000D01*
X-1179327D01*
Y773234D01*
X-1179315Y773267D01*
G03X-1179258Y773600I-944J333D01*
G03X-1181262I-1002J0D01*
G03X-1181252Y773457I1002J-2D01*
G02X-1181648Y773000I-396J-57D01*
G01X-1182288D01*
G02X-1182676Y773496I0J400D01*
G03X-1182647Y773737I-973J239D01*
G03X-1184651I-1002J0D01*
G03X-1184622Y773496I1002J-2D01*
G02X-1185010Y773000I-388J-96D01*
G01X-1185438D01*
G02X-1185826Y773496I0J400D01*
G03X-1185797Y773736I-973J239D01*
G03X-1187801I-1002J0D01*
G03X-1187772Y773496I1002J-1D01*
G02X-1188160Y773000I-388J-96D01*
G01X-1188583D01*
G02X-1188971Y773496I0J400D01*
G03X-1188942Y773737I-973J239D01*
G03X-1190946I-1002J0D01*
G03X-1190917Y773496I1002J-2D01*
G02X-1191305Y773000I-388J-96D01*
G01X-1191940D01*
G02X-1192328Y773497I0J400D01*
G03X-1192298Y773741I-972J243D01*
G03X-1194302I-1002J0D01*
G03X-1194272Y773497I1002J-1D01*
G02X-1194660Y773000I-388J-97D01*
G01X-1195100D01*
X-1198875Y769225D01*
X-1199016Y769356D01*
G03X-1199699Y769625I-683J-733D01*
G03Y767621I0J-1002D01*
G03X-1199342Y767687I-1J1002D01*
G02X-1198800Y767313I142J-374D01*
G01Y767038D01*
G02X-1199116Y766875I-200J0D01*
G03X-1199698Y767061I-582J-816D01*
G03Y765057I0J-1002D01*
G03X-1199342Y765122I1J1002D01*
G02X-1198800Y764748I142J-374D01*
G01Y761100D01*
X-1196133Y758433D01*
X-1196118Y758399D01*
G03X-1195601Y757882I918J401D01*
G01X-1195567Y757867D01*
X-1194018Y756318D01*
X-1194055Y756203D01*
G03X-1194102Y755900I955J-303D01*
G03X-1193100Y754898I1002J0D01*
G03X-1192797Y754945I0J1002D01*
G01X-1192682Y754982D01*
X-1191005Y753305D01*
X-1191000Y753230D01*
G03X-1190070Y752300I1000J70D01*
G01X-1189995Y752295D01*
X-1188800Y751100D01*
Y748200D01*
X-1189700Y747300D01*
X-1194914D01*
G02X-1195293Y747827I0J400D01*
G03X-1195241Y748145I-950J319D01*
G03X-1197245I-1002J0D01*
G03X-1197193Y747827I1002J1D01*
G02X-1197572Y747300I-379J-127D01*
G01X-1199900D01*
X-1200300Y747700D01*
Y751890D01*
G02X-1199757Y752264I400J0D01*
G03X-1199400Y752198I358J936D01*
G03Y754202I0J1002D01*
G03X-1200121Y753896I0J-1002D01*
G02X-1200691Y753891I-287J278D01*
G01X-1204699Y757899D01*
X-1204698Y757984D01*
Y758000D01*
G03X-1205200Y758868I-1001J0D01*
G01X-1205300Y758926D01*
Y775200D01*
X-1204795Y775705D01*
G02X-1204528Y775719I141J-141D01*
G03X-1203900Y775498I628J782D01*
G03X-1202898Y776500I0J1002D01*
G03X-1203119Y777128I-1003J0D01*
G02X-1203105Y777395I155J126D01*
G01X-1200100Y780400D01*
X-1187062D01*
X-1187037Y780394D01*
G03X-1186784Y780361I255J969D01*
G03X-1186531Y780394I-2J1002D01*
G01X-1186506Y780400D01*
X-1183961D01*
X-1183925Y780385D01*
G03X-1183549Y780312I375J929D01*
G03X-1183173Y780385I1J1002D01*
G01X-1183137Y780400D01*
X-1181116D01*
X-1181079Y780385D01*
G03X-1180323I378J928D01*
G01X-1180286Y780400D01*
G37*
G36*
G01X-1167398Y856100D02*
G03X-1168400Y857102I-1002J0D01*
G03X-1168495Y857098I-5J-1002D01*
G01X-1168589Y857089D01*
X-1169900Y858400D01*
X-1170854D01*
G03X-1170900Y858402I-66J-999D01*
G03X-1170946Y858400I20J-1001D01*
G01X-1176700D01*
X-1179600Y861300D01*
Y881800D01*
X-1177000Y884400D01*
X-1141146D01*
G02X-1140819Y883770I0J-400D01*
G03X-1141002Y883193I819J-577D01*
G01Y883192D01*
G03X-1138998I1002J0D01*
G01Y883193D01*
G03X-1139181Y883770I-1002J0D01*
G02X-1138854Y884400I327J230D01*
G01X-1102088D01*
G03X-1098998I1545J1802D01*
G01X-1045002D01*
G03X-1041912I1545J1802D01*
G01X-1024109D01*
G02X-1023736Y883857I-1J-400D01*
G03X-1023802Y883500I936J-358D01*
G03X-1021798I1002J0D01*
G03X-1021864Y883857I-1002J-1D01*
G02X-1021491Y884400I374J143D01*
G01X-1018700D01*
X-1011850Y891250D01*
X-1011723Y891191D01*
G03X-1011303Y891098I422J909D01*
G01X-1011300D01*
G03X-1010298Y892100I0J1002D01*
G01Y892103D01*
G03X-1010391Y892523I-1002J-2D01*
G01X-1010450Y892650D01*
X-1007346Y895754D01*
G02X-1006674Y895565I283J-283D01*
G03X-1006468Y895156I974J234D01*
G01X-1006446Y895130D01*
X-1006397Y895000D01*
X-1006446Y894870D01*
X-1006468Y894844D01*
G03X-1006702Y894200I769J-644D01*
G03X-1005700Y893198I1002J0D01*
G03X-1005020Y893464I0J1002D01*
G02X-1004450Y893435I271J-294D01*
G03X-1003700Y893098I750J666D01*
G03X-1002698Y894100I0J1002D01*
G03X-1002968Y894784I-1001J0D01*
G01X-1002993Y894811D01*
X-1003050Y894950D01*
X-1002993Y895089D01*
X-1002968Y895116D01*
G03X-1002698Y895800I-731J684D01*
G03X-1003700Y896802I-1002J0D01*
G03X-1004415Y896502I0J-1002D01*
G02X-1004985I-285J281D01*
G03X-1005465Y896774I-715J-702D01*
G02X-1005654Y897446I94J389D01*
G01X-1004988Y898112D01*
G02X-1004447Y898135I283J-283D01*
G03X-1003800Y897898I647J765D01*
G03X-1003050Y898236I0J1001D01*
G02X-1002450I300J-265D01*
G03X-1001700Y897898I750J663D01*
G03Y899902I0J1002D01*
G03X-1002575Y899388I0J-1002D01*
G01X-1002632Y899285D01*
X-1002868D01*
X-1002925Y899388D01*
G03X-1003035Y899547I-875J-488D01*
G02X-1003012Y900088I306J258D01*
G01X-1002500Y900600D01*
X-1000174D01*
G02X-999868Y899943I-1J-400D01*
G03X-1000102Y899300I768J-644D01*
G03X-999643Y898458I1002J0D01*
G02X-999482Y897991I-217J-336D01*
G03X-999964Y897100I583J-891D01*
G03X-998900Y896036I1064J0D01*
G03X-997978Y896568I0J1065D01*
G02X-997737Y896657I174J-99D01*
G03X-997400Y896598I339J943D01*
G03Y898602I0J1002D01*
G03X-997643Y898572I0J-1003D01*
G02X-998128Y899057I-97J388D01*
G03X-998098Y899300I-972J243D01*
G03X-998332Y899943I-1002J-1D01*
G02X-998026Y900600I307J257D01*
G01X-977400D01*
X-976218Y899418D01*
X-976255Y899303D01*
G03X-976302Y899000I955J-303D01*
G03X-975300Y897998I1002J0D01*
G03X-974997Y898045I0J1002D01*
G01X-974882Y898082D01*
X-970400Y893600D01*
Y875703D01*
G03Y874497I799J-603D01*
G01Y855200D01*
X-965439Y850239D01*
G02X-965545Y849598I-283J-282D01*
G03X-966102Y848700I445J-898D01*
G03X-965100Y847698I1002J0D01*
G03X-964202Y848255I0J1002D01*
G02X-963561Y848361I359J-177D01*
G01X-954200Y839000D01*
Y835309D01*
X-954350Y835270D01*
G03Y833330I250J-970D01*
G01X-954200Y833291D01*
Y827056D01*
X-954357Y827021D01*
G03Y825063I215J-979D01*
G01X-954200Y825028D01*
Y740701D01*
X-954321Y740649D01*
G03Y738807I394J-921D01*
G01X-954200Y738755D01*
Y737300D01*
X-960455Y731045D01*
X-960550Y731056D01*
G03X-960659Y731062I-109J-996D01*
G01X-960660D01*
G03X-961662Y730060I0J-1002D01*
G01Y730059D01*
G03X-961656Y729950I1002J0D01*
G01X-961645Y729855D01*
X-969000Y722500D01*
Y719702D01*
G03Y718098I599J-802D01*
G01Y715747D01*
G03Y714353I720J-697D01*
G01Y710809D01*
G03Y709251I630J-779D01*
G01Y705833D01*
G03Y704527I760J-653D01*
G01Y701039D01*
G03Y699481I630J-779D01*
G01Y697539D01*
G03Y695981I630J-779D01*
G01Y674267D01*
G02X-969571Y673906I-400J0D01*
G03X-969998Y674002I-428J-906D01*
G01X-970000D01*
G03Y671998I0J-1002D01*
G01X-969998D01*
G03X-969571Y672094I-1J1002D01*
G02X-969000Y671733I171J-361D01*
G01Y658900D01*
X-971900Y656000D01*
X-976277D01*
G02X-976548Y656694I0J400D01*
G03X-975402Y659307I-2406J2613D01*
G03X-982504I-3551J0D01*
G03X-981358Y656694I3552J0D01*
G02X-981629Y656000I-271J-294D01*
G01X-986277D01*
G02X-986548Y656694I0J400D01*
G03X-985402Y659307I-2406J2613D01*
G03X-992504I-3551J0D01*
G03X-991358Y656694I3552J0D01*
G02X-991629Y656000I-271J-294D01*
G01X-992800D01*
X-995465Y658665D01*
X-995450Y658766D01*
Y658767D01*
G03X-995408Y659307I-3503J544D01*
G03X-996400Y661767I-3546J0D01*
G01Y666847D01*
G03Y671767I-2554J2460D01*
G01Y701900D01*
X-993100Y705200D01*
Y705972D01*
X-993070Y706020D01*
G03Y707180I-930J580D01*
G01X-993100Y707228D01*
Y711857D01*
G02X-992586Y712240I400J-1D01*
G03X-992300Y712198I287J960D01*
G03Y714202I0J1002D01*
G03X-992586Y714160I1J-1002D01*
G02X-993100Y714543I-114J384D01*
G01Y716800D01*
X-986847Y723053D01*
X-986827Y723066D01*
G03X-986304Y724000I-572J934D01*
G03X-986700Y724843I-1095J0D01*
G01Y732002D01*
X-986518Y732199D01*
X-986449Y732209D01*
G03X-985598Y733200I-152J991D01*
G01Y733216D01*
X-985599Y733301D01*
X-985176Y733724D01*
G02X-984496Y733487I283J-283D01*
G03X-983500Y732598I996J113D01*
G03X-982498Y733600I0J1002D01*
G03X-983387Y734596I-1002J0D01*
G02X-983624Y735276I46J397D01*
G01X-975800Y743100D01*
Y755300D01*
X-974105Y756995D01*
G02X-973435Y756813I283J-283D01*
G03X-972465Y756063I970J252D01*
G03X-971463Y757065I0J1002D01*
G03X-972213Y758035I-1002J0D01*
G02X-972395Y758705I101J387D01*
G01X-968100Y763000D01*
Y811798D01*
G02X-967900Y811998I200J0D01*
G03Y814002I0J1002D01*
G02X-968100Y814202I0J200D01*
G01Y815398D01*
G02X-967700Y815798I400J0D01*
G03Y817802I0J1002D01*
G02X-968100Y818202I0J400D01*
G01Y830400D01*
X-970829Y833129D01*
G02X-970704Y833779I283J283D01*
G03X-970107Y834567I-396J920D01*
G02X-969650Y834909I396J-53D01*
G03X-969500Y834898I148J991D01*
G03Y836902I0J1002D01*
G03X-970493Y836033I0J-1002D01*
G02X-970950Y835691I-396J53D01*
G03X-971100Y835702I-148J-991D01*
G01X-971101D01*
G03X-971659Y835532I0J-1002D01*
G02X-972172Y835589I-223J332D01*
G03X-972900Y835902I-728J-690D01*
G01X-972903D01*
G03X-973323Y835809I2J-1002D01*
G01X-973450Y835750D01*
X-1000400Y862700D01*
X-1008586D01*
G02X-1008932Y863300I1J400D01*
G03X-1008798Y863800I-868J501D01*
G03X-1010802I-1002J0D01*
G03X-1010668Y863300I1002J1D01*
G02X-1011014Y862700I-347J-200D01*
G01X-1012349D01*
G02X-1012677Y863328I0J400D01*
G03X-1012498Y863899I-823J572D01*
G01Y863900D01*
G03X-1014502I-1002J0D01*
G01Y863899D01*
G03X-1014323Y863328I1002J1D01*
G02X-1014651Y862700I-328J-228D01*
G01X-1016791D01*
X-1016830Y862850D01*
G03X-1018770I-970J-250D01*
G01X-1018809Y862700D01*
X-1030700D01*
X-1031695Y863695D01*
G02X-1031609Y864327I282J283D01*
G03X-1031161Y864850I-491J874D01*
G02X-1030733Y865107I375J-139D01*
G03X-1030600Y865098I134J993D01*
G03Y867102I0J1002D01*
G03X-1030866Y867066I0J-1001D01*
G02X-1031351Y867323I-106J385D01*
G03X-1032300Y868002I-949J-324D01*
G03X-1033302Y867000I0J-1002D01*
G03X-1032989Y866272I1003J0D01*
G02X-1032932Y865759I-275J-290D01*
G03X-1032973Y865691I837J-551D01*
G02X-1033605Y865605I-349J196D01*
G01X-1035959Y867959D01*
G02X-1035968Y868515I283J283D01*
G03X-1035698Y869199I-732J684D01*
G01Y869200D01*
G03X-1036700Y870202I-1002J0D01*
G03X-1037670Y869450I0J-1002D01*
G01X-1037709Y869300D01*
X-1037998D01*
G02X-1038198Y869500I0J200D01*
G03X-1040202I-1002J0D01*
G02X-1040402Y869300I-200J0D01*
G01X-1041086D01*
X-1041101Y869483D01*
G03X-1043099I-999J-83D01*
G01X-1043114Y869300D01*
X-1048249D01*
G02X-1048577Y869928I0J400D01*
G03X-1048398Y870499I-823J572D01*
G01Y870500D01*
G03X-1050402I-1002J0D01*
G01Y870499D01*
G03X-1050223Y869928I1002J1D01*
G02X-1050551Y869300I-328J-228D01*
G01X-1057742D01*
G02X-1058065Y869935I0J400D01*
G03X-1057874Y870523I-811J589D01*
G01Y870524D01*
G03X-1058876Y871526I-1002J0D01*
G01X-1058878D01*
G03X-1059281Y871441I1J-1002D01*
G02X-1059842Y871805I-161J366D01*
G03X-1060844Y872802I-1002J-5D01*
G03Y870798I0J-1002D01*
G01X-1060842D01*
G03X-1060439Y870883I-1J1002D01*
G02X-1059878Y870519I161J-366D01*
G03X-1059687Y869935I1002J5D01*
G02X-1060010Y869300I-323J-235D01*
G01X-1069908D01*
X-1069955Y869433D01*
G03X-1071845I-945J-333D01*
G01X-1071892Y869300D01*
X-1079564D01*
G02X-1079960Y869757I0J400D01*
G03X-1079950Y869900I-992J141D01*
G03X-1081954I-1002J0D01*
G03X-1081944Y869757I1002J-2D01*
G02X-1082340Y869300I-396J-57D01*
G01X-1082712D01*
G02X-1083108Y869757I0J400D01*
G03X-1083098Y869900I-992J141D01*
G03X-1085102I-1002J0D01*
G03X-1085092Y869757I1002J-2D01*
G02X-1085488Y869300I-396J-57D01*
G01X-1085570D01*
G02X-1085966Y869756I0J400D01*
G03X-1085956Y869897I-992J141D01*
G03X-1087960I-1002J0D01*
G03X-1087950Y869756I1002J0D01*
G02X-1088346Y869300I-396J-56D01*
G01X-1088718D01*
G02X-1089114Y869756I0J400D01*
G03X-1089104Y869897I-992J141D01*
G03X-1091108I-1002J0D01*
G03X-1091098Y869756I1002J0D01*
G02X-1091494Y869300I-396J-56D01*
G01X-1104486D01*
X-1104543Y869404D01*
G03X-1106299I-878J-483D01*
G01X-1106356Y869300D01*
X-1113500D01*
X-1132400Y850400D01*
X-1161900D01*
X-1164790Y853290D01*
X-1164755Y853406D01*
G03X-1164711Y853699I-958J294D01*
G01Y853700D01*
G03X-1165713Y854702I-1002J0D01*
G01X-1165714D01*
G03X-1166007Y854658I1J-1002D01*
G01X-1166123Y854623D01*
X-1167411Y855911D01*
X-1167402Y856005D01*
G03X-1167398Y856100I-998J90D01*
G37*
G36*
G01X-1023200Y735700D02*
X-1006500D01*
X-1005128Y734328D01*
G02X-1005105Y733787I-283J-283D01*
G03X-1005342Y733140I765J-647D01*
G03X-1004340Y732138I1002J0D01*
G03X-1003693Y732375I0J1002D01*
G02X-1003152Y732352I258J-306D01*
G01X-995000Y724200D01*
Y720594D01*
X-997394Y718200D01*
X-1028200D01*
X-1033800Y712600D01*
X-1037933D01*
G02X-1038294Y713171I0J400D01*
G03X-1038198Y713600I-906J428D01*
G03X-1038201Y713681I-1002J3D01*
G02X-1037745Y714109I399J32D01*
G03X-1037600Y714098I148J991D01*
G03X-1038602Y715100I0J1002D01*
G03X-1038599Y715019I1002J-3D01*
G02X-1039055Y714591I-399J-32D01*
G03X-1039200Y714602I-148J-991D01*
G03X-1040202Y713600I0J-1002D01*
G03X-1040106Y713171I1002J-1D01*
G02X-1040467Y712600I-361J-171D01*
G01X-1048500D01*
X-1051200Y715300D01*
Y722000D01*
X-1049500Y723700D01*
X-1035200D01*
X-1023200Y735700D01*
G37*
%LPC*%
G75*
G36*
G01X-980069Y898025D02*
G02X-980300Y897998I-231J975D01*
G02Y900002I0J1002D01*
G02X-979316Y899189I0J-1002D01*
G03X-978831Y898875I393J75D01*
G02X-978600Y898902I231J-975D01*
G02Y896898I0J-1002D01*
G02X-979584Y897711I0J1002D01*
G03X-980069Y898025I-393J-75D01*
G37*
G36*
G01X-994277Y885423D02*
G02X-995100Y884992I-823J570D01*
G02Y886996I0J1002D01*
G02X-994280Y886569I0J-1001D01*
G03X-993623Y886571I328J230D01*
G02X-992800Y887002I823J-570D01*
G02Y884998I0J-1002D01*
G02X-993620Y885425I0J1001D01*
G03X-994277Y885423I-328J-230D01*
G37*
G36*
G01X-991598Y884006D02*
G02X-991602Y884100I998J90D01*
G02X-990600Y883098I1002J0D01*
G02X-990817Y883122I1J1002D01*
G03X-991302Y882694I-87J-390D01*
G02X-991298Y882600I-998J-90D01*
G02X-992300Y883602I-1002J0D01*
G02X-992083Y883578I-1J-1002D01*
G03X-991598Y884006I87J390D01*
G37*
G36*
G01X-1072946Y879599D02*
G02X-1073902Y880600I46J1001D01*
G02X-1071898I1002J0D01*
G02X-1071940Y880314I-1002J1D01*
G03X-1071575Y879801I384J-113D01*
G02X-1070619Y878800I-46J-1001D01*
G02X-1071337Y877839I-1002J0D01*
G03X-1071602Y877325I113J-384D01*
G02X-1071548Y877000I-948J-325D01*
G02X-1073552I-1002J0D01*
G02X-1072834Y877961I1002J0D01*
G03X-1072569Y878475I-113J384D01*
G02X-1072623Y878800I948J325D01*
G02X-1072581Y879086I1002J-1D01*
G03X-1072946Y879599I-384J113D01*
G37*
G36*
G01X-1078879Y879498D02*
X-1078900D01*
G02X-1077898Y880500I0J1002D01*
G02X-1077939Y880215I-1002J-1D01*
G03X-1077548Y879702I383J-113D01*
G01X-1077527D01*
G02X-1076525Y878700I0J-1002D01*
G02X-1077380Y877709I-1002J0D01*
G03X-1077709Y877215I59J-396D01*
G02X-1077678Y876970I-971J-247D01*
G02X-1078680Y875968I-1002J0D01*
G02X-1079681Y876928I0J1002D01*
G03X-1080136Y877307I-400J-17D01*
G02X-1080273Y877298I-134J993D01*
G02Y879302I0J1002D01*
G02X-1079272Y878342I0J-1002D01*
G03X-1078817Y877963I400J17D01*
G02X-1078680Y877972I134J-993D01*
G02X-1078618Y877970I-1J-1002D01*
G03X-1078426Y878258I12J200D01*
G02X-1078529Y878700I899J442D01*
G02X-1078488Y878985I1002J1D01*
G03X-1078879Y879498I-383J113D01*
G37*
G36*
G01X-1084630Y879263D02*
G02X-1085451Y880249I182J986D01*
G02X-1083447I1002J0D01*
G02X-1083534Y879842I-1002J1D01*
G03X-1083240Y879286I366J-162D01*
G02X-1082419Y878300I-182J-986D01*
G02X-1083368Y877299I-1002J0D01*
G03X-1083742Y876834I21J-399D01*
G02X-1083728Y876670I-988J-167D01*
G02X-1085732I-1002J0D01*
G02X-1085718Y876834I1002J-3D01*
G03X-1086132Y877299I-395J65D01*
G02X-1086179Y877298I-45J1001D01*
G02X-1085177Y878300I0J1002D01*
G02X-1085191Y878136I-1002J3D01*
G03X-1084777Y877671I395J-65D01*
G02X-1084730Y877672I45J-1001D01*
G02X-1084570Y877659I-1J-1002D01*
G03X-1084352Y877930I32J198D01*
G02X-1084423Y878300I931J370D01*
G02X-1084336Y878707I1002J-1D01*
G03X-1084630Y879263I-366J162D01*
G37*
G36*
G01X-1021091Y879541D02*
G02X-1021202Y880000I891J458D01*
G02X-1019198I1002J0D01*
G02X-1019952Y879029I-1002J0D01*
G03X-1020209Y878459I99J-387D01*
G02X-1020098Y878000I-891J-458D01*
G02X-1022102I-1002J0D01*
G02X-1021348Y878971I1002J0D01*
G03X-1021091Y879541I-99J387D01*
G37*
G36*
G01X-989864Y878650D02*
G02X-990202Y879400I663J750D01*
G02X-988198I1002J0D01*
G02X-988536Y878650I-1001J0D01*
G03Y878050I265J-300D01*
G02X-988198Y877300I-663J-750D01*
G02X-990202I-1002J0D01*
G02X-989864Y878050I1001J0D01*
G03Y878650I-265J300D01*
G37*
G36*
G01X-1068885Y877887D02*
G02X-1069475Y878800I411J913D01*
G02X-1067471I1002J0D01*
G02X-1067637Y878248I-1001J0D01*
G03X-1067468Y877663I334J-220D01*
G02X-1066878Y876750I-411J-913D01*
G02X-1068882I-1002J0D01*
G02X-1068716Y877302I1001J0D01*
G03X-1068885Y877887I-334J220D01*
G37*
G36*
G01X-1113995Y877993D02*
G02X-1113000Y878873I995J-123D01*
G02Y876869I0J-1002D01*
G02X-1113292Y876912I-2J1002D01*
G03X-1113805Y876578I-116J-382D01*
G02X-1114800Y875698I-995J123D01*
G02Y877702I0J1002D01*
G02X-1114508Y877659I2J-1002D01*
G03X-1113995Y877993I116J382D01*
G37*
G36*
G01X-1109081Y875619D02*
G02X-1110000Y875017I-919J400D01*
G02Y877021I0J1002D01*
G02X-1109418Y876834I-1J-1002D01*
G03X-1108819Y877000I232J326D01*
G02X-1107900Y877602I919J-400D01*
G02Y875598I0J-1002D01*
G02X-1108482Y875785I1J1002D01*
G03X-1109081Y875619I-232J-326D01*
G37*
G36*
G01X-1139480Y872307D02*
G02X-1138500Y873102I980J-207D01*
G02Y871098I0J-1002D01*
G02X-1139021Y871244I0J1003D01*
G03X-1139620Y870985I-208J-342D01*
G02X-1140600Y870190I-980J207D01*
G02Y872194I0J1002D01*
G02X-1140079Y872048I0J-1003D01*
G03X-1139480Y872307I208J342D01*
G37*
G36*
G01X-980412Y868071D02*
G02X-981100Y867798I-688J729D01*
G02Y869802I0J1002D01*
G02X-980287Y869386I0J-1002D01*
G03X-979688Y869329I324J234D01*
G02X-979000Y869602I688J-729D01*
G02Y867598I0J-1002D01*
G02X-979813Y868014I0J1002D01*
G03X-980412Y868071I-324J-234D01*
G37*
G36*
G01X-1127690Y866999D02*
G02X-1128089Y867800I603J800D01*
G02X-1126085I1002J0D01*
G02X-1126494Y866992I-1003J0D01*
G03X-1126497Y866351I237J-322D01*
G02X-1126098Y865550I-603J-800D01*
G02X-1128102I-1002J0D01*
G02X-1127693Y866358I1003J0D01*
G03X-1127690Y866999I-237J322D01*
G37*
G36*
G01X-1139899Y860675D02*
G02X-1138900Y861602I999J-75D01*
G02Y859598I0J-1002D01*
G02X-1139402Y859733I0J1001D01*
G03X-1140001Y859417I-200J-346D01*
G02X-1141000Y858490I-999J75D01*
G02Y860494I0J1002D01*
G02X-1140498Y860359I0J-1001D01*
G03X-1139899Y860675I200J346D01*
G37*
G36*
G01X-1141117Y855424D02*
G02X-1142002Y856419I117J995D01*
G02X-1139998I1002J0D01*
G02X-1140026Y856186I-1002J2D01*
G03X-1139683Y855695I389J-93D01*
G02X-1138798Y854700I-117J-995D01*
G02X-1140802I-1002J0D01*
G02X-1140774Y854933I1002J-2D01*
G03X-1141117Y855424I-389J93D01*
G37*
G36*
G01X-973468Y861743D02*
G03Y862257I-307J257D01*
G02X-973702Y862900I768J644D01*
G02X-971698I1002J0D01*
G02X-971932Y862257I-1002J1D01*
G03Y861743I307J-257D01*
G02X-971698Y861100I-768J-644D01*
G02X-973702I-1002J0D01*
G02X-973468Y861743I1002J-1D01*
G37*
G36*
G01X-1154618Y860670D02*
G03X-1154441Y861155I-198J347D01*
G02X-1154502Y861500I941J344D01*
G02X-1152498I1002J0D01*
G02X-1153003Y860630I-1002J0D01*
G03X-1153180Y860145I198J-347D01*
G02X-1153119Y859800I-941J-344D01*
G02X-1155123I-1002J0D01*
G02X-1154618Y860670I1002J0D01*
G37*
G36*
G01X-982320Y860136D02*
G03X-981750Y860165I271J294D01*
G02X-981000Y860502I750J-666D01*
G02Y858498I0J-1002D01*
G02X-981680Y858764I0J1002D01*
G03X-982250Y858735I-271J-294D01*
G02X-983000Y858398I-750J666D01*
G02X-983424Y858492I0J1003D01*
G03X-983951Y858307I-169J-363D01*
G02X-984850Y857748I-899J443D01*
G02Y859752I0J1002D01*
G02X-984426Y859658I0J-1003D01*
G03X-983899Y859843I169J363D01*
G02X-983000Y860402I899J-443D01*
G02X-982320Y860136I0J-1002D01*
G37*
G36*
G01X-969263Y840373D02*
G03X-968695Y840433I255J309D01*
G02X-967910Y840812I785J-623D01*
G02Y838808I0J-1002D01*
G02X-968547Y839037I0J1002D01*
G03X-969115Y838977I-255J-309D01*
G02X-969900Y838598I-785J623D01*
G02Y840602I0J1002D01*
G02X-969263Y840373I0J-1002D01*
G37*
G36*
G01X-963873Y748357D02*
G03X-964122Y748372I-134J-148D01*
G02X-964700Y748189I-577J819D01*
G02Y750193I0J1002D01*
G02X-964027Y749934I1J-1002D01*
G03X-963778Y749919I134J148D01*
G02X-963200Y750102I577J-819D01*
G02Y748098I0J-1002D01*
G02X-963873Y748357I-1J1002D01*
G37*
G36*
G01X-982225Y717417D02*
G03X-982475I-125J-156D01*
G02X-983100Y717198I-625J782D01*
G02Y719202I0J1002D01*
G02X-982475Y718983I0J-1001D01*
G03X-982225I125J156D01*
G02X-981600Y719202I625J-782D01*
G02Y717198I0J-1002D01*
G02X-982225Y717417I0J1001D01*
G37*
G36*
G01X-1011067Y723852D02*
G03X-1011350Y723836I-134J-149D01*
G02X-1012100Y723498I-750J663D01*
G02Y725502I0J1002D01*
G02X-1011433Y725248I0J-1003D01*
G03X-1011150Y725264I134J149D01*
G02X-1010400Y725602I750J-663D01*
G02Y723598I0J-1002D01*
G02X-1011067Y723852I0J1003D01*
G37*
G36*
G01X-1015749Y723466D02*
G03Y723998I-298J266D01*
G02X-1016002Y724664I750J666D01*
G02X-1013998I1002J0D01*
G02X-1014251Y723998I-1003J0D01*
G03Y723466I298J-266D01*
G02X-1013998Y722800I-750J-666D01*
G02X-1016002I-1002J0D01*
G02X-1015749Y723466I1003J0D01*
G37*
G36*
G01X-1024857Y727885D02*
G03X-1024520Y728272I-63J395D01*
G02X-1023518Y729256I1002J-18D01*
G02X-1022516Y728254I0J-1002D01*
G02X-1023361Y727264I-1002J0D01*
G03X-1023698Y726877I63J-395D01*
G02X-1024700Y725893I-1002J18D01*
G02X-1025702Y726895I0J1002D01*
G02X-1024857Y727885I1002J0D01*
G37*
G54D27*
X-1199398Y758382D03*
X-1193000Y753300D03*
X-1196453Y753264D03*
X-1193000Y750700D03*
X-1199398Y755823D03*
X-1199600Y775600D03*
X-1193300Y776300D03*
X-1186799Y776295D03*
X-1196243D03*
X-1183649D03*
X-1199698Y771177D03*
X-979300Y843600D03*
X-958142Y826058D03*
X-974700Y887600D03*
X-958500Y834400D03*
X-982700Y898500D03*
X-967500Y842400D03*
X-970800Y687690D03*
X-968320Y730060D03*
X-964500Y730100D03*
X-968430Y725080D03*
X-1031200Y879700D03*
X-1030700Y869000D03*
X-1169700Y862200D03*
X-1033900Y869300D03*
X-964500Y735100D03*
X-1033400Y882300D03*
X-970698Y740405D03*
X-1173100Y861000D03*
X-1176400Y881600D03*
X-989100Y709700D03*
X-982900Y710200D03*
X-978900Y685500D03*
Y681100D03*
Y677000D03*
X-974300Y674900D03*
Y679200D03*
X-974400Y683200D03*
X-982600Y693900D03*
X-973900Y710800D03*
X-986000Y700100D03*
X-994600Y700000D03*
X-986100Y691500D03*
X-973400Y718300D03*
X-974200Y705500D03*
X-982600Y700400D03*
X-986100Y694100D03*
X-982600Y691000D03*
X-970800Y724000D03*
X-1009300Y867700D03*
X-990300Y704500D03*
X-1050400Y880200D03*
X-1042900D03*
X-972300Y732800D03*
X-971100Y713900D03*
X-959500Y735100D03*
X-973000Y744200D03*
X-959500Y743800D03*
X-960700Y754700D03*
X-986100Y696700D03*
X-972300Y707900D03*
X-963677Y740069D03*
X-972200Y703100D03*
X-971900Y696900D03*
X-982600Y697100D03*
X-974730Y696870D03*
X-1092400Y880300D03*
X-974100Y700400D03*
X-1004600Y868100D03*
X-1057400Y879700D03*
X-974617Y689783D03*
X-1168062Y859762D03*
X-990200Y688700D03*
X-1089327Y878300D03*
X-973100Y749000D03*
X-1141248Y863752D03*
X-984400Y714100D03*
X-1074379Y878700D03*
X-983083Y726517D03*
X-1110000Y872871D03*
X-1140600Y868119D03*
X-987500Y712900D03*
X-1154600Y853900D03*
X-1162900Y865900D03*
X-983100Y688400D03*
X-1054938Y871538D03*
X-968700Y746500D03*
X-993713Y688700D03*
X-1140000Y880119D03*
X-1153400Y864700D03*
X-986700Y689100D03*
X-1113000Y881019D03*
X-983600Y881600D03*
X-1017300Y867700D03*
X-992500Y877200D03*
X-997300Y875400D03*
X-974500Y870400D03*
X-1028200Y879000D03*
X-994600Y874000D03*
X-993600Y864750D03*
X-1064020Y877620D03*
X-973800Y867400D03*
X-983000Y856900D03*
X-991878Y858800D03*
X-1063100Y874800D03*
X-976400Y881500D03*
X-1018744Y726244D03*
X-1044342Y714958D03*
X-1007200Y733354D03*
G54D28*
X-978953Y669307D03*
X-988953D03*
G54D29*
X-963561Y778392D03*
Y809888D03*
%LPD*%
G75*
G54D10*
X-1271350Y655800D03*
Y663792D03*
X-1241350Y659796D03*
G54D20*
G01X-988953Y659307D02*
Y663059D01*
G01X-992705Y659307D02*
X-988953D01*
G01D02*
X-985201D01*
G01X-978953D02*
Y663059D01*
G01X-982705Y659307D02*
X-978953D01*
G01D02*
X-975201D01*
G54D11*
X-1272857Y689193D03*
X-1245298D03*
G54D21*
G01X-1174201Y753263D02*
X-1176064Y751400D01*
X-1177000D01*
X-1179500Y748900D01*
X-1179825D01*
X-1179975Y748750D01*
X-1187990D01*
X-1189944Y750704D01*
G54D12*
X-1245764Y864764D03*
Y909764D03*
G54D22*
G01X-1280646Y662339D02*
G03X-1268835Y650528I11811J0D01*
G01X-1280646Y915189D02*
Y662339D01*
G01X-1268835Y927000D02*
G03X-1280646Y915189I0J-11811D01*
G01X-1268835Y650528D02*
X-957811D01*
G01Y927000D02*
X-1268835D01*
G01X-1215600Y683500D02*
X-1211168D01*
X-1211118Y683450D01*
X-1210082D01*
X-1210032Y683500D01*
X-1202900D01*
X-1195600Y690800D01*
X-1167401D01*
X-1163801Y694400D01*
X-1134900D01*
X-1131500Y691000D01*
X-1080408D01*
X-1071750Y699658D01*
Y710150D01*
G01X-1080050D02*
Y701450D01*
X-1087000Y694500D01*
X-1128400D01*
X-1132000Y698100D01*
X-1165500D01*
X-1168550Y695050D01*
X-1211672D01*
X-1211922Y694800D01*
X-1213222D01*
G01X-1209500Y698400D02*
X-1207050Y695950D01*
X-1198582D01*
X-1198332Y696200D01*
X-1169000D01*
X-1167966Y697234D01*
X-1167798D01*
X-1167066Y697966D01*
Y698134D01*
X-1165700Y699500D01*
X-1131200D01*
X-1127400Y695700D01*
X-1090800D01*
X-1082950Y703550D01*
Y710050D01*
G01X-1214200Y705200D02*
X-1211068D01*
X-1210668Y705600D01*
X-1197100D01*
X-1194950Y707750D01*
X-1174782D01*
X-1174109Y707077D01*
X-1168055D01*
X-1167732Y707400D01*
X-1156400D01*
X-1154000Y705000D01*
X-1128300D01*
X-1123900Y700600D01*
X-1115132D01*
X-1113832Y701900D01*
X-1096799D01*
X-1093000Y705699D01*
Y708300D01*
X-1094550Y709850D01*
G01X-1091650Y709950D02*
Y705131D01*
X-1095881Y700900D01*
X-1113559D01*
X-1114759Y699700D01*
X-1125100D01*
X-1129200Y703800D01*
X-1170500D01*
X-1171800Y705100D01*
X-1194800D01*
X-1199200Y700700D01*
X-1214000D01*
G01X-1103750Y710100D02*
Y706399D01*
X-1105449Y704700D01*
X-1114201D01*
X-1118701Y709200D01*
X-1153400D01*
X-1157800Y713600D01*
X-1191600D01*
X-1194223Y710977D01*
X-1207455D01*
X-1207482Y710950D01*
X-1208650D01*
X-1209700Y709900D01*
X-1211700D01*
G01X-1214300Y707900D02*
X-1211400D01*
X-1210600Y708700D01*
X-1208868D01*
X-1208618Y708450D01*
X-1207582D01*
X-1207482Y708550D01*
X-1207209D01*
X-1207059Y708400D01*
X-1204100D01*
X-1203200Y709300D01*
X-1193699D01*
X-1192799Y710200D01*
X-1156800D01*
X-1152700Y706100D01*
X-1117901D01*
X-1115251Y703450D01*
X-1097150D01*
X-1094600Y706000D01*
Y707600D01*
G01X-1200600Y677700D02*
Y683500D01*
X-1194600Y689500D01*
X-1167000D01*
X-1163400Y693100D01*
X-1135593D01*
X-1132293Y689800D01*
X-1079062D01*
X-1068750Y700112D01*
Y710150D01*
G01X-1202300Y693700D02*
X-1168099D01*
X-1164999Y696800D01*
X-1132901D01*
X-1129401Y693300D01*
X-1083200D01*
X-1077350Y699150D01*
Y710150D01*
G01X-1074460Y710140D02*
Y699494D01*
X-1081754Y692200D01*
X-1130399D01*
X-1133699Y695500D01*
X-1164600D01*
X-1167900Y692200D01*
X-1198600D01*
X-1199305Y691495D01*
X-1202200D01*
G01X-1106950Y709750D02*
Y707399D01*
X-1108449Y705900D01*
X-1113100D01*
X-1120150Y712950D01*
X-1140818D01*
X-1140968Y713100D01*
X-1154400D01*
X-1156400Y715100D01*
X-1195954D01*
X-1198727Y712327D01*
G01X-1182926Y664307D02*
G03I-5200J0D01*
G01Y857220D02*
G03I-5200J0D01*
G01Y913220D02*
G03I-5200J0D01*
G01X-1175105Y677705D02*
X-1172100Y674700D01*
X-1019900D01*
X-1001850Y692750D01*
G01X-1088650Y710050D02*
Y705585D01*
X-1096585Y697650D01*
X-1124950D01*
X-1129600Y702300D01*
X-1172800D01*
X-1174000Y701100D01*
X-1175300D01*
G01X-1085850Y710050D02*
Y705839D01*
X-1094989Y696700D01*
X-1126199D01*
X-1130399Y700900D01*
X-1172927D01*
X-1173627Y700200D01*
X-1173700D01*
X-1175500Y698400D01*
G01X-1177264Y716643D02*
X-1121343D01*
X-1112300Y707600D01*
X-1109200D01*
G01X-1174401Y745544D02*
X-1175391Y744554D01*
Y744397D01*
X-1176096Y743692D01*
Y739850D01*
X-1176122Y739824D01*
Y737382D01*
X-1177100Y736404D01*
Y733068D01*
X-1176850Y732818D01*
Y730850D01*
X-1170000Y724000D01*
X-1151834D01*
X-1151684Y723850D01*
X-1150316D01*
X-1150166Y724000D01*
X-1149400D01*
X-1148000Y725400D01*
G01X-1174196Y740368D02*
X-1173150D01*
X-1172729Y739947D01*
Y736301D01*
X-1173230Y735800D01*
X-1175300D01*
X-1175700Y735400D01*
Y734000D01*
X-1175300Y733600D01*
X-1172400D01*
X-1171900Y733100D01*
Y729500D01*
X-1167900Y725500D01*
X-1151000D01*
G01X-1174196Y748145D02*
X-1172751Y746700D01*
Y744125D01*
X-1170645Y742019D01*
X-1170362D01*
X-1169396Y741053D01*
Y740770D01*
X-1166226Y737600D01*
X-1162400D01*
X-1161900Y737100D01*
Y734800D01*
X-1160900Y733800D01*
X-1159888D01*
X-1159388Y733300D01*
Y730800D01*
X-1158888Y730300D01*
X-1157888D01*
X-1157388Y730800D01*
Y733300D01*
X-1156888Y733800D01*
X-1155888D01*
X-1155388Y733300D01*
Y730700D01*
X-1154888Y730200D01*
X-1153888D01*
X-1153388Y730700D01*
Y734512D01*
X-1152400Y735500D01*
X-1151100D01*
X-1150600Y735000D01*
Y733600D01*
X-1150300Y733300D01*
X-1148414D01*
X-1147757Y732643D01*
X-1146357D01*
G01X-1174196Y778855D02*
X-1175400Y780059D01*
Y780750D01*
X-1175446Y780796D01*
Y788563D01*
X-1175456Y788573D01*
Y789609D01*
X-1174724Y790341D01*
X-1174159D01*
X-1168900Y795600D01*
X-1139600D01*
X-1134818Y790818D01*
Y782284D01*
X-1134477Y781943D01*
Y778623D01*
X-1134871Y778229D01*
Y778188D01*
X-1135603Y777456D01*
X-1135644D01*
X-1136463Y776637D01*
X-1137190D01*
X-1138180Y775647D01*
G01X-1000100Y697100D02*
X-1002220Y699220D01*
X-1045080D01*
X-1064000Y680300D01*
X-1166700D01*
X-1168100Y681700D01*
G01X-1166600Y677600D02*
X-1164800Y675800D01*
X-1023200D01*
X-1008400Y690600D01*
Y694800D01*
G01X-1002900Y697100D02*
X-1004120Y698320D01*
X-1044380D01*
X-1063650Y679050D01*
X-1171150D01*
X-1172500Y677700D01*
G01X-1141238Y730083D02*
X-1139800Y728645D01*
Y727900D01*
X-1140500Y727200D01*
X-1143238D01*
X-1143738Y726700D01*
X-1145238D01*
X-1145738Y727200D01*
X-1162800D01*
X-1163300Y727700D01*
Y728897D01*
X-1163800Y729397D01*
X-1164508D01*
X-1165000Y728905D01*
Y727700D01*
X-1165500Y727200D01*
X-1166500D01*
X-1169500Y730200D01*
Y731100D01*
X-1169000Y731600D01*
X-1168200D01*
X-1167800Y732000D01*
Y732900D01*
X-1168400Y733500D01*
X-1170000D01*
X-1170500Y734000D01*
Y735900D01*
X-1169606Y736794D01*
Y738929D01*
X-1171046Y740369D01*
G01X-1165565Y731150D02*
Y732550D01*
X-1165900Y732885D01*
Y735200D01*
X-1165300Y735800D01*
X-1164100D01*
X-1163700Y735400D01*
Y734300D01*
X-1161650Y732250D01*
Y729650D01*
X-1160700Y728700D01*
X-1151722D01*
X-1151222Y729200D01*
Y729850D01*
X-1150622Y730450D01*
X-1149722D01*
X-1149222Y729950D01*
Y729200D01*
X-1148722Y728700D01*
X-1147233D01*
X-1144433Y731500D01*
X-1142155D01*
X-1141922Y731733D01*
X-1139567D01*
X-1138679Y732621D01*
Y735921D01*
X-1138179Y736421D01*
X-1136800D01*
X-1136300Y736921D01*
Y737921D01*
X-1136800Y738421D01*
X-1138179D01*
X-1138679Y738921D01*
Y740321D01*
G01X-1143798Y737761D02*
Y740197D01*
X-1145037Y741436D01*
X-1146964D01*
X-1148354Y742826D01*
Y744446D01*
X-1147900Y744900D01*
X-1146400D01*
X-1145900Y745400D01*
Y746500D01*
X-1146400Y747000D01*
X-1152101D01*
X-1153201Y748100D01*
X-1157700D01*
X-1158705Y749105D01*
Y751100D01*
X-1159205Y751600D01*
X-1159913D01*
X-1160413Y751100D01*
Y749500D01*
X-1160913Y749000D01*
X-1161913D01*
X-1162413Y749500D01*
Y750900D01*
X-1162913Y751400D01*
X-1172700D01*
X-1173200Y750900D01*
Y750192D01*
X-1172700Y749692D01*
X-1171834D01*
X-1171730Y749796D01*
X-1166408D01*
X-1164757Y748145D01*
G01Y778855D02*
X-1165747Y777865D01*
X-1166535D01*
X-1167800Y776600D01*
Y774100D01*
X-1166400Y772700D01*
X-1164100D01*
X-1163300Y773500D01*
Y774599D01*
X-1162799Y775100D01*
X-1161143D01*
X-1160643Y775600D01*
Y776200D01*
X-1160143Y776700D01*
X-1158443D01*
X-1157543Y775800D01*
X-1156543D01*
X-1156043Y776300D01*
Y778100D01*
X-1155543Y778600D01*
X-1154443D01*
X-1153943Y778100D01*
Y777600D01*
X-1153443Y777100D01*
X-1148400D01*
X-1147750Y777750D01*
X-1146100D01*
X-1145600Y778250D01*
Y779300D01*
X-1146000Y779700D01*
X-1147500D01*
X-1148000Y780200D01*
Y784634D01*
X-1147500Y785134D01*
X-1145898D01*
X-1145116Y784352D01*
Y783116D01*
X-1144700Y782700D01*
X-1143554D01*
X-1143200Y783054D01*
Y784700D01*
X-1142846Y785054D01*
X-1140300D01*
X-1139800Y784554D01*
Y782525D01*
X-1139455Y782180D01*
Y780944D01*
X-1139987Y780412D01*
X-1141988D01*
X-1142500Y779900D01*
Y777500D01*
X-1142047Y777047D01*
X-1140339D01*
X-1138680Y778706D01*
G01X-1164757Y781314D02*
X-1163767Y780324D01*
X-1150776D01*
X-1150000Y781100D01*
Y785132D01*
X-1150450Y785582D01*
Y785648D01*
X-1151000Y786198D01*
Y793100D01*
X-1150500Y793600D01*
X-1148722D01*
X-1148222Y793100D01*
Y788134D01*
X-1147722Y787634D01*
X-1146588D01*
X-1146222Y788000D01*
Y792800D01*
X-1145722Y793300D01*
X-1144722D01*
X-1144222Y792800D01*
Y788500D01*
X-1143622Y787900D01*
X-1142722D01*
X-1142222Y788400D01*
Y792200D01*
X-1141722Y792700D01*
X-1138900D01*
X-1138200Y792000D01*
Y789400D01*
X-1138700Y788900D01*
X-1139145D01*
X-1139500Y788545D01*
Y787355D01*
X-1139045Y786900D01*
X-1138000D01*
X-1137600Y786500D01*
Y784973D01*
X-1136127Y783500D01*
Y781259D01*
G01X-1151500Y815100D02*
X-1144900Y808500D01*
X-1124968D01*
X-1120600Y804132D01*
G01X-1116700Y665600D02*
X-1116607Y665507D01*
X-1082753D01*
X-1078953Y669307D01*
G01X-1115549Y791600D02*
X-1114140Y790191D01*
X-1102108D01*
X-1093856Y798443D01*
Y807385D01*
X-1093800Y807441D01*
Y808099D01*
X-1083700Y818199D01*
Y821000D01*
X-1083050Y821650D01*
Y821818D01*
X-1082318Y822550D01*
X-1082150D01*
X-1078500Y826200D01*
X-1074600D01*
X-1072800Y828000D01*
X-1043700D01*
X-1040600Y831100D01*
X-1027800D01*
X-1020350Y823650D01*
X-1007282D01*
X-998300Y814668D01*
Y766700D01*
X-994300Y762700D01*
X-987650D01*
X-986350Y764000D01*
G01X-1115554Y794155D02*
X-1117000Y795601D01*
Y798198D01*
X-1119200Y800398D01*
Y803000D01*
X-1083900Y838300D01*
X-1022699D01*
X-1015999Y831600D01*
X-1004101D01*
X-990050Y817549D01*
Y810450D01*
X-991100Y809400D01*
X-992400D01*
G01X-1058953Y659307D02*
X-1063646Y664000D01*
X-1112100D01*
X-1114500Y661600D01*
X-1114600D01*
G01X-1106950Y714750D02*
X-1105200Y716500D01*
Y726300D01*
X-1097700Y733800D01*
Y740354D01*
X-1095175Y742879D01*
G01X-1064600Y698500D02*
Y710900D01*
X-1066191Y712491D01*
X-1109391D01*
X-1111100Y714200D01*
Y720200D01*
X-1112686Y721786D01*
Y725487D01*
X-1112050Y726123D01*
Y736240D01*
X-1110529Y737761D01*
G01X-1063200Y697000D02*
Y711600D01*
X-1064991Y713391D01*
X-1107501D01*
X-1108300Y714190D01*
Y718863D01*
X-1111786Y722349D01*
Y725114D01*
X-1110600Y726300D01*
Y735273D01*
G01X-1066100Y696900D02*
Y710500D01*
X-1067191Y711591D01*
X-1111791D01*
X-1114000Y713800D01*
Y726100D01*
X-1113000Y727100D01*
Y737849D01*
X-1110529Y740320D01*
G01X-1106664Y723200D02*
Y726109D01*
X-1098700Y734073D01*
Y741600D01*
X-1095816Y744484D01*
X-1093571D01*
X-1092616Y745439D01*
G01X-991600Y813800D02*
Y815774D01*
X-1006026Y830200D01*
X-1016700D01*
X-1023600Y837100D01*
X-1068900D01*
X-1071700Y834300D01*
X-1085950D01*
X-1109300Y810950D01*
Y807668D01*
X-1109407Y807561D01*
Y806211D01*
X-1109568Y806050D01*
Y803114D01*
X-1113682Y799000D01*
X-1115468D01*
G01X-988205Y765595D02*
X-989800Y764000D01*
X-993500D01*
X-995500Y766000D01*
Y814300D01*
X-1006500Y825300D01*
X-1019601D01*
X-1026701Y832400D01*
X-1043201D01*
X-1044951Y830650D01*
X-1076451D01*
X-1080210Y826891D01*
Y826642D01*
X-1085450Y821402D01*
Y819582D01*
X-1085600Y819432D01*
Y818999D01*
X-1091499Y813100D01*
X-1092999D01*
X-1096000Y810099D01*
Y802668D01*
X-1105818Y792850D01*
X-1108390D01*
X-1108440Y792800D01*
X-1111790D01*
X-1112890Y791700D01*
G01X-1113000Y794150D02*
X-1109173D01*
X-1105691Y797632D01*
X-1105469D01*
X-1105183Y797918D01*
X-1104882D01*
X-1104150Y798650D01*
Y798951D01*
X-1103100Y800001D01*
Y805515D01*
X-1101600Y807015D01*
Y807318D01*
X-1100868Y808050D01*
X-1100849D01*
X-1089949Y818950D01*
X-1089382D01*
X-1088650Y819682D01*
Y820249D01*
X-1088400Y820499D01*
Y825600D01*
X-1082200Y831800D01*
X-1048900D01*
X-1046878Y833822D01*
X-1023822D01*
X-1017400Y827400D01*
X-1006500D01*
X-994400Y815300D01*
Y767550D01*
X-992450Y765600D01*
G01X-1110500Y798300D02*
X-1109000D01*
X-1106682Y800618D01*
Y802218D01*
X-1106900Y802436D01*
Y810000D01*
X-1098200Y818700D01*
X-1097932D01*
X-1097200Y819432D01*
Y819700D01*
X-1091068Y825832D01*
X-1090882D01*
X-1090150Y826564D01*
Y826750D01*
X-1083800Y833100D01*
X-1061799D01*
X-1058699Y836200D01*
X-1024399D01*
X-1016999Y828800D01*
X-1005899D01*
X-993200Y816101D01*
Y812800D01*
X-992100Y811700D01*
G01X-1094550Y714800D02*
X-1093200Y716150D01*
Y723400D01*
X-1086000Y730600D01*
Y739106D01*
X-1083503Y741603D01*
G01X-1087498Y737761D02*
X-1088949Y736310D01*
Y734601D01*
X-1087900Y733552D01*
Y730311D01*
X-1092611Y725600D01*
X-1093900D01*
X-1096000Y723500D01*
Y716120D01*
X-1097360Y714760D01*
G01X-1100541Y714741D02*
X-1099000Y716282D01*
Y724300D01*
X-1092500Y730800D01*
Y733120D01*
X-1090500Y735120D01*
Y738204D01*
X-1092616Y740320D01*
G01X-1103750Y714750D02*
X-1101850Y716650D01*
Y725850D01*
X-1096316Y731384D01*
X-1094648D01*
X-1093616Y732416D01*
Y736761D01*
X-1092616Y737761D01*
G01X-1103208Y723004D02*
Y726492D01*
X-1096700Y733000D01*
Y738795D01*
X-1095175Y740320D01*
G01X-1100500Y722600D02*
X-1100400Y722700D01*
Y725000D01*
X-1097400Y728000D01*
G01X-1090100Y732700D02*
X-1091500Y731300D01*
Y730400D01*
X-1097550Y724350D01*
Y722450D01*
G01X-1084748Y788752D02*
Y789148D01*
X-1085000Y789400D01*
Y792300D01*
X-1085600Y792900D01*
X-1089000D01*
X-1089700Y792200D01*
Y791200D01*
X-1090200Y790700D01*
X-1091600D01*
X-1092400Y791500D01*
Y793600D01*
X-1091050Y794950D01*
X-1084350D01*
X-1083500Y795800D01*
Y797500D01*
X-1083000Y798000D01*
X-1081925D01*
X-1081550Y797625D01*
Y794850D01*
X-1080500Y793800D01*
X-1075899D01*
X-1070399Y799300D01*
X-1068900D01*
X-1064900Y803300D01*
X-1058132D01*
X-1057632Y803800D01*
Y805100D01*
X-1057132Y805600D01*
X-1056132D01*
X-1055632Y805100D01*
Y803800D01*
X-1055132Y803300D01*
X-1049600D01*
X-1049100Y803800D01*
Y804800D01*
X-1049600Y805300D01*
X-1051215D01*
X-1051711Y805796D01*
Y806614D01*
X-1051211Y807114D01*
X-1046100D01*
X-1041200Y802214D01*
X-1033464D01*
X-1031696Y800446D01*
G01X-1086450Y726550D02*
X-1087600Y725400D01*
Y717400D01*
X-1086500Y716300D01*
X-1084450D01*
X-1082950Y714800D01*
G01X-1091650Y714750D02*
X-1090500Y715900D01*
Y724800D01*
X-1084500Y730800D01*
Y735200D01*
G01X-1025406Y754382D02*
X-1026396Y753392D01*
Y753304D01*
X-1026900Y752800D01*
Y751414D01*
X-1026818Y748832D01*
G02X-1027265Y747949I-1568J239D01*
G01X-1029102Y746497D01*
X-1030331Y745645D01*
X-1034729Y743400D01*
X-1036700D01*
X-1038700Y741400D01*
X-1042714D01*
X-1044100Y740014D01*
X-1058986D01*
X-1059050Y739950D01*
X-1059184D01*
X-1061850Y737284D01*
Y737216D01*
X-1066316Y732750D01*
X-1072750D01*
X-1077000Y737000D01*
X-1079900D01*
X-1081850Y738950D01*
Y745968D01*
X-1079820Y747998D01*
G01X-1084932Y748005D02*
X-1083942Y748995D01*
Y756858D01*
X-1082900Y757900D01*
X-1073600D01*
X-1073100Y757400D01*
Y755700D01*
X-1072500Y755100D01*
X-1071500D01*
X-1070900Y755700D01*
Y759800D01*
X-1070400Y760300D01*
X-1069100D01*
X-1068600Y759800D01*
Y758300D01*
X-1068100Y757800D01*
X-1066099D01*
X-1062649Y761250D01*
X-1056792D01*
X-1054328Y763714D01*
X-1050300D01*
X-1048402Y765612D01*
X-1039502D01*
X-1035900Y769214D01*
X-1030820D01*
X-1030100Y768494D01*
Y766220D01*
X-1031701Y764619D01*
G01X-1031691Y754104D02*
X-1033091D01*
X-1033500Y753695D01*
Y751614D01*
X-1032800Y750914D01*
Y750206D01*
X-1033192Y749814D01*
X-1033601D01*
X-1034499Y748916D01*
Y747814D01*
X-1035136Y747177D01*
X-1036238D01*
X-1036833Y746582D01*
X-1038368D01*
X-1039100Y747314D01*
X-1040268D01*
X-1041000Y746582D01*
X-1042132D01*
X-1045714Y743000D01*
X-1062500D01*
X-1068900Y736600D01*
Y734700D01*
X-1069300Y734300D01*
X-1070200D01*
X-1070600Y734700D01*
Y735900D01*
X-1071000Y736300D01*
X-1073912D01*
X-1074250Y736638D01*
Y737900D01*
X-1074750Y738400D01*
X-1079300D01*
X-1079992Y739092D01*
Y739800D01*
X-1079492Y740300D01*
X-1076500D01*
X-1076000Y740800D01*
Y741800D01*
X-1076400Y742200D01*
X-1080140D01*
X-1080640Y742700D01*
Y743760D01*
X-1079650Y744750D01*
G01X-1031900Y759514D02*
X-1033028D01*
X-1034428Y758114D01*
X-1037000D01*
X-1039300Y755814D01*
X-1045326D01*
X-1045928Y755212D01*
Y753686D01*
X-1046744Y752870D01*
Y752276D01*
X-1046038Y751570D01*
Y750976D01*
X-1046632Y750382D01*
X-1047226D01*
X-1047982Y751138D01*
X-1048576D01*
X-1049500Y750214D01*
X-1055013D01*
X-1055700Y750901D01*
Y752500D01*
X-1056200Y753000D01*
X-1057000D01*
X-1057500Y752500D01*
Y750900D01*
X-1058000Y750400D01*
X-1058800D01*
X-1059500Y751100D01*
Y752600D01*
X-1059864Y752964D01*
X-1061336D01*
X-1067700Y746600D01*
X-1073800D01*
X-1074500Y747300D01*
Y748226D01*
X-1076300Y750026D01*
Y750800D01*
X-1077100Y751600D01*
X-1081200D01*
X-1081700Y751100D01*
Y750252D01*
X-1081148Y749700D01*
X-1078963D01*
X-1077261Y747998D01*
G01X-1083900Y777100D02*
X-1086000Y775000D01*
Y773000D01*
X-1086400Y772600D01*
Y769546D01*
X-1085900Y769046D01*
X-1085000D01*
X-1084500Y768546D01*
Y767546D01*
X-1085000Y767046D01*
X-1085900D01*
X-1086400Y766546D01*
Y759900D01*
X-1085800Y759300D01*
X-1084199D01*
X-1083424Y760075D01*
Y764600D01*
X-1082924Y765100D01*
X-1082054D01*
X-1081554Y764600D01*
Y760038D01*
X-1081054Y759538D01*
X-1079362D01*
X-1078800Y760100D01*
Y764400D01*
X-1078200Y765000D01*
X-1076500D01*
X-1075937Y764437D01*
Y760270D01*
X-1075205Y759538D01*
X-1074169D01*
X-1074007Y759700D01*
X-1073700D01*
X-1073237Y760163D01*
Y764699D01*
X-1072736Y765200D01*
X-1070740D01*
X-1070240Y764700D01*
Y762300D01*
X-1069740Y761800D01*
X-1068740D01*
X-1068240Y762300D01*
Y763100D01*
X-1067740Y763600D01*
X-1066250D01*
X-1065750Y764100D01*
Y767500D01*
X-1065300Y767950D01*
X-1064350D01*
X-1063750Y767350D01*
Y764100D01*
X-1063250Y763600D01*
X-1062250D01*
X-1061750Y764100D01*
Y767500D01*
X-1061250Y768000D01*
X-1060250D01*
X-1059750Y767500D01*
Y764100D01*
X-1059250Y763600D01*
X-1056899D01*
X-1055135Y765364D01*
X-1051150D01*
X-1050600Y765914D01*
Y767314D01*
G01X-1031696Y797886D02*
X-1034572D01*
X-1035300Y798614D01*
X-1037250D01*
X-1037670Y799034D01*
Y800094D01*
X-1038090Y800514D01*
X-1038930D01*
X-1039350Y800094D01*
Y799034D01*
X-1039770Y798614D01*
X-1052100D01*
X-1052400Y798914D01*
Y801514D01*
X-1052850Y801964D01*
X-1054231D01*
X-1054651Y801544D01*
Y798620D01*
X-1055071Y798200D01*
X-1055911D01*
X-1056331Y798620D01*
Y801318D01*
X-1056977Y801964D01*
X-1060368D01*
X-1060788Y801544D01*
Y798820D01*
X-1061208Y798400D01*
X-1062048D01*
X-1062468Y798820D01*
Y801225D01*
X-1062968Y801725D01*
X-1064476D01*
X-1068100Y798101D01*
X-1069399D01*
X-1072900Y794600D01*
Y792000D01*
X-1074900Y790000D01*
X-1077900D01*
X-1078550Y789350D01*
Y787549D01*
X-1080649Y785450D01*
X-1082805D01*
X-1084000Y784255D01*
Y783150D01*
X-1085000Y782150D01*
X-1087901D01*
X-1088750Y782999D01*
Y784449D01*
X-1086199Y787000D01*
X-1084100D01*
X-1082700Y788400D01*
Y791600D01*
G01X-1085700Y796600D02*
Y799859D01*
X-1086200Y800359D01*
X-1087500D01*
X-1088000Y800859D01*
Y801859D01*
X-1087500Y802359D01*
X-1086200D01*
X-1085700Y802859D01*
Y803859D01*
X-1086200Y804359D01*
X-1087400D01*
X-1087900Y804859D01*
Y805859D01*
X-1087400Y806359D01*
X-1086200D01*
X-1085700Y806859D01*
Y809500D01*
X-1074186Y821014D01*
X-1045933D01*
G02X-1025222Y812435I0J-29289D01*
G01X-1024204Y811417D01*
G02X-1022257Y806717I-4699J-4700D01*
G01Y805565D01*
G01Y795328D02*
X-1020846Y796744D01*
G03X-1020700Y797097I-354J353D01*
G01Y799669D01*
X-1020607Y799762D01*
Y801130D01*
X-1021573Y802096D01*
X-1021626D01*
X-1023800Y804680D01*
Y804774D01*
X-1023907Y804881D01*
Y806249D01*
X-1023800Y806356D01*
Y808159D01*
X-1024112Y809026D01*
X-1026581Y811495D01*
G03X-1045940Y819514I-19359J-19358D01*
G01X-1073286D01*
X-1083940Y808860D01*
Y800740D01*
X-1082950Y799750D01*
G01X-1022257Y800446D02*
X-1023247Y801436D01*
X-1023435D01*
X-1023800Y801801D01*
Y802913D01*
X-1025200Y804313D01*
Y806100D01*
X-1026900Y807800D01*
Y809714D01*
X-1027400Y810214D01*
X-1029700D01*
X-1030300Y810814D01*
Y812334D01*
X-1030980Y813014D01*
X-1032862D01*
X-1033481Y813633D01*
Y814395D01*
X-1034100Y815014D01*
X-1036599D01*
X-1037699Y816114D01*
X-1040000D01*
X-1041100Y817214D01*
X-1041901D01*
X-1043415Y815700D01*
X-1044556D01*
X-1045057Y816201D01*
Y817394D01*
X-1045477Y817814D01*
X-1046317D01*
X-1047231Y816900D01*
X-1048186D01*
X-1049300Y818014D01*
X-1053326D01*
X-1054040Y817300D01*
X-1055326D01*
X-1056040Y818014D01*
X-1057326D01*
X-1058040Y817300D01*
X-1059326D01*
X-1060040Y818014D01*
X-1061326D01*
X-1062040Y817300D01*
X-1063326D01*
X-1064040Y818014D01*
X-1066263D01*
X-1066977Y817300D01*
X-1068163D01*
X-1068877Y818014D01*
X-1072486D01*
X-1080900Y809600D01*
Y802400D01*
X-1081100Y802200D01*
Y800800D01*
G01X-1079650Y744750D02*
Y744450D01*
G01X-1074600Y750660D02*
X-1073610Y751650D01*
X-1068300D01*
X-1066800Y753150D01*
Y755300D01*
X-1063988Y758112D01*
X-1049730D01*
X-1049028Y758814D01*
Y762372D01*
X-1047900Y763500D01*
X-1046100D01*
X-1045600Y763000D01*
Y761587D01*
X-1044822Y760809D01*
X-1043300D01*
X-1042600Y761509D01*
Y762900D01*
X-1042100Y763400D01*
X-1038916D01*
X-1038430Y762914D01*
X-1023112D01*
X-1022898Y762700D01*
X-1016900D01*
G01X-1072400Y748255D02*
X-1070245D01*
X-1068300Y750200D01*
X-1066200D01*
X-1060288Y756112D01*
X-1052114D01*
X-1051694Y755692D01*
Y753820D01*
X-1051274Y753400D01*
X-1050534D01*
X-1050014Y753920D01*
Y755692D01*
X-1049594Y756112D01*
X-1047030D01*
X-1045179Y757963D01*
X-1040048D01*
X-1039600Y758411D01*
Y760680D01*
X-1039180Y761100D01*
X-1032648D01*
X-1032584Y761164D01*
X-1031216D01*
X-1031202Y761150D01*
X-1024722D01*
X-1024672Y761100D01*
X-1023857D01*
X-1020757Y758000D01*
X-1016600D01*
G01X-1067400Y795000D02*
X-1067200D01*
X-1066750Y794550D01*
Y794216D01*
X-1065784Y793250D01*
X-1065450D01*
X-1063200Y791000D01*
Y788900D01*
X-1063700Y788400D01*
X-1065300D01*
X-1065700Y788800D01*
Y789600D01*
X-1066200Y790100D01*
X-1069300D01*
X-1070400Y789000D01*
Y786349D01*
X-1071949Y784800D01*
X-1073400D01*
X-1074100Y785500D01*
Y786300D01*
X-1074600Y786800D01*
X-1076000D01*
X-1076500Y787300D01*
Y788200D01*
X-1076000Y788700D01*
X-1074000D01*
X-1071300Y791400D01*
Y794100D01*
X-1068400Y797000D01*
X-1067100D01*
X-1066400Y797700D01*
X-1063800D01*
X-1063086Y796986D01*
X-1052145D01*
X-1051645Y796486D01*
Y795000D01*
X-1051145Y794500D01*
X-1050145D01*
X-1049645Y795000D01*
Y796486D01*
X-1049145Y796986D01*
X-1033354D01*
X-1031696Y795328D01*
G01X-1077271Y796630D02*
X-1079400Y798759D01*
Y804798D01*
X-1079000Y805198D01*
Y806898D01*
X-1079400Y807298D01*
Y808851D01*
X-1078401Y809850D01*
X-1076350D01*
X-1075300Y810900D01*
Y813100D01*
X-1072550Y815850D01*
X-1049350D01*
X-1047378Y813878D01*
X-1040069D01*
X-1039614Y814333D01*
X-1039020D01*
X-1038426Y813739D01*
Y813145D01*
X-1038881Y812690D01*
Y812096D01*
X-1038287Y811502D01*
X-1037693D01*
X-1036588Y812607D01*
X-1035894D01*
X-1035350Y812063D01*
Y811469D01*
X-1036548Y810271D01*
Y809563D01*
X-1035999Y809014D01*
X-1033946D01*
X-1033526Y809434D01*
Y810994D01*
X-1033106Y811414D01*
X-1032266D01*
X-1031846Y810994D01*
Y809490D01*
X-1031370Y809014D01*
X-1030200D01*
X-1029700Y808514D01*
Y807864D01*
X-1029199Y807363D01*
X-1028150D01*
X-1027000Y806213D01*
Y803914D01*
X-1025309Y802223D01*
Y800525D01*
G01X-1022257Y790209D02*
Y787857D01*
X-1021500Y787100D01*
X-1017100D01*
X-1016100Y788100D01*
Y792100D01*
X-1017600Y793600D01*
X-1028801D01*
X-1030046Y794845D01*
Y797968D01*
X-1029700Y798314D01*
Y800800D01*
X-1032714Y803814D01*
X-1040900D01*
X-1045486Y808400D01*
X-1052400D01*
X-1053686Y807114D01*
X-1063386D01*
X-1067150Y803350D01*
X-1069150D01*
X-1070900Y801600D01*
Y800667D01*
X-1076587Y794980D01*
X-1078339D01*
X-1079900Y796541D01*
G01X-1067000Y734400D02*
Y736400D01*
X-1065586Y737814D01*
X-1064878D01*
X-1064386Y737322D01*
X-1063678D01*
X-1062971Y738029D01*
Y738737D01*
X-1063463Y739229D01*
Y739937D01*
X-1061786Y741614D01*
X-1044700D01*
X-1042514Y743800D01*
X-1041586D01*
X-1040808Y743022D01*
X-1040100D01*
X-1039600Y743522D01*
Y744814D01*
X-1039200Y745214D01*
X-1035000D01*
X-1034500Y745714D01*
X-1033800D01*
X-1033400Y746114D01*
Y746914D01*
X-1032900Y747414D01*
X-1031800D01*
X-1031700Y747314D01*
X-1030501D01*
X-1030000Y747815D01*
Y749214D01*
X-1029746Y749468D01*
Y750176D01*
X-1030084Y750514D01*
Y751323D01*
X-1029584Y751823D01*
X-1028556D01*
G01X-1060200Y736600D02*
X-1057468D01*
X-1057418Y736650D01*
X-1056382D01*
X-1056332Y736600D01*
X-1055998D01*
X-1054698Y735300D01*
X-1053798D01*
X-1052502Y736596D01*
X-1051294D01*
X-1049898Y735200D01*
X-1048998D01*
X-1047598Y736600D01*
X-1043009D01*
X-1041880Y737108D01*
G03X-1024747Y746195I-6239J32458D01*
G01X-1020142Y750800D01*
X-1017336D01*
G01X-1025250Y751845D02*
X-1024260Y752835D01*
Y752970D01*
X-1023900Y753330D01*
Y755800D01*
X-1023100Y756600D01*
X-1020700D01*
X-1020000Y755900D01*
Y753200D01*
X-1025407Y747793D01*
Y747761D01*
X-1026147Y747021D01*
G02X-1026214Y746965I-356J358D01*
G01X-1032372Y742642D01*
X-1033300Y741714D01*
X-1035800D01*
X-1037700Y739814D01*
X-1041400D01*
X-1042914Y738300D01*
X-1058500D01*
G01X-1064600Y781300D02*
Y776300D01*
X-1063000Y774700D01*
X-1057400D01*
X-1055600Y776500D01*
Y778200D01*
X-1054900Y778900D01*
X-1051748D01*
X-1051484Y779164D01*
X-1050116D01*
X-1049852Y778900D01*
X-1021700D01*
X-1020550Y777750D01*
Y768831D01*
X-1018797Y767078D01*
G01X-1031701Y790209D02*
X-1030200Y788708D01*
Y785700D01*
X-1029100Y784600D01*
X-1027700D01*
X-1026900Y785400D01*
Y791200D01*
X-1027500Y791800D01*
X-1029200D01*
X-1031078Y793678D01*
X-1033622D01*
X-1034122Y793178D01*
Y792000D01*
X-1034622Y791500D01*
X-1035622D01*
X-1036122Y792000D01*
Y793200D01*
X-1036622Y793700D01*
X-1039000D01*
X-1039699Y793001D01*
Y791601D01*
X-1042099Y789201D01*
X-1042999D01*
X-1043499Y789701D01*
Y790718D01*
X-1043999Y791218D01*
X-1044999D01*
X-1045499Y790718D01*
Y789701D01*
X-1045999Y789201D01*
X-1046999D01*
X-1047499Y789701D01*
Y790718D01*
X-1047999Y791218D01*
X-1048999D01*
X-1049499Y790718D01*
Y789701D01*
X-1049999Y789201D01*
X-1050999D01*
X-1051499Y789701D01*
Y790718D01*
X-1051999Y791218D01*
X-1052999D01*
X-1053499Y790718D01*
Y789701D01*
X-1053999Y789201D01*
X-1054999D01*
X-1055499Y789701D01*
Y790718D01*
X-1055999Y791218D01*
X-1056999D01*
X-1057499Y790718D01*
Y789701D01*
X-1057999Y789201D01*
X-1059401D01*
X-1059800Y789600D01*
Y792600D01*
X-1060400Y793200D01*
X-1063400D01*
X-1065100Y794900D01*
G01X-987400Y724000D02*
X-999600Y711800D01*
X-1053200D01*
X-1055600Y714200D01*
G01X-1049300Y710400D02*
X-1048000D01*
X-1047600Y710800D01*
X-998200D01*
X-994000Y706600D01*
G01X-1032700Y863000D02*
X-1050896D01*
X-1053429Y860467D01*
G01X-1030300Y705200D02*
X-1029100Y706400D01*
X-1027190D01*
X-1026690Y705900D01*
Y704100D01*
X-1026190Y703600D01*
X-1025290D01*
X-1024690Y704200D01*
Y706400D01*
X-1024190Y706900D01*
X-1023190D01*
X-1022690Y706400D01*
Y704100D01*
X-1022190Y703600D01*
X-1021290D01*
X-1020690Y704200D01*
Y706400D01*
X-1020190Y706900D01*
X-1017983D01*
X-1017483Y706400D01*
Y703800D01*
X-1016983Y703300D01*
X-1015983D01*
X-1015483Y703800D01*
Y706400D01*
X-1014983Y706900D01*
X-1013983D01*
X-1013483Y706400D01*
Y703800D01*
X-1012983Y703300D01*
X-1011983D01*
X-1011483Y703800D01*
Y706400D01*
X-1010983Y706900D01*
X-1009983D01*
X-1009483Y706400D01*
Y703800D01*
X-1008983Y703300D01*
X-1007983D01*
X-1007483Y703800D01*
Y706400D01*
X-1006983Y706900D01*
X-1005983D01*
X-1005483Y706400D01*
Y703800D01*
X-1004983Y703300D01*
X-1003983D01*
X-1003483Y703800D01*
Y705900D01*
X-1002983Y706400D01*
X-1000800D01*
G01X-1029600Y715000D02*
X-998400D01*
X-988200Y725200D01*
Y733600D01*
X-977800Y744000D01*
Y755700D01*
X-972500Y761000D01*
G01X-1027200Y716700D02*
X-997973D01*
X-989250Y725423D01*
Y734450D01*
X-978800Y744900D01*
Y758600D01*
X-972500Y764900D01*
G01X-954580Y664307D02*
G03I-5200J0D01*
G01Y857220D02*
G03I-5200J0D01*
G01Y913220D02*
G03I-5200J0D01*
G01X-957811Y650528D02*
G03X-946000Y662339I0J11811D01*
G01Y915189D02*
G03X-957811Y927000I-11811J0D01*
G01X-946000Y662339D02*
Y915189D01*
G54D13*
X-1215600Y683500D03*
X-1213222Y694800D03*
X-1209500Y698400D03*
X-1214200Y705200D03*
X-1214000Y700700D03*
X-1214300Y707900D03*
X-1200600Y677700D03*
X-1202300Y693700D03*
X-1202200Y691495D03*
X-1198727Y712327D03*
X-1175300Y701100D03*
X-1175500Y698400D03*
X-1178300Y869200D03*
X-1176700D03*
X-1178300Y870900D03*
X-1176600D03*
X-1168100Y681700D03*
X-1172500Y677700D03*
X-1151500Y815100D03*
X-1152200Y853800D03*
X-1116700Y665600D03*
X-1114600Y661600D03*
X-1103750Y710100D03*
X-1106950Y709750D03*
Y714750D03*
X-1103750D03*
X-1106664Y723200D03*
X-1094600Y707600D03*
X-1094550Y714800D03*
Y709850D03*
X-1097360Y714760D03*
X-1100541Y714741D03*
X-1103208Y723004D03*
X-1100500Y722600D03*
X-1097550Y722450D03*
X-1088650Y710050D03*
X-1082950D03*
X-1085850D03*
X-1082950Y714800D03*
X-1091650Y714750D03*
Y709950D03*
X-1077350Y710150D03*
X-1074460Y710140D03*
X-1071750Y710150D03*
X-1080050D03*
X-1068750D03*
X-1072400Y748255D03*
X-1064600Y698500D03*
X-1063200Y697000D03*
X-1066100Y696900D03*
X-1047850Y713350D03*
X-1055600Y714200D03*
X-1049300Y710400D03*
X-1053429Y860467D03*
X-1033400Y720100D03*
X-1030300Y705200D03*
X-1029600Y715000D03*
X-1027200Y716700D03*
X-1018500Y733200D03*
X-1020000Y732800D03*
X-1001850Y692750D03*
X-1008400Y694800D03*
X-1000100Y697100D03*
X-1000800Y706400D03*
X-1002900Y697100D03*
X-1007140Y724260D03*
X-994000Y706600D03*
X-997200Y719700D03*
X-995900Y720800D03*
X-987400Y724000D03*
X-988205Y765595D03*
X-992450Y765600D03*
X-992400Y809400D03*
X-992100Y811700D03*
X-991600Y813800D03*
X-991300Y871300D03*
X-986350Y764000D03*
X-972500Y761000D03*
Y764900D03*
G54D23*
G01X-1280646Y662339D02*
Y915189D01*
G02X-1268835Y927000I11811J0D01*
G01X-957811D01*
G02X-946000Y915189I0J-11811D01*
G01Y662339D01*
G02X-957811Y650528I-11811J0D01*
G01X-1268835D01*
G02X-1280646Y662339I0J11811D01*
G54D14*
X-1211700Y709900D03*
X-1207400Y739666D03*
X-1204785Y736183D03*
X-1207400Y742600D03*
X-1204785Y739117D03*
X-1199393Y748145D03*
X-1199750Y779250D03*
X-1207607Y812558D03*
Y815492D03*
X-1200017Y830633D03*
X-1197083D03*
X-1202481Y839536D03*
Y836602D03*
X-1189944Y750704D03*
X-1192900Y763600D03*
X-1196250D03*
X-1189949Y776295D03*
X-1175105Y677705D03*
X-1177264Y716643D03*
X-1174196Y740368D03*
Y748145D03*
X-1174401Y745544D03*
X-1174201Y753263D03*
X-1174200Y771200D03*
X-1177350D03*
X-1174100Y773700D03*
X-1174196Y778855D03*
X-1174266Y855267D03*
X-1166600Y677600D03*
X-1165565Y731150D03*
X-1171046Y740369D03*
X-1171051Y745586D03*
X-1171046Y748146D03*
X-1164757Y748145D03*
Y778855D03*
X-1171046Y778854D03*
Y781314D03*
X-1164757D03*
X-1171332Y855267D03*
X-1151000Y725500D03*
X-1154829Y785359D03*
X-1152448Y785312D03*
X-1141238Y730083D03*
X-1148000Y725400D03*
X-1141239Y735202D03*
X-1146357Y732643D03*
X-1143798Y735202D03*
X-1138679Y740321D03*
X-1143798Y737761D03*
X-1146357Y753116D03*
X-1143798D03*
X-1146357Y765912D03*
X-1148916D03*
X-1138680Y778706D03*
X-1143424Y812781D03*
X-1139329Y822259D03*
X-1143424Y815929D03*
X-1133574Y735228D03*
X-1133561Y735202D03*
X-1138180Y775647D03*
X-1136127Y781259D03*
X-1136181Y822259D03*
X-1134719Y819559D03*
X-1131571D03*
X-1115468Y799000D03*
X-1115549Y791600D03*
X-1115554Y794155D03*
X-1120600Y804132D03*
X-1109200Y707600D03*
X-1110529Y737761D03*
X-1110600Y735273D03*
X-1110529Y740320D03*
X-1112890Y791700D03*
X-1113000Y794150D03*
X-1110500Y798300D03*
X-1097400Y728000D03*
X-1095175Y740320D03*
X-1092616D03*
Y737761D03*
Y745439D03*
X-1095175Y742879D03*
X-1086450Y726550D03*
X-1083503Y741603D03*
X-1087498Y737761D03*
X-1084500Y735200D03*
X-1090100Y732700D03*
X-1084932Y748005D03*
X-1082100Y768200D03*
X-1083900Y777100D03*
X-1084748Y788752D03*
X-1082700Y791600D03*
X-1081100Y800800D03*
X-1085700Y796600D03*
X-1082950Y799750D03*
X-1075102Y744939D03*
X-1079650Y744750D03*
X-1072700Y744800D03*
X-1074600Y750660D03*
X-1077261Y747998D03*
X-1079820D03*
X-1073000Y771700D03*
X-1075700Y772300D03*
X-1077271Y796630D03*
X-1074823Y799300D03*
X-1079900Y796541D03*
X-1077482Y799400D03*
X-1067000Y734400D03*
X-1060200Y736600D03*
X-1058500Y738300D03*
X-1064600Y781300D03*
X-1067400Y795000D03*
X-1065100Y794900D03*
X-1050800Y777514D03*
X-1050600Y767314D03*
X-1034846Y782532D03*
X-1036200Y875300D03*
X-1034700Y873300D03*
X-1031691Y754104D03*
X-1028556Y751823D03*
X-1025250Y751845D03*
X-1025406Y754382D03*
Y756941D03*
X-1031701Y764619D03*
X-1025406Y759500D03*
X-1031900Y759514D03*
X-1031696Y782532D03*
X-1025309Y800525D03*
X-1031696Y797886D03*
Y800446D03*
X-1022257D03*
Y795328D03*
X-1031696D03*
X-1031701Y790209D03*
X-1025406Y795328D03*
X-1022257Y790209D03*
X-1025406Y797887D03*
X-1022257Y805565D03*
X-1030400Y863700D03*
X-1032700Y863000D03*
Y875600D03*
Y873600D03*
X-1032600Y871600D03*
X-1030400Y875500D03*
Y873500D03*
Y871600D03*
X-1017336Y750800D03*
X-1016900Y762700D03*
X-1016600Y758000D03*
X-1018797Y767078D03*
X-1011400Y876800D03*
X-1006500Y876900D03*
X-994100Y857700D03*
X-994000Y862700D03*
X-983800Y884100D03*
Y885900D03*
X-982100D03*
Y884200D03*
X-973805Y776455D03*
Y773307D03*
X-973505Y788266D03*
Y785118D03*
X-973805Y800077D03*
Y796929D03*
X-973700Y876000D03*
Y877800D03*
Y879500D03*
X-972200Y878600D03*
Y876800D03*
Y875100D03*
X-963100Y826500D03*
X-961100D03*
X-961000Y828500D03*
X-962900Y828600D03*
G54D24*
G01X-1148916Y765912D02*
X-1148300Y766528D01*
Y769225D01*
X-1146390Y771135D01*
Y772913D01*
X-1147115Y773638D01*
X-1147398D01*
X-1147860Y774100D01*
X-1154074D01*
X-1155790Y772384D01*
Y770959D01*
X-1155810Y770939D01*
Y770417D01*
X-1155370Y769977D01*
X-1154195D01*
X-1153000Y768782D01*
Y766454D01*
X-1154195Y765259D01*
X-1164205D01*
X-1165400Y766454D01*
Y768301D01*
X-1166499Y769400D01*
X-1170029D01*
X-1171310Y768119D01*
Y766356D01*
X-1172846Y764820D01*
X-1177206D01*
X-1177226Y764800D01*
X-1181905D01*
X-1183100Y765995D01*
Y767729D01*
X-1182634Y768195D01*
X-1182633D01*
X-1181839Y768989D01*
X-1177030D01*
X-1176590Y769429D01*
Y770440D01*
X-1177350Y771200D01*
G01X-1146357Y765912D02*
X-1146088D01*
X-1145700Y766300D01*
Y767400D01*
X-1146000Y767700D01*
X-1146300D01*
X-1146700Y768100D01*
Y769000D01*
X-1145100Y770600D01*
Y773448D01*
X-1146580Y774928D01*
X-1146863D01*
X-1147325Y775390D01*
X-1154609D01*
X-1157080Y772919D01*
Y771494D01*
X-1157100Y771474D01*
Y769882D01*
X-1155905Y768687D01*
X-1154730D01*
X-1154290Y768247D01*
Y766989D01*
X-1154730Y766549D01*
X-1163670D01*
X-1164110Y766989D01*
Y768836D01*
X-1165964Y770690D01*
X-1170564D01*
X-1172600Y768654D01*
Y766891D01*
X-1173381Y766110D01*
X-1177741D01*
X-1177761Y766090D01*
X-1181370D01*
X-1181810Y766530D01*
Y767193D01*
X-1181304Y767699D01*
X-1176495D01*
X-1175300Y768894D01*
Y770100D01*
X-1174200Y771200D01*
G01X-1141239Y735202D02*
X-1142926Y733515D01*
X-1144616D01*
X-1146011Y734910D01*
X-1148035D01*
X-1149690Y736565D01*
Y737865D01*
X-1152090Y740265D01*
Y743365D01*
X-1152533Y743808D01*
X-1153153D01*
X-1153910Y743051D01*
Y736895D01*
X-1155105Y735700D01*
X-1158157D01*
X-1159352Y736895D01*
Y742527D01*
X-1159795Y742970D01*
X-1161751D01*
X-1162192Y742529D01*
Y741195D01*
X-1163587Y739800D01*
X-1165598D01*
X-1166993Y741195D01*
Y742468D01*
X-1167435Y742910D01*
X-1169410D01*
X-1170721Y744221D01*
Y745183D01*
X-1170890Y745352D01*
Y745425D01*
X-1171051Y745586D01*
G01X-1143798Y735202D02*
Y735760D01*
X-1144238Y736200D01*
X-1147500D01*
X-1148400Y737100D01*
Y739200D01*
X-1149200Y740000D01*
X-1150000D01*
X-1150800Y740800D01*
Y743900D01*
X-1151998Y745098D01*
X-1153688D01*
X-1155200Y743586D01*
Y737430D01*
X-1155640Y736990D01*
X-1157622D01*
X-1158062Y737430D01*
Y743062D01*
X-1159260Y744260D01*
X-1162286D01*
X-1163482Y743064D01*
Y741730D01*
X-1164122Y741090D01*
X-1165063D01*
X-1165703Y741730D01*
Y743003D01*
X-1166900Y744200D01*
X-1168875D01*
X-1169431Y744756D01*
Y746069D01*
X-1169200Y746300D01*
Y747670D01*
X-1169676Y748146D01*
X-1171046D01*
G01X-1154829Y785359D02*
X-1154359Y784889D01*
Y783830D01*
X-1154799Y783390D01*
X-1158839D01*
X-1161500Y786051D01*
Y787701D01*
X-1160901Y788300D01*
X-1160728D01*
X-1160692Y788336D01*
X-1155259D01*
X-1154000Y789595D01*
Y792325D01*
X-1155295Y793620D01*
X-1159854D01*
X-1160349Y793125D01*
X-1161361D01*
X-1161426Y793190D01*
X-1161489D01*
X-1162460Y794161D01*
X-1167240D01*
X-1169100Y792301D01*
Y786052D01*
X-1169852Y785300D01*
X-1171426D01*
X-1172700Y784026D01*
Y780508D01*
X-1171046Y778854D01*
G01X-1152448Y785312D02*
X-1153069Y784691D01*
Y783295D01*
X-1154264Y782100D01*
X-1159374D01*
X-1162790Y785516D01*
Y788236D01*
X-1161436Y789590D01*
X-1161263D01*
X-1161227Y789626D01*
X-1155794D01*
X-1155290Y790130D01*
Y791790D01*
X-1155830Y792330D01*
X-1159319D01*
X-1159814Y791835D01*
X-1161896D01*
X-1161961Y791900D01*
X-1162024D01*
X-1162995Y792871D01*
X-1166705D01*
X-1167810Y791766D01*
Y789344D01*
X-1167370Y788904D01*
X-1166740D01*
X-1166300Y788464D01*
Y787584D01*
X-1166740Y787144D01*
X-1167370D01*
X-1167810Y786704D01*
Y785517D01*
X-1169317Y784010D01*
X-1170891D01*
X-1171410Y783491D01*
Y781678D01*
X-1171046Y781314D01*
G01X-1139329Y822259D02*
X-1138400Y823188D01*
Y832925D01*
X-1121715Y849610D01*
X-1109059D01*
X-1108939Y849490D01*
X-1106435D01*
X-1098473Y857452D01*
X-997851D01*
X-971810Y831411D01*
Y809765D01*
X-976610Y804965D01*
Y799735D01*
X-975993Y799118D01*
X-974764D01*
X-973805Y800077D01*
G01X-1143424Y812781D02*
X-1142538Y813667D01*
X-1126433D01*
X-1097800Y842300D01*
X-1071600D01*
X-1070790Y843110D01*
X-1067216D01*
X-1067206Y843120D01*
X-1064094D01*
X-1063794Y842820D01*
X-1029494D01*
X-1029484Y842810D01*
X-999810D01*
X-986300Y829300D01*
Y791776D01*
X-980311Y785787D01*
Y785165D01*
X-980627Y784849D01*
Y784227D01*
X-980054Y783654D01*
X-979332D01*
X-979066Y783920D01*
X-978444D01*
X-977821Y783297D01*
Y782675D01*
X-978187Y782309D01*
Y781687D01*
X-977564Y781064D01*
X-976942D01*
X-976576Y781430D01*
X-975954D01*
X-971700Y777176D01*
Y776030D01*
X-972140Y775590D01*
X-972940D01*
X-973805Y776455D01*
G01X-1143424Y815929D02*
X-1142452Y814957D01*
X-1126968D01*
X-1098335Y843590D01*
X-1072135D01*
X-1071325Y844400D01*
X-1067751D01*
X-1067741Y844410D01*
X-1063559D01*
X-1063259Y844110D01*
X-1028959D01*
X-1028949Y844100D01*
X-999275D01*
X-985010Y829835D01*
Y792311D01*
X-970410Y777711D01*
Y775495D01*
X-971605Y774300D01*
X-972812D01*
X-973805Y773307D01*
G01X-1136181Y822259D02*
X-1137110Y823188D01*
Y832390D01*
X-1121180Y848320D01*
X-1109594D01*
X-1109474Y848200D01*
X-1105900D01*
X-1097938Y856162D01*
X-998386D01*
X-973100Y830876D01*
Y826627D01*
X-973540Y826187D01*
X-974460D01*
X-974900Y825747D01*
Y824867D01*
X-974460Y824427D01*
X-973540D01*
X-973100Y823987D01*
Y823107D01*
X-973540Y822667D01*
X-974460D01*
X-974900Y822227D01*
Y821347D01*
X-974460Y820907D01*
X-973540D01*
X-973100Y820467D01*
Y810300D01*
X-977900Y805500D01*
Y799200D01*
X-976528Y797828D01*
X-974704D01*
X-973805Y796929D01*
G01X-1134719Y819559D02*
X-1133590Y820688D01*
Y827635D01*
X-1120660Y840565D01*
Y840591D01*
X-1119191Y842060D01*
X-1119165D01*
X-1115835Y845390D01*
X-1110761D01*
X-1110741Y845410D01*
X-1104815D01*
X-1100825Y849400D01*
X-1071975D01*
X-1070875Y848300D01*
X-1060951D01*
X-1060841Y848410D01*
X-1058759D01*
X-1058459Y848110D01*
X-1013083D01*
X-1012643Y848550D01*
Y850405D01*
X-1011448Y851600D01*
X-1009498D01*
X-1008303Y850405D01*
Y848820D01*
X-1007863Y848380D01*
X-1006983D01*
X-1006543Y848820D01*
Y850405D01*
X-1005348Y851600D01*
X-1003398D01*
X-1002203Y850405D01*
Y848820D01*
X-1001763Y848380D01*
X-997255D01*
X-981534Y832659D01*
Y796358D01*
X-979966Y794790D01*
X-975865D01*
X-974190Y793115D01*
Y790942D01*
X-975554Y789578D01*
Y787779D01*
X-975112Y787337D01*
X-974434D01*
X-973505Y788266D01*
G01X-1131571Y819559D02*
X-1132300Y820288D01*
Y822137D01*
X-1131860Y822577D01*
X-1131140D01*
X-1130700Y823017D01*
Y823897D01*
X-1131140Y824337D01*
X-1131860D01*
X-1132300Y824777D01*
Y827100D01*
X-1130480Y828920D01*
X-1129858D01*
X-1129130Y828192D01*
X-1128508D01*
X-1127885Y828815D01*
Y829437D01*
X-1128563Y830115D01*
Y830837D01*
X-1119370Y840030D01*
Y840056D01*
X-1118656Y840770D01*
X-1118630D01*
X-1115300Y844100D01*
X-1110226D01*
X-1110206Y844120D01*
X-1104280D01*
X-1100290Y848110D01*
X-1072510D01*
X-1071410Y847010D01*
X-1060416D01*
X-1060306Y847120D01*
X-1059294D01*
X-1058994Y846820D01*
X-1012548D01*
X-1011353Y848015D01*
Y849870D01*
X-1010913Y850310D01*
X-1010033D01*
X-1009593Y849870D01*
Y848285D01*
X-1008398Y847090D01*
X-1006448D01*
X-1005253Y848285D01*
Y849870D01*
X-1004813Y850310D01*
X-1003933D01*
X-1003493Y849870D01*
Y848285D01*
X-1002298Y847090D01*
X-997790D01*
X-982824Y832124D01*
Y795823D01*
X-980501Y793500D01*
X-976400D01*
X-975480Y792580D01*
Y791477D01*
X-976844Y790113D01*
Y787244D01*
X-975647Y786047D01*
X-974434D01*
X-973505Y785118D01*
G01X-1073000Y771700D02*
X-1073402Y772102D01*
X-1073472Y772721D01*
X-1072936Y773574D01*
Y775107D01*
X-1074229Y776400D01*
X-1077574D01*
X-1079194Y774780D01*
X-1080380D01*
X-1080910Y775310D01*
Y778060D01*
X-1080470Y778500D01*
X-1073826D01*
X-1073306Y779020D01*
X-1073255D01*
X-1069420Y782855D01*
X-1067045D01*
X-1065690Y784210D01*
X-1063336D01*
X-1062800Y783674D01*
Y777711D01*
X-1061605Y776516D01*
X-1059778D01*
X-1058283Y778011D01*
Y784770D01*
X-1057843Y785210D01*
X-1053263D01*
X-1052823Y784770D01*
Y782322D01*
X-1051501Y781000D01*
X-1048775D01*
X-1047175Y782600D01*
X-1046200D01*
X-1045760Y782160D01*
Y781740D01*
X-1045320Y781300D01*
X-1044440D01*
X-1044000Y781740D01*
Y782160D01*
X-1043560Y782600D01*
X-1042680D01*
X-1042240Y782160D01*
Y781740D01*
X-1041800Y781300D01*
X-1040920D01*
X-1040480Y781740D01*
Y782160D01*
X-1040040Y782600D01*
X-1039200D01*
X-1036690Y785110D01*
X-1034140D01*
X-1033700Y784670D01*
Y783678D01*
X-1034846Y782532D01*
G01X-1075700Y772300D02*
X-1075595D01*
X-1074697Y773198D01*
X-1074226Y773947D01*
Y774572D01*
X-1074764Y775110D01*
X-1077039D01*
X-1078659Y773490D01*
X-1080915D01*
X-1082200Y774775D01*
Y778595D01*
X-1081005Y779790D01*
X-1074361D01*
X-1073841Y780310D01*
X-1073790D01*
X-1069955Y784145D01*
X-1067580D01*
X-1066225Y785500D01*
X-1062801D01*
X-1061510Y784209D01*
Y778246D01*
X-1061070Y777806D01*
X-1060313D01*
X-1059573Y778546D01*
Y785305D01*
X-1058378Y786500D01*
X-1052728D01*
X-1051533Y785305D01*
Y782857D01*
X-1050966Y782290D01*
X-1049310D01*
X-1047710Y783890D01*
X-1039735D01*
X-1037225Y786400D01*
X-1033605D01*
X-1032410Y785205D01*
Y783246D01*
X-1031696Y782532D01*
G01X-1075102Y744939D02*
Y743569D01*
X-1074800Y743267D01*
Y741305D01*
X-1074219Y740724D01*
X-1072654Y739310D01*
X-1069090D01*
X-1062800Y745600D01*
Y747700D01*
X-1062200Y748300D01*
X-1060524D01*
X-1059884Y747660D01*
Y745602D01*
X-1058686Y744404D01*
X-1056594D01*
X-1055399Y745599D01*
Y746870D01*
X-1054959Y747310D01*
X-1053840D01*
X-1053400Y746870D01*
Y746100D01*
X-1052095Y744795D01*
X-1047294D01*
X-1043065Y749024D01*
X-1036865D01*
X-1035310Y750579D01*
Y753979D01*
X-1033565Y755724D01*
X-1027365D01*
X-1027117Y755972D01*
X-1026375D01*
X-1025406Y756941D01*
G01Y759500D02*
X-1026706Y758200D01*
X-1026714D01*
X-1027900Y757014D01*
X-1028964D01*
X-1029355Y757405D01*
Y758023D01*
X-1029746Y758414D01*
X-1030528D01*
X-1030919Y758023D01*
Y757405D01*
X-1031310Y757014D01*
X-1034100D01*
X-1036600Y754514D01*
Y751114D01*
X-1037400Y750314D01*
X-1043600D01*
X-1047829Y746085D01*
X-1051560D01*
X-1052110Y746635D01*
Y747405D01*
X-1053305Y748600D01*
X-1055494D01*
X-1056689Y747405D01*
Y746134D01*
X-1057129Y745694D01*
X-1058151D01*
X-1058594Y746137D01*
Y748195D01*
X-1059989Y749590D01*
X-1062735D01*
X-1064090Y748235D01*
Y746135D01*
X-1069625Y740600D01*
X-1072157D01*
X-1073300Y741633D01*
Y742830D01*
X-1072700Y743430D01*
Y744800D01*
G01X-1074823Y799300D02*
X-1075600Y800077D01*
Y801600D01*
X-1073100Y804100D01*
X-1071300D01*
X-1070301Y805099D01*
X-1067795D01*
X-1066600Y806294D01*
Y808205D01*
X-1067795Y809400D01*
X-1069100D01*
X-1069941Y810241D01*
Y811159D01*
X-1069500Y811600D01*
X-1065834D01*
X-1065200Y810966D01*
Y810295D01*
X-1064005Y809100D01*
X-1061696D01*
X-1060501Y810295D01*
Y812370D01*
X-1060061Y812810D01*
X-1058930D01*
X-1058490Y812370D01*
Y810295D01*
X-1057295Y809100D01*
X-1055308D01*
X-1054113Y810295D01*
Y812470D01*
X-1053673Y812910D01*
X-1052530D01*
X-1052090Y812470D01*
Y811405D01*
X-1050895Y810210D01*
X-1041921D01*
X-1040690Y808979D01*
Y807267D01*
X-1039247Y805824D01*
X-1032811D01*
X-1028219Y801232D01*
Y798875D01*
X-1027026Y797682D01*
Y797215D01*
X-1026900Y797089D01*
Y796313D01*
X-1025915Y795328D01*
X-1025406D01*
G01Y797887D02*
X-1026929Y799410D01*
Y801767D01*
X-1032276Y807114D01*
X-1038712D01*
X-1039400Y807802D01*
Y809514D01*
X-1041386Y811500D01*
X-1050360D01*
X-1050800Y811940D01*
Y813005D01*
X-1051995Y814200D01*
X-1054208D01*
X-1055403Y813005D01*
Y810830D01*
X-1055843Y810390D01*
X-1056760D01*
X-1057200Y810830D01*
Y812905D01*
X-1058395Y814100D01*
X-1060596D01*
X-1061791Y812905D01*
Y810830D01*
X-1062231Y810390D01*
X-1063470D01*
X-1063910Y810830D01*
Y811501D01*
X-1065299Y812890D01*
X-1070035D01*
X-1071231Y811694D01*
Y809706D01*
X-1069635Y808110D01*
X-1068330D01*
X-1067890Y807670D01*
Y806829D01*
X-1068330Y806389D01*
X-1070836D01*
X-1071835Y805390D01*
X-1073635D01*
X-1076890Y802135D01*
Y799992D01*
X-1077482Y799400D01*
G54D15*
X-1168953Y659307D03*
Y669307D03*
X-1158953Y659307D03*
X-1148953D03*
X-1158953Y669307D03*
X-1148953D03*
X-1138953Y659307D03*
Y669307D03*
X-1128953Y659307D03*
Y669307D03*
X-1118953Y659307D03*
Y669307D03*
X-1108953Y659307D03*
Y669307D03*
X-1098953Y659307D03*
Y669307D03*
X-1088953Y659307D03*
X-1078953D03*
X-1088953Y669307D03*
X-1078953D03*
X-1068953Y659307D03*
Y669307D03*
X-1058953Y659307D03*
Y669307D03*
X-1048953Y659307D03*
Y669307D03*
X-1038953Y659307D03*
Y669307D03*
X-1028953Y659307D03*
Y669307D03*
X-1018953Y659307D03*
X-1008953D03*
X-1018953Y669307D03*
X-1008953D03*
X-998953Y659307D03*
Y669307D03*
X-988953Y659307D03*
Y669307D03*
X-978953Y659307D03*
Y669307D03*
G54D25*
G01X-1200017Y830633D02*
X-1199200Y829816D01*
Y808900D01*
X-1211785Y796315D01*
Y742545D01*
X-1209810Y740570D01*
X-1208248D01*
X-1207400Y739722D01*
Y739666D01*
G01X-1197083Y830633D02*
X-1197970Y829746D01*
Y808390D01*
X-1210555Y795805D01*
Y743055D01*
X-1209300Y741800D01*
X-1208200D01*
X-1207400Y742600D01*
G01X-1204785Y736183D02*
X-1204517D01*
X-1203700Y737000D01*
X-1202800D01*
X-1201370Y738430D01*
Y749310D01*
X-1203470Y751410D01*
Y753910D01*
X-1206900Y757340D01*
Y757410D01*
X-1206965Y757475D01*
Y758525D01*
X-1206900Y758590D01*
Y792460D01*
X-1193470Y805890D01*
Y832670D01*
X-1199484Y838684D01*
X-1201629D01*
X-1202481Y839536D01*
G01X-1204785Y739117D02*
X-1204587D01*
X-1203800Y738330D01*
X-1203210D01*
X-1202600Y738940D01*
Y748800D01*
X-1204700Y750900D01*
Y753400D01*
X-1208130Y756830D01*
Y756900D01*
X-1208195Y756965D01*
Y759035D01*
X-1208130Y759100D01*
Y792970D01*
X-1194700Y806400D01*
Y832160D01*
X-1196577Y834037D01*
X-1197327D01*
X-1198407Y832957D01*
X-1199157D01*
X-1199907Y833707D01*
Y834457D01*
X-1198827Y835537D01*
Y836287D01*
X-1199994Y837454D01*
X-1201629D01*
X-1202481Y836602D01*
G01X-1171332Y855267D02*
X-1172300Y854299D01*
Y851260D01*
X-1175213Y848347D01*
X-1175353D01*
X-1180600Y843100D01*
X-1202361D01*
X-1205500Y839961D01*
Y835200D01*
X-1202700Y832400D01*
Y814620D01*
X-1203950Y813370D01*
X-1206795D01*
X-1207607Y812558D01*
G01X-1174266Y855267D02*
X-1173530Y854531D01*
Y851770D01*
X-1175723Y849577D01*
X-1176613D01*
X-1177143Y850107D01*
X-1177893D01*
X-1178643Y849357D01*
Y848607D01*
X-1178113Y848077D01*
Y847327D01*
X-1181110Y844330D01*
X-1202871D01*
X-1206730Y840471D01*
Y834690D01*
X-1203930Y831890D01*
Y815130D01*
X-1204460Y814600D01*
X-1206715D01*
X-1207607Y815492D01*
G54D16*
X-1110676Y897822D03*
Y907822D03*
G54D26*
G01X-1192900Y763600D02*
Y765176D01*
X-1192204Y765872D01*
X-1189150D01*
X-1188300Y765022D01*
Y760750D01*
X-1187450Y759900D01*
X-1185650D01*
X-1184800Y760750D01*
Y761458D01*
X-1184083Y762175D01*
X-1180675D01*
X-1178800Y760300D01*
X-1157150D01*
X-1156300Y759450D01*
Y757100D01*
X-1155400Y756200D01*
X-1153999D01*
X-1153149Y757050D01*
Y761050D01*
X-1152299Y761900D01*
X-1150599D01*
X-1149749Y761050D01*
Y757050D01*
X-1148899Y756200D01*
X-1147300D01*
X-1146300Y755200D01*
Y753173D01*
X-1146357Y753116D01*
G01X-1143798D02*
Y750950D01*
X-1145023Y749725D01*
X-1149726D01*
X-1151926Y751925D01*
X-1153725D01*
X-1157417Y755617D01*
G03X-1159548Y756500I-2132J-2132D01*
G01X-1161362D01*
X-1163062Y754800D01*
X-1165100D01*
X-1166800Y756500D01*
X-1168651D01*
G02X-1169416Y756817I0J1082D01*
G01X-1170449Y757850D01*
X-1179550D01*
X-1180600Y756800D01*
Y755402D01*
X-1181302Y754700D01*
X-1183298D01*
X-1184000Y755402D01*
Y756300D01*
X-1184602Y756902D01*
X-1186898D01*
X-1187500Y756300D01*
Y755600D01*
X-1188200Y754900D01*
X-1190500D01*
X-1191600Y756000D01*
Y758800D01*
X-1196250Y763450D01*
Y763600D01*
G01X-1050800Y777514D02*
X-1049386Y776100D01*
X-1048252D01*
X-1048241Y776089D01*
X-1030653D01*
X-1030000Y775436D01*
Y774571D01*
X-1030850Y773721D01*
X-1037949D01*
X-1038770Y772900D01*
Y769950D01*
X-1039620Y769100D01*
X-1041241D01*
X-1042066Y769925D01*
Y772566D01*
X-1042700Y773200D01*
X-1044500D01*
X-1045100Y772600D01*
Y771600D01*
X-1045800Y770900D01*
X-1046892D01*
X-1048000Y772008D01*
Y772900D01*
X-1048602Y773502D01*
X-1050298D01*
X-1051000Y772800D01*
Y769800D01*
X-1051800Y769000D01*
X-1053500D01*
X-1055371Y770871D01*
X-1056821D01*
X-1057492Y770200D01*
X-1059548D01*
X-1060698Y771350D01*
Y771850D01*
X-1061548Y772700D01*
X-1063248D01*
X-1064098Y771850D01*
Y771350D01*
X-1064823Y770625D01*
X-1066525D01*
X-1067200Y771300D01*
Y771698D01*
X-1068002Y772500D01*
X-1069350D01*
X-1070200Y771650D01*
Y770699D01*
X-1071399Y769500D01*
X-1079224D01*
X-1080524Y768200D01*
X-1082100D01*
G54D17*
X-1110676Y917822D03*
G54D18*
X-1001128Y906831D03*
X-978372D03*
G54D19*
X-963561Y778392D03*
Y809888D03*
M02*
