G04 ================== begin FILE IDENTIFICATION RECORD ==================*
G04 Layout Name:  BeagleV_15.brd*
G04 Film Name:    L2_GND*
G04 File Format:  Gerber RS274X*
G04 File Origin:  Cadence Allegro 17.2-061*
G04 Origin Date:  Wed Apr 21 13:44:31 2021*
G04 *
G04 Layer:  VIA CLASS/GND02*
G04 Layer:  PIN/GND02*
G04 Layer:  ETCH/GND02*
G04 Layer:  BOARD GEOMETRY/OUTLINE*
G04 *
G04 Offset:    (0.00 0.00)*
G04 Mirror:    No*
G04 Mode:      Positive*
G04 Rotation:  0*
G04 FullContactRelief:  No*
G04 UndefLineWidth:     4.00*
G04 ================== end FILE IDENTIFICATION RECORD ====================*
%FSLAX25Y25*MOIN*%
%IR0*IPPOS*OFA0.00000B0.00000*MIA0B0*SFA1.00000B1.00000*%
%ADD13C,.014*%
%ADD10C,.016*%
%ADD21C,.075*%
%ADD26C,.02362*%
%ADD27C,.03543*%
%ADD24O,.05906X.11811*%
%ADD12C,.05118*%
%ADD11C,.04724*%
%ADD22R,.075X.075*%
%ADD18C,.03937*%
%ADD20C,.06299*%
%ADD23O,.06693X.13386*%
%ADD19C,.1063*%
%ADD14C,.11811*%
%ADD15C,.12795*%
%ADD25O,.04724X.08661*%
%ADD16O,.05906X.09843*%
%ADD17O,.09843X.05906*%
%ADD28C,.02*%
%ADD29C,.015*%
%ADD30C,.005*%
%ADD31C,.004*%
%ADD39C,.07102*%
%ADD37C,.06006*%
%ADD43C,.04334*%
%ADD41C,.0474*%
%ADD38C,.0709*%
%ADD34C,.05551*%
%ADD32C,.01592*%
%ADD36C,.05832*%
%ADD35C,.07093*%
%ADD40C,.03548*%
%ADD42C,.04926*%
%ADD33C,.16006*%
%ADD44C,.16072*%
G75*
%LPD*%
G75*
G36*
G01X-1269600Y925900D02*
X-1008818D01*
G02X-1008548Y925205I0J-400D01*
G03X-1009442Y923170I1869J-2035D01*
G01Y921408D01*
G02X-1010125Y921125I-400J0D01*
G01X-1013000Y924000D01*
X-1036500D01*
X-1041000Y919500D01*
Y919062D01*
X-1041272D01*
X-1041327Y919108D01*
G03X-1046140Y918530I-2130J-2591D01*
G01X-1046200Y918450D01*
X-1046500D01*
Y919000D01*
X-1051500Y924000D01*
X-1093000D01*
X-1097500Y919500D01*
Y919183D01*
G02X-1098182Y918899I-400J0D01*
G03X-1103274Y918464I-2361J-2383D01*
G02X-1104000Y918696I-326J232D01*
G01Y919500D01*
X-1108500Y924000D01*
X-1147000D01*
X-1157000Y914000D01*
X-1180142D01*
X-1180163Y914176D01*
G03X-1196089I-7963J-956D01*
G01X-1196110Y914000D01*
X-1199000D01*
X-1204000Y919000D01*
X-1224000D01*
X-1229500Y913500D01*
X-1230195D01*
Y913794D01*
X-1230122Y913854D01*
G03X-1228039Y918268I-3635J4414D01*
G03X-1239473I-5717J0D01*
G03X-1237758Y914186I5717J1D01*
G02X-1238038Y913500I-280J-286D01*
G01X-1239335D01*
G03X-1249791Y916014I-6429J-3736D01*
G01X-1249927Y915927D01*
X-1254500Y920500D01*
X-1267000D01*
X-1277500Y910000D01*
Y858000D01*
X-1274000Y854500D01*
X-1244000D01*
X-1239740Y858760D01*
G02X-1239084Y858332I283J-282D01*
G03X-1239473Y856260I5328J-2073D01*
G03X-1228039I5717J0D01*
G03X-1229579Y860163I-5716J0D01*
G01X-1229633Y860221D01*
Y860500D01*
X-1229000D01*
X-1222500Y854000D01*
Y844702D01*
G02X-1223162Y844400I-400J0D01*
G03X-1227288Y845937I-4126J-4770D01*
G03X-1233595Y839630I0J-6307D01*
G03X-1230566Y834242I6307J0D01*
G02X-1230774Y833500I-208J-342D01*
G01X-1246164D01*
G02X-1246372Y834242I0J400D01*
G03X-1243343Y839630I-3278J5388D01*
G03X-1255957I-6307J0D01*
G03X-1252928Y834242I6307J0D01*
G02X-1253136Y833500I-208J-342D01*
G01X-1275500D01*
X-1277500Y831500D01*
Y798600D01*
X-1273000Y794100D01*
X-1253015D01*
G02X-1252814Y793354I0J-400D01*
G03X-1255957Y787898I3164J-5456D01*
G03X-1243343I6307J0D01*
G03X-1246486Y793354I-6307J0D01*
G02X-1246285Y794100I201J346D01*
G01X-1230653D01*
G02X-1230452Y793354I0J-400D01*
G03X-1233595Y787898I3164J-5456D01*
G03X-1227288Y781591I6307J0D01*
G03X-1222315Y784018I1J6307D01*
G02X-1221600Y783772I315J-246D01*
G01Y773280D01*
G02X-1222315Y773034I-400J0D01*
G03X-1227288Y775461I-4972J-3880D01*
G03X-1233595Y769154I0J-6307D01*
G03X-1231324Y764307I6308J0D01*
G02X-1231580Y763600I-256J-307D01*
G01X-1245358D01*
G02X-1245614Y764307I0J400D01*
G03X-1243343Y769154I-4037J4847D01*
G03X-1255957I-6307J0D01*
G03X-1253686Y764307I6308J0D01*
G02X-1253942Y763600I-256J-307D01*
G01X-1274900D01*
X-1277500Y761000D01*
Y728800D01*
X-1272100Y723400D01*
X-1253374D01*
G02X-1253152Y722667I0J-400D01*
G03X-1255957Y717422I3501J-5245D01*
G03X-1253089Y712135I6307J0D01*
G02X-1253307Y711400I-218J-335D01*
G01X-1275900D01*
X-1279600Y715100D01*
Y915400D01*
X-1279400Y916300D01*
X-1279200Y917800D01*
X-1278500Y919700D01*
X-1277400Y921500D01*
X-1276000Y923100D01*
X-1274700Y924100D01*
X-1272700Y925200D01*
X-1271400Y925600D01*
X-1269600Y925900D01*
G37*
G36*
G01X-1237355Y831500D02*
G02X-1237082Y830808I0J-400D01*
G03X-1237644Y829512I1213J-1296D01*
G03X-1234096I1774J0D01*
G03X-1234658Y830808I-1775J0D01*
G02X-1234385Y831500I273J292D01*
G01X-1232200D01*
X-1231200Y832500D01*
X-1226200D01*
X-1225100Y833600D01*
X-1220900D01*
X-1219500Y835000D01*
Y854800D01*
X-1227900Y863200D01*
X-1237932D01*
G02X-1238327Y863659I1J400D01*
G03X-1248723Y857853I-7436J1105D01*
G02X-1248597Y857203I-158J-368D01*
G01X-1249400Y856400D01*
X-1272200D01*
X-1275800Y860000D01*
Y906700D01*
X-1265000Y917500D01*
X-1257400D01*
X-1252597Y912697D01*
X-1252647Y912574D01*
G03X-1238822Y907100I6883J-2810D01*
G01X-1225000D01*
X-1217400Y914700D01*
X-1207300D01*
X-1200800Y908200D01*
X-1194381D01*
G03X-1181871I6255J5021D01*
G01X-1155400D01*
X-1149157Y914443D01*
X-1149077Y914445D01*
G03X-1148145Y915377I-23J955D01*
G01X-1148143Y915457D01*
X-1140800Y922800D01*
X-1111600D01*
X-1111456Y922656D01*
G02X-1111739Y921974I-283J-282D01*
G01X-1114426D01*
G03X-1114828Y921572I0J-402D01*
G01Y914072D01*
G03X-1114426Y913670I402J0D01*
G01X-1106800D01*
Y910751D01*
G02X-1107506Y910494I-400J1D01*
G03X-1110676Y911968I-3170J-2672D01*
G03Y903676I0J-4146D01*
G03X-1107506Y905150I0J4146D01*
G02X-1106800Y904893I306J-258D01*
G01Y900751D01*
G02X-1107506Y900494I-400J1D01*
G03X-1110676Y901968I-3170J-2672D01*
G03Y893676I0J-4146D01*
G03X-1107506Y895150I0J4146D01*
G02X-1106800Y894893I306J-258D01*
G01Y885900D01*
X-1102900Y882000D01*
X-1098400D01*
X-1094500Y885900D01*
Y918100D01*
X-1089900Y922700D01*
X-1053100D01*
X-1048900Y918500D01*
Y883800D01*
X-1047100Y882000D01*
X-1040800D01*
X-1038800Y884000D01*
Y918500D01*
X-1034600Y922700D01*
X-1014500D01*
X-1011500Y919700D01*
Y900900D01*
X-1009700Y899100D01*
X-1005200D01*
X-1003300Y901000D01*
Y903700D01*
X-1002100Y904900D01*
X-1001543D01*
X-1001513Y904897D01*
X-1001503Y904895D01*
G03X-1000748Y904896I375J1935D01*
G01X-1000729Y904900D01*
X-978780D01*
X-978760Y904896D01*
G03X-977984I388J1935D01*
G01X-977964Y904900D01*
X-976900D01*
X-976200Y904200D01*
Y900900D01*
X-975200Y899900D01*
X-955200D01*
X-949500Y894200D01*
Y756393D01*
X-948786Y755679D01*
X-947311D01*
X-947001Y755369D01*
Y731242D01*
X-948952D01*
Y729052D01*
X-955258D01*
Y731242D01*
X-959202D01*
Y699438D01*
X-956200D01*
Y696100D01*
X-957100Y695100D01*
X-957400Y694800D01*
X-981400D01*
X-981700Y694500D01*
Y692200D01*
X-981400Y691900D01*
X-972900D01*
X-967300Y686300D01*
Y683700D01*
X-966900Y683300D01*
X-961800D01*
X-961400Y683700D01*
Y688700D01*
X-961900Y689200D01*
X-965500D01*
X-967100Y690800D01*
Y691600D01*
X-966800Y691900D01*
X-956100D01*
X-954200Y693800D01*
X-953200Y695100D01*
X-952700Y696400D01*
X-952500Y697200D01*
Y697400D01*
X-951600Y698300D01*
Y699436D01*
X-948950D01*
Y699438D01*
X-947001D01*
Y662497D01*
X-947500Y661000D01*
X-948000Y658000D01*
X-950000Y655000D01*
X-952500Y653000D01*
X-955500Y652000D01*
X-1269400D01*
X-1270016Y652616D01*
G02X-1269928Y653248I283J283D01*
G03X-1273902Y657222I-1422J2552D01*
G02X-1274534Y657134I-349J195D01*
G01X-1278000Y660600D01*
Y701200D01*
X-1274700Y704500D01*
X-1223900D01*
X-1220300Y708100D01*
Y721600D01*
X-1222100Y723400D01*
X-1225296D01*
G03X-1225302Y723402I-1996J-5977D01*
G01X-1226800Y724900D01*
X-1270600D01*
X-1275600Y729900D01*
Y758300D01*
X-1271900Y762000D01*
X-1226200D01*
X-1225100Y763100D01*
X-1221100D01*
X-1220300Y763900D01*
Y792100D01*
X-1222000Y793800D01*
X-1225050D01*
X-1226400Y795150D01*
X-1270850D01*
X-1276500Y800800D01*
Y830700D01*
X-1275700Y831500D01*
X-1237355D01*
G37*
G36*
G01X-1245926Y723400D02*
X-1231012D01*
G02X-1230790Y722667I0J-400D01*
G03X-1233595Y717422I3501J-5245D01*
G03X-1230727Y712135I6307J0D01*
G02X-1230945Y711400I-218J-335D01*
G01X-1245993D01*
G02X-1246211Y712135I0J400D01*
G03X-1243343Y717422I-3439J5287D01*
G03X-1246148Y722667I-6306J0D01*
G02X-1245926Y723400I222J333D01*
G37*
G36*
G01X-1104000Y896092D02*
Y908432D01*
G02X-1103274Y908664I400J0D01*
G03X-1098182Y908229I2731J1948D01*
G02X-1097500Y907945I282J-284D01*
G01Y896485D01*
G02X-1098155Y896177I-400J0D01*
G03X-1103305Y895822I-2388J-2889D01*
G02X-1104000Y896092I-295J270D01*
G37*
G36*
G01X-1046500Y896485D02*
Y907945D01*
G02X-1045818Y908229I400J0D01*
G03X-1041619Y907805I2361J2382D01*
G02X-1041000Y907471I219J-334D01*
G01Y896890D01*
G02X-1041598Y896543I-400J0D01*
G03X-1045845Y896177I-1859J-3255D01*
G02X-1046500Y896485I-255J308D01*
G37*
G36*
G01X-970682Y925900D02*
X-958100D01*
X-956900Y925800D01*
X-953600Y925000D01*
X-951700Y924000D01*
X-949800Y922200D01*
X-947900Y919300D01*
X-947100Y916500D01*
Y757300D01*
X-947400Y757000D01*
X-948200D01*
X-948500Y757300D01*
Y896000D01*
X-954000Y901500D01*
X-969759D01*
G02X-970147Y902001I-1J400D01*
G03X-970058Y902696I-2674J696D01*
G01Y906634D01*
G03X-974375Y908919I-2763J0D01*
G02X-975000Y909249I-225J330D01*
G01Y912000D01*
X-978000Y915000D01*
X-1002500D01*
X-1004500Y913000D01*
Y909249D01*
G02X-1005125Y908919I-400J0D01*
G03X-1008794Y908412I-1554J-2285D01*
G02X-1009500Y908670I-306J258D01*
G01Y917196D01*
G02X-1008794Y917454I400J0D01*
G03X-1003916Y919232I2115J1779D01*
G01Y923170D01*
G03X-1004810Y925205I-2763J0D01*
G02X-1004540Y925900I270J295D01*
G01X-974960D01*
G02X-974690Y925205I0J-400D01*
G03X-975584Y923170I1869J-2035D01*
G01Y919232D01*
G03X-970058I2763J1D01*
G01Y923170D01*
G03X-970952Y925205I-2763J0D01*
G02X-970682Y925900I270J295D01*
G37*
%LPC*%
G75*
G36*
G01X-1236054Y687224D02*
Y691162D01*
G02X-1229346I3354J0D01*
G01Y687224D01*
G02X-1236054I-3354J0D01*
G37*
G36*
G01X-1237425Y703572D02*
X-1233487D01*
G02Y696862I-1J-3355D01*
G01X-1237425D01*
G02Y703572I1J3355D01*
G37*
G36*
G01X-1236441Y680533D02*
X-1234471D01*
G02Y675805I-1J-2364D01*
G01X-1236441D01*
G02Y680533I1J2364D01*
G37*
G36*
G01X-1267543Y703368D02*
X-1266361D01*
G02Y697852I0J-2758D01*
G01X-1267543D01*
G02Y703368I0J2758D01*
G37*
G36*
G01Y680534D02*
X-1266361D01*
G02Y675018I0J-2758D01*
G01X-1267543D01*
G02Y680534I0J2758D01*
G37*
G36*
G01X-1117494Y665538D02*
G03X-1118000Y665893I-399J-30D01*
G02X-1118953Y665762I-955J3414D01*
G02X-1115408Y669307I0J3545D01*
G02X-1116361Y666889I-3544J0D01*
G03X-1116280Y666276I292J-273D01*
G02X-1115904Y665600I-420J-676D01*
G02X-1116700Y664804I-796J0D01*
G02X-1117494Y665538I0J796D01*
G37*
G36*
G01X-982099Y717580D02*
G03X-982601I-251J-312D01*
G02X-983100Y717404I-499J619D01*
G02Y718996I0J796D01*
G02X-982601Y718820I0J-795D01*
G03X-982099I251J312D01*
G02X-981600Y718996I499J-619D01*
G02Y717404I0J-796D01*
G02X-982099Y717580I0J795D01*
G37*
G36*
G01X-1019657Y733518D02*
G03X-1019155Y733652I173J361D01*
G02X-1018500Y733996I655J-452D01*
G02Y732404I0J-796D01*
G02X-1018843Y732482I1J796D01*
G03X-1019345Y732348I-173J-361D01*
G02X-1020000Y732004I-655J452D01*
G02Y733596I0J796D01*
G02X-1019657Y733518I-1J-796D01*
G37*
G36*
G01X-963737Y748512D02*
G03X-964238Y748543I-270J-295D01*
G02X-964700Y748395I-462J647D01*
G02Y749987I0J796D01*
G02X-964163Y749779I0J-797D01*
G03X-963662Y749748I270J295D01*
G02X-963200Y749896I462J-647D01*
G02Y748304I0J-796D01*
G02X-963737Y748512I0J797D01*
G37*
G36*
G01X-983839Y766385D02*
G03X-983822Y766904I-296J269D01*
G02X-983996Y767400I622J497D01*
G02X-982404I796J0D01*
G02X-982611Y766865I-795J0D01*
G03X-982628Y766346I296J-269D01*
G02X-982454Y765850I-622J-497D01*
G02X-984046I-796J0D01*
G02X-983839Y766385I795J0D01*
G37*
G36*
G01X-1009218Y793522D02*
G03X-1009719Y793456I-210J-340D01*
G02X-1010300Y793204I-581J544D01*
G02Y794796I0J796D01*
G01X-1010298D01*
G02X-1009882Y794678I-1J-796D01*
G03X-1009381Y794744I210J340D01*
G02X-1008800Y794996I581J-544D01*
G02Y793404I0J-796D01*
G01X-1008802D01*
G02X-1009218Y793522I1J796D01*
G37*
G36*
G01X-1183299Y814880D02*
G03X-1183801I-251J-312D01*
G02X-1184300Y814704I-499J619D01*
G02Y816296I0J796D01*
G02X-1183801Y816120I0J-795D01*
G03X-1183299I251J312D01*
G02X-1182800Y816296I499J-619D01*
G02Y814704I0J-796D01*
G02X-1183299Y814880I0J795D01*
G37*
G36*
G01X-1107152Y860047D02*
G03X-1107673Y860128I-307J-257D01*
G02X-1108100Y860004I-427J673D01*
G02Y861596I0J796D01*
G02X-1107490Y861311I0J-795D01*
G03X-1106969Y861230I307J257D01*
G02X-1106542Y861354I427J-673D01*
G02Y859762I0J-796D01*
G02X-1107152Y860047I0J795D01*
G37*
G36*
G01X-998590Y897833D02*
G03X-998088Y898000I156J368D01*
G02X-997400Y898396I688J-400D01*
G02Y896804I0J-796D01*
G02X-997710Y896867I0J796D01*
G03X-998212Y896700I-156J-368D01*
G02X-998900Y896304I-688J400D01*
G02Y897896I0J796D01*
G02X-998590Y897833I0J-796D01*
G37*
G36*
G01X-1132994Y659931D02*
G02X-1133199Y659904I-206J769D01*
G01X-1133200D01*
G02Y661496I0J796D01*
G02X-1132579Y661198I0J-796D01*
G03X-1131931Y661231I312J250D01*
G02X-1128953Y662852I2978J-1925D01*
G02X-1132498Y659307I0J-3545D01*
G02X-1132492Y659521I3545J8D01*
G03X-1132994Y659931I-399J24D01*
G37*
G36*
G01X-1115634Y658045D02*
G02X-1118953Y655756I-3319J1262D01*
G02Y662858I0J3551D01*
G02X-1115457Y659932I0J-3552D01*
G03X-1114909Y659634I393J71D01*
G02X-1114602Y659696I308J-734D01*
G01X-1114600D01*
G02Y658104I0J-796D01*
G02X-1115039Y658236I0J796D01*
G03X-1115634Y658045I-221J-333D01*
G37*
G36*
G01X-1105587Y670419D02*
G02X-1105408Y669307I-3366J-1112D01*
G02X-1108953Y672852I-3545J0D01*
G02X-1106354Y671718I0J-3545D01*
G03X-1105672Y671893I294J271D01*
G02X-1104900Y672496I772J-193D01*
G02Y670904I0J-796D01*
G02X-1105104Y670931I2J796D01*
G03X-1105587Y670419I-103J-387D01*
G37*
G36*
G01X-1126178Y672367D02*
G02X-1125400Y672996I778J-167D01*
G02X-1124604Y672200I0J-796D01*
G02X-1125394Y671404I-796J0D01*
G03X-1125753Y670832I2J-400D01*
G02X-1125408Y669307I-3200J-1525D01*
G02X-1128953Y672852I-3545J0D01*
G02X-1126811Y672132I0J-3546D01*
G03X-1126178Y672367I242J319D01*
G37*
G36*
G01X-1135204Y672500D02*
G02X-1135730Y671751I-796J0D01*
G03X-1135934Y671166I137J-376D01*
G02X-1135408Y669309I-3019J-1858D01*
G01Y669307D01*
G02X-1138953Y672852I-3545J0D01*
G02X-1137100Y672329I0J-3544D01*
G01X-1136796Y672500D01*
G02X-1135204I796J0D01*
G37*
G36*
G01X-1212263Y689544D02*
G02X-1212945Y689159I-682J412D01*
G02Y690751I0J796D01*
G02X-1212332Y690463I0J-796D01*
G03X-1211682Y690511I308J255D01*
G02X-1211000Y690896I682J-412D01*
G02Y689304I0J-796D01*
G02X-1211613Y689592I0J796D01*
G03X-1212263Y689544I-308J-255D01*
G37*
G36*
G01X-1210043Y697818D02*
G02X-1210296Y698400I543J582D01*
G02X-1209500Y699196I796J0D01*
G02X-1208868Y698884I0J-796D01*
G03X-1208232I318J243D01*
G02X-1207600Y699196I632J-484D01*
G02Y697604I0J-796D01*
G02X-1208232Y697916I0J796D01*
G03X-1208868I-318J-243D01*
G02X-1209090Y697718I-631J485D01*
G03X-1209157Y697082I206J-343D01*
G02X-1208904Y696500I-543J-582D01*
G02X-1210496I-796J0D01*
G02X-1210110Y697182I795J0D01*
G03X-1210043Y697818I-206J343D01*
G37*
G36*
G01X-1208504Y703477D02*
G02X-1208999Y703304I-496J623D01*
G01X-1209000D01*
G02Y704896I0J796D01*
G02X-1208431Y704656I-1J-796D01*
G03X-1207896Y704623I286J280D01*
G02X-1207401Y704796I496J-623D01*
G01X-1207400D01*
G02Y703204I0J-796D01*
G02X-1207969Y703444I1J796D01*
G03X-1208504Y703477I-286J-280D01*
G37*
G36*
G01X-1029497Y708330D02*
G02X-1029698Y708304I-202J770D01*
G01X-1029700D01*
G02X-1028904Y709100I0J796D01*
G02X-1028905Y709071I-796J13D01*
G03X-1028403Y708670I400J-14D01*
G02X-1028202Y708696I202J-770D01*
G01X-1028200D01*
G02X-1028996Y707900I0J-796D01*
G02X-1028995Y707929I796J-13D01*
G03X-1029497Y708330I-400J14D01*
G37*
G36*
G01X-1198068Y711880D02*
G02X-1198727Y711531I-659J448D01*
G02Y713123I0J796D01*
G02X-1198075Y712784I0J-796D01*
G03X-1197417Y712789I327J230D01*
G02X-1196758Y713138I659J-448D01*
G02X-1196091Y712777I0J-797D01*
G03X-1195433Y712759I335J218D01*
G02X-1194790Y713086I643J-469D01*
G02Y711494I0J-796D01*
G02X-1195457Y711855I0J797D01*
G03X-1196115Y711873I-335J-218D01*
G02X-1196758Y711546I-643J469D01*
G02X-1197410Y711885I0J796D01*
G03X-1198068Y711880I-327J-230D01*
G37*
G36*
G01X-1201989Y719172D02*
G02X-1202296Y719800I489J628D01*
G02X-1200704I796J0D01*
G02X-1200944Y719230I-797J0D01*
G03X-1200911Y718628I279J-287D01*
G02X-1200604Y718000I-489J-628D01*
G02X-1202196I-796J0D01*
G02X-1201956Y718570I797J0D01*
G03X-1201989Y719172I-279J287D01*
G37*
G36*
G01X-996694Y720861D02*
G02X-995900Y721596I794J-61D01*
G02Y720004I0J-796D01*
G02X-995972Y720007I-3J796D01*
G03X-996406Y719639I-35J-398D01*
G02X-997200Y718904I-794J61D01*
G02Y720496I0J796D01*
G02X-997128Y720493I3J-796D01*
G03X-996694Y720861I35J398D01*
G37*
G36*
G01X-1125868Y723616D02*
G02X-1126500Y723304I-632J484D01*
G02Y724896I0J796D01*
G02X-1125868Y724584I0J-796D01*
G03X-1125232I318J243D01*
G02X-1124600Y724896I632J-484D01*
G02Y723304I0J-796D01*
G02X-1125232Y723616I0J796D01*
G03X-1125868I-318J-243D01*
G37*
G36*
G01X-1011501Y723975D02*
G02X-1012099Y723704I-598J525D01*
G01X-1012100D01*
G02Y725296I0J796D01*
G02X-1011567Y725091I0J-795D01*
G03X-1010999Y725125I267J297D01*
G02X-1010401Y725396I598J-525D01*
G01X-1010400D01*
G02Y723804I0J-796D01*
G02X-1010933Y724009I0J795D01*
G03X-1011501Y723975I-267J-297D01*
G37*
G36*
G01X-1133634Y724797D02*
G02X-1134037Y725489I393J692D01*
G02X-1132445I796J0D01*
G02X-1132621Y724990I-795J0D01*
G03X-1132507Y724392I312J-250D01*
G02X-1132104Y723700I-393J-692D01*
G02X-1133696I-796J0D01*
G02X-1133520Y724199I795J0D01*
G03X-1133634Y724797I-312J250D01*
G37*
G36*
G01X-1024307Y728145D02*
G02X-1024314Y728254I789J105D01*
G02X-1022722I796J0D01*
G02X-1023516Y727458I-796J0D01*
G03X-1023911Y727004I1J-400D01*
G02X-1023904Y726895I-789J-105D01*
G02X-1025496I-796J0D01*
G02X-1024702Y727691I796J0D01*
G03X-1024307Y728145I-1J400D01*
G37*
G36*
G01X-1070832Y729197D02*
G02X-1071469Y728879I-637J479D01*
G02Y730471I0J796D01*
G02X-1070873Y730203I0J-797D01*
G03X-1070254Y730228I299J265D01*
G02X-1069617Y730546I637J-479D01*
G02Y728954I0J-796D01*
G02X-1070213Y729222I0J797D01*
G03X-1070832Y729197I-299J-265D01*
G37*
G36*
G01X-1194995Y729977D02*
G02X-1195296Y730600I494J623D01*
G02X-1193704I796J0D01*
G02X-1194028Y729959I-796J0D01*
G03X-1194040Y729323I237J-323D01*
G02X-1193739Y728700I-494J-623D01*
G02X-1195331I-796J0D01*
G02X-1195007Y729341I796J0D01*
G03X-1194995Y729977I-237J323D01*
G37*
G36*
G01X-998260Y740634D02*
G02X-998496Y741200I561J566D01*
G02X-996904I796J0D01*
G02X-997140Y740634I-797J0D01*
G03Y740066I281J-284D01*
G02X-996904Y739500I-561J-566D01*
G02X-998496I-796J0D01*
G02X-998260Y740066I797J0D01*
G03Y740634I-281J284D01*
G37*
G36*
G01X-1028184Y741593D02*
G02X-1028296Y742000I684J407D01*
G02X-1027500Y742796I796J0D01*
G02X-1026760Y742294I0J-796D01*
G03X-1026192Y742093I372J147D01*
G02X-1025801Y742196I392J-693D01*
G01X-1025800D01*
G02Y740604I0J-796D01*
G02X-1026540Y741106I0J796D01*
G03X-1027108Y741307I-372J-147D01*
G02X-1027170Y741276I-387J696D01*
G03X-1027347Y740707I166J-364D01*
G02X-1027235Y740300I-684J-407D01*
G02X-1028827I-796J0D01*
G02X-1028361Y741024I795J0D01*
G03X-1028184Y741593I-166J364D01*
G37*
G36*
G01X-1092973Y788275D02*
G02X-1093096Y788700I673J425D01*
G02X-1091504I796J0D01*
G02X-1091827Y788060I-796J0D01*
G03X-1091927Y787525I238J-321D01*
G02X-1091804Y787100I-673J-425D01*
G02X-1093396I-796J0D01*
G02X-1093073Y787740I796J0D01*
G03X-1092973Y788275I-238J321D01*
G37*
G36*
G01X-1132793Y793285D02*
G02X-1133400Y793004I-607J515D01*
G02Y794596I0J796D01*
G02X-1132742Y794248I0J-796D01*
G03X-1132107Y794215I330J226D01*
G02X-1131500Y794496I607J-515D01*
G02Y792904I0J-796D01*
G02X-1132158Y793252I0J796D01*
G03X-1132793Y793285I-330J-226D01*
G37*
G36*
G01X-1016082Y795853D02*
G02X-1016096Y796000I782J149D01*
G02X-1015300Y795204I796J0D01*
G01X-1015316D01*
G03X-1015718Y794730I-9J-400D01*
G02X-1015704Y794583I-782J-149D01*
G02X-1016500Y795379I-796J0D01*
G01X-1016484D01*
G03X-1016082Y795853I9J400D01*
G37*
G36*
G01X-1274924Y814901D02*
G02X-1275196Y815500I524J599D01*
G02X-1273604I796J0D01*
G02X-1273876Y814901I-796J0D01*
G03Y814299I264J-301D01*
G02X-1273604Y813700I-524J-599D01*
G02X-1275196I-796J0D01*
G02X-1274924Y814299I796J0D01*
G03Y814901I-264J301D01*
G37*
G36*
G01X-980136Y815201D02*
G02X-980497Y815867I434J666D01*
G02X-978905I796J0D01*
G02X-979234Y815222I-797J0D01*
G03X-979219Y814563I234J-324D01*
G02X-978858Y813897I-434J-666D01*
G02X-980450I-796J0D01*
G02X-980121Y814542I797J0D01*
G03X-980136Y815201I-234J324D01*
G37*
G36*
G01X-1162466Y815334D02*
G02X-1162923Y815189I-458J651D01*
G01X-1162925D01*
G02Y816781I0J796D01*
G02X-1162179Y816262I0J-796D01*
G03X-1161574Y816075I375J140D01*
G02X-1161117Y816220I458J-651D01*
G01X-1161115D01*
G02Y814628I0J-796D01*
G02X-1161861Y815147I0J796D01*
G03X-1162466Y815334I-375J-140D01*
G37*
G36*
G01X-1038392Y823182D02*
G02X-1037600Y823896I792J-82D01*
G02Y822304I0J-796D01*
G01X-1037601D01*
G02X-1037873Y822352I0J796D01*
G03X-1038408Y822018I-137J-375D01*
G02X-1039200Y821304I-792J82D01*
G02Y822896I0J796D01*
G01X-1039199D01*
G02X-1038927Y822848I0J-796D01*
G03X-1038392Y823182I137J375D01*
G37*
G36*
G01X-1189534Y824540D02*
G02X-1190100Y824304I-566J561D01*
G02Y825896I0J796D01*
G02X-1189534Y825660I0J-797D01*
G03X-1188966I284J281D01*
G02X-1188400Y825896I566J-561D01*
G02Y824304I0J-796D01*
G02X-1188966Y824540I0J797D01*
G03X-1189534I-284J-281D01*
G37*
G36*
G01X-962293Y828085D02*
G02X-962900Y827804I-607J515D01*
G02Y829396I0J796D01*
G02X-962242Y829048I0J-796D01*
G03X-961607Y829015I330J226D01*
G02X-961000Y829296I607J-515D01*
G02Y827704I0J-796D01*
G02X-961658Y828052I0J796D01*
G03X-962293Y828085I-330J-226D01*
G37*
G36*
G01X-1075001Y846144D02*
G02X-1075317Y846779I480J635D01*
G02X-1073725I796J0D01*
G02X-1074100Y846103I-797J0D01*
G03X-1074130Y845445I211J-339D01*
G02X-1073814Y844810I-480J-635D01*
G02X-1075406I-796J0D01*
G02X-1075031Y845486I797J0D01*
G03X-1075001Y846144I-211J339D01*
G37*
G36*
G01X-1176156Y853018D02*
G02X-1176852Y853808I100J790D01*
G02X-1175260I796J0D01*
G02X-1175361Y853420I-796J0D01*
G03X-1175061Y852829I350J-194D01*
G02X-1174365Y852039I-100J-790D01*
G02X-1175957I-796J0D01*
G02X-1175856Y852427I796J0D01*
G03X-1176156Y853018I-350J194D01*
G37*
G36*
G01X-1071222Y868372D02*
G02X-1071696Y869100I322J728D01*
G02X-1070104I796J0D01*
G02X-1070179Y868763I-795J0D01*
G03X-1069978Y868228I363J-169D01*
G02X-1069504Y867500I-322J-728D01*
G02X-1071096I-796J0D01*
G02X-1071021Y867837I795J0D01*
G03X-1071222Y868372I-363J169D01*
G37*
G36*
G01X-1178860Y870334D02*
G02X-1179096Y870900I561J566D01*
G02X-1178300Y871696I796J0D01*
G02X-1177734Y871460I0J-797D01*
G03X-1177166I284J281D01*
G02X-1176600Y871696I566J-561D01*
G02X-1175804Y870900I0J-796D01*
G01Y870899D01*
G02X-1176075Y870301I-796J0D01*
G03X-1176109Y869733I263J-301D01*
G02X-1175904Y869200I-590J-533D01*
G02X-1176700Y868404I-796J0D01*
G02X-1177232Y868608I0J796D01*
G03X-1177768I-268J-297D01*
G02X-1178300Y868404I-532J592D01*
G02X-1179096Y869200I0J796D01*
G02X-1178860Y869766I797J0D01*
G03Y870334I-281J284D01*
G37*
G36*
G01X-1030884Y872868D02*
G02X-1031196Y873500I484J632D01*
G02X-1029604I796J0D01*
G02X-1029916Y872868I-796J0D01*
G03Y872232I243J-318D01*
G02X-1029604Y871600I-484J-632D01*
G02X-1031196I-796J0D01*
G02X-1030884Y872232I796J0D01*
G03Y872868I-243J318D01*
G37*
G36*
G01X-974260Y878934D02*
G02X-974496Y879500I561J566D01*
G02X-973700Y880296I796J0D01*
G02X-972922Y879666I0J-795D01*
G03X-972420Y879365I391J84D01*
G02X-972200Y879396I220J-765D01*
G02X-971404Y878600I0J-796D01*
G02X-971676Y878001I-796J0D01*
G03Y877399I264J-301D01*
G02X-971404Y876800I-524J-599D01*
G02X-971640Y876234I-797J0D01*
G03Y875666I281J-284D01*
G02X-971404Y875100I-561J-566D01*
G02X-972200Y874304I-796J0D01*
G02X-972978Y874934I0J795D01*
G03X-973480Y875235I-391J-84D01*
G02X-973700Y875204I-220J765D01*
G02X-974496Y876000I0J796D01*
G02X-974224Y876599I796J0D01*
G03Y877201I-264J301D01*
G02X-974496Y877800I524J599D01*
G02X-974260Y878366I797J0D01*
G03Y878934I-281J284D01*
G37*
G36*
G01X-984324Y885301D02*
G02X-984596Y885900I524J599D01*
G02X-983800Y886696I796J0D01*
G02X-983234Y886460I0J-797D01*
G03X-982666I284J281D01*
G02X-982100Y886696I566J-561D01*
G02X-981304Y885900I0J-796D01*
G02X-981540Y885334I-797J0D01*
G03Y884766I281J-284D01*
G02X-981304Y884200I-561J-566D01*
G02X-982100Y883404I-796J0D01*
G02X-982633Y883609I0J795D01*
G03X-983201Y883575I-267J-297D01*
G02X-983799Y883304I-598J525D01*
G01X-983800D01*
G02X-984596Y884100I0J796D01*
G02X-984324Y884699I796J0D01*
G03Y885301I-264J301D01*
G37*
G36*
G01X-1013832Y894584D02*
G02X-1012568I632J-484D01*
G03X-1011932I318J243D01*
G02X-1011300Y894896I632J-484D01*
G02Y893304I0J-796D01*
G02X-1011932Y893616I0J796D01*
G03X-1012568I-318J-243D01*
G02X-1013832I-632J484D01*
G03X-1014468I-318J-243D01*
G02X-1015100Y893304I-632J484D01*
G02Y894896I0J796D01*
G02X-1014468Y894584I0J-796D01*
G03X-1013832I318J243D01*
G37*
G36*
G01X-1006292Y895268D02*
G02X-1006496Y895800I592J532D01*
G02X-1004904I796J0D01*
G02X-1005108Y895268I-796J0D01*
G03Y894732I297J-268D01*
G02X-1004904Y894200I-592J-532D01*
G02X-1006496I-796J0D01*
G02X-1006292Y894732I796J0D01*
G03Y895268I-297J268D01*
G37*
G36*
G01X-1004260Y895234D02*
G02X-1004496Y895800I561J566D01*
G02X-1002904I796J0D01*
G02X-1003140Y895234I-797J0D01*
G03Y894666I281J-284D01*
G02X-1002904Y894100I-561J-566D01*
G02X-1004496I-796J0D01*
G02X-1004260Y894666I797J0D01*
G03Y895234I-281J284D01*
G37*
G36*
G01X-1127301Y906376D02*
G02X-1127900Y906104I-599J524D01*
G02Y907696I0J796D01*
G02X-1127301Y907424I0J-796D01*
G03X-1126699I301J264D01*
G02X-1126100Y907696I599J-524D01*
G02Y906104I0J-796D01*
G02X-1126699Y906376I0J796D01*
G03X-1127301I-301J-264D01*
G37*
G36*
G01X-1151068Y906608D02*
G02X-1151600Y906404I-532J592D01*
G02Y907996I0J796D01*
G02X-1151068Y907792I0J-796D01*
G03X-1150532I268J297D01*
G02X-1150000Y907996I532J-592D01*
G02Y906404I0J-796D01*
G02X-1150532Y906608I0J796D01*
G03X-1151068I-268J-297D01*
G37*
G54D39*
X-998953Y659307D03*
X-1038953D03*
X-1068953D03*
X-1138953D03*
X-1168953Y669307D03*
X-1098953D03*
X-1018953D03*
G54D37*
X-1241350Y659796D03*
G54D43*
X-1220764Y864764D03*
X-1210764Y869764D03*
X-1220764Y874764D03*
X-1210764Y879764D03*
X-1220764Y894764D03*
X-1210764Y899764D03*
X-1220764Y904764D03*
X-1210764Y909764D03*
X-1220764Y884764D03*
X-1210764Y889764D03*
G54D41*
X-1223272Y813764D03*
X-1229178Y799984D03*
X-1235870Y813764D03*
X-1241776Y799984D03*
X-1223272Y743288D03*
X-1229178Y729508D03*
X-1235870Y743288D03*
X-1241776Y729508D03*
G54D38*
X-1008953Y659307D03*
X-1018953D03*
X-1108953D03*
X-1078953Y669307D03*
X-1008953D03*
X-998953D03*
X-1038953D03*
X-1158953D03*
X-1048953D03*
X-1168953Y659307D03*
X-1158953D03*
X-988953Y669307D03*
X-1148953D03*
X-1028953Y659307D03*
Y669307D03*
X-1148953Y659307D03*
X-1088953Y669307D03*
X-1068953D03*
X-1078953Y659307D03*
X-1058953D03*
X-1048953D03*
X-1098953D03*
X-1088953D03*
X-988953D03*
X-978953D03*
X-1058953Y669307D03*
X-978953D03*
G54D34*
X-963561Y809888D03*
Y778392D03*
G54D32*
X-1013800Y821600D03*
X-1062100Y715000D03*
X-1102913Y745500D03*
X-965100Y848700D03*
X-979300Y843600D03*
X-1153600Y772800D03*
X-1152448Y785312D03*
X-1025250Y751845D03*
X-1016900Y762700D03*
X-1062140Y727785D03*
X-1067400Y795000D03*
X-1081000Y772100D03*
X-1082200Y781086D03*
X-1060200Y736600D03*
X-1202000Y782500D03*
X-1107872Y791600D03*
X-1077800Y808400D03*
X-1146357Y753116D03*
X-1136110Y788953D03*
X-1079900Y796541D03*
X-1014000Y762600D03*
X-994000Y862700D03*
X-1030300Y849400D03*
X-1030060Y853160D03*
X-1118300Y735296D03*
X-1082379Y753116D03*
X-1079650Y744750D03*
X-1077261Y747998D03*
X-1079820D03*
X-1072143Y753116D03*
X-1079820D03*
X-1074702Y755676D03*
X-1082379Y755675D03*
X-1196250Y763600D03*
X-1123326Y778708D03*
X-1143798Y771029D03*
X-1079820Y755675D03*
X-1075102Y744939D03*
X-1077261Y755675D03*
X-1097735Y776148D03*
X-1076105Y807300D03*
X-1125940Y732700D03*
X-1014150Y758045D03*
X-1067200Y787200D03*
X-1097700Y796586D03*
X-1134719Y819559D03*
X-1154829Y785359D03*
X-1100296Y804300D03*
X-980000Y811800D03*
X-1087500Y776146D03*
X-1084932Y748005D03*
X-1017336Y750800D03*
X-1028556Y751823D03*
X-1031600Y751814D03*
X-1031578Y749092D03*
X-1044300Y751714D03*
X-1047444Y748864D03*
X-1050450Y751688D03*
X-1053889Y751623D03*
X-1018797Y767078D03*
X-1028556Y764618D03*
X-1025406Y759500D03*
X-1028546Y754283D03*
X-1025406Y756941D03*
Y754382D03*
X-1025300Y764614D03*
X-1031701Y764619D03*
X-1041000Y767100D03*
X-1037800Y759614D03*
X-1038128Y754782D03*
X-1031900Y759514D03*
X-1031691Y754104D03*
X-1041200Y762059D03*
X-1034851Y767178D03*
X-1034846Y764619D03*
X-1047454Y762060D03*
X-1047449Y759500D03*
X-1047592Y754364D03*
X-1053800Y759614D03*
X-1044299Y759501D03*
X-1053743Y754283D03*
X-1044250Y754293D03*
X-1050600Y762060D03*
X-1053743Y762059D03*
X-1050600Y767314D03*
X-1044564Y767134D03*
X-1044304Y762059D03*
X-1062128Y759800D03*
X-1059628D03*
X-1025600Y777514D03*
X-1022450D03*
X-1019102Y779973D03*
X-1028181Y777457D03*
X-1018500Y775814D03*
X-1018800Y769674D03*
X-1038200Y777514D03*
X-1034846Y772296D03*
X-1031696D03*
X-1035050Y777514D03*
X-1031900D03*
X-1053950D03*
X-1056900Y777500D03*
X-1050800Y777514D03*
X-1044500D03*
X-1044900Y769500D03*
X-1047650Y777514D03*
X-1059000Y772400D03*
X-1025400Y790214D03*
X-1019102Y785091D03*
X-1022257Y790209D03*
X-1028551D03*
X-1041149Y792768D03*
X-1034846Y782532D03*
X-1031696D03*
X-1040600Y787514D03*
X-1034851Y790209D03*
Y787651D03*
X-1031701Y790209D03*
X-1047454Y792768D03*
X-1044304Y792769D03*
X-1050600Y792668D03*
X-1053743Y792769D03*
X-1047450Y785114D03*
X-1050594Y787651D03*
X-1044400Y787614D03*
X-1059925Y787575D03*
X-1025406Y795328D03*
X-1028551Y805564D03*
X-1019107Y797887D03*
X-1022257Y800446D03*
X-1025406Y797887D03*
X-1022257Y805565D03*
Y795328D03*
X-1025309Y800525D03*
X-1031696Y797886D03*
Y795328D03*
X-1042419Y807962D03*
X-1037999Y795227D03*
X-1031696Y800446D03*
X-1050594Y800546D03*
X-1044304Y800544D03*
Y795228D03*
X-1044294Y803005D03*
X-1053743Y805565D03*
X-1047444Y803005D03*
X-1053743Y795228D03*
X-1047444Y800546D03*
X-1047454Y795228D03*
X-1063050Y787100D03*
X-1060100Y795014D03*
X-1062000Y804814D03*
X-1149200Y741600D03*
X-1151730Y755718D03*
X-1092496Y796500D03*
X-1140705Y781662D03*
X-1178100Y732300D03*
X-1205700Y758000D03*
X-1090058Y788943D03*
X-1065100Y794900D03*
X-1143755Y768442D03*
X-1064600Y781300D03*
X-1199398Y758382D03*
X-1186600Y763600D03*
X-1186000Y734800D03*
X-1123325Y765912D03*
X-1092437Y799000D03*
X-1067300Y814400D03*
X-1189950Y763600D03*
X-1075273Y767900D03*
X-1146357Y765912D03*
X-1193093Y737909D03*
X-1125134Y779564D03*
X-1081100Y800800D03*
X-1083900Y777100D03*
X-1133568Y788936D03*
X-1089878Y799000D03*
X-1174200Y771200D03*
X-1072700Y744800D03*
X-1062300Y769000D03*
X-1136121Y771029D03*
X-1199300Y743000D03*
X-1012624Y768600D03*
X-1073800Y811350D03*
X-1090058Y758234D03*
X-1141239Y755676D03*
X-1077271Y796630D03*
X-1080100Y763600D03*
X-1143798Y753116D03*
X-1082300Y806900D03*
X-1131001Y755676D03*
X-1016600Y758000D03*
X-1082100Y768200D03*
X-1061600Y789300D03*
X-1177350Y771200D03*
X-1085700Y796600D03*
X-1073000Y771700D03*
X-1065100Y761000D03*
X-1084748Y788752D03*
X-1092489Y801611D03*
X-1141237Y763352D03*
X-1084800Y763500D03*
X-1141238Y730083D03*
X-1141239Y735202D03*
X-1069700Y814400D03*
X-1143798Y747999D03*
X-1156372Y745886D03*
X-1160000Y778150D03*
X-1150700Y731800D03*
X-1171056Y786632D03*
X-1038000Y809800D03*
X-1160855Y794345D03*
X-1171056Y789091D03*
X-1164757Y791651D03*
X-1141249Y786394D03*
X-1167900Y778754D03*
X-1164757Y778855D03*
X-1079820Y735201D03*
X-1171046Y781314D03*
X-1164757D03*
X-1159400Y773900D03*
X-1125884Y765912D03*
X-1171046Y778854D03*
X-1167906Y781512D03*
X-1161100Y753500D03*
X-1174000Y763600D03*
X-1158100Y763750D03*
X-1189954Y740369D03*
X-1072100Y812850D03*
X-1171300Y763700D03*
X-1128441Y758234D03*
X-1160097Y763746D03*
X-1077800Y786000D03*
X-1167000Y763600D03*
X-1167900Y745700D03*
X-1065300Y769200D03*
X-1073500Y766500D03*
X-1167900Y748146D03*
X-1164700Y745700D03*
X-1164757Y748145D03*
X-1158872Y745886D03*
X-1171051Y745586D03*
X-1171046Y748146D03*
X-1077400Y781100D03*
X-1075700Y772300D03*
X-1082950Y799750D03*
X-1165565Y731150D03*
X-1123325Y771032D03*
X-1163100Y731500D03*
X-1171046Y740369D03*
X-1171056Y737909D03*
X-1172040Y734927D03*
X-1064600Y814200D03*
X-1196322Y789122D03*
X-1148916Y765912D03*
X-1186794Y789091D03*
X-1189954Y786532D03*
X-1074823Y799300D03*
X-1079600Y776600D03*
X-1189944Y789091D03*
X-1186786Y786710D03*
X-1193094Y786532D03*
X-1189949Y791650D03*
X-1196243Y786532D03*
X-1065100Y753700D03*
X-1193094Y771177D03*
X-1075100Y792500D03*
X-1082700Y791600D03*
X-1188174Y734500D03*
X-1077300Y791700D03*
X-1090059Y750558D03*
X-1141239Y760794D03*
X-1082450Y804350D03*
X-1067000Y734400D03*
X-1058500Y738300D03*
X-1079700Y783945D03*
X-1196243Y740468D03*
X-1089800Y773500D03*
X-1073446Y807200D03*
X-1183450Y763600D03*
X-1089937Y796500D03*
X-1190000Y753300D03*
X-1092500Y804181D03*
X-1102852Y750557D03*
X-1152200Y737900D03*
X-1079800Y781286D03*
X-1074784Y781184D03*
X-1180372Y740868D03*
X-1174196Y740368D03*
X-1146366Y783834D03*
X-1193100Y755900D03*
X-1196243Y745586D03*
X-1174200Y737800D03*
X-1149200Y786100D03*
X-1105500Y809327D03*
X-1105568Y806700D03*
X-1092606Y806867D03*
X-1193094Y745586D03*
X-1196243Y748145D03*
X-1189944Y750704D03*
X-1080000Y788800D03*
X-1066500Y791900D03*
X-1072300Y786500D03*
X-1077482Y799400D03*
X-1073300Y800800D03*
X-1193000Y750700D03*
X-1082204Y784000D03*
X-1136127Y781259D03*
X-1087400Y755577D03*
X-1120600Y804132D03*
X-1186700Y745600D03*
X-1097735Y750557D03*
X-1146357Y786384D03*
X-1072800Y777800D03*
X-1151000Y725500D03*
X-1186799Y750705D03*
X-1140739Y775647D03*
X-1193094Y740468D03*
X-1133400Y783600D03*
X-1180700Y745700D03*
X-1138680Y760794D03*
X-1199393Y748145D03*
X-1138680Y768470D03*
X-1141239Y771029D03*
X-1061500Y739800D03*
X-1061200Y744700D03*
X-1143250Y775629D03*
X-1138180Y775647D03*
X-1185900Y729900D03*
X-1177300Y748145D03*
X-1054500Y744450D03*
X-1136127Y786377D03*
X-1110529Y788941D03*
X-1183649Y753264D03*
X-1193094Y743027D03*
X-1199400Y753200D03*
X-1138680Y778706D03*
X-1183654Y750705D03*
X-1177351Y753264D03*
X-1064137Y727901D03*
X-1174201Y753263D03*
X-1120766Y781265D03*
X-1146357Y776148D03*
X-1174401Y745544D03*
X-1138680Y763352D03*
X-1174196Y755822D03*
X-1074687Y760788D03*
X-1092617Y773588D03*
X-1094200Y794300D03*
X-1074600Y750660D03*
X-1174196Y748145D03*
X-1146400Y758278D03*
X-1095166Y732634D03*
X-1146363Y742886D03*
X-1141239Y768470D03*
X-1177346Y755822D03*
X-1087300Y783600D03*
X-1138680Y753116D03*
X-1087900Y758000D03*
X-1184000Y738200D03*
X-1143800Y758237D03*
X-1174206Y789091D03*
X-1174196Y786630D03*
X-1176081Y794048D03*
X-1199750Y779250D03*
X-1186784Y781363D03*
X-1193094Y783973D03*
Y781414D03*
X-1087900Y791100D03*
X-1189949Y776295D03*
X-1196243Y781414D03*
X-1189944Y773737D03*
X-1193300Y776300D03*
X-1186799Y776295D03*
X-1196243D03*
X-1199393Y784172D03*
X-1180701Y781313D03*
X-1177800Y773600D03*
X-1183649Y776295D03*
X-1174196Y781314D03*
Y778855D03*
X-1174100Y773700D03*
X-1183649Y773737D03*
X-1177351Y778854D03*
X-1199698Y766059D03*
Y771177D03*
X-1192900Y763600D03*
X-1087499Y753118D03*
X-1100293Y750557D03*
X-1115648Y771030D03*
X-1143798Y735202D03*
X-1146357Y732643D03*
X-1138679Y745439D03*
X-1174900Y731500D03*
X-1102849Y788941D03*
X-1158200Y786900D03*
X-1141239Y745439D03*
X-1138679Y740321D03*
X-1115649Y776147D03*
X-1138702Y748000D03*
X-1151148Y798659D03*
X-1095186Y781255D03*
X-1128446Y773588D03*
X-1131022Y742900D03*
X-1113089Y753117D03*
X-1141240Y742879D03*
X-1143791Y745432D03*
X-1128444Y760794D03*
X-1088650Y710050D03*
X-1100294Y758235D03*
X-1105368Y771369D03*
X-1113087Y760794D03*
X-1131001Y753117D03*
X-1158700Y801000D03*
X-1150300Y771900D03*
X-1143809Y742891D03*
X-1113000Y794150D03*
X-1115554Y794155D03*
X-1110500Y798300D03*
X-1164200Y763700D03*
X-1090059Y753118D03*
X-1107971Y768471D03*
X-1097735Y781266D03*
X-1092616Y763352D03*
X-1006500Y876900D03*
X-1113087Y758234D03*
X-1148000Y725400D03*
X-1100292Y776148D03*
X-1112890Y791700D03*
X-1115649Y788941D03*
X-1097737Y786384D03*
X-1128443Y765912D03*
X-1110500Y781800D03*
X-1107971Y765912D03*
X-1130995Y778700D03*
X-1157400Y752100D03*
X-1156600Y749751D03*
X-1097734Y758235D03*
X-1179300Y801100D03*
X-1158172Y791028D03*
X-1105313Y791600D03*
X-1115500Y801591D03*
X-1107969Y788941D03*
X-1105409D03*
X-1102852Y765912D03*
X-1097734Y760795D03*
X-1118207Y758234D03*
X-1113089Y750558D03*
X-1133641Y740400D03*
X-1092620Y781282D03*
X-1161700Y782700D03*
X-1115647Y760794D03*
X-1115648Y753117D03*
X-1138500Y783100D03*
X-1143798Y737761D03*
X-1123325Y768472D03*
X-1141228Y737772D03*
X-1125885Y760794D03*
X-1107970Y778705D03*
X-1089900Y768800D03*
X-1095175Y768470D03*
X-1120766Y750558D03*
X-1131001D03*
X-1133600Y742918D03*
X-1113090Y778707D03*
Y776148D03*
X-1105412Y783825D03*
X-1120766Y788941D03*
X-1118206Y765913D03*
X-1110529Y771030D03*
X-1133551Y737751D03*
X-1124000Y798100D03*
X-1158300Y772000D03*
X-1092616Y768470D03*
X-1154296Y798659D03*
X-1115782Y730219D03*
X-1118263Y732700D03*
X-1115648Y750558D03*
X-1090059Y760798D03*
X-1123326Y776148D03*
X-1107971Y771030D03*
X-1115648Y781265D03*
X-1125885Y768472D03*
X-1087497Y778708D03*
X-1131571Y819559D03*
X-1131100Y747900D03*
X-1133016Y774900D03*
X-1100292Y765908D03*
X-1102850Y735200D03*
X-1106950Y714750D03*
X-1213450Y761650D03*
X-1128400Y799300D03*
X-1126400Y726300D03*
X-1107970Y732643D03*
X-1115600Y732700D03*
X-1112900Y801550D03*
X-1090296Y729895D03*
X-999100Y850011D03*
X-1094650Y722450D03*
X-1108157Y807043D03*
X-1077512Y897328D03*
X-1107846Y783700D03*
X-1143424Y812781D03*
X-1034700Y873300D03*
X-1143424Y815929D03*
X-1095650Y815050D03*
X-1108200Y730314D03*
X-1097600Y799045D03*
X-1088600Y714700D03*
X-1118341Y730219D03*
X-1110618Y809327D03*
X-1131860Y797560D03*
X-1123227Y804200D03*
X-1092600Y811600D03*
X-1110686Y806700D03*
X-1123277Y732700D03*
X-1131860Y801540D03*
X-1091700Y728400D03*
X-1077350Y710150D03*
X-1110600Y735273D03*
X-1098100Y815100D03*
X-1105373Y801700D03*
X-1213150Y773450D03*
X-1105382Y768500D03*
X-1105173Y796382D03*
X-1105400Y799168D03*
X-1107932Y801700D03*
X-1081079Y819121D03*
X-1105407Y804293D03*
X-1086450Y726550D03*
X-1097400Y728000D03*
X-1090100Y732700D03*
X-1128400Y804200D03*
X-1085050Y827050D03*
X-1166600Y677600D03*
X-1100450Y717500D03*
X-1115468Y799000D03*
X-1115549Y791600D03*
X-1123324Y737761D03*
Y742879D03*
X-1125883D03*
Y740320D03*
X-1131001Y737760D03*
X-1131008Y740327D03*
X-1123324Y745439D03*
X-1125883D03*
X-1110529Y740320D03*
Y737761D03*
Y742879D03*
X-1115647Y740320D03*
Y737761D03*
X-1118206Y740320D03*
Y742879D03*
Y737761D03*
X-1115647Y742879D03*
X-1110529Y745439D03*
X-1118206D03*
X-1115647D03*
X-1107300Y743400D03*
X-1107970Y740320D03*
X-1102852Y737761D03*
Y740320D03*
X-1100293D03*
X-1102852Y742879D03*
X-1107970Y745439D03*
X-1095175Y742879D03*
Y737761D03*
X-1092616Y740320D03*
Y742879D03*
X-1095175Y740320D03*
X-1092616Y737761D03*
X-1095175Y735202D03*
X-1092616Y745439D03*
X-1087498Y737761D03*
X-1084500Y735200D03*
X-1083503Y741603D03*
X-1085850Y722600D03*
X-1205545Y830223D03*
Y827289D03*
X-1196217Y819156D03*
Y816222D03*
X-1140000Y892912D03*
X-975532Y814974D03*
X-991878Y858800D03*
X-1116200Y889400D03*
X-1035900Y822000D03*
X-1091650Y714750D03*
X-983000Y856900D03*
X-1032700Y863000D03*
X-978600Y897900D03*
X-977500Y811000D03*
X-1030000Y841600D03*
X-977429Y815610D03*
X-973805Y776455D03*
X-973800Y867400D03*
X-1125900Y704400D03*
X-981100Y868800D03*
X-979000Y868600D03*
X-1032700Y873600D03*
X-1036200Y875300D03*
X-1032700Y875600D03*
X-1064020Y877620D03*
X-973805Y800077D03*
X-993600Y864750D03*
X-973505Y785118D03*
X-973805Y796929D03*
X-994600Y874000D03*
X-1032300Y854900D03*
X-1035700Y828600D03*
X-1033300Y826700D03*
X-1033582Y829786D03*
X-1031600Y828856D03*
X-1011305Y840705D03*
X-1030000Y839600D03*
X-973505Y788266D03*
X-1015500Y839300D03*
X-1010300Y838500D03*
X-1008200Y837800D03*
X-999100Y899300D03*
X-1028200Y879000D03*
X-977500Y813300D03*
X-1030400Y875500D03*
Y863700D03*
X-1032900Y849800D03*
X-975400Y812700D03*
X-994100Y857700D03*
X-1000450Y840050D03*
X-1032600Y871600D03*
X-1011400Y876800D03*
X-974500Y870400D03*
X-975300Y809900D03*
X-973805Y773307D03*
X-1033700Y823100D03*
X-1031600Y822300D03*
X-1066137Y727899D03*
X-1094550Y709850D03*
X-1260600Y828000D03*
X-1261300Y809000D03*
X-1208300Y691600D03*
X-1197200Y732200D03*
X-1167287Y851787D03*
X-1266200Y754700D03*
X-1064600Y835000D03*
X-1180600Y893462D03*
X-1262644Y827844D03*
X-1272880Y800120D03*
X-1263200Y801700D03*
X-1184300Y733200D03*
X-1264000Y754700D03*
X-992500Y877200D03*
X-1011300Y892100D03*
X-1103750Y717600D03*
X-1211400Y712400D03*
X-1100500Y722600D03*
X-1135500Y824666D03*
X-1113000Y881019D03*
X-1249000Y805400D03*
X-1144200Y677700D03*
X-1068741Y717541D03*
X-1250000Y799200D03*
X-963100Y826500D03*
X-992100Y811700D03*
X-977464Y820100D03*
X-1091850Y722550D03*
X-975500Y817500D03*
X-1106950Y717250D03*
X-1085850Y717650D03*
X-1097360Y714760D03*
X-1140000Y883192D03*
X-1082950Y714800D03*
X-1110000Y698900D03*
X-1139800Y723500D03*
X-1174743Y718070D03*
X-1175300Y706500D03*
X-1102900Y732691D03*
X-1137344Y714513D03*
X-1109200Y707600D03*
X-1168573Y708327D03*
X-1179800Y717000D03*
X-1175105Y677705D03*
X-1077250Y717650D03*
X-1082950D03*
X-1103208Y723004D03*
X-1077654Y821070D03*
X-1085850Y714750D03*
X-1071750Y710150D03*
X-1168316Y698484D03*
X-1148600Y720400D03*
X-1088850Y717650D03*
X-1106664Y723200D03*
X-1106500Y818800D03*
X-1111700Y818600D03*
X-1089900Y820200D03*
X-1074641Y822759D03*
X-1081460Y827160D03*
X-1098450Y819950D03*
X-1211700Y709900D03*
X-1112700Y717200D03*
X-1032600Y728700D03*
X-1079950Y717650D03*
X-1100541Y714741D03*
X-1109800Y714800D03*
X-1103750Y714750D03*
X-1068750Y710150D03*
X-1094650Y717650D03*
X-1071650Y717550D03*
X-1092300Y820700D03*
X-1091850Y717650D03*
X-1088850Y722550D03*
X-1140300Y710800D03*
X-1064100Y725900D03*
X-1184947Y717007D03*
X-1177264Y716643D03*
X-1208100Y706900D03*
X-1154700Y720500D03*
X-1126000Y707400D03*
Y710600D03*
X-1123200Y656700D03*
X-986700Y689100D03*
X-1082950Y710050D03*
X-1136500Y710800D03*
X-1103750Y710100D03*
X-1144200Y710800D03*
X-1202300Y693700D03*
X-1100141Y710041D03*
X-1085850Y710050D03*
X-1202230Y699069D03*
X-1094600Y707600D03*
X-1208359Y665941D03*
X-1168627Y686673D03*
X-1166200Y687000D03*
X-1091400Y835600D03*
X-1097700Y827300D03*
X-1208100Y709700D03*
X-1110000Y709692D03*
X-1091650Y709950D03*
X-1074364Y897328D03*
X-1083610Y835600D03*
X-1094550Y714800D03*
X-1153400Y864700D03*
X-987400Y724000D03*
X-1008800Y833500D03*
X-1086700Y820100D03*
X-1120950Y677450D03*
X-1099100Y835700D03*
X-1080050Y710150D03*
X-1076900Y827500D03*
X-1144400Y720400D03*
X-1004600Y771800D03*
X-1106950Y709750D03*
X-1091400Y827082D03*
X-1129200Y707400D03*
X-1168736Y712264D03*
X-1165800Y712300D03*
X-1182979Y684300D03*
X-1207000Y748641D03*
X-1214300Y707900D03*
X-1188900Y717100D03*
X-1097550Y722450D03*
X-1140300Y714200D03*
X-1074450Y717650D03*
X-1097550D03*
X-1080050Y714850D03*
X-1190900Y683800D03*
X-1074460Y710140D03*
X-1209029Y716928D03*
X-1195400Y718900D03*
X-1199100Y697200D03*
X-1175100Y703200D03*
X-1210600Y684700D03*
X-1202200Y691495D03*
X-1208441Y670141D03*
X-1199700Y706900D03*
X-1192821Y718679D03*
X-1209800Y702200D03*
X-1186900Y711900D03*
X-1214000Y700700D03*
X-1190853Y712247D03*
X-1214200Y705200D03*
X-1175300Y701100D03*
X-1196900Y677800D03*
X-1068457Y897328D03*
X-1199200Y699400D03*
X-1193300Y683800D03*
X-1210600Y693300D03*
X-1215600Y683500D03*
X-1175500Y698400D03*
X-1197200Y683800D03*
X-1213222Y694800D03*
X-1210600Y677800D03*
X-1205900Y717700D03*
X-1207227Y686673D03*
X-1208000Y712200D03*
X-1214600Y709900D03*
X-1213000Y687850D03*
X-1179042Y677758D03*
X-1200600Y677700D03*
X-1117400Y716400D03*
X-1186916Y682300D03*
X-1019400Y704500D03*
X-1111500Y686400D03*
X-1188884Y678093D03*
X-1115300Y686450D03*
X-1038300Y678971D03*
X-1107653Y854653D03*
X-1108009Y737800D03*
X-1064600Y698500D03*
X-1108200Y858590D03*
X-1204785Y739117D03*
X-1140600Y871192D03*
X-1086175Y897259D03*
X-1140000Y880119D03*
X-1060844Y871800D03*
X-1207000Y751000D03*
X-993713Y688700D03*
X-1066800Y834812D03*
X-1127000Y825100D03*
X-1109300Y838200D03*
X-1109700Y842900D03*
X-1110100Y847100D03*
X-1122600Y832814D03*
X-1116715Y899185D03*
X-1122600Y829880D03*
X-1141478Y903122D03*
X-1168600Y815300D03*
X-1038300Y682119D03*
X-1126700Y677600D03*
X-1115300Y702200D03*
X-1112700Y714900D03*
X-1131700Y685700D03*
X-1129000Y710500D03*
X-986350Y764000D03*
X-1108200Y686400D03*
X-1148659Y814441D03*
X-1085579Y868179D03*
X-1100145Y707355D03*
X-1106421Y856621D03*
X-1049400Y870500D03*
X-1059000Y714100D03*
X-1116678Y903122D03*
X-1049300Y710400D03*
X-1058876Y870524D03*
X-1051200Y829300D03*
X-1041200Y709200D03*
X-1010159Y771559D03*
X-1170437Y851763D03*
X-1172400Y816200D03*
X-1004700Y777100D03*
X-1135200Y662900D03*
X-1066700Y841900D03*
X-1027200Y716700D03*
X-1147356Y816682D03*
X-1095421Y867821D03*
X-992400Y809400D03*
X-1048300Y699300D03*
X-1184237Y830063D03*
X-1184287Y833213D03*
X-1184200Y823800D03*
X-1077527Y878700D03*
X-1055200Y854000D03*
X-1152200Y853800D03*
X-996850Y808650D03*
X-1071605Y897328D03*
X-1147000Y823500D03*
X-1173300Y698400D03*
X-1197452Y902375D03*
X-1052200Y714300D03*
X-1004340Y733140D03*
X-1106200Y842842D03*
X-1054938Y871538D03*
X-986600Y733200D03*
X-1108000Y846900D03*
X-983100Y688400D03*
X-1074716Y850716D03*
X-1007200Y733354D03*
X-1178990Y853808D03*
X-1141000Y856419D03*
X-1191217Y838000D03*
X-954500Y870100D03*
X-1204717Y745199D03*
X-1162900Y865900D03*
X-1156195Y664595D03*
X-1141000Y859492D03*
X-1101327Y867427D03*
X-996850Y804250D03*
X-1114600Y661600D03*
X-1000800Y706400D03*
X-1000941Y814759D03*
X-1154600Y853900D03*
X-1089323Y897259D03*
X-1173900Y814800D03*
X-1140600Y868119D03*
X-1135500Y827600D03*
X-1000635Y798865D03*
X-1083421Y878300D03*
X-1106600Y838200D03*
X-1041700Y696019D03*
X-1139329Y822259D03*
X-1071621Y878800D03*
X-1106400Y852684D03*
X-1038300Y691729D03*
X-1041800Y685819D03*
X-1110000Y872871D03*
X-1182900Y813091D03*
X-1086179Y878300D03*
X-1059500Y833500D03*
X-1148900Y831500D03*
X-1007700Y771500D03*
X-1041800Y682671D03*
X-1147356Y819616D03*
X-1107884Y850716D03*
X-1020900Y916194D03*
X-1064600Y717700D03*
X-1037600Y715100D03*
X-1110000Y876019D03*
X-1068473Y878800D03*
X-1159123Y815515D03*
X-1136181Y822259D03*
X-1018000Y688600D03*
X-983083Y726517D03*
X-1113900Y656000D03*
X-1165713Y853700D03*
X-1074379Y878700D03*
X-1151500Y815100D03*
X-1041700Y692871D03*
X-1051300Y834800D03*
X-978200Y808400D03*
X-993100Y735100D03*
X-1122300Y821900D03*
X-1038300Y688581D03*
X-1010128Y776900D03*
X-1184813Y841087D03*
X-1083417Y897249D03*
X-1074542Y860558D03*
X-1080273Y878300D03*
X-1074800Y863000D03*
X-1184700Y846100D03*
X-1086958Y869897D03*
X-1050100Y705400D03*
X-1047850Y713350D03*
X-1174266Y855267D03*
X-1146900Y825700D03*
X-1007400Y776900D03*
X-1007140Y724260D03*
X-1025600Y743500D03*
X-1094600Y671600D03*
X-1154200Y812500D03*
X-1148900Y821500D03*
X-1185538Y831638D03*
X-992450Y765600D03*
X-988205Y765595D03*
X-1084100Y869900D03*
X-1170600Y815300D03*
X-1064600Y841900D03*
X-1080269Y897249D03*
X-1080952Y869900D03*
X-1163003Y813097D03*
X-1113000Y877871D03*
X-1139550Y897250D03*
X-1188283Y838000D03*
X-1054200Y705400D03*
X-1063200Y697000D03*
X-1000841Y805859D03*
X-996850Y813250D03*
X-1089327Y878300D03*
X-1090106Y869897D03*
X-1003150Y840249D03*
X-1033400Y720100D03*
X-991600Y813800D03*
X-997300Y735000D03*
X-1000859Y810359D03*
X-1192000Y827400D03*
X-993000Y737800D03*
X-1200017Y830633D03*
X-1009500Y816900D03*
X-1171332Y855267D03*
X-1202481Y839536D03*
X-1197083Y830633D03*
X-1213824Y797656D03*
Y800590D03*
X-1076100Y868100D03*
X-1202481Y836602D03*
X-1055600Y714200D03*
X-1168400Y856100D03*
X-991300Y871300D03*
X-1039200Y713600D03*
X-990200Y688700D03*
X-1029600Y715000D03*
X-972500Y761000D03*
X-1193800Y897900D03*
X-972500Y764900D03*
X-961100Y826500D03*
X-1191050Y897950D03*
X-1168062Y859762D03*
X-1000100Y697100D03*
X-1001850Y692750D03*
X-1105421Y868921D03*
X-1066100Y696900D03*
X-1008400Y694800D03*
X-1002900Y697100D03*
X-994000Y706600D03*
X-1105600Y866600D03*
X-1044000Y709100D03*
X-1035200Y709200D03*
X-1030300Y705200D03*
X-992874Y832800D03*
X-1207900Y680600D03*
X-1069000Y834900D03*
X-1013800Y797700D03*
X-1172500Y677700D03*
X-1207800Y826500D03*
X-1206302Y808031D03*
X-1204717Y748133D03*
X-1207607Y815492D03*
X-1207617Y733599D03*
X-1207607Y812558D03*
X-1205517Y816088D03*
Y819022D03*
X-1207800Y823566D03*
X-1205400Y727223D03*
X-1206302Y805097D03*
X-1207617Y730665D03*
X-1207400Y742600D03*
Y739666D03*
X-1204785Y736183D03*
X-1205400Y730157D03*
X-1168100Y681700D03*
X-1194700Y887500D03*
X-1090000Y786700D03*
X-1102853Y768471D03*
X-1101500Y773500D03*
X-1053300Y868100D03*
X-1162100Y763800D03*
X-1118150Y839550D03*
X-1076500Y727500D03*
X-1139600Y899900D03*
X-1078600Y727500D03*
X-1127145Y837100D03*
X-1128449Y791495D03*
X-1028000Y695400D03*
X-1258800Y667500D03*
X-1131008Y788936D03*
X-1128449Y786377D03*
X-1059800Y845900D03*
X-1137700Y898500D03*
X-1146386Y806900D03*
X-1141268Y804168D03*
X-950800Y843200D03*
X-1127100Y865550D03*
X-950700Y839400D03*
X-1053429Y860467D03*
X-1251700Y672100D03*
X-1242600Y666000D03*
X-1137322Y909978D03*
X-1169700Y862200D03*
X-1143768Y806800D03*
X-1180500Y815500D03*
X-1175223Y896823D03*
X-1041829Y859329D03*
X-1261300Y665800D03*
X-1127087Y867800D03*
X-1263900Y666800D03*
X-1031200Y879700D03*
X-1248900Y667400D03*
X-1030800Y858700D03*
X-980300Y899000D03*
X-1022800Y883500D03*
X-982700Y898500D03*
X-958500Y834400D03*
X-954100Y834300D03*
X-1023568Y887168D03*
X-1021100Y878000D03*
X-969055Y867660D03*
X-974700Y887600D03*
X-1126024Y735343D03*
X-1072400Y748255D03*
X-1108200Y804600D03*
X-1126100Y737978D03*
X-992300Y882600D03*
X-1027421Y909721D03*
X-965500Y865400D03*
X-951100Y881100D03*
X-1053700Y845600D03*
G54D36*
X-1271350Y663792D03*
G54D35*
X-1245298Y689193D03*
X-1272857D03*
G54D40*
X-1229178Y827544D03*
X-1241776D03*
X-1223272Y829512D03*
Y821638D03*
X-1235870D03*
X-1223272Y805890D03*
X-1235870D03*
X-1223272Y798016D03*
X-1235870D03*
X-1229178Y809827D03*
X-1241776D03*
X-1229178Y817701D03*
X-1241776D03*
X-1229178Y757068D03*
X-1241776D03*
X-1223272Y759036D03*
X-1235870D03*
X-1223272Y751162D03*
X-1235870D03*
X-1223272Y735414D03*
X-1235870D03*
X-1223272Y727540D03*
X-1235870D03*
X-1229178Y739351D03*
X-1241776D03*
X-1229178Y747225D03*
X-1241776D03*
G54D42*
X-1261748Y871162D03*
Y861162D03*
Y903366D03*
Y913366D03*
G54D33*
X-959780Y857220D03*
X-1188126D03*
X-959780Y664307D03*
X-1188126D03*
G54D44*
X-959780Y913220D03*
%LPD*%
G75*
G54D10*
X-1278700Y752900D03*
Y795600D03*
Y809900D03*
X-1278800Y824200D03*
Y866700D03*
Y876700D03*
Y886700D03*
Y896700D03*
Y906700D03*
X-1276300Y660400D03*
X-1268000Y653000D03*
X-1276600Y666200D03*
X-1277600Y714500D03*
X-1269100Y713400D03*
X-1278300Y723800D03*
X-1269100Y721900D03*
X-1268000Y727500D03*
X-1278500Y737500D03*
X-1273500Y741000D03*
X-1273900Y732200D03*
X-1274500Y753000D03*
X-1278100Y764900D03*
X-1278000Y782400D03*
X-1267093Y797107D03*
X-1275500Y806700D03*
Y808800D03*
X-1267000Y809200D03*
Y811500D03*
X-1275500Y802800D03*
X-1267100Y813900D03*
X-1270200Y828300D03*
X-1274300Y828200D03*
X-1270200Y845300D03*
X-1270100Y836600D03*
X-1278500Y845300D03*
X-1278400Y836600D03*
X-1270100Y853100D03*
X-1277800Y856700D03*
Y916700D03*
X-1269200Y925100D03*
X-1258000Y653200D03*
X-1265700Y670200D03*
X-1266000Y683500D03*
X-1263100Y691900D03*
X-1257200Y700100D03*
X-1260800Y713400D03*
X-1260700Y721800D03*
X-1259400Y741200D03*
X-1259500Y737800D03*
Y744000D03*
X-1257800Y797100D03*
X-1256500Y809700D03*
X-1260200Y845300D03*
X-1260100Y836600D03*
Y853100D03*
X-1261600Y878300D03*
Y886900D03*
X-1261700Y895500D03*
X-1248100Y653200D03*
X-1252600Y740300D03*
X-1254200Y925100D03*
X-1234000Y657800D03*
X-1238100Y653200D03*
X-1236500Y662400D03*
X-1242500Y672300D03*
X-1242200Y682500D03*
X-1234000Y672800D03*
X-1243100Y699800D03*
X-1236800Y873900D03*
X-1236700Y895800D03*
X-1234700Y904900D03*
X-1237700Y925100D03*
X-1228500Y653200D03*
X-1227000Y659400D03*
X-1230100Y662500D03*
X-1223100Y662400D03*
X-1226200Y678600D03*
Y684100D03*
X-1226093Y694744D03*
X-1226200Y689800D03*
X-1228400Y702400D03*
X-1222200D03*
X-1227700Y873200D03*
X-1227300Y884100D03*
X-1226200Y900000D03*
X-1221000Y925000D03*
X-1208600Y653200D03*
X-1218600D03*
X-1215800Y658600D03*
X-1211200Y662300D03*
X-1216200Y672700D03*
X-1215000Y678500D03*
X-1215600Y694600D03*
X-1212800Y685800D03*
X-1215100Y702800D03*
X-1215900Y706600D03*
X-1218800Y715500D03*
X-1209400Y724800D03*
X-1211100Y722500D03*
X-1218200Y721400D03*
X-1214800Y722000D03*
X-1211400Y735200D03*
X-1209300Y735000D03*
X-1213400Y757950D03*
X-1213700Y755200D03*
X-1213050Y777350D03*
X-1219100Y775100D03*
X-1219300Y769800D03*
X-1213900Y768700D03*
X-1219000Y783400D03*
X-1213800Y790600D03*
X-1215400Y809100D03*
X-1209200Y821900D03*
X-1218100Y835300D03*
Y846500D03*
X-1212200Y838200D03*
X-1218200Y853700D03*
X-1210100Y851300D03*
X-1216600Y900700D03*
X-1217700Y910300D03*
X-1199000Y653200D03*
X-1205600Y658500D03*
X-1202600Y668000D03*
Y672100D03*
X-1200000Y661200D03*
X-1200600Y723300D03*
X-1207700Y722000D03*
X-1206200Y724600D03*
X-1199397Y740469D03*
X-1198100Y734700D03*
X-1206200Y732100D03*
X-1205700Y741300D03*
X-1201300Y736700D03*
X-1199398Y745587D03*
X-1207200Y753400D03*
X-1208300Y744500D03*
X-1199398Y755823D03*
X-1199699Y768623D03*
X-1203900Y776500D03*
X-1199600Y775600D03*
X-1199398Y781714D03*
X-1199393Y786632D03*
X-1204700Y785000D03*
X-1205000Y789400D03*
X-1201700Y792900D03*
X-1204200Y809000D03*
X-1205500Y811500D03*
X-1207600Y831200D03*
X-1201300Y832500D03*
X-1200700Y841300D03*
X-1197400Y847800D03*
X-1202900Y878700D03*
X-1198150Y893950D03*
X-1202600Y906300D03*
X-1202900Y896400D03*
X-1205000Y925000D03*
X-1189100Y653200D03*
X-1194300Y687900D03*
X-1187400Y688100D03*
X-1187800Y698500D03*
X-1194500D03*
X-1194200Y702700D03*
X-1188500Y702300D03*
X-1190500Y724600D03*
X-1194700Y724400D03*
X-1186400Y723900D03*
X-1192500Y722500D03*
X-1191678Y734611D03*
X-1193000Y753300D03*
X-1196453Y753264D03*
X-1186900Y753300D03*
X-1189944Y745587D03*
X-1196248Y743028D03*
X-1189949Y758382D03*
X-1193300Y773741D03*
X-1186799Y773736D03*
X-1189949Y768618D03*
X-1189954Y781414D03*
X-1196243Y783973D03*
X-1193099Y791650D03*
X-1193600Y801800D03*
X-1190300Y802200D03*
X-1186953Y813047D03*
X-1196200Y821600D03*
X-1191300Y813500D03*
X-1196600Y828600D03*
X-1193200Y836900D03*
X-1190400Y882200D03*
X-1195000Y904700D03*
X-1188000Y902500D03*
X-1190000Y925000D03*
X-1179100Y653200D03*
X-1178900Y688100D03*
X-1179100Y698400D03*
X-1179400Y701400D03*
X-1182300Y722500D03*
X-1177900Y720400D03*
X-1177372Y737900D03*
X-1177346Y740368D03*
X-1179500Y737900D03*
X-1180700Y750500D03*
X-1177300Y745600D03*
X-1183472Y745700D03*
X-1176700Y763600D03*
X-1180260Y773600D03*
X-1183654Y786532D03*
X-1177346D03*
X-1177351Y781313D03*
X-1183549Y781314D03*
X-1178100Y815500D03*
X-1175900Y857000D03*
X-1180400Y850800D03*
X-1181200Y864200D03*
X-1176400Y881600D03*
X-1176900Y899200D03*
X-1176800Y901500D03*
X-1180700Y899200D03*
Y901600D03*
X-1180600Y904400D03*
X-1182300Y897300D03*
X-1173500Y925000D03*
X-1181200Y921300D03*
X-1168500Y653200D03*
X-1165300Y720900D03*
X-1168900Y735000D03*
X-1164496Y753303D03*
X-1171100Y753400D03*
X-1161904Y758375D03*
X-1171046Y773736D03*
X-1172650Y801200D03*
X-1171056Y791651D03*
X-1166107Y821021D03*
X-1166500Y834000D03*
X-1171400Y834100D03*
X-1166600Y829800D03*
X-1171500D03*
X-1166600Y838800D03*
X-1171500Y838900D03*
X-1170900Y857400D03*
X-1173100Y861000D03*
X-1163700Y899000D03*
X-1169900Y899100D03*
X-1172600Y899200D03*
X-1172700Y901500D03*
X-1169900Y901400D03*
X-1163700D03*
X-1167800Y924700D03*
X-1162600Y921100D03*
X-1158600Y653200D03*
X-1154700Y715200D03*
X-1161100Y720800D03*
X-1160772Y740500D03*
X-1161375Y745886D03*
X-1161607Y773836D03*
Y768918D03*
X-1160186Y787116D03*
X-1158000Y778200D03*
X-1154200Y809400D03*
X-1161600Y834100D03*
X-1161700Y829900D03*
X-1161800Y838800D03*
X-1154121Y859800D03*
X-1153500Y861500D03*
X-1158000Y925000D03*
X-1153800Y921200D03*
X-1148600Y653200D03*
X-1147700Y714536D03*
X-1145512Y714498D03*
X-1144941Y728941D03*
X-1146400Y737805D03*
X-1149200Y748300D03*
X-1143799Y755676D03*
X-1138680Y771029D03*
X-1143916Y781384D03*
X-1140014Y789873D03*
X-1138600Y804218D03*
Y801818D03*
X-1149400Y816300D03*
X-1139300Y816500D03*
X-1145800Y814800D03*
X-1146600Y821500D03*
X-1139800Y854700D03*
X-1141248Y863752D03*
X-1138900Y860600D03*
X-1138500Y872100D03*
X-1141300Y887374D03*
X-1140800Y906600D03*
X-1146500Y910300D03*
X-1142000Y925000D03*
X-1142400Y918300D03*
X-1127000Y652800D03*
X-1136900D03*
X-1133150Y714250D03*
X-1133000Y710700D03*
X-1133574Y735228D03*
X-1133561Y735202D03*
X-1128441Y750558D03*
Y753117D03*
X-1131001Y745439D03*
X-1133660Y747900D03*
X-1136296Y748134D03*
X-1133400Y763200D03*
X-1131002Y760793D03*
X-1128443Y771030D03*
X-1133596Y768505D03*
X-1131006Y773588D03*
X-1133200Y781400D03*
X-1136121Y778706D03*
X-1133600Y791463D03*
X-1136100Y801900D03*
X-1136000Y915800D03*
X-1127000Y925000D03*
X-1136900Y920900D03*
X-1117100Y652900D03*
X-1125750Y714650D03*
X-1123324Y740320D03*
X-1115647Y735202D03*
X-1123324D03*
X-1120766Y753117D03*
X-1123326Y750558D03*
X-1123325Y753116D03*
X-1115648Y765912D03*
X-1125885Y758234D03*
X-1115647D03*
X-1123325Y758235D03*
X-1118207Y760794D03*
X-1123325D03*
X-1120766Y776148D03*
X-1115648Y768471D03*
X-1118207Y771030D03*
Y768471D03*
X-1123326Y788941D03*
X-1125883Y783824D03*
Y786383D03*
X-1118207Y788942D03*
X-1115648Y783824D03*
X-1120766D03*
Y778705D03*
X-1115649Y778707D03*
X-1120300Y794000D03*
X-1118200Y791700D03*
X-1120200Y796600D03*
X-1123300Y791400D03*
X-1125700Y812200D03*
X-1117900Y801700D03*
Y833500D03*
X-1122400Y827600D03*
X-1122500Y834900D03*
X-1117000Y851941D03*
X-1116800Y863800D03*
Y862100D03*
X-1124774Y887374D03*
X-1122400Y910700D03*
X-1116322Y906878D03*
X-1116100Y913300D03*
X-1123500Y915400D03*
X-1126300Y921200D03*
X-1118300Y921100D03*
X-1106000Y652900D03*
X-1107970Y735202D03*
X-1108044Y753043D03*
X-1107970Y750558D03*
X-1110529Y765912D03*
X-1107970Y758235D03*
Y755676D03*
X-1105411D03*
X-1107970Y760795D03*
X-1105411Y760794D03*
Y758235D03*
X-1110529Y768471D03*
X-1107970Y776145D03*
X-1105412Y776148D03*
X-1105000Y786500D03*
X-1113089Y783824D03*
X-1113090Y781266D03*
X-1105412Y778707D03*
X-1109250Y796350D03*
X-1114800Y876700D03*
X-1107900Y876600D03*
X-1108300Y891000D03*
X-1110500Y925000D03*
X-1096100Y652900D03*
X-1092200Y735400D03*
X-1100293Y735202D03*
X-1092617Y753116D03*
X-1097735Y747998D03*
X-1092619Y750558D03*
X-1095175Y765911D03*
X-1092616D03*
X-1095175Y763352D03*
X-1097734Y755675D03*
X-1100294D03*
Y760794D03*
X-1092619Y758238D03*
X-1092616Y771029D03*
X-1095175D03*
X-1100294Y771026D03*
X-1100292Y768468D03*
X-1100295Y781266D03*
X-1097735Y778707D03*
X-1092617Y778708D03*
X-1095177Y786384D03*
X-1100400Y796500D03*
X-1093500Y790500D03*
X-1100350Y806800D03*
X-1097637Y804200D03*
X-1095700Y845200D03*
X-1096000Y859200D03*
X-1095800Y851700D03*
X-1092400Y880300D03*
X-1096000Y925000D03*
X-1086100Y652900D03*
X-1083300Y739100D03*
X-1087499Y735202D03*
X-1087200Y750300D03*
X-1088000Y766000D03*
X-1087900Y763500D03*
X-1084674Y760593D03*
X-1082668Y773300D03*
X-1090200Y784100D03*
X-1090057Y778708D03*
X-1087100Y789100D03*
X-1087800Y809717D03*
X-1089900Y804100D03*
Y801600D03*
X-1081800Y821300D03*
X-1090400Y845000D03*
X-1084900Y844900D03*
X-1090500Y851700D03*
X-1085000D03*
X-1085100Y859000D03*
X-1090400Y859100D03*
X-1084449Y880249D03*
X-1084730Y876670D03*
X-1084800Y894900D03*
X-1090100Y895000D03*
Y903700D03*
X-1089700Y911000D03*
Y917200D03*
X-1083000Y925000D03*
X-1088100Y921800D03*
X-1075600Y652900D03*
X-1072163Y737763D03*
X-1077261Y735202D03*
X-1069601Y753100D03*
X-1074701Y753116D03*
X-1069400Y744700D03*
X-1077261Y745439D03*
X-1077500Y761000D03*
X-1069200Y766500D03*
X-1077100Y766900D03*
X-1068600Y781500D03*
X-1074800Y783727D03*
X-1069800Y791800D03*
X-1080000Y791700D03*
X-1068700Y801568D03*
X-1077400Y804159D03*
X-1071100Y823000D03*
X-1069675Y854600D03*
X-1072900Y880600D03*
X-1078900Y880500D03*
X-1072550Y877000D03*
X-1078680Y876970D03*
X-1073000Y895100D03*
X-1079200Y895000D03*
X-1077200Y903700D03*
X-1077300Y911500D03*
X-1077400Y917700D03*
X-1070500Y925000D03*
X-1077400Y921900D03*
X-1065700Y652900D03*
X-1057400Y710000D03*
X-1060800D03*
X-1064050Y715000D03*
X-1058498Y727785D03*
X-1058600Y723500D03*
X-1056900Y735400D03*
X-1057728Y754414D03*
X-1057125Y759800D03*
X-1066800D03*
X-1057800Y767214D03*
X-1056893Y772296D03*
Y782732D03*
Y787750D03*
X-1058106Y795014D03*
X-1058800Y800414D03*
X-1066200Y822900D03*
X-1059200Y829300D03*
X-1065200Y829400D03*
X-1060535Y840321D03*
X-1064200Y849600D03*
X-1057400Y879700D03*
X-1063100Y874800D03*
X-1067880Y876750D03*
X-1066800Y895300D03*
X-1065100Y903700D03*
X-1065300Y911400D03*
X-1065400Y917600D03*
X-1065500Y921900D03*
X-1055800Y653000D03*
X-1048400Y692400D03*
X-1054300Y697400D03*
X-1053400Y710100D03*
X-1056000Y726100D03*
X-1054300Y729400D03*
X-1050599Y748665D03*
X-1047400Y767314D03*
X-1047454Y787650D03*
X-1047444Y805565D03*
X-1048500Y823200D03*
X-1056500Y823000D03*
X-1053250Y833650D03*
X-1049200Y826400D03*
X-1049300Y834100D03*
X-1052201Y840301D03*
X-1056200Y840400D03*
X-1046700Y867700D03*
X-1050400Y880200D03*
X-1053600Y894400D03*
X-1053200Y903700D03*
Y911200D03*
X-1054600Y918100D03*
X-1052000Y925000D03*
X-1034800Y653000D03*
X-1044700D03*
X-1041300Y678400D03*
X-1034800Y682600D03*
X-1035000Y678400D03*
X-1044100Y687000D03*
X-1033400Y696000D03*
X-1034300Y689000D03*
X-1036500Y692900D03*
X-1039700Y696600D03*
X-1044342Y714958D03*
X-1043900Y733000D03*
X-1042400Y734700D03*
X-1036100Y736100D03*
X-1037200Y731600D03*
X-1038128Y751914D03*
X-1041154Y754282D03*
X-1041128Y751734D03*
X-1037628Y764414D03*
X-1035028Y759614D03*
X-1041200Y759514D03*
X-1041350Y777514D03*
X-1039500Y789714D03*
X-1034651Y795228D03*
X-1034846Y800446D03*
X-1041349Y795227D03*
X-1041154Y800446D03*
X-1044900Y823200D03*
X-1033900Y869300D03*
X-1042100Y869400D03*
X-1039200Y869500D03*
X-1036700Y867200D03*
Y869200D03*
X-1042900Y880200D03*
X-1037800Y901500D03*
X-1037900Y896100D03*
X-1037700Y909300D03*
X-1040300Y924600D03*
X-1036100Y918400D03*
X-1024800Y653000D03*
X-1032800Y683700D03*
X-1028500Y688600D03*
X-1031900Y736300D03*
X-1028300Y749014D03*
X-1028456Y759501D03*
X-1022247Y767178D03*
X-1025300Y767214D03*
X-1031600D03*
X-1025400Y787655D03*
X-1031701Y787650D03*
X-1022257Y797887D03*
X-1028546Y795328D03*
X-1025401Y808224D03*
X-1027679Y822500D03*
X-1025400Y821700D03*
X-1023000Y831100D03*
X-1032100Y865200D03*
X-1030600Y866100D03*
X-1030700Y869000D03*
X-1032300Y867000D03*
X-1027200Y891000D03*
X-1029800Y887300D03*
Y894500D03*
X-1028700Y924900D03*
X-1027371Y921229D03*
X-1027421Y918279D03*
X-1014000Y652900D03*
X-1010100Y680100D03*
X-1019430Y696870D03*
X-1014700Y708700D03*
X-1018744Y726244D03*
X-1015000Y724664D03*
Y722800D03*
X-1017000Y754300D03*
X-1010400Y759400D03*
X-1016100Y760100D03*
X-1018802Y772297D03*
X-1014300Y774500D03*
X-1015700Y769300D03*
X-1016370Y778330D03*
X-1014821Y789179D03*
X-1019101Y782537D03*
X-1014998Y801202D03*
X-1019107Y800446D03*
X-1019102Y795328D03*
Y790210D03*
X-1011300Y789900D03*
X-1010500Y801000D03*
X-1014998Y809298D03*
X-1010200Y809100D03*
X-1014800Y805300D03*
X-1011800Y812200D03*
X-1014317Y813483D03*
X-1011000Y833400D03*
X-1020700Y828300D03*
X-1020600Y853400D03*
X-1011900Y853500D03*
X-1012092Y858672D03*
X-1017000Y858700D03*
X-1020300Y858800D03*
X-1013500Y863900D03*
X-1017300Y867700D03*
X-1017800Y862600D03*
X-1020200Y880000D03*
X-1020900Y894600D03*
X-1021100Y887400D03*
X-1018400Y925000D03*
X-1021029Y921229D03*
X-1012700Y918900D03*
X-1004100Y652900D03*
X-1009000Y762300D03*
X-1009100Y768000D03*
Y803300D03*
X-1007800Y822400D03*
X-1003900Y833000D03*
X-1001700Y831200D03*
X-1006900Y853400D03*
X-1008700Y858800D03*
X-1004600Y868100D03*
X-1009800Y863800D03*
X-1009300Y867700D03*
X-1003500Y860800D03*
X-1003800Y898900D03*
X-1001700D03*
X-1007800Y898100D03*
X-1002100Y921800D03*
X-994200Y653000D03*
X-990300Y704500D03*
X-994600Y700000D03*
X-992300Y713200D03*
X-987500Y712900D03*
X-989100Y709700D03*
X-997000Y749000D03*
X-991558Y759942D03*
X-992200Y786700D03*
X-987700Y787400D03*
X-992200Y782300D03*
X-987900Y782100D03*
X-992000Y792300D03*
X-987900Y791000D03*
X-988200Y824200D03*
X-987553Y813800D03*
X-987708Y815795D03*
X-990659Y826500D03*
X-990300Y829900D03*
X-996800Y833300D03*
X-990400Y828200D03*
X-994600Y829900D03*
X-991800Y829100D03*
X-997800Y827200D03*
X-995700Y825200D03*
X-989200Y877300D03*
Y879400D03*
X-997300Y875400D03*
X-990600Y884100D03*
X-992800Y886000D03*
X-995100Y885994D03*
X-990000Y921400D03*
X-983100Y653000D03*
X-978900Y677000D03*
Y681100D03*
X-982600Y691000D03*
Y693900D03*
X-986100Y691500D03*
Y694100D03*
X-978900Y685500D03*
X-982600Y697100D03*
X-986100Y696700D03*
X-982600Y700400D03*
X-986000Y700100D03*
X-984400Y714100D03*
X-982900Y710200D03*
X-983500Y733600D03*
X-977044Y769344D03*
X-975200Y778400D03*
X-982700Y781800D03*
X-982800Y785900D03*
Y792300D03*
X-981000Y859500D03*
X-984850Y858750D03*
X-983000Y859400D03*
X-983600Y881600D03*
X-976400Y881500D03*
X-975300Y899000D03*
X-978100Y921600D03*
X-963200Y653000D03*
X-973200D03*
X-968730Y656790D03*
X-965200Y673200D03*
X-970000Y673000D03*
X-974400Y683200D03*
X-974300Y679200D03*
Y674900D03*
X-974617Y689783D03*
X-974730Y696870D03*
X-974100Y700400D03*
X-972200Y703100D03*
X-971900Y696900D03*
X-974200Y705500D03*
X-968400Y718900D03*
X-971100Y713900D03*
X-972300Y707900D03*
X-973400Y718300D03*
X-973900Y710800D03*
X-970800Y724000D03*
X-972300Y732800D03*
X-963677Y740069D03*
X-970698Y740405D03*
X-968700Y746500D03*
X-973100Y749000D03*
X-973000Y744200D03*
X-972465Y757065D03*
X-972976Y768876D03*
X-973300Y782900D03*
X-972300Y792498D03*
X-973100Y794700D03*
X-974600Y803100D03*
X-972800Y801900D03*
X-969500Y806500D03*
X-970100Y810200D03*
X-970500Y814800D03*
X-967900Y813000D03*
X-967700Y816800D03*
X-971100Y834700D03*
X-972900Y834900D03*
X-970300Y829000D03*
X-969500Y835900D03*
X-967910Y839810D03*
X-969900Y839600D03*
X-967500Y842400D03*
X-972700Y861100D03*
Y862900D03*
X-964700Y899100D03*
X-971900Y899000D03*
X-968400Y899300D03*
X-964300Y923400D03*
X-960100Y673400D03*
X-953927Y739728D03*
X-959500Y743800D03*
X-960700Y754700D03*
X-952600Y895500D03*
X-952400Y920200D03*
X-951200Y656400D03*
X-948300Y665400D03*
X-948882Y739089D03*
X-948900Y743500D03*
X-948898Y748580D03*
X-948707Y754413D03*
X-947800Y758100D03*
Y780300D03*
Y800300D03*
Y820300D03*
X-950500Y832200D03*
X-950400Y826700D03*
X-947800Y840300D03*
X-950400Y847000D03*
X-950300Y855000D03*
X-947800Y860300D03*
X-950500Y866400D03*
X-947800Y873200D03*
X-950500Y875600D03*
X-947800Y887000D03*
X-950500Y888300D03*
X-947800Y898300D03*
G54D20*
X-1168953Y659307D03*
Y669307D03*
X-1158953Y659307D03*
X-1148953D03*
X-1158953Y669307D03*
X-1148953D03*
X-1138953Y659307D03*
Y669307D03*
X-1128953Y659307D03*
Y669307D03*
X-1118953Y659307D03*
Y669307D03*
X-1108953Y659307D03*
Y669307D03*
X-1098953Y659307D03*
Y669307D03*
X-1088953Y659307D03*
X-1078953D03*
X-1088953Y669307D03*
X-1078953D03*
X-1068953Y659307D03*
Y669307D03*
X-1058953Y659307D03*
Y669307D03*
X-1048953Y659307D03*
Y669307D03*
X-1038953Y659307D03*
Y669307D03*
X-1028953Y659307D03*
Y669307D03*
X-1018953Y659307D03*
X-1008953D03*
X-1018953Y669307D03*
X-1008953D03*
X-998953Y659307D03*
Y669307D03*
X-988953Y659307D03*
Y669307D03*
X-978953Y659307D03*
Y669307D03*
G54D11*
X-1271350Y655800D03*
Y663792D03*
X-1241350Y659796D03*
G54D30*
G01X-1280646Y662339D02*
G03X-1268835Y650528I11811J0D01*
G01X-1280646Y915189D02*
Y662339D01*
G01X-1268835Y927000D02*
G03X-1280646Y915189I0J-11811D01*
G01X-1268835Y650528D02*
X-957811D01*
G01Y927000D02*
X-1268835D01*
G01X-1182926Y664307D02*
G03I-5200J0D01*
G01Y857220D02*
G03I-5200J0D01*
G01Y913220D02*
G03I-5200J0D01*
G01X-954580Y664307D02*
G03I-5200J0D01*
G01Y857220D02*
G03I-5200J0D01*
G01Y913220D02*
G03I-5200J0D01*
G01X-957811Y650528D02*
G03X-946000Y662339I0J11811D01*
G01Y915189D02*
G03X-957811Y927000I-11811J0D01*
G01X-946000Y662339D02*
Y915189D01*
G54D12*
X-1272857Y689193D03*
X-1245298D03*
G54D21*
X-1110676Y897822D03*
Y907822D03*
G54D31*
G01X-1280646Y662339D02*
Y915189D01*
G02X-1268835Y927000I11811J0D01*
G01X-957811D01*
G02X-946000Y915189I0J-11811D01*
G01Y662339D01*
G02X-957811Y650528I-11811J0D01*
G01X-1268835D01*
G02X-1280646Y662339I0J11811D01*
G54D22*
X-1110676Y917822D03*
G54D13*
G01X-1256158Y717422D02*
X-1249650D01*
G01X-1256158Y769154D02*
X-1249650D01*
G01X-1256158Y787898D02*
X-1249650D01*
G01X-1256158Y839630D02*
X-1249650D01*
G01Y717422D02*
X-1243142D01*
G01X-1249650Y769154D02*
Y775662D01*
G01Y769154D02*
X-1243142D01*
G01X-1249650Y781390D02*
Y787898D01*
G01D02*
X-1243142D01*
G01X-1249650Y839630D02*
Y846138D01*
G01Y839630D02*
X-1243142D01*
G01X-1233796Y769154D02*
X-1227288D01*
G01X-1233796Y787898D02*
X-1227288D01*
G01X-1233796Y839630D02*
X-1227288D01*
G01X-1233756Y850343D02*
Y856260D01*
G01X-1239673D02*
X-1233756D01*
G01D02*
X-1227839D01*
G01X-1233756Y918268D02*
Y924185D01*
G01X-1239673Y918268D02*
X-1233756D01*
G01D02*
X-1227839D01*
G01X-1227288Y769154D02*
Y775662D01*
G01Y781390D02*
Y787898D01*
G01Y839630D02*
Y846138D01*
G01X-1100543Y907056D02*
Y913564D01*
G01D02*
Y920072D01*
G01X-1043457Y907056D02*
Y913564D01*
G01D02*
Y920072D01*
G01X-1006679Y916268D02*
Y921201D01*
G01X-1009643D02*
X-1006679D01*
G01D02*
X-1003715D01*
G01X-975785D02*
X-972821D01*
G01Y904665D02*
Y909598D01*
G01Y904665D02*
X-969857D01*
G01X-972821Y916268D02*
Y921201D01*
G01D02*
X-969857D01*
X-1266350Y665250D03*
X-1254500Y664400D03*
X-1215300Y796100D03*
X-1211150Y812150D03*
Y808650D03*
Y801250D03*
Y820650D03*
Y830950D03*
X-1195200Y758800D03*
X-1195300Y768100D03*
X-1167000Y758700D03*
X-1167050Y768150D03*
X-1156079Y688721D03*
X-1047800Y769792D03*
X-1052800Y772600D03*
X-1049700Y784800D03*
X-1052600Y780200D03*
X-1033400Y882300D03*
X-1024600Y774474D03*
X-1025100Y769700D03*
X-1029500Y772600D03*
X-1025500Y784900D03*
X-1023200Y782200D03*
X-1029500D03*
X-966090Y691090D03*
X-970800Y687690D03*
X-964500Y705100D03*
Y700100D03*
X-964690Y697150D03*
X-968240Y705180D03*
X-968370Y700260D03*
Y696760D03*
X-964500Y715100D03*
Y710100D03*
X-968280Y715050D03*
X-968370Y710030D03*
X-964500Y720100D03*
Y725100D03*
Y730100D03*
X-968320Y730060D03*
X-968430Y725080D03*
X-964500Y735100D03*
X-969600Y875100D03*
X-967300Y875579D03*
X-968200Y874400D03*
X-952970Y676390D03*
Y681390D03*
Y691390D03*
Y686390D03*
X-957360Y687420D03*
X-960100Y689580D03*
X-963090Y690790D03*
X-960660Y705060D03*
X-960850Y697110D03*
X-960660Y700060D03*
X-957300Y696970D03*
X-960660Y715060D03*
Y710060D03*
Y730060D03*
Y725060D03*
Y720060D03*
X-959500Y735100D03*
X-954500D03*
X-954550Y732440D03*
X-958142Y826058D03*
X-954142Y826042D03*
X-953978Y867622D03*
X-954000Y873700D03*
X-950200Y671800D03*
X-950530Y683320D03*
Y678320D03*
Y693320D03*
Y688320D03*
Y698320D03*
X-949500Y735100D03*
X-949430Y732470D03*
G54D14*
X-1249650Y717422D03*
Y769154D03*
Y787898D03*
Y839630D03*
X-1227288Y717422D03*
Y769154D03*
Y787898D03*
Y839630D03*
G54D23*
X-1100543Y889942D03*
X-1043457D03*
G54D15*
X-1245764Y864764D03*
Y909764D03*
G54D24*
X-1100543Y913564D03*
X-1043457D03*
G54D16*
X-1232700Y689193D03*
G54D25*
X-1006679Y904665D03*
Y921201D03*
X-972821Y904665D03*
Y921201D03*
G54D17*
X-1235456Y700217D03*
G54D26*
X-1001128Y906831D03*
X-978372D03*
G54D18*
X-1241776Y729508D03*
X-1235870Y743288D03*
X-1241776Y799984D03*
X-1235870Y813764D03*
X-1229178Y729508D03*
X-1223272Y743288D03*
X-1229178Y799984D03*
X-1223272Y813764D03*
G54D27*
X-963561Y778392D03*
Y809888D03*
G54D28*
G01X-1227288Y717422D02*
X-1236522D01*
G01X-1100543Y889942D02*
Y899743D01*
G01D02*
X-1101500Y900700D01*
G01X-1043457Y889942D02*
Y898843D01*
G01X-1006679Y904665D02*
Y911379D01*
G54D19*
X-1233756Y856260D03*
Y918268D03*
G54D29*
G01X-1244347Y729508D02*
X-1241776D01*
G01X-1244347Y799984D02*
X-1241776D01*
G01X-1232700Y683669D02*
Y689193D01*
G01D02*
Y694717D01*
G01X-1236255Y689193D02*
X-1232700D01*
G01D02*
X-1229145D01*
G01X-1235456Y696662D02*
Y700217D01*
G01X-1240980D02*
X-1235456D01*
G01D02*
X-1229932D01*
G01X-1241776Y726937D02*
Y729508D01*
G01D02*
Y732079D01*
G01Y729508D02*
X-1239205D01*
G01X-1235870Y740717D02*
Y743288D01*
G01D02*
Y745859D01*
G01X-1238441Y743288D02*
X-1235870D01*
G01D02*
X-1233299D01*
G01X-1241776Y797413D02*
Y799984D01*
G01D02*
Y802555D01*
G01Y799984D02*
X-1239205D01*
G01X-1235870Y811193D02*
Y813764D01*
G01D02*
Y816335D01*
G01X-1238441Y813764D02*
X-1235870D01*
G01D02*
X-1233299D01*
G01X-1229178Y726937D02*
Y729508D01*
G01D02*
Y732079D01*
G01X-1231749Y729508D02*
X-1229178D01*
G01D02*
X-1226607D01*
G01X-1223272Y740717D02*
Y743288D01*
G01D02*
Y745859D01*
G01X-1225843Y743288D02*
X-1223272D01*
G01D02*
X-1220701D01*
G01X-1229178Y797413D02*
Y799984D01*
G01D02*
Y802555D01*
G01X-1231749Y799984D02*
X-1229178D01*
G01D02*
X-1226607D01*
G01X-1223272Y811193D02*
Y813764D01*
G01D02*
Y816335D01*
G01X-1225843Y813764D02*
X-1223272D01*
G01D02*
X-1220701D01*
G01X-1168953Y665555D02*
Y669307D01*
G01D02*
Y673059D01*
G01X-1172705Y669307D02*
X-1168953D01*
G01D02*
X-1165201D01*
G01X-1138953Y655555D02*
Y659307D01*
G01D02*
Y663059D01*
G01X-1142705Y659307D02*
X-1138953D01*
G01D02*
X-1135201D01*
G01X-1118953Y655555D02*
Y659307D01*
G01D02*
Y663059D01*
G01X-1122705Y659307D02*
X-1118953D01*
G01X-1110676Y913470D02*
Y917822D01*
G01X-1115028D02*
X-1110676D01*
G01X-1098953Y665555D02*
Y669307D01*
G01D02*
Y673059D01*
G01X-1102705Y669307D02*
X-1098953D01*
G01D02*
X-1095201D01*
G01X-1068953Y655555D02*
Y659307D01*
G01D02*
Y663059D01*
G01X-1072705Y659307D02*
X-1068953D01*
G01D02*
X-1065201D01*
G01X-1038953Y655555D02*
Y659307D01*
G01D02*
Y663059D01*
G01X-1042705Y659307D02*
X-1038953D01*
G01D02*
X-1035201D01*
G01X-1022705Y669307D02*
X-1018953D01*
G01Y665555D02*
Y669307D01*
G01D02*
Y673059D01*
G01Y669307D02*
X-1015201D01*
G01X-998953Y655555D02*
Y659307D01*
G01D02*
Y663059D01*
G01X-1002705Y659307D02*
X-998953D01*
G01D02*
X-995201D01*
M02*
