G04 ================== begin FILE IDENTIFICATION RECORD ==================*
G04 Layout Name:  BeagleV_15.brd*
G04 Film Name:    L3_LAY3*
G04 File Format:  Gerber RS274X*
G04 File Origin:  Cadence Allegro 17.2-061*
G04 Origin Date:  Wed Apr 21 13:44:29 2021*
G04 *
G04 Layer:  VIA CLASS/ART03*
G04 Layer:  PIN/ART03*
G04 Layer:  ETCH/ART03*
G04 Layer:  BOARD GEOMETRY/OUTLINE*
G04 *
G04 Offset:    (0.00 0.00)*
G04 Mirror:    No*
G04 Mode:      Positive*
G04 Rotation:  0*
G04 FullContactRelief:  No*
G04 UndefLineWidth:     4.00*
G04 ================== end FILE IDENTIFICATION RECORD ====================*
%FSLAX25Y25*MOIN*%
%IR0*IPPOS*OFA0.00000B0.00000*MIA0B0*SFA1.00000B1.00000*%
%ADD15C,.014*%
%ADD12C,.016*%
%ADD16C,.075*%
%ADD18C,.02362*%
%ADD19C,.03543*%
%ADD11C,.05118*%
%ADD10C,.04724*%
%ADD17R,.075X.075*%
%ADD14C,.06299*%
%ADD13C,.12795*%
%ADD20C,.01*%
%ADD21C,.02*%
%ADD22C,.015*%
%ADD23C,.005*%
%ADD24C,.004*%
%ADD25C,.0053*%
%ADD26C,.0044*%
%ADD27C,.0085*%
%ADD29C,.02004*%
%ADD32C,.07102*%
%ADD31C,.0709*%
%ADD28C,.0396*%
%ADD30C,.16006*%
G75*
%LPD*%
G75*
G36*
G01X-1199300Y874300D02*
X-1176400D01*
X-1175300Y873200D01*
Y867600D01*
X-1176800Y866100D01*
X-1191900D01*
X-1201400Y856600D01*
Y842017D01*
G03X-1201702Y841300I700J-717D01*
G03X-1201450Y840636I1001J0D01*
G01X-1201400Y840579D01*
Y840154D01*
X-1201687D01*
X-1201747Y840218D01*
G03X-1202481Y840538I-734J-682D01*
G03Y838534I0J-1002D01*
G03X-1201994Y838660I1J1002D01*
G02X-1201400Y838311I194J-350D01*
G01Y837827D01*
G02X-1201994Y837478I-400J1D01*
G03X-1202481Y837604I-486J-876D01*
G03Y835600I0J-1002D01*
G03X-1201994Y835726I1J1002D01*
G02X-1201400Y835377I194J-350D01*
G01Y833509D01*
X-1201550Y833470D01*
G03Y831530I250J-970D01*
G01X-1201400Y831491D01*
Y827900D01*
X-1207524Y821776D01*
G02X-1208204Y822013I-283J283D01*
G03X-1208216Y822089I-995J-118D01*
G02X-1207817Y822564I393J75D01*
G01X-1207800D01*
G03X-1208802Y823566I0J1002D01*
G03X-1208784Y823377I1001J0D01*
G02X-1209183Y822902I-393J-75D01*
G01X-1209200D01*
G03X-1210202Y821929I0J-1002D01*
G02X-1210758Y821572I-400J11D01*
G03X-1211150Y821652I-392J-922D01*
G03Y819648I0J-1002D01*
G03X-1210148Y820621I0J1002D01*
G02X-1209592Y820978I400J-11D01*
G03X-1209313Y820904I394J921D01*
G02X-1209076Y820224I-46J-397D01*
G01X-1217600Y811700D01*
X-1221570D01*
G02X-1221856Y812380I0J400D01*
G03X-1221292Y813764I-1416J1384D01*
G03X-1225252I-1980J0D01*
G03X-1224688Y812380I1980J0D01*
G02X-1224974Y811700I-286J-280D01*
G01X-1228535D01*
X-1228565Y811710D01*
G03X-1229178Y811807I-612J-1883D01*
G03X-1229791Y811710I-1J-1980D01*
G01X-1229821Y811700D01*
X-1234168D01*
G02X-1234454Y812380I0J400D01*
G03X-1233890Y813764I-1416J1384D01*
G03X-1237850I-1980J0D01*
G03X-1237286Y812380I1980J0D01*
G02X-1237572Y811700I-286J-280D01*
G01X-1241133D01*
X-1241163Y811710D01*
G03X-1241776Y811807I-612J-1883D01*
G03X-1242389Y811710I-1J-1980D01*
G01X-1242419Y811700D01*
X-1266008D01*
X-1266055Y811833D01*
G03X-1266519Y812379I-945J-333D01*
G02X-1266548Y813064I192J351D01*
G03X-1266098Y813900I-552J836D01*
G03X-1268102I-1002J0D01*
G03X-1267581Y813021I1002J0D01*
G02X-1267552Y812336I-192J-351D01*
G03X-1267945Y811833I552J-836D01*
G01X-1267992Y811700D01*
X-1274600D01*
X-1275900Y813000D01*
Y822300D01*
X-1270749Y827451D01*
X-1270623Y827391D01*
G03X-1270200Y827298I422J909D01*
G03X-1269198Y828300I0J1002D01*
G03X-1269291Y828723I-1002J1D01*
G01X-1269351Y828849D01*
X-1266800Y831400D01*
X-1237727D01*
G02X-1237415Y830750I0J-400D01*
G03X-1237850Y829512I1544J-1238D01*
G03X-1233890I1980J0D01*
G03X-1234325Y830750I-1979J0D01*
G02X-1234013Y831400I312J250D01*
G01X-1225129D01*
G02X-1224817Y830750I0J-400D01*
G03X-1225252Y829512I1544J-1238D01*
G03X-1221292I1980J0D01*
G03X-1221727Y830750I-1979J0D01*
G02X-1221415Y831400I312J250D01*
G01X-1219000D01*
X-1216400Y834000D01*
Y857200D01*
X-1199300Y874300D01*
G37*
G36*
G01X-1035700Y896900D02*
X-1003300D01*
X-1001600Y895200D01*
Y891000D01*
X-1003200Y889400D01*
X-1027700D01*
X-1028800Y888300D01*
Y888197D01*
G02X-1029133Y888048I-200J0D01*
G03X-1029800Y888302I-667J-749D01*
G03Y886298I0J-1002D01*
G03X-1029133Y886552I0J1003D01*
G02X-1028800Y886403I133J-149D01*
G01Y886200D01*
X-1024600Y882000D01*
Y867100D01*
X-1030700Y861000D01*
X-1051300D01*
X-1051784Y860516D01*
G02X-1052455Y860704I-283J283D01*
G03X-1053429Y861469I-974J-238D01*
G03X-1054431Y860467I0J-1002D01*
G03X-1053666Y859493I1003J0D01*
G02X-1053478Y858822I-95J-388D01*
G01X-1057700Y854600D01*
Y844400D01*
X-1060816Y841284D01*
X-1060860Y841269D01*
G03X-1061496Y840604I325J-948D01*
G01X-1061500Y840600D01*
X-1068600D01*
X-1070500Y842500D01*
Y846800D01*
X-1072500Y848800D01*
X-1091500D01*
X-1094990Y852290D01*
X-1094999Y852301D01*
G03X-1095199Y852501I-801J-601D01*
G01X-1095210Y852510D01*
X-1105500Y862800D01*
X-1109200D01*
X-1113300Y858700D01*
X-1139654D01*
G02X-1140038Y859212I0J400D01*
G03X-1140001Y859417I-962J279D01*
G02X-1139402Y859733I399J-30D01*
G03X-1138900Y859598I502J866D01*
G03Y861602I0J1002D01*
G03X-1139899Y860675I0J-1002D01*
G02X-1140498Y860359I-399J30D01*
G03X-1141000Y860494I-502J-866D01*
G03X-1142002Y859492I0J-1002D01*
G03X-1141962Y859212I1002J0D01*
G02X-1142346Y858700I-384J-112D01*
G01X-1146800D01*
X-1150959Y854541D01*
G02X-1151515Y854532I-283J283D01*
G03X-1152200Y854802I-684J-732D01*
G03X-1153036Y854352I0J-1002D01*
G02X-1153721Y854381I-334J221D01*
G03X-1154600Y854902I-879J-481D01*
G03Y852898I0J-1002D01*
G03X-1153764Y853348I0J1002D01*
G02X-1153079Y853319I334J-221D01*
G03X-1152932Y853115I880J479D01*
G02X-1152941Y852559I-292J-273D01*
G01X-1165934Y839566D01*
X-1166069Y839650D01*
G03X-1166600Y839802I-531J-850D01*
G03X-1167602Y838800I0J-1002D01*
G03X-1167450Y838269I1002J0D01*
G01X-1167366Y838134D01*
X-1168500Y837000D01*
Y833700D01*
X-1171399Y830801D01*
X-1171484Y830802D01*
X-1171500D01*
G03X-1172502Y829800I0J-1002D01*
G01Y829784D01*
X-1172501Y829699D01*
X-1177600Y824600D01*
X-1183597D01*
G03X-1184803I-603J-799D01*
G01X-1186800D01*
X-1188000Y823400D01*
X-1190800D01*
X-1191300Y823900D01*
Y826683D01*
G03X-1191036Y827128I-700J716D01*
G01X-1191021Y827179D01*
X-1185626Y832574D01*
G02X-1185042Y832554I283J-283D01*
G03X-1184287Y832211I755J659D01*
G03X-1183285Y833213I0J1002D01*
G03X-1183628Y833968I-1002J0D01*
G02X-1183648Y834552I263J301D01*
G01X-1175000Y843200D01*
Y846200D01*
X-1170442Y850758D01*
X-1170367Y850763D01*
G03X-1169437Y851693I-70J1000D01*
G01X-1169432Y851768D01*
X-1167387Y853813D01*
G02X-1166708Y853578I282J-283D01*
G03X-1165713Y852698I995J123D01*
G03X-1164711Y853700I0J1002D01*
G03X-1165591Y854695I-1003J0D01*
G02X-1165826Y855374I48J397D01*
G01X-1152800Y868400D01*
X-1141997D01*
G02X-1141598Y868034I0J-400D01*
G03X-1139602I998J85D01*
G02X-1139203Y868400I399J-34D01*
G01X-1128475D01*
G02X-1128079Y867943I0J-400D01*
G03X-1128089Y867800I992J-141D01*
G03X-1127690Y866999I1002J-1D01*
G02X-1127693Y866358I-240J-319D01*
G03X-1128102Y865550I594J-808D01*
G03X-1126098I1002J0D01*
G03X-1126497Y866351I-1002J1D01*
G02X-1126494Y866992I240J319D01*
G03X-1126085Y867800I-594J808D01*
G03X-1126095Y867943I-1002J2D01*
G02X-1125699Y868400I396J57D01*
G01X-1107100D01*
X-1105800Y869700D01*
X-1104900D01*
X-1102469Y867269D01*
X-1102458Y867209D01*
G03X-1101839Y866395I1131J218D01*
G01X-1101809Y866381D01*
X-1100514Y865086D01*
G03X-1100031Y864797I815J814D01*
G01X-1099983Y864783D01*
X-1099100Y863900D01*
X-1076800D01*
X-1072239Y868461D01*
G02X-1071655Y868441I283J-283D01*
G03X-1071310Y868186I754J660D01*
G02X-1071210Y867919I-82J-183D01*
G03X-1071302Y867500I910J-419D01*
G03X-1069298I1002J0D01*
G03X-1069890Y868414I-1002J0D01*
G02X-1069990Y868681I82J183D01*
G03X-1069898Y869100I-910J419D01*
G03X-1070241Y869855I-1002J0D01*
G02X-1070261Y870439I263J301D01*
G01X-1066400Y874300D01*
X-1063968D01*
G03X-1062232I868J499D01*
G01X-1043900D01*
X-1038700Y879500D01*
Y893900D01*
X-1037310Y895290D01*
G03X-1037090Y895510I-590J810D01*
G01X-1035700Y896900D01*
G37*
G36*
G01X-1078450Y735900D02*
X-1078173D01*
Y735619D01*
X-1078188Y735582D01*
G03X-1078263Y735202I927J-380D01*
G03X-1077261Y734200I1002J0D01*
G03X-1076606Y734444I0J1001D01*
G01X-1076465Y734565D01*
X-1072238Y730338D01*
X-1072321Y730203D01*
G03X-1072471Y729676I852J-527D01*
G01Y729675D01*
G03X-1071469Y728673I1002J0D01*
G01X-1071468D01*
G03X-1071020Y728779I-1J1002D01*
G01X-1070978Y728800D01*
X-1069939D01*
X-1069910Y728791D01*
G03X-1069617Y728748I290J959D01*
G03X-1069324Y728791I3J1002D01*
G01X-1069295Y728800D01*
X-1061400D01*
X-1060600Y728000D01*
Y722800D01*
X-1061400Y722000D01*
X-1084462D01*
G02X-1084858Y722457I0J400D01*
G03X-1084848Y722600I-992J141D01*
G03X-1086852I-1002J0D01*
G03X-1086842Y722457I1002J-2D01*
G02X-1087238Y722000I-396J-57D01*
G01X-1087457D01*
G02X-1087854Y722443I1J400D01*
G03X-1087848Y722550I-996J110D01*
G03X-1089852I-1002J0D01*
G03X-1089846Y722443I1002J3D01*
G02X-1090243Y722000I-398J-43D01*
G01X-1090457D01*
G02X-1090854Y722443I1J400D01*
G03X-1090848Y722550I-996J110D01*
G03X-1092852I-1002J0D01*
G03X-1092846Y722443I1002J3D01*
G02X-1093244Y722000I-398J-43D01*
G01X-1093249D01*
G02X-1093649Y722414I0J400D01*
G03X-1093648Y722450I-1001J46D01*
G03X-1094650Y723452I-1002J0D01*
G03X-1095497Y722986I0J-1003D01*
G02X-1096117Y722917I-338J214D01*
G01X-1107197Y733997D01*
G02X-1107215Y734543I283J283D01*
G03X-1106968Y735202I-756J659D01*
G03X-1107828Y736194I-1002J0D01*
G01X-1108000Y736219D01*
Y736784D01*
X-1107835Y736813D01*
G03Y738787I-174J987D01*
G01X-1108000Y738816D01*
Y739303D01*
X-1107828Y739328D01*
G03Y741312I-142J992D01*
G01X-1108000Y741337D01*
Y742031D01*
G02X-1107514Y742421I400J-1D01*
G03X-1107301Y742398I213J979D01*
G01X-1107300D01*
G03X-1106298Y743400I0J1002D01*
G03X-1106927Y744330I-1002J0D01*
G02X-1107118Y744912I149J371D01*
G03X-1106968Y745439I-851J527D01*
G03X-1107970Y746441I-1002J0D01*
G03X-1108803Y745996I0J-1002D01*
G02X-1109485Y746023I-333J222D01*
G03X-1110529Y746635I-1044J-584D01*
G03X-1111250Y746393I0J-1195D01*
G01X-1111388Y746288D01*
X-1114934Y749834D01*
X-1114835Y749972D01*
G03X-1114646Y750558I-814J586D01*
G03X-1115648Y751560I-1002J0D01*
G01X-1115650D01*
G03X-1116362Y751262I1J-1002D01*
G01X-1119800Y754700D01*
Y766600D01*
X-1118770Y767630D01*
X-1118642Y767568D01*
G03X-1118208Y767469I434J903D01*
G01X-1118207D01*
G03X-1117205Y768471I0J1002D01*
G01Y768472D01*
G03X-1117304Y768906I-1002J0D01*
G01X-1117366Y769034D01*
X-1116211Y770189D01*
X-1116083Y770127D01*
G03X-1115649Y770028I434J903D01*
G01X-1115648D01*
G03X-1114962Y770300I0J1001D01*
G01X-1111215D01*
G03X-1109843I686J729D01*
G01X-1108657D01*
G03X-1107285I686J729D01*
G01X-1100985D01*
G03X-1099603I691J727D01*
G01X-1095862D01*
G03X-1094488I687J728D01*
G01X-1093303D01*
G03X-1091929I687J728D01*
G01X-1091400D01*
X-1090619Y769519D01*
X-1090717Y769381D01*
G03X-1090902Y768802I817J-580D01*
G01Y768800D01*
G03X-1090400Y767932I1001J0D01*
G01Y761748D01*
X-1090510Y761693D01*
G03Y759903I451J-895D01*
G01X-1090400Y759848D01*
Y759184D01*
X-1090510Y759128D01*
G03Y757340I452J-894D01*
G01X-1090400Y757284D01*
Y754068D01*
X-1090510Y754013D01*
G03Y752223I451J-895D01*
G01X-1090400Y752168D01*
Y751508D01*
X-1090510Y751453D01*
G03Y749663I451J-895D01*
G01X-1090400Y749608D01*
Y741200D01*
X-1088221Y739021D01*
G02X-1088217Y738459I-283J-283D01*
G03X-1088500Y737761I719J-698D01*
G03X-1087498Y736759I1002J0D01*
G03X-1086800Y737042I0J1002D01*
G02X-1086238Y737038I279J-287D01*
G01X-1085168Y735968D01*
X-1085281Y735828D01*
G03X-1085502Y735200I782J-628D01*
G03X-1083498I1002J0D01*
G01Y735201D01*
G03X-1083521Y735414I-1002J0D01*
G02X-1083131Y735900I391J86D01*
G01X-1081190D01*
G02X-1080799Y735415I0J-400D01*
G03X-1080822Y735202I979J-213D01*
G01Y735201D01*
G03X-1078818I1002J0D01*
G01Y735202D01*
G03X-1078841Y735415I-1002J0D01*
G02X-1078450Y735900I391J85D01*
G37*
G36*
G01X-1108400Y861700D02*
X-1105500D01*
X-1096358Y852558D01*
X-1096501Y852416D01*
G03X-1096802Y851700I701J-716D01*
G03X-1095800Y850698I1002J0D01*
G03X-1095084Y850999I0J1002D01*
G01X-1094942Y851142D01*
X-1090446Y846646D01*
G02X-1090635Y845974I-283J-283D01*
G03X-1091402Y845000I235J-974D01*
G03X-1089398I1002J0D01*
G03X-1089440Y845286I-1002J-1D01*
G02X-1089056Y845800I384J114D01*
G01X-1086210D01*
G02X-1085836Y845257I0J-400D01*
G03X-1085902Y844900I936J-358D01*
G03X-1083898I1002J0D01*
G03X-1083964Y845257I-1002J-1D01*
G02X-1083590Y845800I374J143D01*
G01X-1074735D01*
X-1074716Y845796D01*
G03X-1074521Y845777I194J983D01*
G03X-1074326Y845796I1J1002D01*
G01X-1074307Y845800D01*
X-1074000D01*
X-1073500Y845300D01*
Y842400D01*
X-1081200Y834700D01*
X-1082300D01*
G02X-1082674Y835243I0J400D01*
G03X-1082608Y835600I-936J358D01*
G03X-1084612I-1002J0D01*
G03X-1084546Y835243I1002J1D01*
G02X-1084920Y834700I-374J-143D01*
G01X-1099200D01*
X-1106900Y842400D01*
Y843600D01*
X-1105100Y845400D01*
Y850000D01*
X-1108900Y853800D01*
Y854263D01*
X-1108583D01*
X-1108526Y854161D01*
G03X-1107653Y853651I873J492D01*
G03X-1106651Y854653I0J1002D01*
G03X-1106737Y855058I-1002J-1D01*
G02X-1106385Y855620I366J162D01*
G03X-1105419Y856621I-36J1001D01*
G03X-1107423I-1002J0D01*
G03X-1107337Y856216I1002J1D01*
G02X-1107689Y855654I-366J-162D01*
G03X-1108258Y855451I36J-1001D01*
G02X-1108900Y855770I-242J319D01*
G01Y857221D01*
G02X-1108414Y857611I400J-1D01*
G03X-1108200Y857588I213J979D01*
G03Y859592I0J1002D01*
G03X-1108414Y859569I-1J-1002D01*
G02X-1108900Y859959I-86J391D01*
G01Y861200D01*
X-1108400Y861700D01*
G37*
G36*
G01X-967107Y755593D02*
X-947338D01*
X-947001Y755256D01*
Y731242D01*
X-948952D01*
Y729052D01*
X-955258D01*
Y731242D01*
X-959202D01*
Y699438D01*
X-955276D01*
Y699436D01*
X-948950D01*
Y699438D01*
X-947001D01*
Y662497D01*
X-947500Y661000D01*
X-948000Y658000D01*
X-950000Y655000D01*
X-952500Y653000D01*
X-955500Y652000D01*
X-1007400D01*
X-1012200Y656800D01*
Y657330D01*
X-1011897D01*
X-1011837Y657246D01*
G03X-1008953Y655762I2884J2060D01*
G03Y662852I0J3545D01*
G03X-1011511Y661761I0J-3544D01*
G02X-1012200Y662038I-289J277D01*
G01Y666576D01*
G02X-1011511Y666853I400J0D01*
G03X-1008953Y665762I2558J2453D01*
G03Y672852I0J3545D01*
G03X-1011511Y671761I0J-3544D01*
G02X-1012200Y672038I-289J277D01*
G01Y690500D01*
X-1008818Y693882D01*
X-1008703Y693845D01*
G03X-1008400Y693798I303J955D01*
G03X-1007398Y694800I0J1002D01*
G03X-1007445Y695103I-1002J0D01*
G01X-1007482Y695218D01*
X-998800Y703900D01*
Y723900D01*
X-967107Y755593D01*
G37*
%LPC*%
G75*
G36*
G01X-1206524Y827502D02*
G02X-1205545Y828291I979J-213D01*
G02Y826287I0J-1002D01*
G02X-1206178Y826512I0J1003D01*
G03X-1206821Y826287I-252J-310D01*
G02X-1207800Y825498I-979J213D01*
G02Y827502I0J1002D01*
G02X-1207167Y827277I0J-1003D01*
G03X-1206524Y827502I252J310D01*
G37*
G36*
G01X-1261862Y827218D02*
G02X-1262644Y826842I-782J625D01*
G02Y828846I0J1002D01*
G02X-1261966Y828581I-1J-1002D01*
G03X-1261382Y828626I271J295D01*
G02X-1260600Y829002I782J-625D01*
G02Y826998I0J-1002D01*
G02X-1261278Y827263I1J1002D01*
G03X-1261862Y827218I-271J-295D01*
G37*
G36*
G01X-1207117Y830322D02*
G02X-1207600Y830198I-483J879D01*
G02Y832202I0J1002D01*
G02X-1206614Y831380I0J-1002D01*
G03X-1206028Y831101I393J71D01*
G02X-1205545Y831225I483J-879D01*
G02Y829221I0J-1002D01*
G02X-1206531Y830043I0J1002D01*
G03X-1207117Y830322I-393J-71D01*
G37*
G36*
G01X-1154618Y860670D02*
G03X-1154441Y861155I-198J347D01*
G02X-1154502Y861500I941J344D01*
G02X-1152498I1002J0D01*
G02X-1153003Y860630I-1002J0D01*
G03X-1153180Y860145I198J-347D01*
G02X-1153119Y859800I-941J-344D01*
G02X-1155123I-1002J0D01*
G02X-1154618Y860670I1002J0D01*
G37*
G36*
G01X-1117508Y862809D02*
G03Y863091I-142J141D01*
G02X-1117802Y863800I708J709D01*
G02X-1115798I1002J0D01*
G02X-1116092Y863091I-1002J0D01*
G03Y862809I142J-141D01*
G02X-1115798Y862100I-708J-709D01*
G02X-1117802I-1002J0D01*
G02X-1117508Y862809I1002J0D01*
G37*
G36*
G01X-1037402Y867915D02*
G03Y868485I-281J285D01*
G02X-1037702Y869200I702J715D01*
G02X-1035698I1002J0D01*
G02X-1035998Y868485I-1002J0D01*
G03Y867915I281J-285D01*
G02X-1035698Y867200I-702J-715D01*
G02X-1037702I-1002J0D01*
G02X-1037402Y867915I1002J0D01*
G37*
G36*
G01X-1014421Y894837D02*
G03X-1013879I271J294D01*
G02X-1012521I679J-737D01*
G03X-1011979I271J294D01*
G02X-1011300Y895102I679J-737D01*
G02X-1010298Y894100I0J-1002D01*
G02X-1010598Y893385I-1002J0D01*
G03Y892815I281J-285D01*
G02X-1010298Y892100I-702J-715D01*
G02X-1012302I-1002J0D01*
G02X-1012002Y892815I1002J0D01*
G03Y893385I-281J285D01*
G02X-1012092Y893486I701J716D01*
G03X-1012408I-158J-122D01*
G02X-1013200Y893098I-792J614D01*
G02X-1013879Y893363I0J1002D01*
G03X-1014421I-271J-294D01*
G02X-1015100Y893098I-679J737D01*
G02Y895102I0J1002D01*
G02X-1014421Y894837I0J-1002D01*
G37*
G36*
G01X-1032989Y866272D02*
G02X-1033302Y867000I690J728D01*
G02X-1032300Y868002I1002J0D01*
G02X-1031351Y867323I0J-1003D01*
G03X-1030866Y867066I379J128D01*
G02X-1030600Y867102I266J-965D01*
G02Y865098I0J-1002D01*
G02X-1030733Y865107I1J1002D01*
G03X-1031161Y864850I-53J-396D01*
G02X-1031171Y864825I-935J360D01*
G03X-1030888Y864575I185J-75D01*
G02X-1030400Y864702I488J-874D01*
G02X-1031402Y863700I0J-1002D01*
G02X-1031398Y863794I1002J4D01*
G03X-1031883Y864222I-398J38D01*
G02X-1032044Y864200I-216J978D01*
G03X-1032144Y863834I11J-200D01*
G02X-1031698Y863000I-557J-834D01*
G02X-1033702I-1002J0D01*
G02X-1033048Y863940I1003J0D01*
G03X-1032877Y864567I-139J375D01*
G02X-1033102Y865200I778J633D01*
G02X-1032932Y865759I1002J1D01*
G03X-1032989Y866272I-332J223D01*
G37*
G36*
G01X-1060439Y870883D02*
G02X-1060844Y870798I-404J917D01*
G02Y872802I0J1002D01*
G02X-1059842Y871805I0J-1002D01*
G03X-1059281Y871441I400J2D01*
G02X-1058876Y871526I404J-917D01*
G02Y869522I0J-1002D01*
G02X-1059878Y870519I0J1002D01*
G03X-1060439Y870883I-400J-2D01*
G37*
G36*
G01X-1033402Y874885D02*
G02X-1033702Y875600I702J715D01*
G02X-1032700Y876602I1002J0D01*
G02X-1031853Y876136I0J-1003D01*
G03X-1031197Y876107I338J214D01*
G02X-1030400Y876502I797J-607D01*
G02X-1029398Y875500I0J-1002D01*
G02X-1029698Y874785I-1002J0D01*
G03Y874215I281J-285D01*
G02X-1029398Y873500I-702J-715D01*
G02X-1029663Y872821I-1002J0D01*
G03Y872279I294J-271D01*
G02X-1029398Y871600I-737J-679D01*
G02X-1030400Y870598I-1002J0D01*
G02X-1031186Y870979I0J1001D01*
G03X-1031814I-314J-248D01*
G02X-1032600Y870598I-786J620D01*
G02X-1033602Y871600I0J1002D01*
G02X-1033336Y872280I1002J0D01*
G03X-1033365Y872850I-294J271D01*
G02X-1033453Y872939I667J748D01*
G03X-1033786Y872889I-150J-132D01*
G02X-1034700Y872298I-914J411D01*
G02Y874302I0J1002D01*
G02X-1034088Y874094I1J-1002D01*
G03X-1033518Y874179I244J317D01*
G02X-1033402Y874315I817J-580D01*
G03Y874885I-281J285D01*
G37*
G36*
G01X-1077850Y726836D02*
G02X-1078600Y726498I-750J663D01*
G02Y728502I0J1002D01*
G02X-1077850Y728164I0J-1001D01*
G03X-1077250I300J265D01*
G02X-1076500Y728502I750J-663D01*
G02Y726498I0J-1002D01*
G02X-1077250Y726836I0J1001D01*
G03X-1077850I-300J-265D01*
G37*
G36*
G01X-1091296Y729829D02*
G02X-1091298Y729895I1000J63D01*
G02X-1089294I1002J0D01*
G02X-1090300Y728893I-1002J0D01*
G03X-1090700Y728466I-1J-400D01*
G02X-1090698Y728400I-1000J-63D01*
G02X-1092702I-1002J0D01*
G02X-1091696Y729402I1002J0D01*
G03X-1091296Y729829I1J400D01*
G37*
G36*
G01X-1092979Y736827D02*
G02X-1093618Y737761I363J934D01*
G02X-1091614I1002J0D01*
G02X-1091956Y737007I-1002J0D01*
G03X-1091837Y736334I264J-300D01*
G02X-1091198Y735400I-363J-934D01*
G02X-1093202I-1002J0D01*
G02X-1092860Y736154I1002J0D01*
G03X-1092979Y736827I-264J300D01*
G37*
G36*
G01X-982225Y717417D02*
G03X-982475I-125J-156D01*
G02X-983100Y717198I-625J782D01*
G02Y719202I0J1002D01*
G02X-982475Y718983I0J-1001D01*
G03X-982225I125J156D01*
G02X-981600Y719202I625J-782D01*
G02Y717198I0J-1002D01*
G02X-982225Y717417I0J1001D01*
G37*
G36*
G01X-997115Y720698D02*
G03X-996899Y720881I17J199D01*
G02X-995900Y721802I999J-81D01*
G02Y719798I0J-1002D01*
G02X-995985Y719802I5J1002D01*
G03X-996201Y719619I-17J-199D01*
G02X-997200Y718698I-999J81D01*
G02Y720702I0J1002D01*
G02X-997115Y720698I-5J-1002D01*
G37*
G36*
G01X-963873Y748357D02*
G03X-964122Y748372I-134J-148D01*
G02X-964700Y748189I-577J819D01*
G02Y750193I0J1002D01*
G02X-964027Y749934I1J-1002D01*
G03X-963778Y749919I134J148D01*
G02X-963200Y750102I577J-819D01*
G02Y748098I0J-1002D01*
G02X-963873Y748357I-1J1002D01*
G37*
G54D29*
X-1211150Y830950D03*
X-1212200Y838200D03*
X-1210100Y851300D03*
X-1036200Y875300D03*
X-1028200Y879000D03*
X-1027200Y891000D03*
X-1020900Y894600D03*
X-1049400Y870500D03*
X-1184237Y830063D03*
X-1054938Y871538D03*
X-1074716Y850716D03*
X-1064200Y849600D03*
X-1141248Y863752D03*
X-1074542Y860558D03*
X-1074800Y863000D03*
X-1171500Y838900D03*
X-1096000Y859200D03*
X-1069675Y854600D03*
X-1090400Y859100D03*
X-1090500Y851700D03*
X-1085100Y859000D03*
X-1085000Y851700D03*
X-1171400Y834100D03*
X-1029800Y894500D03*
X-1053300Y868100D03*
X-1033400Y882300D03*
X-1059800Y845900D03*
X-1033900Y869300D03*
X-1039200Y869500D03*
X-1030700Y869000D03*
X-1042100Y869400D03*
X-1046700Y867700D03*
X-1031200Y879700D03*
X-1092617Y753116D03*
X-1110529Y765912D03*
X-1092619Y750558D03*
X-1107970Y755676D03*
X-1095166Y732634D03*
X-1105411Y758235D03*
X-1113089Y753117D03*
X-1100294Y758235D03*
X-1115648Y768471D03*
X-1092619Y758238D03*
X-1107970Y758235D03*
X-1115647Y758234D03*
X-1100294Y755675D03*
X-1107971Y768471D03*
X-1092616Y763352D03*
X-1113087Y758234D03*
X-1107971Y765912D03*
X-1095175Y765911D03*
X-1097734Y758235D03*
X-1107970Y750558D03*
X-1097735Y747998D03*
X-1102852Y765912D03*
X-1097734Y760795D03*
X-1100294Y760794D03*
X-1118207Y758234D03*
X-1113089Y750558D03*
X-1097734Y755675D03*
X-1105411Y760794D03*
X-1115648Y753117D03*
X-1108044Y753043D03*
X-1095175Y768470D03*
X-1115648Y765912D03*
X-1107970Y760795D03*
X-1110529Y768471D03*
X-1118207Y760794D03*
X-1092616Y768470D03*
X-1105411Y755676D03*
X-1100292Y768468D03*
X-1092616Y765911D03*
X-1095175Y763352D03*
X-1100292Y765908D03*
X-1102850Y735200D03*
X-1105382Y768500D03*
X-1086450Y726550D03*
X-1097400Y728000D03*
X-1090100Y732700D03*
X-1102852Y737761D03*
Y740320D03*
X-1100293Y735202D03*
Y740320D03*
X-1095175Y742879D03*
Y737761D03*
X-1092616Y740320D03*
Y742879D03*
X-1095175Y740320D03*
Y735202D03*
X-1092616Y745439D03*
X-1087499Y735202D03*
X-1102900Y732691D03*
X-1102853Y768471D03*
X-1102913Y745500D03*
X-1102852Y742879D03*
X-1095700Y845200D03*
X-986700Y689100D03*
X-987400Y724000D03*
X-993713Y688700D03*
X-986600Y733200D03*
X-983100Y688400D03*
X-983083Y726517D03*
X-990200Y688700D03*
X-1000100Y697100D03*
X-1001850Y692750D03*
X-1002900Y697100D03*
X-994000Y706600D03*
G54D32*
X-998953Y659307D03*
G54D31*
Y669307D03*
X-988953D03*
Y659307D03*
X-978953D03*
Y669307D03*
G54D28*
X-1229178Y827544D03*
X-1241776D03*
X-1223272Y821638D03*
X-1235870D03*
X-1229178Y817701D03*
X-1241776D03*
G54D30*
X-959780Y664307D03*
%LPD*%
G75*
G54D10*
X-1271350Y655800D03*
Y663792D03*
X-1241350Y659796D03*
G54D20*
G01X-1272880Y814160D02*
Y800120D01*
G01X-1274400Y815500D02*
X-1274220D01*
X-1272880Y814160D01*
G01X-1023568Y887168D02*
X-1018400Y882000D01*
Y868722D01*
X-1018800Y868322D01*
Y867078D01*
X-1018400Y866678D01*
Y865000D01*
X-1024800Y858600D01*
Y854601D01*
X-1027901Y851500D01*
X-1033900D01*
X-1035900Y849500D01*
Y837200D01*
X-1043800Y829300D01*
X-1051200D01*
G54D11*
X-1272857Y689193D03*
X-1245298D03*
G54D21*
G01X-954500Y870100D02*
X-969500D01*
X-972200Y872800D01*
X-981600D01*
X-988200Y866200D01*
Y848800D01*
X-1001400Y835600D01*
X-1011800D01*
X-1015500Y839300D01*
G54D12*
X-1272880Y800120D03*
X-1274400Y813700D03*
Y815500D03*
X-1211700Y709900D03*
X-1209029Y716928D03*
X-1205400Y730157D03*
X-1207617Y730665D03*
X-1205400Y727223D03*
X-1207617Y733599D03*
X-1205517Y816088D03*
Y819022D03*
X-1185900Y729900D03*
X-1193094Y740468D03*
X-1186000Y734800D03*
X-1196243Y740468D03*
X-1193093Y737909D03*
X-1196243Y745586D03*
X-1186700Y745600D03*
X-1186799Y750705D03*
X-1196243Y748145D03*
X-1186600Y763600D03*
X-1196243Y776295D03*
X-1186799D03*
X-1186784Y781363D03*
X-1196322Y789122D03*
X-1193094Y783973D03*
Y781414D03*
X-1186786Y786710D03*
X-1193094Y786532D03*
X-1196243D03*
Y781414D03*
X-1189944Y789091D03*
X-1174000Y763600D03*
X-1176056Y853808D03*
X-1178990D03*
X-1173300Y698400D03*
X-1165800Y712300D03*
X-1156600Y749751D03*
X-1151730Y755718D03*
X-1160097Y763746D03*
X-1158300Y772000D03*
X-1154296Y798659D03*
X-1151148D03*
X-1158700Y801000D03*
X-1161115Y815424D03*
X-1159123Y815515D03*
X-1149200Y741600D03*
X-1141228Y737772D03*
X-1143798Y747999D03*
X-1141239Y745439D03*
X-1143791Y745432D03*
X-1141240Y742879D03*
X-1138679Y745439D03*
X-1138702Y748000D03*
X-1141239Y760794D03*
X-1146357Y776148D03*
X-1143798Y771029D03*
X-1146357Y786384D03*
X-1141249Y786394D03*
X-1138500Y783100D03*
X-1146366Y783834D03*
X-1147000Y823500D03*
X-1146900Y825700D03*
X-1133574Y735228D03*
X-1133561Y735202D03*
X-1133568Y788936D03*
X-1136127Y786377D03*
X-1133400Y783600D03*
X-1136110Y788953D03*
X-1135500Y824666D03*
Y827600D03*
X-1126000Y707400D03*
X-1125900Y704400D03*
X-1115782Y730219D03*
X-1118206Y737761D03*
X-1118300Y735296D03*
X-1118263Y732700D03*
X-1115647Y740320D03*
X-1115600Y732700D03*
X-1115647Y737761D03*
Y742879D03*
X-1125883Y745439D03*
Y742879D03*
X-1123324D03*
X-1118206Y765913D03*
X-1115647Y760794D03*
X-1124000Y798100D03*
X-1115500Y801591D03*
X-1123227Y804200D03*
X-1110000Y698900D03*
X-1109200Y707600D03*
X-1108200Y730314D03*
X-1107970Y732643D03*
X-1110529Y745439D03*
X-1113087Y760794D03*
X-1105400Y799168D03*
X-1105373Y801700D03*
X-1107932D03*
X-1112900Y801550D03*
X-1106500Y818800D03*
X-1111700Y818600D03*
X-1097735Y750557D03*
X-1100293D03*
X-1102852D03*
X-1097735Y781266D03*
X-1092437Y799000D03*
X-1092496Y796500D03*
X-1100296Y804300D03*
X-1092300Y820700D03*
X-1099100Y835700D03*
X-1082379Y753116D03*
Y755675D03*
X-1082300Y806900D03*
X-1082450Y804350D03*
X-1089900Y820200D03*
X-1081079Y819121D03*
X-1086700Y820100D03*
X-1091400Y835600D03*
X-1080952Y869900D03*
X-1086958Y869897D03*
X-1090106D03*
X-1084100Y869900D03*
X-1079820Y753116D03*
Y755675D03*
X-1077261D03*
X-1074687Y760788D03*
X-1073300Y800800D03*
X-1072100Y812850D03*
X-1077800Y808400D03*
X-1074641Y822759D03*
X-1069700Y814400D03*
X-1077654Y821070D03*
X-1066137Y727899D03*
X-1064137Y727901D03*
X-1062140Y727785D03*
X-1064100Y725900D03*
X-1061500Y739800D03*
X-1061200Y744700D03*
X-1067300Y814400D03*
X-1050450Y751688D03*
X-1053743Y754283D03*
X-1053889Y751623D03*
X-1047592Y754364D03*
X-1053743Y762059D03*
X-1050594Y800546D03*
X-1053743Y792769D03*
Y795228D03*
Y805565D03*
X-1044250Y754293D03*
X-1044304Y762059D03*
X-1044299Y759501D03*
X-1044304Y792769D03*
Y795228D03*
Y800544D03*
X-1033582Y829786D03*
X-1030300Y849400D03*
X-1010100Y680100D03*
X-1011305Y840705D03*
X-1015500Y839300D03*
X-1004100Y652900D03*
X-1005700Y894200D03*
X-1003700Y894100D03*
Y895800D03*
X-1005700D03*
X-994200Y653000D03*
X-990300Y704500D03*
X-994600Y700000D03*
X-992300Y713200D03*
X-987500Y712900D03*
X-989100Y709700D03*
X-994100Y857700D03*
X-983100Y653000D03*
X-978900Y677000D03*
Y681100D03*
X-982600Y691000D03*
Y693900D03*
X-986100Y691500D03*
Y694100D03*
X-978900Y685500D03*
X-982600Y697100D03*
X-986100Y696700D03*
X-982600Y700400D03*
X-986000Y700100D03*
X-984400Y714100D03*
X-982900Y710200D03*
X-983500Y733600D03*
X-963200Y653000D03*
X-973200D03*
X-968730Y656790D03*
X-965200Y673200D03*
X-970000Y673000D03*
X-974400Y683200D03*
X-974300Y679200D03*
Y674900D03*
X-974617Y689783D03*
X-974730Y696870D03*
X-974100Y700400D03*
X-972200Y703100D03*
X-971900Y696900D03*
X-974200Y705500D03*
X-968400Y718900D03*
X-971100Y713900D03*
X-972300Y707900D03*
X-973400Y718300D03*
X-973900Y710800D03*
X-970800Y724000D03*
X-972300Y732800D03*
X-963677Y740069D03*
X-970698Y740405D03*
X-968700Y746500D03*
X-973100Y749000D03*
X-973000Y744200D03*
X-960100Y673400D03*
X-953927Y739728D03*
X-959500Y743800D03*
X-960700Y754700D03*
X-954500Y870100D03*
X-951200Y656400D03*
X-948300Y665400D03*
X-948882Y739089D03*
X-948900Y743500D03*
X-948898Y748580D03*
X-948707Y754413D03*
G54D22*
G01X-1165800Y712300D02*
Y705900D01*
X-1173300Y698400D01*
G01X-1097735Y763435D02*
X-1095908Y761608D01*
Y752384D01*
X-1097735Y750557D01*
G01Y781266D02*
X-1096100Y779631D01*
Y779547D01*
X-1095985Y779432D01*
Y775423D01*
X-1097735Y773673D01*
Y763435D01*
G01X-1076100Y868100D02*
X-1078300Y865900D01*
X-1099700D01*
X-1101227Y867427D01*
X-1101327D01*
G01X-1030300Y849400D02*
X-1033582Y846118D01*
Y829786D01*
G01X-994100Y857700D02*
Y851900D01*
X-1005295Y840705D01*
X-1011305D01*
G01X-998953Y655555D02*
Y659307D01*
G01D02*
Y663059D01*
G01X-1002705Y659307D02*
X-998953D01*
G01D02*
X-995201D01*
G01X-978200Y808400D02*
X-979473Y807127D01*
Y771127D01*
X-983200Y767400D01*
G54D13*
X-1245764Y864764D03*
Y909764D03*
G54D23*
G01X-1280646Y662339D02*
G03X-1268835Y650528I11811J0D01*
G01X-1280646Y915189D02*
Y662339D01*
G01X-1268835Y927000D02*
G03X-1280646Y915189I0J-11811D01*
G01X-1268835Y650528D02*
X-957811D01*
G01Y927000D02*
X-1268835D01*
G01X-1214600Y709900D02*
X-1217300Y707200D01*
Y685200D01*
X-1215600Y683500D01*
G01X-1213222Y694800D02*
X-1215500Y692522D01*
Y685800D01*
X-1210600Y680900D01*
Y677800D01*
G01X-1211000Y690100D02*
X-1210080Y691020D01*
Y691820D01*
X-1207600Y694300D01*
Y698400D01*
G01X-1210600Y693300D02*
Y695400D01*
X-1212300Y697100D01*
Y705900D01*
X-1214300Y707900D01*
G01X-1210600Y684700D02*
Y686900D01*
X-1208300Y689200D01*
Y691600D01*
G01X-1213000Y687850D02*
X-1214300Y689150D01*
Y691812D01*
X-1211872Y694240D01*
Y695372D01*
X-1214000Y697500D01*
Y700700D01*
G01X-1209800Y702200D02*
X-1210300Y702700D01*
Y708500D01*
X-1211700Y709900D01*
G01X-1209029Y716928D02*
X-1213200Y712757D01*
Y708800D01*
X-1211400Y707000D01*
Y698300D01*
X-1211370Y698270D01*
Y698170D01*
X-1209700Y696500D01*
G01X-1207900Y680600D02*
X-1205600Y682900D01*
Y692000D01*
X-1206100Y692500D01*
Y707500D01*
X-1206950Y708350D01*
X-1208660D01*
X-1209500Y709190D01*
Y710500D01*
X-1211400Y712400D01*
G01X-1199700Y706900D02*
X-1200700Y705900D01*
Y684627D01*
X-1196900Y680827D01*
Y677800D01*
G01X-1202300Y693700D02*
X-1203800Y695200D01*
Y708000D01*
X-1208000Y712200D01*
G01X-1208100Y709700D02*
X-1206800D01*
X-1204900Y707800D01*
Y694195D01*
X-1202200Y691495D01*
G01X-1197200Y683800D02*
Y685100D01*
X-1197300Y685200D01*
Y695400D01*
X-1199100Y697200D01*
G01X-1193300Y683800D02*
X-1192380Y684720D01*
Y693880D01*
X-1197900Y699400D01*
X-1199200D01*
G01X-1202230Y699069D02*
Y714030D01*
X-1205900Y717700D01*
G01X-1138702Y748000D02*
X-1141099D01*
X-1141750Y748651D01*
Y751400D01*
X-1142250Y751900D01*
X-1143150D01*
X-1143750Y751300D01*
Y750100D01*
X-1144250Y749600D01*
X-1145250D01*
X-1145750Y750100D01*
Y751000D01*
X-1146250Y751500D01*
X-1147250D01*
X-1147750Y751000D01*
Y750100D01*
X-1148250Y749600D01*
X-1151649D01*
X-1152400Y748849D01*
Y745500D01*
X-1152900Y745000D01*
X-1154000D01*
X-1154500Y745500D01*
Y747800D01*
X-1154801Y748101D01*
X-1161211D01*
X-1162825Y746487D01*
Y745173D01*
X-1163800Y744198D01*
X-1168770D01*
X-1169472Y744900D01*
Y748998D01*
X-1170372Y749898D01*
X-1178002D01*
X-1178900Y749000D01*
X-1179800D01*
X-1180300Y748500D01*
Y747800D01*
X-1180800Y747300D01*
X-1181800D01*
X-1182300Y747800D01*
Y748500D01*
X-1182800Y749000D01*
X-1193300D01*
X-1196314Y752014D01*
X-1198086D01*
X-1198645Y751455D01*
Y750547D01*
X-1196243Y748145D01*
G01X-1141249Y786394D02*
X-1142239Y785404D01*
X-1142297D01*
X-1145301Y782400D01*
X-1145466D01*
X-1145682Y782184D01*
X-1147050D01*
X-1147266Y782400D01*
X-1150138D01*
X-1150638Y782900D01*
Y783400D01*
X-1151138Y783900D01*
X-1152138D01*
X-1152638Y783400D01*
Y782868D01*
X-1153138Y782368D01*
X-1156268D01*
X-1159500Y785600D01*
X-1160721D01*
X-1161636Y786515D01*
Y787936D01*
X-1162100Y788400D01*
X-1163300D01*
X-1163700Y788000D01*
Y786100D01*
X-1164200Y785600D01*
X-1165500D01*
X-1166154Y786254D01*
Y787900D01*
X-1166654Y788400D01*
X-1167595D01*
X-1168095Y787900D01*
Y785105D01*
X-1170251Y782949D01*
X-1177821D01*
X-1178872Y781898D01*
Y780220D01*
X-1179492Y779600D01*
X-1194300D01*
X-1195600Y778300D01*
X-1197300D01*
X-1197900Y778900D01*
Y780843D01*
X-1197329Y781414D01*
X-1196243D01*
G01X-1182926Y664307D02*
G03I-5200J0D01*
G01X-1190853Y712247D02*
X-1190500Y711894D01*
Y710900D01*
X-1186100Y706500D01*
X-1175300D01*
G01X-1175100Y703200D02*
X-1185700D01*
X-1194790Y712290D01*
G01X-1186900Y711900D02*
X-1186100Y711100D01*
X-1177500D01*
X-1173400Y707000D01*
Y702990D01*
X-1175290Y701100D01*
X-1175300D01*
G01X-1188900Y717100D02*
X-1184900Y713100D01*
X-1177000D01*
X-1172100Y708200D01*
Y701800D01*
X-1175500Y698400D01*
G01X-1193094Y740468D02*
X-1194743Y738819D01*
Y737225D01*
X-1194337Y736819D01*
X-1192741Y733469D01*
X-1190188Y730916D01*
G03X-1189883Y730617I15007J15003D01*
G03X-1175182Y724700I14701J15304D01*
G01X-1174432Y723950D01*
X-1143850D01*
X-1137900Y729900D01*
Y737600D01*
X-1139929Y739629D01*
Y740839D01*
X-1139600Y741168D01*
Y743800D01*
X-1141239Y745439D01*
G01X-1196243Y740468D02*
Y737991D01*
X-1193879Y732407D01*
X-1191389Y729917D01*
G03X-1173482Y722500I17907J17907D01*
G01X-1143300D01*
X-1136500Y729300D01*
Y743260D01*
X-1138679Y745439D01*
G01X-1141228Y737772D02*
X-1139700Y736244D01*
Y733490D01*
X-1140538Y732652D01*
X-1144248D01*
X-1144700Y732200D01*
Y731300D01*
X-1144300Y730900D01*
X-1143000D01*
X-1142488Y730388D01*
Y727912D01*
X-1144200Y726200D01*
X-1146391D01*
X-1146891Y726700D01*
Y728500D01*
X-1147391Y729000D01*
X-1148391D01*
X-1148891Y728500D01*
Y727500D01*
X-1149391Y727000D01*
X-1151901D01*
X-1153301Y725600D01*
X-1173500D01*
X-1174700Y726800D01*
X-1179600D01*
X-1180900Y728100D01*
X-1182600D01*
X-1184400Y729900D01*
X-1185900D01*
G01X-1186700Y745600D02*
X-1188163Y744137D01*
X-1190763D01*
X-1191292Y743608D01*
Y742900D01*
X-1190792Y742400D01*
X-1187882D01*
X-1187382Y741900D01*
Y741400D01*
X-1186882Y740900D01*
X-1185882D01*
X-1185382Y741400D01*
Y741900D01*
X-1184882Y742400D01*
X-1183300D01*
X-1182300Y741400D01*
Y736900D01*
X-1181700Y736300D01*
X-1180534D01*
X-1180034Y735800D01*
Y734300D01*
X-1179534Y733800D01*
X-1178534D01*
X-1178034Y734300D01*
Y735800D01*
X-1177534Y736300D01*
X-1175800D01*
X-1175400Y735900D01*
Y733700D01*
X-1175000Y733300D01*
X-1173900D01*
X-1173500Y733700D01*
Y735800D01*
X-1172923Y736377D01*
X-1171439D01*
X-1170400Y735338D01*
Y733600D01*
X-1169800Y733000D01*
X-1166750D01*
X-1166250Y733500D01*
Y734600D01*
X-1165750Y735100D01*
X-1164750D01*
X-1164250Y734600D01*
Y733500D01*
X-1163750Y733000D01*
X-1162750D01*
X-1162250Y733500D01*
Y735100D01*
X-1161750Y735600D01*
X-1160750D01*
X-1160250Y735100D01*
Y733500D01*
X-1159750Y733000D01*
X-1158300D01*
X-1153650Y737650D01*
Y739550D01*
X-1148800Y744400D01*
X-1144823D01*
X-1143791Y745432D01*
G01X-1186000Y734800D02*
Y733300D01*
X-1186300Y733000D01*
X-1188500D01*
X-1188746Y732754D01*
Y732046D01*
X-1188250Y731550D01*
X-1183950D01*
X-1182100Y729700D01*
X-1180300D01*
X-1179000Y728400D01*
X-1174299D01*
X-1172999Y727100D01*
X-1153900D01*
X-1152300Y728700D01*
X-1150600D01*
X-1150200Y729100D01*
Y729800D01*
X-1149600Y730400D01*
X-1147596D01*
X-1147200Y730796D01*
Y731718D01*
X-1147782Y732300D01*
X-1148900D01*
X-1149400Y732800D01*
Y733700D01*
X-1148800Y734300D01*
X-1145900D01*
X-1145354Y734846D01*
Y735700D01*
X-1145854Y736200D01*
X-1147700D01*
X-1148454Y736954D01*
Y739046D01*
X-1148100Y739400D01*
X-1147000D01*
X-1146600Y739800D01*
Y741000D01*
X-1145954Y741646D01*
X-1145246D01*
X-1144600Y741000D01*
Y739700D01*
X-1144000Y739100D01*
X-1142900D01*
X-1142400Y739600D01*
Y741719D01*
X-1141240Y742879D01*
G01X-1149200Y741600D02*
Y740200D01*
X-1150000Y739400D01*
Y734884D01*
X-1150738Y734146D01*
X-1151446D01*
X-1151800Y734500D01*
Y735700D01*
X-1152200Y736100D01*
X-1153100D01*
X-1153700Y735500D01*
Y729600D01*
X-1154200Y729100D01*
X-1155900D01*
X-1156300Y729500D01*
Y731200D01*
X-1156700Y731600D01*
X-1157800D01*
X-1158300Y731100D01*
Y729600D01*
X-1159000Y728900D01*
X-1167466D01*
X-1167966Y729400D01*
Y730700D01*
X-1168466Y731200D01*
X-1169466D01*
X-1169966Y730700D01*
Y729400D01*
X-1170466Y728900D01*
X-1172900D01*
X-1173900Y729900D01*
X-1178500D01*
X-1186509Y737909D01*
Y738512D01*
X-1187097Y739100D01*
X-1188100D01*
X-1188688Y738512D01*
Y735930D01*
X-1189188Y735430D01*
X-1190188D01*
X-1190688Y735930D01*
Y738748D01*
X-1191042Y739102D01*
X-1191900D01*
X-1193093Y737909D01*
G01X-1196243Y745586D02*
X-1194429Y747400D01*
X-1185900D01*
X-1185200Y746700D01*
Y745000D01*
X-1184100Y743900D01*
X-1179300D01*
X-1178800Y743400D01*
Y742873D01*
X-1178300Y742373D01*
X-1177300D01*
X-1176800Y742873D01*
Y743400D01*
X-1176300Y743900D01*
X-1175300D01*
X-1174800Y743400D01*
Y742873D01*
X-1174300Y742373D01*
X-1173300D01*
X-1172800Y742873D01*
Y743392D01*
X-1172300Y743892D01*
X-1171592D01*
X-1169996Y742296D01*
X-1169248D01*
X-1168748Y741796D01*
Y738400D01*
X-1168248Y737900D01*
X-1167248D01*
X-1166748Y738400D01*
Y741796D01*
X-1166248Y742296D01*
X-1165248D01*
X-1164748Y741796D01*
Y738500D01*
X-1164248Y738000D01*
X-1163248D01*
X-1162748Y738500D01*
Y741796D01*
X-1162248Y742296D01*
X-1157773D01*
X-1157273Y741796D01*
Y738500D01*
X-1156773Y738000D01*
X-1155773D01*
X-1155273Y738500D01*
Y741796D01*
X-1154773Y742296D01*
X-1152804D01*
X-1149200Y745900D01*
X-1145897D01*
X-1143798Y747999D01*
G01X-1156600Y749751D02*
X-1159019D01*
X-1159668Y750400D01*
Y751580D01*
X-1160286Y752198D01*
X-1161527D01*
X-1162027Y751698D01*
Y750097D01*
X-1162527Y749597D01*
X-1163527D01*
X-1164027Y750097D01*
Y751198D01*
X-1164527Y751698D01*
X-1165527D01*
X-1166027Y751198D01*
Y750097D01*
X-1166527Y749597D01*
X-1167527D01*
X-1168027Y750097D01*
Y751198D01*
X-1168527Y751698D01*
X-1177998D01*
X-1179179Y752879D01*
X-1179773D01*
X-1180761Y751891D01*
X-1181629D01*
X-1182129Y752391D01*
Y753099D01*
X-1178400Y756828D01*
Y757600D01*
X-1179803Y759003D01*
X-1180897D01*
X-1183200Y756700D01*
X-1190600D01*
X-1191100Y756200D01*
Y755300D01*
X-1190600Y754800D01*
X-1188800D01*
X-1188400Y754400D01*
Y751205D01*
X-1187900Y750705D01*
X-1186799D01*
G01X-1196243Y776295D02*
X-1195505D01*
X-1193802Y777998D01*
X-1180070D01*
X-1179172Y777100D01*
X-1170300D01*
X-1169500Y777900D01*
Y782000D01*
X-1168300Y783200D01*
X-1163999D01*
X-1163049Y784150D01*
X-1160451D01*
X-1157201Y780900D01*
X-1154973D01*
X-1154473Y780400D01*
Y778500D01*
X-1153973Y778000D01*
X-1152973D01*
X-1152473Y778500D01*
Y780400D01*
X-1151973Y780900D01*
X-1150973D01*
X-1150473Y780400D01*
Y779600D01*
X-1149973Y779100D01*
X-1148973D01*
X-1148473Y779600D01*
Y780400D01*
X-1147973Y780900D01*
X-1145900D01*
X-1145500Y780500D01*
Y779800D01*
X-1145200Y779500D01*
X-1143300D01*
X-1142300Y780500D01*
Y782118D01*
X-1139718Y784700D01*
X-1139234D01*
X-1139184Y784750D01*
X-1137816D01*
X-1137766Y784700D01*
X-1136997D01*
X-1135897Y783600D01*
X-1133400D01*
G01X-1186799Y776295D02*
X-1188300Y774794D01*
Y770920D01*
X-1187580Y770200D01*
X-1180900D01*
X-1180400Y770700D01*
Y771650D01*
X-1180900Y772150D01*
X-1181698D01*
X-1182199Y772651D01*
Y774901D01*
X-1181500Y775600D01*
X-1168383D01*
X-1167883Y776100D01*
Y776627D01*
X-1167383Y777127D01*
X-1166383D01*
X-1165883Y776627D01*
Y776100D01*
X-1165383Y775600D01*
X-1164383D01*
X-1163883Y776100D01*
Y776727D01*
X-1163383Y777227D01*
X-1162383D01*
X-1161883Y776727D01*
Y776100D01*
X-1161383Y775600D01*
X-1149400D01*
X-1147100Y777900D01*
X-1141601D01*
X-1138500Y781001D01*
Y783100D01*
G01X-1186784Y781363D02*
X-1185384D01*
X-1183947Y782800D01*
X-1180372D01*
X-1179036Y784136D01*
Y787564D01*
X-1178300Y788300D01*
X-1176000D01*
X-1175700Y788000D01*
Y785700D01*
X-1175100Y785100D01*
X-1170020D01*
X-1169500Y785620D01*
Y792300D01*
X-1168400Y793400D01*
X-1164299D01*
X-1160477Y789578D01*
X-1154600D01*
X-1154100Y789078D01*
Y787600D01*
X-1153300Y786800D01*
X-1150600D01*
X-1149000Y788400D01*
Y795600D01*
X-1148500Y796100D01*
X-1147001D01*
X-1146357Y795456D01*
Y786384D01*
G01X-1196322Y789122D02*
X-1196243Y789201D01*
Y789914D01*
G02X-1194016Y795284I7602J-6D01*
G01X-1182000Y807300D01*
X-1148600D01*
X-1138600Y797300D01*
Y793968D01*
X-1133568Y788936D01*
G01X-1186786Y786710D02*
X-1185290D01*
X-1184220Y787780D01*
Y788219D01*
X-1183800Y788639D01*
Y789479D01*
X-1184220Y789899D01*
X-1185080D01*
X-1185500Y790319D01*
Y791200D01*
X-1182600Y794100D01*
X-1181500D01*
X-1179708Y795892D01*
X-1179114D01*
X-1178108Y794886D01*
X-1177420D01*
X-1176930Y795376D01*
Y796084D01*
X-1177926Y797080D01*
Y797674D01*
X-1177304Y798296D01*
X-1176596D01*
X-1175600Y797300D01*
X-1174892D01*
X-1174392Y797800D01*
Y798508D01*
X-1176038Y800154D01*
Y800862D01*
X-1175593Y801307D01*
X-1174885D01*
X-1173228Y799650D01*
X-1171749D01*
X-1171399Y800000D01*
X-1159700D01*
X-1158700Y801000D01*
G01X-1136127Y786377D02*
X-1138777D01*
X-1140400Y788000D01*
X-1140521D01*
X-1140565Y788044D01*
X-1141844D01*
X-1142300Y788500D01*
Y789404D01*
X-1141400Y790304D01*
Y791700D01*
X-1141800Y792100D01*
Y796000D01*
X-1150000Y804200D01*
X-1179400D01*
X-1189600Y794000D01*
X-1190800D01*
X-1191500Y793300D01*
Y790000D01*
X-1193094Y788406D01*
Y786532D01*
G01X-1136110Y788953D02*
X-1140300Y793143D01*
Y796800D01*
X-1149300Y805800D01*
X-1180200D01*
X-1190187Y795813D01*
X-1190781D01*
X-1190787Y795819D01*
X-1191381D01*
X-1193826Y793374D01*
G03X-1194672Y791332I2041J-2042D01*
G01Y788103D01*
X-1196243Y786532D01*
G01X-1146366Y783834D02*
X-1143900Y786300D01*
Y795400D01*
X-1151200Y802700D01*
X-1164003D01*
X-1164803Y801900D01*
X-1166203D01*
X-1167003Y802700D01*
X-1168003D01*
X-1168803Y801900D01*
X-1170203D01*
X-1171003Y802700D01*
X-1176299D01*
X-1178050Y800949D01*
Y800582D01*
X-1178782Y799850D01*
X-1179149D01*
X-1180199Y798800D01*
X-1181515D01*
X-1182260Y798055D01*
X-1182262Y796773D01*
X-1183277Y795758D01*
X-1183871D01*
X-1184259Y796146D01*
X-1184853D01*
X-1185447Y795552D01*
Y794958D01*
X-1185059Y794570D01*
Y793976D01*
X-1185653Y793382D01*
X-1186247D01*
X-1186635Y793770D01*
X-1187229D01*
X-1187823Y793176D01*
Y792582D01*
X-1187435Y792194D01*
Y791600D01*
X-1189944Y789091D01*
G01X-1182926Y857220D02*
G03I-5200J0D01*
G01Y913220D02*
G03I-5200J0D01*
G01X-1146357Y776148D02*
Y773744D01*
X-1146951Y773150D01*
X-1151050D01*
X-1152900Y771300D01*
X-1156200D01*
X-1156900Y772000D01*
X-1158300D01*
G01X-1154200Y812500D02*
X-1144911D01*
X-1143942Y811531D01*
X-1143930D01*
X-1130499Y798100D01*
X-1128968D01*
X-1128918Y798050D01*
X-1127882D01*
X-1127832Y798100D01*
X-1124000D01*
G01X-1126100Y737978D02*
X-1126166D01*
X-1127090Y737054D01*
Y736554D01*
X-1129300Y734344D01*
Y712000D01*
X-1130700Y710600D01*
Y692900D01*
X-1112980Y675180D01*
Y656920D01*
X-1113900Y656000D01*
G01X-1125883Y745439D02*
X-1127133Y744189D01*
X-1131511D01*
X-1132301Y743399D01*
Y736401D01*
X-1131500Y735600D01*
Y714000D01*
X-1134700Y710800D01*
Y692700D01*
X-1120700Y678700D01*
X-1120432D01*
X-1119700Y677968D01*
Y677700D01*
X-1118953Y676953D01*
Y669307D01*
G01X-1126000Y707400D02*
X-1127400Y706000D01*
Y694100D01*
X-1111100Y677800D01*
X-1108500D01*
X-1103300Y672600D01*
Y664960D01*
X-1108953Y659307D01*
G01X-1104900Y671700D02*
X-1109500Y676300D01*
X-1111600D01*
X-1129200Y693900D01*
Y705473D01*
X-1127450Y707223D01*
Y709150D01*
X-1126000Y710600D01*
G01X-1125883Y742879D02*
X-1129751Y739011D01*
Y737242D01*
X-1130400Y736593D01*
Y713300D01*
X-1131750Y711950D01*
Y692150D01*
X-1114300Y674700D01*
Y668000D01*
X-1116700Y665600D01*
G01X-1126024Y735343D02*
Y735061D01*
X-1128200Y732885D01*
Y714900D01*
X-1124400Y711100D01*
Y695100D01*
X-1117100Y687800D01*
X-1100700D01*
X-1084600Y671700D01*
Y663660D01*
X-1088953Y659307D01*
G01X-1127145Y837100D02*
X-1130900Y833345D01*
Y821800D01*
X-1123227Y814127D01*
Y804200D01*
G01X-1137700Y898500D02*
X-1136400D01*
X-1135722Y897822D01*
X-1110676D01*
G01X-1123200Y656700D02*
X-1121100Y654600D01*
X-1075500D01*
X-1074000Y656100D01*
Y664260D01*
X-1068953Y669307D01*
G01X-1123324Y742879D02*
X-1124600Y741603D01*
Y726400D01*
X-1123300Y725100D01*
Y695800D01*
X-1116500Y689000D01*
X-1099400D01*
X-1084800Y674400D01*
X-1056300D01*
X-1054200Y672300D01*
Y664554D01*
X-1048953Y659307D01*
G01X-1094600Y671600D02*
X-1102300Y679300D01*
X-1110501D01*
X-1125900Y694699D01*
Y704400D01*
G01X-1118206Y737761D02*
X-1121127Y734840D01*
Y731809D01*
X-1122000Y730936D01*
Y726774D01*
X-1121500Y726274D01*
Y704600D01*
X-1111000Y694100D01*
X-1074524D01*
X-1074024Y693600D01*
Y693100D01*
X-1073524Y692600D01*
X-1072524D01*
X-1072024Y693100D01*
Y693600D01*
X-1071524Y694100D01*
X-1070524D01*
X-1070024Y693600D01*
Y693100D01*
X-1069524Y692600D01*
X-1068524D01*
X-1068024Y693100D01*
Y693600D01*
X-1067524Y694100D01*
X-1066524D01*
X-1066024Y693600D01*
Y693100D01*
X-1065524Y692600D01*
X-1064524D01*
X-1064024Y693100D01*
Y693600D01*
X-1063524Y694100D01*
X-1062524D01*
X-1062024Y693600D01*
Y693100D01*
X-1061524Y692600D01*
X-1060524D01*
X-1060024Y693100D01*
Y693600D01*
X-1059524Y694100D01*
X-1057730D01*
X-1057230Y693600D01*
Y693200D01*
X-1056730Y692700D01*
X-1055730D01*
X-1055230Y693200D01*
Y693600D01*
X-1054730Y694100D01*
X-1053730D01*
X-1053230Y693600D01*
Y693200D01*
X-1052730Y692700D01*
X-1051730D01*
X-1051230Y693200D01*
Y693600D01*
X-1050680Y694150D01*
X-1027482D01*
X-1027432Y694200D01*
X-1016099D01*
X-1005200Y705099D01*
Y730054D01*
X-1007200Y732054D01*
Y733354D01*
G01X-993100Y735100D02*
X-994900Y733300D01*
X-1000300D01*
X-1002100Y735100D01*
X-1007500D01*
X-1009100Y733500D01*
Y704400D01*
X-1015200Y698300D01*
X-1041300D01*
X-1043800Y695800D01*
X-1062632D01*
X-1062682Y695750D01*
X-1065482D01*
X-1065582Y695650D01*
X-1066618D01*
X-1066768Y695800D01*
X-1110700D01*
X-1120300Y705400D01*
Y726501D01*
X-1120800Y727001D01*
Y730863D01*
X-1120227Y731436D01*
Y733369D01*
X-1118300Y735296D01*
G01X-1118263Y732700D02*
X-1119253Y731710D01*
Y731075D01*
X-1119700Y730628D01*
Y727600D01*
X-1119200Y727100D01*
Y708699D01*
X-1111101Y700600D01*
X-1087100D01*
X-1085800Y701900D01*
X-1019800D01*
X-1016400Y705300D01*
Y709813D01*
X-1015900Y710313D01*
X-1015500D01*
X-1015000Y710813D01*
Y711813D01*
X-1015500Y712313D01*
X-1015900D01*
X-1016400Y712813D01*
Y713813D01*
X-1015900Y714313D01*
X-1015500D01*
X-1015000Y714813D01*
Y715813D01*
X-1015500Y716313D01*
X-1015900D01*
X-1016400Y716813D01*
Y717813D01*
X-1015900Y718313D01*
X-1015500D01*
X-1015000Y718813D01*
Y719813D01*
X-1015500Y720313D01*
X-1015900D01*
X-1016400Y720813D01*
Y729500D01*
X-1008200Y737700D01*
X-994400D01*
X-994300Y737800D01*
X-993000D01*
G01X-1115647Y742879D02*
X-1116956Y741570D01*
X-1118829D01*
X-1122027Y738372D01*
Y732182D01*
X-1123100Y731109D01*
Y726601D01*
X-1122400Y725901D01*
Y703501D01*
X-1109399Y690500D01*
X-1038839D01*
X-1038818Y690479D01*
X-1016821D01*
X-1003420Y703880D01*
Y732220D01*
X-1004340Y733140D01*
G01X-965500Y865400D02*
X-966420Y864480D01*
X-974520D01*
X-977500Y861500D01*
Y830700D01*
X-985050Y823150D01*
Y770550D01*
X-990200Y765400D01*
Y757299D01*
X-997249Y750250D01*
X-997518D01*
X-998250Y749518D01*
Y749249D01*
X-1020000Y727499D01*
Y707100D01*
X-1024300Y702800D01*
X-1087801D01*
X-1088701Y701900D01*
X-1110099D01*
X-1115782Y707583D01*
Y730219D01*
G01X-1115647Y740320D02*
X-1112000Y736673D01*
Y729400D01*
X-1108400Y725800D01*
Y720468D01*
X-1104182Y716250D01*
X-1061582D01*
X-1061532Y716200D01*
X-1057600D01*
X-1055600Y714200D01*
G01X-1115600Y732700D02*
X-1114200Y731300D01*
Y727800D01*
X-1111300Y724900D01*
Y712999D01*
X-1108200Y709899D01*
Y709232D01*
X-1107468Y708500D01*
X-1100910D01*
X-1100705Y708705D01*
X-1098505D01*
X-1096150Y706350D01*
X-1092650D01*
X-1090300Y708700D01*
X-1051000D01*
X-1049300Y710400D01*
G01X-1059000Y714100D02*
X-1059920Y713180D01*
X-1107280D01*
X-1108200Y714100D01*
Y716300D01*
X-1109600Y717700D01*
Y725100D01*
X-1113200Y728700D01*
Y735314D01*
X-1115647Y737761D01*
G01X-1109300Y838200D02*
Y834900D01*
X-1122300Y821900D01*
G01X-1109700Y842900D02*
X-1111800Y840800D01*
Y835100D01*
X-1121800Y825100D01*
X-1127000D01*
G01X-1030300Y705200D02*
X-1031600D01*
X-1032650Y704150D01*
X-1089150D01*
X-1090300Y703000D01*
X-1106800D01*
X-1114000Y710200D01*
Y715900D01*
X-1112700Y717200D01*
G01X-1110000Y698900D02*
X-1085699D01*
X-1084049Y700550D01*
X-1017650D01*
X-1013500Y704700D01*
Y708132D01*
X-1013450Y708182D01*
Y730850D01*
X-1008000Y736300D01*
X-998600D01*
X-997300Y735000D01*
G01X-1109200Y707600D02*
X-1105900Y704300D01*
X-1091300D01*
X-1088950Y706650D01*
X-1029450D01*
X-1028200Y707900D01*
G01X-1109800Y714800D02*
Y713500D01*
X-1107900Y711600D01*
X-1051800D01*
X-1051400Y712000D01*
X-1047400D01*
X-1046200Y713200D01*
Y715400D01*
X-1044900Y716700D01*
X-1042399D01*
X-1000635Y758464D01*
Y773862D01*
X-1001135Y774362D01*
X-1003500D01*
X-1004000Y774862D01*
Y775862D01*
X-1003500Y776362D01*
X-1001135D01*
X-1000635Y776862D01*
Y777862D01*
X-1001135Y778362D01*
X-1003500D01*
X-1004000Y778862D01*
Y779862D01*
X-1003500Y780362D01*
X-1001135D01*
X-1000635Y780862D01*
Y781862D01*
X-1001135Y782362D01*
X-1003500D01*
X-1004000Y782862D01*
Y783862D01*
X-1003500Y784362D01*
X-1001135D01*
X-1000635Y784862D01*
Y785862D01*
X-1001135Y786362D01*
X-1003500D01*
X-1004000Y786862D01*
Y787862D01*
X-1003500Y788362D01*
X-1001135D01*
X-1000635Y788862D01*
Y789862D01*
X-1001135Y790362D01*
X-1004000D01*
X-1004500Y790862D01*
Y791862D01*
X-1004000Y792362D01*
X-1001135D01*
X-1000635Y792862D01*
Y793862D01*
X-1001135Y794362D01*
X-1004000D01*
X-1004500Y794862D01*
Y795862D01*
X-1004000Y796362D01*
X-1001135D01*
X-1000635Y796862D01*
Y798865D01*
G01X-1010159Y771559D02*
X-1009100Y772618D01*
Y776160D01*
X-1008878Y776382D01*
Y777418D01*
X-1009100Y777640D01*
Y778071D01*
X-1009600Y778571D01*
X-1013300D01*
X-1013800Y779071D01*
Y780071D01*
X-1013300Y780571D01*
X-1009578D01*
X-1009078Y781071D01*
Y782071D01*
X-1009578Y782571D01*
X-1013300D01*
X-1013800Y783071D01*
Y784071D01*
X-1013300Y784571D01*
X-1009578D01*
X-1009078Y785071D01*
Y786071D01*
X-1009578Y786571D01*
X-1013300D01*
X-1013800Y787071D01*
Y788071D01*
X-1013300Y788571D01*
X-1009578D01*
X-1009078Y789071D01*
Y791100D01*
X-1008578Y791600D01*
X-1006700D01*
X-1006150Y791050D01*
Y770857D01*
X-1006200Y770807D01*
Y757293D01*
X-1034150Y729343D01*
Y729250D01*
X-1037160Y726240D01*
Y725532D01*
X-1036968Y725340D01*
Y724632D01*
X-1037675Y723925D01*
X-1038383D01*
X-1038575Y724117D01*
X-1039283D01*
X-1039990Y723410D01*
Y722702D01*
X-1039798Y722510D01*
Y721802D01*
X-1040505Y721095D01*
X-1041213D01*
X-1041405Y721287D01*
X-1042113D01*
X-1043400Y720000D01*
X-1047043D01*
X-1047543Y719500D01*
Y718300D01*
X-1048043Y717800D01*
X-1049043D01*
X-1049543Y718300D01*
Y719500D01*
X-1050043Y720000D01*
X-1051043D01*
X-1051543Y719500D01*
Y718300D01*
X-1052043Y717800D01*
X-1053043D01*
X-1053543Y718300D01*
Y719500D01*
X-1054143Y720100D01*
X-1100000D01*
X-1101750Y721850D01*
Y723864D01*
X-1108200Y730314D01*
G01X-1107970Y732643D02*
X-1098900Y723573D01*
Y722000D01*
X-1098100Y721200D01*
X-1056697D01*
X-1056197Y721700D01*
Y724000D01*
X-1055697Y724500D01*
X-1054697D01*
X-1054197Y724000D01*
Y721700D01*
X-1053697Y721200D01*
X-1052697D01*
X-1052197Y721700D01*
Y724000D01*
X-1051697Y724500D01*
X-1050697D01*
X-1050197Y724000D01*
Y721700D01*
X-1049697Y721200D01*
X-1048697D01*
X-1048197Y721700D01*
Y724000D01*
X-1047697Y724500D01*
X-1046697D01*
X-1046197Y724000D01*
Y721700D01*
X-1045697Y721200D01*
X-1044200D01*
X-1041757Y723643D01*
Y724351D01*
X-1042649Y725243D01*
Y725951D01*
X-1041942Y726658D01*
X-1041234D01*
X-1040342Y725766D01*
X-1039634D01*
X-1034092Y731308D01*
Y732016D01*
X-1035284Y733208D01*
Y733916D01*
X-1034577Y734623D01*
X-1033869D01*
X-1032677Y733431D01*
X-1031969D01*
X-1029765Y735635D01*
Y736443D01*
X-1032206Y738884D01*
Y739592D01*
X-1031499Y740299D01*
X-1030791D01*
X-1028300Y737808D01*
X-1027592D01*
X-1022279Y743121D01*
Y743829D01*
X-1025371Y746921D01*
Y747629D01*
X-1024664Y748336D01*
X-1023956D01*
X-1020864Y745244D01*
X-1020156D01*
X-1019449Y745951D01*
Y746859D01*
X-1022241Y749651D01*
Y750359D01*
X-1021634Y750966D01*
X-1020926D01*
X-1018034Y748074D01*
X-1017326D01*
X-1015121Y750279D01*
Y750987D01*
X-1016263Y752129D01*
Y752837D01*
X-1015556Y753544D01*
X-1014848D01*
X-1013706Y752402D01*
X-1012998D01*
X-1012151Y753249D01*
Y753957D01*
X-1013943Y755749D01*
Y756457D01*
X-1013236Y757164D01*
X-1012528D01*
X-1010736Y755372D01*
X-1010028D01*
X-1007459Y757941D01*
Y762858D01*
X-1008201Y763600D01*
X-1012900D01*
X-1013400Y764100D01*
Y764858D01*
X-1012900Y765358D01*
X-1007959D01*
X-1007400Y765917D01*
Y769900D01*
X-1007700Y770200D01*
Y771500D01*
G01X-1110529Y745439D02*
X-1109259Y744169D01*
Y733405D01*
X-1109800Y732864D01*
Y729863D01*
X-1104500Y724563D01*
Y720900D01*
X-1102550Y718950D01*
X-1064082D01*
X-1064032Y718900D01*
X-1056800D01*
X-1052200Y714300D01*
G01X-1081079Y819121D02*
X-1082700Y817500D01*
X-1097500D01*
X-1102100Y812900D01*
Y802468D01*
X-1105400Y799168D01*
G01X-1077654Y821070D02*
Y819670D01*
X-1078000Y819324D01*
Y818000D01*
X-1081300Y814700D01*
X-1091400D01*
X-1094300Y811800D01*
Y805600D01*
X-1102200Y797700D01*
X-1107500D01*
X-1111350Y801550D01*
X-1112900D01*
G01X-1089900Y820200D02*
X-1091400Y818700D01*
X-1098500D01*
X-1103700Y813500D01*
Y803373D01*
X-1105373Y801700D01*
G01X-1092300Y820700D02*
X-1093390Y821790D01*
X-1098610D01*
X-1106818Y813582D01*
Y802814D01*
X-1107932Y801700D01*
G01X-1086700Y820100D02*
X-1089800Y823200D01*
X-1099400D01*
X-1109368Y813232D01*
Y808809D01*
X-1109436Y808741D01*
Y806182D01*
X-1112018Y803600D01*
X-1113491D01*
X-1115500Y801591D01*
G01X-1106500Y818800D02*
Y827300D01*
X-1104900Y828900D01*
Y839200D01*
X-1107900Y842200D01*
Y844300D01*
X-1106300Y845900D01*
Y849132D01*
X-1107884Y850716D01*
G01X-1106600Y838200D02*
Y831200D01*
X-1111700Y826100D01*
Y818600D01*
G01X-1100145Y707355D02*
X-1098090Y705300D01*
X-1092201D01*
X-1089901Y707600D01*
X-1032373D01*
X-1030873Y709100D01*
X-1029700D01*
G01X-1100296Y804300D02*
X-1098900Y805696D01*
Y809700D01*
X-1092500Y816100D01*
X-1081601D01*
X-1079304Y818397D01*
Y821754D01*
X-1078299Y822759D01*
X-1074641D01*
G01X-1079820Y753116D02*
X-1081536Y751400D01*
X-1084300D01*
X-1086900Y748800D01*
Y740100D01*
X-1084300Y737500D01*
X-1076000D01*
X-1069500Y731000D01*
X-1042600D01*
X-1039500Y734100D01*
Y755099D01*
X-1040201Y755800D01*
X-1042743D01*
X-1044250Y754293D01*
G01X-1050450Y751688D02*
X-1049050D01*
X-1047977Y750615D01*
X-1045415D01*
X-1044100Y749300D01*
Y747606D01*
X-1043600Y747106D01*
X-1041800D01*
X-1041200Y746506D01*
Y745706D01*
X-1041800Y745106D01*
X-1043600D01*
X-1044100Y744606D01*
Y743606D01*
X-1043600Y743106D01*
X-1041800D01*
X-1041300Y742606D01*
Y741606D01*
X-1041800Y741106D01*
X-1043600D01*
X-1044100Y740606D01*
Y739606D01*
X-1043600Y739106D01*
X-1041700D01*
X-1041100Y738506D01*
Y737706D01*
X-1041700Y737106D01*
X-1043600D01*
X-1044100Y736606D01*
Y735100D01*
X-1046700Y732500D01*
X-1068700D01*
X-1075500Y739300D01*
X-1079300D01*
X-1081400Y741400D01*
Y743555D01*
X-1081900Y744055D01*
X-1084500D01*
X-1085000Y744555D01*
Y745655D01*
X-1084500Y746155D01*
X-1081900D01*
X-1081400Y746655D01*
Y749100D01*
X-1078100Y752400D01*
Y753955D01*
X-1079820Y755675D01*
G01X-1044304Y762059D02*
Y764418D01*
X-1045613Y765727D01*
X-1054727D01*
X-1055500Y766500D01*
Y770054D01*
X-1056292Y770846D01*
X-1057410D01*
X-1057910Y770346D01*
Y769229D01*
X-1058410Y768729D01*
X-1059310D01*
X-1059910Y769329D01*
Y770346D01*
X-1060900Y771336D01*
Y775200D01*
X-1061700Y776000D01*
X-1064829D01*
X-1065329Y775500D01*
Y772000D01*
X-1065829Y771500D01*
X-1066729D01*
X-1067329Y772100D01*
Y775500D01*
X-1067829Y776000D01*
X-1076300D01*
X-1076800Y775500D01*
Y774250D01*
X-1076300Y773750D01*
X-1071650D01*
X-1070613Y772713D01*
Y768500D01*
X-1071113Y768000D01*
X-1072113D01*
X-1072613Y768500D01*
Y769100D01*
X-1073113Y769600D01*
X-1083200D01*
X-1086650Y766150D01*
Y757387D01*
X-1082379Y753116D01*
G01X-1047592Y754364D02*
Y755764D01*
X-1045700Y757656D01*
Y758568D01*
X-1045949Y758817D01*
Y761370D01*
X-1045954Y761375D01*
Y763668D01*
X-1046600Y764314D01*
X-1047700D01*
X-1048653Y763361D01*
X-1049247D01*
X-1050200Y764314D01*
X-1051086D01*
X-1051691Y763709D01*
X-1053195D01*
X-1053886Y764400D01*
X-1054837D01*
X-1055437Y763800D01*
Y761900D01*
X-1055937Y761400D01*
X-1056937D01*
X-1057437Y761900D01*
Y763800D01*
X-1058037Y764400D01*
X-1060563D01*
X-1061063Y763900D01*
Y762000D01*
X-1061663Y761400D01*
X-1062463D01*
X-1063063Y762000D01*
Y763900D01*
X-1063563Y764400D01*
X-1064670D01*
X-1065170Y764900D01*
Y766800D01*
X-1065670Y767300D01*
X-1066670D01*
X-1067170Y766800D01*
Y764900D01*
X-1067670Y764400D01*
X-1068050D01*
X-1068550Y763900D01*
Y760000D01*
X-1069050Y759500D01*
X-1070050D01*
X-1070550Y760000D01*
Y763900D01*
X-1071050Y764400D01*
X-1072087D01*
X-1072587Y763900D01*
Y763000D01*
X-1073087Y762500D01*
X-1074087D01*
X-1074587Y763000D01*
Y764000D01*
X-1075087Y764500D01*
X-1076000D01*
X-1076500Y764000D01*
Y763000D01*
X-1077000Y762500D01*
X-1078200D01*
X-1078650Y762950D01*
Y765450D01*
X-1079500Y766300D01*
X-1082400D01*
X-1083424Y765276D01*
Y760424D01*
X-1082300Y759300D01*
X-1075400D01*
X-1075000Y758900D01*
Y757700D01*
X-1075375Y757325D01*
X-1080504D01*
X-1080529Y757300D01*
X-1080754D01*
X-1082379Y755675D01*
G01X-1082450Y804350D02*
X-1085750D01*
X-1086900Y803200D01*
Y799900D01*
X-1083550Y796550D01*
Y793650D01*
X-1084800Y792400D01*
Y791100D01*
X-1083300Y789600D01*
Y787400D01*
X-1085500Y785200D01*
Y775800D01*
X-1085000Y775300D01*
X-1081800D01*
X-1081100Y776000D01*
Y778900D01*
X-1080350Y779650D01*
X-1072450D01*
X-1070900Y778100D01*
X-1059900D01*
X-1058500Y779500D01*
Y783800D01*
X-1057900Y784400D01*
X-1056400D01*
X-1055400Y785400D01*
Y788614D01*
X-1054600Y789414D01*
X-1052608D01*
X-1052108Y789914D01*
Y790622D01*
X-1053743Y792257D01*
Y792769D01*
G01X-1077800Y808400D02*
X-1079600Y806600D01*
Y799800D01*
X-1081350Y798050D01*
Y795850D01*
X-1080591Y795091D01*
X-1074600D01*
X-1073300Y793791D01*
Y790900D01*
X-1074000Y790200D01*
X-1077751D01*
X-1078550Y789401D01*
Y788350D01*
X-1077900Y787700D01*
X-1074800D01*
X-1074000Y786900D01*
Y785400D01*
X-1072900Y784300D01*
Y782500D01*
X-1070200Y779800D01*
X-1067600D01*
X-1066700Y780700D01*
Y785200D01*
X-1066100Y785800D01*
X-1063600D01*
X-1062900Y785100D01*
Y780400D01*
X-1062400Y779900D01*
X-1060600D01*
X-1059900Y780600D01*
Y784500D01*
X-1058414Y785986D01*
Y788600D01*
X-1055500Y791514D01*
Y793346D01*
X-1053743Y795103D01*
Y795228D01*
G01X-1050594Y800546D02*
Y802700D01*
X-1051094Y803200D01*
X-1052400D01*
X-1052900Y802700D01*
Y798900D01*
X-1053500Y798300D01*
X-1054744D01*
X-1055244Y798800D01*
Y804594D01*
X-1055664Y805014D01*
X-1056504D01*
X-1056924Y804594D01*
Y802234D01*
X-1057344Y801814D01*
X-1058184D01*
X-1058604Y802234D01*
Y804994D01*
X-1059024Y805414D01*
X-1059864D01*
X-1060484Y804794D01*
Y801434D01*
X-1061004Y800914D01*
X-1063100D01*
X-1063900Y801714D01*
Y802506D01*
X-1064600Y803206D01*
X-1075584D01*
X-1076050Y803672D01*
Y804640D01*
X-1075584Y805106D01*
X-1067300D01*
X-1066800Y805606D01*
Y809400D01*
X-1067300Y809900D01*
X-1068996D01*
X-1069496Y809400D01*
Y807700D01*
X-1069996Y807200D01*
X-1070996D01*
X-1071496Y807700D01*
Y809400D01*
X-1072146Y810050D01*
X-1078484D01*
X-1078534Y810000D01*
X-1080600D01*
X-1082300Y808300D01*
Y806900D01*
G01X-1077261Y755675D02*
X-1076271Y754685D01*
Y749059D01*
X-1073601Y746389D01*
X-1071789D01*
X-1071000Y745600D01*
Y743900D01*
X-1071600Y743300D01*
X-1078200D01*
X-1079000Y742500D01*
Y741400D01*
X-1078200Y740600D01*
X-1071500D01*
X-1070600Y739700D01*
Y737700D01*
X-1068900Y736000D01*
X-1065800D01*
X-1063900Y734100D01*
X-1047400D01*
X-1045500Y736000D01*
Y746000D01*
X-1046114Y746614D01*
X-1050700D01*
X-1052100Y748014D01*
Y752372D01*
X-1050972Y753500D01*
X-1049806D01*
X-1049020Y752714D01*
X-1046900D01*
X-1045900Y753714D01*
Y755214D01*
X-1045000Y756114D01*
X-1044300D01*
X-1043700Y756714D01*
Y758902D01*
X-1044299Y759501D01*
G01X-1053743Y754283D02*
X-1055499D01*
X-1056000Y753782D01*
Y751400D01*
X-1055400Y750800D01*
Y747500D01*
X-1051500Y743600D01*
X-1049100D01*
X-1048400Y742900D01*
Y737800D01*
X-1049000Y737200D01*
X-1050100D01*
X-1050900Y738000D01*
Y740900D01*
X-1051500Y741500D01*
X-1052400D01*
X-1052900Y741000D01*
Y739200D01*
X-1053300Y738800D01*
X-1054600D01*
X-1057450Y741650D01*
X-1063750D01*
X-1065000Y740400D01*
Y738054D01*
X-1065454Y737600D01*
X-1067800D01*
X-1069000Y738800D01*
Y743332D01*
X-1067632Y744700D01*
X-1061200D01*
G01X-1074687Y760788D02*
X-1073000Y759101D01*
Y756000D01*
X-1071900Y754900D01*
X-1069200D01*
X-1068151Y753851D01*
Y752499D01*
X-1069000Y751650D01*
X-1071950D01*
X-1072596Y751004D01*
Y750296D01*
X-1071700Y749400D01*
X-1068400D01*
X-1067800Y748800D01*
Y746800D01*
X-1067300Y746300D01*
X-1065475D01*
X-1064975Y746800D01*
Y751600D01*
X-1064475Y752100D01*
X-1063475D01*
X-1062975Y751600D01*
Y746900D01*
X-1062475Y746400D01*
X-1061300D01*
X-1060800Y746900D01*
Y747758D01*
X-1060300Y748258D01*
X-1058230D01*
X-1057730Y748758D01*
Y749758D01*
X-1058230Y750258D01*
X-1060300D01*
X-1060800Y750758D01*
Y751758D01*
X-1060300Y752258D01*
X-1059700D01*
X-1059200Y752758D01*
Y754800D01*
X-1060000Y755600D01*
X-1066400D01*
X-1067000Y756200D01*
Y757600D01*
X-1066400Y758200D01*
X-1058500D01*
X-1056233Y755933D01*
X-1049667D01*
X-1049054Y756546D01*
Y757254D01*
X-1049700Y757900D01*
X-1051400D01*
X-1052100Y758600D01*
Y760416D01*
X-1053743Y762059D01*
G01X-1044304Y792769D02*
X-1046059Y791014D01*
X-1048000D01*
X-1049000Y792014D01*
Y796001D01*
X-1049877Y796878D01*
X-1054427D01*
X-1055900Y795405D01*
Y794700D01*
X-1057200Y793400D01*
X-1058222D01*
X-1058722Y792900D01*
Y791200D01*
X-1059222Y790700D01*
X-1060222D01*
X-1060722Y791200D01*
Y792900D01*
X-1061222Y793400D01*
X-1064400D01*
X-1064900Y792900D01*
Y789700D01*
X-1065900Y788700D01*
X-1070700D01*
X-1071900Y789900D01*
Y796200D01*
X-1071400Y796700D01*
X-1057800D01*
X-1057300Y797200D01*
Y798300D01*
X-1057850Y798850D01*
X-1071350D01*
X-1073300Y800800D01*
G01X-1053743Y805565D02*
X-1052035D01*
X-1049800Y807800D01*
X-1044800D01*
X-1044200Y808400D01*
Y809900D01*
X-1044800Y810500D01*
X-1046800D01*
X-1049100Y812800D01*
X-1050665D01*
X-1051265Y812200D01*
Y809000D01*
X-1051765Y808500D01*
X-1052765D01*
X-1053265Y809000D01*
Y812200D01*
X-1053765Y812700D01*
X-1055489D01*
X-1055989Y812200D01*
Y807900D01*
X-1056489Y807400D01*
X-1057489D01*
X-1057989Y807900D01*
Y812300D01*
X-1058489Y812800D01*
X-1059489D01*
X-1059989Y812300D01*
Y807900D01*
X-1060489Y807400D01*
X-1063900D01*
X-1064400Y807900D01*
Y809200D01*
X-1063900Y809700D01*
X-1063100D01*
X-1062600Y810200D01*
Y812150D01*
X-1063100Y812650D01*
X-1067291D01*
X-1067791Y812150D01*
Y811900D01*
X-1068291Y811400D01*
X-1069291D01*
X-1069791Y811900D01*
Y812350D01*
X-1070291Y812850D01*
X-1072100D01*
G01X-1044304Y800544D02*
X-1039848Y805000D01*
X-1036300D01*
X-1035700Y805600D01*
Y806900D01*
X-1036200Y807400D01*
X-1038700D01*
X-1039300Y808000D01*
Y810650D01*
X-1038700Y811250D01*
X-1036600D01*
X-1036100Y811750D01*
Y816400D01*
X-1036900Y817200D01*
X-1039052D01*
X-1039552Y816700D01*
Y814500D01*
X-1040052Y814000D01*
X-1041052D01*
X-1041552Y814500D01*
Y816700D01*
X-1042052Y817200D01*
X-1043052D01*
X-1043552Y816700D01*
Y814700D01*
X-1044052Y814200D01*
X-1045052D01*
X-1045552Y814700D01*
Y816700D01*
X-1046052Y817200D01*
X-1066900D01*
X-1069700Y814400D01*
G01X-1053889Y751623D02*
Y750223D01*
X-1053743Y750077D01*
Y747557D01*
X-1051200Y745014D01*
X-1047614D01*
X-1046800Y744200D01*
Y736700D01*
X-1048000Y735500D01*
X-1053400D01*
X-1055100Y737200D01*
X-1057300D01*
X-1059200Y735300D01*
X-1062400D01*
X-1063500Y736400D01*
Y737800D01*
X-1061500Y739800D01*
G01X-1044304Y795228D02*
X-1042732Y796800D01*
X-1035000D01*
X-1034600Y797200D01*
Y798500D01*
X-1035096Y798996D01*
X-1036344D01*
X-1036844Y799496D01*
Y799900D01*
X-1037344Y800400D01*
X-1038344D01*
X-1038844Y799900D01*
Y799496D01*
X-1039540Y798800D01*
X-1044900D01*
X-1045994Y799894D01*
Y805600D01*
X-1045194Y806400D01*
X-1041930D01*
X-1040969Y807361D01*
Y811069D01*
X-1042000Y812100D01*
X-1045900D01*
X-1049450Y815650D01*
X-1054173D01*
X-1054673Y815150D01*
Y814900D01*
X-1055173Y814400D01*
X-1056173D01*
X-1056673Y814900D01*
Y815150D01*
X-1057173Y815650D01*
X-1058173D01*
X-1058673Y815150D01*
Y814800D01*
X-1059173Y814300D01*
X-1060173D01*
X-1060673Y814800D01*
Y815150D01*
X-1061173Y815650D01*
X-1066050D01*
X-1067300Y814400D01*
G01X-1053700Y845600D02*
X-1054620Y844680D01*
Y827910D01*
X-1051210Y824500D01*
X-1020600D01*
X-1017700Y821600D01*
X-1013800D01*
G01X-1022800Y883500D02*
Y882100D01*
X-1022600Y881900D01*
Y864600D01*
X-1030700Y856500D01*
X-1052700D01*
X-1055200Y854000D01*
G01X-1044000Y709100D02*
Y712400D01*
X-1037761Y718639D01*
X-1037053D01*
X-1035961Y717547D01*
X-1035253D01*
X-1034546Y718254D01*
Y718962D01*
X-1035638Y720054D01*
Y721362D01*
X-997770Y759230D01*
Y803330D01*
X-996850Y804250D01*
G01X-1041200Y709200D02*
X-1032100Y718300D01*
Y722599D01*
X-995200Y759499D01*
Y807000D01*
X-996850Y808650D01*
G01X-1035200Y709200D02*
X-1030900Y713500D01*
Y718800D01*
X-994000Y755700D01*
Y766200D01*
X-989500Y770700D01*
Y804600D01*
X-996850Y811950D01*
Y813250D01*
G01X-1004600Y771800D02*
Y756700D01*
X-1032600Y728700D01*
G01X-1009500Y816900D02*
Y832800D01*
X-1008800Y833500D01*
G01X-954580Y664307D02*
G03I-5200J0D01*
G01Y857220D02*
G03I-5200J0D01*
G01Y913220D02*
G03I-5200J0D01*
G01X-957811Y650528D02*
G03X-946000Y662339I0J11811D01*
G01Y915189D02*
G03X-957811Y927000I-11811J0D01*
G01X-946000Y662339D02*
Y915189D01*
G54D14*
X-1220764Y894764D03*
Y904764D03*
X-1210764Y899764D03*
Y909764D03*
X-1168953Y659307D03*
Y669307D03*
X-1158953Y659307D03*
X-1148953D03*
X-1158953Y669307D03*
X-1148953D03*
X-1138953Y659307D03*
Y669307D03*
X-1128953Y659307D03*
Y669307D03*
X-1118953Y659307D03*
Y669307D03*
X-1108953Y659307D03*
Y669307D03*
X-1098953Y659307D03*
Y669307D03*
X-1088953Y659307D03*
X-1078953D03*
X-1088953Y669307D03*
X-1078953D03*
X-1068953Y659307D03*
Y669307D03*
X-1058953Y659307D03*
Y669307D03*
X-1048953Y659307D03*
Y669307D03*
X-1038953Y659307D03*
Y669307D03*
X-1028953Y659307D03*
Y669307D03*
X-1018953Y659307D03*
X-1008953D03*
X-1018953Y669307D03*
X-1008953D03*
X-998953Y659307D03*
Y669307D03*
X-988953Y659307D03*
Y669307D03*
X-978953Y659307D03*
Y669307D03*
G54D24*
G01X-1280646Y662339D02*
Y915189D01*
G02X-1268835Y927000I11811J0D01*
G01X-957811D01*
G02X-946000Y915189I0J-11811D01*
G01Y662339D01*
G02X-957811Y650528I-11811J0D01*
G01X-1268835D01*
G02X-1280646Y662339I0J11811D01*
G54D15*
X-1215600Y683500D03*
X-1210600Y677800D03*
X-1211000Y690100D03*
X-1210600Y693300D03*
Y684700D03*
X-1213222Y694800D03*
X-1213000Y687850D03*
X-1209800Y702200D03*
X-1209700Y696500D03*
X-1214000Y700700D03*
X-1214600Y709900D03*
X-1214300Y707900D03*
X-1211400Y712400D03*
X-1197200Y683800D03*
X-1207900Y680600D03*
X-1202300Y693700D03*
X-1202200Y691495D03*
X-1208300Y691600D03*
X-1199100Y697200D03*
X-1199200Y699400D03*
X-1199700Y706900D03*
X-1202230Y699069D03*
X-1207600Y698400D03*
X-1208000Y712200D03*
X-1208100Y709700D03*
X-1205900Y717700D03*
X-1193300Y683800D03*
X-1196900Y677800D03*
X-1190853Y712247D03*
X-1186900Y711900D03*
X-1188900Y717100D03*
X-1194790Y712290D03*
X-1185538Y831638D03*
X-1188400Y825100D03*
X-1190100D03*
X-1175300Y706500D03*
Y701100D03*
X-1175500Y698400D03*
X-1175100Y703200D03*
X-1178300Y869200D03*
X-1176700D03*
X-1178300Y870900D03*
X-1176600D03*
X-1167287Y851787D03*
X-1154200Y812500D03*
X-1153400Y864700D03*
X-1127000Y825100D03*
X-1127145Y837100D03*
X-1137700Y898500D03*
X-1123200Y656700D03*
X-1116700Y665600D03*
X-1126000Y710600D03*
X-1126024Y735343D03*
X-1126100Y737978D03*
X-1122300Y821900D03*
X-1113900Y656000D03*
X-1104900Y671700D03*
X-1112700Y717200D03*
X-1109800Y714800D03*
X-1106200Y842842D03*
X-1106600Y838200D03*
X-1109700Y842900D03*
X-1109300Y838200D03*
X-1107884Y850716D03*
X-1106400Y852684D03*
X-1106542Y860558D03*
X-1108100Y860800D03*
X-1105600Y866600D03*
X-1105421Y868921D03*
X-1094600Y671600D03*
X-1100145Y707355D03*
X-1101327Y867427D03*
X-1074610Y844810D03*
X-1076100Y868100D03*
X-1059000Y714100D03*
X-1066700Y841900D03*
X-1064600D03*
X-1055600Y714200D03*
X-1049300Y710400D03*
X-1052200Y714300D03*
X-1051200Y829300D03*
X-1053700Y845600D03*
X-1055200Y854000D03*
X-1044000Y709100D03*
X-1041200Y709200D03*
X-1035200D03*
X-1030300Y705200D03*
X-1028200Y707900D03*
X-1029700Y709100D03*
X-1032600Y728700D03*
X-1022800Y883500D03*
X-1023568Y887168D03*
X-1010159Y771559D03*
X-1013800Y821600D03*
X-1007200Y733354D03*
X-1004340Y733140D03*
X-1007700Y771500D03*
X-1004600Y771800D03*
X-1000635Y798865D03*
X-1009500Y816900D03*
X-1008800Y833500D03*
X-997300Y735000D03*
X-993100Y735100D03*
X-993000Y737800D03*
X-996850Y804250D03*
Y808650D03*
Y813250D03*
X-983200Y767400D03*
X-978200Y808400D03*
X-966090Y691090D03*
X-970800Y687690D03*
X-964500Y705100D03*
Y700100D03*
X-964690Y697150D03*
X-968240Y705180D03*
X-968370Y700260D03*
Y696760D03*
X-964500Y715100D03*
Y710100D03*
X-968280Y715050D03*
X-968370Y710030D03*
X-964500Y720100D03*
Y725100D03*
Y730100D03*
X-968320Y730060D03*
X-968430Y725080D03*
X-964500Y735100D03*
X-965500Y865400D03*
X-952970Y676390D03*
Y681390D03*
Y691390D03*
Y686390D03*
X-957360Y687420D03*
X-960100Y689580D03*
X-963090Y690790D03*
X-960660Y705060D03*
X-960850Y697110D03*
X-960660Y700060D03*
X-957300Y696970D03*
X-960660Y715060D03*
Y710060D03*
Y730060D03*
Y725060D03*
Y720060D03*
X-959500Y735100D03*
X-954500D03*
X-954550Y732440D03*
X-950200Y671800D03*
X-950530Y683320D03*
Y678320D03*
Y693320D03*
Y688320D03*
Y698320D03*
X-949500Y735100D03*
X-949430Y732470D03*
G54D25*
G01X-1147000Y823500D02*
X-1147400Y823900D01*
X-1151247D01*
X-1151777Y823370D01*
Y822930D01*
X-1152307Y822400D01*
X-1153367D01*
X-1153897Y822930D01*
Y823370D01*
X-1154427Y823900D01*
X-1155487D01*
X-1156017Y823370D01*
Y822930D01*
X-1156547Y822400D01*
X-1157607D01*
X-1158137Y822930D01*
Y823370D01*
X-1158667Y823900D01*
X-1168500D01*
X-1171200Y821200D01*
X-1185900D01*
X-1215800Y791300D01*
Y755000D01*
X-1213900Y753100D01*
Y739492D01*
X-1213100Y738692D01*
Y737372D01*
X-1213900Y736572D01*
Y735200D01*
X-1211430Y732730D01*
X-1208486D01*
X-1207617Y733599D01*
G01X-1161115Y815424D02*
X-1160732Y815075D01*
X-1160731Y815054D01*
X-1160729Y815045D01*
X-1160638Y813100D01*
X-1161940Y811800D01*
X-1164116D01*
X-1164646Y812330D01*
Y812770D01*
X-1165176Y813300D01*
X-1166236D01*
X-1166766Y812770D01*
Y812330D01*
X-1167466Y811630D01*
X-1191070D01*
X-1211100Y791600D01*
Y739154D01*
X-1207424Y735478D01*
X-1205870D01*
X-1205490Y735098D01*
Y733544D01*
X-1203200Y731254D01*
Y729800D01*
X-1203695Y729305D01*
X-1204548D01*
X-1205400Y730157D01*
G01X-1146900Y825700D02*
X-1147470Y825130D01*
X-1169010D01*
X-1171710Y822430D01*
X-1186410D01*
X-1217030Y791810D01*
Y754490D01*
X-1215130Y752590D01*
Y734690D01*
X-1211940Y731500D01*
X-1208452D01*
X-1207617Y730665D01*
G01X-1159123Y815515D02*
X-1159500Y815102D01*
X-1159383Y812614D01*
X-1161431Y810570D01*
X-1166786D01*
X-1166956Y810400D01*
X-1190560D01*
X-1209870Y791090D01*
Y739664D01*
X-1206914Y736708D01*
X-1206050D01*
X-1205310Y737448D01*
X-1204260D01*
X-1203520Y736708D01*
Y735658D01*
X-1204260Y734918D01*
Y734054D01*
X-1201970Y731764D01*
Y729290D01*
X-1203185Y728075D01*
X-1204548D01*
X-1205400Y727223D01*
G01X-1176056Y853808D02*
X-1176900Y852964D01*
Y844800D01*
X-1194105Y827595D01*
Y827565D01*
X-1199800Y821870D01*
Y819300D01*
X-1202000Y817100D01*
X-1204505D01*
X-1205517Y816088D01*
G01X-1178990Y853808D02*
X-1178130Y852948D01*
Y845310D01*
X-1179529Y843911D01*
X-1180279D01*
X-1180709Y844341D01*
X-1181459D01*
X-1182209Y843591D01*
Y842841D01*
X-1181779Y842411D01*
Y841661D01*
X-1195335Y828105D01*
Y828075D01*
X-1201030Y822380D01*
Y819810D01*
X-1202510Y818330D01*
X-1204825D01*
X-1205517Y819022D01*
G01X-1135500Y827600D02*
X-1136270Y826830D01*
X-1139010D01*
X-1142000Y823840D01*
Y814270D01*
X-1128500Y800770D01*
X-1121110D01*
X-1116740Y796400D01*
X-1113231D01*
X-1110131Y793300D01*
X-1097456D01*
X-1095205Y795551D01*
Y796198D01*
X-1094268Y797135D01*
X-1093131D01*
X-1092496Y796500D01*
G01X-1135500Y824666D02*
X-1136434Y825600D01*
X-1138500D01*
X-1140770Y823330D01*
Y814780D01*
X-1138990Y813000D01*
X-1138240D01*
X-1137945Y813295D01*
X-1137095D01*
X-1136395Y812595D01*
Y811845D01*
X-1136740Y811500D01*
Y810750D01*
X-1135990Y810000D01*
X-1135240D01*
X-1134845Y810395D01*
X-1134095D01*
X-1133345Y809645D01*
Y808895D01*
X-1133740Y808500D01*
Y807750D01*
X-1127990Y802000D01*
X-1120600D01*
X-1116230Y797630D01*
X-1112721D01*
X-1109621Y794530D01*
X-1097966D01*
X-1096435Y796061D01*
Y796708D01*
X-1094778Y798365D01*
X-1093131D01*
X-1092496Y799000D01*
X-1092437D01*
G54D16*
X-1110676Y897822D03*
Y907822D03*
G54D26*
G01X-1084100Y869900D02*
X-1083171Y870829D01*
Y872471D01*
X-1083820Y873120D01*
X-1085550D01*
X-1088130Y875700D01*
X-1104700D01*
X-1113500Y884500D01*
X-1186625D01*
X-1205825Y903700D01*
X-1213600D01*
X-1214700Y904800D01*
X-1220728D01*
X-1220764Y904764D01*
G01X-1086958Y869897D02*
X-1087887Y870826D01*
Y871984D01*
X-1089293Y873390D01*
X-1106835D01*
X-1108635Y871590D01*
X-1133565D01*
X-1140065Y878090D01*
X-1191189D01*
X-1207189Y894090D01*
X-1214190D01*
X-1214900Y894800D01*
Y895628D01*
X-1210764Y899764D01*
G01X-1090106Y869897D02*
X-1089177Y870826D01*
Y871449D01*
X-1089828Y872100D01*
X-1106300D01*
X-1108100Y870300D01*
X-1134100D01*
X-1140600Y876800D01*
X-1191724D01*
X-1207724Y892800D01*
X-1214725D01*
X-1216689Y894764D01*
X-1220764D01*
G01X-1080952Y869900D02*
X-1081881Y870829D01*
Y873006D01*
X-1083285Y874410D01*
X-1085015D01*
X-1087595Y876990D01*
X-1104165D01*
X-1112965Y885790D01*
X-1186090D01*
X-1205290Y904990D01*
X-1213065D01*
X-1213787Y905712D01*
Y906741D01*
X-1210764Y909764D01*
G01X-1154296Y798659D02*
X-1153367Y797730D01*
Y794140D01*
X-1154007Y793500D01*
X-1156175D01*
X-1157924Y795249D01*
Y795871D01*
X-1157509Y796287D01*
Y796909D01*
X-1158132Y797532D01*
X-1158753D01*
X-1159169Y797116D01*
X-1159791D01*
X-1160675Y798000D01*
X-1170926D01*
X-1173877Y795049D01*
Y792391D01*
X-1174268Y792000D01*
X-1181044D01*
X-1182190Y790854D01*
Y785481D01*
X-1182581Y785090D01*
X-1186911D01*
X-1187801Y784200D01*
X-1188391D01*
X-1188791Y784600D01*
X-1189955D01*
X-1190355Y784200D01*
X-1191224D01*
X-1192110Y783316D01*
X-1192437D01*
X-1193094Y783973D01*
G01X-1151148Y798659D02*
X-1152077Y797730D01*
Y793605D01*
X-1153472Y792210D01*
X-1156710D01*
X-1161210Y796710D01*
X-1170391D01*
X-1172587Y794514D01*
Y791856D01*
X-1173733Y790710D01*
X-1180509D01*
X-1180900Y790319D01*
Y784946D01*
X-1182046Y783800D01*
X-1186376D01*
X-1187266Y782910D01*
X-1190690D01*
X-1191576Y782026D01*
X-1192482D01*
X-1193094Y781414D01*
G54D17*
X-1110676Y917822D03*
G54D27*
G01X-1143798Y771029D02*
X-1145227Y769600D01*
X-1159500D01*
X-1161000Y771100D01*
X-1168921D01*
X-1171626Y769516D01*
X-1177188D01*
X-1180977Y768223D01*
X-1183000Y766200D01*
X-1190600D01*
X-1191400Y767000D01*
Y769145D01*
X-1192007Y769752D01*
X-1197050D01*
X-1197900Y768902D01*
Y764300D01*
X-1198600Y763600D01*
X-1201858D01*
X-1202558Y762900D01*
Y761250D01*
X-1201708Y760400D01*
X-1187600D01*
X-1186600Y761400D01*
Y763600D01*
G01X-1151730Y755718D02*
Y756498D01*
X-1151128Y757100D01*
X-1148278D01*
X-1147200Y756022D01*
Y754289D01*
X-1148789Y752700D01*
X-1153701D01*
X-1156100Y755099D01*
Y759150D01*
X-1156950Y760000D01*
X-1159600D01*
X-1160298Y759302D01*
Y756318D01*
X-1161716Y754900D01*
X-1164550D01*
X-1165400Y755750D01*
Y759116D01*
X-1166409Y760125D01*
X-1168877D01*
X-1169752Y759250D01*
Y758150D01*
X-1170902Y757000D01*
X-1172202D01*
X-1173152Y757950D01*
Y759250D01*
X-1174002Y760100D01*
X-1177342D01*
X-1178700Y761458D01*
Y764250D01*
X-1177850Y765100D01*
X-1174602D01*
X-1174000Y764498D01*
Y763600D01*
G01X-1160097Y763746D02*
X-1161943Y761900D01*
X-1167950D01*
X-1168800Y762750D01*
Y765850D01*
X-1167950Y766700D01*
X-1160399D01*
X-1159562Y767537D01*
X-1156391D01*
X-1155541Y766687D01*
Y762041D01*
X-1153400Y759900D01*
X-1146450D01*
X-1145600Y760750D01*
Y763098D01*
X-1146102Y763600D01*
X-1150200D01*
X-1151100Y764500D01*
Y766837D01*
X-1150400Y767537D01*
X-1145683D01*
X-1144646Y766500D01*
X-1136600D01*
X-1135100Y765000D01*
Y759350D01*
X-1136350Y758100D01*
X-1140421D01*
X-1141239Y758918D01*
Y760794D01*
G54D18*
X-1001128Y906831D03*
X-978372D03*
G54D19*
X-963561Y778392D03*
Y809888D03*
M02*
