G04 ================== begin FILE IDENTIFICATION RECORD ==================*
G04 Layout Name:  BeagleV_15.brd*
G04 Film Name:    L7_PWR7*
G04 File Format:  Gerber RS274X*
G04 File Origin:  Cadence Allegro 17.2-061*
G04 Origin Date:  Wed Apr 21 13:44:30 2021*
G04 *
G04 Layer:  VIA CLASS/POWER07*
G04 Layer:  PIN/POWER07*
G04 Layer:  ETCH/POWER07*
G04 Layer:  BOARD GEOMETRY/OUTLINE*
G04 *
G04 Offset:    (0.00 0.00)*
G04 Mirror:    No*
G04 Mode:      Positive*
G04 Rotation:  0*
G04 FullContactRelief:  No*
G04 UndefLineWidth:     4.00*
G04 ================== end FILE IDENTIFICATION RECORD ====================*
%FSLAX25Y25*MOIN*%
%IR0*IPPOS*OFA0.00000B0.00000*MIA0B0*SFA1.00000B1.00000*%
%ADD14C,.014*%
%ADD12C,.016*%
%ADD16C,.075*%
%ADD18C,.02362*%
%ADD19C,.03543*%
%ADD11C,.05118*%
%ADD10C,.04724*%
%ADD17R,.075X.075*%
%ADD15C,.06299*%
%ADD13C,.12795*%
%ADD20C,.005*%
%ADD21C,.004*%
%ADD26C,.07102*%
%ADD25C,.04334*%
%ADD27C,.0709*%
%ADD22C,.01592*%
%ADD29C,.03942*%
%ADD28C,.07093*%
%ADD31C,.03548*%
%ADD24C,.08292*%
%ADD30C,.07484*%
%ADD32C,.09846*%
%ADD23C,.16006*%
G75*
%LPD*%
G75*
G36*
G01X-966300Y807743D02*
G02X-965605Y808013I400J0D01*
G03Y811764I2044J1876D01*
G02X-966300Y812034I-295J270D01*
G01Y829900D01*
X-970525Y834125D01*
X-970425Y834279D01*
X-970409Y834306D01*
G03X-970304Y834700I-691J395D01*
G03X-971100Y835496I-796J0D01*
G03X-971538Y835364I1J-796D01*
G01X-971675Y835275D01*
X-993525Y857125D01*
X-993425Y857279D01*
X-993409Y857306D01*
G03X-993304Y857700I-691J395D01*
G03X-994100Y858496I-796J0D01*
G03X-994538Y858364I1J-796D01*
G01X-994675Y858275D01*
X-1001100Y864700D01*
Y891600D01*
X-1003079Y893579D01*
X-1003005Y893711D01*
G03X-1002904Y894098I-695J388D01*
G01Y894100D01*
G03X-1003140Y894666I-797J0D01*
G02Y895234I281J284D01*
G03X-1002904Y895800I-561J566D01*
G03X-1004496I-796J0D01*
G01Y895799D01*
G03X-1004426Y895474I796J1D01*
G01X-1004379Y895370D01*
X-1004446Y895276D01*
G02X-1004750Y895250I-163J116D01*
G01X-1004961Y895461D01*
X-1004937Y895576D01*
X-1004935Y895583D01*
G03X-1004904Y895800I-765J220D01*
G03X-1005700Y896596I-796J0D01*
G03X-1005919Y896565I1J-796D01*
G01X-1006033Y896533D01*
X-1006300Y896800D01*
X-1030700D01*
X-1040607Y886893D01*
G02X-1041290Y887175I-283J283D01*
G01Y893683D01*
G03X-1045624I-2167J-1D01*
G01Y886200D01*
G03X-1044162Y884152I2167J1D01*
G02X-1044009Y883491I-130J-378D01*
G01X-1045000Y882500D01*
X-1066100D01*
X-1068600Y880000D01*
Y879599D01*
X-1068734Y879552D01*
G03Y878048I261J-752D01*
G01X-1068600Y878001D01*
Y877089D01*
X-1068615Y877053D01*
G03X-1068676Y876750I735J-306D01*
G03X-1068615Y876447I796J3D01*
G01X-1068600Y876411D01*
Y867900D01*
X-1070200Y866300D01*
X-1100378D01*
G02X-1100695Y866943I1J400D01*
G03X-1100531Y867427I-632J484D01*
G03X-1102123I-796J0D01*
G03X-1101959Y866943I796J0D01*
G02X-1102276Y866300I-318J-243D01*
G01X-1104409D01*
G02X-1104807Y866667I1J400D01*
G03X-1106393I-793J-67D01*
G02X-1106791Y866300I-399J33D01*
G01X-1112600D01*
X-1115300Y869000D01*
X-1124500D01*
X-1126400Y867100D01*
X-1128100D01*
X-1130000Y869000D01*
X-1175704D01*
G02X-1175904Y869200I0J200D01*
G03X-1176109Y869733I-795J0D01*
G02X-1176075Y870301I297J267D01*
G03X-1175804Y870899I-525J598D01*
G01Y870900D01*
G03X-1176600Y871696I-796J0D01*
G03X-1177166Y871460I0J-797D01*
G02X-1177734I-284J281D01*
G03X-1178300Y871696I-566J-561D01*
G03X-1179096Y870900I0J-796D01*
G03X-1178860Y870334I797J0D01*
G02Y869766I-281J-284D01*
G03X-1179096Y869200I561J-566D01*
G02X-1179296Y869000I-200J0D01*
G01X-1208223D01*
G02X-1208619Y869457I0J400D01*
G03X-1208597Y869764I-2145J308D01*
G03X-1212931I-2167J0D01*
G03X-1212909Y869457I2167J1D01*
G02X-1213305Y869000I-396J-57D01*
G01X-1239553D01*
G03X-1251758Y869301I-6211J-4236D01*
G02X-1252360Y869260I-319J242D01*
G01X-1254500Y871400D01*
Y901000D01*
X-1251008Y904492D01*
G03X-1238989Y906700I5244J5271D01*
G01X-1224200D01*
X-1217200Y913700D01*
X-1207900D01*
X-1202400Y908200D01*
X-1194381D01*
G03X-1181871I6255J5021D01*
G01X-1153500D01*
X-1146600Y915100D01*
X-1136426D01*
X-1136341Y915081D01*
X-1136323Y915073D01*
G03X-1136000Y915004I324J727D01*
G03X-1135659Y915081I-1J796D01*
G01X-1135618Y915100D01*
X-1124246D01*
X-1124188Y915000D01*
G03X-1122812I688J400D01*
G01X-1122754Y915100D01*
X-1114822D01*
Y914072D01*
G03X-1114426Y913676I396J0D01*
G01X-1106926D01*
G03X-1106530Y914072I0J396D01*
G01Y915100D01*
X-1102710D01*
Y911792D01*
G03X-1098376I2167J0D01*
G01Y915100D01*
X-1045624D01*
Y911792D01*
G03X-1041290I2167J0D01*
G01Y915100D01*
X-990000D01*
X-975336Y900436D01*
G02X-975512Y899767I-282J-283D01*
G03X-976096Y899000I212J-767D01*
G03X-974504I796J0D01*
G03X-974507Y899067I-796J-2D01*
G02X-974109Y899500I399J33D01*
G01X-973091D01*
G02X-972693Y899067I-1J-400D01*
G03X-972696Y899000I793J-69D01*
G03X-971104I796J0D01*
G03X-971107Y899067I-796J-2D01*
G02X-970709Y899500I399J33D01*
G01X-969396D01*
G02X-969196Y899300I0J-200D01*
G03X-967604I796J0D01*
G02X-967404Y899500I200J0D01*
G01X-965896D01*
G02X-965496Y899100I0J-400D01*
G03X-963904I796J0D01*
G02X-963504Y899500I400J0D01*
G01X-957800D01*
X-951000Y892700D01*
Y888919D01*
G03Y887681I499J-619D01*
G01Y882091D01*
X-951177Y881895D01*
X-951244Y881883D01*
G03Y880317I144J-783D01*
G01X-951177Y880305D01*
X-951000Y880109D01*
Y876219D01*
G03Y874981I499J-619D01*
G01Y867019D01*
G03Y865781I499J-619D01*
G01Y855426D01*
X-951020Y855339D01*
X-951028Y855321D01*
G03X-951096Y855000I728J-322D01*
G03X-951041Y854714I795J5D01*
G01X-951039Y854709D01*
X-951038Y854706D01*
X-951025Y854671D01*
X-951000Y854618D01*
Y847527D01*
X-951039Y847474D01*
G03X-951196Y847000I639J-475D01*
G03X-951039Y846526I796J1D01*
G01X-951000Y846473D01*
Y843982D01*
X-951120Y843929D01*
G03Y842471I320J-729D01*
G01X-951000Y842418D01*
Y840146D01*
X-951100Y840088D01*
G03Y838712I400J-688D01*
G01X-951000Y838654D01*
Y832819D01*
G03Y831581I499J-619D01*
G01Y827227D01*
X-951039Y827174D01*
G03X-951196Y826700I639J-475D01*
G03X-951039Y826226I796J1D01*
G01X-951000Y826173D01*
Y738850D01*
X-954068Y735782D01*
X-954192Y735834D01*
G03X-954500Y735896I-308J-734D01*
G03X-955296Y735100I0J-796D01*
G03X-955234Y734792I796J0D01*
G01X-955182Y734668D01*
X-957600Y732250D01*
X-971114D01*
G02X-971510Y732700I1J400D01*
G03X-971504Y732800I-790J98D01*
G03X-973096I-796J0D01*
G03X-973045Y732521I796J1D01*
G01X-973000Y732400D01*
X-980400Y725000D01*
Y692300D01*
X-971500Y683400D01*
Y661000D01*
X-975900Y656600D01*
X-976371D01*
Y656877D01*
X-976320Y656934D01*
G03X-975408Y659307I-2633J2374D01*
G03X-982498I-3545J0D01*
G03X-981829Y657234I3546J0D01*
G02X-982153Y656600I-324J-234D01*
G01X-985753D01*
G02X-986077Y657234I0J400D01*
G03X-985408Y659307I-2877J2073D01*
G03X-992498I-3545J0D01*
G03X-991829Y657234I3546J0D01*
G02X-992153Y656600I-324J-234D01*
G01X-995753D01*
G02X-996077Y657234I0J400D01*
G03X-995408Y659307I-2877J2073D01*
G03X-1002498I-3545J0D01*
G03X-1001829Y657234I3546J0D01*
G02X-1002153Y656600I-324J-234D01*
G01X-1005753D01*
G02X-1006077Y657234I0J400D01*
G03X-1005408Y659307I-2877J2073D01*
G03X-1012498I-3545J0D01*
G03X-1011829Y657234I3546J0D01*
G02X-1012153Y656600I-324J-234D01*
G01X-1015753D01*
G02X-1016077Y657234I0J400D01*
G03X-1015408Y659307I-2877J2073D01*
G03X-1022498I-3545J0D01*
G03X-1021829Y657234I3546J0D01*
G02X-1022153Y656600I-324J-234D01*
G01X-1025753D01*
G02X-1026077Y657234I0J400D01*
G03X-1025408Y659307I-2877J2073D01*
G03X-1032498I-3545J0D01*
G03X-1031829Y657234I3546J0D01*
G02X-1032153Y656600I-324J-234D01*
G01X-1035753D01*
G02X-1036077Y657234I0J400D01*
G03X-1035408Y659307I-2877J2073D01*
G03X-1042498I-3545J0D01*
G03X-1041829Y657234I3546J0D01*
G02X-1042153Y656600I-324J-234D01*
G01X-1045753D01*
G02X-1046077Y657234I0J400D01*
G03X-1045408Y659307I-2877J2073D01*
G03X-1052498I-3545J0D01*
G03X-1051829Y657234I3546J0D01*
G02X-1052153Y656600I-324J-234D01*
G01X-1055753D01*
G02X-1056077Y657234I0J400D01*
G03X-1055408Y659307I-2877J2073D01*
G03X-1062498I-3545J0D01*
G03X-1061829Y657234I3546J0D01*
G02X-1062153Y656600I-324J-234D01*
G01X-1065753D01*
G02X-1066077Y657234I0J400D01*
G03X-1065408Y659307I-2877J2073D01*
G03X-1072498I-3545J0D01*
G03X-1071829Y657234I3546J0D01*
G02X-1072153Y656600I-324J-234D01*
G01X-1075753D01*
G02X-1076077Y657234I0J400D01*
G03X-1075408Y659307I-2877J2073D01*
G03X-1082498I-3545J0D01*
G03X-1081829Y657234I3546J0D01*
G02X-1082153Y656600I-324J-234D01*
G01X-1085753D01*
G02X-1086077Y657234I0J400D01*
G03X-1085408Y659307I-2877J2073D01*
G03X-1092498I-3545J0D01*
G03X-1091829Y657234I3546J0D01*
G02X-1092153Y656600I-324J-234D01*
G01X-1095753D01*
G02X-1096077Y657234I0J400D01*
G03X-1095408Y659307I-2877J2073D01*
G03X-1102498I-3545J0D01*
G03X-1101829Y657234I3546J0D01*
G02X-1102153Y656600I-324J-234D01*
G01X-1105753D01*
G02X-1106077Y657234I0J400D01*
G03X-1105408Y659307I-2877J2073D01*
G03X-1112498I-3545J0D01*
G03X-1111829Y657234I3546J0D01*
G02X-1112153Y656600I-324J-234D01*
G01X-1113373D01*
X-1113426Y656639D01*
G03X-1113900Y656796I-475J-639D01*
G03X-1114374Y656639I1J-796D01*
G01X-1114427Y656600D01*
X-1115753D01*
G02X-1116077Y657234I0J400D01*
G03X-1115639Y658048I-2876J2072D01*
G02X-1115043Y658238I374J-142D01*
G03X-1114602Y658104I442J662D01*
G01X-1114600D01*
G03Y659696I0J796D01*
G03X-1114912Y659632I1J-796D01*
G02X-1115463Y659930I-157J368D01*
G03X-1118953Y662852I-3490J-623D01*
G03X-1122498Y659307I0J-3545D01*
G03X-1121829Y657234I3546J0D01*
G02X-1122214Y656605I-324J-234D01*
G01X-1122405Y656777D01*
X-1122417Y656844D01*
G03X-1123983I-783J-144D01*
G01X-1123995Y656777D01*
X-1124191Y656600D01*
X-1125753D01*
G02X-1126077Y657234I0J400D01*
G03X-1125408Y659307I-2877J2073D01*
G03X-1128953Y662852I-3545J0D01*
G03X-1131931Y661231I0J-3546D01*
G02X-1132579Y661198I-336J217D01*
G03X-1133200Y661496I-621J-498D01*
G03Y659904I0J-796D01*
G01X-1133199D01*
G03X-1132994Y659931I-1J796D01*
G02X-1132492Y659521I103J-386D01*
G03X-1132498Y659307I3539J-206D01*
G03X-1131829Y657234I3546J0D01*
G02X-1132153Y656600I-324J-234D01*
G01X-1135753D01*
G02X-1136077Y657234I0J400D01*
G03X-1135408Y659307I-2877J2073D01*
G03X-1142498I-3545J0D01*
G03X-1141829Y657234I3546J0D01*
G02X-1142153Y656600I-324J-234D01*
G01X-1145753D01*
G02X-1146077Y657234I0J400D01*
G03X-1145408Y659307I-2877J2073D01*
G03X-1152498I-3545J0D01*
G03X-1151829Y657234I3546J0D01*
G02X-1152153Y656600I-324J-234D01*
G01X-1155753D01*
G02X-1156077Y657234I0J400D01*
G03X-1155408Y659307I-2877J2073D01*
G03X-1162498I-3545J0D01*
G03X-1161829Y657234I3546J0D01*
G02X-1162153Y656600I-324J-234D01*
G01X-1165753D01*
G02X-1166077Y657234I0J400D01*
G03X-1165408Y659307I-2877J2073D01*
G03X-1172498I-3545J0D01*
G03X-1171829Y657234I3546J0D01*
G02X-1172153Y656600I-324J-234D01*
G01X-1183978D01*
G02X-1184175Y657348I0J400D01*
G03X-1180124Y664307I-3952J6959D01*
G03X-1196128I-8002J0D01*
G03X-1192077Y657348I8003J0D01*
G02X-1192274Y656600I-197J-348D01*
G01X-1239412D01*
G02X-1239639Y657329I1J400D01*
G03X-1238348Y659796I-1712J2467D01*
G03X-1244352I-3002J0D01*
G03X-1243061Y657329I3003J0D01*
G02X-1243288Y656600I-228J-329D01*
G01X-1249400D01*
X-1258000Y665200D01*
Y696200D01*
X-1254700Y699500D01*
X-1243846D01*
X-1243788Y699400D01*
G03X-1242412I688J400D01*
G01X-1242354Y699500D01*
X-1238697D01*
X-1238648Y699372D01*
G03X-1236440Y697853I2208J845D01*
G01X-1234472D01*
G03X-1232264Y699372I0J2364D01*
G01X-1232215Y699500D01*
X-1210469D01*
G02X-1210145Y698866I-1J-400D01*
G03X-1210296Y698400I645J-466D01*
G03X-1210043Y697818I796J0D01*
G02X-1210110Y697182I-273J-293D01*
G03X-1210496Y696500I409J-682D01*
G03X-1208904I796J0D01*
G03X-1209157Y697082I-796J0D01*
G02X-1209090Y697718I273J293D01*
G03X-1208868Y697916I-409J683D01*
G02X-1208232I318J-243D01*
G03X-1207600Y697604I632J484D01*
G03X-1206804Y698400I0J796D01*
G03X-1206955Y698866I-796J0D01*
G02X-1206631Y699500I325J234D01*
G01X-1203425D01*
G02X-1203026Y699090I-1J-400D01*
G01Y699069D01*
G03X-1201434I796J0D01*
G01Y699090D01*
G02X-1201035Y699500I400J10D01*
G01X-1200191D01*
X-1199995Y699323D01*
X-1199983Y699256D01*
G03X-1198417I783J144D01*
G01X-1198405Y699323D01*
X-1198209Y699500D01*
X-1195534D01*
G02X-1195189Y698899I-1J-400D01*
G03X-1195296Y698501I689J-399D01*
G01Y698500D01*
G03X-1193704I796J0D01*
G01Y698501D01*
G03X-1193811Y698899I-796J-1D01*
G02X-1193466Y699500I346J201D01*
G01X-1188834D01*
G02X-1188489Y698899I-1J-400D01*
G03X-1188596Y698501I689J-399D01*
G01Y698500D01*
G03X-1187004I796J0D01*
G01Y698501D01*
G03X-1187111Y698899I-796J-1D01*
G02X-1186766Y699500I346J201D01*
G01X-1180069D01*
G02X-1179745Y698866I-1J-400D01*
G03X-1179896Y698400I645J-466D01*
G03X-1178304I796J0D01*
G03X-1178455Y698866I-796J0D01*
G02X-1178131Y699500I325J234D01*
G01X-1176469D01*
G02X-1176145Y698866I-1J-400D01*
G03X-1176296Y698400I645J-466D01*
G03X-1174704I796J0D01*
G03X-1174855Y698866I-796J0D01*
G02X-1174531Y699500I325J234D01*
G01X-1169341D01*
G02X-1168998Y698894I0J-400D01*
G03X-1169112Y698484I682J-410D01*
G03X-1167520I796J0D01*
G03X-1167634Y698894I-796J0D01*
G02X-1167291Y699500I343J206D01*
G01X-1124400D01*
X-1121500Y702400D01*
Y725300D01*
X-1118000Y728800D01*
X-1098527D01*
G02X-1098150Y728266I0J-400D01*
G03X-1098196Y728000I750J-267D01*
G03X-1096604I796J0D01*
G03X-1096650Y728266I-796J-1D01*
G02X-1096273Y728800I377J134D01*
G01X-1092896D01*
G02X-1092496Y728400I0J-400D01*
G03X-1090904I796J0D01*
G02X-1090504Y728800I400J0D01*
G01X-1085600D01*
X-1081800Y725000D01*
X-1070900D01*
X-1067100Y728800D01*
X-1059524D01*
G02X-1059181Y728194I0J-400D01*
G03X-1059294Y727785I684J-409D01*
G03X-1057702I796J0D01*
G03X-1057815Y728194I-797J0D01*
G02X-1057472Y728800I343J206D01*
G01X-1054827D01*
X-1054774Y728761D01*
G03X-1054300Y728604I475J639D01*
G03X-1053826Y728761I-1J796D01*
G01X-1053773Y728800D01*
X-1033591D01*
X-1033395Y728623D01*
X-1033383Y728556D01*
G03X-1031817I783J144D01*
G01X-1031805Y728623D01*
X-1031609Y728800D01*
X-1024705D01*
G02X-1024308Y728351I0J-400D01*
G03X-1024314Y728254I790J-98D01*
G03X-1024307Y728145I796J-4D01*
G02X-1024702Y727691I-396J-54D01*
G03X-1025496Y726895I2J-796D01*
G03X-1023904I796J0D01*
G03X-1023911Y727004I-796J4D01*
G02X-1023516Y727458I396J54D01*
G03X-1022722Y728254I-2J796D01*
G03X-1022728Y728351I-796J-1D01*
G02X-1022331Y728800I397J49D01*
G01X-1014200D01*
X-1011500Y731500D01*
Y758431D01*
G02X-1010866Y758755I400J-1D01*
G03X-1010400Y758604I466J645D01*
G03Y760196I0J796D01*
G03X-1010866Y760045I0J-796D01*
G02X-1011500Y760369I-234J325D01*
G01Y788904D01*
G02X-1011300Y789104I200J0D01*
G03Y790696I0J796D01*
G02X-1011500Y790896I0J200D01*
G01Y794500D01*
X-1010700Y795300D01*
X-975300D01*
X-974600Y794600D01*
Y782600D01*
X-986200Y771000D01*
Y765100D01*
X-986096Y764996D01*
X-986293Y764798D01*
X-986373Y764796D01*
G03X-987146Y764000I23J-796D01*
G03X-986350Y763204I796J0D01*
G03X-985608Y763713I0J795D01*
G02X-984952Y763852I373J-144D01*
G01X-984000Y762900D01*
X-968600D01*
X-966300Y765200D01*
Y776247D01*
G02X-965605Y776517I400J0D01*
G03Y780268I2044J1875D01*
G02X-966300Y780538I-295J270D01*
G01Y807743D01*
G37*
G36*
G01X-972800Y802696D02*
G02X-973200Y803096I0J400D01*
G01Y819700D01*
X-996600Y843100D01*
X-1105447D01*
G03X-1106953I-753J-258D01*
G01X-1108918D01*
X-1108971Y843220D01*
G03X-1110429I-729J-320D01*
G01X-1110482Y843100D01*
X-1113500D01*
X-1121262Y835338D01*
G02X-1121865Y835379I-284J282D01*
G03X-1122500Y835696I-636J-479D01*
G03X-1123296Y834900I0J-796D01*
G03X-1122979Y834265I796J1D01*
G02X-1122938Y833662I-241J-319D01*
G01X-1136450Y820150D01*
Y814550D01*
X-1138700Y812300D01*
X-1142231D01*
G02X-1142630Y812727I0J400D01*
G03X-1142628Y812781I-794J56D01*
G03X-1144220I-796J0D01*
G03X-1144218Y812727I796J2D01*
G02X-1144617Y812300I-399J-27D01*
G01X-1153204D01*
G02X-1153404Y812500I0J200D01*
G03X-1154996I-796J0D01*
G02X-1155196Y812300I-200J0D01*
G01X-1185809D01*
G02X-1186191Y812816I1J400D01*
G03X-1186157Y813045I-762J230D01*
G01Y813047D01*
G03X-1187749I-796J0D01*
G01Y813045D01*
G03X-1187715Y812816I796J1D01*
G02X-1188097Y812300I-383J-116D01*
G01X-1193400D01*
X-1216400Y789300D01*
Y724300D01*
X-1215293Y723193D01*
G02X-1215316Y722606I-283J-283D01*
G03X-1215596Y722000I516J-606D01*
G03X-1214800Y721204I796J0D01*
G03X-1214194Y721484I0J796D01*
G02X-1213607Y721507I304J-260D01*
G01X-1209603Y717503D01*
X-1209693Y717367D01*
G03X-1209825Y716928I664J-439D01*
G03X-1209029Y716132I796J0D01*
G03X-1208254Y716746I0J796D01*
G01X-1208218Y716900D01*
X-1189682D01*
X-1189629Y716780D01*
G03X-1188171I729J320D01*
G01X-1188118Y716900D01*
X-1185749D01*
X-1185704Y716762D01*
G03X-1184190I757J245D01*
G01X-1184145Y716900D01*
X-1180603D01*
X-1180559Y716760D01*
G03X-1179041I759J240D01*
G01X-1178997Y716900D01*
X-1178451D01*
G02X-1178054Y716548I0J-400D01*
G03X-1176474I790J95D01*
G02X-1176077Y716900I397J-48D01*
G01X-1141300D01*
X-1130100Y728100D01*
X-1125100D01*
X-1122700Y725700D01*
Y703700D01*
X-1125300Y701100D01*
X-1174487D01*
X-1174520Y701260D01*
G03X-1176080I-780J-160D01*
G01X-1176113Y701100D01*
X-1178209D01*
G02X-1178607Y701467I1J400D01*
G03X-1180193I-793J-67D01*
G02X-1180591Y701100I-399J33D01*
G01X-1208831D01*
G02X-1209155Y701734I1J400D01*
G03X-1209004Y702200I-645J466D01*
G03X-1210596I-796J0D01*
G03X-1210445Y701734I796J0D01*
G02X-1210769Y701100I-325J-234D01*
G01X-1213312D01*
G03X-1214688I-688J-400D01*
G01X-1232279D01*
G03X-1234472Y702581I-2193J-883D01*
G01X-1236440D01*
G03X-1238633Y701100I0J-2364D01*
G01X-1254700D01*
X-1258000Y704400D01*
Y796104D01*
G02X-1257800Y796304I200J0D01*
G03Y797896I0J796D01*
G02X-1258000Y798096I0J200D01*
G01Y849700D01*
X-1249475Y858225D01*
G03X-1238323Y865843I3711J6539D01*
G02X-1237928Y866300I396J57D01*
G01X-1223066D01*
G02X-1222707Y865723I0J-400D01*
G03X-1222931Y864764I1943J-959D01*
G03X-1218597I2167J0D01*
G03X-1218821Y865723I-2167J0D01*
G02X-1218462Y866300I359J177D01*
G01X-1164096D01*
G02X-1163696Y865900I0J-400D01*
G03X-1162104I796J0D01*
G02X-1161704Y866300I400J0D01*
G01X-1128243D01*
G02X-1127861Y865783I-1J-400D01*
G03X-1127896Y865550I761J-233D01*
G03X-1126304I796J0D01*
G03X-1126339Y865783I-796J0D01*
G02X-1125957Y866300I383J117D01*
G01X-1115500D01*
X-1112900Y863700D01*
X-1075958D01*
G02X-1075571Y863200I0J-400D01*
G03X-1075596Y863000I771J-198D01*
G03X-1074004I796J0D01*
G03X-1074029Y863200I-796J2D01*
G02X-1073642Y863700I387J100D01*
G01X-1070800D01*
X-1066200Y868300D01*
Y879300D01*
X-1065000Y880500D01*
X-1058527D01*
G02X-1058150Y879966I0J-400D01*
G03X-1058196Y879700I750J-267D01*
G03X-1056604I796J0D01*
G03X-1056650Y879966I-796J-1D01*
G02X-1056273Y880500I377J134D01*
G01X-1051591D01*
G02X-1051193Y880133I-1J-400D01*
G03X-1049607I793J67D01*
G02X-1049209Y880500I399J-33D01*
G01X-1044091D01*
G02X-1043693Y880133I-1J-400D01*
G03X-1042900Y879404I793J67D01*
G03X-1042104Y880200I0J796D01*
G01Y880201D01*
G03X-1042108Y880280I-796J-1D01*
G02X-1041909Y880500I199J20D01*
G01X-1041900D01*
X-1027000Y895400D01*
X-1022027D01*
G02X-1021650Y894866I0J-400D01*
G03X-1021696Y894600I750J-267D01*
G03X-1020104I796J0D01*
G03X-1020150Y894866I-796J-1D01*
G02X-1019773Y895400I377J134D01*
G01X-1008900D01*
X-1003500Y890000D01*
Y869069D01*
G02X-1004134Y868745I-400J1D01*
G03X-1004600Y868896I-466J-645D01*
G03Y867304I0J-796D01*
G03X-1004134Y867455I0J796D01*
G02X-1003500Y867131I234J-325D01*
G01Y863700D01*
X-970255Y830455D01*
G02X-970458Y829780I-283J-283D01*
G03X-971096Y829000I158J-780D01*
G03X-970300Y828204I796J0D01*
G03X-969520Y828842I0J796D01*
G02X-968845Y829045I392J-80D01*
G01X-968000Y828200D01*
Y817546D01*
X-968100Y817488D01*
G03Y816112I400J-688D01*
G01X-968000Y816054D01*
Y813803D01*
X-968140Y813759D01*
G03Y812241I240J-759D01*
G01X-968000Y812197D01*
Y766200D01*
X-969400Y764800D01*
X-971509D01*
G02X-971708Y764980I0J200D01*
G03X-973292I-792J-80D01*
G02X-973491Y764800I-199J20D01*
G01X-983800D01*
X-984200Y765200D01*
Y769700D01*
X-975971Y777929D01*
X-975772Y777845D01*
X-975746Y777820D01*
G03X-975200Y777604I546J582D01*
G03X-974404Y778400I0J796D01*
G03X-974620Y778946I-798J0D01*
G01X-974645Y778972D01*
X-974729Y779171D01*
X-973200Y780700D01*
Y782097D01*
X-973060Y782141D01*
G03Y783659I-240J759D01*
G01X-973200Y783703D01*
Y784374D01*
X-973101Y784432D01*
G03Y785804I-404J686D01*
G01X-973200Y785862D01*
Y787522D01*
X-973101Y787580D01*
G03Y788952I-404J686D01*
G01X-973200Y789010D01*
Y791412D01*
G02X-972633Y791775I400J0D01*
G03X-972300Y791702I333J723D01*
G03Y793294I0J796D01*
G03X-972633Y793221I0J-796D01*
G02X-973200Y793584I-167J363D01*
G01Y793709D01*
G02X-973020Y793908I200J0D01*
G03Y795492I-80J792D01*
G02X-973200Y795691I20J199D01*
G01Y796408D01*
X-973162Y796461D01*
G03Y797397I-642J468D01*
G01X-973200Y797450D01*
Y799556D01*
X-973162Y799609D01*
G03Y800545I-642J468D01*
G01X-973200Y800598D01*
Y800704D01*
G02X-972800Y801104I400J0D01*
G03Y802696I0J796D01*
G37*
G36*
G01X-1122500Y759353D02*
G02X-1123042Y758979I-400J0D01*
G03X-1123325Y759031I-283J-744D01*
G03Y757439I0J-796D01*
G03X-1123042Y757491I0J796D01*
G02X-1122500Y757117I142J-374D01*
G01Y756400D01*
X-1121300Y755200D01*
X-1108608D01*
G03X-1107332I638J476D01*
G01X-1106049D01*
G03X-1104773I638J476D01*
G01X-1100933D01*
G03X-1099655I639J476D01*
G01X-1098373D01*
G03X-1097734Y754879I639J476D01*
G03X-1096938Y755678I0J796D01*
G01Y755762D01*
X-1096000Y756700D01*
Y762234D01*
G02X-1095458Y762608I400J0D01*
G03X-1095175Y762556I283J744D01*
G03Y764148I0J796D01*
G03X-1095458Y764096I0J-796D01*
G02X-1096000Y764470I-142J374D01*
G01Y764793D01*
G02X-1095458Y765167I400J0D01*
G03X-1095175Y765115I283J744D01*
G03Y766707I0J796D01*
G03X-1095458Y766655I0J-796D01*
G02X-1096000Y767029I-142J374D01*
G01Y769911D01*
G02X-1095458Y770285I400J0D01*
G03X-1095175Y770233I283J744D01*
G03Y771825I0J796D01*
G03X-1095458Y771773I0J-796D01*
G02X-1096000Y772147I-142J374D01*
G01Y776300D01*
X-1093925Y778375D01*
G02X-1093299Y778298I283J-283D01*
G03X-1092617Y777912I682J409D01*
G03X-1091821Y778708I0J796D01*
G03X-1092207Y779390I-795J0D01*
G02X-1092284Y780016I206J343D01*
G01X-1084500Y787800D01*
X-1082500D01*
X-1081455Y788845D01*
G02X-1080780Y788642I283J-283D01*
G03X-1080000Y788004I780J158D01*
G03X-1079204Y788800I0J796D01*
G03X-1079842Y789580I-796J0D01*
G02X-1080045Y790255I80J392D01*
G01X-1078712Y791588D01*
G02X-1078051Y791437I283J-283D01*
G03X-1077300Y790904I751J263D01*
G03X-1076504Y791700I0J796D01*
G03X-1077037Y792451I-796J0D01*
G02X-1077188Y793112I132J378D01*
G01X-1069291Y801009D01*
X-1069154Y800914D01*
G03X-1068700Y800772I454J655D01*
G03X-1067904Y801568I0J796D01*
G03X-1068046Y802022I-797J0D01*
G01X-1068141Y802159D01*
X-1062100Y808200D01*
X-1045500D01*
X-1042900Y810800D01*
X-1029500D01*
X-1023500Y816800D01*
Y829909D01*
G02X-1023067Y830307I400J-1D01*
G03X-1023000Y830304I69J793D01*
G03Y831896I0J796D01*
G03X-1023067Y831893I2J-796D01*
G02X-1023500Y832291I-33J399D01*
G01Y839300D01*
X-1022000Y840800D01*
X-1012116D01*
X-1012097Y840621D01*
G03X-1010513I792J84D01*
G01X-1010494Y840800D01*
X-1004336D01*
G02X-1003940Y840350I-1J-400D01*
G03X-1003946Y840249I790J-98D01*
G03X-1002354I796J0D01*
G03X-1002360Y840350I-796J3D01*
G02X-1001964Y840800I397J50D01*
G01X-1001593D01*
G02X-1001211Y840283I-1J-400D01*
G03X-1001246Y840050I761J-233D01*
G03X-999654I796J0D01*
G03X-999689Y840283I-796J0D01*
G02X-999307Y840800I383J117D01*
G01X-996300D01*
X-974600Y819100D01*
Y803913D01*
X-974760Y803880D01*
G03Y802320I160J-780D01*
G01X-974600Y802287D01*
Y800105D01*
G03X-974601Y800077I795J-42D01*
G03X-974600Y800049I796J14D01*
G01Y797800D01*
X-975800Y796600D01*
X-1011000D01*
X-1012600Y795000D01*
Y769413D01*
X-1012765Y769383D01*
G03Y767817I141J-783D01*
G01X-1012600Y767787D01*
Y732900D01*
X-1015900Y729600D01*
X-1053518D01*
X-1053571Y729720D01*
G03X-1055029I-729J-320D01*
G01X-1055082Y729600D01*
X-1068500D01*
X-1071600Y726500D01*
X-1081600D01*
X-1084700Y729600D01*
X-1089105D01*
G02X-1089503Y729965I0J400D01*
G03X-1091089I-793J-70D01*
G02X-1091487Y729600I-398J35D01*
G01X-1107046D01*
G02X-1107432Y730105I0J400D01*
G03X-1107404Y730314I-768J209D01*
G03X-1108996I-796J0D01*
G03X-1108968Y730105I796J0D01*
G02X-1109354Y729600I-386J-105D01*
G01X-1114606D01*
G02X-1114999Y730073I0J400D01*
G03X-1114986Y730219I-783J143D01*
G03X-1116578I-796J0D01*
G03X-1116565Y730073I796J-3D01*
G02X-1116958Y729600I-393J-73D01*
G01X-1117165D01*
G02X-1117558Y730073I0J400D01*
G03X-1117545Y730219I-783J143D01*
G03X-1119137I-796J0D01*
G03X-1119124Y730073I796J-3D01*
G02X-1119517Y729600I-393J-73D01*
G01X-1130600D01*
X-1141800Y718400D01*
X-1174010D01*
X-1174069Y718494D01*
G03X-1175417I-674J-425D01*
G01X-1175476Y718400D01*
X-1191631D01*
G02X-1192029Y718760I0J400D01*
G03X-1193613I-792J-81D01*
G02X-1194011Y718400I-398J40D01*
G01X-1194209D01*
G02X-1194607Y718833I1J400D01*
G03X-1194604Y718900I-793J69D01*
G03X-1196196I-796J0D01*
G03X-1196193Y718833I796J2D01*
G02X-1196591Y718400I-399J-33D01*
G01X-1200712D01*
G03X-1200911Y718628I-688J-400D01*
G02X-1200944Y719230I246J315D01*
G03X-1200704Y719800I-557J570D01*
G03X-1202296I-796J0D01*
G03X-1201989Y719172I796J0D01*
G02X-1201956Y718570I-246J-315D01*
G03X-1202088Y718400I557J-569D01*
G01X-1205474D01*
X-1205559Y718419D01*
X-1205577Y718427D01*
G03X-1205900Y718496I-324J-727D01*
G03X-1206241Y718419I1J-796D01*
G01X-1206282Y718400D01*
X-1208300D01*
X-1210988Y721088D01*
G02X-1210837Y721749I283J283D01*
G03X-1210304Y722500I-263J751D01*
G03X-1211100Y723296I-796J0D01*
G03X-1211851Y722763I0J-796D01*
G02X-1212512Y722612I-378J132D01*
G01X-1214200Y724300D01*
Y737200D01*
X-1214250Y737250D01*
Y754014D01*
G02X-1213800Y754410I400J-1D01*
G03X-1213700Y754404I98J790D01*
G03Y755996I0J796D01*
G03X-1213800Y755990I-2J-796D01*
G02X-1214250Y756386I-50J397D01*
G01Y756842D01*
G02X-1213700Y757213I400J0D01*
G03X-1213400Y757154I301J737D01*
G03Y758746I0J796D01*
G03X-1213700Y758687I1J-796D01*
G02X-1214250Y759058I-150J371D01*
G01Y767506D01*
G02X-1213867Y767905I400J-1D01*
G03Y769495I-33J795D01*
G02X-1214250Y769894I17J400D01*
G01Y788450D01*
X-1192300Y810400D01*
X-1155234D01*
G02X-1154889Y809799I-1J-400D01*
G03X-1154996Y809401I689J-399D01*
G01Y809400D01*
G03X-1153404I796J0D01*
G01Y809401D01*
G03X-1153511Y809799I-796J-1D01*
G02X-1153166Y810400I346J201D01*
G01X-1138300D01*
X-1136100Y808200D01*
Y802713D01*
X-1136260Y802680D01*
G03Y801120I160J-780D01*
G01X-1136100Y801087D01*
Y792800D01*
X-1133656Y790356D01*
G02X-1133815Y789693I-283J-283D01*
G03X-1134364Y788936I247J-757D01*
G03X-1133568Y788140I796J0D01*
G03X-1132811Y788689I0J796D01*
G02X-1132148Y788848I380J-124D01*
G01X-1122500Y779200D01*
Y774900D01*
X-1124900Y772500D01*
Y770000D01*
X-1124300Y769400D01*
X-1122900D01*
X-1122500Y769000D01*
Y761912D01*
G02X-1123042Y761538I-400J0D01*
G03X-1123325Y761590I-283J-744D01*
G03Y759998I0J-796D01*
G03X-1123042Y760050I0J796D01*
G02X-1122500Y759676I142J-374D01*
G01Y759353D01*
G37*
G36*
G01X-1051022Y840900D02*
X-1030382D01*
X-1030341Y840881D01*
G03X-1030280Y840855I342J719D01*
G01X-1030240Y840840D01*
X-1029965Y840565D01*
X-1030145Y840385D01*
X-1030198Y840371D01*
G03X-1030796Y839600I198J-771D01*
G03X-1030000Y838804I796J0D01*
G03X-1029311Y839201I0J796D01*
G02X-1028683Y839283I346J-201D01*
G01X-1026700Y837300D01*
Y823546D01*
G02X-1027294Y823196I-400J0D01*
G03X-1027679Y823296I-386J-696D01*
G03Y821704I0J-796D01*
G03X-1027294Y821804I-1J796D01*
G02X-1026700Y821454I194J-350D01*
G01Y818000D01*
X-1032400Y812300D01*
X-1044200D01*
X-1047100Y809400D01*
X-1062200D01*
X-1079376Y792224D01*
X-1079515Y792331D01*
G03X-1080000Y792496I-485J-630D01*
G03X-1080796Y791700I0J-796D01*
G03X-1080631Y791215I795J0D01*
G01X-1080524Y791076D01*
X-1082600Y789000D01*
X-1083982D01*
X-1084037Y789110D01*
G03X-1084748Y789548I-711J-358D01*
G03X-1085544Y788752I0J-796D01*
G03X-1085343Y788223I797J0D01*
G01X-1085218Y788082D01*
X-1088883Y784417D01*
G02X-1089511Y784499I-282J283D01*
G03X-1090200Y784896I-689J-399D01*
G03X-1090996Y784100I0J-796D01*
G03X-1090599Y783411I796J0D01*
G02X-1090517Y782783I-201J-346D01*
G01X-1091474Y781826D01*
G02X-1092045Y781833I-282J283D01*
G03X-1092620Y782078I-575J-552D01*
G03X-1093416Y781282I0J-796D01*
G03X-1093171Y780707I797J0D01*
G02X-1093164Y780136I-276J-289D01*
G01X-1096800Y776500D01*
Y757200D01*
X-1097546Y756454D01*
X-1097642Y756466D01*
G03X-1097734Y756471I-89J-791D01*
G03X-1098332Y756200I0J-795D01*
G01X-1099696D01*
G03X-1100892I-598J-524D01*
G01X-1104812D01*
G03X-1106010I-599J-524D01*
G01X-1107371D01*
G03X-1108569I-599J-524D01*
G01X-1121000D01*
X-1121800Y757000D01*
Y769300D01*
X-1122700Y770200D01*
X-1123800D01*
X-1124200Y770600D01*
Y771500D01*
X-1121600Y774100D01*
Y775034D01*
G02X-1121055Y775406I400J-1D01*
G03X-1120766Y775352I288J742D01*
G03Y776944I0J796D01*
G03X-1121055Y776890I-1J-796D01*
G02X-1121600Y777262I-145J373D01*
G01Y777591D01*
G02X-1121055Y777963I400J-1D01*
G03X-1120766Y777909I288J742D01*
G03Y779501I0J796D01*
G03X-1121055Y779447I-1J-796D01*
G02X-1121600Y779819I-145J373D01*
G01Y781100D01*
X-1125566Y785066D01*
G02X-1125484Y785694I283J282D01*
G03X-1125087Y786383I-399J689D01*
G03X-1125883Y787179I-796J0D01*
G03X-1126572Y786782I0J-796D01*
G02X-1127200Y786700I-346J201D01*
G01X-1133021Y792521D01*
G02X-1132960Y793137I283J283D01*
G03X-1132604Y793800I-439J663D01*
G03X-1133400Y794596I-796J0D01*
G02X-1133600Y794796I0J200D01*
G01Y818200D01*
X-1132750Y819050D01*
G02X-1132168Y819032I283J-283D01*
G03X-1131571Y818763I597J528D01*
G03X-1130775Y819559I0J796D01*
G03X-1131044Y820156I-797J0D01*
G02X-1131062Y820738I265J299D01*
G01X-1127400Y824400D01*
X-1127280Y824355D01*
G03X-1127000Y824304I280J745D01*
G03X-1126204Y825100I0J796D01*
G03X-1126255Y825380I-796J0D01*
G01X-1126300Y825500D01*
X-1122713Y829087D01*
X-1122626Y829084D01*
X-1122600D01*
G03X-1121804Y829880I0J796D01*
G01Y829906D01*
X-1121807Y829993D01*
X-1118942Y832858D01*
G02X-1118405Y832885I283J-282D01*
G03X-1117900Y832704I505J614D01*
G03X-1117104Y833500I0J796D01*
G03X-1117285Y834005I-795J0D01*
G02X-1117258Y834542I309J254D01*
G01X-1110900Y840900D01*
X-1061717D01*
G02X-1061322Y840440I0J-400D01*
G03X-1061331Y840321I787J-119D01*
G03X-1059739I796J0D01*
G03X-1059748Y840440I-796J0D01*
G02X-1059353Y840900I395J60D01*
G01X-1057392D01*
G02X-1056993Y840467I0J-400D01*
G03X-1056996Y840400I793J-69D01*
G03X-1055404I796J0D01*
G03X-1055407Y840467I-796J-2D01*
G02X-1055008Y840900I399J33D01*
G01X-1053380D01*
G02X-1052986Y840433I0J-400D01*
G03X-1052997Y840301I785J-132D01*
G03X-1051405I796J0D01*
G03X-1051416Y840433I-796J0D01*
G02X-1051022Y840900I394J67D01*
G37*
%LPC*%
G75*
G36*
G01X-984324Y885301D02*
G02X-984596Y885900I524J599D01*
G02X-983800Y886696I796J0D01*
G02X-983234Y886460I0J-797D01*
G03X-982666I284J281D01*
G02X-982100Y886696I566J-561D01*
G02X-981304Y885900I0J-796D01*
G02X-981540Y885334I-797J0D01*
G03Y884766I281J-284D01*
G02X-981304Y884200I-561J-566D01*
G02X-982100Y883404I-796J0D01*
G02X-982633Y883609I0J795D01*
G03X-983201Y883575I-267J-297D01*
G02X-983800Y883304I-598J525D01*
G02X-984596Y884100I0J796D01*
G02X-984324Y884699I796J0D01*
G03Y885301I-264J301D01*
G37*
G36*
G01X-974260Y878934D02*
G02X-974496Y879500I561J566D01*
G02X-973700Y880296I796J0D01*
G02X-972922Y879666I0J-795D01*
G03X-972420Y879365I391J84D01*
G02X-972200Y879396I220J-765D01*
G02X-971404Y878600I0J-796D01*
G02X-971676Y878001I-796J0D01*
G03Y877399I264J-301D01*
G02X-971404Y876800I-524J-599D01*
G02X-971640Y876234I-797J0D01*
G03Y875666I281J-284D01*
G02X-971404Y875100I-561J-566D01*
G02X-972200Y874304I-796J0D01*
G02X-972978Y874934I0J795D01*
G03X-973480Y875235I-391J-84D01*
G02X-973700Y875204I-220J765D01*
G02X-974496Y876000I0J796D01*
G02X-974224Y876599I796J0D01*
G03Y877201I-264J301D01*
G02X-974496Y877800I524J599D01*
G02X-974260Y878366I797J0D01*
G03Y878934I-281J284D01*
G37*
G36*
G01X-973224Y862301D02*
G02X-973496Y862900I524J599D01*
G02X-971904I796J0D01*
G02X-972176Y862301I-796J0D01*
G03Y861699I264J-301D01*
G02X-971904Y861100I-524J-599D01*
G02X-973496I-796J0D01*
G02X-973224Y861699I796J0D01*
G03Y862301I-264J301D01*
G37*
G36*
G01X-983767Y859614D02*
G02X-983000Y860196I767J-214D01*
G02Y858604I0J-796D01*
G02X-983465Y858754I0J796D01*
G03X-984083Y858536I-233J-325D01*
G02X-984850Y857954I-767J214D01*
G02Y859546I0J796D01*
G02X-984385Y859396I0J-796D01*
G03X-983767Y859614I233J325D01*
G37*
G36*
G01X-962293Y828085D02*
G02X-962900Y827804I-607J515D01*
G02Y829396I0J796D01*
G02X-962242Y829048I0J-796D01*
G03X-961607Y829015I330J226D01*
G02X-961000Y829296I607J-515D01*
G02Y827704I0J-796D01*
G02X-961658Y828052I0J796D01*
G03X-962293Y828085I-330J-226D01*
G37*
G36*
G01X-998260Y740634D02*
G02X-998496Y741200I561J566D01*
G02X-996904I796J0D01*
G02X-997140Y740634I-797J0D01*
G03Y740066I281J-284D01*
G02X-996904Y739500I-561J-566D01*
G02X-998496I-796J0D01*
G02X-998260Y740066I797J0D01*
G03Y740634I-281J284D01*
G37*
G36*
G01X-1015499Y724044D02*
G02X-1015796Y724664I499J620D01*
G02X-1014204I796J0D01*
G02X-1014501Y724044I-796J0D01*
G03Y723420I250J-312D01*
G02X-1014204Y722800I-499J-620D01*
G02X-1015796I-796J0D01*
G02X-1015499Y723420I796J0D01*
G03Y724044I-250J312D01*
G37*
G36*
G01X-996694Y720861D02*
G02X-995900Y721596I794J-61D01*
G02Y720004I0J-796D01*
G02X-995972Y720007I-3J796D01*
G03X-996406Y719639I-35J-398D01*
G02X-997200Y718904I-794J61D01*
G02Y720496I0J796D01*
G02X-997128Y720493I3J-796D01*
G03X-996694Y720861I35J398D01*
G37*
G36*
G01X-1029497Y708330D02*
G02X-1029700Y708304I-202J770D01*
G02X-1028904Y709100I0J796D01*
G02X-1028905Y709071I-796J13D01*
G03X-1028403Y708670I400J-14D01*
G02X-1028200Y708696I202J-770D01*
G02X-1028996Y707900I0J-796D01*
G02X-1028995Y707929I796J-13D01*
G03X-1029497Y708330I-400J14D01*
G37*
G36*
G01X-1212263Y689544D02*
G02X-1212945Y689159I-682J412D01*
G02Y690751I0J796D01*
G02X-1212332Y690463I0J-796D01*
G03X-1211682Y690511I308J255D01*
G02X-1211000Y690896I682J-412D01*
G02Y689304I0J-796D01*
G02X-1211613Y689592I0J796D01*
G03X-1212263Y689544I-308J-255D01*
G37*
G36*
G01X-1136796Y672500D02*
G02X-1135204I796J0D01*
G02X-1135730Y671751I-796J0D01*
G03X-1135934Y671166I137J-376D01*
G02X-1135408Y669307I-3019J-1858D01*
G02X-1138953Y672852I-3545J0D01*
G02X-1137100Y672329I0J-3544D01*
G01X-1136796Y672500D01*
G37*
G36*
G01X-1126178Y672367D02*
G02X-1125400Y672996I778J-167D01*
G02X-1124604Y672200I0J-796D01*
G02X-1125394Y671404I-796J0D01*
G03X-1125753Y670832I2J-400D01*
G02X-1125408Y669307I-3200J-1525D01*
G02X-1128953Y672852I-3545J0D01*
G02X-1126811Y672132I0J-3546D01*
G03X-1126178Y672367I242J319D01*
G37*
G36*
G01X-1105587Y670419D02*
G02X-1105408Y669307I-3366J-1112D01*
G02X-1108953Y672852I-3545J0D01*
G02X-1106354Y671718I0J-3545D01*
G03X-1105672Y671893I294J271D01*
G02X-1104900Y672496I772J-193D01*
G02Y670904I0J-796D01*
G02X-1105104Y670931I2J796D01*
G03X-1105587Y670419I-103J-387D01*
G37*
G36*
G01X-998590Y897833D02*
G03X-998088Y898000I156J368D01*
G02X-997400Y898396I688J-400D01*
G02Y896804I0J-796D01*
G02X-997710Y896867I0J796D01*
G03X-998212Y896700I-156J-368D01*
G02X-998900Y896304I-688J400D01*
G02Y897896I0J796D01*
G02X-998590Y897833I0J-796D01*
G37*
G36*
G01X-968263Y875194D02*
G03X-968082Y875430I-15J199D01*
G02X-968096Y875579I782J149D01*
G02X-966504I796J0D01*
G02X-967103Y874808I-796J0D01*
G03X-967404Y874413I99J-388D01*
G01Y874400D01*
G02X-968200Y873604I-796J0D01*
G02X-968935Y874095I0J796D01*
G03X-969403Y874329I-369J-154D01*
G02X-969600Y874304I-198J771D01*
G02Y875896I0J796D01*
G02X-968865Y875405I0J-796D01*
G03X-968397Y875171I369J154D01*
G02X-968263Y875194I201J-770D01*
G37*
G36*
G01X-982099Y717580D02*
G03X-982601I-251J-312D01*
G02X-983100Y717404I-499J619D01*
G02Y718996I0J796D01*
G02X-982601Y718820I0J-795D01*
G03X-982099I251J312D01*
G02X-981600Y718996I499J-619D01*
G02Y717404I0J-796D01*
G02X-982099Y717580I0J795D01*
G37*
G36*
G01X-1117494Y665538D02*
G03X-1118000Y665893I-399J-30D01*
G02X-1118953Y665762I-955J3414D01*
G02X-1115408Y669307I0J3545D01*
G02X-1116361Y666889I-3544J0D01*
G03X-1116280Y666276I292J-273D01*
G02X-1115904Y665600I-420J-676D01*
G02X-1116700Y664804I-796J0D01*
G02X-1117494Y665538I0J796D01*
G37*
G36*
G01X-1008059Y903090D02*
Y906240D01*
G02X-1005299I1380J0D01*
G01Y903090D01*
G02X-1008059I-1380J0D01*
G37*
G36*
G01X-1102710Y886202D02*
Y893682D01*
G02X-1098376I2167J1D01*
G01Y886202D01*
G02X-1102710I-2167J-1D01*
G37*
G36*
G01X-1236440Y680533D02*
X-1234472D01*
G02Y675805I0J-2364D01*
G01X-1236440D01*
G02Y680533I0J2364D01*
G37*
G36*
G01X-1235064Y688208D02*
Y690178D01*
G02X-1230336I2364J0D01*
G01Y688208D01*
G02X-1235064I-2364J0D01*
G37*
G36*
G01X-1063401Y714539D02*
G02X-1064050Y714204I-649J461D01*
G02Y715796I0J796D01*
G02X-1063401Y715461I0J-796D01*
G03X-1062749I326J232D01*
G02X-1062100Y715796I649J-461D01*
G02Y714204I0J-796D01*
G02X-1062749Y714539I0J796D01*
G03X-1063401I-326J-232D01*
G37*
G36*
G01X-1030884Y872868D02*
G02X-1031196Y873500I484J632D01*
G02X-1029604I796J0D01*
G02X-1029916Y872868I-796J0D01*
G03Y872232I243J-318D01*
G02X-1029604Y871600I-484J-632D01*
G02X-1031196I-796J0D01*
G02X-1030884Y872232I796J0D01*
G03Y872868I-243J318D01*
G37*
G36*
G01X-1032750Y866344D02*
G02X-1033096Y867000I449J656D01*
G02X-1032300Y867796I796J0D01*
G02X-1031513Y867119I0J-796D01*
G03X-1030944Y866818I396J59D01*
G02X-1030600Y866896I344J-718D01*
G02Y865304I0J-796D01*
G02X-1030820Y865335I0J796D01*
G03X-1031322Y865034I-111J-385D01*
G02X-1032100Y864404I-778J165D01*
G02X-1032896Y865200I0J796D01*
G02X-1032683Y865742I796J0D01*
G03X-1032750Y866344I-293J272D01*
G37*
G36*
G01X-1117360Y863234D02*
G02X-1117596Y863800I561J566D01*
G02X-1116004I796J0D01*
G02X-1116240Y863234I-797J0D01*
G03Y862666I281J-284D01*
G02X-1116004Y862100I-561J-566D01*
G02X-1117596I-796J0D01*
G02X-1117360Y862666I797J0D01*
G03Y863234I-281J284D01*
G37*
G36*
G01X-1154196Y861113D02*
G02X-1154296Y861500I696J386D01*
G02X-1152704I796J0D01*
G02X-1153218Y860756I-795J0D01*
G03X-1153425Y860187I142J-374D01*
G02X-1153325Y859800I-696J-386D01*
G02X-1154917I-796J0D01*
G02X-1154403Y860544I795J0D01*
G03X-1154196Y861113I-142J374D01*
G37*
G36*
G01X-1176156Y853018D02*
G02X-1176852Y853808I100J790D01*
G02X-1175260I796J0D01*
G02X-1175361Y853420I-796J0D01*
G03X-1175061Y852829I350J-194D01*
G02X-1174365Y852039I-100J-790D01*
G02X-1175957I-796J0D01*
G02X-1175856Y852427I796J0D01*
G03X-1176156Y853018I-350J194D01*
G37*
G36*
G01X-1075001Y846144D02*
G02X-1075317Y846779I480J635D01*
G02X-1073725I796J0D01*
G02X-1074100Y846103I-797J0D01*
G03X-1074130Y845445I211J-339D01*
G02X-1073814Y844810I-480J-635D01*
G02X-1075406I-796J0D01*
G02X-1075031Y845486I797J0D01*
G03X-1075001Y846144I-211J339D01*
G37*
G36*
G01X-1189534Y824540D02*
G02X-1190100Y824304I-566J561D01*
G02Y825896I0J796D01*
G02X-1189534Y825660I0J-797D01*
G03X-1188966I284J281D01*
G02X-1188400Y825896I566J-561D01*
G02Y824304I0J-796D01*
G02X-1188966Y824540I0J797D01*
G03X-1189534I-284J-281D01*
G37*
G36*
G01X-1162466Y815334D02*
G02X-1162925Y815189I-458J651D01*
G02Y816781I0J796D01*
G02X-1162179Y816262I0J-796D01*
G03X-1161574Y816075I375J140D01*
G02X-1161115Y816220I458J-651D01*
G02Y814628I0J-796D01*
G02X-1161861Y815147I0J796D01*
G03X-1162466Y815334I-375J-140D01*
G37*
G36*
G01X-1198068Y711880D02*
G02X-1198727Y711531I-659J448D01*
G02Y713123I0J796D01*
G02X-1198075Y712784I0J-796D01*
G03X-1197417Y712789I327J230D01*
G02X-1196758Y713138I659J-448D01*
G02X-1196091Y712777I0J-797D01*
G03X-1195433Y712759I335J218D01*
G02X-1194790Y713086I643J-469D01*
G02Y711494I0J-796D01*
G02X-1195457Y711855I0J797D01*
G03X-1196115Y711873I-335J-218D01*
G02X-1196758Y711546I-643J469D01*
G02X-1197410Y711885I0J796D01*
G03X-1198068Y711880I-327J-230D01*
G37*
G36*
G01X-1208504Y703477D02*
G02X-1209000Y703304I-496J623D01*
G02Y704896I0J796D01*
G02X-1208431Y704656I-1J-796D01*
G03X-1207896Y704623I286J280D01*
G02X-1207400Y704796I496J-623D01*
G02Y703204I0J-796D01*
G02X-1207969Y703444I1J796D01*
G03X-1208504Y703477I-286J-280D01*
G37*
G36*
G01X-1107152Y860047D02*
G03X-1107673Y860128I-307J-257D01*
G02X-1108100Y860004I-427J673D01*
G02Y861596I0J796D01*
G02X-1107490Y861311I0J-795D01*
G03X-1106969Y861230I307J257D01*
G02X-1106542Y861354I427J-673D01*
G02Y859762I0J-796D01*
G02X-1107152Y860047I0J795D01*
G37*
G36*
G01X-1183299Y814880D02*
G03X-1183801I-251J-312D01*
G02X-1184300Y814704I-499J619D01*
G02Y816296I0J796D01*
G02X-1183801Y816120I0J-795D01*
G03X-1183299I251J312D01*
G02X-1182800Y816296I499J-619D01*
G02Y814704I0J-796D01*
G02X-1183299Y814880I0J795D01*
G37*
G36*
G01X-991643Y828320D02*
G02X-991800Y828304I-159J780D01*
G02Y829896I0J796D01*
G02X-991564Y829860I-1J-796D01*
G03X-991063Y830128I118J382D01*
G02X-990300Y830696I763J-228D01*
G02X-989504Y829900I0J-796D01*
G02X-989775Y829301I-796J-1D01*
G03X-989809Y828733I263J-301D01*
G02X-989604Y828200I-590J-533D01*
G02X-989939Y827551I-796J0D01*
G03X-990026Y826982I231J-327D01*
G02X-989863Y826500I-633J-483D01*
G02X-991455I-796J0D01*
G02X-991120Y827149I796J0D01*
G03X-991033Y827718I-231J327D01*
G02X-991175Y828019I633J483D01*
G03X-991643Y828320I-390J-91D01*
G37*
G36*
G01X-1016082Y795853D02*
G02X-1016096Y796000I782J149D01*
G02X-1015300Y795204I796J0D01*
G01X-1015316D01*
G03X-1015718Y794730I-9J-400D01*
G02X-1015704Y794583I-782J-149D01*
G02X-1016500Y795379I-796J0D01*
G01X-1016484D01*
G03X-1016082Y795853I9J400D01*
G37*
G36*
G01X-1132498Y735750D02*
G02X-1132365Y735202I-1062J-548D01*
G02X-1133561Y734006I-1196J0D01*
G02X-1134637Y734680I0J1196D01*
G02X-1134770Y735228I1062J548D01*
G02X-1133574Y736424I1196J0D01*
G02X-1132498Y735750I0J-1196D01*
G37*
G36*
G01X-1019657Y733518D02*
G03X-1019155Y733652I173J361D01*
G02X-1018500Y733996I655J-452D01*
G02Y732404I0J-796D01*
G02X-1018843Y732482I1J796D01*
G03X-1019345Y732348I-173J-361D01*
G02X-1020000Y732004I-655J452D01*
G02Y733596I0J796D01*
G02X-1019657Y733518I-1J-796D01*
G37*
G54D26*
X-978953Y669307D03*
X-1058953D03*
G54D25*
X-1210764Y889764D03*
X-1220764Y884764D03*
X-1210764Y909764D03*
X-1220764Y904764D03*
X-1210764Y899764D03*
X-1220764Y894764D03*
X-1210764Y879764D03*
X-1220764Y874764D03*
G54D27*
X-1018953Y669307D03*
X-1098953D03*
X-1168953D03*
X-1068953D03*
X-1088953D03*
X-1028953D03*
X-1148953D03*
X-988953D03*
X-1048953D03*
X-1158953D03*
X-1038953D03*
X-998953D03*
X-1008953D03*
X-1078953D03*
G54D22*
X-1202600Y672100D03*
X-954500Y870100D03*
X-953978Y867622D03*
X-965100Y848700D03*
X-1027421Y909721D03*
X-992300Y882600D03*
X-958142Y826058D03*
X-954142Y826042D03*
X-954000Y873700D03*
X-974700Y887600D03*
X-969055Y867660D03*
X-954100Y834300D03*
X-958500Y834400D03*
X-982700Y898500D03*
X-980300Y899000D03*
X-1032800Y683700D03*
X-1057400Y710000D03*
X-1060800D03*
X-1053400Y710100D03*
X-967910Y839810D03*
X-967500Y842400D03*
X-969900Y839600D03*
X-1078680Y876970D03*
X-1084730Y876670D03*
X-1248900Y667400D03*
X-1254500Y664400D03*
X-1242500Y672300D03*
X-1175223Y896823D03*
X-1137322Y909978D03*
X-1242600Y666000D03*
X-1251700Y672100D03*
X-969500Y835900D03*
X-1036500Y692900D03*
X-964500Y735100D03*
X-1137700Y898500D03*
X-1139600Y899900D03*
X-1234000Y672800D03*
X-1072550Y877000D03*
X-970698Y740405D03*
X-1227000Y659400D03*
X-1215800Y658600D03*
X-1205600Y658500D03*
X-1200000Y661200D03*
X-1242200Y682500D03*
X-1202900Y878700D03*
Y896400D03*
X-1048400Y692400D03*
X-1176400Y881600D03*
X-1190400Y882200D03*
X-989100Y709700D03*
X-982900Y710200D03*
X-978900Y685500D03*
Y681100D03*
Y677000D03*
X-974300Y674900D03*
Y679200D03*
X-974400Y683200D03*
X-982600Y693900D03*
X-982800Y785900D03*
X-953927Y739728D03*
X-986000Y700100D03*
X-982800Y792300D03*
X-994600Y700000D03*
X-986100Y691500D03*
X-982600Y700400D03*
X-986100Y694100D03*
X-982700Y781800D03*
X-1039700Y696600D03*
X-1034300Y689000D03*
X-1236500Y662400D03*
X-982600Y691000D03*
X-1077200Y903700D03*
X-1065100D03*
X-1065300Y911400D03*
X-1077300Y911500D03*
X-990300Y704500D03*
X-1090100Y903700D03*
X-1089700Y911000D03*
X-1053200Y911200D03*
Y903700D03*
X-1066800Y895300D03*
X-1053600Y894400D03*
X-959500Y735100D03*
X-973000Y744200D03*
X-959500Y743800D03*
X-960700Y754700D03*
X-986100Y696700D03*
X-1007800Y898100D03*
X-1037900Y896100D03*
X-1037800Y901500D03*
X-1037700Y909300D03*
X-1108300Y891000D03*
X-1116100Y913300D03*
X-1216200Y672700D03*
X-1234700Y904900D03*
X-1217700Y910300D03*
X-1211200Y662300D03*
X-1223100Y662400D03*
X-1236800Y873900D03*
X-1230100Y662500D03*
X-1195000Y904700D03*
X-1216600Y900700D03*
X-1202600Y906300D03*
X-963677Y740069D03*
X-1182300Y897300D03*
X-1226200Y689800D03*
Y684100D03*
X-1009000Y762300D03*
X-1234000Y657800D03*
X-1212800Y685800D03*
X-1194700Y887500D03*
X-1168100Y681700D03*
X-1188000Y902500D03*
X-1180600Y904400D03*
X-1172500Y677700D03*
X-982600Y697100D03*
X-1176900Y899200D03*
X-1180700D03*
X-1172700Y901500D03*
X-1180700Y901600D03*
X-1169900Y901400D03*
X-1176800Y901500D03*
X-1156079Y688721D03*
X-1163700Y901400D03*
Y899000D03*
X-1033400Y696000D03*
X-1054300Y697400D03*
X-1090100Y895000D03*
X-987900Y791000D03*
X-1226093Y694744D03*
X-1010100Y680100D03*
X-1092400Y880300D03*
X-1226200Y678600D03*
X-1079200Y895000D03*
X-1041300Y678400D03*
X-1172600Y899200D03*
X-1194300Y687900D03*
X-987700Y787400D03*
X-1169900Y899100D03*
X-1215600Y694600D03*
X-1207900Y680600D03*
X-1122400Y910700D03*
X-992000Y792300D03*
X-1056000Y726100D03*
X-987900Y782100D03*
X-1030300Y705200D03*
X-1187400Y688100D03*
X-1114800Y876700D03*
X-1035200Y709200D03*
X-1044000Y709100D03*
X-1044100Y687000D03*
X-994000Y706600D03*
X-1034800Y682600D03*
X-1002900Y697100D03*
X-1008400Y694800D03*
X-1116322Y906878D03*
X-1066100Y696900D03*
X-1105421Y868921D03*
X-1001850Y692750D03*
X-1000100Y697100D03*
X-1191050Y897950D03*
X-1107900Y876600D03*
X-961100Y826500D03*
X-1193800Y897900D03*
X-972500Y761000D03*
X-1029600Y715000D03*
X-990200Y688700D03*
X-1039200Y713600D03*
X-991300Y871300D03*
X-1055600Y714200D03*
X-1076100Y868100D03*
X-1138500Y872100D03*
X-993000Y737800D03*
X-992200Y786700D03*
X-991558Y759942D03*
X-997300Y735000D03*
X-1033400Y720100D03*
X-992300Y713200D03*
X-1090106Y869897D03*
X-1089327Y878300D03*
X-1063200Y697000D03*
X-1054200Y705400D03*
X-1139550Y897250D03*
X-1019430Y696870D03*
X-1113000Y877871D03*
X-1080952Y869900D03*
X-973100Y749000D03*
X-1080269Y897249D03*
X-1014700Y708700D03*
X-1084100Y869900D03*
X-988205Y765595D03*
X-992450Y765600D03*
X-1094600Y671600D03*
X-1007140Y724260D03*
X-1007400Y776900D03*
X-1028500Y688600D03*
X-1047850Y713350D03*
X-1215000Y678500D03*
X-1050100Y705400D03*
X-1086958Y869897D03*
X-1080273Y878300D03*
X-1083417Y897249D03*
X-1010128Y776900D03*
X-1038300Y688581D03*
X-993100Y735100D03*
X-1041700Y692871D03*
X-984400Y714100D03*
X-1074379Y878700D03*
X-983083Y726517D03*
X-1018000Y688600D03*
X-1110000Y876019D03*
X-1037600Y715100D03*
X-1064600Y717700D03*
X-1041800Y682671D03*
X-1007700Y771500D03*
X-1086179Y878300D03*
X-1110000Y872871D03*
X-1041800Y685819D03*
X-1038300Y691729D03*
X-1071621Y878800D03*
X-1041700Y696019D03*
X-1083421Y878300D03*
X-1089323Y897259D03*
X-987500Y712900D03*
X-1000800Y706400D03*
X-1114600Y661600D03*
X-1146500Y910300D03*
X-1156195Y664595D03*
X-1141300Y887374D03*
X-1140800Y906600D03*
X-1007200Y733354D03*
X-983100Y688400D03*
X-986600Y733200D03*
X-1004340Y733140D03*
X-1052200Y714300D03*
X-1197452Y902375D03*
X-1071605Y897328D03*
X-1044342Y714958D03*
X-997000Y749000D03*
X-1072900Y880600D03*
X-1077527Y878700D03*
X-1048300Y699300D03*
X-992200Y782300D03*
X-1124774Y887374D03*
X-968700Y746500D03*
X-1095421Y867821D03*
X-1027200Y716700D03*
X-1078900Y880500D03*
X-1135200Y662900D03*
X-972465Y757065D03*
X-1004700Y777100D03*
X-1010159Y771559D03*
X-1041200Y709200D03*
X-1049300Y710400D03*
X-1116678Y903122D03*
X-1059000Y714100D03*
X-1073000Y895100D03*
X-1100145Y707355D03*
X-1085579Y868179D03*
X-1108200Y686400D03*
X-1131700Y685700D03*
X-1112700Y714900D03*
X-1115300Y702200D03*
X-1126700Y677600D03*
X-1038300Y682119D03*
X-1018744Y726244D03*
X-1141478Y903122D03*
X-1116715Y899185D03*
X-993713Y688700D03*
X-1178900Y688100D03*
X-1140000Y880119D03*
X-1086175Y897259D03*
X-1140600Y871192D03*
X-1064600Y698500D03*
X-1038300Y678971D03*
X-1115300Y686450D03*
X-1188884Y678093D03*
X-1111500Y686400D03*
X-1019400Y704500D03*
X-1186916Y682300D03*
X-1084800Y894900D03*
X-1117400Y716400D03*
X-1200600Y677700D03*
X-1179042Y677758D03*
X-1213000Y687850D03*
X-1207227Y686673D03*
X-1210600Y677800D03*
X-1213222Y694800D03*
X-1197200Y683800D03*
X-1215600Y683500D03*
X-1210600Y693300D03*
X-1193300Y683800D03*
X-1068457Y897328D03*
X-1196900Y677800D03*
X-1208441Y670141D03*
X-1202200Y691495D03*
X-1210600Y684700D03*
X-1199100Y697200D03*
X-1074460Y710140D03*
X-1190900Y683800D03*
X-1080050Y714850D03*
X-1097550Y717650D03*
X-1074450D03*
X-1097550Y722450D03*
X-1182979Y684300D03*
X-983500Y733600D03*
X-1106950Y709750D03*
X-1004600Y771800D03*
X-1080050Y710150D03*
X-1120950Y677450D03*
X-987400Y724000D03*
X-1094550Y714800D03*
X-1074364Y897328D03*
X-1091650Y709950D03*
X-1166200Y687000D03*
X-1168627Y686673D03*
X-1208359Y665941D03*
X-1094600Y707600D03*
X-1085850Y710050D03*
X-1100141Y710041D03*
X-1202300Y693700D03*
X-1103750Y710100D03*
X-1082950Y710050D03*
X-986700Y689100D03*
X-1035000Y678400D03*
X-1088850Y722550D03*
X-1091850Y717650D03*
X-1071650Y717550D03*
X-1094650Y717650D03*
X-1068750Y710150D03*
X-1103750Y714750D03*
X-1109800Y714800D03*
X-1100541Y714741D03*
X-1079950Y717650D03*
X-1112700Y717200D03*
X-1106664Y723200D03*
X-1088850Y717650D03*
X-1071750Y710150D03*
X-1085850Y714750D03*
X-1103208Y723004D03*
X-1082950Y717650D03*
X-1077250D03*
X-1175105Y677705D03*
X-1109200Y707600D03*
X-1110000Y698900D03*
X-1082950Y714800D03*
X-1140000Y883192D03*
X-1097360Y714760D03*
X-1085850Y717650D03*
X-1106950Y717250D03*
X-1058600Y723500D03*
X-1091850Y722550D03*
X-963100Y826500D03*
X-1068741Y717541D03*
X-1227300Y884100D03*
X-1226200Y900000D03*
X-1236700Y895800D03*
X-1113000Y881019D03*
X-1227700Y873200D03*
X-992800Y886000D03*
X-983600Y881600D03*
X-990600Y884100D03*
X-1001700Y898900D03*
X-1100500Y722600D03*
X-1003800Y898900D03*
X-1103750Y717600D03*
X-992500Y877200D03*
X-989200Y877300D03*
X-1180600Y893462D03*
X-1198150Y893950D03*
X-989200Y879400D03*
X-997300Y875400D03*
X-981000Y859500D03*
X-1208300Y691600D03*
X-1009100Y768000D03*
X-1094550Y709850D03*
X-995100Y885994D03*
X-999100Y899300D03*
X-994600Y874000D03*
X-978600Y897900D03*
X-983000Y856900D03*
X-1091650Y714750D03*
X-1116200Y889400D03*
X-991878Y858800D03*
X-1140000Y892912D03*
X-1085850Y722600D03*
X-1100450Y717500D03*
X-1166600Y677600D03*
X-1086450Y726550D03*
X-1077350Y710150D03*
X-1084449Y880249D03*
X-1088600Y714700D03*
X-1077512Y897328D03*
X-1094650Y722450D03*
X-1106950Y714750D03*
X-1088650Y710050D03*
X-994000Y862700D03*
X-976400Y881500D03*
X-965500Y865400D03*
X-1202600Y668000D03*
X-1021100Y878000D03*
X-1023568Y887168D03*
X-1022800Y883500D03*
X-1030800Y858700D03*
X-1036700Y869200D03*
Y867200D03*
X-1218800Y715500D03*
X-1031200Y879700D03*
X-1222200Y702400D03*
X-1046700Y867700D03*
X-1219000Y783400D03*
X-1041829Y859329D03*
X-1042100Y869400D03*
X-1218200Y721400D03*
X-1180500Y815500D03*
X-1030700Y869000D03*
X-1039200Y869500D03*
X-1033900Y869300D03*
X-1053429Y860467D03*
X-1059800Y845900D03*
X-1033400Y882300D03*
X-1127145Y837100D03*
X-1053300Y868100D03*
X-1215400Y809100D03*
X-1210100Y851300D03*
X-1212200Y838200D03*
X-1173100Y861000D03*
X-1181200Y864200D03*
X-1197400Y847800D03*
X-1017800Y862600D03*
X-1008700Y858800D03*
X-1021100Y887400D03*
X-970500Y814800D03*
X-1009300Y867700D03*
X-1003500Y860800D03*
X-1017000Y858700D03*
X-1196600Y828600D03*
X-970100Y810200D03*
X-1218200Y853700D03*
X-1218100Y846500D03*
Y835300D03*
X-1219300Y769800D03*
X-1215900Y706600D03*
X-1228400Y702400D03*
X-1138900Y860600D03*
X-969500Y806500D03*
X-1201300Y832500D03*
X-1196200Y821600D03*
X-1205500Y811500D03*
X-1211150Y830950D03*
Y808650D03*
Y812150D03*
Y820650D03*
X-1206302Y805097D03*
X-1006900Y853400D03*
X-1207800Y823566D03*
X-1205517Y819022D03*
Y816088D03*
X-1209200Y821900D03*
X-1215100Y702800D03*
X-1207607Y812558D03*
Y815492D03*
X-1204200Y809000D03*
X-1206302Y808031D03*
X-1207800Y826500D03*
X-1020300Y858800D03*
X-1146600Y821500D03*
X-1145800Y814800D03*
X-1200700Y841300D03*
X-1171400Y834100D03*
X-1161800Y838800D03*
X-1084900Y844900D03*
X-1175900Y857000D03*
X-1166600Y838800D03*
X-1188500Y702300D03*
X-1085000Y851700D03*
X-1161600Y834100D03*
X-1117000Y851941D03*
X-1161700Y829900D03*
X-1193200Y836900D03*
X-1085100Y859000D03*
X-1095800Y851700D03*
X-1011900Y853500D03*
X-1095700Y845200D03*
X-1090400Y845000D03*
X-1090500Y851700D03*
X-1020600Y853400D03*
X-1207600Y831200D03*
X-1166600Y829800D03*
X-1171500D03*
X-1090400Y859100D03*
X-1191300Y813500D03*
X-1194200Y702700D03*
X-1215300Y796100D03*
X-1069675Y854600D03*
X-1168062Y859762D03*
X-1166500Y834000D03*
X-1168400Y856100D03*
X-1096000Y859200D03*
X-1009800Y863800D03*
X-1202481Y836602D03*
X-1213824Y800590D03*
Y797656D03*
X-1171500Y838900D03*
X-1197083Y830633D03*
X-1202481Y839536D03*
X-1171332Y855267D03*
X-1200017Y830633D03*
X-1192000Y827400D03*
X-1188283Y838000D03*
X-1139300Y816500D03*
X-1170600Y815300D03*
X-1185538Y831638D03*
X-1148900Y821500D03*
X-1146900Y825700D03*
X-1174266Y855267D03*
X-1184700Y846100D03*
X-1074542Y860558D03*
X-1141248Y863752D03*
X-1184813Y841087D03*
X-1064200Y849600D03*
X-972976Y768876D03*
X-1149400Y816300D03*
X-1151500Y815100D03*
X-1165713Y853700D03*
X-1136181Y822259D03*
X-1159123Y815515D03*
X-1107884Y850716D03*
X-1147356Y819616D03*
X-1148900Y831500D03*
X-1106400Y852684D03*
X-1139329Y822259D03*
X-1135500Y827600D03*
X-1154600Y853900D03*
X-1141000Y859492D03*
X-1191217Y838000D03*
X-1141000Y856419D03*
X-1178990Y853808D03*
X-1074716Y850716D03*
X-1108000Y846900D03*
X-1054938Y871538D03*
X-1147000Y823500D03*
X-1152200Y853800D03*
X-1055200Y854000D03*
X-1184200Y823800D03*
X-1184287Y833213D03*
X-1184237Y830063D03*
X-1180400Y850800D03*
X-1147356Y816682D03*
X-1178100Y815500D03*
X-1172400Y816200D03*
X-1170437Y851763D03*
X-1058876Y870524D03*
X-1049400Y870500D03*
X-1106421Y856621D03*
X-1129000Y710500D03*
X-1168600Y815300D03*
X-1110100Y847100D03*
X-1170900Y857400D03*
X-1060844Y871800D03*
X-1211150Y801250D03*
X-1108200Y858590D03*
X-1107653Y854653D03*
X-1214600Y709900D03*
X-1208000Y712200D03*
X-1214200Y705200D03*
X-1190853Y712247D03*
X-1186900Y711900D03*
X-1199700Y706900D03*
X-1175100Y703200D03*
X-1125750Y714650D03*
X-1140300Y714200D03*
X-1214300Y707900D03*
X-1165800Y712300D03*
X-1168736Y712264D03*
X-1129200Y707400D03*
X-977044Y769344D03*
X-1153400Y864700D03*
X-1208100Y709700D03*
X-1144200Y710800D03*
X-1136500D03*
X-1147700Y714536D03*
X-1126000Y710600D03*
Y707400D03*
X-1208100Y706900D03*
X-1140300Y710800D03*
X-1211700Y709900D03*
X-1154700Y715200D03*
X-1168573Y708327D03*
X-1137344Y714513D03*
X-1175300Y706500D03*
X-1133150Y714250D03*
X-1139800Y854700D03*
X-1012092Y858672D03*
X-1166107Y821021D03*
X-1252600Y740300D03*
X-1219100Y775100D03*
X-1256500Y809700D03*
X-1135500Y824666D03*
X-1017300Y867700D03*
X-1020200Y880000D03*
X-1027200Y891000D03*
X-1211400Y712400D03*
X-1029800Y887300D03*
X-1167287Y851787D03*
X-1013500Y863900D03*
X-973805Y773307D03*
X-1011400Y876800D03*
X-1032600Y871600D03*
X-1032900Y849800D03*
X-1030400Y863700D03*
Y875500D03*
X-1032300Y854900D03*
X-1064020Y877620D03*
X-1032700Y875600D03*
X-1036200Y875300D03*
X-1032700Y873600D03*
X-1125900Y704400D03*
X-973805Y776455D03*
X-1032700Y863000D03*
X-1196217Y816222D03*
Y819156D03*
X-1205545Y827289D03*
Y830223D03*
X-1063100Y874800D03*
X-1145512Y714498D03*
X-1133000Y710700D03*
X-1143424Y815929D03*
X-1034700Y873300D03*
X-999100Y850011D03*
X-1006500Y876900D03*
X-1030060Y853160D03*
X-1030300Y849400D03*
X-1053700Y845600D03*
X-1102852Y742879D03*
X-1126100Y737978D03*
X-1072400Y748255D03*
X-1126024Y735343D03*
X-1143768Y806800D03*
X-1141268Y804168D03*
X-1146386Y806900D03*
X-1205000Y789400D03*
X-1049700Y784800D03*
X-1047800Y769792D03*
X-1025100Y769700D03*
X-1167050Y768150D03*
X-1052800Y772600D03*
X-1029500D03*
Y782200D03*
X-1167000Y758700D03*
X-1025500Y784900D03*
X-1052600Y780200D03*
X-987708Y815795D03*
X-995700Y825200D03*
X-1023200Y782200D03*
X-1001700Y831200D03*
X-994600Y829900D03*
X-1190300Y802200D03*
X-1014300Y774500D03*
X-1177900Y720400D03*
X-1010500Y801000D03*
X-1015700Y769300D03*
X-1020700Y828300D03*
X-1192500Y722500D03*
X-1193600Y801800D03*
X-1201700Y792900D03*
X-1204700Y785000D03*
X-1205400Y730157D03*
X-1209300Y735000D03*
X-1208300Y744500D03*
X-1204785Y736183D03*
X-1206200Y732100D03*
X-1207400Y739666D03*
Y742600D03*
X-1206200Y724600D03*
X-1207617Y730665D03*
X-1201300Y736700D03*
X-1205400Y727223D03*
X-1207617Y733599D03*
X-1204717Y748133D03*
X-987553Y813800D03*
X-997800Y827200D03*
X-1013800Y797700D03*
X-1161100Y720800D03*
X-1186400Y723900D03*
X-1037200Y731600D03*
X-1182300Y722500D03*
X-1009500Y816900D03*
X-1000859Y810359D03*
X-991600Y813800D03*
X-996850Y813250D03*
X-1000841Y805859D03*
X-978200Y808400D03*
X-1056900Y735400D03*
X-1043900Y733000D03*
X-1007800Y822400D03*
X-1036100Y736100D03*
X-1042400Y734700D03*
X-1000635Y798865D03*
X-1010200Y809100D03*
X-1000941Y814759D03*
X-1009100Y803300D03*
X-996850Y804250D03*
X-1204717Y745199D03*
X-1031900Y736300D03*
X-1014800Y805300D03*
X-996850Y808650D03*
X-992400Y809400D03*
X-996800Y833300D03*
X-1011000Y833400D03*
X-1207000Y751000D03*
X-1204785Y739117D03*
X-1108009Y737800D03*
X-1165300Y720900D03*
X-1011800Y812200D03*
X-1207000Y748641D03*
X-1008800Y833500D03*
X-1205700Y741300D03*
X-1003900Y833000D03*
X-1102900Y732691D03*
X-992100Y811700D03*
X-1084674Y760593D03*
X-1207700Y722000D03*
X-1194700Y724400D03*
X-1190500Y724600D03*
X-988200Y824200D03*
X-1138600Y804218D03*
X-1133200Y781400D03*
X-1138600Y801818D03*
X-1200600Y723300D03*
X-1014998Y801202D03*
Y809298D03*
X-1014821Y789179D03*
X-1014317Y813483D03*
X-1016370Y778330D03*
X-1209400Y724800D03*
X-1207200Y753400D03*
X-1008200Y837800D03*
X-1010300Y838500D03*
X-1015500Y839300D03*
X-1024600Y774474D03*
X-1211400Y735200D03*
X-1203900Y776500D03*
X-1083503Y741603D03*
X-1087499Y735202D03*
X-1084500Y735200D03*
X-1087498Y737761D03*
X-1092616Y745439D03*
X-1095175Y735202D03*
X-1092616Y737761D03*
X-1095175Y740320D03*
X-1092616Y742879D03*
Y740320D03*
X-1095175Y737761D03*
Y742879D03*
X-1092200Y735400D03*
X-1107970Y745439D03*
X-1100293Y740320D03*
X-1107970Y735202D03*
X-1100293D03*
X-1102852Y740320D03*
Y737761D03*
X-1107970Y740320D03*
X-1107300Y743400D03*
X-1115647Y745439D03*
X-1118206D03*
X-1110529D03*
X-1115647Y742879D03*
X-1118206Y737761D03*
X-1115647Y735202D03*
X-1118206Y742879D03*
Y740320D03*
X-1115647Y737761D03*
Y740320D03*
X-1110529Y742879D03*
Y737761D03*
Y740320D03*
X-1131001Y745439D03*
X-1125883D03*
X-1123324D03*
X-1131008Y740327D03*
X-1131001Y737760D03*
X-1125883Y740320D03*
Y742879D03*
X-1123324D03*
Y740320D03*
Y735202D03*
Y737761D03*
X-1090100Y732700D03*
X-1110600Y735273D03*
X-1123277Y732700D03*
X-1115600D03*
X-1107970Y732643D03*
X-1102850Y735200D03*
X-1133016Y774900D03*
X-1123325Y753116D03*
X-1128443Y771030D03*
X-1092616Y765911D03*
X-1128441Y753117D03*
X-1088000Y766000D03*
X-1115648Y750558D03*
X-1123326D03*
X-1118263Y732700D03*
X-1154296Y798659D03*
X-1158300Y772000D03*
X-1133551Y737751D03*
X-1128441Y750558D03*
X-1133660Y747900D03*
X-1133600Y742918D03*
X-1092616Y771029D03*
X-1120766Y750558D03*
X-1108044Y753043D03*
X-1131006Y773588D03*
X-1141228Y737772D03*
X-1143798Y737761D03*
X-1138500Y783100D03*
X-1115648Y753117D03*
X-1133641Y740400D03*
X-1113089Y750558D03*
X-1097735Y747998D03*
X-1107970Y750558D03*
X-1146400Y737805D03*
X-1158172Y791028D03*
X-1156600Y749751D03*
X-1157400Y752100D03*
X-1130995Y778700D03*
X-1172650Y801200D03*
X-1090057Y778708D03*
X-1148000Y725400D03*
X-1125885Y758234D03*
X-1164200Y763700D03*
X-1213050Y777350D03*
X-1143809Y742891D03*
X-1150300Y771900D03*
X-1158700Y801000D03*
X-1092619Y758238D03*
X-1143791Y745432D03*
X-1141240Y742879D03*
X-1133400Y763200D03*
X-1113089Y753117D03*
X-1131022Y742900D03*
X-1131002Y760793D03*
X-1151148Y798659D03*
X-1144941Y728941D03*
X-1138702Y748000D03*
X-1138679Y740321D03*
X-1141239Y745439D03*
X-1158200Y786900D03*
X-1138679Y745439D03*
X-1146357Y732643D03*
X-1143798Y735202D03*
X-1100293Y750557D03*
X-1120766Y753117D03*
X-1189949Y758382D03*
X-1192900Y763600D03*
X-1199699Y768623D03*
X-1180260Y773600D03*
X-1183549Y781314D03*
X-1174100Y773700D03*
X-1174196Y778855D03*
Y781314D03*
X-1177351Y781313D03*
X-1199398Y781714D03*
X-1189954Y781414D03*
X-1186799Y773736D03*
X-1193300Y773741D03*
X-1196243Y776295D03*
X-1186799D03*
X-1189944Y773737D03*
X-1196243Y783973D03*
Y781414D03*
X-1189949Y776295D03*
X-1193094Y781414D03*
Y783973D03*
X-1186784Y781363D03*
X-1199600Y775600D03*
X-1199750Y779250D03*
X-1174196Y786630D03*
X-1177346Y786532D03*
X-1143800Y758237D03*
X-1183654Y786532D03*
X-1138680Y753116D03*
X-1177346Y755822D03*
X-1141239Y768470D03*
X-1146363Y742886D03*
X-1095166Y732634D03*
X-1146400Y758278D03*
X-1174196Y748145D03*
X-1074600Y750660D03*
X-1074687Y760788D03*
X-1174196Y755822D03*
X-1138680Y763352D03*
X-1174401Y745544D03*
X-1146357Y776148D03*
X-1017000Y754300D03*
X-1174201Y753263D03*
X-1199398Y745587D03*
X-1133596Y768505D03*
X-1138680Y778706D03*
X-1193094Y743027D03*
X-1136127Y786377D03*
X-1185900Y729900D03*
X-1138180Y775647D03*
X-1143250Y775629D03*
X-1061200Y744700D03*
X-1061500Y739800D03*
X-1141239Y771029D03*
X-1177300Y745600D03*
X-1138680Y768470D03*
X-1199393Y748145D03*
X-1180700Y750500D03*
X-1136121Y778706D03*
X-1138680Y760794D03*
X-1199398Y755823D03*
X-1133400Y783600D03*
X-1183472Y745700D03*
X-1193094Y740468D03*
X-1140014Y789873D03*
X-1191678Y734611D03*
X-1186900Y753300D03*
X-1140739Y775647D03*
X-1186799Y750705D03*
X-1177346Y740368D03*
X-1151000Y725500D03*
X-1072800Y777800D03*
X-1146357Y786384D03*
X-1097735Y750557D03*
X-1186700Y745600D03*
X-1189944Y745587D03*
X-1136127Y781259D03*
X-1082204Y784000D03*
X-1072300Y786500D03*
X-1066500Y791900D03*
X-1087200Y750300D03*
X-1189944Y750704D03*
X-1196243Y748145D03*
X-1193094Y745586D03*
X-1149200Y786100D03*
X-1196243Y745586D03*
X-1196453Y753264D03*
X-1193000Y753300D03*
X-1193100Y755900D03*
X-1146366Y783834D03*
X-1074800Y783727D03*
X-1174196Y740368D03*
X-1074784Y781184D03*
X-1158000Y778200D03*
X-1079800Y781286D03*
X-1152200Y737900D03*
X-1102852Y750557D03*
X-1190000Y753300D03*
X-1183450Y763600D03*
X-1196248Y743028D03*
X-1196243Y740468D03*
X-1079700Y783945D03*
X-1058500Y738300D03*
X-1067000Y734400D03*
X-1177372Y737900D03*
X-1141239Y760794D03*
X-1075100Y792500D03*
X-1193094Y771177D03*
X-1065100Y753700D03*
X-1199393Y786632D03*
X-1196243Y786532D03*
X-1198100Y734700D03*
X-1193094Y786532D03*
X-1186786Y786710D03*
X-1189944Y789091D03*
X-1193099Y791650D03*
X-1148916Y765912D03*
X-1196322Y789122D03*
X-1171046Y740369D03*
X-1168900Y735000D03*
X-1163100Y731500D03*
X-1165565Y731150D03*
X-1160772Y740500D03*
X-1171100Y753400D03*
X-1075700Y772300D03*
X-1077400Y781100D03*
X-1171046Y748146D03*
X-1171051Y745586D03*
X-1158872Y745886D03*
X-1164757Y748145D03*
X-1176700Y763600D03*
X-1164700Y745700D03*
X-1073500Y766500D03*
X-1164496Y753303D03*
X-1161375Y745886D03*
X-1082668Y773300D03*
X-1167000Y763600D03*
X-1077800Y786000D03*
X-1160097Y763746D03*
X-1161607Y768918D03*
X-1174000Y763600D03*
X-1161904Y758375D03*
X-1171046Y773736D03*
X-1167906Y781512D03*
X-1171046Y778854D03*
X-1164757Y781314D03*
X-1171046D03*
X-1079820Y735201D03*
X-1164757Y778855D03*
X-1161607Y773836D03*
X-1141249Y786394D03*
X-1164757Y791651D03*
X-1066800Y759800D03*
X-1160186Y787116D03*
X-1160855Y794345D03*
X-1171056Y786632D03*
Y791651D03*
X-1150700Y731800D03*
X-1160000Y778150D03*
X-1143798Y747999D03*
X-1141239Y735202D03*
X-1141238Y730083D03*
X-1084800Y763500D03*
X-1141237Y763352D03*
X-1065100Y761000D03*
X-1073000Y771700D03*
X-1077100Y766900D03*
X-1177350Y771200D03*
X-1061600Y789300D03*
X-1082100Y768200D03*
X-1016600Y758000D03*
X-1143798Y753116D03*
X-1080100Y763600D03*
X-1141239Y755676D03*
X-1143799D03*
X-1136121Y771029D03*
X-1016100Y760100D03*
X-1062300Y769000D03*
X-1072700Y744800D03*
X-1069400Y744700D03*
X-1174200Y771200D03*
X-1083900Y777100D03*
X-1069200Y766500D03*
X-1092619Y750558D03*
X-1193093Y737909D03*
X-1077261Y735202D03*
X-1146357Y765912D03*
X-1075273Y767900D03*
X-1083300Y739100D03*
X-1072163Y737763D03*
X-1186000Y734800D03*
X-1138680Y771029D03*
X-1186600Y763600D03*
X-1064600Y781300D03*
X-1179500Y737900D03*
X-1143755Y768442D03*
X-1065100Y794900D03*
X-1205700Y758000D03*
X-1140705Y781662D03*
X-1151730Y755718D03*
X-1069800Y791800D03*
X-1149200Y741600D03*
X-1058106Y795014D03*
X-1062000Y804814D03*
X-1058800Y800414D03*
X-1060100Y795014D03*
X-1047454Y795228D03*
X-1047444Y800546D03*
X-1053743Y795228D03*
Y805565D03*
X-1047444D03*
X-1044304Y795228D03*
Y800544D03*
X-1050594Y800546D03*
X-1031696Y800446D03*
X-1041349Y795227D03*
X-1031696Y795328D03*
X-1041154Y800446D03*
X-1034846D03*
X-1034651Y795228D03*
X-1031696Y797886D03*
X-1019107Y800446D03*
X-1025309Y800525D03*
X-1025401Y808224D03*
X-1022257Y797887D03*
Y795328D03*
Y805565D03*
X-1019102Y795328D03*
X-1025406Y797887D03*
X-1022257Y800446D03*
X-1025406Y795328D03*
X-1028546D03*
X-1056893Y782732D03*
X-1047454Y787650D03*
X-1044400Y787614D03*
X-1050594Y787651D03*
X-1047450Y785114D03*
X-1056893Y787750D03*
X-1053743Y792769D03*
X-1044304D03*
X-1047454Y792768D03*
X-1031701Y790209D03*
Y787650D03*
X-1031696Y782532D03*
X-1034846D03*
X-1039500Y789714D03*
X-1028551Y790209D03*
X-1025400Y787655D03*
X-1019102Y790210D03*
X-1022257Y790209D03*
X-1019101Y782537D03*
X-1056893Y772296D03*
X-1044900Y769500D03*
X-1044500Y777514D03*
X-1050800D03*
X-1053950D03*
X-1041350D03*
X-1031900D03*
X-1035050D03*
X-1031696Y772296D03*
X-1034846D03*
X-1038200Y777514D03*
X-1018802Y772297D03*
X-1022450Y777514D03*
X-1025600D03*
X-1057800Y767214D03*
X-1057728Y754414D03*
X-1059628Y759800D03*
X-1044304Y762059D03*
X-1044564Y767134D03*
X-1047400Y767314D03*
X-1050600D03*
X-1053743Y762059D03*
X-1044250Y754293D03*
X-1053743Y754283D03*
X-1057125Y759800D03*
X-1044299Y759501D03*
X-1053800Y759614D03*
X-1047592Y754364D03*
X-1047449Y759500D03*
X-1047454Y762060D03*
X-1031691Y754104D03*
X-1031900Y759514D03*
X-1035028Y759614D03*
X-1041154Y754282D03*
X-1041200Y759514D03*
X-1031600Y767214D03*
X-1037628Y764414D03*
X-1031701Y764619D03*
X-1025406Y754382D03*
Y756941D03*
X-1028456Y759501D03*
X-1025406Y759500D03*
X-1022247Y767178D03*
X-1028556Y764618D03*
X-1025300Y767214D03*
X-1018797Y767078D03*
X-1053889Y751623D03*
X-1050450Y751688D03*
X-1050599Y748665D03*
X-1038128Y751914D03*
X-1041128Y751734D03*
X-1028556Y751823D03*
X-1017336Y750800D03*
X-1084932Y748005D03*
X-1077261Y745439D03*
X-1154829Y785359D03*
X-1068600Y781500D03*
X-1149200Y748300D03*
X-1067200Y787200D03*
X-1077500Y761000D03*
X-1125940Y732700D03*
X-1087900Y763500D03*
X-1077261Y755675D03*
X-1075102Y744939D03*
X-1069601Y753100D03*
X-1079820Y755675D03*
X-1143798Y771029D03*
X-1196250Y763600D03*
X-1082379Y755675D03*
X-1074701Y753116D03*
X-1074702Y755676D03*
X-1079820Y753116D03*
X-1072143D03*
X-1079820Y747998D03*
X-1077261D03*
X-1079650Y744750D03*
X-1082379Y753116D03*
X-1136296Y748134D03*
X-1118300Y735296D03*
X-1092617Y753116D03*
X-1014000Y762600D03*
X-1136110Y788953D03*
X-1146357Y753116D03*
X-1199397Y740469D03*
X-1195300Y768100D03*
X-1202000Y782500D03*
X-1143916Y781384D03*
X-1060200Y736600D03*
X-1189949Y768618D03*
X-1082200Y781086D03*
X-1081000Y772100D03*
X-1195200Y758800D03*
X-1067400Y795000D03*
X-1016900Y762700D03*
X-1025250Y751845D03*
X-1028300Y749014D03*
X-1152448Y785312D03*
X-1153600Y772800D03*
X-1102913Y745500D03*
X-1013800Y821600D03*
X-1107872Y791600D03*
X-1077800Y808400D03*
X-1079900Y796541D03*
X-1100350Y806800D03*
X-1076105Y807300D03*
X-1097700Y796586D03*
X-1100296Y804300D03*
X-1092496Y796500D03*
X-1110529Y765912D03*
X-1092437Y799000D03*
X-1067300Y814400D03*
X-1081100Y800800D03*
X-1089878Y799000D03*
X-1073800Y811350D03*
X-1077271Y796630D03*
X-1077400Y804159D03*
X-1082300Y806900D03*
X-1089900Y801600D03*
X-1087800Y809717D03*
X-1085700Y796600D03*
X-1092489Y801611D03*
X-1089900Y804100D03*
X-1120766Y783824D03*
X-1069700Y814400D03*
X-1072100Y812850D03*
X-1082950Y799750D03*
X-1064600Y814200D03*
X-1074823Y799300D03*
X-1087100Y789100D03*
X-1082700Y791600D03*
X-1082450Y804350D03*
X-1073446Y807200D03*
X-1089937Y796500D03*
X-1100400D03*
X-1092500Y804181D03*
X-1105500Y809327D03*
X-1105568Y806700D03*
X-1092606Y806867D03*
X-1077482Y799400D03*
X-1073300Y800800D03*
X-1120600Y804132D03*
X-1110529Y788941D03*
X-1094200Y794300D03*
X-1087900Y791100D03*
X-1102849Y788941D03*
X-1105411Y758235D03*
X-1118207Y768471D03*
X-1095177Y786384D03*
X-1113090Y781266D03*
X-1095186Y781255D03*
X-1115648Y768471D03*
Y783824D03*
X-1100294Y771026D03*
X-1113087Y760794D03*
X-1107970Y758235D03*
X-1115647Y758234D03*
X-1105412Y776148D03*
X-1093500Y790500D03*
X-1113000Y794150D03*
X-1115554Y794155D03*
X-1110500Y798300D03*
X-1097735Y781266D03*
X-1113087Y758234D03*
X-1112890Y791700D03*
X-1100295Y781266D03*
X-1097737Y786384D03*
X-1107970Y776145D03*
X-1105313Y791600D03*
X-1115500Y801591D03*
X-1107969Y788941D03*
X-1105409D03*
X-1100294Y760794D03*
X-1097735Y778707D03*
X-1105000Y786500D03*
X-1118207Y758234D03*
X-1105412Y778707D03*
X-1105411Y760794D03*
X-1123326Y788941D03*
X-1115647Y760794D03*
X-1118207Y788942D03*
X-1115648Y765912D03*
X-1118207Y771030D03*
X-1107970Y760795D03*
X-1105412Y783825D03*
X-1120766Y788941D03*
X-1113089Y783824D03*
X-1118206Y765913D03*
X-1110529Y768471D03*
X-1118207Y760794D03*
X-1124000Y798100D03*
X-1097637Y804200D03*
X-1100292Y768468D03*
X-1115649Y778707D03*
X-1112900Y801550D03*
X-1108157Y807043D03*
X-1107846Y783700D03*
X-1095650Y815050D03*
X-1097600Y799045D03*
X-1110618Y809327D03*
X-1125700Y812200D03*
X-1123227Y804200D03*
X-1092600Y811600D03*
X-1110686Y806700D03*
X-1098100Y815100D03*
X-1105373Y801700D03*
X-1109250Y796350D03*
X-1105173Y796382D03*
X-1105400Y799168D03*
X-1107932Y801700D03*
X-1081079Y819121D03*
X-1105407Y804293D03*
X-1085050Y827050D03*
X-1115468Y799000D03*
X-1115549Y791600D03*
X-1065200Y829400D03*
X-1064600Y835000D03*
X-1049200Y826400D03*
X-1118200Y791700D03*
X-1120300Y794000D03*
X-1117900Y801700D03*
X-1123300Y791400D03*
X-1120200Y796600D03*
X-1077654Y821070D03*
X-1106500Y818800D03*
X-1111700Y818600D03*
X-1089900Y820200D03*
X-1074641Y822759D03*
X-1081800Y821300D03*
X-1081460Y827160D03*
X-1098450Y819950D03*
X-1092300Y820700D03*
X-1059200Y829300D03*
X-1091400Y835600D03*
X-1097700Y827300D03*
X-1083610Y835600D03*
X-1086700Y820100D03*
X-1099100Y835700D03*
X-1076900Y827500D03*
X-1071100Y823000D03*
X-1091400Y827082D03*
X-1066800Y834812D03*
X-1109300Y838200D03*
X-1051200Y829300D03*
X-1122400Y827600D03*
X-1049300Y834100D03*
X-1053250Y833650D03*
X-1106600Y838200D03*
X-1059500Y833500D03*
X-1051300Y834800D03*
X-1122300Y821900D03*
X-1069000Y834900D03*
X-1048500Y823200D03*
X-1044900D03*
X-1128449Y791495D03*
X-1066200Y822900D03*
X-1056500Y823000D03*
X-1108200Y804600D03*
G54D29*
X-1001128Y906831D03*
G54D28*
X-1245298Y689193D03*
G54D31*
X-1241776Y747225D03*
X-1229178D03*
X-1241776Y739351D03*
X-1229178D03*
X-1241776Y729508D03*
X-1235870Y743288D03*
X-1229178Y729508D03*
X-1223272Y743288D03*
X-1235870Y727540D03*
X-1223272D03*
X-1235870Y735414D03*
X-1223272D03*
X-1235870Y751162D03*
X-1223272D03*
X-1235870Y759036D03*
X-1223272D03*
X-1241776Y757068D03*
X-1229178D03*
X-1241776Y817701D03*
X-1229178D03*
X-1241776Y809827D03*
X-1229178D03*
X-1241776Y799984D03*
X-1235870Y813764D03*
X-1229178Y799984D03*
X-1223272Y813764D03*
X-1235870Y798016D03*
X-1223272D03*
X-1235870Y805890D03*
X-1223272D03*
X-1235870Y821638D03*
X-1223272D03*
X-1235870Y829512D03*
X-1223272D03*
X-1241776Y827544D03*
X-1229178D03*
G54D24*
X-1110676Y907822D03*
Y897822D03*
G54D30*
X-1233756Y856260D03*
G54D32*
X-1227288Y769154D03*
X-1249650D03*
Y717422D03*
X-1227288D03*
Y839630D03*
X-1249650D03*
Y787898D03*
X-1227288D03*
G54D23*
X-959780Y857220D03*
X-1188126D03*
%LPD*%
G75*
G54D10*
X-1271350Y655800D03*
Y663792D03*
X-1241350Y659796D03*
G54D20*
G01X-1280646Y662339D02*
G03X-1268835Y650528I11811J0D01*
G01X-1280646Y915189D02*
Y662339D01*
G01X-1268835Y927000D02*
G03X-1280646Y915189I0J-11811D01*
G01X-1268835Y650528D02*
X-957811D01*
G01Y927000D02*
X-1268835D01*
G01X-1182926Y664307D02*
G03I-5200J0D01*
G01Y857220D02*
G03I-5200J0D01*
G01Y913220D02*
G03I-5200J0D01*
G01X-954580Y664307D02*
G03I-5200J0D01*
G01Y857220D02*
G03I-5200J0D01*
G01Y913220D02*
G03I-5200J0D01*
G01X-957811Y650528D02*
G03X-946000Y662339I0J11811D01*
G01Y915189D02*
G03X-957811Y927000I-11811J0D01*
G01X-946000Y662339D02*
Y915189D01*
G54D11*
X-1272857Y689193D03*
X-1245298D03*
G54D21*
G01X-1280646Y662339D02*
Y915189D01*
G02X-1268835Y927000I11811J0D01*
G01X-957811D01*
G02X-946000Y915189I0J-11811D01*
G01Y662339D01*
G02X-957811Y650528I-11811J0D01*
G01X-1268835D01*
G02X-1280646Y662339I0J11811D01*
G54D12*
X-1250000Y799200D03*
X-1249000Y805400D03*
X-1213450Y761650D03*
X-1213150Y773450D03*
X-1197200Y732200D03*
X-1199300Y743000D03*
X-1199400Y753200D03*
X-1199698Y766059D03*
X-1199398Y758382D03*
X-1199698Y771177D03*
X-1199393Y784172D03*
X-1194535Y728700D03*
X-1194500Y730600D03*
X-1189954Y740369D03*
X-1188174Y734500D03*
X-1193000Y750700D03*
X-1189950Y763600D03*
X-1193300Y776300D03*
X-1189954Y786532D03*
X-1186794Y789091D03*
X-1189949Y791650D03*
X-1180372Y740868D03*
X-1174200Y737800D03*
X-1184000Y738200D03*
X-1178100Y732300D03*
X-1184300Y733200D03*
X-1174900Y731500D03*
X-1177300Y748145D03*
X-1180700Y745700D03*
X-1177351Y753264D03*
X-1183654Y750705D03*
X-1183649Y753264D03*
X-1177800Y773600D03*
X-1183649Y773737D03*
Y776295D03*
X-1174206Y789091D03*
X-1180701Y781313D03*
X-1177351Y778854D03*
X-1179300Y801100D03*
X-1176081Y794048D03*
X-1173300Y698400D03*
X-1171056Y737909D03*
X-1172040Y734927D03*
X-1167900Y745700D03*
Y748146D03*
X-1171300Y763700D03*
X-1171056Y789091D03*
X-1167900Y778754D03*
X-1154700Y720500D03*
X-1156372Y745886D03*
X-1161100Y753500D03*
X-1158100Y763750D03*
X-1159400Y773900D03*
X-1161700Y782700D03*
X-1144200Y677700D03*
X-1139800Y723500D03*
X-1144400Y720400D03*
X-1148600D03*
X-1132900Y723700D03*
X-1133574Y735228D03*
X-1133561Y735202D03*
X-1131001Y750558D03*
Y753117D03*
X-1131100Y747900D03*
X-1128443Y765912D03*
X-1128441Y758234D03*
X-1131001Y755676D03*
X-1128444Y760794D03*
X-1128446Y773588D03*
X-1131860Y797560D03*
X-1131500Y793700D03*
X-1131860Y801540D03*
X-1126400Y726300D03*
X-1126500Y724100D03*
X-1124600D03*
X-1123325Y765912D03*
X-1125884D03*
X-1125885Y760794D03*
X-1115649Y776147D03*
X-1115648Y771030D03*
X-1123325Y771032D03*
X-1123326Y776148D03*
X-1123325Y768472D03*
X-1125885D03*
X-1120766Y781265D03*
X-1115648D03*
X-1115649Y788941D03*
X-1123326Y778708D03*
X-1125134Y779564D03*
X-1110000Y709692D03*
X-1107971Y765912D03*
Y771030D03*
X-1105382Y768500D03*
X-1105368Y771369D03*
X-1110529Y771030D03*
X-1107971Y768471D03*
X-1113090Y776148D03*
X-1107970Y778705D03*
X-1110500Y781800D03*
X-1113090Y778707D03*
X-1100292Y765908D03*
X-1100294Y758235D03*
X-1102852Y765912D03*
X-1097734Y758235D03*
Y760795D03*
X-1092616Y763352D03*
X-1100292Y776148D03*
X-1097735D03*
X-1101500Y773500D03*
X-1102853Y768471D03*
X-1092617Y773588D03*
X-1092616Y768470D03*
X-1095175D03*
X-1092300Y788700D03*
X-1092600Y787100D03*
X-1087499Y753118D03*
X-1090059D03*
Y750558D03*
X-1087400Y755577D03*
X-1090059Y760798D03*
X-1090058Y758234D03*
X-1087900Y758000D03*
X-1087500Y776146D03*
X-1089800Y773500D03*
X-1089900Y768800D03*
X-1090058Y788943D03*
X-1090000Y786700D03*
X-1087497Y778708D03*
X-1087300Y783600D03*
X-1069617Y729750D03*
X-1071469Y729675D03*
X-1078600Y727500D03*
X-1076500D03*
X-1079600Y776600D03*
X-1070300Y867500D03*
X-1070900Y869100D03*
X-1066137Y727899D03*
X-1064137Y727901D03*
X-1062140Y727785D03*
X-1064100Y725900D03*
X-1062128Y759800D03*
X-1059000Y772400D03*
X-1056900Y777500D03*
X-1065300Y769200D03*
X-1063050Y787100D03*
X-1059925Y787575D03*
X-1054500Y744450D03*
X-1047444Y748864D03*
X-1050600Y762060D03*
X-1047650Y777514D03*
X-1050600Y792668D03*
X-1047444Y803005D03*
X-1044300Y751714D03*
X-1034846Y764619D03*
X-1037800Y759614D03*
X-1038128Y754782D03*
X-1041200Y762059D03*
X-1034851Y767178D03*
X-1041000Y767100D03*
X-1040600Y787514D03*
X-1034851Y787651D03*
Y790209D03*
X-1041149Y792768D03*
X-1037999Y795227D03*
X-1038000Y809800D03*
X-1042419Y807962D03*
X-1044294Y803005D03*
X-1039200Y822100D03*
X-1035900Y822000D03*
X-1033700Y823100D03*
X-1037600D03*
X-1033582Y829786D03*
X-1033300Y826700D03*
X-1035700Y828600D03*
X-1028031Y740300D03*
X-1025800Y741400D03*
X-1027500Y742000D03*
X-1028546Y754283D03*
X-1031600Y751814D03*
X-1031578Y749092D03*
X-1025600Y743500D03*
X-1025300Y764614D03*
X-1028181Y777457D03*
X-1025400Y790214D03*
X-1028551Y805564D03*
X-1031600Y822300D03*
Y828856D03*
X-1028200Y879000D03*
X-1014150Y758045D03*
X-1018800Y769674D03*
X-1018500Y775814D03*
X-1019102Y785091D03*
Y779973D03*
X-1019107Y797887D03*
X-1011300Y892100D03*
X-1015100Y894100D03*
X-1013200D03*
X-1011300D03*
X-993600Y864750D03*
X-975400Y812700D03*
X-975300Y809900D03*
X-977500Y811000D03*
X-980000Y811800D03*
X-977464Y820100D03*
X-975500Y817500D03*
X-977500Y813300D03*
X-977429Y815610D03*
X-975532Y814974D03*
X-979654Y813897D03*
X-979701Y815867D03*
X-981100Y868800D03*
X-979000Y868600D03*
X-974500Y870400D03*
X-973800Y867400D03*
G54D13*
X-1245764Y864764D03*
Y909764D03*
G54D14*
G01X-1058953Y665555D02*
Y669307D01*
G01D02*
Y673059D01*
G01X-1062705Y669307D02*
X-1058953D01*
G01D02*
X-1055201D01*
G01X-978953Y665555D02*
Y669307D01*
G01D02*
Y673059D01*
G01X-982705Y669307D02*
X-978953D01*
G01D02*
X-975201D01*
X-1173900Y814800D03*
X-1182900Y813091D03*
X-1162100Y763800D03*
X-1163003Y813097D03*
X-1169700Y862200D03*
X-1151600Y907200D03*
X-1148659Y814441D03*
X-1150000Y907200D03*
X-1128400Y799300D03*
Y804200D03*
X-1127087Y867800D03*
X-1127900Y906900D03*
X-1118150Y839550D03*
X-1126100Y906900D03*
X-1028000Y695400D03*
X-1012100Y724500D03*
X-1010400Y724600D03*
X-1010300Y794000D03*
X-1008800Y794200D03*
X-992874Y832800D03*
X-983250Y765850D03*
X-983200Y767400D03*
X-979300Y843600D03*
X-964700Y749191D03*
X-963200Y749100D03*
G54D15*
X-1168953Y659307D03*
Y669307D03*
X-1158953Y659307D03*
X-1148953D03*
X-1158953Y669307D03*
X-1148953D03*
X-1138953Y659307D03*
Y669307D03*
X-1128953Y659307D03*
Y669307D03*
X-1118953Y659307D03*
Y669307D03*
X-1108953Y659307D03*
Y669307D03*
X-1098953Y659307D03*
Y669307D03*
X-1088953Y659307D03*
X-1078953D03*
X-1088953Y669307D03*
X-1078953D03*
X-1068953Y659307D03*
Y669307D03*
X-1058953Y659307D03*
Y669307D03*
X-1048953Y659307D03*
Y669307D03*
X-1038953Y659307D03*
Y669307D03*
X-1028953Y659307D03*
Y669307D03*
X-1018953Y659307D03*
X-1008953D03*
X-1018953Y669307D03*
X-1008953D03*
X-998953Y659307D03*
Y669307D03*
X-988953Y659307D03*
Y669307D03*
X-978953Y659307D03*
Y669307D03*
G54D16*
X-1110676Y897822D03*
Y907822D03*
G54D17*
Y917822D03*
G54D18*
X-1001128Y906831D03*
X-978372D03*
G54D19*
X-963561Y778392D03*
Y809888D03*
M02*
