G04 ================== begin FILE IDENTIFICATION RECORD ==================*
G04 Layout Name:  BeagleV_15.brd*
G04 Film Name:    paste_top*
G04 File Format:  Gerber RS274X*
G04 File Origin:  Cadence Allegro 17.2-061*
G04 Origin Date:  Wed Apr 21 13:44:33 2021*
G04 *
G04 Layer:  PIN/PASTEMASK_TOP*
G04 Layer:  PACKAGE GEOMETRY/PASTEMASK_TOP*
G04 Layer:  BOARD GEOMETRY/OUTLINE*
G04 *
G04 Offset:    (0.00 0.00)*
G04 Mirror:    No*
G04 Mode:      Positive*
G04 Rotation:  0*
G04 FullContactRelief:  No*
G04 UndefLineWidth:     4.00*
G04 ================== end FILE IDENTIFICATION RECORD ====================*
%FSLAX25Y25*MOIN*%
%IR0*IPPOS*OFA0.00000B0.00000*MIA0B0*SFA1.00000B1.00000*%
%AMMACRO74*
4,1,44,-.03149,.00492,
-.03149,-.00492,
-.031465,-.005262,
-.031376,-.005594,
-.031231,-.005905,
-.031034,-.006186,
-.030791,-.006429,
-.03051,-.006626,
-.030199,-.006771,
-.029867,-.00686,
-.029525,-.00689,
-.02952,-.00689,
.02952,-.00689,
.029862,-.006861,
.030194,-.006773,
.030506,-.006629,
.030787,-.006432,
.031031,-.00619,
.031229,-.005909,
.031374,-.005598,
.031464,-.005267,
.031495,-.004925,
.03149,-.00492,
.03149,.00492,
.031465,.005262,
.031376,.005594,
.031231,.005905,
.031034,.006186,
.030791,.006429,
.03051,.006626,
.030199,.006771,
.029867,.00686,
.029525,.00689,
.02952,.00689,
-.02952,.00689,
-.029862,.006861,
-.030194,.006773,
-.030506,.006629,
-.030787,.006432,
-.031031,.00619,
-.031229,.005909,
-.031374,.005598,
-.031464,.005267,
-.031495,.004925,
-.03149,.00492,
0.0*
%
%ADD74MACRO74*%
%AMMACRO68*
4,1,44,-.00295,-.04921,
.00295,-.04921,
.003292,-.049185,
.003624,-.049096,
.003935,-.048951,
.004216,-.048754,
.004459,-.048511,
.004656,-.04823,
.004801,-.047919,
.00489,-.047587,
.00492,-.047245,
.00492,-.04724,
.00492,.04724,
.004891,.047582,
.004803,.047914,
.004659,.048226,
.004462,.048507,
.00422,.048751,
.003939,.048949,
.003628,.049094,
.003297,.049184,
.002955,.049215,
.00295,.04921,
-.00295,.04921,
-.003292,.049185,
-.003624,.049096,
-.003935,.048951,
-.004216,.048754,
-.004459,.048511,
-.004656,.04823,
-.004801,.047919,
-.00489,.047587,
-.00492,.047245,
-.00492,.04724,
-.00492,-.04724,
-.004891,-.047582,
-.004803,-.047914,
-.004659,-.048226,
-.004462,-.048507,
-.00422,-.048751,
-.003939,-.048949,
-.003628,-.049094,
-.003297,-.049184,
-.002955,-.049215,
-.00295,-.04921,
0.0*
%
%ADD68MACRO68*%
%AMMACRO67*
4,1,44,-.02953,.00787,
-.02953,-.00787,
-.029501,-.008212,
-.029413,-.008544,
-.029269,-.008856,
-.029072,-.009137,
-.02883,-.009381,
-.028549,-.009579,
-.028238,-.009724,
-.027907,-.009814,
-.027565,-.009845,
-.02756,-.00984,
.02756,-.00984,
.027902,-.009815,
.028234,-.009726,
.028545,-.009581,
.028826,-.009384,
.029069,-.009141,
.029266,-.00886,
.029411,-.008549,
.0295,-.008217,
.02953,-.007875,
.02953,-.00787,
.02953,.00787,
.029501,.008212,
.029413,.008544,
.029269,.008856,
.029072,.009137,
.02883,.009381,
.028549,.009579,
.028238,.009724,
.027907,.009814,
.027565,.009845,
.02756,.00984,
-.02756,.00984,
-.027902,.009815,
-.028234,.009726,
-.028545,.009581,
-.028826,.009384,
-.029069,.009141,
-.029266,.00886,
-.029411,.008549,
-.0295,.008217,
-.02953,.007875,
-.02953,.00787,
0.0*
%
%ADD67MACRO67*%
%AMMACRO40*
4,1,44,.04921,-.00295,
.04921,.00295,
.049185,.003292,
.049096,.003624,
.048951,.003935,
.048754,.004216,
.048511,.004459,
.04823,.004656,
.047919,.004801,
.047587,.00489,
.047245,.00492,
.04724,.00492,
-.04724,.00492,
-.047582,.004891,
-.047914,.004803,
-.048226,.004659,
-.048507,.004462,
-.048751,.00422,
-.048949,.003939,
-.049094,.003628,
-.049184,.003297,
-.049215,.002955,
-.04921,.00295,
-.04921,-.00295,
-.049185,-.003292,
-.049096,-.003624,
-.048951,-.003935,
-.048754,-.004216,
-.048511,-.004459,
-.04823,-.004656,
-.047919,-.004801,
-.047587,-.00489,
-.047245,-.00492,
-.04724,-.00492,
.04724,-.00492,
.047582,-.004891,
.047914,-.004803,
.048226,-.004659,
.048507,-.004462,
.048751,-.00422,
.048949,-.003939,
.049094,-.003628,
.049184,-.003297,
.049215,-.002955,
.04921,-.00295,
0.0*
%
%ADD40MACRO40*%
%AMMACRO14*
4,1,44,-.00984,.00787,
-.00984,-.00787,
-.009816,-.008212,
-.009728,-.008544,
-.009584,-.008856,
-.009387,-.009137,
-.009145,-.009381,
-.008864,-.009579,
-.008553,-.009724,
-.008222,-.009814,
-.00788,-.009845,
-.00787,-.00984,
.00787,-.00984,
.008212,-.009816,
.008544,-.009728,
.008856,-.009584,
.009137,-.009387,
.009381,-.009145,
.009579,-.008864,
.009724,-.008553,
.009814,-.008222,
.009845,-.00788,
.00984,-.00787,
.00984,.00787,
.009816,.008212,
.009728,.008544,
.009584,.008856,
.009387,.009137,
.009145,.009381,
.008864,.009579,
.008553,.009724,
.008222,.009814,
.00788,.009845,
.00787,.00984,
-.00787,.00984,
-.008212,.009816,
-.008544,.009728,
-.008856,.009584,
-.009137,.009387,
-.009381,.009145,
-.009579,.008864,
-.009724,.008553,
-.009814,.008222,
-.009845,.00788,
-.00984,.00787,
0.0*
%
%ADD14MACRO14*%
%AMMACRO13*
4,1,44,.00787,.00984,
-.00787,.00984,
-.008212,.009816,
-.008544,.009728,
-.008856,.009584,
-.009137,.009387,
-.009381,.009145,
-.009579,.008864,
-.009724,.008553,
-.009814,.008222,
-.009845,.00788,
-.00984,.00787,
-.00984,-.00787,
-.009816,-.008212,
-.009728,-.008544,
-.009584,-.008856,
-.009387,-.009137,
-.009145,-.009381,
-.008864,-.009579,
-.008553,-.009724,
-.008222,-.009814,
-.00788,-.009845,
-.00787,-.00984,
.00787,-.00984,
.008212,-.009816,
.008544,-.009728,
.008856,-.009584,
.009137,-.009387,
.009381,-.009145,
.009579,-.008864,
.009724,-.008553,
.009814,-.008222,
.009845,-.00788,
.00984,-.00787,
.00984,.00787,
.009816,.008212,
.009728,.008544,
.009584,.008856,
.009387,.009137,
.009145,.009381,
.008864,.009579,
.008553,.009724,
.008222,.009814,
.00788,.009845,
.00787,.00984,
0.0*
%
%ADD13MACRO13*%
%AMMACRO58*
4,1,40,.0315,.03937,
-.0315,.03937,
-.032867,.03925,
-.034192,.038895,
-.035435,.038316,
-.036559,.037529,
-.037529,.036559,
-.038316,.035435,
-.038895,.034192,
-.03925,.032867,
-.03937,.0315,
-.03937,-.0315,
-.03925,-.032867,
-.038895,-.034192,
-.038316,-.035435,
-.037529,-.036559,
-.036559,-.037529,
-.035435,-.038316,
-.034192,-.038895,
-.032867,-.03925,
-.0315,-.03937,
.0315,-.03937,
.032867,-.03925,
.034192,-.038895,
.035435,-.038316,
.036559,-.037529,
.037529,-.036559,
.038316,-.035435,
.038895,-.034192,
.03925,-.032867,
.03937,-.0315,
.03937,.0315,
.03925,.032867,
.038895,.034192,
.038316,.035435,
.037529,.036559,
.036559,.037529,
.035435,.038316,
.034192,.038895,
.032867,.03925,
.0315,.03937,
0.0*
%
%ADD58MACRO58*%
%ADD20C,.012*%
%AMMACRO38*
4,1,40,-.01606,-.0275,
.01606,-.0275,
.016744,-.02744,
.017408,-.027262,
.01803,-.026972,
.018593,-.026578,
.019078,-.026093,
.019472,-.02553,
.019762,-.024908,
.01994,-.024244,
.02,-.02356,
.02,.02356,
.01994,.024244,
.019762,.024908,
.019472,.02553,
.019078,.026093,
.018593,.026578,
.01803,.026972,
.017408,.027262,
.016744,.02744,
.01606,.0275,
-.01606,.0275,
-.016744,.02744,
-.017408,.027262,
-.01803,.026972,
-.018593,.026578,
-.019078,.026093,
-.019472,.02553,
-.019762,.024908,
-.01994,.024244,
-.02,.02356,
-.02,-.02356,
-.01994,-.024244,
-.019762,-.024908,
-.019472,-.02553,
-.019078,-.026093,
-.018593,-.026578,
-.01803,-.026972,
-.017408,-.027262,
-.016744,-.02744,
-.01606,-.0275,
0.0*
%
%ADD38MACRO38*%
%ADD16C,.01024*%
%AMMACRO53*
4,1,40,-.01356,-.0175,
.01356,-.0175,
.014244,-.01744,
.014908,-.017262,
.01553,-.016972,
.016093,-.016578,
.016578,-.016093,
.016972,-.01553,
.017262,-.014908,
.01744,-.014244,
.0175,-.01356,
.0175,.01356,
.01744,.014244,
.017262,.014908,
.016972,.01553,
.016578,.016093,
.016093,.016578,
.01553,.016972,
.014908,.017262,
.014244,.01744,
.01356,.0175,
-.01356,.0175,
-.014244,.01744,
-.014908,.017262,
-.01553,.016972,
-.016093,.016578,
-.016578,.016093,
-.016972,.01553,
-.017262,.014908,
-.01744,.014244,
-.0175,.01356,
-.0175,-.01356,
-.01744,-.014244,
-.017262,-.014908,
-.016972,-.01553,
-.016578,-.016093,
-.016093,-.016578,
-.01553,-.016972,
-.014908,-.017262,
-.014244,-.01744,
-.01356,-.0175,
0.0*
%
%ADD53MACRO53*%
%AMMACRO37*
4,1,40,.0175,-.01356,
.0175,.01356,
.01744,.014244,
.017262,.014908,
.016972,.01553,
.016578,.016093,
.016093,.016578,
.01553,.016972,
.014908,.017262,
.014244,.01744,
.01356,.0175,
-.01356,.0175,
-.014244,.01744,
-.014908,.017262,
-.01553,.016972,
-.016093,.016578,
-.016578,.016093,
-.016972,.01553,
-.017262,.014908,
-.01744,.014244,
-.0175,.01356,
-.0175,-.01356,
-.01744,-.014244,
-.017262,-.014908,
-.016972,-.01553,
-.016578,-.016093,
-.016093,-.016578,
-.01553,-.016972,
-.014908,-.017262,
-.014244,-.01744,
-.01356,-.0175,
.01356,-.0175,
.014244,-.01744,
.014908,-.017262,
.01553,-.016972,
.016093,-.016578,
.016578,-.016093,
.016972,-.01553,
.017262,-.014908,
.01744,-.014244,
.0175,-.01356,
0.0*
%
%ADD37MACRO37*%
%AMMACRO69*
4,1,40,-.00433,-.0063,
.00433,-.0063,
.004672,-.00627,
.005004,-.006181,
.005315,-.006036,
.005596,-.005839,
.005839,-.005596,
.006036,-.005315,
.006181,-.005004,
.00627,-.004672,
.0063,-.00433,
.0063,.00433,
.00627,.004672,
.006181,.005004,
.006036,.005315,
.005839,.005596,
.005596,.005839,
.005315,.006036,
.005004,.006181,
.004672,.00627,
.00433,.0063,
-.00433,.0063,
-.004672,.00627,
-.005004,.006181,
-.005315,.006036,
-.005596,.005839,
-.005839,.005596,
-.006036,.005315,
-.006181,.005004,
-.00627,.004672,
-.0063,.00433,
-.0063,-.00433,
-.00627,-.004672,
-.006181,-.005004,
-.006036,-.005315,
-.005839,-.005596,
-.005596,-.005839,
-.005315,-.006036,
-.005004,-.006181,
-.004672,-.00627,
-.00433,-.0063,
0.0*
%
%ADD69MACRO69*%
%ADD66R,.04X.04*%
%AMMACRO41*
4,1,40,.0063,-.00433,
.0063,.00433,
.00627,.004672,
.006181,.005004,
.006036,.005315,
.005839,.005596,
.005596,.005839,
.005315,.006036,
.005004,.006181,
.004672,.00627,
.00433,.0063,
-.00433,.0063,
-.004672,.00627,
-.005004,.006181,
-.005315,.006036,
-.005596,.005839,
-.005839,.005596,
-.006036,.005315,
-.006181,.005004,
-.00627,.004672,
-.0063,.00433,
-.0063,-.00433,
-.00627,-.004672,
-.006181,-.005004,
-.006036,-.005315,
-.005839,-.005596,
-.005596,-.005839,
-.005315,-.006036,
-.005004,-.006181,
-.004672,-.00627,
-.00433,-.0063,
.00433,-.0063,
.004672,-.00627,
.005004,-.006181,
.005315,-.006036,
.005596,-.005839,
.005839,-.005596,
.006036,-.005315,
.006181,-.005004,
.00627,-.004672,
.0063,-.00433,
0.0*
%
%ADD41MACRO41*%
%ADD10C,.03504*%
%ADD54C,.02362*%
%ADD32O,.05906X.11811*%
%AMMACRO25*
4,1,44,-.01574,-.01575,
.01574,-.01575,
.016424,-.015691,
.017088,-.015514,
.017711,-.015225,
.018274,-.014831,
.01876,-.014346,
.019155,-.013784,
.019446,-.013162,
.019624,-.012499,
.019685,-.011815,
.01968,-.01181,
.01968,.01181,
.019625,.012494,
.019447,.013158,
.019157,.01378,
.018763,.014343,
.018278,.014828,
.017715,.015222,
.017093,.015512,
.016429,.01569,
.015745,.01575,
.01574,.01575,
-.01574,.01575,
-.016424,.015691,
-.017088,.015514,
-.017711,.015225,
-.018274,.014831,
-.01876,.014346,
-.019155,.013784,
-.019446,.013162,
-.019624,.012499,
-.019685,.011815,
-.01968,.01181,
-.01968,-.01181,
-.019625,-.012494,
-.019447,-.013158,
-.019157,-.01378,
-.018763,-.014343,
-.018278,-.014828,
-.017715,-.015222,
-.017093,-.015512,
-.016429,-.01569,
-.015745,-.01575,
-.01574,-.01575,
0.0*
%
%ADD25MACRO25*%
%AMMACRO77*
4,1,44,-.0059,-.01181,
.0059,-.01181,
.006242,-.011781,
.006574,-.011693,
.006886,-.011549,
.007167,-.011352,
.007411,-.01111,
.007609,-.010829,
.007754,-.010518,
.007844,-.010187,
.007875,-.009845,
.00787,-.00984,
.00787,.00984,
.007845,.010182,
.007756,.010514,
.007611,.010825,
.007414,.011106,
.007171,.011349,
.00689,.011546,
.006579,.011691,
.006247,.01178,
.005905,.01181,
.0059,.01181,
-.0059,.01181,
-.006242,.011781,
-.006574,.011693,
-.006886,.011549,
-.007167,.011352,
-.007411,.01111,
-.007609,.010829,
-.007754,.010518,
-.007844,.010187,
-.007875,.009845,
-.00787,.00984,
-.00787,-.00984,
-.007845,-.010182,
-.007756,-.010514,
-.007611,-.010825,
-.007414,-.011106,
-.007171,-.011349,
-.00689,-.011546,
-.006579,-.011691,
-.006247,-.01178,
-.005905,-.01181,
-.0059,-.01181,
0.0*
%
%ADD77MACRO77*%
%AMMACRO28*
4,1,44,.01378,-.00393,
.01378,.00393,
.013751,.004272,
.013663,.004604,
.013519,.004916,
.013322,.005197,
.01308,.005441,
.012799,.005639,
.012488,.005784,
.012157,.005874,
.011815,.005905,
.01181,.0059,
-.01181,.0059,
-.012152,.005875,
-.012484,.005786,
-.012795,.005641,
-.013076,.005444,
-.013319,.005201,
-.013516,.00492,
-.013661,.004609,
-.01375,.004277,
-.01378,.003935,
-.01378,.00393,
-.01378,-.00393,
-.013751,-.004272,
-.013663,-.004604,
-.013519,-.004916,
-.013322,-.005197,
-.01308,-.005441,
-.012799,-.005639,
-.012488,-.005784,
-.012157,-.005874,
-.011815,-.005905,
-.01181,-.0059,
.01181,-.0059,
.012152,-.005875,
.012484,-.005786,
.012795,-.005641,
.013076,-.005444,
.013319,-.005201,
.013516,-.00492,
.013661,-.004609,
.01375,-.004277,
.01378,-.003935,
.01378,-.00393,
0.0*
%
%ADD28MACRO28*%
%ADD18R,.02362X.00984*%
%ADD17R,.00984X.02362*%
%ADD31O,.06693X.13386*%
%AMMACRO47*
4,1,44,-.01575,.00196,
-.01575,-.00196,
-.015721,-.002302,
-.015633,-.002634,
-.015489,-.002946,
-.015292,-.003227,
-.01505,-.003471,
-.014769,-.003669,
-.014458,-.003814,
-.014127,-.003904,
-.013785,-.003935,
-.01378,-.00393,
.01378,-.00393,
.014122,-.003905,
.014454,-.003816,
.014765,-.003671,
.015046,-.003474,
.015289,-.003231,
.015486,-.00295,
.015631,-.002639,
.01572,-.002307,
.01575,-.001965,
.01575,-.00196,
.01575,.00196,
.015721,.002302,
.015633,.002634,
.015489,.002946,
.015292,.003227,
.01505,.003471,
.014769,.003669,
.014458,.003814,
.014127,.003904,
.013785,.003935,
.01378,.00393,
-.01378,.00393,
-.014122,.003905,
-.014454,.003816,
-.014765,.003671,
-.015046,.003474,
-.015289,.003231,
-.015486,.00295,
-.015631,.002639,
-.01572,.002307,
-.01575,.001965,
-.01575,.00196,
0.0*
%
%ADD47MACRO47*%
%AMMACRO51*
4,1,40,.01477,.05118,
-.01477,.05118,
-.016137,.05106,
-.017462,.050705,
-.018705,.050126,
-.019829,.049339,
-.020799,.048369,
-.021586,.047245,
-.022165,.046002,
-.02252,.044677,
-.02264,.04331,
-.02264,-.04331,
-.02252,-.044677,
-.022165,-.046002,
-.021586,-.047245,
-.020799,-.048369,
-.019829,-.049339,
-.018705,-.050126,
-.017462,-.050705,
-.016137,-.05106,
-.01477,-.05118,
.01477,-.05118,
.016137,-.05106,
.017462,-.050705,
.018705,-.050126,
.019829,-.049339,
.020799,-.048369,
.021586,-.047245,
.022165,-.046002,
.02252,-.044677,
.02264,-.04331,
.02264,.04331,
.02252,.044677,
.022165,.046002,
.021586,.047245,
.020799,.048369,
.019829,.049339,
.018705,.050126,
.017462,.050705,
.016137,.05106,
.01477,.05118,
0.0*
%
%ADD51MACRO51*%
%AMMACRO49*
4,1,44,.00196,.01575,
-.00196,.01575,
-.002302,.015721,
-.002634,.015633,
-.002946,.015489,
-.003227,.015292,
-.003471,.01505,
-.003669,.014769,
-.003814,.014458,
-.003904,.014127,
-.003935,.013785,
-.00393,.01378,
-.00393,-.01378,
-.003905,-.014122,
-.003816,-.014454,
-.003671,-.014765,
-.003474,-.015046,
-.003231,-.015289,
-.00295,-.015486,
-.002639,-.015631,
-.002307,-.01572,
-.001965,-.01575,
-.00196,-.01575,
.00196,-.01575,
.002302,-.015721,
.002634,-.015633,
.002946,-.015489,
.003227,-.015292,
.003471,-.01505,
.003669,-.014769,
.003814,-.014458,
.003904,-.014127,
.003935,-.013785,
.00393,-.01378,
.00393,.01378,
.003905,.014122,
.003816,.014454,
.003671,.014765,
.003474,.015046,
.003231,.015289,
.00295,.015486,
.002639,.015631,
.002307,.01572,
.001965,.01575,
.00196,.01575,
0.0*
%
%ADD49MACRO49*%
%AMMACRO76*
4,1,44,-.00787,-.01181,
.00787,-.01181,
.008212,-.011781,
.008544,-.011693,
.008856,-.011549,
.009137,-.011352,
.009381,-.01111,
.009579,-.010829,
.009724,-.010518,
.009814,-.010187,
.009845,-.009845,
.00984,-.00984,
.00984,.00984,
.009815,.010182,
.009726,.010514,
.009581,.010825,
.009384,.011106,
.009141,.011349,
.00886,.011546,
.008549,.011691,
.008217,.01178,
.007875,.01181,
.00787,.01181,
-.00787,.01181,
-.008212,.011781,
-.008544,.011693,
-.008856,.011549,
-.009137,.011352,
-.009381,.01111,
-.009579,.010829,
-.009724,.010518,
-.009814,.010187,
-.009845,.009845,
-.00984,.00984,
-.00984,-.00984,
-.009815,-.010182,
-.009726,-.010514,
-.009581,-.010825,
-.009384,-.011106,
-.009141,-.011349,
-.00886,-.011546,
-.008549,-.011691,
-.008217,-.01178,
-.007875,-.01181,
-.00787,-.01181,
0.0*
%
%ADD76MACRO76*%
%AMMACRO71*
4,1,44,-.0059,-.01378,
.0059,-.01378,
.006242,-.013751,
.006574,-.013663,
.006886,-.013519,
.007167,-.013322,
.007411,-.01308,
.007609,-.012799,
.007754,-.012488,
.007844,-.012157,
.007875,-.011815,
.00787,-.01181,
.00787,.01181,
.007845,.012152,
.007756,.012484,
.007611,.012795,
.007414,.013076,
.007171,.013319,
.00689,.013516,
.006579,.013661,
.006247,.01375,
.005905,.01378,
.0059,.01378,
-.0059,.01378,
-.006242,.013751,
-.006574,.013663,
-.006886,.013519,
-.007167,.013322,
-.007411,.01308,
-.007609,.012799,
-.007754,.012488,
-.007844,.012157,
-.007875,.011815,
-.00787,.01181,
-.00787,-.01181,
-.007845,-.012152,
-.007756,-.012484,
-.007611,-.012795,
-.007414,-.013076,
-.007171,-.013319,
-.00689,-.013516,
-.006579,-.013661,
-.006247,-.01375,
-.005905,-.01378,
-.0059,-.01378,
0.0*
%
%ADD71MACRO71*%
%AMMACRO43*
4,1,44,.01378,-.0059,
.01378,.0059,
.013751,.006242,
.013663,.006574,
.013519,.006886,
.013322,.007167,
.01308,.007411,
.012799,.007609,
.012488,.007754,
.012157,.007844,
.011815,.007875,
.01181,.00787,
-.01181,.00787,
-.012152,.007845,
-.012484,.007756,
-.012795,.007611,
-.013076,.007414,
-.013319,.007171,
-.013516,.00689,
-.013661,.006579,
-.01375,.006247,
-.01378,.005905,
-.01378,.0059,
-.01378,-.0059,
-.013751,-.006242,
-.013663,-.006574,
-.013519,-.006886,
-.013322,-.007167,
-.01308,-.007411,
-.012799,-.007609,
-.012488,-.007754,
-.012157,-.007844,
-.011815,-.007875,
-.01181,-.00787,
.01181,-.00787,
.012152,-.007845,
.012484,-.007756,
.012795,-.007611,
.013076,-.007414,
.013319,-.007171,
.013516,-.00689,
.013661,-.006579,
.01375,-.006247,
.01378,-.005905,
.01378,-.0059,
0.0*
%
%ADD43MACRO43*%
%ADD35O,.00787X.02756*%
%AMMACRO73*
4,1,44,.01279,-.00492,
.01279,.00492,
.012765,.005262,
.012676,.005594,
.012531,.005905,
.012334,.006186,
.012091,.006429,
.01181,.006626,
.011499,.006771,
.011167,.00686,
.010825,.00689,
.01082,.00689,
-.01082,.00689,
-.011162,.006861,
-.011494,.006773,
-.011806,.006629,
-.012087,.006432,
-.012331,.00619,
-.012529,.005909,
-.012674,.005598,
-.012764,.005267,
-.012795,.004925,
-.01279,.00492,
-.01279,-.00492,
-.012765,-.005262,
-.012676,-.005594,
-.012531,-.005905,
-.012334,-.006186,
-.012091,-.006429,
-.01181,-.006626,
-.011499,-.006771,
-.011167,-.00686,
-.010825,-.00689,
-.01082,-.00689,
.01082,-.00689,
.011162,-.006861,
.011494,-.006773,
.011806,-.006629,
.012087,-.006432,
.012331,-.00619,
.012529,-.005909,
.012674,-.005598,
.012764,-.005267,
.012795,-.004925,
.01279,-.00492,
0.0*
%
%ADD73MACRO73*%
%AMMACRO26*
4,1,44,.02953,-.00787,
.02953,.00787,
.029501,.008212,
.029413,.008544,
.029269,.008856,
.029072,.009137,
.02883,.009381,
.028549,.009579,
.028238,.009724,
.027907,.009814,
.027565,.009845,
.02756,.00984,
-.02756,.00984,
-.027902,.009815,
-.028234,.009726,
-.028545,.009581,
-.028826,.009384,
-.029069,.009141,
-.029266,.00886,
-.029411,.008549,
-.0295,.008217,
-.02953,.007875,
-.02953,.00787,
-.02953,-.00787,
-.029501,-.008212,
-.029413,-.008544,
-.029269,-.008856,
-.029072,-.009137,
-.02883,-.009381,
-.028549,-.009579,
-.028238,-.009724,
-.027907,-.009814,
-.027565,-.009845,
-.02756,-.00984,
.02756,-.00984,
.027902,-.009815,
.028234,-.009726,
.028545,-.009581,
.028826,-.009384,
.029069,-.009141,
.029266,-.00886,
.029411,-.008549,
.0295,-.008217,
.02953,-.007875,
.02953,-.00787,
0.0*
%
%ADD26MACRO26*%
%ADD19R,.2X.2*%
%AMMACRO15*
4,1,40,-.00625,.0035,
-.00625,-.0035,
-.00622,-.003847,
-.006129,-.004184,
-.005982,-.0045,
-.005782,-.004786,
-.005536,-.005032,
-.00525,-.005232,
-.004934,-.005379,
-.004597,-.00547,
-.00425,-.0055,
.00425,-.0055,
.004597,-.00547,
.004934,-.005379,
.00525,-.005232,
.005536,-.005032,
.005782,-.004786,
.005982,-.0045,
.006129,-.004184,
.00622,-.003847,
.00625,-.0035,
.00625,.0035,
.00622,.003847,
.006129,.004184,
.005982,.0045,
.005782,.004786,
.005536,.005032,
.00525,.005232,
.004934,.005379,
.004597,.00547,
.00425,.0055,
-.00425,.0055,
-.004597,.00547,
-.004934,.005379,
-.00525,.005232,
-.005536,.005032,
-.005782,.004786,
-.005982,.0045,
-.006129,.004184,
-.00622,.003847,
-.00625,.0035,
0.0*
%
%ADD15MACRO15*%
%AMMACRO22*
4,1,40,.0035,.00625,
-.0035,.00625,
-.003847,.00622,
-.004184,.006129,
-.0045,.005982,
-.004786,.005782,
-.005032,.005536,
-.005232,.00525,
-.005379,.004934,
-.00547,.004597,
-.0055,.00425,
-.0055,-.00425,
-.00547,-.004597,
-.005379,-.004934,
-.005232,-.00525,
-.005032,-.005536,
-.004786,-.005782,
-.0045,-.005982,
-.004184,-.006129,
-.003847,-.00622,
-.0035,-.00625,
.0035,-.00625,
.003847,-.00622,
.004184,-.006129,
.0045,-.005982,
.004786,-.005782,
.005032,-.005536,
.005232,-.00525,
.005379,-.004934,
.00547,-.004597,
.0055,-.00425,
.0055,.00425,
.00547,.004597,
.005379,.004934,
.005232,.00525,
.005032,.005536,
.004786,.005782,
.0045,.005982,
.004184,.006129,
.003847,.00622,
.0035,.00625,
0.0*
%
%ADD22MACRO22*%
%AMMACRO21*
4,1,44,.00984,-.00787,
.00984,.00787,
.009816,.008212,
.009728,.008544,
.009584,.008856,
.009387,.009137,
.009145,.009381,
.008864,.009579,
.008553,.009724,
.008222,.009814,
.00788,.009845,
.00787,.00984,
-.00787,.00984,
-.008212,.009816,
-.008544,.009728,
-.008856,.009584,
-.009137,.009387,
-.009381,.009145,
-.009579,.008864,
-.009724,.008553,
-.009814,.008222,
-.009845,.00788,
-.00984,.00787,
-.00984,-.00787,
-.009816,-.008212,
-.009728,-.008544,
-.009584,-.008856,
-.009387,-.009137,
-.009145,-.009381,
-.008864,-.009579,
-.008553,-.009724,
-.008222,-.009814,
-.00788,-.009845,
-.00787,-.00984,
.00787,-.00984,
.008212,-.009816,
.008544,-.009728,
.008856,-.009584,
.009137,-.009387,
.009381,-.009145,
.009579,-.008864,
.009724,-.008553,
.009814,-.008222,
.009845,-.00788,
.00984,-.00787,
0.0*
%
%ADD21MACRO21*%
%AMMACRO12*
4,1,44,-.00787,-.00984,
.00787,-.00984,
.008212,-.009816,
.008544,-.009728,
.008856,-.009584,
.009137,-.009387,
.009381,-.009145,
.009579,-.008864,
.009724,-.008553,
.009814,-.008222,
.009845,-.00788,
.00984,-.00787,
.00984,.00787,
.009816,.008212,
.009728,.008544,
.009584,.008856,
.009387,.009137,
.009145,.009381,
.008864,.009579,
.008553,.009724,
.008222,.009814,
.00788,.009845,
.00787,.00984,
-.00787,.00984,
-.008212,.009816,
-.008544,.009728,
-.008856,.009584,
-.009137,.009387,
-.009381,.009145,
-.009579,.008864,
-.009724,.008553,
-.009814,.008222,
-.009845,.00788,
-.00984,.00787,
-.00984,-.00787,
-.009816,-.008212,
-.009728,-.008544,
-.009584,-.008856,
-.009387,-.009137,
-.009145,-.009381,
-.008864,-.009579,
-.008553,-.009724,
-.008222,-.009814,
-.00788,-.009845,
-.00787,-.00984,
0.0*
%
%ADD12MACRO12*%
%ADD75R,.03X.04*%
%ADD59O,.025X.05*%
%ADD27R,.052X.042*%
%ADD44R,.056X.032*%
%AMMACRO48*
4,1,44,-.10039,-.1122,
.10039,-.1122,
.102441,-.112026,
.10443,-.111494,
.106296,-.110625,
.107982,-.109445,
.109439,-.10799,
.11062,-.106304,
.111491,-.104439,
.112025,-.102451,
.112205,-.1004,
.1122,-.10039,
.1122,.10039,
.112026,.102441,
.111494,.10443,
.110625,.106296,
.109445,.107982,
.10799,.109439,
.106304,.11062,
.104439,.111491,
.102451,.112025,
.1004,.112205,
.10039,.1122,
-.10039,.1122,
-.102441,.112026,
-.10443,.111494,
-.106296,.110625,
-.107982,.109445,
-.109439,.10799,
-.11062,.106304,
-.111491,.104439,
-.112025,.102451,
-.112205,.1004,
-.1122,.10039,
-.1122,-.10039,
-.112026,-.102441,
-.111494,-.10443,
-.110625,-.106296,
-.109445,-.107982,
-.10799,-.109439,
-.106304,-.11062,
-.104439,-.111491,
-.102451,-.112025,
-.1004,-.112205,
-.10039,-.1122,
0.0*
%
%ADD48MACRO48*%
%ADD24R,.032X.056*%
%AMMACRO72*
4,1,40,.01606,.0225,
-.01606,.0225,
-.016744,.02244,
-.017408,.022262,
-.01803,.021972,
-.018593,.021578,
-.019078,.021093,
-.019472,.02053,
-.019762,.019908,
-.01994,.019244,
-.02,.01856,
-.02,-.01856,
-.01994,-.019244,
-.019762,-.019908,
-.019472,-.02053,
-.019078,-.021093,
-.018593,-.021578,
-.01803,-.021972,
-.017408,-.022262,
-.016744,-.02244,
-.01606,-.0225,
.01606,-.0225,
.016744,-.02244,
.017408,-.022262,
.01803,-.021972,
.018593,-.021578,
.019078,-.021093,
.019472,-.02053,
.019762,-.019908,
.01994,-.019244,
.02,-.01856,
.02,.01856,
.01994,.019244,
.019762,.019908,
.019472,.02053,
.019078,.021093,
.018593,.021578,
.01803,.021972,
.017408,.022262,
.016744,.02244,
.01606,.0225,
0.0*
%
%ADD72MACRO72*%
%ADD65R,.04X.088*%
%ADD60R,.165X.138*%
%AMMACRO70*
4,1,6,.00645,.00169,
.00645,.0261,
.01795,.0261,
.01795,-.0261,
-.01795,-.0261,
-.01795,.00169,
.00645,.00169,
0.0*
%
%ADD70MACRO70*%
%AMMACRO42*
4,1,6,-.00169,.00645,
-.0261,.00645,
-.0261,.01795,
.0261,.01795,
.0261,-.01795,
-.00169,-.01795,
-.00169,.00645,
0.0*
%
%ADD42MACRO42*%
%AMMACRO55*
4,1,40,.01356,.0175,
-.01356,.0175,
-.014244,.01744,
-.014908,.017262,
-.01553,.016972,
-.016093,.016578,
-.016578,.016093,
-.016972,.01553,
-.017262,.014908,
-.01744,.014244,
-.0175,.01356,
-.0175,-.01356,
-.01744,-.014244,
-.017262,-.014908,
-.016972,-.01553,
-.016578,-.016093,
-.016093,-.016578,
-.01553,-.016972,
-.014908,-.017262,
-.014244,-.01744,
-.01356,-.0175,
.01356,-.0175,
.014244,-.01744,
.014908,-.017262,
.01553,-.016972,
.016093,-.016578,
.016578,-.016093,
.016972,-.01553,
.017262,-.014908,
.01744,-.014244,
.0175,-.01356,
.0175,.01356,
.01744,.014244,
.017262,.014908,
.016972,.01553,
.016578,.016093,
.016093,.016578,
.01553,.016972,
.014908,.017262,
.014244,.01744,
.01356,.0175,
0.0*
%
%ADD55MACRO55*%
%AMMACRO33*
4,1,44,-.00393,-.05118,
.00393,-.05118,
.004272,-.051151,
.004604,-.051063,
.004916,-.050919,
.005197,-.050722,
.005441,-.05048,
.005639,-.050199,
.005784,-.049888,
.005874,-.049557,
.005905,-.049215,
.0059,-.04921,
.0059,.04921,
.005875,.049552,
.005786,.049884,
.005641,.050195,
.005444,.050476,
.005201,.050719,
.00492,.050916,
.004609,.051061,
.004277,.05115,
.003935,.05118,
.00393,.05118,
-.00393,.05118,
-.004272,.051151,
-.004604,.051063,
-.004916,.050919,
-.005197,.050722,
-.005441,.05048,
-.005639,.050199,
-.005784,.049888,
-.005874,.049557,
-.005905,.049215,
-.0059,.04921,
-.0059,-.04921,
-.005875,-.049552,
-.005786,-.049884,
-.005641,-.050195,
-.005444,-.050476,
-.005201,-.050719,
-.00492,-.050916,
-.004609,-.051061,
-.004277,-.05115,
-.003935,-.05118,
-.00393,-.05118,
0.0*
%
%ADD33MACRO33*%
%AMMACRO39*
4,1,44,.06102,-.02264,
.06102,.02264,
.060905,.024007,
.06055,.025332,
.059971,.026575,
.059184,.027699,
.058214,.028669,
.05709,.029456,
.055847,.030035,
.054522,.03039,
.053155,.03051,
.05315,.03051,
-.05315,.03051,
-.054517,.030391,
-.055842,.030037,
-.057086,.029458,
-.05821,.028672,
-.059181,.027703,
-.059968,.026579,
-.060549,.025336,
-.060905,.024012,
-.061025,.022645,
-.06102,.02264,
-.06102,-.02264,
-.060905,-.024007,
-.06055,-.025332,
-.059971,-.026575,
-.059184,-.027699,
-.058214,-.028669,
-.05709,-.029456,
-.055847,-.030035,
-.054522,-.03039,
-.053155,-.03051,
-.05315,-.03051,
.05315,-.03051,
.054517,-.030391,
.055842,-.030037,
.057086,-.029458,
.05821,-.028672,
.059181,-.027703,
.059968,-.026579,
.060549,-.025336,
.060905,-.024012,
.061025,-.022645,
.06102,-.02264,
0.0*
%
%ADD39MACRO39*%
%AMMACRO29*
4,1,44,.10039,-.08858,
.10039,.08858,
.100216,.090631,
.099684,.09262,
.098815,.094486,
.097635,.096172,
.09618,.097629,
.094494,.09881,
.092629,.099681,
.090641,.100215,
.08859,.100395,
.08858,.10039,
-.08858,.10039,
-.090631,.100216,
-.09262,.099684,
-.094486,.098815,
-.096172,.097635,
-.097629,.09618,
-.09881,.094494,
-.099681,.092629,
-.100215,.090641,
-.100395,.08859,
-.10039,.08858,
-.10039,-.08858,
-.100216,-.090631,
-.099684,-.09262,
-.098815,-.094486,
-.097635,-.096172,
-.09618,-.097629,
-.094494,-.09881,
-.092629,-.099681,
-.090641,-.100215,
-.08859,-.100395,
-.08858,-.10039,
.08858,-.10039,
.090631,-.100216,
.09262,-.099684,
.094486,-.098815,
.096172,-.097635,
.097629,-.09618,
.09881,-.094494,
.099681,-.092629,
.100215,-.090641,
.100395,-.08859,
.10039,-.08858,
0.0*
%
%ADD29MACRO29*%
%AMMACRO64*
4,1,40,-.045,.03213,
-.045,-.03213,
-.04488,-.033497,
-.044525,-.034822,
-.043946,-.036065,
-.043159,-.037189,
-.042189,-.038159,
-.041065,-.038946,
-.039822,-.039525,
-.038497,-.03988,
-.03713,-.04,
.03713,-.04,
.038497,-.03988,
.039822,-.039525,
.041065,-.038946,
.042189,-.038159,
.043159,-.037189,
.043946,-.036065,
.044525,-.034822,
.04488,-.033497,
.045,-.03213,
.045,.03213,
.04488,.033497,
.044525,.034822,
.043946,.036065,
.043159,.037189,
.042189,.038159,
.041065,.038946,
.039822,.039525,
.038497,.03988,
.03713,.04,
-.03713,.04,
-.038497,.03988,
-.039822,.039525,
-.041065,.038946,
-.042189,.038159,
-.043159,.037189,
-.043946,.036065,
-.044525,.034822,
-.04488,.033497,
-.045,.03213,
0.0*
%
%ADD64MACRO64*%
%ADD56O,.04724X.08661*%
%AMMACRO63*
4,1,44,.00393,.02362,
-.00393,.02362,
-.004272,.023591,
-.004604,.023503,
-.004916,.023359,
-.005197,.023162,
-.005441,.02292,
-.005639,.022639,
-.005784,.022328,
-.005874,.021997,
-.005905,.021655,
-.0059,.02165,
-.0059,-.02165,
-.005875,-.021992,
-.005786,-.022324,
-.005641,-.022635,
-.005444,-.022916,
-.005201,-.023159,
-.00492,-.023356,
-.004609,-.023501,
-.004277,-.02359,
-.003935,-.02362,
-.00393,-.02362,
.00393,-.02362,
.004272,-.023591,
.004604,-.023503,
.004916,-.023359,
.005197,-.023162,
.005441,-.02292,
.005639,-.022639,
.005784,-.022328,
.005874,-.021997,
.005905,-.021655,
.0059,-.02165,
.0059,.02165,
.005875,.021992,
.005786,.022324,
.005641,.022635,
.005444,.022916,
.005201,.023159,
.00492,.023356,
.004609,.023501,
.004277,.02359,
.003935,.02362,
.00393,.02362,
0.0*
%
%ADD63MACRO63*%
%ADD34R,.03543X.03937*%
%AMMACRO61*
4,1,44,.01575,-.00196,
.01575,.00196,
.015721,.002302,
.015633,.002634,
.015489,.002946,
.015292,.003227,
.01505,.003471,
.014769,.003669,
.014458,.003814,
.014127,.003904,
.013785,.003935,
.01378,.00393,
-.01378,.00393,
-.014122,.003905,
-.014454,.003816,
-.014765,.003671,
-.015046,.003474,
-.015289,.003231,
-.015486,.00295,
-.015631,.002639,
-.01572,.002307,
-.01575,.001965,
-.01575,.00196,
-.01575,-.00196,
-.015721,-.002302,
-.015633,-.002634,
-.015489,-.002946,
-.015292,-.003227,
-.01505,-.003471,
-.014769,-.003669,
-.014458,-.003814,
-.014127,-.003904,
-.013785,-.003935,
-.01378,-.00393,
.01378,-.00393,
.014122,-.003905,
.014454,-.003816,
.014765,-.003671,
.015046,-.003474,
.015289,-.003231,
.015486,-.00295,
.015631,-.002639,
.01572,-.002307,
.01575,-.001965,
.01575,-.00196,
0.0*
%
%ADD61MACRO61*%
%AMMACRO46*
4,1,44,-.00196,-.01575,
.00196,-.01575,
.002302,-.015721,
.002634,-.015633,
.002946,-.015489,
.003227,-.015292,
.003471,-.01505,
.003669,-.014769,
.003814,-.014458,
.003904,-.014127,
.003935,-.013785,
.00393,-.01378,
.00393,.01378,
.003905,.014122,
.003816,.014454,
.003671,.014765,
.003474,.015046,
.003231,.015289,
.00295,.015486,
.002639,.015631,
.002307,.01572,
.001965,.01575,
.00196,.01575,
-.00196,.01575,
-.002302,.015721,
-.002634,.015633,
-.002946,.015489,
-.003227,.015292,
-.003471,.01505,
-.003669,.014769,
-.003814,.014458,
-.003904,.014127,
-.003935,.013785,
-.00393,.01378,
-.00393,-.01378,
-.003905,-.014122,
-.003816,-.014454,
-.003671,-.014765,
-.003474,-.015046,
-.003231,-.015289,
-.00295,-.015486,
-.002639,-.015631,
-.002307,-.01572,
-.001965,-.01575,
-.00196,-.01575,
0.0*
%
%ADD46MACRO46*%
%AMMACRO30*
4,1,44,.00393,.01378,
-.00393,.01378,
-.004272,.013751,
-.004604,.013663,
-.004916,.013519,
-.005197,.013322,
-.005441,.01308,
-.005639,.012799,
-.005784,.012488,
-.005874,.012157,
-.005905,.011815,
-.0059,.01181,
-.0059,-.01181,
-.005875,-.012152,
-.005786,-.012484,
-.005641,-.012795,
-.005444,-.013076,
-.005201,-.013319,
-.00492,-.013516,
-.004609,-.013661,
-.004277,-.01375,
-.003935,-.01378,
-.00393,-.01378,
.00393,-.01378,
.004272,-.013751,
.004604,-.013663,
.004916,-.013519,
.005197,-.013322,
.005441,-.01308,
.005639,-.012799,
.005784,-.012488,
.005874,-.012157,
.005905,-.011815,
.0059,-.01181,
.0059,.01181,
.005875,.012152,
.005786,.012484,
.005641,.012795,
.005444,.013076,
.005201,.013319,
.00492,.013516,
.004609,.013661,
.004277,.01375,
.003935,.01378,
.00393,.01378,
0.0*
%
%ADD30MACRO30*%
%ADD45R,.04724X.01969*%
%AMMACRO57*
4,1,40,.00394,.02362,
-.00394,.02362,
-.005307,.0235,
-.006632,.023145,
-.007875,.022566,
-.008999,.021779,
-.009969,.020809,
-.010756,.019685,
-.011335,.018442,
-.01169,.017117,
-.01181,.01575,
-.01181,-.01575,
-.01169,-.017117,
-.011335,-.018442,
-.010756,-.019685,
-.009969,-.020809,
-.008999,-.021779,
-.007875,-.022566,
-.006632,-.023145,
-.005307,-.0235,
-.00394,-.02362,
.00394,-.02362,
.005307,-.0235,
.006632,-.023145,
.007875,-.022566,
.008999,-.021779,
.009969,-.020809,
.010756,-.019685,
.011335,-.018442,
.01169,-.017117,
.01181,-.01575,
.01181,.01575,
.01169,.017117,
.011335,.018442,
.010756,.019685,
.009969,.020809,
.008999,.021779,
.007875,.022566,
.006632,.023145,
.005307,.0235,
.00394,.02362,
0.0*
%
%ADD57MACRO57*%
%ADD50R,.01969X.04724*%
%AMMACRO36*
4,1,44,.0059,.01378,
-.0059,.01378,
-.006242,.013751,
-.006574,.013663,
-.006886,.013519,
-.007167,.013322,
-.007411,.01308,
-.007609,.012799,
-.007754,.012488,
-.007844,.012157,
-.007875,.011815,
-.00787,.01181,
-.00787,-.01181,
-.007845,-.012152,
-.007756,-.012484,
-.007611,-.012795,
-.007414,-.013076,
-.007171,-.013319,
-.00689,-.013516,
-.006579,-.013661,
-.006247,-.01375,
-.005905,-.01378,
-.0059,-.01378,
.0059,-.01378,
.006242,-.013751,
.006574,-.013663,
.006886,-.013519,
.007167,-.013322,
.007411,-.01308,
.007609,-.012799,
.007754,-.012488,
.007844,-.012157,
.007875,-.011815,
.00787,-.01181,
.00787,.01181,
.007845,.012152,
.007756,.012484,
.007611,.012795,
.007414,.013076,
.007171,.013319,
.00689,.013516,
.006579,.013661,
.006247,.01375,
.005905,.01378,
.0059,.01378,
0.0*
%
%ADD36MACRO36*%
%AMMACRO52*
4,1,44,-.03543,.00984,
-.03543,-.00984,
-.035375,-.010524,
-.035197,-.011188,
-.034907,-.01181,
-.034513,-.012373,
-.034028,-.012858,
-.033465,-.013252,
-.032843,-.013542,
-.032179,-.01372,
-.031495,-.01378,
-.03149,-.01378,
.03149,-.01378,
.032174,-.013721,
.032838,-.013544,
.033461,-.013255,
.034024,-.012861,
.03451,-.012376,
.034905,-.011814,
.035196,-.011192,
.035374,-.010529,
.035435,-.009845,
.03543,-.00984,
.03543,.00984,
.035375,.010524,
.035197,.011188,
.034907,.01181,
.034513,.012373,
.034028,.012858,
.033465,.013252,
.032843,.013542,
.032179,.01372,
.031495,.01378,
.03149,.01378,
-.03149,.01378,
-.032174,.013721,
-.032838,.013544,
-.033461,.013255,
-.034024,.012861,
-.03451,.012376,
-.034905,.011814,
-.035196,.011192,
-.035374,.010529,
-.035435,.009845,
-.03543,.00984,
0.0*
%
%ADD52MACRO52*%
%AMMACRO62*
4,1,44,.00984,.03543,
-.00984,.03543,
-.010524,.035375,
-.011188,.035197,
-.01181,.034907,
-.012373,.034513,
-.012858,.034028,
-.013252,.033465,
-.013542,.032843,
-.01372,.032179,
-.01378,.031495,
-.01378,.03149,
-.01378,-.03149,
-.013721,-.032174,
-.013544,-.032838,
-.013255,-.033461,
-.012861,-.034024,
-.012376,-.03451,
-.011814,-.034905,
-.011192,-.035196,
-.010529,-.035374,
-.009845,-.035435,
-.00984,-.03543,
.00984,-.03543,
.010524,-.035375,
.011188,-.035197,
.01181,-.034907,
.012373,-.034513,
.012858,-.034028,
.013252,-.033465,
.013542,-.032843,
.01372,-.032179,
.01378,-.031495,
.01378,-.03149,
.01378,.03149,
.013721,.032174,
.013544,.032838,
.013255,.033461,
.012861,.034024,
.012376,.03451,
.011814,.034905,
.011192,.035196,
.010529,.035374,
.009845,.035435,
.00984,.03543,
0.0*
%
%ADD62MACRO62*%
%AMMACRO23*
4,1,40,.00625,-.0035,
.00625,.0035,
.00622,.003847,
.006129,.004184,
.005982,.0045,
.005782,.004786,
.005536,.005032,
.00525,.005232,
.004934,.005379,
.004597,.00547,
.00425,.0055,
-.00425,.0055,
-.004597,.00547,
-.004934,.005379,
-.00525,.005232,
-.005536,.005032,
-.005782,.004786,
-.005982,.0045,
-.006129,.004184,
-.00622,.003847,
-.00625,.0035,
-.00625,-.0035,
-.00622,-.003847,
-.006129,-.004184,
-.005982,-.0045,
-.005782,-.004786,
-.005536,-.005032,
-.00525,-.005232,
-.004934,-.005379,
-.004597,-.00547,
-.00425,-.0055,
.00425,-.0055,
.004597,-.00547,
.004934,-.005379,
.00525,-.005232,
.005536,-.005032,
.005782,-.004786,
.005982,-.0045,
.006129,-.004184,
.00622,-.003847,
.00625,-.0035,
0.0*
%
%ADD23MACRO23*%
%AMMACRO11*
4,1,40,-.0035,-.00625,
.0035,-.00625,
.003847,-.00622,
.004184,-.006129,
.0045,-.005982,
.004786,-.005782,
.005032,-.005536,
.005232,-.00525,
.005379,-.004934,
.00547,-.004597,
.0055,-.00425,
.0055,.00425,
.00547,.004597,
.005379,.004934,
.005232,.00525,
.005032,.005536,
.004786,.005782,
.0045,.005982,
.004184,.006129,
.003847,.00622,
.0035,.00625,
-.0035,.00625,
-.003847,.00622,
-.004184,.006129,
-.0045,.005982,
-.004786,.005782,
-.005032,.005536,
-.005232,.00525,
-.005379,.004934,
-.00547,.004597,
-.0055,.00425,
-.0055,-.00425,
-.00547,-.004597,
-.005379,-.004934,
-.005232,-.00525,
-.005032,-.005536,
-.004786,-.005782,
-.0045,-.005982,
-.004184,-.006129,
-.003847,-.00622,
-.0035,-.00625,
0.0*
%
%ADD11MACRO11*%
%ADD78C,.005*%
%ADD79C,.004*%
G75*
%LPD*%
G75*
G54D10*
X-1266350Y657296D03*
Y662296D03*
X-1261350Y657296D03*
X-1256350D03*
X-1261350Y662296D03*
X-1256350D03*
X-1251350Y657296D03*
X-1246350D03*
X-1251350Y662296D03*
X-1246350D03*
G54D11*
X-1226609Y665941D03*
X-1224409D03*
X-1226606Y670041D03*
X-1224406D03*
X-1197452Y897950D03*
X-1197456Y900650D03*
X-1195252Y897950D03*
X-1195256Y900650D03*
X-1153100Y822000D03*
X-1150900D03*
X-1153100Y831500D03*
X-1150900D03*
X-999050Y805828D03*
Y810428D03*
Y814728D03*
X-996850Y805828D03*
Y810428D03*
Y814728D03*
X-969750Y693327D03*
X-967550D03*
X-961883D03*
X-959683D03*
G54D20*
X-1197823Y741748D03*
Y739189D03*
Y736630D03*
Y751984D03*
Y749425D03*
Y746866D03*
Y744307D03*
Y759661D03*
Y757102D03*
Y754543D03*
Y777575D03*
Y775016D03*
Y772457D03*
Y769898D03*
Y767339D03*
Y787811D03*
Y785252D03*
Y782693D03*
Y780134D03*
Y790370D03*
X-1194673Y741748D03*
X-1191524D03*
X-1188374D03*
X-1185224D03*
X-1194673Y739189D03*
X-1191524D03*
X-1188374D03*
X-1185224D03*
X-1194673Y736630D03*
X-1191524D03*
X-1188374D03*
X-1185224D03*
X-1194673Y751984D03*
X-1191524D03*
X-1188374D03*
X-1185224D03*
X-1194673Y749425D03*
X-1191524D03*
X-1188374D03*
X-1185224D03*
X-1194673Y746866D03*
X-1191524D03*
X-1188374D03*
X-1185224D03*
X-1194673Y744307D03*
X-1191524D03*
X-1188374D03*
X-1185224D03*
X-1194673Y759661D03*
X-1191524D03*
X-1188374D03*
X-1185224D03*
X-1194673Y757102D03*
X-1191524D03*
X-1188374D03*
X-1185224D03*
X-1194673Y754543D03*
X-1191524D03*
X-1188374D03*
X-1185224D03*
X-1194673Y777575D03*
X-1191524D03*
X-1188374D03*
X-1185224D03*
X-1194673Y775016D03*
X-1191524D03*
X-1188374D03*
X-1185224D03*
X-1194673Y772457D03*
X-1191524D03*
X-1188374D03*
X-1185224D03*
X-1194673Y769898D03*
X-1191524D03*
X-1188374D03*
X-1185224D03*
X-1194673Y767339D03*
X-1191524D03*
X-1188374D03*
X-1185224D03*
X-1194673Y787811D03*
X-1191524D03*
X-1188374D03*
X-1185224D03*
X-1194673Y785252D03*
X-1191524D03*
X-1188374D03*
X-1185224D03*
X-1194673Y782693D03*
X-1191524D03*
X-1188374D03*
X-1185224D03*
X-1194673Y780134D03*
X-1191524D03*
X-1188374D03*
X-1185224D03*
X-1194673Y790370D03*
X-1191524D03*
X-1188374D03*
X-1185224D03*
X-1175776Y741748D03*
Y739189D03*
Y736630D03*
Y751984D03*
Y749425D03*
Y746866D03*
Y744307D03*
Y759661D03*
Y757102D03*
Y754543D03*
Y777575D03*
Y775016D03*
Y772457D03*
Y769898D03*
Y767339D03*
Y787811D03*
Y785252D03*
Y782693D03*
Y780134D03*
Y790370D03*
X-1172626Y741748D03*
X-1169476D03*
X-1166327D03*
X-1163177D03*
X-1172626Y739189D03*
X-1169476D03*
X-1166327D03*
X-1163177D03*
X-1172626Y736630D03*
X-1169476D03*
X-1166327D03*
X-1163177D03*
X-1172626Y751984D03*
X-1169476D03*
X-1166327D03*
X-1163177D03*
X-1172626Y749425D03*
X-1169476D03*
X-1166327D03*
X-1163177D03*
X-1172626Y746866D03*
X-1169476D03*
X-1166327D03*
X-1163177D03*
X-1172626Y744307D03*
X-1169476D03*
X-1166327D03*
X-1163177D03*
X-1172626Y759661D03*
X-1169476D03*
X-1166327D03*
X-1163177D03*
X-1172626Y757102D03*
X-1169476D03*
X-1166327D03*
X-1163177D03*
X-1172626Y754543D03*
X-1169476D03*
X-1166327D03*
X-1163177D03*
X-1172626Y777575D03*
X-1169476D03*
X-1166327D03*
X-1163177D03*
X-1172626Y775016D03*
X-1169476D03*
X-1166327D03*
X-1163177D03*
X-1172626Y772457D03*
X-1169476D03*
X-1166327D03*
X-1163177D03*
X-1172626Y769898D03*
X-1169476D03*
X-1166327D03*
X-1163177D03*
X-1172626Y767339D03*
X-1169476D03*
X-1166327D03*
X-1163177D03*
X-1172626Y787811D03*
X-1169476D03*
X-1166327D03*
X-1163177D03*
X-1172626Y785252D03*
X-1169476D03*
X-1166327D03*
X-1163177D03*
X-1172626Y782693D03*
X-1169476D03*
X-1166327D03*
X-1163177D03*
X-1172626Y780134D03*
X-1169476D03*
X-1166327D03*
X-1163177D03*
X-1172626Y790370D03*
X-1169476D03*
X-1166327D03*
X-1163177D03*
X-1147636Y731364D03*
Y733923D03*
Y736482D03*
Y739041D03*
Y741600D03*
X-1145077Y731364D03*
Y733923D03*
Y736482D03*
Y739041D03*
Y741600D03*
X-1142518Y731364D03*
Y733923D03*
Y736482D03*
Y739041D03*
X-1139959Y731364D03*
Y733923D03*
Y736482D03*
Y739041D03*
X-1147636Y744159D03*
Y746719D03*
Y751837D03*
Y754396D03*
X-1145077Y744159D03*
Y746719D03*
Y751837D03*
Y754396D03*
X-1142518Y744159D03*
Y746719D03*
Y751837D03*
Y754396D03*
X-1139959Y744159D03*
Y746719D03*
Y751837D03*
Y754396D03*
X-1147636Y756955D03*
Y759514D03*
Y764632D03*
X-1145077Y756955D03*
Y759514D03*
Y764632D03*
X-1142518Y759514D03*
Y764632D03*
X-1139959Y759514D03*
Y764632D03*
X-1147636Y767191D03*
Y769750D03*
Y772309D03*
Y774868D03*
Y777427D03*
X-1145077Y767191D03*
Y769750D03*
Y772309D03*
Y774868D03*
Y777427D03*
X-1142518Y769750D03*
Y772309D03*
Y777427D03*
X-1139959Y769750D03*
Y772309D03*
Y777427D03*
X-1147636Y779986D03*
Y782545D03*
Y785104D03*
Y787663D03*
X-1145077Y779986D03*
Y782545D03*
Y785104D03*
Y787663D03*
X-1142518Y779986D03*
Y785104D03*
Y787663D03*
X-1139959Y779986D03*
Y785104D03*
Y787663D03*
X-1147636Y792781D03*
Y795341D03*
Y797900D03*
Y800459D03*
X-1145077Y792781D03*
Y795341D03*
Y797900D03*
Y800459D03*
X-1142518Y792781D03*
Y795341D03*
Y797900D03*
Y800459D03*
X-1139959Y792781D03*
Y795341D03*
Y797900D03*
Y800459D03*
X-1147636Y803018D03*
Y805577D03*
Y808136D03*
X-1145077Y803018D03*
Y805577D03*
Y808136D03*
X-1142518Y803018D03*
Y805577D03*
Y808136D03*
X-1139959Y803018D03*
Y805577D03*
Y808136D03*
X-1137400Y731364D03*
Y733923D03*
X-1134841Y731364D03*
Y733923D03*
Y739041D03*
Y741600D03*
X-1132281Y731364D03*
Y733923D03*
Y736482D03*
Y739041D03*
Y741600D03*
X-1129722Y731364D03*
Y733923D03*
Y739041D03*
X-1127163Y731364D03*
Y733923D03*
Y736482D03*
Y739041D03*
Y741600D03*
X-1137400Y744159D03*
Y746719D03*
Y751837D03*
Y754396D03*
X-1134841Y744159D03*
Y746719D03*
Y751837D03*
Y754396D03*
X-1132281Y744159D03*
Y746719D03*
Y749278D03*
Y751837D03*
Y754396D03*
X-1129722Y746719D03*
Y749278D03*
Y751837D03*
Y754396D03*
X-1127163Y744159D03*
Y746719D03*
Y751837D03*
Y754396D03*
X-1137400Y759514D03*
Y764632D03*
X-1134841Y759514D03*
Y764632D03*
X-1132281Y756955D03*
Y759514D03*
Y762073D03*
Y764632D03*
X-1129722Y756955D03*
Y759514D03*
Y762073D03*
Y764632D03*
X-1127163Y756955D03*
Y759514D03*
Y762073D03*
Y764632D03*
X-1137400Y769750D03*
Y772309D03*
Y777427D03*
X-1134841Y769750D03*
Y772309D03*
Y777427D03*
X-1132281Y769750D03*
Y772309D03*
Y777427D03*
X-1129722Y767191D03*
Y769750D03*
Y772309D03*
Y774868D03*
Y777427D03*
X-1127163Y767191D03*
Y769750D03*
Y772309D03*
Y774868D03*
Y777427D03*
X-1137400Y779986D03*
Y785104D03*
Y787663D03*
X-1134841Y779986D03*
Y785104D03*
Y787663D03*
X-1132281Y779986D03*
Y785104D03*
Y787663D03*
X-1129722Y779986D03*
Y785104D03*
Y787663D03*
X-1127163Y779986D03*
Y785104D03*
Y787663D03*
X-1137400Y792781D03*
Y795341D03*
Y797900D03*
Y800459D03*
X-1134841Y790222D03*
Y792781D03*
Y795341D03*
Y797900D03*
Y800459D03*
X-1129722Y790222D03*
Y792781D03*
Y795341D03*
Y797900D03*
Y800459D03*
X-1127163Y792781D03*
Y795341D03*
Y797900D03*
Y800459D03*
X-1137400Y803018D03*
Y805577D03*
Y808136D03*
X-1134841Y803018D03*
Y805577D03*
Y808136D03*
X-1132281Y805577D03*
Y808136D03*
X-1129722Y803018D03*
Y805577D03*
Y808136D03*
X-1127163Y803018D03*
Y805577D03*
Y808136D03*
X-1124604Y731364D03*
Y733923D03*
Y736482D03*
Y739041D03*
Y741600D03*
X-1122045Y731364D03*
X-1119486D03*
Y733923D03*
Y736482D03*
Y739041D03*
Y741600D03*
X-1116927Y731364D03*
Y733923D03*
Y736482D03*
Y739041D03*
Y741600D03*
X-1124604Y744159D03*
Y746719D03*
Y749278D03*
Y751837D03*
Y754396D03*
X-1122045Y749278D03*
Y751837D03*
Y754396D03*
X-1119486Y744159D03*
Y746719D03*
Y749278D03*
Y751837D03*
Y754396D03*
X-1116927Y744159D03*
Y746719D03*
Y749278D03*
Y751837D03*
Y754396D03*
X-1124604Y756955D03*
Y759514D03*
Y762073D03*
Y764632D03*
X-1122045Y756955D03*
Y759514D03*
Y762073D03*
Y764632D03*
X-1119486Y756955D03*
Y759514D03*
Y762073D03*
Y764632D03*
X-1116927Y756955D03*
Y759514D03*
Y762073D03*
Y764632D03*
X-1124604Y767191D03*
Y769750D03*
Y772309D03*
Y774868D03*
Y777427D03*
X-1122045Y767191D03*
Y769750D03*
Y772309D03*
Y774868D03*
Y777427D03*
X-1119486Y767191D03*
Y769750D03*
Y772309D03*
Y774868D03*
Y777427D03*
X-1116927Y767191D03*
Y769750D03*
Y772309D03*
Y774868D03*
Y777427D03*
X-1124604Y785104D03*
Y787663D03*
X-1122045Y779986D03*
Y782545D03*
Y785104D03*
Y787663D03*
X-1119486Y779986D03*
Y782545D03*
Y785104D03*
Y787663D03*
X-1116927Y779986D03*
Y782545D03*
Y785104D03*
X-1124604Y792781D03*
X-1122045D03*
Y795341D03*
Y797900D03*
Y800459D03*
X-1119486Y790222D03*
Y792781D03*
Y795341D03*
Y797900D03*
Y800459D03*
X-1116927Y790222D03*
Y792781D03*
X-1124604Y805577D03*
Y808136D03*
X-1122045Y803018D03*
Y805577D03*
Y808136D03*
X-1119486Y803018D03*
Y805577D03*
Y808136D03*
X-1116927Y805577D03*
Y808136D03*
X-1114368Y731364D03*
X-1111809D03*
Y733923D03*
Y736482D03*
Y739041D03*
Y741600D03*
X-1109250Y731364D03*
Y733923D03*
Y736482D03*
Y739041D03*
Y741600D03*
X-1106691Y731364D03*
X-1104132D03*
Y733923D03*
Y736482D03*
Y739041D03*
Y741600D03*
X-1114368Y749278D03*
Y751837D03*
Y754396D03*
X-1111809Y744159D03*
Y746719D03*
Y749278D03*
Y751837D03*
Y754396D03*
X-1109250Y744159D03*
Y746719D03*
Y751837D03*
Y754396D03*
X-1106691Y749278D03*
Y751837D03*
Y754396D03*
X-1104132Y744159D03*
Y746719D03*
Y749278D03*
Y751837D03*
Y754396D03*
X-1114368Y756955D03*
Y759514D03*
Y762073D03*
Y764632D03*
X-1111809Y756955D03*
Y759514D03*
Y762073D03*
Y764632D03*
X-1109250Y756955D03*
Y759514D03*
Y762073D03*
Y764632D03*
X-1106691Y756955D03*
Y759514D03*
Y762073D03*
Y764632D03*
X-1104132Y756955D03*
Y759514D03*
Y762073D03*
Y764632D03*
X-1114368Y767191D03*
Y769750D03*
Y772309D03*
Y774868D03*
Y777427D03*
X-1111809Y767191D03*
Y769750D03*
Y772309D03*
Y774868D03*
Y777427D03*
X-1109250Y767191D03*
Y769750D03*
Y772309D03*
Y774868D03*
Y777427D03*
X-1106691Y767191D03*
Y769750D03*
Y772309D03*
Y774868D03*
Y777427D03*
X-1104132Y767191D03*
Y769750D03*
Y772309D03*
Y774868D03*
Y777427D03*
X-1114368Y779986D03*
Y782545D03*
Y785104D03*
Y787663D03*
X-1111809Y779986D03*
Y782545D03*
Y785104D03*
Y787663D03*
X-1109250Y779986D03*
Y782545D03*
Y785104D03*
Y787663D03*
X-1106691Y779986D03*
Y782545D03*
Y785104D03*
Y787663D03*
X-1104132Y779986D03*
Y782545D03*
X-1114368Y790222D03*
Y792781D03*
Y795341D03*
Y797900D03*
Y800459D03*
X-1111809Y792781D03*
Y795341D03*
Y797900D03*
Y800459D03*
X-1109250Y790222D03*
Y792781D03*
X-1106691Y790222D03*
Y792781D03*
Y795341D03*
Y797900D03*
Y800459D03*
X-1104132Y790222D03*
Y792781D03*
Y795341D03*
Y797900D03*
Y800459D03*
X-1114368Y803018D03*
Y805577D03*
Y808136D03*
X-1111809Y803018D03*
Y805577D03*
Y808136D03*
X-1109250Y805577D03*
Y808136D03*
X-1106691Y803018D03*
Y805577D03*
Y808136D03*
X-1104132Y803018D03*
Y805577D03*
Y808136D03*
X-1101573Y731364D03*
Y733923D03*
Y736482D03*
Y739041D03*
Y741600D03*
X-1099014Y731364D03*
Y733923D03*
X-1096455Y731364D03*
Y733923D03*
Y736482D03*
Y739041D03*
Y741600D03*
X-1093896Y731364D03*
Y733923D03*
Y736482D03*
Y739041D03*
Y741600D03*
X-1101573Y744159D03*
Y746719D03*
Y749278D03*
Y751837D03*
Y754396D03*
X-1099014Y749278D03*
Y751837D03*
Y754396D03*
X-1096455Y744159D03*
Y749278D03*
Y751837D03*
Y754396D03*
X-1093896Y744159D03*
Y746719D03*
Y749278D03*
Y751837D03*
Y754396D03*
X-1101573Y756955D03*
Y759514D03*
Y762073D03*
Y764632D03*
X-1099014Y756955D03*
Y759514D03*
Y762073D03*
Y764632D03*
X-1096455Y756955D03*
Y759514D03*
Y762073D03*
Y764632D03*
X-1093896Y756955D03*
Y759514D03*
Y762073D03*
Y764632D03*
X-1101573Y767191D03*
Y769750D03*
Y772309D03*
Y774868D03*
Y777427D03*
X-1099014Y767191D03*
Y769750D03*
Y772309D03*
Y774868D03*
Y777427D03*
X-1096455Y767191D03*
Y769750D03*
Y772309D03*
Y774868D03*
Y777427D03*
X-1093896Y767191D03*
Y769750D03*
Y772309D03*
Y774868D03*
Y777427D03*
X-1101573Y779986D03*
Y782545D03*
Y787663D03*
X-1099014Y779986D03*
Y782545D03*
X-1096455Y779986D03*
Y782545D03*
Y785104D03*
Y787663D03*
X-1093896Y779986D03*
Y782545D03*
Y785104D03*
X-1101573Y790222D03*
Y792781D03*
Y797900D03*
Y800459D03*
X-1099014Y792781D03*
Y795341D03*
Y797900D03*
Y800459D03*
X-1096455Y790222D03*
Y792781D03*
Y795341D03*
Y797900D03*
Y800459D03*
X-1101573Y805577D03*
Y808136D03*
X-1099014Y803018D03*
Y805577D03*
Y808136D03*
X-1096455Y803018D03*
Y805577D03*
Y808136D03*
X-1093896Y805577D03*
Y808136D03*
X-1091337Y731364D03*
X-1088778D03*
Y733923D03*
Y736482D03*
Y739041D03*
Y741600D03*
X-1086219Y731364D03*
Y733923D03*
Y736482D03*
Y739041D03*
Y741600D03*
X-1083659Y731364D03*
X-1081100D03*
Y733923D03*
Y736482D03*
Y739041D03*
Y741600D03*
X-1091337Y749278D03*
Y751837D03*
Y754396D03*
X-1088778Y744159D03*
Y746719D03*
Y749278D03*
Y751837D03*
Y754396D03*
X-1086219Y744159D03*
Y746719D03*
Y749278D03*
Y751837D03*
Y754396D03*
X-1083659Y746719D03*
Y749278D03*
Y754396D03*
X-1081100Y746719D03*
Y749278D03*
Y754396D03*
X-1091337Y756955D03*
Y759514D03*
Y762073D03*
Y764632D03*
X-1088778Y756955D03*
Y759514D03*
Y762073D03*
Y764632D03*
X-1086219Y756955D03*
Y759514D03*
Y762073D03*
Y764632D03*
X-1083659Y756955D03*
Y762073D03*
Y764632D03*
X-1081100Y756955D03*
Y764632D03*
X-1091337Y767191D03*
Y769750D03*
Y772309D03*
Y774868D03*
Y777427D03*
X-1088778Y767191D03*
Y769750D03*
Y772309D03*
Y774868D03*
Y777427D03*
X-1086219Y767191D03*
Y769750D03*
Y772309D03*
Y774868D03*
Y777427D03*
X-1083659Y769750D03*
Y774868D03*
X-1081100Y769750D03*
Y774868D03*
X-1091337Y779986D03*
Y782545D03*
Y785104D03*
Y787663D03*
X-1088778Y779986D03*
Y782545D03*
Y785104D03*
Y787663D03*
X-1086219Y779986D03*
Y782545D03*
Y785104D03*
Y787663D03*
X-1083659Y779986D03*
Y782545D03*
Y787663D03*
X-1081100Y779986D03*
Y782545D03*
Y787663D03*
X-1091337Y790222D03*
Y792781D03*
Y795341D03*
Y797900D03*
Y800459D03*
X-1088778Y790222D03*
Y792781D03*
Y795341D03*
Y797900D03*
Y800459D03*
X-1086219Y790222D03*
X-1083659D03*
Y795341D03*
Y797900D03*
X-1081100Y790222D03*
Y795341D03*
Y797900D03*
X-1091337Y803018D03*
Y805577D03*
Y808136D03*
X-1088778Y803018D03*
Y805577D03*
Y808136D03*
X-1086219D03*
X-1083659Y803018D03*
Y805577D03*
X-1081100Y803018D03*
Y805577D03*
X-1078541Y731364D03*
Y733923D03*
Y736482D03*
Y739041D03*
Y741600D03*
X-1075982Y731364D03*
X-1073423D03*
Y733923D03*
Y736482D03*
Y739041D03*
Y741600D03*
X-1070864Y731364D03*
Y733923D03*
Y736482D03*
Y739041D03*
Y741600D03*
X-1078541Y746719D03*
Y749278D03*
Y754396D03*
X-1075982Y746719D03*
Y749278D03*
Y754396D03*
X-1073423Y746719D03*
Y749278D03*
Y754396D03*
X-1070864Y744159D03*
Y746719D03*
Y749278D03*
Y751837D03*
Y754396D03*
X-1078541Y756955D03*
Y762073D03*
Y764632D03*
X-1075982Y756955D03*
Y759514D03*
Y762073D03*
Y764632D03*
X-1073423Y756955D03*
Y759514D03*
Y762073D03*
Y764632D03*
X-1070864Y756955D03*
Y759514D03*
Y762073D03*
Y764632D03*
X-1078541Y769750D03*
Y774868D03*
X-1075982Y769750D03*
Y774868D03*
X-1073423Y769750D03*
Y774868D03*
X-1070864Y767191D03*
Y769750D03*
Y774868D03*
Y777427D03*
X-1078541Y779986D03*
Y782545D03*
Y787663D03*
X-1075982Y779986D03*
Y782545D03*
Y787663D03*
X-1073423Y779986D03*
Y782545D03*
Y787663D03*
X-1070864Y779986D03*
Y782545D03*
Y785104D03*
Y787663D03*
X-1078541Y790222D03*
Y795341D03*
Y797900D03*
X-1075982Y790222D03*
Y795341D03*
Y797900D03*
X-1073423Y790222D03*
Y795341D03*
Y797900D03*
X-1070864Y790222D03*
Y792781D03*
Y795341D03*
Y797900D03*
Y800459D03*
X-1078541Y803018D03*
Y805577D03*
X-1075982Y803018D03*
Y805577D03*
X-1073423Y803018D03*
Y805577D03*
X-1070864Y803018D03*
Y805577D03*
X-1055323Y753103D03*
X-1052173D03*
X-1049024D03*
X-1045874D03*
X-1055323Y750544D03*
X-1052173D03*
X-1049024D03*
X-1045874D03*
X-1055323Y765898D03*
X-1052173D03*
X-1049024D03*
X-1045874D03*
X-1055323Y763339D03*
X-1052173D03*
X-1049024D03*
X-1045874D03*
X-1055323Y760780D03*
X-1052173D03*
X-1049024D03*
X-1045874D03*
X-1055323Y758221D03*
X-1052173D03*
X-1049024D03*
X-1045874D03*
X-1055323Y755662D03*
X-1052173D03*
X-1049024D03*
X-1045874D03*
X-1055323Y773575D03*
X-1052173D03*
X-1049024D03*
X-1045874D03*
X-1055323Y771016D03*
X-1052173D03*
X-1049024D03*
X-1045874D03*
X-1055323Y768457D03*
X-1052173D03*
X-1049024D03*
X-1045874D03*
X-1055323Y788930D03*
X-1052173D03*
X-1049024D03*
X-1045874D03*
X-1055323Y786371D03*
X-1052173D03*
X-1049024D03*
X-1045874D03*
X-1055323Y783812D03*
X-1052173D03*
X-1049024D03*
X-1045874D03*
X-1055323Y781253D03*
X-1052173D03*
X-1049024D03*
X-1045874D03*
X-1055323Y799166D03*
X-1052173D03*
X-1049024D03*
X-1045874D03*
X-1055323Y796607D03*
X-1052173D03*
X-1049024D03*
X-1045874D03*
X-1055323Y794048D03*
X-1052173D03*
X-1049024D03*
X-1045874D03*
X-1055323Y791489D03*
X-1052173D03*
X-1049024D03*
X-1045874D03*
X-1055323Y804284D03*
X-1052173D03*
X-1049024D03*
X-1045874D03*
X-1055323Y801725D03*
X-1052173D03*
X-1049024D03*
X-1045874D03*
X-1042724Y753103D03*
X-1033276D03*
X-1042724Y750544D03*
X-1033276D03*
X-1042724Y765898D03*
X-1033276D03*
X-1042724Y763339D03*
X-1033276D03*
X-1042724Y760780D03*
X-1033276D03*
X-1042724Y758221D03*
X-1033276D03*
X-1042724Y755662D03*
X-1033276D03*
X-1042724Y773575D03*
X-1033276D03*
X-1042724Y771016D03*
X-1033276D03*
X-1042724Y768457D03*
X-1033276D03*
X-1042724Y788930D03*
X-1033276D03*
X-1042724Y786371D03*
X-1033276D03*
X-1042724Y783812D03*
X-1033276D03*
X-1042724Y781253D03*
X-1033276D03*
X-1042724Y799166D03*
X-1033276D03*
X-1042724Y796607D03*
X-1033276D03*
X-1042724Y794048D03*
X-1033276D03*
X-1042724Y791489D03*
X-1033276D03*
X-1042724Y804284D03*
X-1033276D03*
X-1042724Y801725D03*
X-1033276D03*
X-1030126Y753103D03*
X-1026976D03*
X-1023827D03*
X-1030126Y750544D03*
X-1026976D03*
X-1023827D03*
X-1030126Y765898D03*
X-1026976D03*
X-1023827D03*
X-1030126Y763339D03*
X-1026976D03*
X-1023827D03*
X-1030126Y760780D03*
X-1026976D03*
X-1023827D03*
X-1030126Y758221D03*
X-1026976D03*
X-1023827D03*
X-1030126Y755662D03*
X-1026976D03*
X-1023827D03*
X-1030126Y773575D03*
X-1026976D03*
X-1023827D03*
X-1030126Y771016D03*
X-1026976D03*
X-1023827D03*
X-1030126Y768457D03*
X-1026976D03*
X-1023827D03*
X-1030126Y788930D03*
X-1026976D03*
X-1023827D03*
X-1030126Y786371D03*
X-1026976D03*
X-1023827D03*
X-1030126Y783812D03*
X-1026976D03*
X-1023827D03*
X-1030126Y781253D03*
X-1026976D03*
X-1023827D03*
X-1030126Y799166D03*
X-1026976D03*
X-1023827D03*
X-1030126Y796607D03*
X-1026976D03*
X-1023827D03*
X-1030126Y794048D03*
X-1026976D03*
X-1023827D03*
X-1030126Y791489D03*
X-1026976D03*
X-1023827D03*
X-1030126Y804284D03*
X-1026976D03*
X-1023827D03*
X-1030126Y801725D03*
X-1026976D03*
X-1023827D03*
X-1020677Y753103D03*
Y750544D03*
Y765898D03*
Y763339D03*
Y760780D03*
Y758221D03*
Y755662D03*
Y773575D03*
Y771016D03*
Y768457D03*
Y788930D03*
Y786371D03*
Y783812D03*
Y781253D03*
Y799166D03*
Y796607D03*
Y794048D03*
Y791489D03*
Y804284D03*
Y801725D03*
G54D30*
X-1093453Y838117D03*
X-1095421D03*
X-1097390D03*
X-1099358D03*
X-1101327D03*
Y865283D03*
X-1099358D03*
X-1097390D03*
X-1095421D03*
X-1093453D03*
X-1081642Y838117D03*
X-1083610D03*
X-1085579D03*
X-1087547D03*
X-1089516D03*
X-1091484D03*
Y865283D03*
X-1089516D03*
X-1087547D03*
X-1085579D03*
X-1083610D03*
X-1081642D03*
X-1079673Y838117D03*
Y865283D03*
G54D12*
X-1221321Y665941D03*
X-1221330Y670041D03*
X-1213860Y670141D03*
X-1210218D03*
X-1213864Y665941D03*
X-1210222D03*
X-1217679D03*
X-1217688Y670041D03*
X-1218634Y676441D03*
X-1214992D03*
X-1218737Y692741D03*
X-1215095D03*
X-1218717Y696450D03*
X-1215075D03*
X-1211377Y761650D03*
X-1211417Y757950D03*
X-1211321Y769500D03*
X-1211165Y777350D03*
X-1211313Y773450D03*
X-1207735Y761650D03*
X-1207775Y757950D03*
X-1207679Y769500D03*
X-1207523Y777350D03*
X-1207671Y773450D03*
X-1198480Y882050D03*
Y885850D03*
X-1194838Y882050D03*
Y885850D03*
X-1174743Y719741D03*
X-1171101D03*
X-1148421Y680000D03*
X-1144779D03*
X-1112002Y820850D03*
X-1108360D03*
X-1111880Y816250D03*
X-1108238D03*
X-1069821Y840200D03*
X-1066179D03*
X-1059809Y844278D03*
X-1064089Y868350D03*
X-1060447D03*
X-1056167Y844278D03*
X-988585Y747150D03*
X-984943D03*
X-985827Y813841D03*
X-982185D03*
X-957821Y843200D03*
X-954179D03*
X-957821Y839300D03*
X-954179D03*
G54D21*
X-1185250Y797820D03*
Y801462D03*
X-1188700Y819179D03*
Y822821D03*
Y830479D03*
Y834121D03*
X-1194850Y889820D03*
Y893462D03*
X-1176241Y798038D03*
Y801680D03*
X-1180641Y809435D03*
Y813077D03*
X-1184641Y809449D03*
Y813091D03*
X-1172741Y809446D03*
Y813088D03*
X-1164450Y809455D03*
Y813097D03*
X-1166100Y856079D03*
Y859721D03*
X-1083400Y820479D03*
Y824121D03*
X-1079400Y815479D03*
Y819121D03*
X-1048750Y737482D03*
Y741124D03*
X-1044750Y737482D03*
Y741124D03*
X-1056200Y848079D03*
Y851721D03*
X-1034050Y736282D03*
Y739924D03*
X-1030050Y736282D03*
Y739924D03*
X-1023000Y833179D03*
Y836821D03*
X-1028317Y881524D03*
Y885166D03*
X-1013241Y789433D03*
Y793075D03*
X-1013000Y833679D03*
Y837321D03*
X-998841Y833518D03*
X-1005950Y833487D03*
X-998841Y837160D03*
X-1005950Y837129D03*
X-994200Y879679D03*
Y883321D03*
X-994100Y888179D03*
Y891821D03*
X-990300Y888179D03*
Y891821D03*
X-952100Y726034D03*
Y729676D03*
G54D22*
X-1179600Y822600D03*
X-1181800D03*
X-1179400Y833500D03*
X-1181600D03*
X-1179400Y831000D03*
X-1181600D03*
X-1179400Y841200D03*
X-1181600D03*
X-1179300Y846100D03*
X-1181500D03*
X-1070420Y836650D03*
X-1068400Y851700D03*
X-1070600D03*
X-1068220Y836650D03*
X-1046542Y713350D03*
X-1044342D03*
X-1033400Y724600D03*
Y721700D03*
X-1031200Y724600D03*
Y721700D03*
X-1023568Y885659D03*
X-1010400Y762500D03*
X-1012600D03*
X-1010400Y758000D03*
X-1012600D03*
X-1021368Y885659D03*
X-1002400Y805859D03*
X-1004600D03*
X-1002400Y810359D03*
X-1004600D03*
X-1002400Y814759D03*
X-1004600D03*
X-978729Y769344D03*
X-980929D03*
X-979882Y854759D03*
X-982082D03*
G54D31*
X-1100543Y889942D03*
X-1043457D03*
G54D13*
X-1222559Y676459D03*
X-1226201D03*
X-1222456Y692759D03*
X-1226098D03*
X-1222451Y696450D03*
X-1226093D03*
X-1211369Y765550D03*
X-1211181Y781250D03*
X-1207727Y765550D03*
X-1207539Y781250D03*
X-1179179Y819300D03*
X-1182821D03*
X-1178779Y827500D03*
X-1182421D03*
X-1156079Y685200D03*
X-1159721D03*
X-1104340Y820750D03*
X-1104262Y816250D03*
X-1100698Y820750D03*
X-1100620Y816250D03*
X-1069821Y848200D03*
Y844200D03*
X-1066179Y848200D03*
Y844200D03*
X-1060907Y852350D03*
X-1064549D03*
X-1044678Y813220D03*
X-1049645Y862159D03*
X-1053287D03*
X-1049642Y866159D03*
X-1053284D03*
X-1033604Y813180D03*
X-1037246D03*
X-1041036Y813220D03*
X-1027679Y826900D03*
X-1031321D03*
X-1024523Y881659D03*
X-1012624Y766250D03*
X-1020881Y881659D03*
X-1008982Y766250D03*
X-988562Y743250D03*
X-986498Y858750D03*
X-990140D03*
X-986620Y854750D03*
X-990262D03*
X-980920Y739050D03*
X-984562D03*
X-977219Y743250D03*
X-980861D03*
X-984920D03*
X-977798Y765850D03*
X-981440D03*
X-956195Y867622D03*
X-959837D03*
G54D40*
X-1038199Y864463D03*
G54D23*
X-1175000Y846900D03*
Y849100D03*
X-1170500Y846900D03*
X-1167500D03*
X-1170500Y849100D03*
X-1167500D03*
X-1103750Y719059D03*
X-1109841D03*
X-1103750Y711359D03*
Y713559D03*
X-1106950Y719059D03*
Y711359D03*
Y713559D03*
X-1103750Y721259D03*
X-1109841D03*
X-1106950D03*
X-1097550Y719059D03*
X-1091850D03*
X-1094650D03*
X-1100541Y711359D03*
Y713559D03*
X-1100450Y719059D03*
X-1097360Y711359D03*
Y713559D03*
X-1094550Y711359D03*
Y713559D03*
X-1097550Y721259D03*
X-1091850D03*
X-1094650D03*
X-1100450D03*
X-1093250Y828836D03*
Y831036D03*
X-1097550Y828840D03*
Y831040D03*
X-1091650Y711359D03*
Y713559D03*
X-1080050Y711359D03*
Y713559D03*
X-1082950Y719059D03*
X-1085850D03*
X-1082950Y711359D03*
Y713559D03*
X-1088650Y711359D03*
Y713559D03*
X-1085850Y711359D03*
Y713559D03*
X-1088850Y719059D03*
X-1082950Y721259D03*
X-1085850D03*
X-1088850D03*
X-1085050Y828828D03*
Y831028D03*
X-1089250Y828832D03*
Y831032D03*
X-1081460Y828919D03*
Y831119D03*
X-1074450Y719059D03*
X-1068750Y711341D03*
Y713541D03*
X-1077250Y719059D03*
X-1077350Y711359D03*
Y713559D03*
X-1074460Y711359D03*
Y713559D03*
X-1079950Y719059D03*
X-1071750Y711359D03*
Y713559D03*
X-1071650Y719059D03*
X-1068741Y719041D03*
X-1074450Y721259D03*
X-1077250D03*
X-1079950D03*
X-1071650D03*
X-1068741Y721241D03*
X-1026500Y834900D03*
Y837100D03*
X-1010128Y778250D03*
Y780450D03*
X-1014000Y778330D03*
Y780530D03*
X-1007428Y778250D03*
Y780450D03*
X-1004728Y778250D03*
Y780450D03*
X-1009841Y790178D03*
Y792378D03*
X-992450Y766836D03*
Y769036D03*
X-989450Y766840D03*
Y769040D03*
X-991150Y805644D03*
Y807844D03*
X-988150Y805652D03*
Y807852D03*
X-986350Y766848D03*
Y769048D03*
X-985350Y805656D03*
Y807856D03*
G54D50*
X-1011430Y685108D03*
X-1014973D03*
X-1018517D03*
Y729892D03*
X-1014973D03*
X-1011430D03*
X-1000800Y685108D03*
X-1004343D03*
X-1007887D03*
Y729892D03*
X-1004343D03*
X-1000800D03*
X-986627Y685108D03*
X-990170D03*
X-993713D03*
X-997257D03*
Y729892D03*
X-993713D03*
X-990170D03*
X-986627D03*
X-983083Y685108D03*
Y729892D03*
G54D32*
X-1100543Y913564D03*
X-1043457D03*
G54D41*
X-1040179Y867045D03*
Y873490D03*
G54D14*
X-1222559Y683832D03*
Y680190D03*
X-1218659Y683833D03*
Y680191D03*
X-1188559Y813047D03*
Y809405D03*
X-1176759Y813061D03*
Y809419D03*
X-1168559Y813058D03*
Y809416D03*
X-1160419Y813069D03*
Y809427D03*
X-1072800Y831921D03*
Y828279D03*
X-1069550Y858038D03*
Y861680D03*
X-1065653Y877620D03*
Y873978D03*
X-996900Y746921D03*
Y743279D03*
X-981850Y809253D03*
Y805611D03*
X-971140Y871302D03*
Y867660D03*
X-967340Y871302D03*
Y867660D03*
X-963540Y871302D03*
Y867660D03*
X-964800Y879621D03*
Y875979D03*
G54D33*
X-1081843Y886950D03*
X-1083811D03*
X-1085780D03*
X-1087748D03*
X-1089717D03*
X-1070031D03*
X-1072000D03*
X-1073969D03*
X-1075937D03*
X-1077906D03*
X-1079874D03*
X-1058220D03*
X-1060189D03*
X-1062157D03*
X-1064126D03*
X-1066094D03*
X-1068063D03*
X-1054283D03*
X-1056252D03*
G54D42*
X-1038199Y868211D03*
G54D60*
X-989098Y787417D03*
G54D24*
X-1175223Y906050D03*
Y920224D03*
X-1167821Y906050D03*
Y920224D03*
G54D15*
X-1222459Y689516D03*
Y687316D03*
X-1218759Y689513D03*
Y687313D03*
X-1198150Y892456D03*
Y890256D03*
X-1172650Y799876D03*
Y797676D03*
X-1172000Y820600D03*
Y818400D03*
X-1162500Y820600D03*
Y818400D03*
X-1128700Y719100D03*
Y721300D03*
X-1117400Y719000D03*
X-1120200D03*
X-1117400Y721200D03*
X-1120200D03*
X-1109800Y713600D03*
Y711400D03*
X-1097450Y822759D03*
X-1093150D03*
X-1097450Y824959D03*
X-1093150D03*
X-1090150Y822759D03*
X-1087150D03*
X-1083450Y816759D03*
Y814559D03*
X-1090150Y824959D03*
X-1087150D03*
X-1073450Y822759D03*
X-1076650D03*
X-1079650D03*
X-1073450Y824959D03*
X-1076650D03*
X-1079650D03*
X-1077000Y831200D03*
Y829000D03*
X-1010159Y775600D03*
Y773400D03*
X-1007459Y775600D03*
Y773400D03*
X-1004759Y775600D03*
Y773400D03*
X-969750Y693327D03*
Y691127D03*
X-964677Y695527D03*
Y693327D03*
X-968600Y878600D03*
Y876400D03*
X-956897Y693327D03*
Y691127D03*
G54D51*
X-1011823Y743300D03*
X-1002177D03*
G54D52*
X-1014159Y880544D03*
Y886844D03*
X-1002084Y880531D03*
Y886831D03*
G54D61*
X-996738Y846861D03*
Y859459D03*
Y857885D03*
Y856310D03*
Y854735D03*
Y853160D03*
Y851585D03*
Y850011D03*
Y848436D03*
Y870483D03*
Y868908D03*
Y867333D03*
Y865759D03*
Y864184D03*
Y862609D03*
Y861034D03*
G54D34*
X-1059752Y857431D03*
X-1064574D03*
X-1059752Y863829D03*
X-1064574D03*
G54D70*
X-968965Y841100D03*
G54D43*
X-1036990Y873486D03*
G54D25*
X-1162639Y680041D03*
X-1153191D03*
G54D16*
X-1209575Y729671D03*
Y728096D03*
X-1211150Y728883D03*
X-1212725Y729671D03*
Y728096D03*
X-1209575Y741884D03*
Y740309D03*
Y738735D03*
Y737160D03*
X-1211150Y741097D03*
Y737947D03*
X-1212725Y741884D03*
Y740309D03*
Y738735D03*
Y737160D03*
X-1209575Y732820D03*
Y731245D03*
X-1211150Y732033D03*
X-1212725Y732820D03*
Y731245D03*
X-1209575Y750602D03*
Y749027D03*
Y747453D03*
Y745878D03*
X-1211150Y749815D03*
Y746665D03*
X-1212725Y750602D03*
Y749027D03*
Y747453D03*
Y745878D03*
X-1209575Y807266D03*
Y805691D03*
Y804117D03*
Y802542D03*
X-1211150Y806479D03*
Y803329D03*
X-1212725Y807266D03*
Y805691D03*
Y804117D03*
Y802542D03*
X-1209575Y824401D03*
X-1212725D03*
X-1209575Y818343D03*
Y816768D03*
Y815194D03*
Y813619D03*
X-1211150Y817556D03*
Y814406D03*
X-1212725Y818343D03*
Y816768D03*
Y815194D03*
Y813619D03*
X-1209575Y829125D03*
Y827550D03*
Y825976D03*
X-1211150Y828338D03*
Y825188D03*
X-1212725Y829125D03*
Y827550D03*
Y825976D03*
G54D62*
X-989278Y865183D03*
X-982978D03*
G54D44*
X-1031507Y913827D03*
Y921229D03*
X-1017333Y913827D03*
Y921229D03*
G54D26*
X-1158296Y851941D03*
Y855878D03*
Y859815D03*
Y863752D03*
Y867689D03*
Y871626D03*
Y875563D03*
Y879500D03*
Y883437D03*
Y887374D03*
Y891311D03*
Y895248D03*
Y899185D03*
Y903122D03*
Y907059D03*
X-1145304Y859815D03*
Y855878D03*
Y851941D03*
Y871626D03*
Y867689D03*
Y863752D03*
Y883437D03*
Y879500D03*
Y875563D03*
Y891311D03*
Y887374D03*
Y903122D03*
Y899185D03*
Y895248D03*
Y907059D03*
X-1133487Y851941D03*
Y855878D03*
Y859815D03*
Y863752D03*
Y867689D03*
Y871626D03*
Y875563D03*
Y879500D03*
Y883437D03*
Y887374D03*
Y891311D03*
Y895248D03*
Y899185D03*
Y903122D03*
Y907059D03*
X-1120495Y859815D03*
Y855878D03*
Y851941D03*
Y871626D03*
Y867689D03*
Y863752D03*
Y883437D03*
Y879500D03*
Y875563D03*
Y891311D03*
Y887374D03*
Y903122D03*
Y899185D03*
Y895248D03*
Y907059D03*
G54D35*
X-1060844Y877502D03*
X-1058876D03*
Y873958D03*
X-1060844D03*
X-1054938Y877502D03*
X-1052970D03*
Y873958D03*
X-1054938D03*
G54D71*
X-963690Y839891D03*
G54D17*
X-1198727Y680374D03*
X-1200695D03*
X-1202664D03*
Y714626D03*
X-1200695D03*
X-1198727D03*
X-1186916Y680374D03*
X-1188884D03*
X-1190853D03*
X-1192821D03*
X-1194790D03*
X-1196758D03*
Y714626D03*
X-1194790D03*
X-1192821D03*
X-1190853D03*
X-1188884D03*
X-1186916D03*
X-1175105Y680374D03*
X-1177073D03*
X-1179042D03*
X-1181010D03*
X-1182979D03*
X-1184947D03*
Y714626D03*
X-1182979D03*
X-1181010D03*
X-1179042D03*
X-1177073D03*
X-1175105D03*
X-1173136Y680374D03*
Y714626D03*
G54D53*
X-1019800Y891800D03*
X-1013800D03*
X-971737Y826241D03*
X-965737D03*
X-971737Y832041D03*
X-965737D03*
G54D36*
X-1056907Y877502D03*
Y873958D03*
G54D45*
X-1023192Y689783D03*
Y693327D03*
Y696870D03*
Y700413D03*
Y703957D03*
Y707500D03*
Y711043D03*
Y714587D03*
Y718130D03*
Y721673D03*
Y725217D03*
X-978408Y693327D03*
Y689783D03*
Y707500D03*
Y703957D03*
Y700413D03*
Y696870D03*
Y718130D03*
Y714587D03*
Y711043D03*
Y725217D03*
Y721673D03*
G54D63*
X-996640Y902303D03*
X-994671D03*
X-992703D03*
X-990734D03*
X-988766D03*
X-986797D03*
X-984829D03*
X-982860D03*
G54D72*
X-966471Y894945D03*
X-962971Y886945D03*
X-969971D03*
G54D27*
X-1113166Y825275D03*
X-1104110D03*
Y832559D03*
X-1113166D03*
X-1048826Y718521D03*
Y725805D03*
X-1039770Y718521D03*
Y725805D03*
X-987828Y752658D03*
Y759942D03*
X-978772Y752658D03*
Y759942D03*
G54D18*
X-1205026Y682736D03*
Y684705D03*
Y686673D03*
Y688642D03*
Y690610D03*
Y692579D03*
Y694547D03*
Y696516D03*
Y698484D03*
Y700453D03*
Y702421D03*
Y704390D03*
Y706358D03*
Y708327D03*
Y710295D03*
Y712264D03*
X-1170774Y682736D03*
Y694547D03*
Y692579D03*
Y690610D03*
Y688642D03*
Y686673D03*
Y684705D03*
Y706358D03*
Y704390D03*
Y702421D03*
Y700453D03*
Y698484D03*
Y696516D03*
Y712264D03*
Y710295D03*
Y708327D03*
G54D54*
X-1004343Y693327D03*
X-997257D03*
X-990170D03*
G54D46*
X-1022328Y843318D03*
X-1023903D03*
X-1011305D03*
X-1012879D03*
X-1014454D03*
X-1016029D03*
X-1017604D03*
X-1019179D03*
X-1020753D03*
X-1000281D03*
X-1001856D03*
X-1003431D03*
X-1005005D03*
X-1006580D03*
X-1008155D03*
X-1009730D03*
G54D64*
X-980500Y877000D03*
Y893000D03*
G54D55*
X-998800Y891800D03*
X-1004800D03*
G54D19*
X-1187900Y697500D03*
G54D73*
X-953970Y709387D03*
X-950230D03*
G54D28*
X-1104083Y840873D03*
Y842842D03*
Y844810D03*
Y846779D03*
Y848747D03*
Y850716D03*
Y852684D03*
Y854653D03*
Y856621D03*
Y858590D03*
Y860558D03*
Y862527D03*
X-1076917Y846779D03*
Y844810D03*
Y842842D03*
Y840873D03*
Y858590D03*
Y856621D03*
Y854653D03*
Y852684D03*
Y850716D03*
Y848747D03*
Y862527D03*
Y860558D03*
G54D37*
X-1053750Y734301D03*
Y740301D03*
X-1039250Y734801D03*
Y740801D03*
X-1018000Y830500D03*
Y836500D03*
X-976341Y861963D03*
Y867963D03*
G54D56*
X-1006679Y904665D03*
Y921201D03*
X-972821Y904665D03*
Y921201D03*
G54D29*
X-1090500Y851700D03*
G54D65*
X-970167Y680010D03*
X-958553D03*
G54D47*
X-1027446Y846861D03*
Y848436D03*
Y850011D03*
Y851585D03*
Y853160D03*
Y854735D03*
Y856310D03*
Y857885D03*
Y859459D03*
Y861034D03*
Y862609D03*
Y864184D03*
Y865759D03*
Y867333D03*
Y868908D03*
Y870483D03*
G54D38*
X-1046400Y826900D03*
X-1046408Y834741D03*
X-1039400Y826900D03*
X-1039408Y834741D03*
X-987664Y819817D03*
X-987459Y827817D03*
X-980664Y819817D03*
X-980459Y827817D03*
G54D74*
X-952100Y720213D03*
G54D57*
X-1002348Y902303D03*
X-999199D03*
X-980301D03*
X-976955D03*
G54D39*
X-1041945Y842238D03*
Y856018D03*
X-983924Y835407D03*
Y849187D03*
G54D48*
X-1012092Y858672D03*
G54D75*
X-951256Y884159D03*
X-957756D03*
X-951306Y892159D03*
X-957806D03*
G54D66*
X-964360Y686211D03*
G54D76*
X-957676Y877403D03*
G54D49*
X-1023903Y874026D03*
X-1022328D03*
X-1020753D03*
X-1019179D03*
X-1017604D03*
X-1016029D03*
X-1014454D03*
X-1012879D03*
X-1011305D03*
X-1009730D03*
X-1008155D03*
X-1006580D03*
X-1005005D03*
X-1003431D03*
X-1001856D03*
X-1000281D03*
G54D58*
X-995656Y920217D03*
X-983844D03*
G54D67*
X-968392Y749191D03*
Y753128D03*
Y757065D03*
Y761002D03*
Y764939D03*
Y768876D03*
Y772813D03*
Y776750D03*
Y780687D03*
Y784624D03*
Y788561D03*
Y792498D03*
Y796435D03*
Y800372D03*
Y804309D03*
X-955400Y753128D03*
Y749191D03*
Y764939D03*
Y761002D03*
Y757065D03*
Y776750D03*
Y772813D03*
Y768876D03*
Y788561D03*
Y784624D03*
Y780687D03*
Y800372D03*
Y796435D03*
Y792498D03*
Y804309D03*
G54D59*
X-996598Y775626D03*
X-991598D03*
X-986598D03*
Y799208D03*
X-991598D03*
X-996598D03*
X-981598Y775626D03*
Y799208D03*
G54D77*
X-955707Y872521D03*
X-959645D03*
G54D68*
X-972713Y841100D03*
G54D78*
G01X-1280646Y662339D02*
G03X-1268835Y650528I11811J0D01*
G01X-1280646Y915189D02*
Y662339D01*
G01X-1268835Y927000D02*
G03X-1280646Y915189I0J-11811D01*
G01X-1268835Y650528D02*
X-957811D01*
G01Y927000D02*
X-1268835D01*
G01X-1182926Y664307D02*
G03I-5200J0D01*
G01Y857220D02*
G03I-5200J0D01*
G01Y913220D02*
G03I-5200J0D01*
G01X-954580Y664307D02*
G03I-5200J0D01*
G01Y857220D02*
G03I-5200J0D01*
G01Y913220D02*
G03I-5200J0D01*
G01X-957811Y650528D02*
G03X-946000Y662339I0J11811D01*
G01Y915189D02*
G03X-957811Y927000I-11811J0D01*
G01X-946000Y662339D02*
Y915189D01*
G54D69*
X-970131Y843080D03*
X-963686D03*
G54D79*
G01X-1280646Y662339D02*
Y915189D01*
G02X-1268835Y927000I11811J0D01*
G01X-957811D01*
G02X-946000Y915189I0J-11811D01*
G01Y662339D01*
G02X-957811Y650528I-11811J0D01*
G01X-1268835D01*
G02X-1280646Y662339I0J11811D01*
M02*
