G04 ================== begin FILE IDENTIFICATION RECORD ==================*
G04 Layout Name:  BeagleV_15.brd*
G04 Film Name:    paste_bottom*
G04 File Format:  Gerber RS274X*
G04 File Origin:  Cadence Allegro 17.2-061*
G04 Origin Date:  Wed Apr 21 13:44:33 2021*
G04 *
G04 Layer:  PACKAGE GEOMETRY/PASTEMASK_BOTTOM*
G04 Layer:  PIN/PASTEMASK_BOTTOM*
G04 Layer:  BOARD GEOMETRY/OUTLINE*
G04 *
G04 Offset:    (0.00 0.00)*
G04 Mirror:    No*
G04 Mode:      Positive*
G04 Rotation:  0*
G04 FullContactRelief:  No*
G04 UndefLineWidth:     4.00*
G04 ================== end FILE IDENTIFICATION RECORD ====================*
%FSLAX25Y25*MOIN*%
%IR0*IPPOS*OFA0.00000B0.00000*MIA0B0*SFA1.00000B1.00000*%
%AMMACRO23*
4,1,40,.00625,.0035,
.00625,-.0035,
.00622,-.003847,
.006129,-.004184,
.005982,-.0045,
.005782,-.004786,
.005536,-.005032,
.00525,-.005232,
.004934,-.005379,
.004597,-.00547,
.00425,-.0055,
-.00425,-.0055,
-.004597,-.00547,
-.004934,-.005379,
-.00525,-.005232,
-.005536,-.005032,
-.005782,-.004786,
-.005982,-.0045,
-.006129,-.004184,
-.00622,-.003847,
-.00625,-.0035,
-.00625,.0035,
-.00622,.003847,
-.006129,.004184,
-.005982,.0045,
-.005782,.004786,
-.005536,.005032,
-.00525,.005232,
-.004934,.005379,
-.004597,.00547,
-.00425,.0055,
.00425,.0055,
.004597,.00547,
.004934,.005379,
.00525,.005232,
.005536,.005032,
.005782,.004786,
.005982,.0045,
.006129,.004184,
.00622,.003847,
.00625,.0035,
0.0*
%
%ADD23MACRO23*%
%AMMACRO20*
4,1,40,.0035,-.00625,
-.0035,-.00625,
-.003847,-.00622,
-.004184,-.006129,
-.0045,-.005982,
-.004786,-.005782,
-.005032,-.005536,
-.005232,-.00525,
-.005379,-.004934,
-.00547,-.004597,
-.0055,-.00425,
-.0055,.00425,
-.00547,.004597,
-.005379,.004934,
-.005232,.00525,
-.005032,.005536,
-.004786,.005782,
-.0045,.005982,
-.004184,.006129,
-.003847,.00622,
-.0035,.00625,
.0035,.00625,
.003847,.00622,
.004184,.006129,
.0045,.005982,
.004786,.005782,
.005032,.005536,
.005232,.00525,
.005379,.004934,
.00547,.004597,
.0055,.00425,
.0055,-.00425,
.00547,-.004597,
.005379,-.004934,
.005232,-.00525,
.005032,-.005536,
.004786,-.005782,
.0045,-.005982,
.004184,-.006129,
.003847,-.00622,
.0035,-.00625,
0.0*
%
%ADD20MACRO20*%
%AMMACRO41*
4,1,44,-.01181,.01968,
.01181,.01968,
.013177,.019566,
.014502,.019212,
.015746,.018633,
.01687,.017847,
.017841,.016878,
.018628,.015754,
.019209,.014511,
.019565,.013187,
.019685,.01182,
.01968,.01181,
.01968,-.01181,
.019566,-.013177,
.019212,-.014502,
.018633,-.015746,
.017847,-.01687,
.016878,-.017841,
.015754,-.018628,
.014511,-.019209,
.013187,-.019565,
.01182,-.019685,
.01181,-.01968,
-.01181,-.01968,
-.013177,-.019566,
-.014502,-.019212,
-.015746,-.018633,
-.01687,-.017847,
-.017841,-.016878,
-.018628,-.015754,
-.019209,-.014511,
-.019565,-.013187,
-.019685,-.01182,
-.01968,-.01181,
-.01968,.01181,
-.019566,.013177,
-.019212,.014502,
-.018633,.015746,
-.017847,.01687,
-.016878,.017841,
-.015754,.018628,
-.014511,.019209,
-.013187,.019565,
-.01182,.019685,
-.01181,.01968,
0.0*
%
%ADD41MACRO41*%
%AMMACRO12*
4,1,44,-.00984,-.00787,
-.00984,.00787,
-.009816,.008212,
-.009728,.008544,
-.009584,.008856,
-.009387,.009137,
-.009145,.009381,
-.008864,.009579,
-.008553,.009724,
-.008222,.009814,
-.00788,.009845,
-.00787,.00984,
.00787,.00984,
.008212,.009816,
.008544,.009728,
.008856,.009584,
.009137,.009387,
.009381,.009145,
.009579,.008864,
.009724,.008553,
.009814,.008222,
.009845,.00788,
.00984,.00787,
.00984,-.00787,
.009816,-.008212,
.009728,-.008544,
.009584,-.008856,
.009387,-.009137,
.009145,-.009381,
.008864,-.009579,
.008553,-.009724,
.008222,-.009814,
.00788,-.009845,
.00787,-.00984,
-.00787,-.00984,
-.008212,-.009816,
-.008544,-.009728,
-.008856,-.009584,
-.009137,-.009387,
-.009381,-.009145,
-.009579,-.008864,
-.009724,-.008553,
-.009814,-.008222,
-.009845,-.00788,
-.00984,-.00787,
0.0*
%
%ADD12MACRO12*%
%AMMACRO24*
4,1,44,-.00787,.00984,
.00787,.00984,
.008212,.009816,
.008544,.009728,
.008856,.009584,
.009137,.009387,
.009381,.009145,
.009579,.008864,
.009724,.008553,
.009814,.008222,
.009845,.00788,
.00984,.00787,
.00984,-.00787,
.009816,-.008212,
.009728,-.008544,
.009584,-.008856,
.009387,-.009137,
.009145,-.009381,
.008864,-.009579,
.008553,-.009724,
.008222,-.009814,
.00788,-.009845,
.00787,-.00984,
-.00787,-.00984,
-.008212,-.009816,
-.008544,-.009728,
-.008856,-.009584,
-.009137,-.009387,
-.009381,-.009145,
-.009579,-.008864,
-.009724,-.008553,
-.009814,-.008222,
-.009845,-.00788,
-.00984,-.00787,
-.00984,.00787,
-.009816,.008212,
-.009728,.008544,
-.009584,.008856,
-.009387,.009137,
-.009145,.009381,
-.008864,.009579,
-.008553,.009724,
-.008222,.009814,
-.00788,.009845,
-.00787,.00984,
0.0*
%
%ADD24MACRO24*%
%AMMACRO48*
4,1,40,.01606,-.0275,
-.01606,-.0275,
-.016744,-.02744,
-.017408,-.027262,
-.01803,-.026972,
-.018593,-.026578,
-.019078,-.026093,
-.019472,-.02553,
-.019762,-.024908,
-.01994,-.024244,
-.02,-.02356,
-.02,.02356,
-.01994,.024244,
-.019762,.024908,
-.019472,.02553,
-.019078,.026093,
-.018593,.026578,
-.01803,.026972,
-.017408,.027262,
-.016744,.02744,
-.01606,.0275,
.01606,.0275,
.016744,.02744,
.017408,.027262,
.01803,.026972,
.018593,.026578,
.019078,.026093,
.019472,.02553,
.019762,.024908,
.01994,.024244,
.02,.02356,
.02,-.02356,
.01994,-.024244,
.019762,-.024908,
.019472,-.02553,
.019078,-.026093,
.018593,-.026578,
.01803,-.026972,
.017408,-.027262,
.016744,-.02744,
.01606,-.0275,
0.0*
%
%ADD48MACRO48*%
%AMMACRO32*
4,1,40,.01356,-.0175,
-.01356,-.0175,
-.014244,-.01744,
-.014908,-.017262,
-.01553,-.016972,
-.016093,-.016578,
-.016578,-.016093,
-.016972,-.01553,
-.017262,-.014908,
-.01744,-.014244,
-.0175,-.01356,
-.0175,.01356,
-.01744,.014244,
-.017262,.014908,
-.016972,.01553,
-.016578,.016093,
-.016093,.016578,
-.01553,.016972,
-.014908,.017262,
-.014244,.01744,
-.01356,.0175,
.01356,.0175,
.014244,.01744,
.014908,.017262,
.01553,.016972,
.016093,.016578,
.016578,.016093,
.016972,.01553,
.017262,.014908,
.01744,.014244,
.0175,.01356,
.0175,-.01356,
.01744,-.014244,
.017262,-.014908,
.016972,-.01553,
.016578,-.016093,
.016093,-.016578,
.01553,-.016972,
.014908,-.017262,
.014244,-.01744,
.01356,-.0175,
0.0*
%
%ADD32MACRO32*%
%AMMACRO30*
4,1,40,.0175,.01356,
.0175,-.01356,
.01744,-.014244,
.017262,-.014908,
.016972,-.01553,
.016578,-.016093,
.016093,-.016578,
.01553,-.016972,
.014908,-.017262,
.014244,-.01744,
.01356,-.0175,
-.01356,-.0175,
-.014244,-.01744,
-.014908,-.017262,
-.01553,-.016972,
-.016093,-.016578,
-.016578,-.016093,
-.016972,-.01553,
-.017262,-.014908,
-.01744,-.014244,
-.0175,-.01356,
-.0175,.01356,
-.01744,.014244,
-.017262,.014908,
-.016972,.01553,
-.016578,.016093,
-.016093,.016578,
-.01553,.016972,
-.014908,.017262,
-.014244,.01744,
-.01356,.0175,
.01356,.0175,
.014244,.01744,
.014908,.017262,
.01553,.016972,
.016093,.016578,
.016578,.016093,
.016972,.01553,
.017262,.014908,
.01744,.014244,
.0175,.01356,
0.0*
%
%ADD30MACRO30*%
%AMMACRO51*
4,1,44,.01574,-.01575,
-.01574,-.01575,
-.016424,-.015691,
-.017088,-.015514,
-.017711,-.015225,
-.018274,-.014831,
-.01876,-.014346,
-.019155,-.013784,
-.019446,-.013162,
-.019624,-.012499,
-.019685,-.011815,
-.01968,-.01181,
-.01968,.01181,
-.019625,.012494,
-.019447,.013158,
-.019157,.01378,
-.018763,.014343,
-.018278,.014828,
-.017715,.015222,
-.017093,.015512,
-.016429,.01569,
-.015745,.01575,
-.01574,.01575,
.01574,.01575,
.016424,.015691,
.017088,.015514,
.017711,.015225,
.018274,.014831,
.01876,.014346,
.019155,.013784,
.019446,.013162,
.019624,.012499,
.019685,.011815,
.01968,.01181,
.01968,-.01181,
.019625,-.012494,
.019447,-.013158,
.019157,-.01378,
.018763,-.014343,
.018278,-.014828,
.017715,-.015222,
.017093,-.015512,
.016429,-.01569,
.015745,-.01575,
.01574,-.01575,
0.0*
%
%ADD51MACRO51*%
%AMMACRO33*
4,1,44,.01575,.01574,
.01575,-.01574,
.015691,-.016424,
.015514,-.017088,
.015225,-.017711,
.014831,-.018274,
.014346,-.01876,
.013784,-.019155,
.013162,-.019446,
.012499,-.019624,
.011815,-.019685,
.01181,-.01968,
-.01181,-.01968,
-.012494,-.019625,
-.013158,-.019447,
-.01378,-.019157,
-.014343,-.018763,
-.014828,-.018278,
-.015222,-.017715,
-.015512,-.017093,
-.01569,-.016429,
-.01575,-.015745,
-.01575,-.01574,
-.01575,.01574,
-.015691,.016424,
-.015514,.017088,
-.015225,.017711,
-.014831,.018274,
-.014346,.01876,
-.013784,.019155,
-.013162,.019446,
-.012499,.019624,
-.011815,.019685,
-.01181,.01968,
.01181,.01968,
.012494,.019625,
.013158,.019447,
.01378,.019157,
.014343,.018763,
.014828,.018278,
.015222,.017715,
.015512,.017093,
.01569,.016429,
.01575,.015745,
.01575,.01574,
0.0*
%
%ADD33MACRO33*%
%AMMACRO11*
4,1,44,.0059,-.01181,
-.0059,-.01181,
-.006242,-.011781,
-.006574,-.011693,
-.006886,-.011549,
-.007167,-.011352,
-.007411,-.01111,
-.007609,-.010829,
-.007754,-.010518,
-.007844,-.010187,
-.007875,-.009845,
-.00787,-.00984,
-.00787,.00984,
-.007845,.010182,
-.007756,.010514,
-.007611,.010825,
-.007414,.011106,
-.007171,.011349,
-.00689,.011546,
-.006579,.011691,
-.006247,.01178,
-.005905,.01181,
-.0059,.01181,
.0059,.01181,
.006242,.011781,
.006574,.011693,
.006886,.011549,
.007167,.011352,
.007411,.01111,
.007609,.010829,
.007754,.010518,
.007844,.010187,
.007875,.009845,
.00787,.00984,
.00787,-.00984,
.007845,-.010182,
.007756,-.010514,
.007611,-.010825,
.007414,-.011106,
.007171,-.011349,
.00689,-.011546,
.006579,-.011691,
.006247,-.01178,
.005905,-.01181,
.0059,-.01181,
0.0*
%
%ADD11MACRO11*%
%AMMACRO25*
4,1,44,-.09153,.10334,
.09153,.10334,
.093581,.103166,
.09557,.102634,
.097436,.101765,
.099122,.100585,
.100579,.09913,
.10176,.097444,
.102631,.095579,
.103165,.093591,
.103345,.09154,
.10334,.09153,
.10334,-.09153,
.103166,-.093581,
.102634,-.09557,
.101765,-.097436,
.100585,-.099122,
.09913,-.100579,
.097444,-.10176,
.095579,-.102631,
.093591,-.103165,
.09154,-.103345,
.09153,-.10334,
-.09153,-.10334,
-.093581,-.103166,
-.09557,-.102634,
-.097436,-.101765,
-.099122,-.100585,
-.100579,-.09913,
-.10176,-.097444,
-.102631,-.095579,
-.103165,-.093591,
-.103345,-.09154,
-.10334,-.09153,
-.10334,.09153,
-.103166,.093581,
-.102634,.09557,
-.101765,.097436,
-.100585,.099122,
-.09913,.100579,
-.097444,.10176,
-.095579,.102631,
-.093591,.103165,
-.09154,.103345,
-.09153,.10334,
0.0*
%
%ADD25MACRO25*%
%ADD38O,.00787X.02756*%
%AMMACRO39*
4,1,44,.0059,-.01378,
-.0059,-.01378,
-.006242,-.013751,
-.006574,-.013663,
-.006886,-.013519,
-.007167,-.013322,
-.007411,-.01308,
-.007609,-.012799,
-.007754,-.012488,
-.007844,-.012157,
-.007875,-.011815,
-.00787,-.01181,
-.00787,.01181,
-.007845,.012152,
-.007756,.012484,
-.007611,.012795,
-.007414,.013076,
-.007171,.013319,
-.00689,.013516,
-.006579,.013661,
-.006247,.01375,
-.005905,.01378,
-.0059,.01378,
.0059,.01378,
.006242,.013751,
.006574,.013663,
.006886,.013519,
.007167,.013322,
.007411,.01308,
.007609,.012799,
.007754,.012488,
.007844,.012157,
.007875,.011815,
.00787,.01181,
.00787,-.01181,
.007845,-.012152,
.007756,-.012484,
.007611,-.012795,
.007414,-.013076,
.007171,-.013319,
.00689,-.013516,
.006579,-.013661,
.006247,-.01375,
.005905,-.01378,
.0059,-.01378,
0.0*
%
%ADD39MACRO39*%
%AMMACRO18*
4,1,44,.00787,-.01181,
-.00787,-.01181,
-.008212,-.011781,
-.008544,-.011693,
-.008856,-.011549,
-.009137,-.011352,
-.009381,-.01111,
-.009579,-.010829,
-.009724,-.010518,
-.009814,-.010187,
-.009845,-.009845,
-.00984,-.00984,
-.00984,.00984,
-.009815,.010182,
-.009726,.010514,
-.009581,.010825,
-.009384,.011106,
-.009141,.011349,
-.00886,.011546,
-.008549,.011691,
-.008217,.01178,
-.007875,.01181,
-.00787,.01181,
.00787,.01181,
.008212,.011781,
.008544,.011693,
.008856,.011549,
.009137,.011352,
.009381,.01111,
.009579,.010829,
.009724,.010518,
.009814,.010187,
.009845,.009845,
.00984,.00984,
.00984,-.00984,
.009815,-.010182,
.009726,-.010514,
.009581,-.010825,
.009384,-.011106,
.009141,-.011349,
.00886,-.011546,
.008549,-.011691,
.008217,-.01178,
.007875,-.01181,
.00787,-.01181,
0.0*
%
%ADD18MACRO18*%
%AMMACRO49*
4,1,44,.03543,-.02756,
-.03543,-.02756,
-.036797,-.027441,
-.038122,-.027087,
-.039366,-.026508,
-.04049,-.025722,
-.041461,-.024753,
-.042248,-.023629,
-.042829,-.022386,
-.043185,-.021062,
-.043305,-.019695,
-.0433,-.01969,
-.0433,.01969,
-.043185,.021057,
-.04283,.022382,
-.042251,.023625,
-.041464,.024749,
-.040494,.025719,
-.03937,.026506,
-.038127,.027085,
-.036802,.02744,
-.035435,.02756,
-.03543,.02756,
.03543,.02756,
.036797,.027441,
.038122,.027087,
.039366,.026508,
.04049,.025722,
.041461,.024753,
.042248,.023629,
.042829,.022386,
.043185,.021062,
.043305,.019695,
.0433,.01969,
.0433,-.01969,
.043185,-.021057,
.04283,-.022382,
.042251,-.023625,
.041464,-.024749,
.040494,-.025719,
.03937,-.026506,
.038127,-.027085,
.036802,-.02744,
.035435,-.02756,
.03543,-.02756,
0.0*
%
%ADD49MACRO49*%
%AMMACRO45*
4,1,44,.02362,-.02756,
-.02362,-.02756,
-.024987,-.027441,
-.026312,-.027087,
-.027556,-.026508,
-.02868,-.025722,
-.029651,-.024753,
-.030438,-.023629,
-.031019,-.022386,
-.031375,-.021062,
-.031495,-.019695,
-.03149,-.01969,
-.03149,.01969,
-.031375,.021057,
-.03102,.022382,
-.030441,.023625,
-.029654,.024749,
-.028684,.025719,
-.02756,.026506,
-.026317,.027085,
-.024992,.02744,
-.023625,.02756,
-.02362,.02756,
.02362,.02756,
.024987,.027441,
.026312,.027087,
.027556,.026508,
.02868,.025722,
.029651,.024753,
.030438,.023629,
.031019,.022386,
.031375,.021062,
.031495,.019695,
.03149,.01969,
.03149,-.01969,
.031375,-.021057,
.03102,-.022382,
.030441,-.023625,
.029654,-.024749,
.028684,-.025719,
.02756,-.026506,
.026317,-.027085,
.024992,-.02744,
.023625,-.02756,
.02362,-.02756,
0.0*
%
%ADD45MACRO45*%
%AMMACRO44*
4,1,44,.02755,-.01378,
-.02755,-.01378,
-.028234,-.013721,
-.028898,-.013544,
-.029521,-.013255,
-.030084,-.012861,
-.03057,-.012376,
-.030965,-.011814,
-.031256,-.011192,
-.031434,-.010529,
-.031495,-.009845,
-.03149,-.00984,
-.03149,.00984,
-.031435,.010524,
-.031257,.011188,
-.030967,.01181,
-.030573,.012373,
-.030088,.012858,
-.029525,.013252,
-.028903,.013542,
-.028239,.01372,
-.027555,.01378,
-.02755,.01378,
.02755,.01378,
.028234,.013721,
.028898,.013544,
.029521,.013255,
.030084,.012861,
.03057,.012376,
.030965,.011814,
.031256,.011192,
.031434,.010529,
.031495,.009845,
.03149,.00984,
.03149,-.00984,
.031435,-.010524,
.031257,-.011188,
.030967,-.01181,
.030573,-.012373,
.030088,-.012858,
.029525,-.013252,
.028903,-.013542,
.028239,-.01372,
.027555,-.01378,
.02755,-.01378,
0.0*
%
%ADD44MACRO44*%
%AMMACRO26*
4,1,44,-.01378,-.00196,
-.01378,.00196,
-.013751,.002302,
-.013663,.002634,
-.013519,.002946,
-.013322,.003227,
-.01308,.003471,
-.012799,.003669,
-.012488,.003814,
-.012157,.003904,
-.011815,.003935,
-.01181,.00393,
.01181,.00393,
.012152,.003905,
.012484,.003816,
.012795,.003671,
.013076,.003474,
.013319,.003231,
.013516,.00295,
.013661,.002639,
.01375,.002307,
.01378,.001965,
.01378,.00196,
.01378,-.00196,
.013751,-.002302,
.013663,-.002634,
.013519,-.002946,
.013322,-.003227,
.01308,-.003471,
.012799,-.003669,
.012488,-.003814,
.012157,-.003904,
.011815,-.003935,
.01181,-.00393,
-.01181,-.00393,
-.012152,-.003905,
-.012484,-.003816,
-.012795,-.003671,
-.013076,-.003474,
-.013319,-.003231,
-.013516,-.00295,
-.013661,-.002639,
-.01375,-.002307,
-.01378,-.001965,
-.01378,-.00196,
0.0*
%
%ADD26MACRO26*%
%AMMACRO28*
4,1,44,-.00196,.01378,
.00196,.01378,
.002302,.013751,
.002634,.013663,
.002946,.013519,
.003227,.013322,
.003471,.01308,
.003669,.012799,
.003814,.012488,
.003904,.012157,
.003935,.011815,
.00393,.01181,
.00393,-.01181,
.003905,-.012152,
.003816,-.012484,
.003671,-.012795,
.003474,-.013076,
.003231,-.013319,
.00295,-.013516,
.002639,-.013661,
.002307,-.01375,
.001965,-.01378,
.00196,-.01378,
-.00196,-.01378,
-.002302,-.013751,
-.002634,-.013663,
-.002946,-.013519,
-.003227,-.013322,
-.003471,-.01308,
-.003669,-.012799,
-.003814,-.012488,
-.003904,-.012157,
-.003935,-.011815,
-.00393,-.01181,
-.00393,.01181,
-.003905,.012152,
-.003816,.012484,
-.003671,.012795,
-.003474,.013076,
-.003231,.013319,
-.00295,.013516,
-.002639,.013661,
-.002307,.01375,
-.001965,.01378,
-.00196,.01378,
0.0*
%
%ADD28MACRO28*%
%AMMACRO15*
4,1,40,-.00625,-.0035,
-.00625,.0035,
-.00622,.003847,
-.006129,.004184,
-.005982,.0045,
-.005782,.004786,
-.005536,.005032,
-.00525,.005232,
-.004934,.005379,
-.004597,.00547,
-.00425,.0055,
.00425,.0055,
.004597,.00547,
.004934,.005379,
.00525,.005232,
.005536,.005032,
.005782,.004786,
.005982,.0045,
.006129,.004184,
.00622,.003847,
.00625,.0035,
.00625,-.0035,
.00622,-.003847,
.006129,-.004184,
.005982,-.0045,
.005782,-.004786,
.005536,-.005032,
.00525,-.005232,
.004934,-.005379,
.004597,-.00547,
.00425,-.0055,
-.00425,-.0055,
-.004597,-.00547,
-.004934,-.005379,
-.00525,-.005232,
-.005536,-.005032,
-.005782,-.004786,
-.005982,-.0045,
-.006129,-.004184,
-.00622,-.003847,
-.00625,-.0035,
0.0*
%
%ADD15MACRO15*%
%AMMACRO17*
4,1,40,-.0035,.00625,
.0035,.00625,
.003847,.00622,
.004184,.006129,
.0045,.005982,
.004786,.005782,
.005032,.005536,
.005232,.00525,
.005379,.004934,
.00547,.004597,
.0055,.00425,
.0055,-.00425,
.00547,-.004597,
.005379,-.004934,
.005232,-.00525,
.005032,-.005536,
.004786,-.005782,
.0045,-.005982,
.004184,-.006129,
.003847,-.00622,
.0035,-.00625,
-.0035,-.00625,
-.003847,-.00622,
-.004184,-.006129,
-.0045,-.005982,
-.004786,-.005782,
-.005032,-.005536,
-.005232,-.00525,
-.005379,-.004934,
-.00547,-.004597,
-.0055,-.00425,
-.0055,.00425,
-.00547,.004597,
-.005379,.004934,
-.005232,.00525,
-.005032,.005536,
-.004786,.005782,
-.0045,.005982,
-.004184,.006129,
-.003847,.00622,
-.0035,.00625,
0.0*
%
%ADD17MACRO17*%
%AMMACRO22*
4,1,44,.00984,.00787,
.00984,-.00787,
.009816,-.008212,
.009728,-.008544,
.009584,-.008856,
.009387,-.009137,
.009145,-.009381,
.008864,-.009579,
.008553,-.009724,
.008222,-.009814,
.00788,-.009845,
.00787,-.00984,
-.00787,-.00984,
-.008212,-.009816,
-.008544,-.009728,
-.008856,-.009584,
-.009137,-.009387,
-.009381,-.009145,
-.009579,-.008864,
-.009724,-.008553,
-.009814,-.008222,
-.009845,-.00788,
-.00984,-.00787,
-.00984,.00787,
-.009816,.008212,
-.009728,.008544,
-.009584,.008856,
-.009387,.009137,
-.009145,.009381,
-.008864,.009579,
-.008553,.009724,
-.008222,.009814,
-.00788,.009845,
-.00787,.00984,
.00787,.00984,
.008212,.009816,
.008544,.009728,
.008856,.009584,
.009137,.009387,
.009381,.009145,
.009579,.008864,
.009724,.008553,
.009814,.008222,
.009845,.00788,
.00984,.00787,
0.0*
%
%ADD22MACRO22*%
%AMMACRO19*
4,1,44,.00787,-.00984,
-.00787,-.00984,
-.008212,-.009816,
-.008544,-.009728,
-.008856,-.009584,
-.009137,-.009387,
-.009381,-.009145,
-.009579,-.008864,
-.009724,-.008553,
-.009814,-.008222,
-.009845,-.00788,
-.00984,-.00787,
-.00984,.00787,
-.009816,.008212,
-.009728,.008544,
-.009584,.008856,
-.009387,.009137,
-.009145,.009381,
-.008864,.009579,
-.008553,.009724,
-.008222,.009814,
-.00788,.009845,
-.00787,.00984,
.00787,.00984,
.008212,.009816,
.008544,.009728,
.008856,.009584,
.009137,.009387,
.009381,.009145,
.009579,.008864,
.009724,.008553,
.009814,.008222,
.009845,.00788,
.00984,.00787,
.00984,-.00787,
.009816,-.008212,
.009728,-.008544,
.009584,-.008856,
.009387,-.009137,
.009145,-.009381,
.008864,-.009579,
.008553,-.009724,
.008222,-.009814,
.00788,-.009845,
.00787,-.00984,
0.0*
%
%ADD19MACRO19*%
%ADD47R,.04X.025*%
%ADD14R,.024X.05*%
%ADD37R,.052X.042*%
%ADD13R,.024X.016*%
%ADD35R,.04X.055*%
%ADD52R,.012X.0374*%
%ADD16R,.055X.064*%
%AMMACRO40*
4,1,40,-.0275,-.01606,
-.0275,.01606,
-.02744,.016744,
-.027262,.017408,
-.026972,.01803,
-.026578,.018593,
-.026093,.019078,
-.02553,.019472,
-.024908,.019762,
-.024244,.01994,
-.02356,.02,
.02356,.02,
.024244,.01994,
.024908,.019762,
.02553,.019472,
.026093,.019078,
.026578,.018593,
.026972,.01803,
.027262,.017408,
.02744,.016744,
.0275,.01606,
.0275,-.01606,
.02744,-.016744,
.027262,-.017408,
.026972,-.01803,
.026578,-.018593,
.026093,-.019078,
.02553,-.019472,
.024908,-.019762,
.024244,-.01994,
.02356,-.02,
-.02356,-.02,
-.024244,-.01994,
-.024908,-.019762,
-.02553,-.019472,
-.026093,-.019078,
-.026578,-.018593,
-.026972,-.01803,
-.027262,-.017408,
-.02744,-.016744,
-.0275,-.01606,
0.0*
%
%ADD40MACRO40*%
%ADD10R,.064X.055*%
%AMMACRO36*
4,1,40,-.01606,.0275,
.01606,.0275,
.016744,.02744,
.017408,.027262,
.01803,.026972,
.018593,.026578,
.019078,.026093,
.019472,.02553,
.019762,.024908,
.01994,.024244,
.02,.02356,
.02,-.02356,
.01994,-.024244,
.019762,-.024908,
.019472,-.02553,
.019078,-.026093,
.018593,-.026578,
.01803,-.026972,
.017408,-.027262,
.016744,-.02744,
.01606,-.0275,
-.01606,-.0275,
-.016744,-.02744,
-.017408,-.027262,
-.01803,-.026972,
-.018593,-.026578,
-.019078,-.026093,
-.019472,-.02553,
-.019762,-.024908,
-.01994,-.024244,
-.02,-.02356,
-.02,.02356,
-.01994,.024244,
-.019762,.024908,
-.019472,.02553,
-.019078,.026093,
-.018593,.026578,
-.01803,.026972,
-.017408,.027262,
-.016744,.02744,
-.01606,.0275,
0.0*
%
%ADD36MACRO36*%
%ADD34R,.048X.055*%
%AMMACRO21*
4,1,40,-.0175,-.01356,
-.0175,.01356,
-.01744,.014244,
-.017262,.014908,
-.016972,.01553,
-.016578,.016093,
-.016093,.016578,
-.01553,.016972,
-.014908,.017262,
-.014244,.01744,
-.01356,.0175,
.01356,.0175,
.014244,.01744,
.014908,.017262,
.01553,.016972,
.016093,.016578,
.016578,.016093,
.016972,.01553,
.017262,.014908,
.01744,.014244,
.0175,.01356,
.0175,-.01356,
.01744,-.014244,
.017262,-.014908,
.016972,-.01553,
.016578,-.016093,
.016093,-.016578,
.01553,-.016972,
.014908,-.017262,
.014244,-.01744,
.01356,-.0175,
-.01356,-.0175,
-.014244,-.01744,
-.014908,-.017262,
-.01553,-.016972,
-.016093,-.016578,
-.016578,-.016093,
-.016972,-.01553,
-.017262,-.014908,
-.01744,-.014244,
-.0175,-.01356,
0.0*
%
%ADD21MACRO21*%
%AMMACRO42*
4,1,40,-.01356,.0175,
.01356,.0175,
.014244,.01744,
.014908,.017262,
.01553,.016972,
.016093,.016578,
.016578,.016093,
.016972,.01553,
.017262,.014908,
.01744,.014244,
.0175,.01356,
.0175,-.01356,
.01744,-.014244,
.017262,-.014908,
.016972,-.01553,
.016578,-.016093,
.016093,-.016578,
.01553,-.016972,
.014908,-.017262,
.014244,-.01744,
.01356,-.0175,
-.01356,-.0175,
-.014244,-.01744,
-.014908,-.017262,
-.01553,-.016972,
-.016093,-.016578,
-.016578,-.016093,
-.016972,-.01553,
-.017262,-.014908,
-.01744,-.014244,
-.0175,-.01356,
-.0175,.01356,
-.01744,.014244,
-.017262,.014908,
-.016972,.01553,
-.016578,.016093,
-.016093,.016578,
-.01553,.016972,
-.014908,.017262,
-.014244,.01744,
-.01356,.0175,
0.0*
%
%ADD42MACRO42*%
%ADD31R,.03543X.03937*%
%AMMACRO46*
4,1,44,-.01181,-.0059,
-.01181,.0059,
-.011781,.006242,
-.011693,.006574,
-.011549,.006886,
-.011352,.007167,
-.01111,.007411,
-.010829,.007609,
-.010518,.007754,
-.010187,.007844,
-.009845,.007875,
-.00984,.00787,
.00984,.00787,
.010182,.007845,
.010514,.007756,
.010825,.007611,
.011106,.007414,
.011349,.007171,
.011546,.00689,
.011691,.006579,
.01178,.006247,
.01181,.005905,
.01181,.0059,
.01181,-.0059,
.011781,-.006242,
.011693,-.006574,
.011549,-.006886,
.011352,-.007167,
.01111,-.007411,
.010829,-.007609,
.010518,-.007754,
.010187,-.007844,
.009845,-.007875,
.00984,-.00787,
-.00984,-.00787,
-.010182,-.007845,
-.010514,-.007756,
-.010825,-.007611,
-.011106,-.007414,
-.011349,-.007171,
-.011546,-.00689,
-.011691,-.006579,
-.01178,-.006247,
-.01181,-.005905,
-.01181,-.0059,
0.0*
%
%ADD46MACRO46*%
%AMMACRO50*
4,1,44,-.01181,-.00787,
-.01181,.00787,
-.011781,.008212,
-.011693,.008544,
-.011549,.008856,
-.011352,.009137,
-.01111,.009381,
-.010829,.009579,
-.010518,.009724,
-.010187,.009814,
-.009845,.009845,
-.00984,.00984,
.00984,.00984,
.010182,.009815,
.010514,.009726,
.010825,.009581,
.011106,.009384,
.011349,.009141,
.011546,.00886,
.011691,.008549,
.01178,.008217,
.01181,.007875,
.01181,.00787,
.01181,-.00787,
.011781,-.008212,
.011693,-.008544,
.011549,-.008856,
.011352,-.009137,
.01111,-.009381,
.010829,-.009579,
.010518,-.009724,
.010187,-.009814,
.009845,-.009845,
.00984,-.00984,
-.00984,-.00984,
-.010182,-.009815,
-.010514,-.009726,
-.010825,-.009581,
-.011106,-.009384,
-.011349,-.009141,
-.011546,-.00886,
-.011691,-.008549,
-.01178,-.008217,
-.01181,-.007875,
-.01181,-.00787,
0.0*
%
%ADD50MACRO50*%
%AMMACRO43*
4,1,44,-.02756,-.02756,
-.02756,.02756,
-.027441,.028927,
-.027087,.030252,
-.026508,.031496,
-.025722,.03262,
-.024753,.033591,
-.023629,.034378,
-.022386,.034959,
-.021062,.035315,
-.019695,.035435,
-.01969,.03543,
.01969,.03543,
.021057,.035315,
.022382,.03496,
.023625,.034381,
.024749,.033594,
.025719,.032624,
.026506,.0315,
.027085,.030257,
.02744,.028932,
.02756,.027565,
.02756,.02756,
.02756,-.02756,
.027441,-.028927,
.027087,-.030252,
.026508,-.031496,
.025722,-.03262,
.024753,-.033591,
.023629,-.034378,
.022386,-.034959,
.021062,-.035315,
.019695,-.035435,
.01969,-.03543,
-.01969,-.03543,
-.021057,-.035315,
-.022382,-.03496,
-.023625,-.034381,
-.024749,-.033594,
-.025719,-.032624,
-.026506,-.0315,
-.027085,-.030257,
-.02744,-.028932,
-.02756,-.027565,
-.02756,-.02756,
0.0*
%
%ADD43MACRO43*%
%AMMACRO29*
4,1,44,.01378,.00196,
.01378,-.00196,
.013751,-.002302,
.013663,-.002634,
.013519,-.002946,
.013322,-.003227,
.01308,-.003471,
.012799,-.003669,
.012488,-.003814,
.012157,-.003904,
.011815,-.003935,
.01181,-.00393,
-.01181,-.00393,
-.012152,-.003905,
-.012484,-.003816,
-.012795,-.003671,
-.013076,-.003474,
-.013319,-.003231,
-.013516,-.00295,
-.013661,-.002639,
-.01375,-.002307,
-.01378,-.001965,
-.01378,-.00196,
-.01378,.00196,
-.013751,.002302,
-.013663,.002634,
-.013519,.002946,
-.013322,.003227,
-.01308,.003471,
-.012799,.003669,
-.012488,.003814,
-.012157,.003904,
-.011815,.003935,
-.01181,.00393,
.01181,.00393,
.012152,.003905,
.012484,.003816,
.012795,.003671,
.013076,.003474,
.013319,.003231,
.013516,.00295,
.013661,.002639,
.01375,.002307,
.01378,.001965,
.01378,.00196,
0.0*
%
%ADD29MACRO29*%
%AMMACRO27*
4,1,44,.00196,-.01378,
-.00196,-.01378,
-.002302,-.013751,
-.002634,-.013663,
-.002946,-.013519,
-.003227,-.013322,
-.003471,-.01308,
-.003669,-.012799,
-.003814,-.012488,
-.003904,-.012157,
-.003935,-.011815,
-.00393,-.01181,
-.00393,.01181,
-.003905,.012152,
-.003816,.012484,
-.003671,.012795,
-.003474,.013076,
-.003231,.013319,
-.00295,.013516,
-.002639,.013661,
-.002307,.01375,
-.001965,.01378,
-.00196,.01378,
.00196,.01378,
.002302,.013751,
.002634,.013663,
.002946,.013519,
.003227,.013322,
.003471,.01308,
.003669,.012799,
.003814,.012488,
.003904,.012157,
.003935,.011815,
.00393,.01181,
.00393,-.01181,
.003905,-.012152,
.003816,-.012484,
.003671,-.012795,
.003474,-.013076,
.003231,-.013319,
.00295,-.013516,
.002639,-.013661,
.002307,-.01375,
.001965,-.01378,
.00196,-.01378,
0.0*
%
%ADD27MACRO27*%
%ADD53C,.005*%
%ADD54C,.004*%
G75*
%LPD*%
G75*
G54D10*
X-1265500Y739450D03*
Y750550D03*
X-1169978Y905196D03*
X-1160978Y905396D03*
X-1169978Y916296D03*
X-1160978Y916496D03*
G54D11*
X-1267093Y799427D03*
X-1263155D03*
G54D20*
X-1202485Y686741D03*
X-1204685D03*
X-1202000Y705500D03*
X-1204200D03*
X-1187400Y778800D03*
X-1189600D03*
X-1181020Y748450D03*
X-1183220D03*
X-1154300Y863000D03*
X-1156500D03*
X-1146500Y906600D03*
X-1148700D03*
X-1123100Y762800D03*
X-1125300D03*
X-1121400Y777600D03*
X-1123600D03*
X-1117429Y786856D03*
X-1119629D03*
X-1123419Y837150D03*
X-1125619D03*
X-1122400Y906878D03*
X-1124600D03*
X-1109321Y754502D03*
X-1111521D03*
X-1109219Y751750D03*
X-1111419D03*
X-1109329Y757156D03*
X-1111529D03*
X-1110129Y774356D03*
X-1112329D03*
X-1105800Y794100D03*
X-1108000D03*
X-1099100Y748400D03*
X-1101300D03*
X-1098629Y752456D03*
X-1100829D03*
X-1093529Y761056D03*
X-1095729D03*
X-1096629Y766456D03*
X-1098829D03*
X-1094800Y774200D03*
X-1097000D03*
X-1094700Y788300D03*
X-1096900D03*
X-1101200Y858200D03*
X-1103400D03*
X-1083419Y771674D03*
X-1085619D03*
X-1086529Y787756D03*
X-1088729D03*
X-1057933Y763750D03*
X-1060133D03*
X-1041342Y749736D03*
X-1043542D03*
X-1041719Y764736D03*
X-1043919D03*
X-1035405Y757250D03*
X-1037605D03*
X-1035522Y798050D03*
X-1037722D03*
X-1028408Y745636D03*
X-1030608D03*
X-1028632Y808564D03*
X-1030832D03*
G54D21*
X-1197200Y723900D03*
Y729900D03*
X-1169300Y722900D03*
Y728900D03*
X-1151400Y714000D03*
Y720000D03*
X-1070166Y720917D03*
Y726917D03*
X-986159Y878489D03*
Y884489D03*
X-978500Y859500D03*
Y865500D03*
G54D30*
X-1138150Y727583D03*
Y733583D03*
X-1015500Y844500D03*
Y850500D03*
X-1012500Y867500D03*
Y873500D03*
G54D12*
X-1270750Y800120D03*
Y803762D03*
X-1258250Y809620D03*
Y813262D03*
X-1206100Y777579D03*
Y781221D03*
X-1188500Y724479D03*
Y728121D03*
X-1192300Y724479D03*
Y728121D03*
X-1178100Y725079D03*
Y728721D03*
X-1174200Y725079D03*
Y728721D03*
X-1165950Y856120D03*
Y859762D03*
X-1152459Y808928D03*
Y812570D03*
X-1161250Y856120D03*
Y859762D03*
X-1138400Y716679D03*
X-1146400D03*
X-1142400D03*
X-1138400Y720321D03*
X-1146400D03*
X-1142400D03*
X-1148659Y808932D03*
Y812574D03*
X-1143550Y842020D03*
Y845662D03*
X-1129450Y716598D03*
X-1133150D03*
X-1129450Y720240D03*
X-1133150D03*
X-1137322Y900883D03*
Y904525D03*
X-1125750Y716598D03*
Y720240D03*
X-1123500Y815279D03*
Y818921D03*
X-1103100Y771879D03*
Y775521D03*
X-1103300Y865279D03*
Y868921D03*
X-1095450Y754098D03*
Y757740D03*
X-1102550Y826398D03*
Y830040D03*
X-1083166Y721598D03*
Y725240D03*
X-1082000Y775179D03*
Y778821D03*
X-1090200Y861879D03*
Y865521D03*
X-1079166Y721598D03*
Y725240D03*
X-1075166Y721598D03*
Y725240D03*
X-1076900Y775079D03*
X-1070750Y771375D03*
Y775017D03*
X-1076900Y778721D03*
X-1069600Y836779D03*
Y840421D03*
X-1066750Y771303D03*
Y774945D03*
X-1063000Y771179D03*
Y774821D03*
X-1059000Y775179D03*
Y778821D03*
X-1054250Y836659D03*
Y840301D03*
X-1022000Y691079D03*
Y694721D03*
X-1024700Y881379D03*
Y885021D03*
X-1015250Y726598D03*
Y730240D03*
X-1013000Y789179D03*
Y792821D03*
X-988300Y715079D03*
Y718721D03*
X-992300Y715179D03*
Y718821D03*
X-984940Y726498D03*
Y730140D03*
X-964459Y872174D03*
Y875816D03*
X-954142Y827934D03*
Y831576D03*
X-958142Y827930D03*
Y831572D03*
G54D31*
X-1139051Y840596D03*
Y846994D03*
X-1134229Y840596D03*
Y846994D03*
G54D40*
X-1066700Y852400D03*
Y859400D03*
G54D13*
X-1270543Y808941D03*
Y811500D03*
Y814059D03*
X-1263457Y811500D03*
Y808941D03*
Y814059D03*
G54D22*
X-1202700Y754721D03*
Y751079D03*
X-1152156Y859592D03*
Y855950D03*
X-1155950Y859669D03*
Y856027D03*
X-1148350Y859480D03*
Y855838D03*
X-1133350Y728860D03*
X-1129650D03*
X-1133350Y732502D03*
X-1129650D03*
X-1135500Y764321D03*
Y760679D03*
X-1122700Y785521D03*
Y781879D03*
X-1100041Y794034D03*
Y790392D03*
X-1070750Y783181D03*
Y779539D03*
X-1066750Y783185D03*
Y779543D03*
X-1062750Y783121D03*
Y779479D03*
X-1062600Y836679D03*
X-1058300D03*
X-1062600Y840321D03*
X-1058300D03*
X-1028500Y881379D03*
Y885021D03*
X-1017300Y708021D03*
Y704379D03*
X-1011200Y730321D03*
Y726679D03*
X-988950Y730180D03*
Y726538D03*
G54D50*
X-971059Y848200D03*
G54D14*
X-1267000Y811500D03*
G54D32*
X-1126700Y800800D03*
X-1126900Y807100D03*
X-1120700Y800800D03*
X-1120900Y807100D03*
X-1021500Y868500D03*
X-1027500D03*
X-1021500Y874000D03*
X-1027500D03*
X-998500Y858000D03*
X-1004500D03*
X-998500Y863500D03*
X-1004500D03*
X-997900Y891100D03*
X-1003900D03*
G54D41*
X-1049850Y873800D03*
X-1043550D03*
G54D23*
X-1202100Y764500D03*
Y766700D03*
X-1202500Y788600D03*
Y786400D03*
X-1181550Y753368D03*
Y755568D03*
X-1163000Y780100D03*
Y777900D03*
X-1128800Y769600D03*
Y767400D03*
X-1127100Y818500D03*
Y816300D03*
X-1118300Y718900D03*
X-1115500D03*
X-1118300Y721100D03*
X-1115500D03*
X-1118556Y752471D03*
Y750271D03*
X-1119556Y768771D03*
Y766571D03*
X-1117856Y777271D03*
X-1126000Y771900D03*
Y769700D03*
X-1121800Y774500D03*
Y772300D03*
X-1117856Y779471D03*
X-1117756Y784271D03*
Y782071D03*
X-1117000Y818500D03*
Y816300D03*
X-1119900Y818500D03*
Y816300D03*
X-1122200Y868600D03*
Y866400D03*
X-1114598Y754171D03*
X-1104556Y753671D03*
Y751471D03*
X-1114598Y756371D03*
X-1114900Y764600D03*
Y762400D03*
X-1112300Y764800D03*
Y762600D03*
X-1109656Y764671D03*
Y762471D03*
X-1107400Y775000D03*
Y772800D03*
X-1111456Y777771D03*
Y779971D03*
X-1106916Y787281D03*
Y785081D03*
X-1114000Y818400D03*
Y816200D03*
X-1108400Y818500D03*
Y816300D03*
X-1093956Y771371D03*
Y769171D03*
X-1096600Y771400D03*
Y769200D03*
X-1096156Y785171D03*
Y782971D03*
X-1093650Y785281D03*
Y783081D03*
X-1103200Y818400D03*
Y816200D03*
X-1088656Y762171D03*
Y759971D03*
X-1091256Y771371D03*
Y769171D03*
X-1044636Y807350D03*
Y805150D03*
X-1017900Y692800D03*
Y690600D03*
X-1016850Y800024D03*
Y797824D03*
X-993160Y728181D03*
Y725981D03*
G54D42*
X-1027500Y862500D03*
X-1021500D03*
X-1020100Y891000D03*
X-1014100D03*
X-1004500Y872500D03*
X-998500D03*
X-962511Y881659D03*
X-956511D03*
G54D15*
X-1275344Y810329D03*
Y812529D03*
X-1259500Y745900D03*
Y748100D03*
X-1202100Y740900D03*
Y743100D03*
X-1202000Y745700D03*
Y747900D03*
X-1202400Y757900D03*
Y760100D03*
X-1202700Y778400D03*
Y780600D03*
X-1178900Y776700D03*
Y778900D03*
X-1174644Y810629D03*
Y812829D03*
X-1177350Y810629D03*
Y812829D03*
X-1165150Y810629D03*
Y812829D03*
X-1167744Y810629D03*
Y812829D03*
X-1156050Y810642D03*
Y812842D03*
X-1158550Y810719D03*
Y812919D03*
X-1144750Y820717D03*
Y822917D03*
X-1142250Y820719D03*
Y822919D03*
X-1127000Y754400D03*
X-1129500D03*
X-1127000Y756600D03*
X-1129500D03*
X-1112700Y718900D03*
Y721100D03*
X-1106844Y762329D03*
Y764529D03*
X-1104344Y762329D03*
Y764529D03*
X-1112944Y767629D03*
Y769829D03*
X-1096000Y748097D03*
Y750297D03*
X-1094600Y777200D03*
X-1099744Y772729D03*
Y774929D03*
X-1094600Y779400D03*
X-1086400Y862700D03*
Y864900D03*
X-1047750Y773880D03*
Y776080D03*
X-1055250Y789133D03*
Y791333D03*
X-1038750Y766784D03*
Y768984D03*
X-1037850Y786110D03*
Y788310D03*
Y790744D03*
Y792944D03*
X-1038750Y804440D03*
Y806640D03*
X-1039759Y857671D03*
Y859871D03*
X-1032000Y882300D03*
Y884500D03*
X-1018744Y728329D03*
Y730529D03*
X-1016250Y784214D03*
Y786414D03*
Y790633D03*
Y792833D03*
X-1007140Y726119D03*
Y728319D03*
X-1004340Y726019D03*
Y728219D03*
X-1001540Y726019D03*
Y728219D03*
X-998740Y726019D03*
Y728219D03*
X-995940Y726019D03*
Y728219D03*
X-984400Y715600D03*
Y717800D03*
G54D33*
X-1135778Y857269D03*
Y866717D03*
X-1132278Y898390D03*
Y907838D03*
G54D51*
X-964530Y892341D03*
X-955082D03*
G54D24*
X-1175221Y689800D03*
X-1175265Y712583D03*
X-1171579Y689800D03*
X-1171623Y712583D03*
X-1149921Y768800D03*
X-1156021Y867300D03*
X-1152379D03*
X-1146279Y768800D03*
X-1138803Y851950D03*
X-1130521Y781400D03*
X-1126879D03*
X-1135321Y795500D03*
X-1131679D03*
X-1135502Y799384D03*
X-1131860D03*
X-1135502Y803350D03*
X-1131860D03*
X-1135521Y807300D03*
X-1131879D03*
X-1135161Y851950D03*
X-1125249Y840750D03*
X-1121607D03*
X-1092802Y748650D03*
X-1102921Y783600D03*
X-1099279D03*
X-1098880Y817750D03*
X-1095238D03*
X-1089160Y748650D03*
X-1081721Y843800D03*
X-1082121Y857000D03*
X-1082221Y863800D03*
X-1078079Y843800D03*
X-1078479Y857000D03*
X-1068521Y864700D03*
X-1078579Y863800D03*
X-1064879Y864700D03*
X-1058280Y877350D03*
Y873650D03*
X-1054638Y877350D03*
Y873650D03*
X-1036321Y858800D03*
X-1032679D03*
X-960330Y872059D03*
X-956688D03*
X-960323Y876059D03*
X-956681D03*
G54D43*
X-1002931Y763038D03*
G54D34*
X-1117571Y848272D03*
G54D16*
X-1273733Y821750D03*
X-1262633D03*
G54D52*
X-955805Y837423D03*
X-953246D03*
X-958364D03*
Y843329D03*
X-953246D03*
X-955805D03*
G54D25*
X-1166500Y834000D03*
G54D53*
G01X-1280646Y662339D02*
G03X-1268835Y650528I11811J0D01*
G01X-1280646Y915189D02*
Y662339D01*
G01X-1268835Y927000D02*
G03X-1280646Y915189I0J-11811D01*
G01X-1268835Y650528D02*
X-957811D01*
G01Y927000D02*
X-1268835D01*
G01X-1182926Y664307D02*
G03I-5200J0D01*
G01Y857220D02*
G03I-5200J0D01*
G01Y913220D02*
G03I-5200J0D01*
G01X-954580Y664307D02*
G03I-5200J0D01*
G01Y857220D02*
G03I-5200J0D01*
G01Y913220D02*
G03I-5200J0D01*
G01X-957811Y650528D02*
G03X-946000Y662339I0J11811D01*
G01Y915189D02*
G03X-957811Y927000I-11811J0D01*
G01X-946000Y662339D02*
Y915189D01*
G54D35*
X-1124264Y848272D03*
Y856934D03*
X-1116784D03*
G54D17*
X-1267171Y827844D03*
X-1264971D03*
X-1191200Y733300D03*
X-1189000D03*
X-1190400Y748200D03*
X-1188200D03*
X-1194256Y788850D03*
X-1192056D03*
X-1192000Y794600D03*
X-1189800D03*
X-1174200Y686500D03*
X-1173907Y709059D03*
X-1176764Y735850D03*
X-1174564D03*
X-1183124Y743550D03*
X-1180924D03*
X-1174000Y761000D03*
X-1184640Y771050D03*
X-1182440D03*
X-1183160Y783750D03*
X-1180960D03*
X-1172000Y686500D03*
X-1171707Y709059D03*
X-1171800Y761000D03*
X-1168300Y776000D03*
X-1166100D03*
X-1161600Y743300D03*
X-1159400D03*
X-1161600Y748400D03*
X-1159400D03*
X-1139371Y827450D03*
Y824850D03*
Y832644D03*
Y830050D03*
X-1134600Y749500D03*
X-1132400D03*
X-1130700Y762800D03*
X-1128500D03*
X-1130200Y774600D03*
X-1128000D03*
X-1128600Y777500D03*
X-1137171Y827450D03*
Y824850D03*
Y832644D03*
Y830050D03*
X-1119628Y755037D03*
X-1117428D03*
X-1119600Y762700D03*
X-1117400D03*
X-1118371Y772244D03*
X-1116171D03*
X-1118371Y774844D03*
X-1116171D03*
X-1126400Y777500D03*
X-1104171Y759144D03*
Y756544D03*
X-1110371Y767244D03*
X-1108171D03*
X-1111881Y787026D03*
X-1109681D03*
X-1103981Y787250D03*
X-1108781Y780884D03*
X-1106581D03*
X-1111781Y784284D03*
X-1109581D03*
X-1092671Y751944D03*
X-1101971Y759144D03*
Y756544D03*
X-1100571Y762544D03*
X-1098371D03*
X-1092171Y754944D03*
X-1101781Y787250D03*
X-1090471Y751944D03*
X-1089971Y754944D03*
X-1091081Y776626D03*
X-1088881D03*
X-1088681Y785126D03*
X-1086481D03*
X-1089500Y781800D03*
X-1087300D03*
X-1080700Y847100D03*
X-1081100Y860300D03*
X-1078500Y847100D03*
X-1078900Y860300D03*
X-1048808Y750650D03*
X-1046608D03*
X-1050226Y780936D03*
X-1048026D03*
X-1037666Y762450D03*
X-1035466D03*
X-1032581Y792836D03*
X-1030381D03*
X-968700Y749000D03*
X-966500D03*
G54D26*
X-1182051Y823764D03*
Y822189D03*
Y834787D03*
Y833213D03*
Y831638D03*
Y830063D03*
Y828488D03*
Y826913D03*
Y825339D03*
Y845811D03*
Y844236D03*
Y842661D03*
Y841087D03*
Y839512D03*
Y837937D03*
Y836362D03*
G54D44*
X-1004900Y790203D03*
Y785872D03*
Y781542D03*
Y798865D03*
Y794534D03*
Y811857D03*
Y807526D03*
Y803195D03*
Y816187D03*
G54D54*
G01X-1280646Y662339D02*
Y915189D01*
G02X-1268835Y927000I11811J0D01*
G01X-957811D01*
G02X-946000Y915189I0J-11811D01*
G01Y662339D01*
G02X-957811Y650528I-11811J0D01*
G01X-1268835D01*
G02X-1280646Y662339I0J11811D01*
G54D27*
X-1178311Y818449D03*
X-1176736D03*
X-1175161D03*
X-1173587D03*
X-1172012D03*
X-1170437D03*
X-1168862D03*
X-1167287D03*
X-1165713D03*
X-1164138D03*
X-1162563D03*
X-1160988D03*
X-1159413D03*
X-1157839D03*
X-1156264D03*
X-1154689D03*
G54D36*
X-1116000Y867200D03*
X-1109000D03*
G54D45*
X-1002538Y821306D03*
G54D18*
X-1265124Y804309D03*
G54D46*
X-975941Y846231D03*
Y850169D03*
G54D37*
X-1097211Y823698D03*
Y830982D03*
X-1088155Y823698D03*
Y830982D03*
G54D19*
X-1201127Y683217D03*
X-1204769D03*
X-1200879Y710200D03*
X-1204521D03*
X-1200879Y714600D03*
X-1204521D03*
X-1138750Y836256D03*
X-1145499Y899050D03*
X-1149141D03*
X-1145503Y903050D03*
X-1149145D03*
X-1126540Y795350D03*
X-1135108Y836256D03*
X-1122898Y795350D03*
X-1121291Y899272D03*
X-1124933D03*
X-1121395Y903272D03*
X-1125037D03*
X-1108179Y748500D03*
X-1111821D03*
X-1103121Y779300D03*
X-1103321Y861500D03*
X-1096861Y745143D03*
X-1100503D03*
X-1099479Y779300D03*
X-1092698Y792150D03*
X-1096340D03*
X-1099679Y861500D03*
X-1094179Y865700D03*
X-1097821D03*
X-1081273Y823781D03*
X-1087620Y817750D03*
X-1091262D03*
X-1077631Y823781D03*
X-1058498Y729550D03*
X-1062140D03*
X-1058498Y721550D03*
X-1062140D03*
X-1058498Y725550D03*
X-1062140D03*
X-1058479Y733500D03*
X-1062121D03*
X-1034121Y832900D03*
Y836900D03*
X-1030479Y832900D03*
X-1028479Y847100D03*
X-1032121D03*
X-1030479Y836900D03*
X-1023779Y916400D03*
X-1027421D03*
X-1023779Y912600D03*
X-1027421D03*
X-976321Y839000D03*
X-976401Y842850D03*
X-977159Y872841D03*
X-980801D03*
X-972679Y839000D03*
X-972759Y842850D03*
G54D28*
X-1175161Y849551D03*
X-1176736D03*
X-1178311D03*
X-1162563D03*
X-1164138D03*
X-1165713D03*
X-1167287D03*
X-1168862D03*
X-1170437D03*
X-1172012D03*
X-1173587D03*
X-1154689D03*
X-1156264D03*
X-1157839D03*
X-1159413D03*
X-1160988D03*
G54D29*
X-1150949Y822189D03*
Y823764D03*
Y825339D03*
Y826913D03*
Y828488D03*
Y830063D03*
Y831638D03*
Y833213D03*
Y834787D03*
Y836362D03*
Y837937D03*
Y839512D03*
Y841087D03*
Y842661D03*
Y844236D03*
Y845811D03*
G54D47*
X-979183Y878026D03*
Y885526D03*
X-968983Y881776D03*
Y878026D03*
Y885526D03*
G54D38*
X-1088737Y886228D03*
X-1086769D03*
X-1082831D03*
X-1080863D03*
Y889772D03*
X-1082831D03*
X-1086769D03*
X-1088737D03*
X-1076937Y886228D03*
X-1074969D03*
X-1071031D03*
X-1069063D03*
Y889772D03*
X-1071031D03*
X-1074969D03*
X-1076937D03*
G54D39*
X-1084800Y886228D03*
Y889772D03*
X-1073000Y886228D03*
Y889772D03*
G54D48*
X-977628Y892631D03*
X-970628D03*
G54D49*
X-965136Y759494D03*
Y821306D03*
M02*
