G04 ================== begin FILE IDENTIFICATION RECORD ==================*
G04 Layout Name:  BeagleV_15.brd*
G04 Film Name:    silk_top*
G04 File Format:  Gerber RS274X*
G04 File Origin:  Cadence Allegro 17.2-061*
G04 Origin Date:  Wed Apr 21 13:44:34 2021*
G04 *
G04 Layer:  PACKAGE GEOMETRY/SILKSCREEN_TOP*
G04 Layer:  BOARD GEOMETRY/SILKSCREEN_TOP*
G04 Layer:  BOARD GEOMETRY/OUTLINE*
G04 *
G04 Offset:    (0.00 0.00)*
G04 Mirror:    No*
G04 Mode:      Positive*
G04 Rotation:  0*
G04 FullContactRelief:  No*
G04 UndefLineWidth:     4.00*
G04 ================== end FILE IDENTIFICATION RECORD ====================*
%FSLAX25Y25*MOIN*%
%IR0*IPPOS*OFA0.00000B0.00000*MIA0B0*SFA1.00000B1.00000*%
%ADD10C,.01*%
%ADD11C,.004*%
%ADD12C,.005*%
%ADD13C,.006*%
%ADD14C,.007*%
%ADD15C,.00787*%
G75*
%LPD*%
G75*
G36*
G01X-1089750Y881450D02*
X-1087750Y879450D01*
X-1091750D01*
X-1089750Y881450D01*
G37*
G36*
G01X-983500Y884000D02*
X-980500Y887000D01*
X-977500Y884000D01*
X-977000Y883500D01*
X-984000D01*
X-983500Y884000D01*
G37*
G36*
G01X-955056Y893659D02*
Y890659D01*
X-953556Y892159D01*
X-955056Y893659D01*
G37*
G36*
G01X-955006Y885659D02*
Y882659D01*
X-953506Y884159D01*
X-955006Y885659D01*
G37*
G54D10*
G01X-1214150Y725958D02*
G03I-500J0D01*
G01Y735022D02*
G03I-500J0D01*
G01Y743740D02*
G03I-500J0D01*
G01Y800404D02*
G03I-500J0D01*
G01Y811481D02*
G03I-500J0D01*
G01Y822263D02*
G03I-500J0D01*
G01X-1206400Y716000D02*
G03I-500J0D01*
G01X-1163522Y902637D02*
G03I-500J0D01*
G01X-1140300Y852000D02*
G03I-500J0D01*
G01X-1115491D02*
G03I-500J0D01*
G01X-1099638Y832417D02*
G03I-500J0D01*
G01X-1075000Y866700D02*
G03I-500J0D01*
G01X-1056663Y854630D02*
G03I-500J0D01*
G01X-1062407Y872730D02*
G03I-500J0D01*
G01X-1052298Y718663D02*
G03I-500J0D01*
G01X-1043699Y876876D02*
G03I-500J0D01*
G01X-1013420Y925028D02*
G03I-500J0D01*
G01X-991300Y752800D02*
G03I-500J0D01*
G01X-994592Y841672D02*
G03I-500J0D01*
G01X-977598Y800417D02*
G03I-500J0D01*
G01X-972396Y804250D02*
G03I-500J0D01*
G01X-959800Y847100D02*
G03I-500J0D01*
G54D11*
G01X-1204100Y830400D02*
X-1201300D01*
G01X-1204100Y829633D02*
Y831167D01*
G01X-1201300Y832233D02*
X-1204100D01*
X-1201767Y833100D01*
X-1204100Y833967D01*
X-1201300D01*
G01X-1280646Y662339D02*
Y915189D01*
G02X-1268835Y927000I11811J0D01*
G01X-957811D01*
G02X-946000Y915189I0J-11811D01*
G01Y662339D01*
G02X-957811Y650528I-11811J0D01*
G01X-1268835D01*
G02X-1280646Y662339I0J11811D01*
G01X-1203648Y679783D02*
X-1205617D01*
Y681752D01*
G01Y713248D02*
Y715217D01*
X-1203648D01*
G01X-1170183Y681752D02*
Y679783D01*
X-1172152D01*
G01Y715217D02*
X-1170183D01*
Y713248D01*
G01X-1153863Y730085D02*
Y733685D01*
X-1154443Y732965D01*
G01Y730085D02*
X-1153283D01*
G01X-1156008Y723750D02*
X-1154800Y727350D01*
X-1153592Y723750D01*
G01X-1154027Y725010D02*
X-1155573D01*
G01X-1151900Y723750D02*
Y727350D01*
X-1152480Y726630D01*
G01Y723750D02*
X-1151320D01*
G01X-1156646Y807856D02*
X-1156356Y807436D01*
X-1155970Y807196D01*
X-1155535Y807136D01*
X-1155148Y807196D01*
X-1154761Y807496D01*
X-1154520Y807856D01*
X-1154471Y808216D01*
X-1154568Y808636D01*
X-1154906Y808936D01*
X-1155245Y809056D01*
X-1155680D01*
G01X-1155245D02*
X-1154955Y809236D01*
X-1154713Y809536D01*
X-1154616Y809896D01*
X-1154713Y810256D01*
X-1154955Y810556D01*
X-1155390Y810736D01*
X-1155825Y810676D01*
X-1156260Y810436D01*
G01X-1152683Y807136D02*
Y810736D01*
X-1153263Y810016D01*
G01Y807136D02*
X-1152103D01*
G01X-1148894Y723967D02*
X-1147686Y727567D01*
X-1146478Y723967D01*
G01X-1146913Y725227D02*
X-1148459D01*
G01X-1073622Y723967D02*
X-1072414Y727567D01*
X-1071206Y723967D01*
G01X-1071641Y725227D02*
X-1073187D01*
G01X-1070481Y727567D02*
Y723967D01*
X-1068547D01*
G54D12*
G01X-1280646Y662339D02*
G03X-1268835Y650528I11811J0D01*
G01X-1280646Y915189D02*
Y662339D01*
G01X-1280731Y675413D02*
X-1272857D01*
G01X-1280731D02*
Y677382D01*
X-1290574D01*
Y701004D01*
G01X-1280731D02*
Y677382D01*
G01X-1290574Y701004D02*
X-1280731D01*
Y702973D01*
X-1272857D01*
G01X-1287603Y770060D02*
Y716516D01*
X-1257150D01*
G01Y770060D02*
X-1287603D01*
G01Y840536D02*
Y786992D01*
X-1257150D01*
G01Y840536D02*
X-1287603D01*
G01X-1288283Y918622D02*
Y855906D01*
X-1204622D01*
Y918622D01*
X-1288283D01*
G01X-1268835Y927000D02*
G03X-1280646Y915189I0J-11811D01*
G01X-1268835Y650528D02*
X-957811D01*
G01X-1278125Y705800D02*
X-1276750Y709800D01*
X-1275375Y705800D01*
G01X-1275870Y707200D02*
X-1277630D01*
G01X-1274360Y709800D02*
Y706933D01*
X-1274140Y706333D01*
X-1273700Y705933D01*
X-1273150Y705800D01*
X-1272600Y705933D01*
X-1272160Y706333D01*
X-1271940Y706933D01*
Y709800D01*
G01X-1270760Y705800D02*
Y709800D01*
X-1269660D01*
X-1269220Y709600D01*
X-1268890Y709333D01*
X-1268615Y708933D01*
X-1268395Y708467D01*
X-1268340Y707800D01*
X-1268395Y707133D01*
X-1268615Y706667D01*
X-1268890Y706267D01*
X-1269220Y706000D01*
X-1269660Y705800D01*
X-1270760D01*
G01X-1266610Y709800D02*
X-1265290D01*
G01X-1265950D02*
Y705800D01*
G01X-1266610D02*
X-1265290D01*
G01X-1262350D02*
X-1262790Y705867D01*
X-1263175Y706133D01*
X-1263505Y706533D01*
X-1263725Y707000D01*
X-1263835Y707533D01*
Y708067D01*
X-1263725Y708600D01*
X-1263505Y709067D01*
X-1263175Y709467D01*
X-1262790Y709733D01*
X-1262350Y709800D01*
X-1261910Y709733D01*
X-1261525Y709467D01*
X-1261195Y709067D01*
X-1260975Y708600D01*
X-1260865Y708067D01*
Y707533D01*
X-1260975Y707000D01*
X-1261195Y706533D01*
X-1261525Y706133D01*
X-1261910Y705867D01*
X-1262350Y705800D01*
G01X-1277860Y775400D02*
Y772533D01*
X-1277640Y771933D01*
X-1277200Y771533D01*
X-1276650Y771400D01*
X-1276100Y771533D01*
X-1275660Y771933D01*
X-1275440Y772533D01*
Y775400D01*
G01X-1274205Y771933D02*
X-1273765Y771600D01*
X-1273270Y771400D01*
X-1272830D01*
X-1272390Y771600D01*
X-1272060Y771933D01*
X-1271895Y772400D01*
X-1272005Y772867D01*
X-1272280Y773267D01*
X-1272775Y773533D01*
X-1273435Y773667D01*
X-1273820Y773933D01*
X-1273985Y774400D01*
X-1273875Y774867D01*
X-1273600Y775200D01*
X-1273215Y775400D01*
X-1272830D01*
X-1272445Y775267D01*
X-1272115Y774933D01*
G01X-1269010Y773533D02*
X-1268790Y773733D01*
X-1268625Y774067D01*
X-1268515Y774533D01*
X-1268625Y774933D01*
X-1268845Y775200D01*
X-1269230Y775400D01*
X-1270715D01*
Y771400D01*
X-1268900D01*
X-1268515Y771667D01*
X-1268295Y772067D01*
X-1268185Y772533D01*
X-1268295Y773000D01*
X-1268625Y773400D01*
X-1269010Y773533D01*
X-1270715D01*
G01X-1278360Y846900D02*
Y844033D01*
X-1278140Y843433D01*
X-1277700Y843033D01*
X-1277150Y842900D01*
X-1276600Y843033D01*
X-1276160Y843433D01*
X-1275940Y844033D01*
Y846900D01*
G01X-1274705Y843433D02*
X-1274265Y843100D01*
X-1273770Y842900D01*
X-1273330D01*
X-1272890Y843100D01*
X-1272560Y843433D01*
X-1272395Y843900D01*
X-1272505Y844367D01*
X-1272780Y844767D01*
X-1273275Y845033D01*
X-1273935Y845167D01*
X-1274320Y845433D01*
X-1274485Y845900D01*
X-1274375Y846367D01*
X-1274100Y846700D01*
X-1273715Y846900D01*
X-1273330D01*
X-1272945Y846767D01*
X-1272615Y846433D01*
G01X-1269510Y845033D02*
X-1269290Y845233D01*
X-1269125Y845567D01*
X-1269015Y846033D01*
X-1269125Y846433D01*
X-1269345Y846700D01*
X-1269730Y846900D01*
X-1271215D01*
Y842900D01*
X-1269400D01*
X-1269015Y843167D01*
X-1268795Y843567D01*
X-1268685Y844033D01*
X-1268795Y844500D01*
X-1269125Y844900D01*
X-1269510Y845033D01*
X-1271215D01*
G01X-1268750Y919900D02*
X-1270950D01*
Y923900D01*
X-1268750D01*
G01X-1269630Y921967D02*
X-1270950D01*
G01X-1266250Y923900D02*
Y919900D01*
G01X-1267515Y923900D02*
X-1264985D01*
G01X-1263805Y919900D02*
Y923900D01*
G01X-1261495D02*
Y919900D01*
G01Y921900D02*
X-1263805D01*
G01X-1257950Y919900D02*
X-1260150D01*
Y923900D01*
X-1257950D01*
G01X-1258830Y921967D02*
X-1260150D01*
G01X-1256550Y919900D02*
Y923900D01*
X-1255175D01*
X-1254735Y923700D01*
X-1254460Y923433D01*
X-1254350Y922900D01*
X-1254460Y922367D01*
X-1254790Y922033D01*
X-1255175Y921833D01*
X-1256550D01*
G01X-1255175D02*
X-1254350Y919900D01*
G01X-1253115D02*
Y923900D01*
X-1250585Y919900D01*
Y923900D01*
G01X-1247150Y919900D02*
X-1249350D01*
Y923900D01*
X-1247150D01*
G01X-1248030Y921967D02*
X-1249350D01*
G01X-1244650Y923900D02*
Y919900D01*
G01X-1245915Y923900D02*
X-1243385D01*
G01X-957811Y927000D02*
X-1268835D01*
G01X-1262850Y666400D02*
X-1262575Y666000D01*
X-1262245Y665733D01*
X-1261860Y665600D01*
X-1261420Y665733D01*
X-1261090Y666000D01*
X-1260760Y666400D01*
X-1260650Y666933D01*
Y669600D01*
G01X-1258150D02*
Y665600D01*
G01X-1259415Y669600D02*
X-1256885D01*
G01X-1255925Y665600D02*
X-1254550Y669600D01*
X-1253175Y665600D01*
G01X-1253670Y667000D02*
X-1255430D01*
G01X-1250620Y667600D02*
X-1249520D01*
Y666400D01*
X-1249850Y666000D01*
X-1250235Y665733D01*
X-1250785Y665600D01*
X-1251335Y665733D01*
X-1251720Y666000D01*
X-1252050Y666400D01*
X-1252270Y666867D01*
X-1252380Y667400D01*
Y667867D01*
X-1252270Y668267D01*
X-1252050Y668733D01*
X-1251720Y669133D01*
X-1251390Y669400D01*
X-1250950Y669600D01*
X-1250565D01*
X-1250125Y669467D01*
X-1249795Y669200D01*
G01X-1261046Y675413D02*
X-1240180D01*
G01X-1261046Y702973D02*
X-1240180D01*
G01X-1232700Y683681D02*
Y681713D01*
G01Y696673D02*
Y694705D01*
G01X-1242150Y716516D02*
X-1234150D01*
G01X-1234650Y770060D02*
X-1242650D01*
G01X-1242150Y786992D02*
X-1234150D01*
G01X-1234650Y840536D02*
X-1242650D01*
G01X-1227509Y664941D02*
Y666941D01*
X-1223509D01*
Y664941D01*
X-1227509D01*
G01X-1227506Y669041D02*
Y671041D01*
X-1223506D01*
Y669041D01*
X-1227506D01*
G01X-1222803Y664388D02*
X-1216197D01*
Y667494D01*
X-1222803D01*
Y664388D01*
G01X-1222812Y668488D02*
X-1216206D01*
Y671594D01*
X-1222812D01*
Y668488D01*
G01X-1221864Y678013D02*
X-1226896D01*
G03X-1227683Y677226I0J-787D01*
G01Y675693D01*
G03X-1226896Y674906I787J0D01*
G01X-1221864D01*
G03X-1221077Y675693I-1J788D01*
G01Y677226D01*
G03X-1221864Y678013I-788J-1D01*
G01X-1224112Y685314D02*
Y678708D01*
X-1221006D01*
Y685314D01*
X-1224112D01*
G01X-1221761Y694313D02*
X-1226793D01*
G03X-1227580Y693526I1J-788D01*
G01Y691993D01*
G03X-1226793Y691206I788J1D01*
G01X-1221761D01*
G03X-1220974Y691993I0J787D01*
G01Y693526D01*
G03X-1221761Y694313I-787J0D01*
G01X-1220969Y698003D02*
X-1227575D01*
Y694897D01*
X-1220969D01*
Y698003D01*
G01X-1223459Y690416D02*
X-1221459D01*
Y686416D01*
X-1223459D01*
Y690416D01*
G01X-1214556Y668587D02*
X-1209523D01*
G03X-1208736Y669374I-1J788D01*
G01Y670907D01*
G03X-1209523Y671694I-788J-1D01*
G01X-1214556D01*
G03X-1215343Y670907I1J-788D01*
G01Y669374D01*
G03X-1214556Y668587I788J1D01*
G01X-1214559Y664387D02*
X-1209527D01*
G03X-1208740Y665174I0J787D01*
G01Y666707D01*
G03X-1209527Y667494I-787J0D01*
G01X-1214559D01*
G03X-1215346Y666707I0J-787D01*
G01Y665174D01*
G03X-1214559Y664387I788J1D01*
G01X-1219329Y674887D02*
X-1214296D01*
G03X-1213509Y675674I-1J788D01*
G01Y677207D01*
G03X-1214296Y677994I-788J-1D01*
G01X-1219329D01*
G03X-1220116Y677207I1J-788D01*
G01Y675674D01*
G03X-1219329Y674887I788J1D01*
G01X-1220212Y685315D02*
Y678709D01*
X-1217106D01*
Y685315D01*
X-1220212D01*
G01X-1219432Y691187D02*
X-1214400D01*
G03X-1213613Y691974I-1J788D01*
G01Y693507D01*
G03X-1214400Y694294I-787J0D01*
G01X-1219432D01*
G03X-1220219Y693507I0J-787D01*
G01Y691974D01*
G03X-1219432Y691187I787J0D01*
G01X-1220199Y694897D02*
X-1213593D01*
Y698003D01*
X-1220199D01*
Y694897D01*
G01X-1219759Y690413D02*
X-1217759D01*
Y686413D01*
X-1219759D01*
Y690413D01*
G01X-1220150Y716516D02*
X-1218705D01*
Y770060D01*
X-1220150D01*
G01X-1213453Y733549D02*
Y727367D01*
X-1208847D01*
Y733549D01*
X-1213453D01*
G01Y742613D02*
Y736431D01*
X-1208847D01*
Y742613D01*
X-1213453D01*
G01Y751331D02*
Y745149D01*
X-1208847D01*
Y751331D01*
X-1213453D01*
G01X-1212859Y760097D02*
X-1206253D01*
Y763203D01*
X-1212859D01*
Y760097D01*
G01X-1206245Y767103D02*
X-1212851D01*
Y763997D01*
X-1206245D01*
Y767103D01*
G01X-1212899Y756397D02*
X-1206293D01*
Y759503D01*
X-1212899D01*
Y756397D01*
G01X-1212803Y767947D02*
X-1206197D01*
Y771053D01*
X-1212803D01*
Y767947D01*
G01X-1212647Y775797D02*
X-1206041D01*
Y778903D01*
X-1212647D01*
Y775797D01*
G01X-1212795Y771897D02*
X-1206189D01*
Y775003D01*
X-1212795D01*
Y771897D01*
G01X-1220150Y786992D02*
X-1218705D01*
Y840536D01*
X-1220150D01*
G01X-1206057Y782803D02*
X-1212663D01*
Y779697D01*
X-1206057D01*
Y782803D01*
G01X-1213453Y807995D02*
Y801813D01*
X-1208847D01*
Y807995D01*
X-1213453D01*
G01Y829854D02*
Y823672D01*
X-1208847D01*
Y829854D01*
X-1213453D01*
G01Y819072D02*
Y812890D01*
X-1208847D01*
Y819072D01*
X-1213453D01*
G01X-1199962Y880497D02*
X-1193356D01*
Y883603D01*
X-1199962D01*
Y880497D01*
G01X-1199150Y892856D02*
Y889856D01*
G03X-1198650Y889356I500J0D01*
G01X-1197650D01*
G03X-1197150Y889856I0J500D01*
G01Y892856D01*
G03X-1197650Y893356I-500J0D01*
G01X-1198650D01*
G03X-1199150Y892856I0J-500D01*
G01X-1199962Y884297D02*
X-1193356D01*
Y887403D01*
X-1199962D01*
Y884297D01*
G01X-1198352Y896950D02*
Y898950D01*
X-1194352D01*
Y896950D01*
X-1198352D01*
G01X-1198356Y899650D02*
Y901650D01*
X-1194356D01*
Y899650D01*
X-1198356D01*
G01X-1182926Y664307D02*
G03I-5200J0D01*
G01X-1183697Y796338D02*
Y802944D01*
X-1186803D01*
Y796338D01*
X-1183697D01*
G01X-1190112Y814529D02*
Y807923D01*
X-1187006D01*
Y814529D01*
X-1190112D01*
G01X-1183088Y807967D02*
Y814573D01*
X-1186194D01*
Y807967D01*
X-1183088D01*
G01X-1187147Y817697D02*
Y824303D01*
X-1190253D01*
Y817697D01*
X-1187147D01*
G01Y828997D02*
Y835603D01*
X-1190253D01*
Y828997D01*
X-1187147D01*
G01X-1182926Y857220D02*
G03I-5200J0D01*
G01X-1193297Y888338D02*
Y894944D01*
X-1196403D01*
Y888338D01*
X-1193297D01*
G01X-1182926Y913220D02*
G03I-5200J0D01*
G01X-1179490Y656500D02*
Y660500D01*
X-1181525Y657633D01*
X-1178775D01*
G01X-1176550Y660500D02*
X-1176990Y660367D01*
X-1177320Y660033D01*
X-1177540Y659633D01*
X-1177705Y659100D01*
X-1177760Y658500D01*
X-1177705Y657900D01*
X-1177540Y657367D01*
X-1177320Y656967D01*
X-1176990Y656633D01*
X-1176550Y656500D01*
X-1176110Y656633D01*
X-1175780Y656967D01*
X-1175560Y657367D01*
X-1175395Y657900D01*
X-1175340Y658500D01*
X-1175395Y659100D01*
X-1175560Y659633D01*
X-1175780Y660033D01*
X-1176110Y660367D01*
X-1176550Y660500D01*
G01X-1181560Y668800D02*
X-1181230Y668333D01*
X-1180790Y668067D01*
X-1180295Y668000D01*
X-1179855Y668067D01*
X-1179415Y668400D01*
X-1179140Y668800D01*
X-1179085Y669200D01*
X-1179195Y669667D01*
X-1179580Y670000D01*
X-1179965Y670133D01*
X-1180460D01*
G01X-1179965D02*
X-1179635Y670333D01*
X-1179360Y670667D01*
X-1179250Y671067D01*
X-1179360Y671467D01*
X-1179635Y671800D01*
X-1180130Y672000D01*
X-1180625Y671933D01*
X-1181120Y671667D01*
G01X-1177685Y668467D02*
X-1177300Y668133D01*
X-1176860Y668000D01*
X-1176420Y668133D01*
X-1176035Y668533D01*
X-1175760Y669133D01*
X-1175650Y669733D01*
Y670467D01*
X-1175760Y671067D01*
X-1176035Y671600D01*
X-1176365Y671867D01*
X-1176750Y672000D01*
X-1177190Y671867D01*
X-1177520Y671600D01*
X-1177740Y671200D01*
X-1177850Y670667D01*
X-1177740Y670200D01*
X-1177465Y669733D01*
X-1177135Y669467D01*
X-1176750Y669400D01*
X-1176310Y669533D01*
X-1175980Y669867D01*
X-1175650Y670467D01*
G01X-1176225Y718188D02*
X-1169619D01*
Y721294D01*
X-1176225D01*
Y718188D01*
G01X-1174688Y796556D02*
Y803162D01*
X-1177794D01*
Y796556D01*
X-1174688D01*
G01X-1178312Y814543D02*
Y807937D01*
X-1175206D01*
Y814543D01*
X-1178312D01*
G01X-1179088Y807953D02*
Y814559D01*
X-1182194D01*
Y807953D01*
X-1179088D01*
G01X-1171188Y807964D02*
Y814570D01*
X-1174294D01*
Y807964D01*
X-1171188D01*
G01X-1178484Y820853D02*
X-1183516D01*
G03X-1184303Y820066I0J-787D01*
G01Y818534D01*
G03X-1183516Y817747I787J0D01*
G01X-1178484D01*
G03X-1177697Y818534I0J787D01*
G01Y820066D01*
G03X-1178484Y820853I-787J0D01*
G01X-1179200Y823600D02*
X-1182200D01*
G03X-1182700Y823100I0J-500D01*
G01Y822100D01*
G03X-1182200Y821600I500J0D01*
G01X-1179200D01*
G03X-1178700Y822100I0J500D01*
G01Y823100D01*
G03X-1179200Y823600I-500J0D01*
G01X-1178084Y829053D02*
X-1183116D01*
G03X-1183903Y828266I0J-787D01*
G01Y826734D01*
G03X-1183116Y825947I787J0D01*
G01X-1178084D01*
G03X-1177297Y826734I0J787D01*
G01Y828266D01*
G03X-1178084Y829053I-787J0D01*
G01X-1179000Y834500D02*
X-1182000D01*
G03X-1182500Y834000I0J-500D01*
G01Y833000D01*
G03X-1182000Y832500I500J0D01*
G01X-1179000D01*
G03X-1178500Y833000I0J500D01*
G01Y834000D01*
G03X-1179000Y834500I-500J0D01*
G01Y832000D02*
X-1182000D01*
G03X-1182500Y831500I0J-500D01*
G01Y830500D01*
G03X-1182000Y830000I500J0D01*
G01X-1179000D01*
G03X-1178500Y830500I0J500D01*
G01Y831500D01*
G03X-1179000Y832000I-500J0D01*
G01Y842200D02*
X-1182000D01*
G03X-1182500Y841700I0J-500D01*
G01Y840700D01*
G03X-1182000Y840200I500J0D01*
G01X-1179000D01*
G03X-1178500Y840700I0J500D01*
G01Y841700D01*
G03X-1179000Y842200I-500J0D01*
G01X-1178900Y847100D02*
X-1181900D01*
G03X-1182400Y846600I0J-500D01*
G01Y845600D01*
G03X-1181900Y845100I500J0D01*
G01X-1178900D01*
G03X-1178400Y845600I0J500D01*
G01Y846600D01*
G03X-1178900Y847100I-500J0D01*
G01X-1174000Y846500D02*
Y849500D01*
G03X-1174500Y850000I-500J0D01*
G01X-1175500D01*
G03X-1176000Y849500I0J-500D01*
G01Y846500D01*
G03X-1175500Y846000I500J0D01*
G01X-1174500D01*
G03X-1174000Y846500I0J500D01*
G01X-1181600Y868550D02*
X-1185600D01*
Y869925D01*
X-1185400Y870365D01*
X-1185133Y870640D01*
X-1184600Y870750D01*
X-1184067Y870640D01*
X-1183733Y870310D01*
X-1183533Y869925D01*
Y868550D01*
G01Y869925D02*
X-1181600Y870750D01*
G01X-1183400Y872425D02*
Y874185D01*
X-1183867Y874020D01*
X-1184133Y873745D01*
X-1184267Y873360D01*
X-1184200Y872975D01*
X-1184000Y872645D01*
X-1183533Y872425D01*
X-1183133Y872315D01*
X-1182733D01*
X-1182333Y872425D01*
X-1181933Y872700D01*
X-1181667Y873030D01*
X-1181600Y873415D01*
X-1181733Y873800D01*
X-1182133Y874185D01*
G01X-1184267Y875860D02*
X-1181600Y876850D01*
X-1184267Y877840D01*
G01X-1181600Y882675D02*
X-1185600Y884050D01*
X-1181600Y885425D01*
G01X-1183000Y884930D02*
Y883170D01*
G01X-1182400Y886440D02*
X-1181933Y886770D01*
X-1181667Y887210D01*
X-1181600Y887705D01*
X-1181667Y888145D01*
X-1182000Y888585D01*
X-1182400Y888860D01*
X-1182800Y888915D01*
X-1183267Y888805D01*
X-1183600Y888420D01*
X-1183733Y888035D01*
Y887540D01*
G01Y888035D02*
X-1183933Y888365D01*
X-1184267Y888640D01*
X-1184667Y888750D01*
X-1185067Y888640D01*
X-1185400Y888365D01*
X-1185600Y887870D01*
X-1185533Y887375D01*
X-1185267Y886880D01*
G01X-1176210Y898833D02*
X-1175990Y899033D01*
X-1175825Y899367D01*
X-1175715Y899833D01*
X-1175825Y900233D01*
X-1176045Y900500D01*
X-1176430Y900700D01*
X-1177915D01*
Y896700D01*
X-1176100D01*
X-1175715Y896967D01*
X-1175495Y897367D01*
X-1175385Y897833D01*
X-1175495Y898300D01*
X-1175825Y898700D01*
X-1176210Y898833D01*
X-1177915D01*
G01X-1173050Y896700D02*
X-1173490Y896767D01*
X-1173875Y897033D01*
X-1174205Y897433D01*
X-1174425Y897900D01*
X-1174535Y898433D01*
Y898967D01*
X-1174425Y899500D01*
X-1174205Y899967D01*
X-1173875Y900367D01*
X-1173490Y900633D01*
X-1173050Y900700D01*
X-1172610Y900633D01*
X-1172225Y900367D01*
X-1171895Y899967D01*
X-1171675Y899500D01*
X-1171565Y898967D01*
Y898433D01*
X-1171675Y897900D01*
X-1171895Y897433D01*
X-1172225Y897033D01*
X-1172610Y896767D01*
X-1173050Y896700D01*
G01X-1169450D02*
X-1169890Y896767D01*
X-1170275Y897033D01*
X-1170605Y897433D01*
X-1170825Y897900D01*
X-1170935Y898433D01*
Y898967D01*
X-1170825Y899500D01*
X-1170605Y899967D01*
X-1170275Y900367D01*
X-1169890Y900633D01*
X-1169450Y900700D01*
X-1169010Y900633D01*
X-1168625Y900367D01*
X-1168295Y899967D01*
X-1168075Y899500D01*
X-1167965Y898967D01*
Y898433D01*
X-1168075Y897900D01*
X-1168295Y897433D01*
X-1168625Y897033D01*
X-1169010Y896767D01*
X-1169450Y896700D01*
G01X-1165850Y900700D02*
Y896700D01*
G01X-1167115Y900700D02*
X-1164585D01*
G01X-1177821Y904279D02*
Y921995D01*
G01X-973953Y674307D02*
Y654307D01*
X-1173953D01*
Y674307D01*
X-973953D01*
G01X-1173650Y800276D02*
Y797276D01*
G03X-1173150Y796776I500J0D01*
G01X-1172150D01*
G03X-1171650Y797276I0J500D01*
G01Y800276D01*
G03X-1172150Y800776I-500J0D01*
G01X-1173150D01*
G03X-1173650Y800276I0J-500D01*
G01X-1170112Y814540D02*
Y807934D01*
X-1167006D01*
Y814540D01*
X-1170112D01*
G01X-1162897Y807973D02*
Y814579D01*
X-1166003D01*
Y807973D01*
X-1162897D01*
G01X-1173000Y821000D02*
Y818000D01*
G03X-1172500Y817500I500J0D01*
G01X-1171500D01*
G03X-1171000Y818000I0J500D01*
G01Y821000D01*
G03X-1171500Y821500I-500J0D01*
G01X-1172500D01*
G03X-1173000Y821000I0J-500D01*
G01X-1163500D02*
Y818000D01*
G03X-1163000Y817500I500J0D01*
G01X-1162000D01*
G03X-1161500Y818000I0J500D01*
G01Y821000D01*
G03X-1162000Y821500I-500J0D01*
G01X-1163000D01*
G03X-1163500Y821000I0J-500D01*
G01X-1169500Y846500D02*
Y849500D01*
G03X-1170000Y850000I-500J0D01*
G01X-1171000D01*
G03X-1171500Y849500I0J-500D01*
G01Y846500D01*
G03X-1171000Y846000I500J0D01*
G01X-1170000D01*
G03X-1169500Y846500I0J500D01*
G01X-1166500D02*
Y849500D01*
G03X-1167000Y850000I-500J0D01*
G01X-1168000D01*
G03X-1168500Y849500I0J-500D01*
G01Y846500D01*
G03X-1168000Y846000I500J0D01*
G01X-1167000D01*
G03X-1166500Y846500I0J500D01*
G01X-1164547Y854597D02*
Y861203D01*
X-1167653D01*
Y854597D01*
X-1164547D01*
G01X-1165223Y921995D02*
Y904279D01*
G01X-1161261Y682502D02*
X-1154569D01*
G01Y677580D02*
X-1161261D01*
G01X-1154597Y686753D02*
X-1161203D01*
Y683647D01*
X-1154597D01*
Y686753D01*
G01X-1161972Y814551D02*
Y807945D01*
X-1158866D01*
Y814551D01*
X-1161972D01*
G01X-1153500Y821000D02*
X-1150500D01*
G03X-1150000Y821500I0J500D01*
G01Y822500D01*
G03X-1150500Y823000I-500J0D01*
G01X-1153500D01*
G03X-1154000Y822500I0J-500D01*
G01Y821500D01*
G03X-1153500Y821000I500J0D01*
G01Y830500D02*
X-1150500D01*
G03X-1150000Y831000I0J500D01*
G01Y832000D01*
G03X-1150500Y832500I-500J0D01*
G01X-1153500D01*
G03X-1154000Y832000I0J-500D01*
G01Y831000D01*
G03X-1153500Y830500I500J0D01*
G01X-1156721Y836193D02*
X-1156800Y846000D01*
X-1158800Y848000D01*
Y850500D01*
G01X-1156721Y836193D02*
X-1146879D01*
Y922807D01*
X-1156721D01*
Y913469D01*
X-1158690Y911500D01*
X-1158788Y911390D01*
X-1158800Y908500D01*
G01X-1149903Y678447D02*
X-1143297D01*
Y681553D01*
X-1149903D01*
Y678447D01*
G01X-1143367Y839160D02*
X-1143567Y838830D01*
X-1143700Y838445D01*
Y838005D01*
X-1143500Y837510D01*
X-1143167Y837125D01*
X-1142767Y836850D01*
X-1142100Y836630D01*
X-1141500Y836575D01*
X-1140900Y836685D01*
X-1140500Y836850D01*
X-1140100Y837180D01*
X-1139833Y837565D01*
X-1139700Y837950D01*
Y838335D01*
X-1139833Y838720D01*
X-1140033Y839050D01*
X-1140300Y839325D01*
G01X-1139700Y840175D02*
X-1143700Y841550D01*
X-1139700Y842925D01*
G01X-1141100Y842430D02*
Y840670D01*
G01X-1139700Y843720D02*
X-1143700D01*
X-1140367Y845150D01*
X-1143700Y846580D01*
X-1139700D01*
G01Y848750D02*
X-1143700D01*
X-1142900Y848090D01*
G01X-1139700D02*
Y849410D01*
G01X-1129700Y722200D02*
X-1127700D01*
Y718200D01*
X-1129700D01*
Y722200D01*
G01X-1131912Y836193D02*
X-1131991Y846000D01*
X-1133991Y848000D01*
Y850500D01*
G01X-1131912Y836193D02*
X-1122070D01*
Y922807D01*
X-1131912D01*
Y913469D01*
X-1133881Y911500D01*
X-1133979Y911390D01*
X-1133991Y908500D01*
G01X-1118400Y722100D02*
X-1116400D01*
Y718100D01*
X-1118400D01*
Y722100D01*
G01X-1121200D02*
X-1119200D01*
Y718100D01*
X-1121200D01*
Y722100D01*
G01X-1116967Y839160D02*
X-1117167Y838830D01*
X-1117300Y838445D01*
Y838005D01*
X-1117100Y837510D01*
X-1116767Y837125D01*
X-1116367Y836850D01*
X-1115700Y836630D01*
X-1115100Y836575D01*
X-1114500Y836685D01*
X-1114100Y836850D01*
X-1113700Y837180D01*
X-1113433Y837565D01*
X-1113300Y837950D01*
Y838335D01*
X-1113433Y838720D01*
X-1113633Y839050D01*
X-1113900Y839325D01*
G01X-1113300Y840175D02*
X-1117300Y841550D01*
X-1113300Y842925D01*
G01X-1114700Y842430D02*
Y840670D01*
G01X-1113300Y843720D02*
X-1117300D01*
X-1113967Y845150D01*
X-1117300Y846580D01*
X-1113300D01*
G01X-1117300Y848750D02*
X-1117167Y848310D01*
X-1116833Y847980D01*
X-1116433Y847760D01*
X-1115900Y847595D01*
X-1115300Y847540D01*
X-1114700Y847595D01*
X-1114167Y847760D01*
X-1113767Y847980D01*
X-1113433Y848310D01*
X-1113300Y848750D01*
X-1113433Y849190D01*
X-1113767Y849520D01*
X-1114167Y849740D01*
X-1114700Y849905D01*
X-1115300Y849960D01*
X-1115900Y849905D01*
X-1116433Y849740D01*
X-1116833Y849520D01*
X-1117167Y849190D01*
X-1117300Y848750D01*
G01X-1115676Y922822D02*
X-1105676D01*
Y892822D01*
X-1115676D01*
Y922822D01*
G01X-1102750Y718159D02*
X-1104750D01*
Y722159D01*
X-1102750D01*
Y718159D01*
G01X-1108841D02*
X-1110841D01*
Y722159D01*
X-1108841D01*
Y718159D01*
G01X-1102750Y710459D02*
X-1104750D01*
Y714459D01*
X-1102750D01*
Y710459D01*
G01X-1105950Y718159D02*
X-1107950D01*
Y722159D01*
X-1105950D01*
Y718159D01*
G01Y710459D02*
X-1107950D01*
Y714459D01*
X-1105950D01*
Y710459D01*
G01X-1110800Y714500D02*
X-1108800D01*
Y710500D01*
X-1110800D01*
Y714500D01*
G01X-1100003Y822303D02*
X-1105035D01*
G03X-1105822Y821516I0J-787D01*
G01Y819984D01*
G03X-1105035Y819197I787J0D01*
G01X-1100003D01*
G03X-1099216Y819984I0J787D01*
G01Y821516D01*
G03X-1100003Y822303I-787J0D01*
G01X-1112697Y819297D02*
X-1107665D01*
G03X-1106878Y820084I0J787D01*
G01Y821616D01*
G03X-1107665Y822403I-787J0D01*
G01X-1112697D01*
G03X-1113484Y821616I0J-787D01*
G01Y820084D01*
G03X-1112697Y819297I787J0D01*
G01X-1099138Y817803D02*
X-1105744D01*
Y814697D01*
X-1099138D01*
Y817803D01*
G01X-1113362Y814697D02*
X-1106756D01*
Y817803D01*
X-1113362D01*
Y814697D01*
G01X-1110138Y823996D02*
X-1107038D01*
G01X-1114937Y830117D02*
Y827817D01*
G01X-1107038Y833838D02*
X-1110138D01*
G01X-1102311Y837920D02*
X-1104280D01*
Y839889D01*
G01Y863511D02*
Y865480D01*
X-1102311D01*
G01X-1108500Y873640D02*
X-1112500D01*
Y874740D01*
X-1112300Y875180D01*
X-1112033Y875510D01*
X-1111633Y875785D01*
X-1111167Y876005D01*
X-1110500Y876060D01*
X-1109833Y876005D01*
X-1109367Y875785D01*
X-1108967Y875510D01*
X-1108700Y875180D01*
X-1108500Y874740D01*
Y873640D01*
G01Y879550D02*
Y877350D01*
X-1112500D01*
Y879550D01*
G01X-1110567Y878670D02*
Y877350D01*
G01X-1110633Y882490D02*
X-1110833Y882710D01*
X-1111167Y882875D01*
X-1111633Y882985D01*
X-1112033Y882875D01*
X-1112300Y882655D01*
X-1112500Y882270D01*
Y880785D01*
X-1108500D01*
Y882600D01*
X-1108767Y882985D01*
X-1109167Y883205D01*
X-1109633Y883315D01*
X-1110100Y883205D01*
X-1110500Y882875D01*
X-1110633Y882490D01*
Y880785D01*
G01X-1112500Y884440D02*
X-1109633D01*
X-1109033Y884660D01*
X-1108633Y885100D01*
X-1108500Y885650D01*
X-1108633Y886200D01*
X-1109033Y886640D01*
X-1109633Y886860D01*
X-1112500D01*
G01X-1110500Y889580D02*
Y890680D01*
X-1109300D01*
X-1108900Y890350D01*
X-1108633Y889965D01*
X-1108500Y889415D01*
X-1108633Y888865D01*
X-1108900Y888480D01*
X-1109300Y888150D01*
X-1109767Y887930D01*
X-1110300Y887820D01*
X-1110767D01*
X-1111167Y887930D01*
X-1111633Y888150D01*
X-1112033Y888480D01*
X-1112300Y888810D01*
X-1112500Y889250D01*
Y889635D01*
X-1112367Y890075D01*
X-1112100Y890405D01*
G01X-1090650Y710459D02*
X-1092650D01*
Y714459D01*
X-1090650D01*
Y710459D01*
G01X-1096550Y718159D02*
X-1098550D01*
Y722159D01*
X-1096550D01*
Y718159D01*
G01X-1090850D02*
X-1092850D01*
Y722159D01*
X-1090850D01*
Y718159D01*
G01X-1093650D02*
X-1095650D01*
Y722159D01*
X-1093650D01*
Y718159D01*
G01X-1099541Y710459D02*
X-1101541D01*
Y714459D01*
X-1099541D01*
Y710459D01*
G01X-1099450Y718159D02*
X-1101450D01*
Y722159D01*
X-1099450D01*
Y718159D01*
G01X-1096360Y710459D02*
X-1098360D01*
Y714459D01*
X-1096360D01*
Y710459D01*
G01X-1093550D02*
X-1095550D01*
Y714459D01*
X-1093550D01*
Y710459D01*
G01X-1098450Y825859D02*
X-1096450D01*
Y821859D01*
X-1098450D01*
Y825859D01*
G01X-1094150D02*
X-1092150D01*
Y821859D01*
X-1094150D01*
Y825859D01*
G01X-1092250Y827936D02*
X-1094250D01*
Y831936D01*
X-1092250D01*
Y827936D01*
G01X-1096550Y827940D02*
X-1098550D01*
Y831940D01*
X-1096550D01*
Y827940D01*
G01X-1102339Y830017D02*
X-1102338Y827917D01*
G01X-1101528Y879706D02*
Y882659D01*
G01Y879706D02*
X-1095622D01*
Y886950D01*
X-1091000D01*
G01X-1101528Y897186D02*
Y907029D01*
G01Y920021D02*
Y931478D01*
G01X-1042472Y920021D02*
Y931478D01*
X-1101528D01*
G01X-1079050Y710459D02*
X-1081050D01*
Y714459D01*
X-1079050D01*
Y710459D01*
G01X-1081950Y718159D02*
X-1083950D01*
Y722159D01*
X-1081950D01*
Y718159D01*
G01X-1078950D02*
X-1080950D01*
Y722159D01*
X-1078950D01*
Y718159D01*
G01X-1084850D02*
X-1086850D01*
Y722159D01*
X-1084850D01*
Y718159D01*
G01X-1081950Y710459D02*
X-1083950D01*
Y714459D01*
X-1081950D01*
Y710459D01*
G01X-1087650D02*
X-1089650D01*
Y714459D01*
X-1087650D01*
Y710459D01*
G01X-1084850D02*
X-1086850D01*
Y714459D01*
X-1084850D01*
Y710459D01*
G01X-1087850Y718159D02*
X-1089850D01*
Y722159D01*
X-1087850D01*
Y718159D01*
G01X-1077847Y814784D02*
Y819816D01*
G03X-1078634Y820603I-787J0D01*
G01X-1080166D01*
G03X-1080953Y819816I0J-787D01*
G01Y814784D01*
G03X-1080166Y813997I787J0D01*
G01X-1078634D01*
G03X-1077847Y814784I0J787D01*
G01X-1091150Y825859D02*
X-1089150D01*
Y821859D01*
X-1091150D01*
Y825859D01*
G01X-1088150D02*
X-1086150D01*
Y821859D01*
X-1088150D01*
Y825859D01*
G01X-1084450Y817659D02*
X-1082450D01*
Y813659D01*
X-1084450D01*
Y817659D01*
G01X-1080650Y825859D02*
X-1078650D01*
Y821859D01*
X-1080650D01*
Y825859D01*
G01X-1081847Y818997D02*
Y825603D01*
X-1084953D01*
Y818997D01*
X-1081847D01*
G01X-1084050Y827928D02*
X-1086050D01*
Y831928D01*
X-1084050D01*
Y827928D01*
G01X-1088250Y827932D02*
X-1090250D01*
Y831932D01*
X-1088250D01*
Y827932D01*
G01X-1080460Y828019D02*
X-1082460D01*
Y832019D01*
X-1080460D01*
Y828019D01*
G01X-1083505Y873700D02*
Y877700D01*
G01X-1081195D02*
Y873700D01*
G01Y875700D02*
X-1083505D01*
G01X-1079960Y873700D02*
Y877700D01*
X-1078860D01*
X-1078420Y877500D01*
X-1078090Y877233D01*
X-1077815Y876833D01*
X-1077595Y876367D01*
X-1077540Y875700D01*
X-1077595Y875033D01*
X-1077815Y874567D01*
X-1078090Y874167D01*
X-1078420Y873900D01*
X-1078860Y873700D01*
X-1079960D01*
G01X-1076580D02*
Y877700D01*
X-1075150Y874367D01*
X-1073720Y877700D01*
Y873700D01*
G01X-1072210Y877700D02*
X-1070890D01*
G01X-1071550D02*
Y873700D01*
G01X-1072210D02*
X-1070890D01*
G01X-1073450Y718159D02*
X-1075450D01*
Y722159D01*
X-1073450D01*
Y718159D01*
G01X-1067750Y710441D02*
X-1069750D01*
Y714441D01*
X-1067750D01*
Y710441D01*
G01X-1076250Y718159D02*
X-1078250D01*
Y722159D01*
X-1076250D01*
Y718159D01*
G01X-1076350Y710459D02*
X-1078350D01*
Y714459D01*
X-1076350D01*
Y710459D01*
G01X-1073460D02*
X-1075460D01*
Y714459D01*
X-1073460D01*
Y710459D01*
G01X-1070750D02*
X-1072750D01*
Y714459D01*
X-1070750D01*
Y710459D01*
G01X-1070650Y718159D02*
X-1072650D01*
Y722159D01*
X-1070650D01*
Y718159D01*
G01X-1067741Y718141D02*
X-1069741D01*
Y722141D01*
X-1067741D01*
Y718141D01*
G01X-1074450Y825859D02*
X-1072450D01*
Y821859D01*
X-1074450D01*
Y825859D01*
G01X-1077650D02*
X-1075650D01*
Y821859D01*
X-1077650D01*
Y825859D01*
G01X-1067320Y837650D02*
Y835650D01*
X-1071320D01*
Y837650D01*
X-1067320D01*
G01X-1078000Y832100D02*
X-1076000D01*
Y828100D01*
X-1078000D01*
Y832100D01*
G01X-1074353Y833403D02*
Y826797D01*
X-1071247D01*
Y833403D01*
X-1074353D01*
G01X-1076720Y839889D02*
Y837920D01*
X-1078689D01*
G01X-1065484Y849753D02*
X-1070516D01*
G03X-1071303Y848966I0J-787D01*
G01Y847434D01*
G03X-1070516Y846647I787J0D01*
G01X-1065484D01*
G03X-1064697Y847434I0J787D01*
G01Y848966D01*
G03X-1065484Y849753I-787J0D01*
G01Y845753D02*
X-1070516D01*
G03X-1071303Y844966I0J-787D01*
G01Y843434D01*
G03X-1070516Y842647I787J0D01*
G01X-1065484D01*
G03X-1064697Y843434I0J787D01*
G01Y844966D01*
G03X-1065484Y845753I-787J0D01*
G01X-1071303Y838647D02*
X-1064697D01*
Y841753D01*
X-1071303D01*
Y838647D01*
G01X-1068000Y852700D02*
X-1071000D01*
G03X-1071500Y852200I0J-500D01*
G01Y851200D01*
G03X-1071000Y850700I500J0D01*
G01X-1068000D01*
G03X-1067500Y851200I0J500D01*
G01Y852200D01*
G03X-1068000Y852700I-500J0D01*
G01X-1071103Y863162D02*
Y856556D01*
X-1067997D01*
Y863162D01*
X-1071103D01*
G01X-1076720Y863905D02*
X-1078295Y865480D01*
G01X-1054647Y846597D02*
Y853203D01*
X-1057753D01*
Y846597D01*
X-1054647D01*
G01X-1061291Y842725D02*
X-1054685D01*
Y845831D01*
X-1061291D01*
Y842725D01*
G01X-1060212Y853903D02*
X-1065244D01*
G03X-1066031Y853116I0J-787D01*
G01Y851584D01*
G03X-1065244Y850797I787J0D01*
G01X-1060212D01*
G03X-1059425Y851584I0J787D01*
G01Y853116D01*
G03X-1060212Y853903I-787J0D01*
G01X-1062360Y855709D02*
X-1061966D01*
G01X-1064784Y866797D02*
X-1059752D01*
G03X-1058965Y867584I0J787D01*
G01Y869116D01*
G03X-1059752Y869903I-787J0D01*
G01X-1064784D01*
G03X-1065571Y869116I0J-787D01*
G01Y867584D01*
G03X-1064784Y866797I787J0D01*
G01X-1058226Y859842D02*
Y861419D01*
G01X-1061966Y865552D02*
X-1062360D01*
G01X-1066100Y861419D02*
Y859842D01*
G01X-1067206Y879102D02*
Y872496D01*
X-1064100D01*
Y879102D01*
X-1067206D01*
G01X-1061828Y877698D02*
Y873761D01*
G01X-1043942Y714350D02*
X-1046942D01*
G03X-1047442Y713850I0J-500D01*
G01Y712850D01*
G03X-1046942Y712350I500J0D01*
G01X-1043942D01*
G03X-1043442Y712850I0J500D01*
G01Y713850D01*
G03X-1043942Y714350I-500J0D01*
G01X-1045898Y717242D02*
X-1042798D01*
G01X-1050597Y721063D02*
X-1050598Y723163D01*
G01X-1042798Y727084D02*
X-1045898D01*
G01X-1047197Y736787D02*
Y741819D01*
G03X-1047984Y742606I-787J0D01*
G01X-1049516D01*
G03X-1050303Y741819I0J-787D01*
G01Y736787D01*
G03X-1049516Y736000I787J0D01*
G01X-1047984D01*
G03X-1047197Y736787I0J787D01*
G01X-1043197D02*
Y741819D01*
G03X-1043984Y742606I-787J0D01*
G01X-1045516D01*
G03X-1046303Y741819I0J-787D01*
G01Y736787D01*
G03X-1045516Y736000I787J0D01*
G01X-1043984D01*
G03X-1043197Y736787I0J787D01*
G01X-1051250Y732982D02*
Y741620D01*
G03X-1052431Y742801I-1181J0D01*
G01X-1055069D01*
G03X-1056250Y741620I0J-1181D01*
G01Y732982D01*
G03X-1055069Y731801I1181J0D01*
G01X-1052431D01*
G03X-1051250Y732982I0J1181D01*
G01X-1039554Y814773D02*
X-1046160D01*
Y811667D01*
X-1039554D01*
Y814773D01*
G01X-1049400Y824581D02*
Y829219D01*
G02X-1048219Y830400I1181J0D01*
G01X-1037581D01*
G02X-1036400Y829219I0J-1181D01*
G01Y824581D01*
G02X-1037581Y823400I-1181J0D01*
G01X-1048219D01*
G02X-1049400Y824581I0J1181D01*
G01X-1049408Y832422D02*
Y837059D01*
G02X-1048227Y838241I1181J1D01*
G01X-1037589D01*
G02X-1036408Y837059I0J-1181D01*
G01Y832422D01*
G02X-1037589Y831241I-1181J0D01*
G01X-1048227D01*
G02X-1049408Y832422I0J1181D01*
G01X-1048945Y857396D02*
X-1050213D01*
Y840861D01*
X-1048945D01*
G01X-1048163Y863712D02*
X-1054769D01*
Y860606D01*
X-1048163D01*
Y863712D01*
G01X-1048160Y867712D02*
X-1054766D01*
Y864606D01*
X-1048160D01*
Y867712D01*
G01X-1051986Y873761D02*
Y877698D01*
G01X-1053000Y886950D02*
X-1048378D01*
Y879706D01*
X-1042472D01*
Y882659D01*
G01X-1030300Y725600D02*
Y723600D01*
X-1034300D01*
Y725600D01*
X-1030300D01*
G01Y722700D02*
Y720700D01*
X-1034300D01*
Y722700D01*
X-1030300D01*
G01X-1037999Y720963D02*
Y723263D01*
G01X-1032497Y735587D02*
Y740619D01*
G03X-1033284Y741406I-787J0D01*
G01X-1034816D01*
G03X-1035603Y740619I0J-787D01*
G01Y735587D01*
G03X-1034816Y734800I787J0D01*
G01X-1033284D01*
G03X-1032497Y735587I0J787D01*
G01X-1036750Y733482D02*
Y742120D01*
G03X-1037931Y743301I-1181J0D01*
G01X-1040569D01*
G03X-1041750Y742120I0J-1181D01*
G01Y733482D01*
G03X-1040569Y732301I1181J0D01*
G01X-1037931D01*
G03X-1036750Y733482I0J1181D01*
G01X-1032122Y814733D02*
X-1038728D01*
Y811627D01*
X-1032122D01*
Y814733D01*
G01X-1034945Y840861D02*
X-1033678D01*
G01D02*
Y857396D01*
X-1034945D01*
G01X-1033278Y865876D02*
Y875781D01*
X-1043120D01*
Y865876D01*
G01X-1042472Y897186D02*
Y907029D01*
G01X-1024422Y688209D02*
Y683878D01*
G01D02*
X-1020091D01*
G01Y731122D02*
X-1024422D01*
Y727185D01*
G01X-1028497Y735587D02*
Y740619D01*
G03X-1029284Y741406I-787J0D01*
G01X-1030816D01*
G03X-1031603Y740619I0J-787D01*
G01Y735587D01*
G03X-1030816Y734800I787J0D01*
G01X-1029284D01*
G03X-1028497Y735587I0J787D01*
G01X-1021447Y832484D02*
Y837516D01*
G03X-1022234Y838303I-787J0D01*
G01X-1023766D01*
G03X-1024553Y837516I0J-787D01*
G01Y832484D01*
G03X-1023766Y831697I787J0D01*
G01X-1022234D01*
G03X-1021447Y832484I0J787D01*
G01X-1026984Y828453D02*
X-1032016D01*
G03X-1032803Y827666I0J-787D01*
G01Y826134D01*
G03X-1032016Y825347I787J0D01*
G01X-1026984D01*
G03X-1026197Y826134I0J787D01*
G01Y827666D01*
G03X-1026984Y828453I-787J0D01*
G01X-1025500Y834500D02*
Y837500D01*
G03X-1026000Y838000I-500J0D01*
G01X-1027000D01*
G03X-1027500Y837500I0J-500D01*
G01Y834500D01*
G03X-1027000Y834000I500J0D01*
G01X-1026000D01*
G03X-1025500Y834500I0J500D01*
G01X-1027840Y845672D02*
Y842924D01*
G01D02*
X-1025092D01*
G01Y874420D02*
X-1027840D01*
Y871672D01*
G01X-1026764Y880829D02*
Y885861D01*
G03X-1027551Y886648I-787J0D01*
G01X-1029083D01*
G03X-1029870Y885861I0J-787D01*
G01Y880829D01*
G03X-1029083Y880042I787J0D01*
G01X-1027551D01*
G03X-1026764Y880829I0J787D01*
G01X-1019399Y883212D02*
X-1026005D01*
Y880106D01*
X-1019399D01*
Y883212D01*
G01X-1021119Y889300D02*
X-1012481D01*
G03X-1011300Y890481I0J1181D01*
G01Y893119D01*
G03X-1012481Y894300I-1181J0D01*
G01X-1021119D01*
G03X-1022300Y893119I0J-1181D01*
G01Y890481D01*
G03X-1021119Y889300I1181J0D01*
G01X-1020968Y886659D02*
X-1023968D01*
G03X-1024468Y886159I0J-500D01*
G01Y885159D01*
G03X-1023968Y884659I500J0D01*
G01X-1020968D01*
G03X-1020468Y885159I0J500D01*
G01Y886159D01*
G03X-1020968Y886659I-500J0D01*
G01X-1029050Y905100D02*
Y909100D01*
X-1027675D01*
X-1027235Y908900D01*
X-1026960Y908633D01*
X-1026850Y908100D01*
X-1026960Y907567D01*
X-1027290Y907233D01*
X-1027675Y907033D01*
X-1029050D01*
G01X-1027675D02*
X-1026850Y905100D01*
G01X-1025505Y905633D02*
X-1025065Y905300D01*
X-1024570Y905100D01*
X-1024130D01*
X-1023690Y905300D01*
X-1023360Y905633D01*
X-1023195Y906100D01*
X-1023305Y906567D01*
X-1023580Y906967D01*
X-1024075Y907233D01*
X-1024735Y907367D01*
X-1025120Y907633D01*
X-1025285Y908100D01*
X-1025175Y908567D01*
X-1024900Y908900D01*
X-1024515Y909100D01*
X-1024130D01*
X-1023745Y908967D01*
X-1023415Y908633D01*
G01X-1020750Y909100D02*
Y905100D01*
G01X-1022015Y909100D02*
X-1019485D01*
G01X-1015562Y911229D02*
X-1033278D01*
G01Y923827D02*
X-1015562D01*
G01X-1012906Y749206D02*
X-1001094D01*
Y737394D01*
X-1012906D01*
Y749206D01*
G01X-1008287Y767803D02*
X-1013319D01*
G03X-1014106Y767016I0J-787D01*
G01Y765484D01*
G03X-1013319Y764697I787J0D01*
G01X-1008287D01*
G03X-1007500Y765484I0J787D01*
G01Y767016D01*
G03X-1008287Y767803I-787J0D01*
G01X-1010000Y763500D02*
X-1013000D01*
G03X-1013500Y763000I0J-500D01*
G01Y762000D01*
G03X-1013000Y761500I500J0D01*
G01X-1010000D01*
G03X-1009500Y762000I0J500D01*
G01Y763000D01*
G03X-1010000Y763500I-500J0D01*
G01Y759000D02*
X-1013000D01*
G03X-1013500Y758500I0J-500D01*
G01Y757500D01*
G03X-1013000Y757000I500J0D01*
G01X-1010000D01*
G03X-1009500Y757500I0J500D01*
G01Y758500D01*
G03X-1010000Y759000I-500J0D01*
G01X-1011159Y776500D02*
X-1009159D01*
Y772500D01*
X-1011159D01*
Y776500D01*
G01X-1009128Y777350D02*
X-1011128D01*
Y781350D01*
X-1009128D01*
Y777350D01*
G01X-1011687Y788737D02*
Y793770D01*
G03X-1012474Y794557I-788J-1D01*
G01X-1014007D01*
G03X-1014794Y793770I1J-788D01*
G01Y788737D01*
G03X-1014007Y787950I788J1D01*
G01X-1012474D01*
G03X-1011687Y788737I-1J788D01*
G01X-1013000Y777930D02*
Y780930D01*
G03X-1013500Y781430I-500J0D01*
G01X-1014500D01*
G03X-1015000Y780930I0J-500D01*
G01Y777930D01*
G03X-1014500Y777430I500J0D01*
G01X-1013500D01*
G03X-1013000Y777930I0J500D01*
G01X-1008841Y789778D02*
Y792778D01*
G03X-1009341Y793278I-500J0D01*
G01X-1010341D01*
G03X-1010841Y792778I0J-500D01*
G01Y789778D01*
G03X-1010341Y789278I500J0D01*
G01X-1009341D01*
G03X-1008841Y789778I0J500D01*
G01X-1011447Y832984D02*
Y838016D01*
G03X-1012234Y838803I-787J0D01*
G01X-1013766D01*
G03X-1014553Y838016I0J-787D01*
G01Y832984D01*
G03X-1013766Y832197I787J0D01*
G01X-1012234D01*
G03X-1011447Y832984I0J787D01*
G01X-1015500Y829181D02*
Y837819D01*
G03X-1016681Y839000I-1181J0D01*
G01X-1019319D01*
G03X-1020500Y837819I0J-1181D01*
G01Y829181D01*
G03X-1019319Y828000I1181J0D01*
G01X-1016681D01*
G03X-1015500Y829181I0J1181D01*
G01X-1018159Y878694D02*
Y888694D01*
X-1010159D01*
Y878694D01*
X-1018159D01*
G01X-1008459Y776500D02*
X-1006459D01*
Y772500D01*
X-1008459D01*
Y776500D01*
G01X-1005759D02*
X-1003759D01*
Y772500D01*
X-1005759D01*
Y776500D01*
G01X-1006428Y777350D02*
X-1008428D01*
Y781350D01*
X-1006428D01*
Y777350D01*
G01X-1003728D02*
X-1005728D01*
Y781350D01*
X-1003728D01*
Y777350D01*
G01X-999950Y804828D02*
Y806828D01*
X-995950D01*
Y804828D01*
X-999950D01*
G01Y809428D02*
Y811428D01*
X-995950D01*
Y809428D01*
X-999950D01*
G01X-1001500Y806859D02*
Y804859D01*
X-1005500D01*
Y806859D01*
X-1001500D01*
G01Y811359D02*
Y809359D01*
X-1005500D01*
Y811359D01*
X-1001500D01*
G01X-999950Y813728D02*
Y815728D01*
X-995950D01*
Y813728D01*
X-999950D01*
G01X-1001500Y815759D02*
Y813759D01*
X-1005500D01*
Y815759D01*
X-1001500D01*
G01X-997288Y832036D02*
Y838642D01*
X-1000394D01*
Y832036D01*
X-997288D01*
G01X-1004397Y832005D02*
Y838611D01*
X-1007503D01*
Y832005D01*
X-1004397D01*
G01X-999092Y842924D02*
X-997919D01*
X-996344Y844498D01*
Y845672D01*
G01Y871672D02*
Y874420D01*
X-999092D01*
G01X-1006084Y878681D02*
Y888681D01*
X-998084D01*
Y878681D01*
X-1006084D01*
G01X-1008450Y895200D02*
Y899200D01*
X-1007130D01*
X-1006690Y899000D01*
X-1006360Y898533D01*
X-1006250Y898000D01*
X-1006360Y897467D01*
X-1006635Y897067D01*
X-1007130Y896867D01*
X-1008450D01*
G01X-1005400Y899200D02*
X-1004630Y895200D01*
X-1003750Y899200D01*
X-1002870Y895200D01*
X-1002100Y899200D01*
G01X-1001250Y895200D02*
Y899200D01*
X-999875D01*
X-999435Y899000D01*
X-999160Y898733D01*
X-999050Y898200D01*
X-999160Y897667D01*
X-999490Y897333D01*
X-999875Y897133D01*
X-1001250D01*
G01X-999875D02*
X-999050Y895200D01*
G01X-993610Y899200D02*
X-992290D01*
G01X-992950D02*
Y895200D01*
G01X-993610D02*
X-992290D01*
G01X-990615D02*
Y899200D01*
X-988085Y895200D01*
Y899200D01*
G01X-997481Y894300D02*
X-1006119D01*
G03X-1007300Y893119I0J-1181D01*
G01Y890481D01*
G03X-1006119Y889300I1181J0D01*
G01X-997481D01*
G03X-996300Y890481I0J1181D01*
G01Y893119D01*
G03X-997481Y894300I-1181J0D01*
G01X-1007467Y915886D02*
Y909980D01*
G01Y931437D02*
Y926122D01*
G01Y931437D02*
X-972033D01*
Y926122D01*
G01X-987520Y677800D02*
X-986420D01*
Y676600D01*
X-986750Y676200D01*
X-987135Y675933D01*
X-987685Y675800D01*
X-988235Y675933D01*
X-988620Y676200D01*
X-988950Y676600D01*
X-989170Y677067D01*
X-989280Y677600D01*
Y678067D01*
X-989170Y678467D01*
X-988950Y678933D01*
X-988620Y679333D01*
X-988290Y679600D01*
X-987850Y679800D01*
X-987465D01*
X-987025Y679667D01*
X-986695Y679400D01*
G01X-985350Y675800D02*
Y679800D01*
X-984030D01*
X-983590Y679600D01*
X-983260Y679133D01*
X-983150Y678600D01*
X-983260Y678067D01*
X-983535Y677667D01*
X-984030Y677467D01*
X-985350D01*
G01X-981310Y679800D02*
X-979990D01*
G01X-980650D02*
Y675800D01*
G01X-981310D02*
X-979990D01*
G01X-977050D02*
X-977490Y675867D01*
X-977875Y676133D01*
X-978205Y676533D01*
X-978425Y677000D01*
X-978535Y677533D01*
Y678067D01*
X-978425Y678600D01*
X-978205Y679067D01*
X-977875Y679467D01*
X-977490Y679733D01*
X-977050Y679800D01*
X-976610Y679733D01*
X-976225Y679467D01*
X-975895Y679067D01*
X-975675Y678600D01*
X-975565Y678067D01*
Y677533D01*
X-975675Y677000D01*
X-975895Y676533D01*
X-976225Y676133D01*
X-976610Y675867D01*
X-977050Y675800D01*
G01X-998453Y747616D02*
Y742584D01*
G03X-997666Y741797I787J0D01*
G01X-996134D01*
G03X-995347Y742584I0J787D01*
G01Y747616D01*
G03X-996134Y748403I-787J0D01*
G01X-997666D01*
G03X-998453Y747616I0J-787D01*
G01X-983438Y744803D02*
X-990044D01*
Y741697D01*
X-983438D01*
Y744803D01*
G01X-989280Y745597D02*
X-984248D01*
G03X-983461Y746384I0J787D01*
G01Y747916D01*
G03X-984248Y748703I-787J0D01*
G01X-989280D01*
G03X-990067Y747916I0J-787D01*
G01Y746384D01*
G03X-989280Y745597I787J0D01*
G01X-989599Y755200D02*
X-989600Y757300D01*
G01X-991450Y765936D02*
X-993450D01*
Y769936D01*
X-991450D01*
Y765936D01*
G01X-988450Y765940D02*
X-990450D01*
Y769940D01*
X-988450D01*
Y765940D01*
G01X-985350Y765948D02*
X-987350D01*
Y769948D01*
X-985350D01*
Y765948D01*
G01X-990150Y804744D02*
X-992150D01*
Y808744D01*
X-990150D01*
Y804744D01*
G01X-987150Y804752D02*
X-989150D01*
Y808752D01*
X-987150D01*
Y804752D01*
G01X-986522Y812287D02*
X-981489D01*
G03X-980702Y813074I-1J788D01*
G01Y814607D01*
G03X-981489Y815394I-788J-1D01*
G01X-986522D01*
G03X-987309Y814607I1J-788D01*
G01Y813074D01*
G03X-986522Y812287I788J1D01*
G01X-990664Y817498D02*
Y822136D01*
G02X-989483Y823317I1181J0D01*
G01X-978845D01*
G02X-977664Y822136I0J-1181D01*
G01Y817498D01*
G02X-978845Y816317I-1181J0D01*
G01X-989483D01*
G02X-990664Y817498I0J1181D01*
G01X-990924Y850565D02*
X-992192D01*
Y834029D01*
X-990924D01*
G01X-990459Y825498D02*
Y830136D01*
G02X-989278Y831317I1181J0D01*
G01X-978640D01*
G02X-977459Y830136I0J-1181D01*
G01Y825498D01*
G02X-978640Y824317I-1181J0D01*
G01X-989278D01*
G02X-990459Y825498I0J1181D01*
G01X-985803Y860303D02*
X-990835D01*
G03X-991622Y859516I0J-787D01*
G01Y857984D01*
G03X-990835Y857197I787J0D01*
G01X-985803D01*
G03X-985016Y857984I0J787D01*
G01Y859516D01*
G03X-985803Y860303I-787J0D01*
G01X-985138Y856303D02*
X-991744D01*
Y853197D01*
X-985138D01*
Y856303D01*
G01X-991128Y869183D02*
X-981128D01*
Y861183D01*
X-991128D01*
Y869183D01*
G01X-985500Y876500D02*
X-988000D01*
G01D02*
Y893500D01*
G01X-992647Y878197D02*
Y884803D01*
X-995753D01*
Y878197D01*
X-992647D01*
G01X-985500Y893500D02*
X-988000D01*
G01X-992547Y886697D02*
Y893303D01*
X-995653D01*
Y886697D01*
X-992547D01*
G01X-988747D02*
Y893303D01*
X-991853D01*
Y886697D01*
X-988747D01*
G01X-977178Y688209D02*
Y685846D01*
X-979146Y683878D01*
X-981509D01*
G01X-977178Y726791D02*
Y731122D01*
X-981509D01*
G01X-976524Y744803D02*
X-981556D01*
G03X-982343Y744016I0J-787D01*
G01Y742484D01*
G03X-981556Y741697I787J0D01*
G01X-976524D01*
G03X-975737Y742484I0J787D01*
G01Y744016D01*
G03X-976524Y744803I-787J0D01*
G01X-979438Y740603D02*
X-986044D01*
Y737497D01*
X-979438D01*
Y740603D01*
G01X-984900Y751379D02*
X-981800D01*
G01X-977103Y767403D02*
X-982135D01*
G03X-982922Y766616I0J-787D01*
G01Y765084D01*
G03X-982135Y764297I787J0D01*
G01X-977103D01*
G03X-976316Y765084I0J787D01*
G01Y766616D01*
G03X-977103Y767403I-787J0D01*
G01X-977001Y755100D02*
Y757400D01*
G01X-981800Y761221D02*
X-984900D01*
G01X-978329Y770344D02*
X-981329D01*
G03X-981829Y769844I0J-500D01*
G01Y768844D01*
G03X-981329Y768344I500J0D01*
G01X-978329D01*
G03X-977829Y768844I0J500D01*
G01Y769844D01*
G03X-978329Y770344I-500J0D01*
G01X-984350Y804756D02*
X-986350D01*
Y808756D01*
X-984350D01*
Y804756D01*
G01X-983403Y810735D02*
Y804129D01*
X-980297D01*
Y810735D01*
X-983403D01*
G01X-976924Y834029D02*
X-975656D01*
G01D02*
Y850565D01*
X-976924D01*
G01X-979482Y855759D02*
X-982482D01*
G03X-982982Y855259I0J-500D01*
G01Y854259D01*
G03X-982482Y853759I500J0D01*
G01X-979482D01*
G03X-978982Y854259I0J500D01*
G01Y855259D01*
G03X-979482Y855759I-500J0D01*
G01X-973841Y860644D02*
Y869281D01*
G03X-975022Y870463I-1181J1D01*
G01X-977659D01*
G03X-978841Y869281I-1J-1181D01*
G01Y860644D01*
G03X-977659Y859463I1181J0D01*
G01X-975022D01*
G03X-973841Y860644I0J1181D01*
G01X-973000Y893500D02*
Y876500D01*
X-975500D01*
G01X-973000Y893500D02*
X-975500D01*
G01X-970895Y660633D02*
X-970565Y661033D01*
X-970180Y661233D01*
X-969740Y661300D01*
X-969190Y661167D01*
X-968805Y660833D01*
X-968695Y660433D01*
X-968750Y660033D01*
X-968970Y659700D01*
X-970070Y659033D01*
X-970565Y658567D01*
X-970895Y657900D01*
X-971005Y657300D01*
X-968695D01*
G01X-969950Y667300D02*
Y671300D01*
X-970610Y670500D01*
G01Y667300D02*
X-969290D01*
G01X-954580Y664307D02*
G03I-5200J0D01*
G01X-959242Y675482D02*
Y674892D01*
X-962391D01*
Y673711D01*
X-966329D01*
Y674892D01*
X-969478D01*
Y675286D01*
G01Y685128D02*
X-966329D01*
G01X-969478Y684734D02*
Y685128D01*
G01X-970750Y694227D02*
X-968750D01*
Y690227D01*
X-970750D01*
Y694227D01*
G01X-970650Y692327D02*
Y694327D01*
X-966650D01*
Y692327D01*
X-970650D01*
G01X-965677Y695927D02*
Y692927D01*
G03X-965177Y692427I500J0D01*
G01X-964177D01*
G03X-963677Y692927I0J500D01*
G01Y695927D01*
G03X-964177Y696427I-500J0D01*
G01X-965177D01*
G03X-965677Y695927I0J-500D01*
G01X-956975Y820057D02*
X-966817D01*
Y733443D01*
X-956975D01*
Y742781D01*
X-955006Y744750D01*
X-954908Y744860D01*
X-954896Y747750D01*
G01X-973056Y823741D02*
X-964419D01*
G03X-963237Y824922I1J1181D01*
G01Y827559D01*
G03X-964419Y828741I-1181J1D01*
G01X-973056D01*
G03X-974237Y827559I0J-1181D01*
G01Y824922D01*
G03X-973056Y823741I1181J0D01*
G01Y829541D02*
X-964419D01*
G03X-963237Y830722I1J1181D01*
G01Y833359D01*
G03X-964419Y834541I-1181J1D01*
G01X-973056D01*
G03X-974237Y833359I0J-1181D01*
G01Y830722D01*
G03X-973056Y829541I1181J0D01*
G01X-971300Y836179D02*
X-961394D01*
Y846021D01*
X-971300D01*
G01X-954580Y857220D02*
G03I-5200J0D01*
G01X-972693Y872784D02*
Y866178D01*
X-969587D01*
Y872784D01*
X-972693D01*
G01X-968893D02*
Y866178D01*
X-965787D01*
Y872784D01*
X-968893D01*
G01X-965093D02*
Y866178D01*
X-961987D01*
Y872784D01*
X-965093D01*
G01X-966353Y880316D02*
Y875284D01*
G03X-965566Y874497I787J0D01*
G01X-964034D01*
G03X-963247Y875284I0J787D01*
G01Y880316D01*
G03X-964034Y881103I-787J0D01*
G01X-965566D01*
G03X-966353Y880316I0J-787D01*
G01X-969600Y879000D02*
Y876000D01*
G03X-969100Y875500I500J0D01*
G01X-968100D01*
G03X-967600Y876000I0J500D01*
G01Y879000D01*
G03X-968100Y879500I-500J0D01*
G01X-969100D01*
G03X-969600Y879000I0J-500D01*
G01X-963721Y893445D02*
X-960721D01*
Y889945D01*
G01X-972229Y893445D02*
Y889945D01*
G01X-972221Y893445D02*
X-969221D01*
G01X-954580Y913220D02*
G03I-5200J0D01*
G01X-972033Y915886D02*
Y909980D01*
G01X-957811Y650528D02*
G03X-946000Y662339I0J11811D01*
G01X-962155Y685128D02*
X-959242D01*
Y684734D01*
G01X-962283Y692327D02*
X-959283D01*
G03X-958783Y692827I0J500D01*
G01Y693827D01*
G03X-959283Y694327I-500J0D01*
G01X-962283D01*
G03X-962783Y693827I0J-500D01*
G01Y692827D01*
G03X-962283Y692327I500J0D01*
G01X-957897Y694227D02*
X-955897D01*
Y690227D01*
X-957897D01*
Y694227D01*
G01X-955250Y710666D02*
Y718934D01*
G01X-950547Y725339D02*
Y730371D01*
G03X-951334Y731158I-787J0D01*
G01X-952866D01*
G03X-953653Y730371I0J-787D01*
G01Y725339D01*
G03X-952866Y724552I787J0D01*
G01X-951334D01*
G03X-950547Y725339I0J787D01*
G01X-949200Y811140D02*
X-953200D01*
Y812240D01*
X-953000Y812680D01*
X-952733Y813010D01*
X-952333Y813285D01*
X-951867Y813505D01*
X-951200Y813560D01*
X-950533Y813505D01*
X-950067Y813285D01*
X-949667Y813010D01*
X-949400Y812680D01*
X-949200Y812240D01*
Y811140D01*
G01X-953200Y815290D02*
Y816610D01*
G01Y815950D02*
X-949200D01*
G01Y815290D02*
Y816610D01*
G01X-949733Y818395D02*
X-949400Y818835D01*
X-949200Y819330D01*
Y819770D01*
X-949400Y820210D01*
X-949733Y820540D01*
X-950200Y820705D01*
X-950667Y820595D01*
X-951067Y820320D01*
X-951333Y819825D01*
X-951467Y819165D01*
X-951733Y818780D01*
X-952200Y818615D01*
X-952667Y818725D01*
X-953000Y819000D01*
X-953200Y819385D01*
Y819770D01*
X-953067Y820155D01*
X-952733Y820485D01*
G01X-949200Y822050D02*
X-953200D01*
Y823370D01*
X-953000Y823810D01*
X-952533Y824140D01*
X-952000Y824250D01*
X-951467Y824140D01*
X-951067Y823865D01*
X-950867Y823370D01*
Y822050D01*
G01X-953200Y825650D02*
X-949200D01*
Y827850D01*
G01Y828975D02*
X-953200Y830350D01*
X-949200Y831725D01*
G01X-950600Y831230D02*
Y829470D01*
G01X-949200Y833950D02*
X-951000D01*
X-953200Y832850D01*
G01Y835050D02*
X-951000Y833950D01*
G01X-956975Y820057D02*
X-956896Y810250D01*
X-954896Y808250D01*
Y805750D01*
G01X-959303Y841647D02*
X-952697D01*
Y844753D01*
X-959303D01*
Y841647D01*
G01Y837747D02*
X-952697D01*
Y840853D01*
X-959303D01*
Y837747D01*
G01X-949200Y870050D02*
X-953200D01*
Y871370D01*
X-953000Y871810D01*
X-952533Y872140D01*
X-952000Y872250D01*
X-951467Y872140D01*
X-951067Y871865D01*
X-950867Y871370D01*
Y870050D01*
G01X-953200Y873100D02*
X-949200Y873870D01*
X-953200Y874750D01*
X-949200Y875630D01*
X-953200Y876400D01*
G01X-949200Y877250D02*
X-953200D01*
Y878625D01*
X-953000Y879065D01*
X-952733Y879340D01*
X-952200Y879450D01*
X-951667Y879340D01*
X-951333Y879010D01*
X-951133Y878625D01*
Y877250D01*
G01Y878625D02*
X-949200Y879450D01*
G01X-954713Y869175D02*
X-961319D01*
Y866069D01*
X-954713D01*
Y869175D01*
G01X-959756Y886659D02*
X-949256D01*
Y881659D01*
X-959756D01*
Y886659D01*
G01X-956889Y873387D02*
X-958495D01*
G01X-960826D02*
Y876537D01*
X-959251D01*
G01X-954526Y873387D02*
Y876537D01*
X-956101D01*
G01X-959806Y894659D02*
X-949306D01*
Y889659D01*
X-959806D01*
Y894659D01*
G01X-949300Y896075D02*
X-953300Y897450D01*
X-949300Y898825D01*
G01X-950700Y898330D02*
Y896570D01*
G01X-952967Y902260D02*
X-953167Y901930D01*
X-953300Y901545D01*
Y901105D01*
X-953100Y900610D01*
X-952767Y900225D01*
X-952367Y899950D01*
X-951700Y899730D01*
X-951100Y899675D01*
X-950500Y899785D01*
X-950100Y899950D01*
X-949700Y900280D01*
X-949433Y900665D01*
X-949300Y901050D01*
Y901435D01*
X-949433Y901820D01*
X-949633Y902150D01*
X-949900Y902425D01*
G01X-949300Y903440D02*
X-953300D01*
G01Y905530D02*
X-950833Y903440D01*
G01X-949300Y905860D02*
X-951967Y904375D01*
G01X-946000Y915189D02*
G03X-957811Y927000I-11811J0D01*
G01X-946000Y662339D02*
Y915189D01*
G01X-948950Y718934D02*
Y710666D01*
G54D13*
G01X-1204335Y739085D02*
X-1201335Y737835D01*
X-1204335Y736585D01*
G01X-1203285Y737035D02*
Y738635D01*
G01X-1202735Y734335D02*
X-1202585Y734135D01*
X-1202335Y733985D01*
X-1201985Y733885D01*
X-1201685Y733985D01*
X-1201485Y734185D01*
X-1201335Y734535D01*
Y735885D01*
X-1204335D01*
Y734235D01*
X-1204135Y733885D01*
X-1203835Y733685D01*
X-1203485Y733585D01*
X-1203135Y733685D01*
X-1202835Y733985D01*
X-1202735Y734335D01*
Y735885D01*
G01X-1200382Y793224D02*
Y733776D01*
X-1160618D01*
Y793224D01*
X-1200382D01*
G01X-1202547Y787909D02*
Y739091D01*
X-1204122Y740665D01*
G01X-1160618Y792240D02*
Y734760D01*
X-1200382D01*
Y792240D01*
X-1160618D01*
G01X-1204335Y791128D02*
X-1201335Y789878D01*
X-1204335Y788628D01*
G01X-1203285Y789078D02*
Y790678D01*
G01X-1199217Y796571D02*
X-1196217D01*
X-1196817Y797171D01*
G01X-1199217D02*
Y795971D01*
G01X-1197626Y793224D02*
X-1200382Y790469D01*
G01X-1195461Y794996D02*
X-1165539D01*
X-1167114Y796571D01*
G01X-1163783Y798071D02*
X-1160783D01*
X-1161383Y798671D01*
G01X-1163783D02*
Y797471D01*
G01X-1161283Y795921D02*
X-1160983Y795621D01*
X-1160833Y795271D01*
X-1160783Y794871D01*
X-1160883Y794371D01*
X-1161133Y794021D01*
X-1161433Y793921D01*
X-1161733Y793971D01*
X-1161983Y794171D01*
X-1162483Y795171D01*
X-1162833Y795621D01*
X-1163333Y795921D01*
X-1163783Y796021D01*
Y793921D01*
G01X-1150785Y728215D02*
X-1067715D01*
Y811285D01*
X-1150785D01*
Y728215D01*
G01X-1152754Y733923D02*
Y805577D01*
X-1154033Y804297D01*
G01X-1145077Y726246D02*
X-1073423D01*
X-1074703Y724967D01*
G01X-1061835Y752999D02*
X-1058835Y751749D01*
X-1061835Y750499D01*
G01X-1060785Y750949D02*
Y752549D01*
G01X-1060235Y748249D02*
X-1060085Y748049D01*
X-1059835Y747899D01*
X-1059485Y747799D01*
X-1059185Y747899D01*
X-1058985Y748099D01*
X-1058835Y748449D01*
Y749799D01*
X-1061835D01*
Y748149D01*
X-1061635Y747799D01*
X-1061335Y747599D01*
X-1060985Y747499D01*
X-1060635Y747599D01*
X-1060335Y747899D01*
X-1060235Y748249D01*
Y749799D01*
G01X-1057882Y807138D02*
Y747690D01*
X-1018118D01*
Y807138D01*
X-1057882D01*
G01X-1060047Y801823D02*
Y753005D01*
X-1061622Y754579D01*
G01X-1018118Y806154D02*
Y748674D01*
X-1057882D01*
Y806154D01*
X-1018118D01*
G01X-1061835Y805042D02*
X-1058835Y803792D01*
X-1061835Y802542D01*
G01X-1060785Y802992D02*
Y804592D01*
G01X-1056717Y810485D02*
X-1053717D01*
X-1054317Y811085D01*
G01X-1056717D02*
Y809885D01*
G01X-1055126Y807138D02*
X-1057882Y804383D01*
G01X-1052961Y808910D02*
X-1023039D01*
X-1024614Y810485D01*
G01X-1021283Y811985D02*
X-1018283D01*
X-1018883Y812585D01*
G01X-1021283D02*
Y811385D01*
G01X-1018783Y809835D02*
X-1018483Y809535D01*
X-1018333Y809185D01*
X-1018283Y808785D01*
X-1018383Y808285D01*
X-1018633Y807935D01*
X-1018933Y807835D01*
X-1019233Y807885D01*
X-1019483Y808085D01*
X-1019983Y809085D01*
X-1020333Y809535D01*
X-1020833Y809835D01*
X-1021283Y809935D01*
Y807835D01*
G01X-999137Y775409D02*
X-998650D01*
G01X-999137Y799425D02*
Y775409D01*
G01Y799425D02*
X-998688D01*
G01X-979059Y775409D02*
X-979559D01*
G01X-979059D02*
Y799425D01*
G01D02*
X-979446D01*
G54D14*
G01X-1200000Y804517D02*
X-1200225Y804750D01*
X-1200600Y804925D01*
X-1201125Y805042D01*
X-1201575Y804925D01*
X-1201875Y804692D01*
X-1202100Y804283D01*
Y802708D01*
X-1197600D01*
Y804633D01*
X-1197900Y805042D01*
X-1198350Y805275D01*
X-1198875Y805392D01*
X-1199400Y805275D01*
X-1199850Y804925D01*
X-1200000Y804517D01*
Y802708D01*
G01X-1199625Y806875D02*
Y808742D01*
X-1200150Y808567D01*
X-1200450Y808275D01*
X-1200600Y807867D01*
X-1200525Y807458D01*
X-1200300Y807108D01*
X-1199775Y806875D01*
X-1199325Y806758D01*
X-1198875D01*
X-1198425Y806875D01*
X-1197975Y807167D01*
X-1197675Y807517D01*
X-1197600Y807925D01*
X-1197750Y808333D01*
X-1198200Y808742D01*
G01X-1197600Y812500D02*
X-1200600D01*
G01X-1200075D02*
X-1200375Y812267D01*
X-1200525Y811917D01*
X-1200600Y811508D01*
X-1200450Y811100D01*
X-1200150Y810750D01*
X-1199700Y810517D01*
X-1199100Y810400D01*
X-1198500Y810517D01*
X-1198050Y810750D01*
X-1197750Y811100D01*
X-1197600Y811508D01*
X-1197675Y811917D01*
X-1197900Y812267D01*
X-1198200Y812500D01*
G01X-1196475Y814333D02*
X-1196175Y814742D01*
X-1196100Y815208D01*
X-1196175Y815617D01*
X-1196550Y815967D01*
X-1197075Y816200D01*
X-1200600D01*
G01X-1200000D02*
X-1200300Y815967D01*
X-1200525Y815617D01*
X-1200600Y815208D01*
X-1200450Y814742D01*
X-1200150Y814450D01*
X-1199625Y814217D01*
X-1199100Y814100D01*
X-1198650Y814158D01*
X-1198125Y814392D01*
X-1197750Y814742D01*
X-1197600Y815208D01*
X-1197675Y815558D01*
X-1197975Y815967D01*
X-1198275Y816200D01*
G01X-1197600Y818850D02*
X-1202100D01*
G01X-1199625Y821675D02*
Y823542D01*
X-1200150Y823367D01*
X-1200450Y823075D01*
X-1200600Y822667D01*
X-1200525Y822258D01*
X-1200300Y821908D01*
X-1199775Y821675D01*
X-1199325Y821558D01*
X-1198875D01*
X-1198425Y821675D01*
X-1197975Y821967D01*
X-1197675Y822317D01*
X-1197600Y822725D01*
X-1197750Y823133D01*
X-1198200Y823542D01*
G01X-1202100Y824792D02*
X-1197600Y826250D01*
X-1202100Y827708D01*
G01X-1198700Y836592D02*
Y838108D01*
G01X-1197700Y842125D02*
X-1197325Y842592D01*
X-1197100Y843117D01*
Y843583D01*
X-1197325Y844050D01*
X-1197700Y844400D01*
X-1198225Y844575D01*
X-1198750Y844458D01*
X-1199200Y844167D01*
X-1199500Y843642D01*
X-1199650Y842942D01*
X-1199950Y842533D01*
X-1200475Y842358D01*
X-1201000Y842475D01*
X-1201375Y842767D01*
X-1201600Y843175D01*
Y843583D01*
X-1201450Y843992D01*
X-1201075Y844342D01*
G01X-1201600Y847050D02*
X-1197100D01*
G01X-1200100Y846233D02*
Y847867D01*
G01X-1197100Y851800D02*
X-1200100D01*
G01X-1199575D02*
X-1199875Y851567D01*
X-1200025Y851217D01*
X-1200100Y850808D01*
X-1199950Y850400D01*
X-1199650Y850050D01*
X-1199200Y849817D01*
X-1198600Y849700D01*
X-1198000Y849817D01*
X-1197550Y850050D01*
X-1197250Y850400D01*
X-1197100Y850808D01*
X-1197175Y851217D01*
X-1197400Y851567D01*
X-1197700Y851800D01*
G01X-1197100Y853633D02*
X-1200100D01*
G01X-1199500D02*
X-1199800Y853925D01*
X-1200025Y854217D01*
X-1200100Y854625D01*
X-1200025Y854917D01*
X-1199800Y855267D01*
G01X-1201600Y856983D02*
X-1197100D01*
Y859317D01*
G01X-1200100Y861850D02*
X-1197100D01*
G01X-1201300D02*
X-1201375Y861733D01*
X-1201525D01*
X-1201600Y861850D01*
X-1201525Y861967D01*
X-1201375D01*
X-1201300Y861850D01*
G01X-1195975Y864733D02*
X-1195675Y865142D01*
X-1195600Y865608D01*
X-1195675Y866017D01*
X-1196050Y866367D01*
X-1196575Y866600D01*
X-1200100D01*
G01X-1199500D02*
X-1199800Y866367D01*
X-1200025Y866017D01*
X-1200100Y865608D01*
X-1199950Y865142D01*
X-1199650Y864850D01*
X-1199125Y864617D01*
X-1198600Y864500D01*
X-1198150Y864558D01*
X-1197625Y864792D01*
X-1197250Y865142D01*
X-1197100Y865608D01*
X-1197175Y865958D01*
X-1197475Y866367D01*
X-1197775Y866600D01*
G01X-1197100Y868258D02*
X-1201600D01*
G01X-1199425D02*
X-1199800Y868550D01*
X-1200025Y868842D01*
X-1200100Y869308D01*
X-1200025Y869658D01*
X-1199725Y870067D01*
X-1199275Y870242D01*
X-1197100D01*
G01X-1201600Y872950D02*
X-1197100D01*
G01X-1200100Y872133D02*
Y873767D01*
G54D15*
G01X-973635Y686634D02*
G03I-787J0D01*
M02*
