G04 ================== begin FILE IDENTIFICATION RECORD ==================*
G04 Layout Name:  BeagleV_15.brd*
G04 Film Name:    silk_bottom*
G04 File Format:  Gerber RS274X*
G04 File Origin:  Cadence Allegro 17.2-061*
G04 Origin Date:  Wed Apr 21 13:44:34 2021*
G04 *
G04 Layer:  PACKAGE GEOMETRY/SILKSCREEN_BOTTOM*
G04 Layer:  BOARD GEOMETRY/SILKSCREEN_BOTTOM*
G04 Layer:  BOARD GEOMETRY/OUTLINE*
G04 *
G04 Offset:    (0.00 0.00)*
G04 Mirror:    No*
G04 Mode:      Positive*
G04 Rotation:  0*
G04 FullContactRelief:  No*
G04 UndefLineWidth:     4.00*
G04 ================== end FILE IDENTIFICATION RECORD ====================*
%FSLAX25Y25*MOIN*%
%IR0*IPPOS*OFA0.00000B0.00000*MIA0B0*SFA1.00000B1.00000*%
%ADD10C,.01*%
%ADD11C,.002*%
%ADD12C,.005*%
%ADD13C,.004*%
%ADD14C,.006*%
G75*
%LPD*%
G75*
G36*
G01X-1134278Y861493D02*
X-1135778Y862993D01*
X-1137278Y861493D01*
X-1134278D01*
G37*
G36*
G01X-1130778Y902614D02*
X-1132278Y904114D01*
X-1133778Y902614D01*
X-1130778D01*
G37*
G36*
G01X-960306Y890841D02*
X-958806Y892341D01*
X-960306Y893841D01*
Y890841D01*
G37*
G54D10*
G01X-1260500Y814000D02*
G03I-500J0D01*
G01X-1149000Y851000D02*
G03I-500J0D01*
G01X-1131140Y849795D02*
G03I-500J0D01*
G01X-1083683Y823840D02*
G03I-500J0D01*
G01X-1090300Y891000D02*
G03I-500J0D01*
G01X-1078500D02*
G03I-500J0D01*
G01X-965083Y885776D02*
G03I-500J0D01*
G01X-950305Y836876D02*
G03I-500J0D01*
G54D11*
G01X-1112724Y845303D02*
Y846603D01*
X-1112564Y846343D01*
G01Y845303D02*
X-1112884D01*
G54D12*
G01X-1280646Y662339D02*
G03X-1268835Y650528I11811J0D01*
G01X-1280646Y915189D02*
Y662339D01*
G01X-1268835Y927000D02*
G03X-1280646Y915189I0J-11811D01*
G01X-1268835Y650528D02*
X-957811D01*
G01X-1269500Y736500D02*
Y753500D01*
G02X-1261500I4000J-7375D01*
G01Y736500D01*
G01X-1269500D02*
G03X-1261500I4000J7500D01*
G01X-1268274Y800293D02*
Y803443D01*
X-1266699D01*
G01X-1272303Y798638D02*
Y805244D01*
X-1269197D01*
Y798638D01*
X-1272303D01*
G01X-1270937Y807857D02*
Y807563D01*
X-1263063D01*
Y807857D01*
G01X-1276344Y809929D02*
Y812929D01*
G02X-1275844Y813429I500J0D01*
G01X-1274844D01*
G02X-1274344Y812929I0J-500D01*
G01Y809929D01*
G02X-1274844Y809429I-500J0D01*
G01X-1275844D01*
G02X-1276344Y809929I0J500D01*
G01X-1263063Y815437D02*
X-1270937D01*
Y815143D01*
G01X-1276683Y825750D02*
X-1259683D01*
G02Y817750I-7375J-4000D01*
G01X-1276683D01*
G01Y825750D02*
G03Y817750I7500J-4000D01*
G01X-1267571Y828844D02*
X-1264571D01*
G02X-1264071Y828344I0J-500D01*
G01Y827344D01*
G02X-1264571Y826844I-500J0D01*
G01X-1267571D01*
G02X-1268071Y827344I0J500D01*
G01Y828344D01*
G02X-1267571Y828844I500J0D01*
G01X-957811Y927000D02*
X-1268835D01*
G01X-1260500Y745500D02*
Y748500D01*
G02X-1260000Y749000I500J0D01*
G01X-1259000D01*
G02X-1258500Y748500I0J-500D01*
G01Y745500D01*
G02X-1259000Y745000I-500J0D01*
G01X-1260000D01*
G02X-1260500Y745500I0J500D01*
G01X-1265911Y800293D02*
X-1264305D01*
G01X-1261974D02*
Y803443D01*
X-1263549D01*
G01X-1259803Y808138D02*
Y814744D01*
X-1256697D01*
Y808138D01*
X-1259803D01*
G01X-1263063Y815143D02*
Y815437D01*
G01X-1200432Y681664D02*
X-1205465D01*
G02X-1206252Y682451I0J787D01*
G01Y683983D01*
G02X-1205465Y684770I788J-1D01*
G01X-1200432D01*
G02X-1199645Y683983I0J-787D01*
G01Y682451D01*
G02X-1200432Y681664I-787J0D01*
G01X-1202085Y685741D02*
X-1205085D01*
G02X-1205585Y686241I0J500D01*
G01Y687241D01*
G02X-1205085Y687741I500J0D01*
G01X-1202085D01*
G02X-1201585Y687241I0J-500D01*
G01Y686241D01*
G02X-1202085Y685741I-500J0D01*
G01X-1201600Y704500D02*
X-1204600D01*
G02X-1205100Y705000I0J500D01*
G01Y706000D01*
G02X-1204600Y706500I500J0D01*
G01X-1201600D01*
G02X-1201100Y706000I0J-500D01*
G01Y705000D01*
G02X-1201600Y704500I-500J0D01*
G01X-1200184Y708647D02*
X-1205216D01*
G02X-1206003Y709434I0J787D01*
G01Y710966D01*
G02X-1205216Y711753I787J0D01*
G01X-1200184D01*
G02X-1199397Y710966I0J-787D01*
G01Y709434D01*
G02X-1200184Y708647I-787J0D01*
G01X-1199396Y713046D02*
X-1206003D01*
Y716153D01*
X-1199396D01*
Y713046D01*
G01X-1199700Y722581D02*
Y731219D01*
G02X-1198519Y732400I1181J0D01*
G01X-1195881D01*
G02X-1194700Y731219I0J-1181D01*
G01Y722581D01*
G02X-1195881Y721400I-1181J0D01*
G01X-1198519D01*
G02X-1199700Y722581I0J1181D01*
G01X-1203100Y740500D02*
Y743500D01*
G02X-1202600Y744000I500J0D01*
G01X-1201600D01*
G02X-1201100Y743500I0J-500D01*
G01Y740500D01*
G02X-1201600Y740000I-500J0D01*
G01X-1202600D01*
G02X-1203100Y740500I0J500D01*
G01X-1201147Y755416D02*
Y750384D01*
G02X-1201934Y749597I-787J0D01*
G01X-1203466D01*
G02X-1204253Y750384I0J787D01*
G01Y755416D01*
G02X-1203466Y756203I787J0D01*
G01X-1201934D01*
G02X-1201147Y755416I0J-787D01*
G01X-1203000Y745300D02*
Y748300D01*
G02X-1202500Y748800I500J0D01*
G01X-1201500D01*
G02X-1201000Y748300I0J-500D01*
G01Y745300D01*
G02X-1201500Y744800I-500J0D01*
G01X-1202500D01*
G02X-1203000Y745300I0J500D01*
G01X-1201100Y767100D02*
Y764100D01*
G02X-1201600Y763600I-500J0D01*
G01X-1202600D01*
G02X-1203100Y764100I0J500D01*
G01Y767100D01*
G02X-1202600Y767600I500J0D01*
G01X-1201600D01*
G02X-1201100Y767100I0J-500D01*
G01X-1203400Y757500D02*
Y760500D01*
G02X-1202900Y761000I500J0D01*
G01X-1201900D01*
G02X-1201400Y760500I0J-500D01*
G01Y757500D01*
G02X-1201900Y757000I-500J0D01*
G01X-1202900D01*
G02X-1203400Y757500I0J500D01*
G01X-1207653Y776884D02*
Y781916D01*
G02X-1206866Y782703I787J0D01*
G01X-1205334D01*
G02X-1204547Y781916I0J-787D01*
G01Y776884D01*
G02X-1205334Y776097I-787J0D01*
G01X-1206866D01*
G02X-1207653Y776884I0J787D01*
G01X-1201500Y789000D02*
Y786000D01*
G02X-1202000Y785500I-500J0D01*
G01X-1203000D01*
G02X-1203500Y786000I0J500D01*
G01Y789000D01*
G02X-1203000Y789500I500J0D01*
G01X-1202000D01*
G02X-1201500Y789000I0J-500D01*
G01X-1203700Y778000D02*
Y781000D01*
G02X-1203200Y781500I500J0D01*
G01X-1202200D01*
G02X-1201700Y781000I0J-500D01*
G01Y778000D01*
G02X-1202200Y777500I-500J0D01*
G01X-1203200D01*
G02X-1203700Y778000I0J500D01*
G01X-1182926Y664307D02*
G03I-5200J0D01*
G01X-1190053Y723784D02*
Y728816D01*
G02X-1189266Y729603I787J0D01*
G01X-1187734D01*
G02X-1186947Y728816I0J-787D01*
G01Y723784D01*
G02X-1187734Y722997I-787J0D01*
G01X-1189266D01*
G02X-1190053Y723784I0J787D01*
G01X-1193853D02*
Y728816D01*
G02X-1193066Y729603I787J0D01*
G01X-1191534D01*
G02X-1190747Y728816I0J-787D01*
G01Y723784D01*
G02X-1191534Y722997I-787J0D01*
G01X-1193066D01*
G02X-1193853Y723784I0J787D01*
G01X-1191600Y734300D02*
X-1188600D01*
G02X-1188100Y733800I0J-500D01*
G01Y732800D01*
G02X-1188600Y732300I-500J0D01*
G01X-1191600D01*
G02X-1192100Y732800I0J500D01*
G01Y733800D01*
G02X-1191600Y734300I500J0D01*
G01X-1190800Y749200D02*
X-1187800D01*
G02X-1187300Y748700I0J-500D01*
G01Y747700D01*
G02X-1187800Y747200I-500J0D01*
G01X-1190800D01*
G02X-1191300Y747700I0J500D01*
G01Y748700D01*
G02X-1190800Y749200I500J0D01*
G01X-1194656Y789850D02*
X-1191656D01*
G02X-1191156Y789350I0J-500D01*
G01Y788350D01*
G02X-1191656Y787850I-500J0D01*
G01X-1194656D01*
G02X-1195156Y788350I0J500D01*
G01Y789350D01*
G02X-1194656Y789850I500J0D01*
G01X-1187000Y777800D02*
X-1190000D01*
G02X-1190500Y778300I0J500D01*
G01Y779300D01*
G02X-1190000Y779800I500J0D01*
G01X-1187000D01*
G02X-1186500Y779300I0J-500D01*
G01Y778300D01*
G02X-1187000Y777800I-500J0D01*
G01X-1192400Y795600D02*
X-1189400D01*
G02X-1188900Y795100I0J-500D01*
G01Y794100D01*
G02X-1189400Y793600I-500J0D01*
G01X-1192400D01*
G02X-1192900Y794100I0J500D01*
G01Y795100D01*
G02X-1192400Y795600I500J0D01*
G01X-1182926Y857220D02*
G03I-5200J0D01*
G01Y913220D02*
G03I-5200J0D01*
G01X-1175916Y691353D02*
X-1170884D01*
G02X-1170097Y690566I0J-787D01*
G01Y689034D01*
G02X-1170884Y688247I-787J0D01*
G01X-1175916D01*
G02X-1176703Y689034I0J787D01*
G01Y690566D01*
G02X-1175916Y691353I787J0D01*
G01X-1174600Y687500D02*
X-1171600D01*
G02X-1171100Y687000I0J-500D01*
G01Y686000D01*
G02X-1171600Y685500I-500J0D01*
G01X-1174600D01*
G02X-1175100Y686000I0J500D01*
G01Y687000D01*
G02X-1174600Y687500I500J0D01*
G01X-1175961Y714136D02*
X-1170928D01*
G02X-1170141Y713349I0J-787D01*
G01Y711817D01*
G02X-1170928Y711030I-787J0D01*
G01X-1175961D01*
G02X-1176748Y711817I0J787D01*
G01Y713349D01*
G02X-1175961Y714136I787J0D01*
G01X-1174307Y710059D02*
X-1171307D01*
G02X-1170807Y709559I0J-500D01*
G01Y708559D01*
G02X-1171307Y708059I-500J0D01*
G01X-1174307D01*
G02X-1174807Y708559I0J500D01*
G01Y709559D01*
G02X-1174307Y710059I500J0D01*
G01X-1179653Y724384D02*
Y729416D01*
G02X-1178866Y730203I787J0D01*
G01X-1177334D01*
G02X-1176547Y729416I0J-787D01*
G01Y724384D01*
G02X-1177334Y723597I-787J0D01*
G01X-1178866D01*
G02X-1179653Y724384I0J787D01*
G01X-1175753D02*
Y729416D01*
G02X-1174966Y730203I787J0D01*
G01X-1173434D01*
G02X-1172647Y729416I0J-787D01*
G01Y724384D01*
G02X-1173434Y723597I-787J0D01*
G01X-1174966D01*
G02X-1175753Y724384I0J787D01*
G01X-1177164Y736850D02*
X-1174164D01*
G02X-1173664Y736350I0J-500D01*
G01Y735350D01*
G02X-1174164Y734850I-500J0D01*
G01X-1177164D01*
G02X-1177664Y735350I0J500D01*
G01Y736350D01*
G02X-1177164Y736850I500J0D01*
G01X-1183524Y744550D02*
X-1180524D01*
G02X-1180024Y744050I0J-500D01*
G01Y743050D01*
G02X-1180524Y742550I-500J0D01*
G01X-1183524D01*
G02X-1184024Y743050I0J500D01*
G01Y744050D01*
G02X-1183524Y744550I500J0D01*
G01X-1180620Y747450D02*
X-1183620D01*
G02X-1184120Y747950I0J500D01*
G01Y748950D01*
G02X-1183620Y749450I500J0D01*
G01X-1180620D01*
G02X-1180120Y748950I0J-500D01*
G01Y747950D01*
G02X-1180620Y747450I-500J0D01*
G01X-1180550Y755968D02*
Y752968D01*
G02X-1181050Y752468I-500J0D01*
G01X-1182050D01*
G02X-1182550Y752968I0J500D01*
G01Y755968D01*
G02X-1182050Y756468I500J0D01*
G01X-1181050D01*
G02X-1180550Y755968I0J-500D01*
G01X-1174400Y762000D02*
X-1171400D01*
G02X-1170900Y761500I0J-500D01*
G01Y760500D01*
G02X-1171400Y760000I-500J0D01*
G01X-1174400D01*
G02X-1174900Y760500I0J500D01*
G01Y761500D01*
G02X-1174400Y762000I500J0D01*
G01X-1185040Y772050D02*
X-1182040D01*
G02X-1181540Y771550I0J-500D01*
G01Y770550D01*
G02X-1182040Y770050I-500J0D01*
G01X-1185040D01*
G02X-1185540Y770550I0J500D01*
G01Y771550D01*
G02X-1185040Y772050I500J0D01*
G01X-1179900Y776300D02*
Y779300D01*
G02X-1179400Y779800I500J0D01*
G01X-1178400D01*
G02X-1177900Y779300I0J-500D01*
G01Y776300D01*
G02X-1178400Y775800I-500J0D01*
G01X-1179400D01*
G02X-1179900Y776300I0J500D01*
G01X-1183560Y784750D02*
X-1180560D01*
G02X-1180060Y784250I0J-500D01*
G01Y783250D01*
G02X-1180560Y782750I-500J0D01*
G01X-1183560D01*
G02X-1184060Y783250I0J500D01*
G01Y784250D01*
G02X-1183560Y784750I500J0D01*
G01X-1175644Y810229D02*
Y813229D01*
G02X-1175144Y813729I500J0D01*
G01X-1174144D01*
G02X-1173644Y813229I0J-500D01*
G01Y810229D01*
G02X-1174144Y809729I-500J0D01*
G01X-1175144D01*
G02X-1175644Y810229I0J500D01*
G01X-1178350D02*
Y813229D01*
G02X-1177850Y813729I500J0D01*
G01X-1176850D01*
G02X-1176350Y813229I0J-500D01*
G01Y810229D01*
G02X-1176850Y809729I-500J0D01*
G01X-1177850D01*
G02X-1178350Y810229I0J500D01*
G01X-1182248Y849748D02*
X-1152327D01*
X-1150752Y848173D01*
Y818252D01*
X-1182248D01*
Y849748D01*
G01X-1171800Y721581D02*
Y730219D01*
G02X-1170619Y731400I1181J0D01*
G01X-1167981D01*
G02X-1166800Y730219I0J-1181D01*
G01Y721581D01*
G02X-1167981Y720400I-1181J0D01*
G01X-1170619D01*
G02X-1171800Y721581I0J1181D01*
G01X-1162000Y744300D02*
X-1159000D01*
G02X-1158500Y743800I0J-500D01*
G01Y742800D01*
G02X-1159000Y742300I-500J0D01*
G01X-1162000D01*
G02X-1162500Y742800I0J500D01*
G01Y743800D01*
G02X-1162000Y744300I500J0D01*
G01Y749400D02*
X-1159000D01*
G02X-1158500Y748900I0J-500D01*
G01Y747900D01*
G02X-1159000Y747400I-500J0D01*
G01X-1162000D01*
G02X-1162500Y747900I0J500D01*
G01Y748900D01*
G02X-1162000Y749400I500J0D01*
G01Y780500D02*
Y777500D01*
G02X-1162500Y777000I-500J0D01*
G01X-1163500D01*
G02X-1164000Y777500I0J500D01*
G01Y780500D01*
G02X-1163500Y781000I500J0D01*
G01X-1162500D01*
G02X-1162000Y780500I0J-500D01*
G01X-1168700Y777000D02*
X-1165700D01*
G02X-1165200Y776500I0J-500D01*
G01Y775500D01*
G02X-1165700Y775000I-500J0D01*
G01X-1168700D01*
G02X-1169200Y775500I0J500D01*
G01Y776500D01*
G02X-1168700Y777000I500J0D01*
G01X-1166150Y810229D02*
Y813229D01*
G02X-1165650Y813729I500J0D01*
G01X-1164650D01*
G02X-1164150Y813229I0J-500D01*
G01Y810229D01*
G02X-1164650Y809729I-500J0D01*
G01X-1165650D01*
G02X-1166150Y810229I0J500D01*
G01X-1168744D02*
Y813229D01*
G02X-1168244Y813729I500J0D01*
G01X-1167244D01*
G02X-1166744Y813229I0J-500D01*
G01Y810229D01*
G02X-1167244Y809729I-500J0D01*
G01X-1168244D01*
G02X-1168744Y810229I0J500D01*
G01X-1162803Y854638D02*
Y861244D01*
X-1159697D01*
Y854638D01*
X-1162803D01*
G01X-1167503D02*
Y861244D01*
X-1164397D01*
Y854638D01*
X-1167503D01*
G01X-1165978Y919246D02*
Y902246D01*
G02X-1173978I-4000J7375D01*
G01Y919246D01*
G01X-1164978Y919446D02*
Y902446D01*
G01X-1165978Y919246D02*
G03X-1173978I-4000J-7500D01*
G01X-1153900Y712681D02*
Y721319D01*
G02X-1152719Y722500I1181J0D01*
G01X-1150081D01*
G02X-1148900Y721319I0J-1181D01*
G01Y712681D01*
G02X-1150081Y711500I-1181J0D01*
G01X-1152719D01*
G02X-1153900Y712681I0J1181D01*
G01X-1151403Y770353D02*
X-1144797D01*
Y767247D01*
X-1151403D01*
Y770353D01*
G01X-1157050Y810242D02*
Y813242D01*
G02X-1156550Y813742I500J0D01*
G01X-1155550D01*
G02X-1155050Y813242I0J-500D01*
G01Y810242D01*
G02X-1155550Y809742I-500J0D01*
G01X-1156550D01*
G02X-1157050Y810242I0J500D01*
G01X-1159550Y810319D02*
Y813319D01*
G02X-1159050Y813819I500J0D01*
G01X-1158050D01*
G02X-1157550Y813319I0J-500D01*
G01Y810319D01*
G02X-1158050Y809819I-500J0D01*
G01X-1159050D01*
G02X-1159550Y810319I0J500D01*
G01X-1154012Y807446D02*
Y814052D01*
X-1150906D01*
Y807446D01*
X-1154012D01*
G01X-1150603Y860287D02*
Y855255D01*
G02X-1151390Y854468I-787J0D01*
G01X-1152922D01*
G02X-1153709Y855255I0J787D01*
G01Y860287D01*
G02X-1152922Y861074I787J0D01*
G01X-1151390D01*
G02X-1150603Y860287I0J-787D01*
G01X-1154397Y860364D02*
Y855332D01*
G02X-1155184Y854545I-787J0D01*
G01X-1156716D01*
G02X-1157503Y855332I0J787D01*
G01Y860364D01*
G02X-1156716Y861151I787J0D01*
G01X-1155184D01*
G02X-1154397Y860364I0J-787D01*
G01X-1153900Y862000D02*
X-1156900D01*
G02X-1157400Y862500I0J500D01*
G01Y863500D01*
G02X-1156900Y864000I500J0D01*
G01X-1153900D01*
G02X-1153400Y863500I0J-500D01*
G01Y862500D01*
G02X-1153900Y862000I-500J0D01*
G01X-1157503Y868853D02*
X-1150897D01*
Y865747D01*
X-1157503D01*
Y868853D01*
G01X-1156978Y902446D02*
Y919446D01*
G01X-1139953Y715984D02*
Y721016D01*
G02X-1139166Y721803I787J0D01*
G01X-1137634D01*
G02X-1136847Y721016I0J-787D01*
G01Y715984D01*
G02X-1137634Y715197I-787J0D01*
G01X-1139166D01*
G02X-1139953Y715984I0J787D01*
G01X-1147953D02*
Y721016D01*
G02X-1147166Y721803I787J0D01*
G01X-1145634D01*
G02X-1144847Y721016I0J-787D01*
G01Y715984D01*
G02X-1145634Y715197I-787J0D01*
G01X-1147166D01*
G02X-1147953Y715984I0J787D01*
G01X-1143953D02*
Y721016D01*
G02X-1143166Y721803I787J0D01*
G01X-1141634D01*
G02X-1140847Y721016I0J-787D01*
G01Y715984D01*
G02X-1141634Y715197I-787J0D01*
G01X-1143166D01*
G02X-1143953Y715984I0J787D01*
G01X-1135650Y734902D02*
Y726264D01*
G02X-1136831Y725083I-1181J0D01*
G01X-1139469D01*
G02X-1140650Y726264I0J1181D01*
G01Y734902D01*
G02X-1139469Y736083I1181J0D01*
G01X-1136831D01*
G02X-1135650Y734902I0J-1181D01*
G01X-1150212Y807450D02*
Y814056D01*
X-1147106D01*
Y807450D01*
X-1150212D01*
G01X-1139771Y825850D02*
X-1136771D01*
G02X-1136271Y825350I0J-500D01*
G01Y824350D01*
G02X-1136771Y823850I-500J0D01*
G01X-1139771D01*
G02X-1140271Y824350I0J500D01*
G01Y825350D01*
G02X-1139771Y825850I500J0D01*
G01X-1145750Y820317D02*
Y823317D01*
G02X-1145250Y823817I500J0D01*
G01X-1144250D01*
G02X-1143750Y823317I0J-500D01*
G01Y820317D01*
G02X-1144250Y819817I-500J0D01*
G01X-1145250D01*
G02X-1145750Y820317I0J500D01*
G01X-1143250Y820319D02*
Y823319D01*
G02X-1142750Y823819I500J0D01*
G01X-1141750D01*
G02X-1141250Y823319I0J-500D01*
G01Y820319D01*
G02X-1141750Y819819I-500J0D01*
G01X-1142750D01*
G02X-1143250Y820319I0J500D01*
G01X-1134413Y834703D02*
X-1139445D01*
G02X-1140232Y835490I0J787D01*
G01Y837022D01*
G02X-1139445Y837809I787J0D01*
G01X-1134413D01*
G02X-1133626Y837022I0J-787D01*
G01Y835490D01*
G02X-1134413Y834703I-787J0D01*
G01X-1139771Y828450D02*
X-1136771D01*
G02X-1136271Y827950I0J-500D01*
G01Y826950D01*
G02X-1136771Y826450I-500J0D01*
G01X-1139771D01*
G02X-1140271Y826950I0J500D01*
G01Y827950D01*
G02X-1139771Y828450I500J0D01*
G01Y833644D02*
X-1136771D01*
G02X-1136271Y833144I0J-500D01*
G01Y832144D01*
G02X-1136771Y831644I-500J0D01*
G01X-1139771D01*
G02X-1140271Y832144I0J500D01*
G01Y833144D01*
G02X-1139771Y833644I500J0D01*
G01Y831050D02*
X-1136771D01*
G02X-1136271Y830550I0J-500D01*
G01Y829550D01*
G02X-1136771Y829050I-500J0D01*
G01X-1139771D01*
G02X-1140271Y829550I0J500D01*
G01Y830550D01*
G02X-1139771Y831050I500J0D01*
G01X-1140577Y843007D02*
Y844583D01*
G01X-1145103Y840538D02*
Y847144D01*
X-1141997D01*
Y840538D01*
X-1145103D01*
G01X-1139498Y853503D02*
X-1134466D01*
G02X-1133679Y852716I0J-787D01*
G01Y851184D01*
G02X-1134466Y850397I-787J0D01*
G01X-1139498D01*
G02X-1140285Y851184I0J787D01*
G01Y852716D01*
G02X-1139498Y853503I787J0D01*
G01X-1146797Y860962D02*
Y854356D01*
X-1149903D01*
Y860962D01*
X-1146797D01*
G01X-1146100Y905600D02*
X-1149100D01*
G02X-1149600Y906100I0J500D01*
G01Y907100D01*
G02X-1149100Y907600I500J0D01*
G01X-1146100D01*
G02X-1145600Y907100I0J-500D01*
G01Y906100D01*
G02X-1146100Y905600I-500J0D01*
G01X-1144017Y897497D02*
X-1150623D01*
Y900603D01*
X-1144017D01*
Y897497D01*
G01X-1144021Y901497D02*
X-1150627D01*
Y904603D01*
X-1144021D01*
Y901497D01*
G01X-1131003Y715903D02*
Y720935D01*
G02X-1130216Y721722I787J0D01*
G01X-1128684D01*
G02X-1127897Y720935I0J-787D01*
G01Y715903D01*
G02X-1128684Y715116I-787J0D01*
G01X-1130216D01*
G02X-1131003Y715903I0J787D01*
G01X-1127303D02*
Y720935D01*
G02X-1126516Y721722I787J0D01*
G01X-1124984D01*
G02X-1124197Y720935I0J-787D01*
G01Y715903D01*
G02X-1124984Y715116I-787J0D01*
G01X-1126516D01*
G02X-1127303Y715903I0J787D01*
G01X-1134703D02*
Y720935D01*
G02X-1133916Y721722I787J0D01*
G01X-1132384D01*
G02X-1131597Y720935I0J-787D01*
G01Y715903D01*
G02X-1132384Y715116I-787J0D01*
G01X-1133916D01*
G02X-1134703Y715903I0J787D01*
G01X-1131797Y733197D02*
Y728165D01*
G02X-1132584Y727378I-787J0D01*
G01X-1134116D01*
G02X-1134903Y728165I0J787D01*
G01Y733197D01*
G02X-1134116Y733984I787J0D01*
G01X-1132584D01*
G02X-1131797Y733197I0J-787D01*
G01X-1128097D02*
Y728165D01*
G02X-1128884Y727378I-787J0D01*
G01X-1130416D01*
G02X-1131203Y728165I0J787D01*
G01Y733197D01*
G02X-1130416Y733984I787J0D01*
G01X-1128884D01*
G02X-1128097Y733197I0J-787D01*
G01X-1128000Y754000D02*
Y757000D01*
G02X-1127500Y757500I500J0D01*
G01X-1126500D01*
G02X-1126000Y757000I0J-500D01*
G01Y754000D01*
G02X-1126500Y753500I-500J0D01*
G01X-1127500D01*
G02X-1128000Y754000I0J500D01*
G01X-1130500D02*
Y757000D01*
G02X-1130000Y757500I500J0D01*
G01X-1129000D01*
G02X-1128500Y757000I0J-500D01*
G01Y754000D01*
G02X-1129000Y753500I-500J0D01*
G01X-1130000D01*
G02X-1130500Y754000I0J500D01*
G01X-1135000Y750500D02*
X-1132000D01*
G02X-1131500Y750000I0J-500D01*
G01Y749000D01*
G02X-1132000Y748500I-500J0D01*
G01X-1135000D01*
G02X-1135500Y749000I0J500D01*
G01Y750000D01*
G02X-1135000Y750500I500J0D01*
G01X-1131100Y763800D02*
X-1128100D01*
G02X-1127600Y763300I0J-500D01*
G01Y762300D01*
G02X-1128100Y761800I-500J0D01*
G01X-1131100D01*
G02X-1131600Y762300I0J500D01*
G01Y763300D01*
G02X-1131100Y763800I500J0D01*
G01X-1133947Y765803D02*
Y759197D01*
X-1137053D01*
Y765803D01*
X-1133947D01*
G01X-1127800Y770000D02*
Y767000D01*
G02X-1128300Y766500I-500J0D01*
G01X-1129300D01*
G02X-1129800Y767000I0J500D01*
G01Y770000D01*
G02X-1129300Y770500I500J0D01*
G01X-1128300D01*
G02X-1127800Y770000I0J-500D01*
G01X-1130600Y775600D02*
X-1127600D01*
G02X-1127100Y775100I0J-500D01*
G01Y774100D01*
G02X-1127600Y773600I-500J0D01*
G01X-1130600D01*
G02X-1131100Y774100I0J500D01*
G01Y775100D01*
G02X-1130600Y775600I500J0D01*
G01X-1129000Y778500D02*
X-1126000D01*
G02X-1125500Y778000I0J-500D01*
G01Y777000D01*
G02X-1126000Y776500I-500J0D01*
G01X-1129000D01*
G02X-1129500Y777000I0J500D01*
G01Y778000D01*
G02X-1129000Y778500I500J0D01*
G01X-1131216Y782953D02*
X-1126184D01*
G02X-1125397Y782166I0J-787D01*
G01Y780634D01*
G02X-1126184Y779847I-787J0D01*
G01X-1131216D01*
G02X-1132003Y780634I0J787D01*
G01Y782166D01*
G02X-1131216Y782953I787J0D01*
G01X-1122203Y793797D02*
X-1127235D01*
G02X-1128022Y794584I0J787D01*
G01Y796116D01*
G02X-1127235Y796903I787J0D01*
G01X-1122203D01*
G02X-1121416Y796116I0J-787D01*
G01Y794584D01*
G02X-1122203Y793797I-787J0D01*
G01X-1136016Y797053D02*
X-1130984D01*
G02X-1130197Y796266I0J-787D01*
G01Y794734D01*
G02X-1130984Y793947I-787J0D01*
G01X-1136016D01*
G02X-1136803Y794734I0J787D01*
G01Y796266D01*
G02X-1136016Y797053I787J0D01*
G01X-1136197Y800937D02*
X-1131165D01*
G02X-1130378Y800150I0J-787D01*
G01Y798618D01*
G02X-1131165Y797831I-787J0D01*
G01X-1136197D01*
G02X-1136984Y798618I0J787D01*
G01Y800150D01*
G02X-1136197Y800937I787J0D01*
G01X-1119381Y798300D02*
X-1128019D01*
G02X-1129200Y799481I0J1181D01*
G01Y802119D01*
G02X-1128019Y803300I1181J0D01*
G01X-1119381D01*
G02X-1118200Y802119I0J-1181D01*
G01Y799481D01*
G02X-1119381Y798300I-1181J0D01*
G01X-1136197Y804903D02*
X-1131165D01*
G02X-1130378Y804116I0J-787D01*
G01Y802584D01*
G02X-1131165Y801797I-787J0D01*
G01X-1136197D01*
G02X-1136984Y802584I0J787D01*
G01Y804116D01*
G02X-1136197Y804903I787J0D01*
G01X-1136216Y808853D02*
X-1131184D01*
G02X-1130397Y808066I0J-787D01*
G01Y806534D01*
G02X-1131184Y805747I-787J0D01*
G01X-1136216D01*
G02X-1137003Y806534I0J787D01*
G01Y808066D01*
G02X-1136216Y808853I787J0D01*
G01X-1119581Y804600D02*
X-1128219D01*
G02X-1129400Y805781I0J1181D01*
G01Y808419D01*
G02X-1128219Y809600I1181J0D01*
G01X-1119581D01*
G02X-1118400Y808419I0J-1181D01*
G01Y805781D01*
G02X-1119581Y804600I-1181J0D01*
G01X-1126100Y819400D02*
X-1128100D01*
Y815400D01*
X-1126100D01*
Y819400D01*
G01X-1132703Y844583D02*
Y843007D01*
G01X-1136443Y838874D02*
X-1136837D01*
G01Y848716D02*
X-1136443D01*
G01X-1138239Y865339D02*
Y858647D01*
G01X-1133317D02*
Y865339D01*
G01X-1134739Y906460D02*
Y899768D01*
G01X-1129817D02*
Y906460D01*
G01X-1138875Y899401D02*
Y906007D01*
X-1135769D01*
Y899401D01*
X-1138875D01*
G01X-1117300Y722000D02*
X-1119300D01*
Y718000D01*
X-1117300D01*
Y722000D01*
G01X-1114500D02*
X-1116500D01*
Y718000D01*
X-1114500D01*
Y722000D01*
G01X-1117556Y752871D02*
Y749871D01*
G02X-1118056Y749371I-500J0D01*
G01X-1119056D01*
G02X-1119556Y749871I0J500D01*
G01Y752871D01*
G02X-1119056Y753371I500J0D01*
G01X-1118056D01*
G02X-1117556Y752871I0J-500D01*
G01X-1120028Y756037D02*
X-1117028D01*
G02X-1116528Y755537I0J-500D01*
G01Y754537D01*
G02X-1117028Y754037I-500J0D01*
G01X-1120028D01*
G02X-1120528Y754537I0J500D01*
G01Y755537D01*
G02X-1120028Y756037I500J0D01*
G01X-1113900Y765000D02*
Y762000D01*
G02X-1114400Y761500I-500J0D01*
G01X-1115400D01*
G02X-1115900Y762000I0J500D01*
G01Y765000D01*
G02X-1115400Y765500I500J0D01*
G01X-1114400D01*
G02X-1113900Y765000I0J-500D01*
G01X-1120000Y763700D02*
X-1117000D01*
G02X-1116500Y763200I0J-500D01*
G01Y762200D01*
G02X-1117000Y761700I-500J0D01*
G01X-1120000D01*
G02X-1120500Y762200I0J500D01*
G01Y763200D01*
G02X-1120000Y763700I500J0D01*
G01X-1118556Y769171D02*
Y766171D01*
G02X-1119056Y765671I-500J0D01*
G01X-1120056D01*
G02X-1120556Y766171I0J500D01*
G01Y769171D01*
G02X-1120056Y769671I500J0D01*
G01X-1119056D01*
G02X-1118556Y769171I0J-500D01*
G01X-1122700Y761800D02*
X-1125700D01*
G02X-1126200Y762300I0J500D01*
G01Y763300D01*
G02X-1125700Y763800I500J0D01*
G01X-1122700D01*
G02X-1122200Y763300I0J-500D01*
G01Y762300D01*
G02X-1122700Y761800I-500J0D01*
G01X-1118771Y773244D02*
X-1115771D01*
G02X-1115271Y772744I0J-500D01*
G01Y771744D01*
G02X-1115771Y771244I-500J0D01*
G01X-1118771D01*
G02X-1119271Y771744I0J500D01*
G01Y772744D01*
G02X-1118771Y773244I500J0D01*
G01X-1116856Y779871D02*
Y776871D01*
G02X-1117356Y776371I-500J0D01*
G01X-1118356D01*
G02X-1118856Y776871I0J500D01*
G01Y779871D01*
G02X-1118356Y780371I500J0D01*
G01X-1117356D01*
G02X-1116856Y779871I0J-500D01*
G01X-1118771Y775844D02*
X-1115771D01*
G02X-1115271Y775344I0J-500D01*
G01Y774344D01*
G02X-1115771Y773844I-500J0D01*
G01X-1118771D01*
G02X-1119271Y774344I0J500D01*
G01Y775344D01*
G02X-1118771Y775844I500J0D01*
G01X-1121000Y776600D02*
X-1124000D01*
G02X-1124500Y777100I0J500D01*
G01Y778100D01*
G02X-1124000Y778600I500J0D01*
G01X-1121000D01*
G02X-1120500Y778100I0J-500D01*
G01Y777100D01*
G02X-1121000Y776600I-500J0D01*
G01X-1125000Y772300D02*
Y769300D01*
G02X-1125500Y768800I-500J0D01*
G01X-1126500D01*
G02X-1127000Y769300I0J500D01*
G01Y772300D01*
G02X-1126500Y772800I500J0D01*
G01X-1125500D01*
G02X-1125000Y772300I0J-500D01*
G01X-1120800Y774900D02*
Y771900D01*
G02X-1121300Y771400I-500J0D01*
G01X-1122300D01*
G02X-1122800Y771900I0J500D01*
G01Y774900D01*
G02X-1122300Y775400I500J0D01*
G01X-1121300D01*
G02X-1120800Y774900I0J-500D01*
G01X-1121147Y786216D02*
Y781184D01*
G02X-1121934Y780397I-787J0D01*
G01X-1123466D01*
G02X-1124253Y781184I0J787D01*
G01Y786216D01*
G02X-1123466Y787003I787J0D01*
G01X-1121934D01*
G02X-1121147Y786216I0J-787D01*
G01X-1117029Y785856D02*
X-1120029D01*
G02X-1120529Y786356I0J500D01*
G01Y787356D01*
G02X-1120029Y787856I500J0D01*
G01X-1117029D01*
G02X-1116529Y787356I0J-500D01*
G01Y786356D01*
G02X-1117029Y785856I-500J0D01*
G01X-1116756Y784671D02*
Y781671D01*
G02X-1117256Y781171I-500J0D01*
G01X-1118256D01*
G02X-1118756Y781671I0J500D01*
G01Y784671D01*
G02X-1118256Y785171I500J0D01*
G01X-1117256D01*
G02X-1116756Y784671I0J-500D01*
G01X-1125053Y814584D02*
Y819616D01*
G02X-1124266Y820403I787J0D01*
G01X-1122734D01*
G02X-1121947Y819616I0J-787D01*
G01Y814584D01*
G02X-1122734Y813797I-787J0D01*
G01X-1124266D01*
G02X-1125053Y814584I0J787D01*
G01X-1116000Y819400D02*
X-1118000D01*
Y815400D01*
X-1116000D01*
Y819400D01*
G01X-1118900D02*
X-1120900D01*
Y815400D01*
X-1118900D01*
Y819400D01*
G01X-1123019Y836150D02*
X-1126019D01*
G02X-1126519Y836650I0J500D01*
G01Y837650D01*
G02X-1126019Y838150I500J0D01*
G01X-1123019D01*
G02X-1122519Y837650I0J-500D01*
G01Y836650D01*
G02X-1123019Y836150I-500J0D01*
G01X-1126731Y842303D02*
X-1120125D01*
Y839197D01*
X-1126731D01*
Y842303D01*
G01X-1117524Y844603D02*
X-1115524Y842603D01*
X-1119524D01*
X-1117524Y844603D01*
G01X-1121200Y869000D02*
Y866000D01*
G02X-1121700Y865500I-500J0D01*
G01X-1122700D01*
G02X-1123200Y866000I0J500D01*
G01Y869000D01*
G02X-1122700Y869500I500J0D01*
G01X-1121700D01*
G02X-1121200Y869000I0J-500D01*
G01X-1119000Y869519D02*
Y864881D01*
G03X-1117819Y863700I1181J0D01*
G01X-1107181D01*
G03X-1106000Y864881I0J1181D01*
G01Y869519D01*
G03X-1107181Y870700I-1181J0D01*
G01X-1117819D01*
G03X-1119000Y869519I0J-1181D01*
G01X-1122000Y905878D02*
X-1125000D01*
G02X-1125500Y906378I0J500D01*
G01Y907378D01*
G02X-1125000Y907878I500J0D01*
G01X-1122000D01*
G02X-1121500Y907378I0J-500D01*
G01Y906378D01*
G02X-1122000Y905878I-500J0D01*
G01X-1119809Y897719D02*
X-1126415D01*
Y900825D01*
X-1119809D01*
Y897719D01*
G01X-1119913Y901719D02*
X-1126519D01*
Y904825D01*
X-1119913D01*
Y901719D01*
G01X-1113700Y718000D02*
X-1111700D01*
Y722000D01*
X-1113700D01*
Y718000D01*
G01X-1107484Y746947D02*
X-1112516D01*
G02X-1113303Y747734I0J787D01*
G01Y749266D01*
G02X-1112516Y750053I787J0D01*
G01X-1107484D01*
G02X-1106697Y749266I0J-787D01*
G01Y747734D01*
G02X-1107484Y746947I-787J0D01*
G01X-1113598Y756771D02*
Y753771D01*
G02X-1114098Y753271I-500J0D01*
G01X-1115098D01*
G02X-1115598Y753771I0J500D01*
G01Y756771D01*
G02X-1115098Y757271I500J0D01*
G01X-1114098D01*
G02X-1113598Y756771I0J-500D01*
G01X-1108921Y753502D02*
X-1111921D01*
G02X-1112421Y754002I0J500D01*
G01Y755002D01*
G02X-1111921Y755502I500J0D01*
G01X-1108921D01*
G02X-1108421Y755002I0J-500D01*
G01Y754002D01*
G02X-1108921Y753502I-500J0D01*
G01X-1103556Y754071D02*
Y751071D01*
G02X-1104056Y750571I-500J0D01*
G01X-1105056D01*
G02X-1105556Y751071I0J500D01*
G01Y754071D01*
G02X-1105056Y754571I500J0D01*
G01X-1104056D01*
G02X-1103556Y754071I0J-500D01*
G01X-1108819Y750750D02*
X-1111819D01*
G02X-1112319Y751250I0J500D01*
G01Y752250D01*
G02X-1111819Y752750I500J0D01*
G01X-1108819D01*
G02X-1108319Y752250I0J-500D01*
G01Y751250D01*
G02X-1108819Y750750I-500J0D01*
G01X-1108929Y756156D02*
X-1111929D01*
G02X-1112429Y756656I0J500D01*
G01Y757656D01*
G02X-1111929Y758156I500J0D01*
G01X-1108929D01*
G02X-1108429Y757656I0J-500D01*
G01Y756656D01*
G02X-1108929Y756156I-500J0D01*
G01X-1111300Y765200D02*
Y762200D01*
G02X-1111800Y761700I-500J0D01*
G01X-1112800D01*
G02X-1113300Y762200I0J500D01*
G01Y765200D01*
G02X-1112800Y765700I500J0D01*
G01X-1111800D01*
G02X-1111300Y765200I0J-500D01*
G01X-1108656Y765071D02*
Y762071D01*
G02X-1109156Y761571I-500J0D01*
G01X-1110156D01*
G02X-1110656Y762071I0J500D01*
G01Y765071D01*
G02X-1110156Y765571I500J0D01*
G01X-1109156D01*
G02X-1108656Y765071I0J-500D01*
G01X-1104571Y760144D02*
X-1101571D01*
G02X-1101071Y759644I0J-500D01*
G01Y758644D01*
G02X-1101571Y758144I-500J0D01*
G01X-1104571D01*
G02X-1105071Y758644I0J500D01*
G01Y759644D01*
G02X-1104571Y760144I500J0D01*
G01Y757544D02*
X-1101571D01*
G02X-1101071Y757044I0J-500D01*
G01Y756044D01*
G02X-1101571Y755544I-500J0D01*
G01X-1104571D01*
G02X-1105071Y756044I0J500D01*
G01Y757044D01*
G02X-1104571Y757544I500J0D01*
G01X-1107844Y761929D02*
Y764929D01*
G02X-1107344Y765429I500J0D01*
G01X-1106344D01*
G02X-1105844Y764929I0J-500D01*
G01Y761929D01*
G02X-1106344Y761429I-500J0D01*
G01X-1107344D01*
G02X-1107844Y761929I0J500D01*
G01X-1105344D02*
Y764929D01*
G02X-1104844Y765429I500J0D01*
G01X-1103844D01*
G02X-1103344Y764929I0J-500D01*
G01Y761929D01*
G02X-1103844Y761429I-500J0D01*
G01X-1104844D01*
G02X-1105344Y761929I0J500D01*
G01X-1104653Y770397D02*
Y777003D01*
X-1101547D01*
Y770397D01*
X-1104653D01*
G01X-1106400Y775400D02*
Y772400D01*
G02X-1106900Y771900I-500J0D01*
G01X-1107900D01*
G02X-1108400Y772400I0J500D01*
G01Y775400D01*
G02X-1107900Y775900I500J0D01*
G01X-1106900D01*
G02X-1106400Y775400I0J-500D01*
G01X-1109729Y773356D02*
X-1112729D01*
G02X-1113229Y773856I0J500D01*
G01Y774856D01*
G02X-1112729Y775356I500J0D01*
G01X-1109729D01*
G02X-1109229Y774856I0J-500D01*
G01Y773856D01*
G02X-1109729Y773356I-500J0D01*
G01X-1110771Y768244D02*
X-1107771D01*
G02X-1107271Y767744I0J-500D01*
G01Y766744D01*
G02X-1107771Y766244I-500J0D01*
G01X-1110771D01*
G02X-1111271Y766744I0J500D01*
G01Y767744D01*
G02X-1110771Y768244I500J0D01*
G01X-1113944Y767229D02*
Y770229D01*
G02X-1113444Y770729I500J0D01*
G01X-1112444D01*
G02X-1111944Y770229I0J-500D01*
G01Y767229D01*
G02X-1112444Y766729I-500J0D01*
G01X-1113444D01*
G02X-1113944Y767229I0J500D01*
G01X-1110456Y780371D02*
Y777371D01*
G02X-1110956Y776871I-500J0D01*
G01X-1111956D01*
G02X-1112456Y777371I0J500D01*
G01Y780371D01*
G02X-1111956Y780871I500J0D01*
G01X-1110956D01*
G02X-1110456Y780371I0J-500D01*
G01X-1098784Y777747D02*
X-1103816D01*
G02X-1104603Y778534I0J787D01*
G01Y780066D01*
G02X-1103816Y780853I787J0D01*
G01X-1098784D01*
G02X-1097997Y780066I0J-787D01*
G01Y778534D01*
G02X-1098784Y777747I-787J0D01*
G01X-1103616Y785153D02*
X-1098584D01*
G02X-1097797Y784366I0J-787D01*
G01Y782834D01*
G02X-1098584Y782047I-787J0D01*
G01X-1103616D01*
G02X-1104403Y782834I0J787D01*
G01Y784366D01*
G02X-1103616Y785153I787J0D01*
G01X-1112281Y788026D02*
X-1109281D01*
G02X-1108781Y787526I0J-500D01*
G01Y786526D01*
G02X-1109281Y786026I-500J0D01*
G01X-1112281D01*
G02X-1112781Y786526I0J500D01*
G01Y787526D01*
G02X-1112281Y788026I500J0D01*
G01X-1104381Y788250D02*
X-1101381D01*
G02X-1100881Y787750I0J-500D01*
G01Y786750D01*
G02X-1101381Y786250I-500J0D01*
G01X-1104381D01*
G02X-1104881Y786750I0J500D01*
G01Y787750D01*
G02X-1104381Y788250I500J0D01*
G01X-1105916Y787681D02*
Y784681D01*
G02X-1106416Y784181I-500J0D01*
G01X-1107416D01*
G02X-1107916Y784681I0J500D01*
G01Y787681D01*
G02X-1107416Y788181I500J0D01*
G01X-1106416D01*
G02X-1105916Y787681I0J-500D01*
G01X-1109181Y781884D02*
X-1106181D01*
G02X-1105681Y781384I0J-500D01*
G01Y780384D01*
G02X-1106181Y779884I-500J0D01*
G01X-1109181D01*
G02X-1109681Y780384I0J500D01*
G01Y781384D01*
G02X-1109181Y781884I500J0D01*
G01X-1112181Y785284D02*
X-1109181D01*
G02X-1108681Y784784I0J-500D01*
G01Y783784D01*
G02X-1109181Y783284I-500J0D01*
G01X-1112181D01*
G02X-1112681Y783784I0J500D01*
G01Y784784D01*
G02X-1112181Y785284I500J0D01*
G01X-1105400Y793100D02*
X-1108400D01*
G02X-1108900Y793600I0J500D01*
G01Y794600D01*
G02X-1108400Y795100I500J0D01*
G01X-1105400D01*
G02X-1104900Y794600I0J-500D01*
G01Y793600D01*
G02X-1105400Y793100I-500J0D01*
G01X-1113000Y819300D02*
X-1115000D01*
Y815300D01*
X-1113000D01*
Y819300D01*
G01X-1102200D02*
X-1104200D01*
Y815300D01*
X-1102200D01*
Y819300D01*
G01X-1107400Y819400D02*
X-1109400D01*
Y815400D01*
X-1107400D01*
Y819400D01*
G01X-1104103Y825703D02*
Y830735D01*
G02X-1103316Y831522I787J0D01*
G01X-1101784D01*
G02X-1100997Y830735I0J-787D01*
G01Y825703D01*
G02X-1101784Y824916I-787J0D01*
G01X-1103316D01*
G02X-1104103Y825703I0J787D01*
G01X-1100800Y857200D02*
X-1103800D01*
G02X-1104300Y857700I0J500D01*
G01Y858700D01*
G02X-1103800Y859200I500J0D01*
G01X-1100800D01*
G02X-1100300Y858700I0J-500D01*
G01Y857700D01*
G02X-1100800Y857200I-500J0D01*
G01X-1098984Y859947D02*
X-1104016D01*
G02X-1104803Y860734I0J787D01*
G01Y862266D01*
G02X-1104016Y863053I787J0D01*
G01X-1098984D01*
G02X-1098197Y862266I0J-787D01*
G01Y860734D01*
G02X-1098984Y859947I-787J0D01*
G01X-1104853Y863797D02*
Y870403D01*
X-1101747D01*
Y863797D01*
X-1104853D01*
G01X-1096166Y743589D02*
X-1101198D01*
G02X-1101985Y744376I0J787D01*
G01Y745909D01*
G02X-1101198Y746696I787J0D01*
G01X-1096166D01*
G02X-1095379Y745909I0J-787D01*
G01Y744376D01*
G02X-1096166Y743589I-787J0D01*
G01X-1093497Y750203D02*
X-1088465D01*
G02X-1087678Y749416I0J-787D01*
G01Y747884D01*
G02X-1088465Y747097I-787J0D01*
G01X-1093497D01*
G02X-1094284Y747884I0J787D01*
G01Y749416D01*
G02X-1093497Y750203I787J0D01*
G01X-1097003Y753403D02*
Y758435D01*
G02X-1096216Y759222I787J0D01*
G01X-1094684D01*
G02X-1093897Y758435I0J-787D01*
G01Y753403D01*
G02X-1094684Y752616I-787J0D01*
G01X-1096216D01*
G02X-1097003Y753403I0J787D01*
G01X-1097000Y747697D02*
Y750697D01*
G02X-1096500Y751197I500J0D01*
G01X-1095500D01*
G02X-1095000Y750697I0J-500D01*
G01Y747697D01*
G02X-1095500Y747197I-500J0D01*
G01X-1096500D01*
G02X-1097000Y747697I0J500D01*
G01X-1098700Y747400D02*
X-1101700D01*
G02X-1102200Y747900I0J500D01*
G01Y748900D01*
G02X-1101700Y749400I500J0D01*
G01X-1098700D01*
G02X-1098200Y748900I0J-500D01*
G01Y747900D01*
G02X-1098700Y747400I-500J0D01*
G01X-1098229Y751456D02*
X-1101229D01*
G02X-1101729Y751956I0J500D01*
G01Y752956D01*
G02X-1101229Y753456I500J0D01*
G01X-1098229D01*
G02X-1097729Y752956I0J-500D01*
G01Y751956D01*
G02X-1098229Y751456I-500J0D01*
G01X-1092571Y755944D02*
X-1089571D01*
G02X-1089071Y755444I0J-500D01*
G01Y754444D01*
G02X-1089571Y753944I-500J0D01*
G01X-1092571D01*
G02X-1093071Y754444I0J500D01*
G01Y755444D01*
G02X-1092571Y755944I500J0D01*
G01X-1093071Y752944D02*
X-1090071D01*
G02X-1089571Y752444I0J-500D01*
G01Y751444D01*
G02X-1090071Y750944I-500J0D01*
G01X-1093071D01*
G02X-1093571Y751444I0J500D01*
G01Y752444D01*
G02X-1093071Y752944I500J0D01*
G01X-1093129Y760056D02*
X-1096129D01*
G02X-1096629Y760556I0J500D01*
G01Y761556D01*
G02X-1096129Y762056I500J0D01*
G01X-1093129D01*
G02X-1092629Y761556I0J-500D01*
G01Y760556D01*
G02X-1093129Y760056I-500J0D01*
G01X-1100971Y763544D02*
X-1097971D01*
G02X-1097471Y763044I0J-500D01*
G01Y762044D01*
G02X-1097971Y761544I-500J0D01*
G01X-1100971D01*
G02X-1101471Y762044I0J500D01*
G01Y763044D01*
G02X-1100971Y763544I500J0D01*
G01X-1096229Y765456D02*
X-1099229D01*
G02X-1099729Y765956I0J500D01*
G01Y766956D01*
G02X-1099229Y767456I500J0D01*
G01X-1096229D01*
G02X-1095729Y766956I0J-500D01*
G01Y765956D01*
G02X-1096229Y765456I-500J0D01*
G01X-1095600Y776800D02*
Y779800D01*
G02X-1095100Y780300I500J0D01*
G01X-1094100D01*
G02X-1093600Y779800I0J-500D01*
G01Y776800D01*
G02X-1094100Y776300I-500J0D01*
G01X-1095100D01*
G02X-1095600Y776800I0J500D01*
G01X-1100744Y772329D02*
Y775329D01*
G02X-1100244Y775829I500J0D01*
G01X-1099244D01*
G02X-1098744Y775329I0J-500D01*
G01Y772329D01*
G02X-1099244Y771829I-500J0D01*
G01X-1100244D01*
G02X-1100744Y772329I0J500D01*
G01X-1092956Y771771D02*
Y768771D01*
G02X-1093456Y768271I-500J0D01*
G01X-1094456D01*
G02X-1094956Y768771I0J500D01*
G01Y771771D01*
G02X-1094456Y772271I500J0D01*
G01X-1093456D01*
G02X-1092956Y771771I0J-500D01*
G01X-1090256D02*
Y768771D01*
G02X-1090756Y768271I-500J0D01*
G01X-1091756D01*
G02X-1092256Y768771I0J500D01*
G01Y771771D01*
G02X-1091756Y772271I500J0D01*
G01X-1090756D01*
G02X-1090256Y771771I0J-500D01*
G01X-1095600Y771800D02*
Y768800D01*
G02X-1096100Y768300I-500J0D01*
G01X-1097100D01*
G02X-1097600Y768800I0J500D01*
G01Y771800D01*
G02X-1097100Y772300I500J0D01*
G01X-1096100D01*
G02X-1095600Y771800I0J-500D01*
G01X-1094400Y773200D02*
X-1097400D01*
G02X-1097900Y773700I0J500D01*
G01Y774700D01*
G02X-1097400Y775200I500J0D01*
G01X-1094400D01*
G02X-1093900Y774700I0J-500D01*
G01Y773700D01*
G02X-1094400Y773200I-500J0D01*
G01X-1098487Y795517D02*
Y788910D01*
X-1101594D01*
Y795517D01*
X-1098487D01*
G01X-1094300Y787300D02*
X-1097300D01*
G02X-1097800Y787800I0J500D01*
G01Y788800D01*
G02X-1097300Y789300I500J0D01*
G01X-1094300D01*
G02X-1093800Y788800I0J-500D01*
G01Y787800D01*
G02X-1094300Y787300I-500J0D01*
G01X-1095156Y785571D02*
Y782571D01*
G02X-1095656Y782071I-500J0D01*
G01X-1096656D01*
G02X-1097156Y782571I0J500D01*
G01Y785571D01*
G02X-1096656Y786071I500J0D01*
G01X-1095656D01*
G02X-1095156Y785571I0J-500D01*
G01X-1092650Y785681D02*
Y782681D01*
G02X-1093150Y782181I-500J0D01*
G01X-1094150D01*
G02X-1094650Y782681I0J500D01*
G01Y785681D01*
G02X-1094150Y786181I500J0D01*
G01X-1093150D01*
G02X-1092650Y785681I0J-500D01*
G01X-1092003Y790597D02*
X-1097035D01*
G02X-1097822Y791384I0J787D01*
G01Y792916D01*
G02X-1097035Y793703I787J0D01*
G01X-1092003D01*
G02X-1091216Y792916I0J-787D01*
G01Y791384D01*
G02X-1092003Y790597I-787J0D01*
G01X-1086138Y816197D02*
X-1092744D01*
Y819303D01*
X-1086138D01*
Y816197D01*
G01X-1100362Y819303D02*
X-1093756D01*
Y816197D01*
X-1100362D01*
Y819303D01*
G01X-1091083Y822419D02*
X-1094183D01*
G01X-1098982Y826140D02*
Y828440D01*
G01X-1094183Y832261D02*
X-1091083D01*
G01X-1092697Y864147D02*
X-1099303D01*
Y867253D01*
X-1092697D01*
Y864147D01*
G01X-1084719Y720903D02*
Y725935D01*
G02X-1083932Y726722I787J0D01*
G01X-1082400D01*
G02X-1081613Y725935I0J-787D01*
G01Y720903D01*
G02X-1082400Y720116I-787J0D01*
G01X-1083932D01*
G02X-1084719Y720903I0J787D01*
G01X-1080719D02*
Y725935D01*
G02X-1079932Y726722I787J0D01*
G01X-1078400D01*
G02X-1077613Y725935I0J-787D01*
G01Y720903D01*
G02X-1078400Y720116I-787J0D01*
G01X-1079932D01*
G02X-1080719Y720903I0J787D01*
G01X-1087656Y762571D02*
Y759571D01*
G02X-1088156Y759071I-500J0D01*
G01X-1089156D01*
G02X-1089656Y759571I0J500D01*
G01Y762571D01*
G02X-1089156Y763071I500J0D01*
G01X-1088156D01*
G02X-1087656Y762571I0J-500D01*
G01X-1083019Y770674D02*
X-1086019D01*
G02X-1086519Y771174I0J500D01*
G01Y772174D01*
G02X-1086019Y772674I500J0D01*
G01X-1083019D01*
G02X-1082519Y772174I0J-500D01*
G01Y771174D01*
G02X-1083019Y770674I-500J0D01*
G01X-1091481Y777626D02*
X-1088481D01*
G02X-1087981Y777126I0J-500D01*
G01Y776126D01*
G02X-1088481Y775626I-500J0D01*
G01X-1091481D01*
G02X-1091981Y776126I0J500D01*
G01Y777126D01*
G02X-1091481Y777626I500J0D01*
G01X-1083553Y773697D02*
Y780303D01*
X-1080447D01*
Y773697D01*
X-1083553D01*
G01X-1086129Y786756D02*
X-1089129D01*
G02X-1089629Y787256I0J500D01*
G01Y788256D01*
G02X-1089129Y788756I500J0D01*
G01X-1086129D01*
G02X-1085629Y788256I0J-500D01*
G01Y787256D01*
G02X-1086129Y786756I-500J0D01*
G01X-1089081Y786126D02*
X-1086081D01*
G02X-1085581Y785626I0J-500D01*
G01Y784626D01*
G02X-1086081Y784126I-500J0D01*
G01X-1089081D01*
G02X-1089581Y784626I0J500D01*
G01Y785626D01*
G02X-1089081Y786126I500J0D01*
G01X-1089900Y782800D02*
X-1086900D01*
G02X-1086400Y782300I0J-500D01*
G01Y781300D01*
G02X-1086900Y780800I-500J0D01*
G01X-1089900D01*
G02X-1090400Y781300I0J500D01*
G01Y782300D01*
G02X-1089900Y782800I500J0D01*
G01X-1076936Y822228D02*
X-1081968D01*
G02X-1082755Y823015I0J787D01*
G01Y824547D01*
G02X-1081968Y825334I787J0D01*
G01X-1076936D01*
G02X-1076149Y824547I0J-787D01*
G01Y823015D01*
G02X-1076936Y822228I-787J0D01*
G01X-1086384Y826240D02*
X-1086383Y828340D01*
G01X-1082416Y845353D02*
X-1077384D01*
G02X-1076597Y844566I0J-787D01*
G01Y843034D01*
G02X-1077384Y842247I-787J0D01*
G01X-1082416D01*
G02X-1083203Y843034I0J787D01*
G01Y844566D01*
G02X-1082416Y845353I787J0D01*
G01X-1081100Y848100D02*
X-1078100D01*
G02X-1077600Y847600I0J-500D01*
G01Y846600D01*
G02X-1078100Y846100I-500J0D01*
G01X-1081100D01*
G02X-1081600Y846600I0J500D01*
G01Y847600D01*
G02X-1081100Y848100I500J0D01*
G01X-1082816Y858553D02*
X-1077784D01*
G02X-1076997Y857766I0J-787D01*
G01Y856234D01*
G02X-1077784Y855447I-787J0D01*
G01X-1082816D01*
G02X-1083603Y856234I0J787D01*
G01Y857766D01*
G02X-1082816Y858553I787J0D01*
G01X-1091753Y861184D02*
Y866216D01*
G02X-1090966Y867003I787J0D01*
G01X-1089434D01*
G02X-1088647Y866216I0J-787D01*
G01Y861184D01*
G02X-1089434Y860397I-787J0D01*
G01X-1090966D01*
G02X-1091753Y861184I0J787D01*
G01X-1087400Y862300D02*
Y865300D01*
G02X-1086900Y865800I500J0D01*
G01X-1085900D01*
G02X-1085400Y865300I0J-500D01*
G01Y862300D01*
G02X-1085900Y861800I-500J0D01*
G01X-1086900D01*
G02X-1087400Y862300I0J500D01*
G01X-1081500Y861300D02*
X-1078500D01*
G02X-1078000Y860800I0J-500D01*
G01Y859800D01*
G02X-1078500Y859300I-500J0D01*
G01X-1081500D01*
G02X-1082000Y859800I0J500D01*
G01Y860800D01*
G02X-1081500Y861300I500J0D01*
G01X-1083703Y865353D02*
X-1077097D01*
Y862247D01*
X-1083703D01*
Y865353D01*
G01X-1089721Y886032D02*
Y889969D01*
G01X-1072666Y719598D02*
Y728236D01*
G02X-1071485Y729417I1181J0D01*
G01X-1068847D01*
G02X-1067666Y728236I0J-1181D01*
G01Y719598D01*
G02X-1068847Y718417I-1181J0D01*
G01X-1071485D01*
G02X-1072666Y719598I0J1181D01*
G01X-1076719Y720903D02*
Y725935D01*
G02X-1075932Y726722I787J0D01*
G01X-1074400D01*
G02X-1073613Y725935I0J-787D01*
G01Y720903D01*
G02X-1074400Y720116I-787J0D01*
G01X-1075932D01*
G02X-1076719Y720903I0J787D01*
G01X-1078453Y773597D02*
Y780203D01*
X-1075347D01*
Y773597D01*
X-1078453D01*
G01X-1072303Y769893D02*
Y776499D01*
X-1069197D01*
Y769893D01*
X-1072303D01*
G01X-1069197Y784663D02*
Y778057D01*
X-1072303D01*
Y784663D01*
X-1069197D01*
G01X-1071153Y835297D02*
Y841903D01*
X-1068047D01*
Y835297D01*
X-1071153D01*
G01X-1069019Y849400D02*
X-1064381D01*
G03X-1063200Y850581I0J1181D01*
G01Y861219D01*
G03X-1064381Y862400I-1181J0D01*
G01X-1069019D01*
G03X-1070200Y861219I0J-1181D01*
G01Y850581D01*
G03X-1069019Y849400I1181J0D01*
G01X-1070003Y866253D02*
X-1063397D01*
Y863147D01*
X-1070003D01*
Y866253D01*
G01X-1077921Y886032D02*
Y889969D01*
G01X-1079879D02*
Y886032D01*
G01X-1057803Y727997D02*
X-1062835D01*
G02X-1063622Y728784I0J787D01*
G01Y730316D01*
G02X-1062835Y731103I787J0D01*
G01X-1057803D01*
G02X-1057016Y730316I0J-787D01*
G01Y728784D01*
G02X-1057803Y727997I-787J0D01*
G01Y719997D02*
X-1062835D01*
G02X-1063622Y720784I0J787D01*
G01Y722316D01*
G02X-1062835Y723103I787J0D01*
G01X-1057803D01*
G02X-1057016Y722316I0J-787D01*
G01Y720784D01*
G02X-1057803Y719997I-787J0D01*
G01Y723997D02*
X-1062835D01*
G02X-1063622Y724784I0J787D01*
G01Y726316D01*
G02X-1062835Y727103I787J0D01*
G01X-1057803D01*
G02X-1057016Y726316I0J-787D01*
G01Y724784D01*
G02X-1057803Y723997I-787J0D01*
G01X-1057784Y731947D02*
X-1062816D01*
G02X-1063603Y732734I0J787D01*
G01Y734266D01*
G02X-1062816Y735053I787J0D01*
G01X-1057784D01*
G02X-1056997Y734266I0J-787D01*
G01Y732734D01*
G02X-1057784Y731947I-787J0D01*
G01X-1057533Y762750D02*
X-1060533D01*
G02X-1061033Y763250I0J500D01*
G01Y764250D01*
G02X-1060533Y764750I500J0D01*
G01X-1057533D01*
G02X-1057033Y764250I0J-500D01*
G01Y763250D01*
G02X-1057533Y762750I-500J0D01*
G01X-1068303Y769821D02*
Y776427D01*
X-1065197D01*
Y769821D01*
X-1068303D01*
G01X-1064553Y769697D02*
Y776303D01*
X-1061447D01*
Y769697D01*
X-1064553D01*
G01X-1060553Y773697D02*
Y780303D01*
X-1057447D01*
Y773697D01*
X-1060553D01*
G01X-1065197Y784667D02*
Y778061D01*
X-1068303D01*
Y784667D01*
X-1065197D01*
G01X-1061197Y784603D02*
Y777997D01*
X-1064303D01*
Y784603D01*
X-1061197D01*
G01X-1061047Y841803D02*
Y835197D01*
X-1064153D01*
Y841803D01*
X-1061047D01*
G01X-1056747D02*
Y835197D01*
X-1059853D01*
Y841803D01*
X-1056747D01*
G01X-1059762Y878903D02*
X-1053156D01*
Y875797D01*
X-1059762D01*
Y878903D01*
G01Y875203D02*
X-1053156D01*
Y872097D01*
X-1059762D01*
Y875203D01*
G01X-1068079Y889969D02*
Y886032D01*
G01X-1049208Y751650D02*
X-1046208D01*
G02X-1045708Y751150I0J-500D01*
G01Y750150D01*
G02X-1046208Y749650I-500J0D01*
G01X-1049208D01*
G02X-1049708Y750150I0J500D01*
G01Y751150D01*
G02X-1049208Y751650I500J0D01*
G01X-1048750Y773480D02*
Y776480D01*
G02X-1048250Y776980I500J0D01*
G01X-1047250D01*
G02X-1046750Y776480I0J-500D01*
G01Y773480D01*
G02X-1047250Y772980I-500J0D01*
G01X-1048250D01*
G02X-1048750Y773480I0J500D01*
G01X-1056250Y788733D02*
Y791733D01*
G02X-1055750Y792233I500J0D01*
G01X-1054750D01*
G02X-1054250Y791733I0J-500D01*
G01Y788733D01*
G02X-1054750Y788233I-500J0D01*
G01X-1055750D01*
G02X-1056250Y788733I0J500D01*
G01X-1050626Y781936D02*
X-1047626D01*
G02X-1047126Y781436I0J-500D01*
G01Y780436D01*
G02X-1047626Y779936I-500J0D01*
G01X-1050626D01*
G02X-1051126Y780436I0J500D01*
G01Y781436D01*
G02X-1050626Y781936I500J0D01*
G01X-1043636Y807750D02*
Y804750D01*
G02X-1044136Y804250I-500J0D01*
G01X-1045136D01*
G02X-1045636Y804750I0J500D01*
G01Y807750D01*
G02X-1045136Y808250I500J0D01*
G01X-1044136D01*
G02X-1043636Y807750I0J-500D01*
G01X-1055803Y835177D02*
Y841783D01*
X-1052697D01*
Y835177D01*
X-1055803D01*
G01X-1045559Y871733D02*
X-1047842D01*
G01X-1045559Y875867D02*
X-1047842D01*
G01X-1040942Y748736D02*
X-1043942D01*
G02X-1044442Y749236I0J500D01*
G01Y750236D01*
G02X-1043942Y750736I500J0D01*
G01X-1040942D01*
G02X-1040442Y750236I0J-500D01*
G01Y749236D01*
G02X-1040942Y748736I-500J0D01*
G01X-1041319Y763736D02*
X-1044319D01*
G02X-1044819Y764236I0J500D01*
G01Y765236D01*
G02X-1044319Y765736I500J0D01*
G01X-1041319D01*
G02X-1040819Y765236I0J-500D01*
G01Y764236D01*
G02X-1041319Y763736I-500J0D01*
G01X-1035005Y756250D02*
X-1038005D01*
G02X-1038505Y756750I0J500D01*
G01Y757750D01*
G02X-1038005Y758250I500J0D01*
G01X-1035005D01*
G02X-1034505Y757750I0J-500D01*
G01Y756750D01*
G02X-1035005Y756250I-500J0D01*
G01X-1038066Y763450D02*
X-1035066D01*
G02X-1034566Y762950I0J-500D01*
G01Y761950D01*
G02X-1035066Y761450I-500J0D01*
G01X-1038066D01*
G02X-1038566Y761950I0J500D01*
G01Y762950D01*
G02X-1038066Y763450I500J0D01*
G01X-1039750Y766384D02*
Y769384D01*
G02X-1039250Y769884I500J0D01*
G01X-1038250D01*
G02X-1037750Y769384I0J-500D01*
G01Y766384D01*
G02X-1038250Y765884I-500J0D01*
G01X-1039250D01*
G02X-1039750Y766384I0J500D01*
G01X-1038850Y785710D02*
Y788710D01*
G02X-1038350Y789210I500J0D01*
G01X-1037350D01*
G02X-1036850Y788710I0J-500D01*
G01Y785710D01*
G02X-1037350Y785210I-500J0D01*
G01X-1038350D01*
G02X-1038850Y785710I0J500D01*
G01X-1035122Y797050D02*
X-1038122D01*
G02X-1038622Y797550I0J500D01*
G01Y798550D01*
G02X-1038122Y799050I500J0D01*
G01X-1035122D01*
G02X-1034622Y798550I0J-500D01*
G01Y797550D01*
G02X-1035122Y797050I-500J0D01*
G01X-1038850Y790344D02*
Y793344D01*
G02X-1038350Y793844I500J0D01*
G01X-1037350D01*
G02X-1036850Y793344I0J-500D01*
G01Y790344D01*
G02X-1037350Y789844I-500J0D01*
G01X-1038350D01*
G02X-1038850Y790344I0J500D01*
G01X-1039750Y804040D02*
Y807040D01*
G02X-1039250Y807540I500J0D01*
G01X-1038250D01*
G02X-1037750Y807040I0J-500D01*
G01Y804040D01*
G02X-1038250Y803540I-500J0D01*
G01X-1039250D01*
G02X-1039750Y804040I0J500D01*
G01X-1028997Y831347D02*
X-1035603D01*
Y834453D01*
X-1028997D01*
Y831347D01*
G01Y835347D02*
X-1035603D01*
Y838453D01*
X-1028997D01*
Y835347D01*
G01X-1040759Y857271D02*
Y860271D01*
G02X-1040259Y860771I500J0D01*
G01X-1039259D01*
G02X-1038759Y860271I0J-500D01*
G01Y857271D01*
G02X-1039259Y856771I-500J0D01*
G01X-1040259D01*
G02X-1040759Y857271I0J500D01*
G01X-1037803Y860353D02*
X-1031197D01*
Y857247D01*
X-1037803D01*
Y860353D01*
G01X-1023553Y689597D02*
Y696203D01*
X-1020447D01*
Y689597D01*
X-1023553D01*
G01X-1028008Y744636D02*
X-1031008D01*
G02X-1031508Y745136I0J500D01*
G01Y746136D01*
G02X-1031008Y746636I500J0D01*
G01X-1028008D01*
G02X-1027508Y746136I0J-500D01*
G01Y745136D01*
G02X-1028008Y744636I-500J0D01*
G01X-1032981Y793836D02*
X-1029981D01*
G02X-1029481Y793336I0J-500D01*
G01Y792336D01*
G02X-1029981Y791836I-500J0D01*
G01X-1032981D01*
G02X-1033481Y792336I0J500D01*
G01Y793336D01*
G02X-1032981Y793836I500J0D01*
G01X-1028232Y807564D02*
X-1031232D01*
G02X-1031732Y808064I0J500D01*
G01Y809064D01*
G02X-1031232Y809564I500J0D01*
G01X-1028232D01*
G02X-1027732Y809064I0J-500D01*
G01Y808064D01*
G02X-1028232Y807564I-500J0D01*
G01X-1026997Y845547D02*
X-1033603D01*
Y848653D01*
X-1026997D01*
Y845547D01*
G01X-1028819Y865000D02*
X-1020181D01*
G02X-1019000Y863819I0J-1181D01*
G01Y861181D01*
G02X-1020181Y860000I-1181J0D01*
G01X-1028819D01*
G02X-1030000Y861181I0J1181D01*
G01Y863819D01*
G02X-1028819Y865000I1181J0D01*
G01X-1020181Y866000D02*
X-1028819D01*
G02X-1030000Y867181I0J1181D01*
G01Y869819D01*
G02X-1028819Y871000I1181J0D01*
G01X-1020181D01*
G02X-1019000Y869819I0J-1181D01*
G01Y867181D01*
G02X-1020181Y866000I-1181J0D01*
G01Y871500D02*
X-1028819D01*
G02X-1030000Y872681I0J1181D01*
G01Y875319D01*
G02X-1028819Y876500I1181J0D01*
G01X-1020181D01*
G02X-1019000Y875319I0J-1181D01*
G01Y872681D01*
G02X-1020181Y871500I-1181J0D01*
G01X-1033000Y881900D02*
Y884900D01*
G02X-1032500Y885400I500J0D01*
G01X-1031500D01*
G02X-1031000Y884900I0J-500D01*
G01Y881900D01*
G02X-1031500Y881400I-500J0D01*
G01X-1032500D01*
G02X-1033000Y881900I0J500D01*
G01X-1026947Y886503D02*
Y879897D01*
X-1030053D01*
Y886503D01*
X-1026947D01*
G01X-1026253Y879897D02*
Y886503D01*
X-1023147D01*
Y879897D01*
X-1026253D01*
G01X-1021419Y893500D02*
X-1012781D01*
G02X-1011600Y892319I0J-1181D01*
G01Y889681D01*
G02X-1012781Y888500I-1181J0D01*
G01X-1021419D01*
G02X-1022600Y889681I0J1181D01*
G01Y892319D01*
G02X-1021419Y893500I1181J0D01*
G01X-1022297Y914847D02*
X-1028903D01*
Y917953D01*
X-1022297D01*
Y914847D01*
G01Y911047D02*
X-1028903D01*
Y914153D01*
X-1022297D01*
Y911047D01*
G01X-1016900Y693700D02*
X-1018900D01*
Y689700D01*
X-1016900D01*
Y693700D01*
G01X-1015747Y709503D02*
Y702897D01*
X-1018853D01*
Y709503D01*
X-1015747D01*
G01X-1016803Y725903D02*
Y730935D01*
G02X-1016016Y731722I787J0D01*
G01X-1014484D01*
G02X-1013697Y730935I0J-787D01*
G01Y725903D01*
G02X-1014484Y725116I-787J0D01*
G01X-1016016D01*
G02X-1016803Y725903I0J787D01*
G01X-1009646Y731804D02*
Y725197D01*
X-1012753D01*
Y731804D01*
X-1009646D01*
G01X-1019744Y727929D02*
Y730929D01*
G02X-1019244Y731429I500J0D01*
G01X-1018244D01*
G02X-1017744Y730929I0J-500D01*
G01Y727929D01*
G02X-1018244Y727429I-500J0D01*
G01X-1019244D01*
G02X-1019744Y727929I0J500D01*
G01X-1014553Y788484D02*
Y793516D01*
G02X-1013766Y794303I787J0D01*
G01X-1012234D01*
G02X-1011447Y793516I0J-787D01*
G01Y788484D01*
G02X-1012234Y787697I-787J0D01*
G01X-1013766D01*
G02X-1014553Y788484I0J787D01*
G01X-1017250Y783814D02*
Y786814D01*
G02X-1016750Y787314I500J0D01*
G01X-1015750D01*
G02X-1015250Y786814I0J-500D01*
G01Y783814D01*
G02X-1015750Y783314I-500J0D01*
G01X-1016750D01*
G02X-1017250Y783814I0J500D01*
G01Y790233D02*
Y793233D01*
G02X-1016750Y793733I500J0D01*
G01X-1015750D01*
G02X-1015250Y793233I0J-500D01*
G01Y790233D01*
G02X-1015750Y789733I-500J0D01*
G01X-1016750D01*
G02X-1017250Y790233I0J500D01*
G01X-1015850Y800424D02*
Y797424D01*
G02X-1016350Y796924I-500J0D01*
G01X-1017350D01*
G02X-1017850Y797424I0J500D01*
G01Y800424D01*
G02X-1017350Y800924I500J0D01*
G01X-1016350D01*
G02X-1015850Y800424I0J-500D01*
G01X-1013000Y851818D02*
Y843181D01*
G02X-1014181Y842000I-1181J0D01*
G01X-1016819D01*
G02X-1018000Y843181I0J1181D01*
G01Y851818D01*
G02X-1016819Y853000I1181J1D01*
G01X-1014181D01*
G02X-1013000Y851818I0J-1181D01*
G01X-1010000Y874819D02*
Y866181D01*
G02X-1011181Y865000I-1181J0D01*
G01X-1013819D01*
G02X-1015000Y866181I0J1181D01*
G01Y874819D01*
G02X-1013819Y876000I1181J0D01*
G01X-1011181D01*
G02X-1010000Y874819I0J-1181D01*
G01X-1008140Y725219D02*
X-1006140D01*
Y729219D01*
X-1008140D01*
Y725219D01*
G01X-1005340Y725119D02*
X-1003340D01*
Y729119D01*
X-1005340D01*
Y725119D01*
G01X-1002540D02*
X-1000540D01*
Y729119D01*
X-1002540D01*
Y725119D01*
G01X-999740D02*
X-997740D01*
Y729119D01*
X-999740D01*
Y725119D01*
G01X-975920Y753100D02*
Y757100D01*
X-977350Y753767D01*
X-978780Y757100D01*
Y753100D01*
G01X-980290Y757100D02*
X-981610D01*
G01X-980950D02*
Y753100D01*
G01X-980290D02*
X-981610D01*
G01X-985760Y756767D02*
X-985430Y756967D01*
X-985045Y757100D01*
X-984605D01*
X-984110Y756900D01*
X-983725Y756567D01*
X-983450Y756167D01*
X-983230Y755500D01*
X-983175Y754900D01*
X-983285Y754300D01*
X-983450Y753900D01*
X-983780Y753500D01*
X-984165Y753233D01*
X-984550Y753100D01*
X-984935D01*
X-985320Y753233D01*
X-985650Y753433D01*
X-985925Y753700D01*
G01X-987050Y753100D02*
Y757100D01*
X-988425D01*
X-988865Y756900D01*
X-989140Y756633D01*
X-989250Y756100D01*
X-989140Y755567D01*
X-988810Y755233D01*
X-988425Y755033D01*
X-987050D01*
G01X-988425D02*
X-989250Y753100D01*
G01X-991750D02*
X-991310Y753167D01*
X-990925Y753433D01*
X-990595Y753833D01*
X-990375Y754300D01*
X-990265Y754833D01*
Y755367D01*
X-990375Y755900D01*
X-990595Y756367D01*
X-990925Y756767D01*
X-991310Y757033D01*
X-991750Y757100D01*
X-992190Y757033D01*
X-992575Y756767D01*
X-992905Y756367D01*
X-993125Y755900D01*
X-993235Y755367D01*
Y754833D01*
X-993125Y754300D01*
X-992905Y753833D01*
X-992575Y753433D01*
X-992190Y753167D01*
X-991750Y753100D01*
G01X-997795Y753633D02*
X-998235Y753300D01*
X-998730Y753100D01*
X-999170D01*
X-999610Y753300D01*
X-999940Y753633D01*
X-1000105Y754100D01*
X-999995Y754567D01*
X-999720Y754967D01*
X-999225Y755233D01*
X-998565Y755367D01*
X-998180Y755633D01*
X-998015Y756100D01*
X-998125Y756567D01*
X-998400Y756900D01*
X-998785Y757100D01*
X-999170D01*
X-999555Y756967D01*
X-999885Y756633D01*
G01X-1001340Y753100D02*
Y757100D01*
X-1002440D01*
X-1002880Y756900D01*
X-1003210Y756633D01*
X-1003485Y756233D01*
X-1003705Y755767D01*
X-1003760Y755100D01*
X-1003705Y754433D01*
X-1003485Y753967D01*
X-1003210Y753567D01*
X-1002880Y753300D01*
X-1002440Y753100D01*
X-1001340D01*
G01X-1004900Y779671D02*
Y767435D01*
X-999400D01*
Y761435D01*
X-999365Y761400D01*
X-970400D01*
G01X-997181Y855500D02*
X-1005819D01*
G02X-1007000Y856681I0J1181D01*
G01Y859319D01*
G02X-1005819Y860500I1181J0D01*
G01X-997181D01*
G02X-996000Y859319I0J-1181D01*
G01Y856681D01*
G02X-997181Y855500I-1181J0D01*
G01X-1005819Y875000D02*
X-997181D01*
G02X-996000Y873819I0J-1181D01*
G01Y871181D01*
G02X-997181Y870000I-1181J0D01*
G01X-1005819D01*
G02X-1007000Y871181I0J1181D01*
G01Y873819D01*
G02X-1005819Y875000I1181J0D01*
G01X-997181Y861000D02*
X-1005819D01*
G02X-1007000Y862181I0J1181D01*
G01Y864819D01*
G02X-1005819Y866000I1181J0D01*
G01X-997181D01*
G02X-996000Y864819I0J-1181D01*
G01Y862181D01*
G02X-997181Y861000I-1181J0D01*
G01X-996581Y888600D02*
X-1005219D01*
G02X-1006400Y889781I0J1181D01*
G01Y892419D01*
G02X-1005219Y893600I1181J0D01*
G01X-996581D01*
G02X-995400Y892419I0J-1181D01*
G01Y889781D01*
G02X-996581Y888600I-1181J0D01*
G01X-989853Y714384D02*
Y719416D01*
G02X-989066Y720203I787J0D01*
G01X-987534D01*
G02X-986747Y719416I0J-787D01*
G01Y714384D01*
G02X-987534Y713597I-787J0D01*
G01X-989066D01*
G02X-989853Y714384I0J787D01*
G01X-993853Y714484D02*
Y719516D01*
G02X-993066Y720303I787J0D01*
G01X-991534D01*
G02X-990747Y719516I0J-787D01*
G01Y714484D01*
G02X-991534Y713697I-787J0D01*
G01X-993066D01*
G02X-993853Y714484I0J787D01*
G01X-996940Y725119D02*
X-994940D01*
Y729119D01*
X-996940D01*
Y725119D01*
G01X-992160Y729081D02*
X-994160D01*
Y725081D01*
X-992160D01*
Y729081D01*
G01X-987397Y731662D02*
Y725056D01*
X-990503D01*
Y731662D01*
X-987397D01*
G01X-970057Y820152D02*
X-998585D01*
G01X-988659Y877170D02*
Y885808D01*
G02X-987478Y886989I1181J0D01*
G01X-984841D01*
G02X-983659Y885808I1J-1181D01*
G01Y877170D01*
G02X-984841Y875989I-1181J0D01*
G01X-987478D01*
G02X-988659Y877170I0J1181D01*
G01X-985400Y715200D02*
Y718200D01*
G02X-984900Y718700I500J0D01*
G01X-983900D01*
G02X-983400Y718200I0J-500D01*
G01Y715200D01*
G02X-983900Y714700I-500J0D01*
G01X-984900D01*
G02X-985400Y715200I0J500D01*
G01X-986493Y725016D02*
Y731622D01*
X-983387D01*
Y725016D01*
X-986493D01*
G01X-971197Y837447D02*
X-977803D01*
Y840553D01*
X-971197D01*
Y837447D01*
G01X-971277Y841297D02*
X-977883D01*
Y844403D01*
X-971277D01*
Y841297D01*
G01X-981000Y858181D02*
Y866819D01*
G02X-979819Y868000I1181J0D01*
G01X-977181D01*
G02X-976000Y866819I0J-1181D01*
G01Y858181D01*
G02X-977181Y857000I-1181J0D01*
G01X-979819D01*
G02X-981000Y858181I0J1181D01*
G01X-977083Y876176D02*
X-971083D01*
G01X-977083Y883276D02*
Y880276D01*
G01X-975677Y871288D02*
X-982283D01*
Y874394D01*
X-975677D01*
Y871288D01*
G01X-967628Y889131D02*
Y896131D01*
X-980628D01*
Y889131D01*
X-967628D01*
G01X-971083Y887376D02*
X-977083D01*
G01X-954580Y664307D02*
G03I-5200J0D01*
G01X-969100Y750000D02*
X-966100D01*
G02X-965600Y749500I0J-500D01*
G01Y748500D01*
G02X-966100Y748000I-500J0D01*
G01X-969100D01*
G02X-969600Y748500I0J500D01*
G01Y749500D01*
G02X-969100Y750000I500J0D01*
G01X-975074Y848987D02*
Y847381D01*
G01Y845050D02*
X-971925D01*
Y846625D01*
G01X-954580Y857220D02*
G03I-5200J0D01*
G01X-975074Y851350D02*
X-971925D01*
Y849775D01*
G01X-966012Y870692D02*
Y877298D01*
X-962906D01*
Y870692D01*
X-966012D01*
G01X-963830Y884159D02*
X-955192D01*
G02X-954011Y882978I0J-1181D01*
G01Y880341D01*
G02X-955192Y879159I-1181J-1D01*
G01X-963830D01*
G02X-965011Y880341I0J1181D01*
G01Y882978D01*
G02X-963830Y884159I1181J0D01*
G01X-954580Y913220D02*
G03I-5200J0D01*
G01X-957811Y650528D02*
G03X-946000Y662339I0J11811D01*
G01X-959900Y761400D02*
X-945935D01*
X-945900Y761435D01*
Y771400D01*
X-935650D01*
Y814707D01*
X-949900D01*
Y820152D01*
X-960317D01*
G01X-955695Y826452D02*
Y833058D01*
X-952589D01*
Y826452D01*
X-955695D01*
G01X-959695Y826448D02*
Y833054D01*
X-956589D01*
Y826448D01*
X-959695D01*
G01X-959742Y837915D02*
Y842837D01*
G01X-961025Y873613D02*
X-955993D01*
G02X-955206Y872826I-1J-788D01*
G01Y871293D01*
G02X-955993Y870506I-787J0D01*
G01X-961025D01*
G02X-961812Y871293I0J787D01*
G01Y872826D01*
G02X-961025Y873613I787J0D01*
G01X-961805Y877612D02*
X-955199D01*
Y874506D01*
X-961805D01*
Y877612D01*
G01X-963152Y889880D02*
X-956460D01*
G01Y894802D02*
X-963152D01*
G01X-946000Y915189D02*
G03X-957811Y927000I-11811J0D01*
G01X-946000Y662339D02*
Y915189D01*
G01X-949900Y814707D02*
Y782961D01*
G03X-946624Y775054I11183J1D01*
G02X-945900Y773305I-1749J-1749D01*
G01Y771400D01*
G01X-951868Y842837D02*
Y837915D01*
G54D13*
G01X-1280646Y662339D02*
Y915189D01*
G02X-1268835Y927000I11811J0D01*
G01X-957811D01*
G02X-946000Y915189I0J-11811D01*
G01Y662339D01*
G02X-957811Y650528I-11811J0D01*
G01X-1268835D01*
G02X-1280646Y662339I0J11811D01*
G54D14*
G01X-1127324Y855703D02*
Y849203D01*
G01X-1113724Y855803D02*
Y849303D01*
M02*
